<svg height="80" viewBox="0 0 80 80" width="80" xmlns="http://www.w3.org/2000/svg"><g fill="none" fill-rule="evenodd"><path d="m0 0h80v80h-80z" fill="#ed7100"/><path d="m9.919 28.879c2.474 6.557 9.71 11.121 18.081 11.121 10.477 0 19-7.178 19-16 0-8.823-8.523-16-19-16-8.372 0-15.607 4.563-18.082 11.12.354-.079.716-.12 1.082-.12h22c2.757 0 5 2.243 5 5 0 2.756-2.243 5-5 5h-22c-.366 0-.728-.041-1.081-.121m18.081 13.121c-10.195 0-18.883-6.244-20.658-14.847-.087-.424.108-.856.484-1.07.375-.216.847-.163 1.168.128.56.509 1.272.789 2.006.789h22c1.654 0 3-1.346 3-3 0-1.655-1.346-3-3-3h-22c-.734 0-1.446.279-2.007.788-.32.291-.791.342-1.168.128-.376-.215-.57-.647-.483-1.071 1.775-8.602 10.463-14.845 20.658-14.845 11.579 0 21 8.074 21 18 0 9.925-9.421 18-21 18m0-40c-14.337 0-26 9.869-26 22 0 12.13 11.663 22 26 22s26-9.87 26-22c0-12.131-11.663-22-26-22m0 46c-15.439 0-28-10.767-28-24 0-13.234 12.561-24 28-24 15.44 0 28 10.766 28 24 0 13.233-12.56 24-28 24" fill="#fff" transform="translate(12 16)"/></g></svg>