<svg height="80" viewBox="0 0 80 80" width="80" xmlns="http://www.w3.org/2000/svg"><g fill="none" fill-rule="evenodd"><path d="m0 0h80v80h-80z" fill="#8c4fff"/><path d="m36 39h6v-2h-6zm4 11h3v-3h-3zm5-4v5c0 .552-.447 1-1 1h-5c-.552 0-1-.448-1-1v-5c0-.552.448-1 1-1h5c.553 0 1 .448 1 1zm-6-3h3v-2h-3zm7-2h3v-3h-3zm4 2h-5c-.552 0-1-.448-1-1v-5c0-.552.448-1 1-1h2.975c-1.67-1.25-3.733-2-5.975-2-4.468 0-8.261 2.947-9.539 7h4.539v2h-4.949c-.033.329-.051.663-.051 1s.018.671.051 1h3.949v2h-3.539c.223.705.528 1.372.893 2h2.646v2h-1.129c1.816 1.849 4.339 3 7.129 3s5.314-1.151 7.129-3h-2.129v-2h3.647c.365-.628.67-1.295.892-2h-4.539v-2h4.95c.033-.329.05-.663.05-1 0-1.553-.366-3.018-1-4.33v2.33c0 .552-.447 1-1 1zm4 1c0 6.617-5.382 12-12 12-6.617 0-12-5.383-12-12s5.383-12 12-12c6.618 0 12 5.383 12 12zm-18.873-12.183c-14.693 1.421-29.127 4.903-29.127 18.183h2c0-6.367 3-13.122 24.034-15.815.912-.927 1.955-1.723 3.093-2.368zm-23.127 24.183h2c0-5.815.012-12.932 14.801-16.623.281-.8.628-1.567 1.043-2.293-17.83 3.963-17.844 12.898-17.844 18.916zm-10-42h-2c0 7.396 10.039 12.08 29.893 14-19.854 1.92-29.893 6.604-29.893 14h2c0-4.855 6.756-13 52-13v-2c-45.244 0-52-8.145-52-13zm6-8h-2c0 9.396 5.703 19 48 19v-2c-40.535 0-46-8.594-46-17zm46 13v2c-18.337 0-30.272-2.359-36.49-7.212-5.51-4.3-5.51-9.784-5.51-13.788h2c0 7.566 0 19 40 19z" fill="#fff" transform="translate(13 12)"/></g></svg>