<svg height="80" viewBox="0 0 80 80" width="80" xmlns="http://www.w3.org/2000/svg"><g fill="none" fill-rule="evenodd"><path d="m0 0h80v80h-80z" fill="#dd344c"/><path d="m54.0106622 49.9995h-2v4h-4v2h4v4h2v-4h4v-2h-4zm7 5c0-4.411-3.589-8-8-8s-8 3.589-8 8 3.589 8 8 8 8-3.589 8-8zm2 0c0 5.514-4.486 10-10 10s-10-4.486-10-10 4.486-10 10-10 10 4.486 10 10zm-27 2.971v-35.515l-11 4.231v20.313c.012.414.396 10.38 11 10.971zm13-14.271v-17.013l-11-4.231v35.507c1.16-.077 2.237-.282 3.236-.599.135.669.334 1.314.575 1.938-1.465.459-3.07.698-4.811.698-13.559 0-13.997-12.848-14-12.978v-21.022c0-.414.255-.785.641-.934l13-5c.232-.088.486-.088.718 0l13 5c.386.149.641.52.641.934v17.181c-.688.116-1.356.291-2 .519zm-4.255 19.988c.558.529 1.165 1.005 1.817 1.421-2.755 1.248-5.958 1.879-9.562 1.879-6.327 0-11.371-1.925-14.991-5.721-6.431-6.743-6.029-16.886-6.008-17.314l-.001-21.953c0-.409.249-.776.629-.929l20-8c.238-.094.504-.094.742 0l20 8c.38.153.629.52.629.929v22s.002.044.004.107c-.64-.295-1.309-.532-2.003-.712l-.001-20.718-19-7.6-19 7.6v21.323c-.006.143-.375 9.784 5.466 15.897 3.227 3.378 7.781 5.091 13.534 5.091 2.888 0 5.475-.442 7.745-1.3z" fill="#fff"/></g></svg>