<svg height="80" viewBox="0 0 80 80" width="80" xmlns="http://www.w3.org/2000/svg"><g fill="none" fill-rule="evenodd"><path d="m0 0h80v80h-80z" fill="#7aa116"/><path d="m40 30.0123292c2.206 0 4-1.7934022 4-3.9986671s-1.794-3.9986671-4-3.9986671-4 1.7934022-4 3.9986671 1.794 3.9986671 4 3.9986671zm-13 10.9963346c0-2.2052649-1.794-3.9986671-4-3.9986671s-4 1.7934022-4 3.9986671 1.794 3.9986671 4 3.9986671 4-1.7934022 4-3.9986671zm26 0c0 2.2052649 1.794 3.9986671 4 3.9986671s4-1.7934022 4-3.9986671-1.794-3.9986671-4-3.9986671-4 1.7934022-4 3.9986671zm-7 .9996668v19.9243585l11.871-5.844052c1.928-.9636788 3.129-2.9020326 3.129-5.0573142v-2.0253249h2v2.0253249c0 2.9170276-1.625 5.5411529-4.24 6.8477174l-18.319 9.017994c-.138.068977-.29.1029657-.441.1029657-.159 0-.317-.0379873-.462-.1129623l-17.312-9.014995c-2.601-1.2995669-4.226-3.9236922-4.226-6.8407198v-2.0253249h2v2.0253249c0 2.1552816 1.201 4.0936354 3.135 5.0593136l10.865 5.6581139v-19.7404198h-5.09c-.478 2.8320559-2.943 4.9983338-5.91 4.9983338-3.309 0-6-2.6901033-6-5.9980006 0-3.3078974 2.691-5.9980007 6-5.9980007 2.967 0 5.432 2.1662779 5.91 4.9983339h6.09c.553 0 1 .4478507 1 .9996668v21.7817394l2.997 1.5604798.003-32.4291902c-2.833-.4778408-5-2.9420194-5-5.9080307 0-3.3078974 2.691-5.9980007 6-5.9980007s6 2.6901033 6 5.9980007c0 2.9660113-2.167 5.4301899-5 5.9080307l-.003 32.4731756 3.003-1.4775075v-21.9086971c0-.5518161.447-.9996668 1-.9996668h6.09c.478-2.832056 2.943-4.9983339 5.91-4.9983339 3.309 0 6 2.6901033 6 5.9980007 0 3.3078973-2.691 5.9980006-6 5.9980006-2.967 0-5.432-2.1662779-5.91-4.9983338zm17-22.5014995v14.5041652h-2v-13.5174941c-8.917-.1819394-18.153-1.9073642-21.064-4.6454516-3.003 2.5451517-11.848 4.4315229-19.936 4.6414529v13.5214928h-2v-14.5041652c0-.5488171.442-.9946685.991-.9996668 11.416-.0999667 19.579-3.212929 20.009-4.5134955.001-.0349884.004-.0679774.008-.1009664.045-.5088304.471-.8927024.994-.8927024.552 0 .998.4658447.998 1.0176608.248 1.2505831 7.919 4.3925358 21.008 4.4895035.549.0039986.992.4508497.992.9996668z" fill="#fff"/></g></svg>