<svg height="80" viewBox="0 0 80 80" width="80" xmlns="http://www.w3.org/2000/svg"><g fill="none" fill-rule="evenodd"><path d="m0 0h80v80h-80z" fill="#e7157b"/><path d="m55.975 28.9757505h-10.571l5.281 5.307-1.418 1.411-6.975-7.008c-.388-.39-.387-1.022.001-1.411l6.975-6.993 1.416 1.412-5.269 5.283 10.562.011zm-42.291-1.701c.389.389.39 1.021.001 1.411l-6.975 7.008-1.418-1.411 5.282-5.307h-10.572l-.002-1.988 10.562-.011-5.269-5.283 1.416-1.412zm20.6 20.017 1.41 1.417-7.008 6.975c-.194.195-.45.292-.705.292-.256 0-.511-.097-.706-.292l-6.992-6.976 1.412-1.416 5.294 5.27v-10.563l2 .002-.011 10.572zm-12.589-38.60800002-1.412-1.416 6.992-6.976c.389-.388 1.021-.39 1.411 0l7.008 6.976-1.41 1.416-5.306-5.281.011 10.57200002-2 .001v-10.56200002zm12.294 13.47100002c-.865-.233-1.817-.152-2.707.266-.709.334-1.283.906-1.616 1.612-.59 1.257-.524 2.618.184 3.733.69 1.087 1.872 1.737 3.159 1.737.336 0 .664-.044.98-.129v2.602h-4c-.41 0-.777.249-.929.628-.151.379-.058.813.238 1.096.52.495.615 1.267.244 1.965-.124.233-.34.543-.674.7-.856.402-1.501.133-1.81-.061-.507-.323-.81-.872-.81-1.472 0-.601.165-.879.431-1.132.296-.282.39-.716.238-1.096-.152-.379-.519-.628-.928-.628h-4v-12.906c.029-.033.07-.07.104-.094h11.896zm1-5.179h-13c-.953 0-2 1.024-2 1.958v14.042c0 .552.447 1 1 1h3.34c-.054.267-.081.551-.081.856 0 1.288.65 2.469 1.738 3.16.611.388 1.296.583 1.997.583.578 0 1.168-.133 1.736-.4.658-.31 1.208-.853 1.589-1.571.45-.847.563-1.777.36-2.628h3.321c.552 0 1-.448 1-1v-5.326c0-.408-.249-.776-.628-.928-.381-.152-.814-.058-1.096.238-.755.793-2.149.642-2.727-.266-.196-.309-.463-.954-.062-1.809.135-.286.368-.518.657-.654.786-.371 1.58-.243 2.132.334.281.296.713.39 1.096.239.379-.152.628-.52.628-.929v-5.899c0-.552-.448-1-1-1z" fill="#fff" transform="translate(12 12)"/></g></svg>