<svg height="80" viewBox="0 0 80 80" width="80" xmlns="http://www.w3.org/2000/svg"><g fill="none" fill-rule="evenodd"><path d="m0 0h80v80h-80z" fill="#c925d1"/><path d="m15.414 14 9.293 9.293-1.414 1.414-9.293-9.293v7.586h-2v-10c0-.552.447-1 1-1h10v2zm52.586-1v10h-2v-7.586l-9.293 9.293-1.414-1.414 9.293-9.293h-7.586v-2h10c.553 0 1 .448 1 1zm-2 44h2v10c0 .552-.447 1-1 1h-10v-2h7.586l-9.293-9.293 1.414-1.414 9.293 9.293zm-.5-17.787c0-3.319-3.832-6.598-10.25-8.771l.641-1.894c7.377 2.497 11.609 6.384 11.609 10.665 0 4.282-4.232 8.17-11.61 10.666l-.641-1.895c6.419-2.172 10.251-5.45 10.251-8.771zm-50.944 0c0 3.18 3.587 6.372 9.596 8.54l-.679 1.881c-6.938-2.503-10.917-6.301-10.917-10.421 0-4.119 3.979-7.917 10.917-10.421l.679 1.881c-6.009 2.169-9.596 5.361-9.596 8.54zm10.151 17.494-9.293 9.293h7.586v2h-10c-.553 0-1-.448-1-1v-10h2v7.586l9.293-9.293zm15.293-25.421c-7.146 0-11-1.846-11-2.6 0-.755 3.854-2.6 11-2.6 7.145 0 11 1.845 11 2.6 0 .754-3.855 2.6-11 2.6zm.029 7.745c-6.842 0-11.029-1.869-11.029-2.886v-4.861c2.463 1.359 6.832 2.002 11 2.002s8.537-.643 11-2.002v4.861c0 1.018-4.165 2.886-10.971 2.886zm0 7.636c-6.842 0-11.029-1.869-11.029-2.886v-4.919c2.431 1.429 6.742 2.169 11.029 2.169 4.263 0 8.549-.739 10.971-2.164v4.914c0 1.018-4.165 2.886-10.971 2.886zm-.029 6.851c-7.117 0-11-1.913-11-2.896v-4.124c2.431 1.429 6.742 2.169 11.029 2.169 4.263 0 8.549-.738 10.971-2.164v4.119c0 .983-3.883 2.896-11 2.896zm0-29.432c-6.261 0-13 1.439-13 4.6v21.936c0 3.214 6.54 4.896 13 4.896s13-1.682 13-4.896v-21.936c0-3.161-6.739-4.6-13-4.6z" fill="#fff"/></g></svg>