<svg height="80" viewBox="0 0 80 80" width="80" xmlns="http://www.w3.org/2000/svg"><g fill="none" fill-rule="evenodd"><path d="m0 0h80v80h-80z" fill="#c925d1"/><path d="m51 61.5554864v-5.8525522c-2.534 1.6371545-7.096 2.4102274-11.444 2.4102274-4.74 0-8.435-.827078-10.556-2.2452118v5.6875366c0 1.6931597 3.948 3.4443249 10.556 3.4443249 6.744 0 11.444-1.8151712 11.444-3.4443249zm-11.444-12.3351637c-4.74 0-8.435-.826078-10.556-2.2442117v5.7105387c.031 1.6871591 3.973 3.4263232 10.556 3.4263232 6.723 0 11.413-1.8041702 11.444-3.4303236v-5.872554c-2.534 1.6381545-7.096 2.4102274-11.444 2.4102274zm11.444-5.4295122v-6.7616379c-2.534 1.6371544-7.096 2.4102273-11.444 2.4102273-4.74 0-8.435-.8260779-10.556-2.2442117v6.5996226c.031 1.6871592 3.973 3.4253232 10.556 3.4253232 6.723 0 11.413-1.8041702 11.444-3.4293235zm-22.003-9.7979244c0 .0030003.001.0060006.001.0090009h.002v.011001c.031 1.6871592 3.973 3.4263232 10.556 3.4263232 7.342 0 11.413-2.0221907 11.444-3.4293235v-.0080007h.002c0-.0030003.001-.0060006.001-.0090009 0-1.4081328-4.076-3.4463251-11.447-3.4463251-6.61 0-10.559 1.7521653-10.559 3.4463251zm24.003.0250024v9.7559203h.003c0 .0090009-.003.0160016-.003.0250024v8.8678366h.003c0 .0090008-.003.0160015-.003.0250024v8.8638362c0 3.7413529-6.969 5.4445136-13.444 5.4445136-7.627 0-12.556-2.1372016-12.556-5.4445136v-8.8578357c0-.011001-.003-.0200019-.003-.0310029h.003v-8.861836c0-.010001-.003-.0200019-.003-.031003h.003v-9.7499198c0-.011001-.003-.0200018-.003-.0310029 0-3.3083121 4.93-5.4465138 12.559-5.4465138 6.476 0 13.447 1.7041608 13.447 5.4465138 0 .0090009-.003.0160015-.003.0250024zm14-12.8972167c.553 0 1-.4480423 1-1.0000944v-5.1204831c0-.5530521-.447-1.0000943-1-1.0000943h-54c-.553 0-1 .4470422-1 1.0000943v5.1204831c0 .5520521.447 1.0000944 1 1.0000944 1.221 0 2.214.9870931 2.214 2.2002075 0 1.2131145-.993 2.2002076-2.214 2.2002076-.553 0-1 .4480423-1 1.0000943v20.4819323c0 .5520521.447 1.0000943 1 1.0000943h10v-2.0001886h-5v-3.0002831h5v-2.0001887h-6c-.553 0-1 .4470422-1 1.0000944v4.0003774h-2v-18.6017549c1.843-.4490424 3.214-2.1081989 3.214-4.080385 0-1.9731861-1.371-3.6323426-3.214-4.081385v-3.2393056h52v3.2393056c-1.843.4490424-3.214 2.1081989-3.214 4.081385 0 1.9721861 1.371 3.6313426 3.214 4.080385v18.6017549h-2v-4.0003774c0-.5530522-.447-1.0000944-1-1.0000944h-6v2.0001887h5v3.0002831h-5v2.0001886h10c.553 0 1-.4480422 1-1.0000943v-20.4819323c0-.552052-.447-1.0000943-1-1.0000943-1.221 0-2.214-.9870931-2.214-2.2002076 0-1.2131144.993-2.2002075 2.214-2.2002075zm-39 6.8806491v-8.0007548c0-.5530522-.447-1.0000944-1-1.0000944h-6c-.553 0-1 .4470422-1 1.0000944v17.0016039c0 .5520521.447 1.0000944 1 1.0000944h3v-2.0001887h-2v-15.0014153h4v7.0006605zm30 8.0007548h-1v2.0001887h2c.553 0 1-.4480423 1-1.0000944v-17.0016039c0-.5530522-.447-1.0000944-1-1.0000944h-6c-.553 0-1 .4470422-1 1.0000944v8.0007548h2v-7.0006605h4zm-8-9.0008492v-7.0006604c0-.5530522-.447-1.0000944-1-1.0000944h-7c-.553 0-1 .4470422-1 1.0000944v6.0005661h2v-5.0004718h5v6.0005661zm-13-1.0000943v-5.0004718h-5v6.0005661h-2v-7.0006604c0-.5530522.447-1.0000944 1-1.0000944h7c.553 0 1 .4470422 1 1.0000944v6.0005661z" fill="#fff"/></g></svg>