<svg height="80" viewBox="0 0 80 80" width="80" xmlns="http://www.w3.org/2000/svg"><g fill="none" fill-rule="evenodd"><path d="m0 0h80v80h-80z" fill="#7aa116"/><path d="m27.943 37.498c1.38 0 2.502 1.123 2.502 2.502 0 1.38-1.122 2.503-2.502 2.503s-2.503-1.123-2.503-2.503c0-1.379 1.123-2.502 2.503-2.502zm7.904-7.94c.555 1.323 1.727 2.32 3.153 2.647v18.663c-.678-.061-1.349-.188-2-.373v-10.495c0-.552-.448-1-1-1h-3.676c-.326-1.429-1.328-2.603-2.657-3.156 1.106-2.869 3.333-5.135 6.18-6.286zm4.153-4.238c1.38 0 2.502 1.123 2.502 2.503s-1.122 2.502-2.502 2.502-2.502-1.122-2.502-2.502 1.122-2.503 2.502-2.503zm10.334 10.524c-1.329.553-2.332 1.727-2.659 3.156h-3.675c-.553 0-1 .448-1 1v10.496c-.65.185-1.321.311-2 .372v-18.663c1.425-.327 2.598-1.325 3.153-2.649 2.848 1.15 5.073 3.415 6.181 6.288zm4.225 4.156c0 1.38-1.123 2.503-2.503 2.503s-2.502-1.123-2.502-2.503c0-1.379 1.122-2.502 2.502-2.502s2.503 1.123 2.503 2.502zm-9.559 9.7v-8.7h2.675c.318 1.39 1.276 2.533 2.549 3.104-1.011 2.403-2.881 4.406-5.224 5.596zm-13.504-2.768c-.048-.057-.097-.112-.17-.211-.645-.803-1.167-1.678-1.561-2.612 1.28-.569 2.24-1.716 2.559-3.109h2.676v8.697c-1.338-.674-2.539-1.605-3.504-2.765zm-3.721-2.446c.479 1.252 1.135 2.421 1.96 3.446.072.101.156.201.232.29 1.347 1.62 3.092 2.888 5.033 3.681v5.097h2v-4.445c.652.156 1.318.264 2 .315v4.13h2v-4.13c.682-.051 1.348-.159 2-.314v4.444h2v-5.097c3.307-1.366 5.943-4.097 7.215-7.416 2.409-.086 4.344-2.058 4.344-4.487 0-2.383-1.867-4.32-4.214-4.473-1.298-3.725-4.173-6.634-7.872-7.981-.145-2.351-2.086-4.226-4.473-4.226-2.388 0-4.328 1.875-4.475 4.227-3.696 1.348-6.572 4.26-7.869 7.98-2.348.151-4.216 2.089-4.216 4.473 0 2.425 1.931 4.395 4.335 4.486zm-9.775 16.514h44v-41h-44zm50-38v-2h-4v-2c0-.552-.448-1-1-1h-46c-.553 0-1 .448-1 1v2h-4v2h4v4h-4v2h4v4h-4v2h4v4h-4v2h4v4h-4v2h4v4h-4v2h4v4h-4v2h4v3c0 .553.447 1 1 1h46c.552 0 1-.447 1-1v-3h4v-2h-4v-4h4v-2h-4v-4h4v-2h-4v-4h4v-2h-4v-4h4v-2h-4v-4h4v-2h-4v-4z" fill="#fff"/></g></svg>