<svg height="80" viewBox="0 0 80 80" width="80" xmlns="http://www.w3.org/2000/svg"><g fill="none" fill-rule="evenodd"><path d="m0 0h80v80h-80z" fill="#e7157b"/><path d="m17.783 24.7002324c1.654 0 3 1.346 3 3h2c0-2.757-2.243-5-5-5s-5 2.243-5 5h2c0-1.654 1.346-3 3-3zm15.707 3.71 2.793-2.794 2.793 2.794 1.414-1.414-2.793-2.795 2.793-2.794-1.414-1.414-2.793 2.794-2.793-2.794-1.414 1.414 2.793 2.794-2.793 2.795zm-8.707-15.21c0-1.378-1.121-2.5-2.5-2.5s-2.5 1.122-2.5 2.5 1.121 2.5 2.5 2.5 2.5-1.122 2.5-2.5zm2 0c0 2.481-2.019 4.5-4.5 4.5s-4.5-2.019-4.5-4.5 2.019-4.50000003 4.5-4.50000003 4.5 2.01900003 4.5 4.50000003zm-6 18.5h-6v12.894c3.057-.585 6-3.659 6-5.894zm0 11.511c-1.495 1.718-3.671 3.096-6 3.414v4.075c0 1.369.521 3 3 3s3-1.631 3-3zm2-13.511h2v2h-2v19c0 2.417-1.313 5-5 5s-5-2.583-5-5v-19h-2v-2h2 2 6zm32.956-3.7c0 9.852-9.783 10.69-9.882 10.697l-19.074.003v-2h19c.252-.023 7.956-.722 7.956-8.7 0-6.865-6.138-8.457-8.019-8.781-.534-.092-.897-.592-.821-1.128l.006-.037c-.019-2.982-1.27-5.098-3.44-5.811-1.931-.63400003-4.059.066-5.296 1.744-.22.297-.591.448-.952.396-.367-.055-.673-.308-.796-.657-.818-2.32000003-2.002-4.27100003-3.52-5.79900003-1.863-1.874-6.977-5.904-14.197-2.84-4.172 1.772-7.441 6.878-7.441 11.62300003l.099 1.637c.028.478-.286.909-.749 1.028-2.47.634-6.613 2.586-6.613 8.542 0 4.465 2.417 6.927 4.443 8.206.614.388 1.39.576 2.374.577l-.002 2c-1.373-.001-2.498-.291-3.439-.886-2.008-1.266-5.376-4.237-5.376-9.897 0-6.84 4.624-9.36 7.319-10.246l-.054-.902c-.002-5.63800003 3.721-11.42600003 8.658-13.52300003 5.783-2.458 11.916-1.235 16.396 3.271 1.39 1.398 2.528 3.094 3.399 5.056 1.76-1.46 4.155-1.958 6.372-1.23 2.829.93 4.589 3.54800003 4.795 7.07400003 2.856.675 8.854 2.999 8.854 10.583z" fill="#fff" transform="translate(12.22 12.3)"/></g></svg>