<svg height="80" viewBox="0 0 80 80" width="80" xmlns="http://www.w3.org/2000/svg"><g fill="none" fill-rule="evenodd"><path d="m0 0h80v80h-80z" fill="#dd344c"/><path d="m58 35.9995v14c0 .346-.179.667-.472.849l-12.528 7.795v-2.355l11-6.845v-11.654l-11 6.769v-2.349l11.476-7.062c.309-.189.695-.198 1.012-.021.316.177.512.511.512.873zm-34 13.441 11 6.769v2.349l-12.524-7.707c-.296-.183-.476-.505-.476-.852v-14c0-.362.196-.696.512-.873.317-.177.703-.168 1.012.021l11.476 7.062v2.349l-11-6.769zm27-1.465-10.511 5.896c-.152.086-.32.128-.489.128-.172 0-.344-.044-.498-.133l-10.502-6.039v-2.306l11.006 6.328 10.994-6.167zm-10 17.244v-6.22h-2v6.22l-21-12.782v-24.776l21 11.92v4.418h2v-4.418l21-11.92v24.776zm-1-51.073 20.968 11.801-20.968 11.902-20.968-11.902zm23.49 10.926-23-12.945c-.304-.17-.676-.17-.98 0l-23 12.945c-.316.177-.51.51-.51.871v27.056c0 .349.182.673.48.854l23 14c.16.097.34.146.52.146s.36-.049.52-.146l23-14c.298-.181.48-.505.48-.854v-27.056c0-.361-.194-.694-.51-.871z" fill="#fff"/></g></svg>