<svg height="80" viewBox="0 0 80 80" width="80" xmlns="http://www.w3.org/2000/svg"><g fill="none" fill-rule="evenodd"><path d="m0 0h80v80h-80z" fill="#ed7100"/><path d="m8.401 15.362-1.865-.725c3.401-8.755 12.027-14.637 21.464-14.637 9.436 0 18.062 5.882 21.464 14.637l-1.866.725c-3.104-7.993-10.98-13.362-19.598-13.362-8.619 0-16.495 5.369-19.599 13.362zm39.197 15.275 1.866.725c-3.402 8.755-12.028 14.638-21.464 14.638-9.437 0-18.063-5.883-21.464-14.638l1.865-.725c3.104 7.993 10.98 13.363 19.599 13.363 8.618 0 16.494-5.37 19.598-13.363zm6.402-4.085c0 .243-.205.448-.449.448h-7.103c-.243 0-.448-.205-.448-.448v-7.105c0-.242.205-.447.448-.447h7.103c.244 0 .449.205.449.447zm-.449-9.552h-7.103c-1.35 0-2.448 1.098-2.448 2.447v7.105c0 1.35 1.098 2.448 2.448 2.448h7.103c1.35 0 2.449-1.098 2.449-2.448v-7.105c0-1.349-1.099-2.447-2.449-2.447zm-51.551 9.552v-7.105c0-.242.205-.447.448-.447h7.103c.244 0 .449.205.449.447v7.105c0 .243-.205.448-.449.448h-7.103c-.243 0-.448-.205-.448-.448zm10 0v-7.105c0-1.349-1.099-2.447-2.449-2.447h-7.103c-1.35 0-2.448 1.098-2.448 2.447v7.105c0 1.35 1.098 2.448 2.448 2.448h7.103c1.35 0 2.449-1.098 2.449-2.448zm17-2.552h5v-4h-5zm-7 0h5v-4h-5zm-2 2h16v-8h-16zm7 2v3h-9v-3h-2v-12h24v12h-4v3h-3v-3zm11 5v-3h4v-16h-28v16h2v3h13v-3h2v3z" fill="#fff" transform="translate(12 17)"/></g></svg>