<svg height="80" viewBox="0 0 80 80" width="80" xmlns="http://www.w3.org/2000/svg"><g fill="none" fill-rule="evenodd"><path d="m0 0h80v80h-80z" fill="#01a88d"/><path d="m27.359 30.859c-1.93 0-3.5-1.57-3.5-3.5s1.57-3.5 3.5-3.5 3.5 1.57 3.5 3.5-1.57 3.5-3.5 3.5zm0-9c-3.032 0-5.5 2.467-5.5 5.5s2.468 5.5 5.5 5.5 5.5-2.467 5.5-5.5-2.468-5.5-5.5-5.5zm8.069 12.097c-.226.1-.407.281-.507.507l-7.464 16.793-7.416-16.685c-.101-.226-.282-.407-.508-.507l-16.071-7.143 16.557-7.36c.227-.1.407-.281.508-.507l6.93-15.592 6.978 15.7c.101.226.281.407.508.508l16.313 7.251zm9.018 10.422-10.028-3.858 2.174-4.893 3.833-1.704zm-34.174-.242 3.941-10.248 4.156 1.847 2.007 4.516zm.379-33.554 9.78 3.761-1.576 3.547-4.606 2.047zm33.416-.241-3.677 9.561-4.283-1.904-1.744-3.925zm10.058 15.666-11.905-5.292 4.522-11.756c.141-.369.053-.787-.227-1.066-.28-.28-.695-.367-1.066-.227l-11.901 4.577-5.177-11.65c-.161-.36-.519-.593-.914-.593-.396 0-.753.233-.914.593l-5.298 11.92-11.976-4.606c-.369-.139-.786-.053-1.066.226-.28.28-.368.698-.227 1.066l4.443 11.552-11.826 5.256c-.361.16-.593.519-.593.914s.232.753.593.913l11.79 5.241-4.786 12.444c-.141.368-.052.786.227 1.066.191.191.446.293.707.293.121 0 .242-.022.359-.067l12.299-4.731 5.354 12.045c.161.36.518.593.914.593.395 0 .753-.233.914-.593l5.233-11.774 12.224 4.701c.117.044.238.066.359.066.261 0 .516-.102.707-.293.279-.279.368-.697.227-1.066l-4.866-12.649 11.87-5.276c.361-.16.593-.518.593-.913s-.232-.754-.593-.914z" fill="#fff" transform="translate(13 13)"/></g></svg>