<svg height="80" viewBox="0 0 80 80" width="80" xmlns="http://www.w3.org/2000/svg"><g fill="none" fill-rule="evenodd"><path d="m0 0h80v80h-80z" fill="#ed7100"/><path d="m42.6625082 33.4488889c0-1.2093651-.968071-2.193545-2.1576414-2.193545s-2.1566526.9841799-2.1566526 2.193545.9670822 2.193545 2.1566526 2.193545 2.1576414-.9841799 2.1576414-2.193545zm-.2066668-3.6843915 14.303521-16.1791535 1.4713889 1.3440741-14.2965993 16.1721164c.4449765.6715344.7060294 1.4787831.7060294 2.3473545 0 2.318201-1.8550575 4.204127-4.1353146 4.204127-2.2792683 0-4.1343257-1.885926-4.1343257-4.204127 0-2.3182011 1.8550574-4.204127 4.1343257-4.204127.7089958 0 1.3665721.2000529 1.9509746.5197355zm2.1319316 10.4439682.1186604.2714286c.6625205-.4131746 1.2666997-.9158201 1.7799058-1.4978836-.5527596.5026455-1.1964922.9148148-1.8985662 1.226455zm-4.083895-21.8349206c-8.1766897 0-14.8325487 6.7656084-14.8325487 15.0793651 0 5.1169312 2.5116449 9.831746 6.7349659 12.626455l1.0778319-1.6888889c-3.6586953-2.4126984-5.8351246-6.5042328-5.8351246-10.9375661 0-7.2089418 5.7649172-13.0687831 12.8548755-13.0687831 1.4743553 0 2.9081683.2412698 4.2727628.7338624l1.4130475-1.5984127c-1.7996826-.7539682-3.7170367-1.1460317-5.6858103-1.1460317zm13.032866 7.8814815-1.4140363 1.5984127c.8118349 1.7492063 1.2360458 3.6592592 1.2360458 5.5994709 0 4.4232804-2.1754405 8.5148148-5.8341358 10.9375661l1.088709 1.6888889c4.211455-2.8047619 6.7230999-7.520582 6.7230999-12.626455 0-2.5132276-.6219782-4.9862434-1.7996826-7.1978836zm-17.1157723 13.9484127c-2.6510708-1.1701588-4.3657135-3.8261376-4.3657135-6.7666138 0-1.1872487.2699524-2.3192064.8009577-3.3657143l-1.7571626-.9218518c-.6674647 1.3149206-1.0214682 2.7977248-1.0214682 4.2875661 0 3.7406878 2.1813735 7.1214815 5.5562727 8.6113227zm13.8427233-10.2489418-1.5228084 1.7190476c.1493144.5629629.2175441 1.1560846.2175441 1.7592592 0 2.1613757-.919618 4.1619048-2.4612142 5.5391535 0 0-.0108773 0-.0108773.0100529-.5527596.5026455-1.1964922.9148148-1.8985662 1.226455l.1186604.2714286.6724089 1.5682539c3.3719327-1.4878306 5.5572615-4.8656084 5.5572615-8.6153439 0-1.1962963-.2264435-2.3825396-.6724088-3.4783068zm10.7100889 3.1968254c-.6041791 12.9079365-18.9372092 34.5820105-19.7183901 35.4968253-.1868902.2211641-.4647532.3518519-.7515158.3518519s-.5636369-.1306878-.750527-.3518519c-.7722814-.9148148-19.114211-22.5888888-19.7282785-35.4968253-.5428713-11.6513228 7.7831327-20.5481482 19.8073854-21.1513228h1.2943871c3.5004815.1809524 6.6855241 1.0253968 9.49382 2.5132275l-1.3853601 1.568254c-2.4414375-1.226455-5.1716153-1.9201058-8.1480134-2.0708995h-1.2152801c-10.818861.5428572-18.3636841 8.5550265-17.8692658 19.0402117.5151839 10.8068783 15.0115281 29.1232804 18.5011324 33.3857142 3.4915819-4.2624338 17.9879261-22.5788359 18.5011323-33.3857142.1681022-3.6793651-.6813084-7.2079366-2.4513259-10.2137567l1.4535898-1.4375661c2.1447865 3.4380952 3.1741654 7.5095238 2.9665097 11.7518519z" fill="#fff"/></g></svg>