<?xml version="1.0" encoding="UTF-8"?>
<!-- Generated by Pixelmator Pro 3.7 -->
<svg width="267" height="145" viewBox="0 0 267 145" xmlns="http://www.w3.org/2000/svg">
    <g id="02-Ribbon">
        <path id="02-1-green-ribbon" fill="#00e350" fill-rule="evenodd" stroke="none" d="M 120 82 C 120 87.522842 124.47715 92 130 92 L 257 92 C 262.522827 92 267 87.522842 267 82 L 267 12 C 267 6.477142 262.522827 2 257 2 L 130 2 C 124.47715 2 120 6.477142 120 12 Z"/>
        <path id="02-2-yellow-ribbon" fill="#ffd10f" fill-rule="evenodd" stroke="none" d="M 59 97 C 59 102.522842 63.477154 107 69 107 L 196 107 C 201.522842 107 206 102.522842 206 97 L 206 12 C 206 6.477142 201.522842 2 196 2 L 69 2 C 63.477154 2 59 6.477142 59 12 Z"/>
        <path id="02-3-red-ribbon" fill="#ff2c25" fill-rule="evenodd" stroke="none" d="M 0 133 C 0 138.522842 5.28595 143.000015 10 143 C 19.99176 142.999969 74 109 74 109 C 74 109 127.060913 143.03186 137 143 C 141.71405 142.984894 147 138.522842 147 133 L 147 12 C 147 6.477173 142.522827 2 137 2 L 10 2 C 4.477173 2 0 6.477173 0 12 Z"/>
    </g>
</svg>
