<svg height="80" viewBox="0 0 80 80" width="80" xmlns="http://www.w3.org/2000/svg"><g fill="none" fill-rule="evenodd"><path d="m0 0h80v80h-80z" fill="#e7157b"/><path d="m26 19h3v-2h-3zm-5 0h3v-2h-3zm-5 0h3v-2h-3zm-2 3h52v-8h-52zm53-10h-54c-.553 0-1 .448-1 1v54c0 .552.447 1 1 1h33v-2h-32v-42h52v42h-7v2h8c.553 0 1-.448 1-1v-54c0-.552-.447-1-1-1zm-27 38.878c-3.121 0-5.661-2.54-5.661-5.661s2.54-5.66 5.661-5.66 5.661 2.539 5.661 5.66-2.54 5.661-5.661 5.661zm0-13.321c-4.225 0-7.661 3.436-7.661 7.66s3.436 7.661 7.661 7.661 7.661-3.437 7.661-7.661-3.436-7.66-7.661-7.66zm15.652 9.911-1.706-.097c-.455-.023-.925.301-1.032.778-.33 1.464-.905 2.852-1.709 4.128-.261.413-.184.954.18 1.28l1.274 1.137-3.182 3.182-1.133-1.269c-.326-.366-.868-.441-1.281-.18-1.272.804-2.662 1.381-4.131 1.712-.477.108-.806.545-.778 1.033l.097 1.698h-4.502l.098-1.7c.028-.487-.301-.924-.778-1.032-1.465-.332-2.855-.908-4.13-1.714-.413-.26-.955-.187-1.28.18l-1.136 1.273-3.182-3.183 1.272-1.135c.365-.325.441-.867.18-1.28-.803-1.271-1.378-2.66-1.709-4.13-.107-.477-.566-.801-1.032-.778l-1.704.097v-4.502l1.71.098c.46.018.923-.301 1.032-.778.331-1.462.906-2.849 1.711-4.122.261-.414.184-.955-.18-1.28l-1.28-1.143 3.183-3.183 1.142 1.28c.325.365.867.439 1.279.18 1.273-.802 2.659-1.377 4.123-1.707.478-.108.807-.544.779-1.033l-.098-1.713h4.502l-.097 1.715c-.028.488.301.924.778 1.032 1.463.332 2.848.906 4.119 1.709.413.26.955.184 1.28-.18l1.145-1.283 3.183 3.183-1.278 1.14c-.364.326-.441.868-.18 1.281.804 1.27 1.379 2.658 1.711 4.125.108.476.579.795 1.032.777l1.708-.098zm.944-6.559-1.944.111c-.318-1.113-.762-2.183-1.325-3.194l1.454-1.297c.205-.183.326-.443.334-.718s-.098-.541-.293-.735l-4.68-4.68c-.196-.195-.455-.307-.736-.293-.275.008-.534.128-.718.334l-1.301 1.458c-1.011-.562-2.078-1.004-3.19-1.322l.111-1.951c.015-.274-.082-.543-.272-.744-.188-.199-.451-.313-.726-.313h-6.62c-.275 0-.538.114-.726.314-.19.2-.287.469-.272.744l.112 1.948c-1.113.317-2.181.76-3.194 1.322l-1.298-1.456c-.184-.206-.443-.326-.718-.334-.278-.012-.54.098-.736.293l-4.68 4.68c-.195.194-.301.46-.293.735s.129.535.334.718l1.456 1.299c-.564 1.012-1.007 2.081-1.325 3.192l-1.946-.111c-.272-.017-.544.083-.743.272-.2.189-.313.452-.313.727v6.619c0 .275.113.538.313.727.199.188.472.288.743.271l1.94-.11c.317 1.115.76 2.187 1.323 3.199l-1.448 1.292c-.205.183-.326.443-.334.718s.098.541.293.735l4.68 4.681c.196.194.455.303.736.292.275-.008.535-.128.718-.334l1.292-1.448c1.014.565 2.085 1.009 3.199 1.327l-.111 1.936c-.015.274.082.543.271.743s.452.314.727.314h6.62c.275 0 .538-.114.726-.314.19-.2.287-.469.272-.743l-.111-1.934c1.116-.318 2.189-.762 3.202-1.326l1.289 1.445c.183.206.443.326.718.334.257.014.542-.098.736-.292l4.68-4.681c.195-.194.301-.46.293-.735s-.129-.535-.334-.718l-1.451-1.294c.564-1.014 1.007-2.085 1.324-3.197l1.942.11c.27.017.544-.083.743-.271.2-.189.313-.452.313-.727v-6.619c0-.275-.113-.538-.313-.727-.199-.189-.472-.288-.743-.272z" fill="#fff"/></g></svg>