<svg height="80" viewBox="0 0 80 80" width="80" xmlns="http://www.w3.org/2000/svg"><g fill="none" fill-rule="evenodd"><path d="m0 0h80v80h-80z" fill="#7aa116"/><path d="m26 21c1.654 0 3 1.346 3 3s-1.346 3-3 3-3-1.346-3-3 1.346-3 3-3zm0 8c1.042 0 2.01-.322 2.812-.87l4.288 3.43c-.235.535-.454 1.079-.637 1.643l1.902.619c2.002-6.149 7.467-10.384 13.922-10.786l-.125-1.996c-5.988.374-11.216 3.676-14.141 8.696l-3.816-3.053c.497-.777.795-1.694.795-2.683 0-2.757-2.243-5-5-5s-5 2.243-5 5 2.243 5 5 5zm-8 14c-1.654 0-3-1.346-3-3s1.346-3 3-3 3 1.346 3 3-1.346 3-3 3zm4.898-2h17.691c.268 1.696 1.012 3.283 2.182 4.594 1.611 1.803 3.828 2.871 6.241 3.007.174.01.345.015.517.015 3.731 0 7.078-2.274 8.436-5.784l-1.865-.722c-1.107 2.861-3.901 4.67-6.975 4.494-1.881-.106-3.607-.937-4.862-2.342-1.254-1.405-1.887-3.214-1.782-5.095.107-1.88.939-3.606 2.343-4.861 1.405-1.255 3.23-1.887 5.094-1.782 3.082.174 5.667 2.297 6.435 5.283l1.937-.498c-.985-3.833-4.305-6.559-8.259-6.782-2.429-.139-4.736.677-6.539 2.287-1.79 1.599-2.851 3.793-3.001 6.186h-17.593c-.463-2.279-2.484-4-4.898-4-2.757 0-5 2.243-5 5s2.243 5 5 5c2.414 0 4.435-1.721 4.898-4zm41.997-3.31c-.107-1.694-.479-3.339-1.106-4.889l1.854-.75c.708 1.75 1.128 3.605 1.248 5.514zm-.319 4.281 1.955.421c-.486 2.261-1.401 4.377-2.718 6.289l-1.647-1.135c1.168-1.695 1.979-3.571 2.41-5.575zm-11.576-.971h14v-2h-14zm-2.977 9.112.125 1.996c-.273.017-.545.026-.816.026-5.877 0-11.132-3.967-12.681-9.692l1.93-.522c1.374 5.076 6.209 8.528 11.442 8.192zm-1.365-24.223c6.44-.395 12.175 3.867 13.619 10.154l-1.949.448c-1.224-5.328-6.093-8.934-11.545-8.606-5.271.329-9.619 4.359-10.339 9.582l-1.98-.273c.848-6.162 5.976-10.917 12.194-11.305zm-22.658 33.111c-1.654 0-3-1.346-3-3s1.346-3 3-3 3 1.346 3 3-1.346 3-3 3zm24.24-4.702c-6.222.388-12.086-2.949-14.927-8.505l-1.781.912c.247.483.523.946.81 1.4l-4.951 4.243c-.893-.829-2.079-1.348-3.391-1.348-2.757 0-5 2.243-5 5s2.243 5 5 5 5-2.243 5-5c0-.721-.16-1.403-.437-2.023l4.941-4.235c3.323 4.128 8.367 6.587 13.754 6.587.367 0 .737-.012 1.107-.035 3.531-.221 6.875-1.475 9.668-3.627l-1.22-1.584c-2.476 1.907-5.441 3.019-8.573 3.215z" fill="#fff"/></g></svg>