<svg height="80" viewBox="0 0 80 80" width="80" xmlns="http://www.w3.org/2000/svg"><g fill="none" fill-rule="evenodd"><path d="m0 0h80v80h-80z" fill="#e7157b"/><path d="m28.7169966 43.6876756 3.0019299-2.9658496c.1881209-.1859249.2941891-.4384646.2951968-.701941.0009936-.2634764-.104074-.5170103-.2911943-.7039294l-3.0019298-2.9996542-1.4189121 1.4018934 1.2878278 1.2875546h-4.5809448v1.9885012h4.5969551l-1.2998356 1.2835776zm22.9107284.0904768 4.002573-2.9847404c.2501609-.1879134.3992567-.4822116.3992567-.7944063 0-.3131889-.1490958-.6084813-.4002573-.7963947l-4.0025731-2.9807634-1.2007719 1.590801 1.6010292 1.1931008h-4.0025731v1.9885012h4.0015725l-1.6010292 1.1931008zm-16.4195555-3.7781524c0 2.1107941-.3652348 4.1012839-1.0476735 5.8332685 1.8001573-.6919985 3.8304625-1.0379977 5.8587664-1.0379977s4.0586091.3459992 5.8577657 1.0379977c-.6814381-1.7319846-1.0466729-3.7224744-1.0466729-5.8332685s.3652348-4.1002896 1.0466729-5.8332685c-3.5993139 1.3830026-8.1162176 1.3830026-11.7165321 0 .6824387 1.7329789 1.0476735 3.7224744 1.0476735 5.8332685zm-4.9021513 9.6511909c-.1951255-.1938788-.2931885-.448407-.2931885-.7029352 0-.2545281.098063-.5090563.2931885-.7029352 1.8161675-1.8045649 2.9008648-4.8877361 2.9008648-8.2453205s-1.0846973-6.4407556-2.9008648-8.2453205c-.1951255-.1938789-.2931885-.4484071-.2931885-.7029352 0-.2545282.098063-.5090564.2931885-.7029352.3912515-.388752 1.023658-.388752 1.4149095 0 3.8774927 3.8527212 12.7191767 3.8527212 16.5966693 0 .3912515-.388752 1.0236581-.388752 1.4149096 0 .1951254.1938788.2931885.448407.2931885.7029352 0 .2545281-.0980631.5090563-.2931885.7029352-1.8161675 1.8045649-2.9008648 4.8877361-2.9008648 8.2453205s1.0846973 6.4407556 2.9008648 8.2453205c.1951254.1938789.2931885.4484071.2931885.7029352 0 .2545282-.0980631.5090564-.2931885.7029352-.1951254.1938789-.4512901.2913155-.7074548.2913155s-.5123293-.0974366-.7074548-.2913155c-3.8774926-3.8527212-12.7191766-3.8527212-16.5966693 0-.3912515.388752-1.023658.388752-1.4149095 0zm35.6949467-9.6462196c0-.9266416-.3632335-1.7976052-1.0226574-2.4528164-.6804374-.6770847-1.5750125-1.0141356-2.468587-1.0141356-.8935744 0-1.7881495.3370509-2.4685869 1.0141356-1.3618755 1.3521809-1.3618755 3.5524576 0 4.9056327 1.3608748 1.3521808 3.5742977 1.3531751 4.9371739 0 .6594239-.6552112 1.0226574-1.5261748 1.0226574-2.4528163zm.3922522 3.8586867c-1.0706883 1.0638482-2.4765921 1.5957723-3.8834966 1.5957723-1.4069044 0-2.8128082-.5319241-3.8834965-1.5957723-2.1423772-2.1276964-2.1423772-5.5896771 0-7.7173735 2.1423772-2.1296848 5.6266171-2.1276963 7.7669931 0 2.1423772 2.1276964 2.1423772 5.5896771 0 7.7173735zm-45.4131942-3.835819c0-.9266416-.3632335-1.7976051-1.0226575-2.4528163-.6594239-.6552112-1.5359874-1.0161242-2.4685869-1.0161242-.9315989 0-1.8081624.360913-2.4685869 1.0161242-.659424.6552112-1.0216568 1.5261747-1.0216568 2.4528163 0 .9256474.3622328 1.7966109 1.0216568 2.4528163 1.3198484 1.3094281 3.618326 1.3094281 4.9371738 0 .659424-.6562054 1.0226575-1.5271689 1.0226575-2.4528163zm.3922521 3.8586867c-1.0706883 1.0638482-2.4765921 1.5957723-3.8834965 1.5957723-1.4059038 0-2.8118076-.5319241-3.8834965-1.5957723-2.140376-2.1276963-2.140376-5.589677 0-7.7173734 2.1423772-2.1276964 5.6256164-2.1276964 7.766993 0s2.1413766 5.5896771 0 7.7173734zm33.5235509 10.9695673c-3.9945679 3.9700428-9.3069831 6.1554057-14.956615 6.1554057-5.6516332 0-10.9630477-2.1853629-14.9576156-6.1554057-2.7397613-2.721264-4.2477307-5.9734578-5.0302337-8.2214585l-1.8912158.6502399c.8515474 2.4458566 2.4976056 5.9883716 5.5065399 8.977089 4.3728111 4.3458696 10.1865485 6.7380366 16.3725252 6.7380366 6.1849761 0 11.9987135-2.392167 16.3715246-6.7380366 2.5266242-2.5084943 4.5389178-5.6980504 5.6686441-8.9800717l-1.8932171-.6442744c-1.0326638 3.0006484-2.8758487 5.9197683-5.1903366 8.2184757zm-34.945465-21.4897333-1.8892144-.6522284c1.2107783-3.4639692 3.1680365-6.6535252 5.5115431-8.981066 4.3708098-4.3418925 10.1825459-6.7330653 16.3665213-6.7330653s11.9957116 2.3911728 16.3655207 6.7330653c2.4665857 2.4508278 4.5349153 5.7239009 5.6726467 8.981066l-1.8892145.6522284c-1.0436709-2.9827519-2.9378886-5.9814118-5.1983418-8.227424-3.991566-3.96706-9.3019798-6.1504344-14.9506111-6.1504344-5.6496319 0-10.9590451 2.1833744-14.9516117 6.1504344-2.1333715 2.1207366-3.9225217 5.0428393-5.0372383 8.227424z" fill="#fff"/></g></svg>