<svg height="80" viewBox="0 0 80 80" width="80" xmlns="http://www.w3.org/2000/svg"><g fill="none" fill-rule="evenodd"><path d="m0 0h80v80h-80z" fill="#dd344c"/><path d="m35.5082222 30.8559178c-1.2862613 0-2.3318479-1.0468149-2.3318479-2.3323596 0-1.2865435 1.0455866-2.3333584 2.3318479-2.3333584s2.3328465 1.0468149 2.3328465 2.3333584c0 1.2855447-1.0465852 2.3323596-2.3328465 2.3323596m-1.6847226 7.6952884c2.2150058 0 4.0175691 1.8029589 4.0175691 4.0184508s-1.8025633 4.0184508-4.0175691 4.0184508-4.0175692-1.8029589-4.0175692-4.0184508 1.8025634-4.0184508 4.0175692-4.0184508m0 11.4080852c-7.7904691 0-14.128901-6.3398229-14.128901-14.1320015 0-7.7921787 6.3384319-14.1320015 14.128901-14.1320015 7.790469 0 14.1289009 6.3398228 14.1289009 14.1320015 0 2.0077271-.4274222 3.9155672-1.1863963 5.6476064l-7.2462047-1.053807c-.5432657-1.4363739-1.6118212-2.6130418-2.9729812-3.2962683v-4.3290992c1.9303905-.4694685 3.3714425-2.2005088 3.3714425-4.2721636 0-2.4322465-1.9783257-4.4100075-4.4100386-4.4100075s-4.40904 1.977761-4.40904 4.4100075c0 2.0716548 1.4410521 3.8026951 3.370444 4.2721636v3.7137957c-.2127125-.0219751-.4284209-.0349604-.6461266-.0349604-1.5459103 0-2.9550055.5833396-4.0315503 1.535262l-2.5116049-2.5371278c.6680969-.9609122 1.0625637-2.1265925 1.0625637-3.38317 0-2.0307011-1.0206204-3.8985865-2.7303092-4.9963438l-1.0785421 1.6820958c1.1334678.7281756 1.8115512 1.9667734 1.8115512 3.314248 0 2.1745383-1.7686093 3.9435356-3.9426704 3.9435356v1.9977384c1.2702829 0 2.445694-.404542 3.4133859-1.0867697l2.6663956 2.6939503c-.4803507.8710139-.7539808 1.8698831-.7539808 2.9316811 0 3.3611949 2.7343039 6.0950999 6.0947613 6.0950999 3.3574614 0 6.089768-2.7299096 6.0947612-6.087109l5.8011582.8440445c-2.5126035 3.9245571-6.9016705 6.537599-11.8959194 6.537599m0-30.3406521c-8.9359207 0-16.2060931 7.2707689-16.2060931 16.2086506 0 8.9378816 7.2701724 16.2096494 16.2060931 16.2096494 8.9359206 0 16.206093-7.2717678 16.206093-16.2096494 0-8.9378817-7.2701724-16.2086506-16.206093-16.2086506m31.2717277 44.2359216c-1.1983801 1.3254994-3.2595938 1.435375-4.5897957.2397286l-12.7367827-11.4919902c1.6677456-1.3894271 3.1227787-3.0235771 4.3161655-4.8445157l12.7707369 11.5059744c1.3272059 1.2006408 1.4340614 3.2603091.239676 4.5908029m-51.0180352-28.027271c0-10.890671 8.858026-19.7506408 19.7463075-19.7506408s19.7463074 8.8599698 19.7463074 19.7506408c0 10.8906709-8.8580259 19.7506407-19.7463074 19.7506407s-19.7463075-8.8599698-19.7463075-19.7506407m52.16848 21.8942141-13.0873089-11.7896533c1.586855-3.023577 2.4886359-6.4596871 2.4886359-10.1045608 0-12.036374-9.7907651-21.8272899-21.8234995-21.8272899-12.0327345 0-21.8234996 9.7909159-21.8234996 21.8272899 0 12.0363739 9.7907651 21.8282887 21.8234996 21.8282887 4.5398631 0 8.7611569-1.3964192 12.2574307-3.7797211l13.0363778 11.7616849c1.0146284.9129665 2.2889059 1.3624576 3.5591888 1.3624576 1.458029 0 2.9100662-.5923294 3.9616447-1.7560121 1.9593514-2.1815303 1.783589-5.5557105-.3924695-7.5224839" fill="#fff"/></g></svg>