<svg height="80" viewBox="0 0 80 80" width="80" xmlns="http://www.w3.org/2000/svg"><g fill="none" fill-rule="evenodd"><path d="m0 0h80v80h-80z" fill="#8c4fff"/><path d="m46.7092755 26.8455151v2.0081602c-.8738212 0-1.7034492.3182933-2.3362163.8966435-.2450717.2229057-.5855606.3102607-.9069661.2359588-.3224099-.074302-.5865651-.3042363-.7070921-.613493-1.2253585-3.1497991-4.4022511-5.2663999-7.9055711-5.2663999-2.4165676 0-4.7196389.9970515-6.3186313 2.7361182-1.3730041 1.4890507-2.1283071 3.3947947-2.1283071 5.366808 0 .4387829-.284243.8374027-.7030745.9689372-2.0891358.6556643-3.6449393 2.3395066-4.071806 4.3988748-.0020088.0160653-.0040176.0311265-.0070308.0451836-.0703074.3815504-.1044568.740007-.1044568 1.0954514 0 3.2180766 2.7309424 5.8367174 6.0866168 5.8367174h15.900533v2.0081602h-15.900533c-4.463519 0-8.0954012-3.5193007-8.0954012-7.8448776 0-.4648891.0421845-.92777.1295666-1.4127407.0030132-.025102.0070308-.0481958.0120527-.0712897.5082225-2.571449 2.3090977-4.7101396 4.770863-5.7252645.1627115-2.2300619 1.0827348-4.3436504 2.6335164-6.0254845 1.9766438-2.1507396 4.8190738-3.384754 7.7960922-3.384754 3.8880023 0 7.4576122 2.1266416 9.2444259 5.4019508.791461-.426734 1.6863745-.6546602 2.6114197-.6546602m22.031343 41.8942369c-1.6713086 1.6707892-4.3922071 1.6697852-6.0635157.0010041l-13.6868526-13.6765747c2.3090977-1.7390666 4.3148689-3.8596838 5.9249096-6.2664637l13.8304806 13.8874315c1.6652823 1.6707892 1.6622691 4.3868258-.0050219 6.0546028m-58.7318341-34.1357102c0-13.0108695 10.5883026-23.5958817 23.6032168-23.5958817 13.0149141 0 23.6032168 10.5850122 23.6032168 23.5958817 0 13.0108696-10.5883027 23.5958817-23.6032168 23.5958817-13.0149142 0-23.6032168-10.5850121-23.6032168-23.5958817m60.1610842 26.6643504-14.176996-14.2348432c2.0549865-3.6839698 3.2311298-7.9211877 3.2311298-12.4295072 0-14.1173658-11.4892425-25.6040418-25.6120012-25.6040418-14.1227588 0-25.6120012 11.486676-25.6120012 25.6040418 0 14.1183699 11.4892424 25.6040418 25.6120012 25.6040418 5.0360225 0 9.731556-1.4659569 13.6968965-3.9861978l13.9479945 13.9396436c1.2273673 1.2259818 2.8394167 1.8384706 4.4514662 1.8384706s3.2251034-.6134929 4.4524707-1.8404788c2.4487082-2.4489513 2.4527257-6.4371573.0090395-8.891129m-36.5578674-9.0929491c-9.6913804 0-17.5768636-7.8830327-17.5768636-17.5714013s7.8854832-17.5714012 17.5768636-17.5714012c9.6913803 0 17.5768635 7.8830326 17.5768635 17.5714012s-7.8854832 17.5714013-17.5768635 17.5714013m0-37.1509627c-10.799225 0-19.585648 8.7836925-19.585648 19.5795614s8.786423 19.5795614 19.585648 19.5795614c10.7992249 0 19.5856479-8.7836925 19.5856479-19.5795614s-8.786423-19.5795614-19.5856479-19.5795614" fill="#fff"/></g></svg>