<svg height="80" viewBox="0 0 80 80" width="80" xmlns="http://www.w3.org/2000/svg"><g fill="none" fill-rule="evenodd"><path d="m0 0h80v80h-80z" fill="#dd344c"/><path d="m67.438 62.3245478-14.878-14.878c-.309-.308-.382-.781-.181-1.167 2.078-4.003 1.28-9.048-1.94-12.268-2.296-2.296-5.467-3.387-8.691-2.999-3.23.391-6.078 2.255-7.812 5.116-2.038 3.359-1.947 7.668.23 10.979 3.021 4.595 8.91 6.184 13.698 3.701.387-.2.858-.128 1.168.181l2.468 2.468c.187.187.292.442.292.707v3.243h3.243c.264 0 .519.105.707.292l1.415 1.414c.187.188.293.442.293.708v3.242h3.242c.266 0 .519.106.707.293l1.855 1.856 3.942.263zm2.029-.305-.353 4.596c-.04.524-.478.923-.996.923-.023 0-.045 0-.068-.002l-5.303-.354c-.243-.016-.47-.119-.641-.29l-1.828-1.829h-3.828c-.553 0-1-.447-1-1v-3.828l-.829-.828h-3.829c-.552 0-1-.448-1-1v-3.829l-1.672-1.673c-5.574 2.486-12.179.544-15.626-4.699-2.598-3.952-2.703-9.1-.269-13.115 2.056-3.39 5.44-5.6 9.282-6.064 3.842-.462 7.613.837 10.346 3.57 3.653 3.653 4.683 9.286 2.622 13.936l14.702 14.702c.206.207.313.493.29.784zm-24.044-20.674c0-.668-.26-1.296-.733-1.768-.473-.473-1.101-.733-1.768-.733s-1.295.26-1.767.732c-.975.975-.975 2.561 0 3.536.974.975 2.56.975 3.535 0 .473-.473.733-1.1.733-1.767zm.681-3.183c.851.85 1.319 1.98 1.319 3.183 0 1.201-.468 2.331-1.319 3.181v.001c-.877.877-2.029 1.315-3.182 1.315-1.152 0-2.304-.438-3.181-1.316-1.754-1.755-1.754-4.61 0-6.364.849-.85 1.979-1.318 3.181-1.318 1.203 0 2.332.468 3.182 1.318zm-24.103 6.759h5.999v2h-6c-5.854-.013-10.674-4.165-10.976-9.454-.013-.25-.024-.481-.024-.713 0-6.524 4.627-8.949 7.351-9.81-.018-.288-.027-.579-.027-.875 0-5.35 3.757-10.888 8.739-12.881 5.807-2.344 11.965-1.178 16.463 3.118 1.187 1.12 2.705 2.794 3.769 4.835 1.136-.998 2.419-1.487 3.888-1.487 2.903 0 6.157 2.336 6.748 7.442 6.019 1.375 9.069 4.678 9.069 9.825 0 5.427-3.222 9.068-8.839 9.987l-.323-1.974c3.267-.534 7.162-2.359 7.162-8.013 0-4.381-2.603-6.929-8.192-8.018-.447-.088-.779-.467-.807-.922-.224-3.725-2.206-6.327-4.818-6.327-1.335 0-2.382.58-3.394 1.881-.223.286-.58.428-.941.375-.357-.055-.658-.299-.785-.638-.872-2.33-2.609-4.285-3.913-5.515-3.919-3.742-9.278-4.754-14.342-2.713-4.198 1.679-7.484 6.522-7.484 11.025 0 .505.03.991.093 1.485.004.037.006.075.007.113v.002.002.002.002.002.001.001.002c0 .505-.374.927-.86.996-2.499.634-6.564 2.52-6.564 8.077 0 .197.01.394.02.583.242 4.249 4.188 7.574 8.981 7.584z" fill="#fff"/></g></svg>