<svg height="80" viewBox="0 0 80 80" width="80" xmlns="http://www.w3.org/2000/svg"><g fill="none" fill-rule="evenodd"><path d="m0 0h80v80h-80z" fill="#ed7100"/><path d="m47.954 38.3486787-7.139-4.1681486c.742-1.9177303 1.165-3.9932612 1.165-6.1713124 0-8.0568794-5.583-14.8121547-13.06-16.6072628v-8.6106894l19.034 11.6078968zm-22.981 15.6363365-22.973-13.3316428v-26.3145161l19.034-11.5526163v8.6157149c-7.477 1.794103-13.06 8.5503834-13.06 16.6072628 0 9.4238151 7.627 17.0907159 17.002 17.0907159 4.572 0 8.72-1.8322968 11.779-4.7923156l5.809 3.4525176zm8.985-26.9939635c-.2-4.8546317-1.153-9.5122638-2.585-12.6019404 4.788 2.2815764 8.183 7.0256471 8.556 12.6019404zm.039 2.0101995h5.933c-.356 5.4657323-3.612 10.1364308-8.243 12.4763029 1.601-3.4193493 2.298-7.9453133 2.31-12.4763029zm-8.021 0h6.006c.019 5.1943554-.894 10.3957465-3.262 13.5939738-.886.2301679-1.802.3809328-2.744.443249zm-4.699 13.6050299c-2.078-2.6393919-3.114-8.022706-3.146-13.6050299h5.845v14.0372228c-.926-.0613111-1.826-.2080556-2.699-.4321929zm-5.172-13.6050299c.032 4.7018565.768 9.2841062 2.223 12.5064559-4.662-2.3298212-7.947-7.0166012-8.304-12.5064559zm.028-2.0101995h-6.108c.377-5.6325789 3.836-10.4188638 8.701-12.6722974-1.554 3.3248699-2.426 7.9624001-2.593 12.6722974zm7.843 0h-5.813c.203-5.4586966 1.362-10.8008017 3.434-13.6613155.773-.1799129 1.567-.2944942 2.379-.3487696zm2-14.0100851c.834.0552805 1.649.1768975 2.44.3638461 1.776 2.0805564 3.219 7.6729313 3.51 13.646239h-5.95zm23.497-.0070357-21.035-12.82808789c-.309-.18895875-.695-.19398425-1.008-.0160816-.316.17790266-.51.51260087-.51.87544187v10.03491572c-.639-.0733723-1.286-.120612-1.944-.120612-.657 0-1.303.0462346-1.942.120612v-10.03491572c0-.362841-.194-.69653411-.509-.87544187-.313-.17790265-.7-.17287715-1.008.0150765l-21.034 12.76677679c-.3.181923-.483.5085805-.483.8603654v27.4613348c0 .3598257.19.6915086.5.8704164l23.973 13.9125904c.154.0894539.327.1336783.5.1336783.172 0 .345-.0442244.501-.1346834l19.573-11.3757187c.307-.1779027.497-.5075754.499-.8653909.002-.3568104-.186-.6884933-.491-.8694113l-6.907-4.1048273c.699-.8603653 1.315-1.7910877 1.839-2.7791007l8.465 4.9430805c.155.0904589.328.1356884.502.1356884.172 0 .345-.0442244.499-.1336782.31-.1789078.501-.5115958.501-.8714215v-26.2612458c0-.3507798-.183-.6764321-.481-.8593602z" fill="#fff" transform="translate(15 12)"/></g></svg>