<svg height="80" viewBox="0 0 80 80" width="80" xmlns="http://www.w3.org/2000/svg"><g fill="none" fill-rule="evenodd"><path d="m0 0h80v80h-80z" fill="#e7157b"/><path d="m32 22.72125 7-2.333v22.56c-5.774-.527-7-5.547-7-6.948zm16 13.279c0 1.401-1.226 6.421-7 6.948v-22.56l7 2.333zm-8 9c7.556 0 10-6.063 10-9v-14c0-.43-.275-.812-.684-.948l-9-3c-.205-.069-.427-.069-.632 0l-9 3c-.409.136-.684.518-.684.948v14c0 2.937 2.444 9 10 9zm-13-25.248 13-4.689 13 4.689v15.248c0 3.05-.938 13-13 13-12.853 0-13-12.469-13-13zm13 30.248c14.276 0 15-12.495 15-15v-15.951c0-.421-.265-.798-.661-.941l-14-5.049c-.219-.079-.459-.079-.678 0l-14 5.049c-.396.143-.661.52-.661.941v15.951c0 5.188 3.135 15 15 15zm21.5 8c-1.379 0-2.5-1.121-2.5-2.5 0-1.378 1.121-2.5 2.5-2.5s2.5 1.122 2.5 2.5c0 1.379-1.121 2.5-2.5 2.5zm-19 4.5c0 1.379-1.121 2.5-2.5 2.5s-2.5-1.121-2.5-2.5c0-1.378 1.121-2.5 2.5-2.5s2.5 1.122 2.5 2.5zm-24-4.5c-1.379 0-2.5-1.121-2.5-2.5 0-1.378 1.121-2.5 2.5-2.5s2.5 1.122 2.5 2.5c0 1.379-1.121 2.5-2.5 2.5zm43-7c-1.137 0-2.164.438-2.957 1.135l-3.073-3.078c3.175-2.646 5.901-6.065 7.87-10.086l-1.797-.88c-4.436 9.057-12.892 14.909-21.543 14.909-8.854 0-18.042-6.131-22.341-14.909l-1.797.88c1.719 3.508 4.419 7.029 7.86 9.874l-2.91 2.815c-.678-.41-1.463-.66-2.312-.66-2.481 0-4.5 2.019-4.5 4.5 0 2.482 2.019 4.5 4.5 4.5s4.5-2.018 4.5-4.5c0-.908-.275-1.751-.739-2.459l3.064-2.964c3.862 2.773 8.517 4.658 13.675 4.879v3.165c-2 .457-3.5 2.243-3.5 4.379 0 2.482 2.019 4.5 4.5 4.5s4.5-2.018 4.5-4.5c0-2.136-1.5-3.922-3.5-4.379v-3.162c4.543-.215 8.988-1.874 12.877-4.666l3.472 3.476c-.224.534-.349 1.118-.349 1.731 0 2.482 2.019 4.5 4.5 4.5s4.5-2.018 4.5-4.5c0-2.481-2.019-4.5-4.5-4.5z" fill="#fff"/></g></svg>