<svg height="80" viewBox="0 0 80 80" width="80" xmlns="http://www.w3.org/2000/svg"><g fill="none" fill-rule="evenodd"><path d="m0 0h80v80h-80z" fill="#01a88d"/><path d="m52.8230042 66.0096899c-.308-3.883-2.386-7.441-5.579-9.454-1.766-1.112-3.792-1.701-5.859-1.701-6.01 0-10.956 4.919-11.438 11.155zm-11.417-13.155c3.438 0 6.234-2.797 6.234-6.235s-2.796-6.235-6.234-6.235-6.235 2.797-6.235 6.235 2.797 6.235 6.235 6.235zm13.456 14.155c0 .552-.447 1-1 1h-24.953c-.553 0-1-.448-1-1 0-6.221 3.846-11.505 9.166-13.399-2.339-1.454-3.904-4.04-3.904-6.991 0-4.541 3.694-8.235 8.235-8.235 4.54 0 8.234 3.694 8.234 8.235 0 2.953-1.567 5.539-3.907 6.994.896.319 1.761.735 2.577 1.25 4.041 2.547 6.552 7.201 6.552 12.146zm-34.361-25.852 1.029 1.715 5.858-3.514 3.634 2.197 1.035-1.711-3.994-2.416.001-4.313 6.496-3.725c.312-.178.503-.509.503-.867v-9.531h-2v8.952l-5.984 3.431-6.016-3.356v-7.52l6-3.578v7.071h2v-8.264l4.347-2.593 6.653 3.2v19.657h2v-20.286c0-.384-.22-.735-.566-.901l-7.704-3.705c-.304-.145-.657-.129-.947.042l-13.295 7.93c-.302.181-.488.507-.488.859v7.576l-6.371 2.548c-.379.152-.627.517-.629.925l-.0630042 15.178c-.0009958.346.1760042.668.4690042.852l6.594 4.128v6.663c0 .314.149.611.401.799l5.261 3.947 1.2-1.6-4.862-3.646v-6.717c0-.103-.015-.204-.046-.3l5.776-3.465-1.03-1.715-6.419 3.851-5.342-3.345.023-5.601 6.19-3.714-1.03-1.715-5.15 3.09.025-6.008 5.492-2.196 6.512 3.633-.001 4.722zm31.234 1.151c.343-1.135.517-2.295.517-3.446 0-5.273-3.53-9.948-8.583-11.369l-.541 1.926c4.194 1.179 7.124 5.062 7.124 9.443 0 .955-.145 1.92-.431 2.868zm16.263 1.33-3.776 9.879c-.098.258-.298.463-.553.568s-.541.1-.792-.013l-3.241-1.461c-.142.227-.276.446-.407.659-.888 1.447-1.655 2.698-3.402 4.017l-1.205-1.597c1.445-1.09 2.056-2.087 2.903-3.466.274-.446.565-.92.904-1.432.272-.408.798-.559 1.245-.358l3.058 1.379 3.019-7.899-3.213-1.021c-.467-.149-.758-.613-.687-1.098.356-2.427.287-4.896-.202-7.342-.096-.479.169-.958.626-1.131l3.139-1.189-3.46-7.72-2.98 1.55c-.436.225-.966.104-1.259-.286-1.498-1.985-3.297-3.682-5.347-5.043-.407-.271-.559-.797-.358-1.244l1.38-3.071-7.99-3.043-1.161 2.72-1.84-.785 1.539-3.604c.211-.494.776-.733 1.276-.542l9.879 3.762c.257.099.462.298.568.553.105.254.101.541-.012.792l-1.473 3.279c1.72 1.235 3.267 2.695 4.612 4.354l3.182-1.656c.246-.126.53-.147.791-.057.26.09.471.284.583.535l4.329 9.656c.113.251.117.538.011.793-.106.254-.311.454-.569.551l-3.353 1.27c.347 2.113.406 4.239.176 6.342l3.428 1.089c.263.084.478.271.598.519s.131.535.034.791z" fill="#fff"/></g></svg>