<svg height="80" viewBox="0 0 80 80" width="80" xmlns="http://www.w3.org/2000/svg"><g fill="none" fill-rule="evenodd"><path d="m0 0h80v80h-80z" fill="#c925d1"/><path d="m21.066 7h5v-5h-5zm-2 1v-7c0-.552.447-1 1-1h7c.553 0 1 .448 1 1v7c0 .552-.447 1-1 1h-7c-.553 0-1-.448-1-1zm14 5h5v-5h-5zm-2 1v-7c0-.552.447-1 1-1h7c.553 0 1 .448 1 1v7c0 .552-.447 1-1 1h-7c-.553 0-1-.448-1-1zm-12 4h5v-5h-5zm-2 1v-7c0-.552.447-1 1-1h7c.553 0 1 .448 1 1v7c0 .552-.447 1-1 1h-7c-.553 0-1-.448-1-1zm8 15h20v-2h-20zm-16.907 2h3.647c-.723-2.118-1.135-4.379-1.135-6.739v-7.197h-2.512c-3.454 0-6.159 3.048-6.159 6.939 0 3.858 2.762 6.997 6.159 6.997zm0 2c-4.499 0-8.159-4.036-8.159-8.997 0-4.929 3.66-8.939 8.159-8.939h2.512v-2.064c0-.552.448-1 1-1h3.395v2h-2.395v10.261c0 .933.091 1.843.222 2.739h9.173v2h-8.77c2.113 8.135 9.497 14.169 18.284 14.169 10.366 0 18.486-8.306 18.486-18.908v-1.282h-33.71v-2h33.71v-6.979h-22v-2h23c.553 0 1 .448 1 1v11.261c0 11.724-8.999 20.908-20.486 20.908-8.408 0-15.652-4.998-18.969-12.169zm47.841 9.412c0 5.594-12.582 8.612-24.42 8.612-11.839 0-24.421-3.018-24.421-8.612 0-1.508.975-3.708 5.624-5.628l.763 1.849c-2.788 1.151-4.387 2.529-4.387 3.779 0 3.128 9.208 6.612 22.421 6.612 13.212 0 22.42-3.484 22.42-6.612 0-1.25-1.599-2.628-4.387-3.779l.764-1.849c4.647 1.92 5.623 4.12 5.623 5.628z" fill="#fff" transform="translate(12 12)"/></g></svg>