<svg height="80" viewBox="0 0 80 80" width="80" xmlns="http://www.w3.org/2000/svg"><g fill="none" fill-rule="evenodd"><path d="m0 0h80v80h-80z" fill="#dd344c"/><path d="m32.515 8.65943079c-.023 0-.047 0-.071.001-.42.019-.809.2-1.093.511-.284.31-.431.713-.412 1.13300001.018.421.2.809.511 1.093.639.586 1.638.544 2.226-.098.586-.641.542-1.64000001-.099-2.22600001-.292-.268-.667-.414-1.062-.414zm-.003 5.15000001c-.863 0-1.728-.31-2.413-.937-.705-.645-1.116-1.525-1.158-2.48-.042-.95400001.29-1.86700001.935-2.57200001.645-.704 1.526-1.116 2.48-1.158.95-.047 1.867.29 2.571.935 1.455 1.331 1.556 3.59800001.225 5.05200001-.705.77-1.671 1.16-2.64 1.16zm18.182 17.203 3.306.198v-3.496l-13.883-12.654c-.328-.299-.419-.777-.226-1.176 1.586-3.265.821-7.25900001-1.859-9.71400001-1.811-1.657-4.247-2.42-6.682-2.098-2.435.324-4.599 1.721-5.939 3.835-1.825 2.878-1.622 6.76100001.496 9.44100001 2.329 2.95 6.212 3.989 9.66 2.589.354-.146.765-.073 1.051.188l2.612 2.392c.196.179.312.429.324.694l.121 2.744 2.744-.121c.265-.006.524.083.719.261l1.954 1.789c.196.179.313.429.324.694l.121 2.744 2.745-.121c.264-.003.523.083.718.261zm4.306 2.26c-.019 0-.04 0-.059-.002l-4.721-.283c-.229-.014-.446-.105-.615-.26l-1.65-1.51-3.329.147c-.527.025-1.018-.403-1.043-.955l-.146-3.329-1.344-1.23-3.329.147c-.534.015-1.019-.404-1.043-.955l-.146-3.329-1.857-1.7c-4.122 1.391-8.63.06-11.382-3.426-2.675-3.388-2.923-8.11100001-.614-11.75200001 1.657-2.613 4.342-4.343 7.364-4.746 3.021-.399 6.048.549 8.296 2.606 3.142 2.876 4.163 7.45600001 2.612 11.37000001l13.68 12.468c.208.189.326.458.326.739v5c0 .276-.113.539-.314.728-.186.176-.432.272-.686.272zm-46 5h7v-4h-7zm8 2h-9c-.552 0-1-.447-1-1v-6c0-.552.448-1 1-1h9c.553 0 1 .448 1 1v6c0 .553-.447 1-1 1zm-10 8h7v-2h-7zm10 0h7v-2h-7zm10 0h7v-2h-7zm10 0h7v-2h-7zm8.906 7h-39.811c-3.36 0-6.095-2.734-6.095-6.094v-21.811c0-3.361 2.735-6.095 6.095-6.095h17.905v2h-17.905c-2.258 0-4.095 1.837-4.095 4.095v21.811c0 2.257 1.837 4.094 4.095 4.094h39.811c2.257 0 4.094-1.837 4.094-4.094v-12.906h2v12.906c0 3.36-2.734 6.094-6.094 6.094z" fill="#fff" transform="translate(12 11.75)"/></g></svg>