<svg height="80" viewBox="0 0 80 80" width="80" xmlns="http://www.w3.org/2000/svg"><g fill="none" fill-rule="evenodd"><path d="m0 0h80v80h-80z" fill="#e7157b"/><path d="m45 44h21v-7h-21zm22-9h-23c-.553 0-1 .448-1 1v9c0 .552.447 1 1 1h23c.553 0 1-.448 1-1v-9c0-.552-.447-1-1-1zm-23.5 27.5c0 1.93-1.57 3.5-3.5 3.5s-3.5-1.57-3.5-3.5 1.57-3.5 3.5-3.5 3.5 1.57 3.5 3.5zm-29.5-15.5h18v-4h-18zm0-10h18v-4h-18zm22.5-19.5c0-1.93 1.57-3.5 3.5-3.5s3.5 1.57 3.5 3.5-1.57 3.5-3.5 3.5-3.5-1.57-3.5-3.5zm19.5 35.5h-32v-4h9c.553 0 1-.448 1-1v-6c0-.552-.447-1-1-1h-9v-2h9c.553 0 1-.448 1-1v-6c0-.552-.447-1-1-1h-9v-3h32v4h2v-5c0-.552-.447-1-1-1h-16v-3.096c2.556-.472 4.5-2.713 4.5-5.404 0-3.033-2.468-5.5-5.5-5.5s-5.5 2.467-5.5 5.5c0 2.691 1.944 4.932 4.5 5.404v3.096h-16c-.553 0-1 .448-1 1v4h-9c-.553 0-1 .448-1 1v6c0 .552.447 1 1 1h9v2h-9c-.553 0-1 .448-1 1v6c0 .552.447 1 1 1h9v5c0 .552.447 1 1 1h16v2.096c-2.556.472-4.5 2.713-4.5 5.404 0 3.033 2.468 5.5 5.5 5.5s5.5-2.467 5.5-5.5c0-2.691-1.944-4.932-4.5-5.404v-2.096h16c.553 0 1-.448 1-1v-4.973h-2z" fill="#fff"/></g></svg>