<svg height="80" viewBox="0 0 80 80" width="80" xmlns="http://www.w3.org/2000/svg"><g fill="none" fill-rule="evenodd"><path d="m0 0h80v80h-80z" fill="#ed7100"/><path d="m36.645 8.89-4.388-2.534 1-1.732 4.388 2.534zm-23.378 0-1-1.733 4.387-2.533 1 1.732zm34.689 14.875c-1.077-3.572-2.629-7.237-4.561-10.978l4.561 2.607zm-22.242 9.605c-.189-.221-.466-.349-.758-.349s-.57.128-.759.349c-.249.291-6.101 7.198-6.101 14.734v.337c0 .793.109 1.569.296 2.313-1.606-2.128-2.518-4.923-2.518-7.928 0-10.167 6.75-20.416 9.082-23.653 2.332 3.234 9.08 13.473 9.08 23.653 0 3.006-.911 5.802-2.518 7.929.188-.744.296-1.52.296-2.314v-.337c0-7.536-5.851-14.443-6.1-14.734zm-13.089-10.687 2.694 1.555 1-1.732-2.92-1.686c3.823-8.803 9.539-15.939 11.557-18.313 2.019 2.373 7.736 9.508 11.558 18.311l-2.923 1.688 1 1.732 2.697-1.556c1.711 4.371 2.885 9.084 2.885 13.79 0 4.885-2.027 9.463-5.373 12.555.798-1.887 1.236-3.998 1.236-6.201 0-12.938-9.879-25.422-10.3-25.947-.19-.238-.477-.375-.78-.375-.304 0-.591.137-.781.375-.421.525-10.301 13.009-10.301 25.947 0 2.202.438 4.313 1.236 6.2-3.345-3.091-5.372-7.669-5.372-12.554 0-4.703 1.175-9.416 2.887-13.789zm-10.669-7.289 4.56-2.608c-1.933 3.743-3.484 7.408-4.56 10.982zm47.954-.577c0-.358-.191-.688-.5-.866l-8.095-4.675c-.39-.224-.886-.162-1.206.158-.32.319-.387.814-.161 1.206 5.123 8.935 7.845 17.415 8.008 25.22v6.04l-8.873 5.096c1.964-3.043 3.09-6.699 3.09-10.524 0-5.131-1.327-10.224-3.139-14.799l2.523-1.456-1-1.733-2.296 1.325c-1.36-3.113-2.903-5.936-4.344-8.294-4.058-6.647-8.057-11.022-8.225-11.206-.379-.412-1.094-.412-1.473 0-.168.184-4.167 4.559-8.225 11.206-1.441 2.358-2.984 5.181-4.344 8.295l-2.296-1.326-1 1.733 2.523 1.457c-1.812 4.574-3.139 9.667-3.139 14.798 0 3.825 1.126 7.482 3.09 10.525l-8.872-5.097v-5.991c.151-7.818 2.874-16.315 8.007-25.269.226-.393.16-.887-.161-1.206-.321-.32-.816-.384-1.206-.158l-8.096 4.675c-.309.178-.5.508-.5.866v27.66c0 .358.191.688.5.867l21.727 12.544 1-1.733-.639-.369c-1.537-1.09-2.492-3.136-2.492-5.345v-.337c0-5.246 3.324-10.369 4.86-12.455 1.534 2.086 4.858 7.209 4.858 12.455v.337c0 2.209-.955 4.256-2.491 5.345l-.92.531 1 1.733 22.007-12.706c.309-.179.5-.509.5-.867z" fill="#fff" transform="translate(15 12)"/></g></svg>