<svg height="80" viewBox="0 0 80 80" width="80" xmlns="http://www.w3.org/2000/svg"><g fill="none" fill-rule="evenodd"><path d="m0 0h80v80h-80z" fill="#01a88d"/><path d="m28.5 11c8.929 0 16.207 7.134 16.475 16h-7.206l-4.521-10.325c-.161-.37-.532-.576-.937-.599-.405.009-.765.261-.912.638l-7.297 18.81-4.049-7.977c-.17-.336-.515-.547-.892-.547h-7.136c.268-8.866 7.546-16 16.475-16zm0 33c-8.592 0-15.663-6.603-16.424-15h6.471l4.785 9.427c.179.352.554.579.941.546.395-.02.741-.269.883-.637l7.232-18.639 3.811 8.704c.159.364.519.599.916.599h7.809c-.761 8.397-7.832 15-16.424 15zm-18.424-15c.768 9.5 8.729 17 18.424 17s17.656-7.5 18.424-17h8.076c.553 0 1-.448 1-1v-4.875c0-1.171-.953-2.125-2.125-2.125h-3.812c-.428-1.421-1.001-2.802-1.71-4.122l2.697-2.698c.828-.829.828-2.178 0-3.006l-6.224-6.223c-.803-.804-2.203-.803-3.006 0l-2.697 2.697c-1.319-.708-2.7-1.282-4.123-1.712v-3.811c0-1.171-.953-2.125-2.125-2.125h-9.75c-1.172 0-2.125.954-2.125 2.125v3.811c-1.423.43-2.804 1.004-4.123 1.712l-2.697-2.697c-.803-.804-2.203-.803-3.006 0l-6.224 6.223c-.828.828-.828 2.177 0 3.006l2.697 2.698c-.709 1.32-1.282 2.701-1.71 4.122h-3.812c-1.172 0-2.125.954-2.125 2.125v.875h2v-.875c0-.069.056-.125.125-.125h4.567c.454 0 .851-.306.967-.745.464-1.757 1.169-3.455 2.095-5.047.228-.392.164-.889-.157-1.209l-3.233-3.232c-.049-.05-.049-.13 0-.179l6.224-6.223h.02c.047 0 .157-.001.158 0l3.232 3.232c.321.322.817.385 1.21.157 1.59-.925 3.289-1.63 5.048-2.095.438-.117.744-.513.744-.967v-4.567c0-.069.056-.125.125-.125h9.75c.069 0 .125.056.125.125v4.567c0 .454.306.85.744.967 1.759.465 3.458 1.17 5.048 2.095.394.228.889.165 1.21-.157l3.232-3.232h.021c.047 0 .157-.001.157 0l6.224 6.223c.049.049.049.129 0 .178l-3.233 3.233c-.321.32-.385.817-.157 1.209.926 1.592 1.631 3.29 2.095 5.047.116.439.513.745.967.745h4.567c.069 0 .125.056.125.125v3.875h-7.025c-.269-9.969-8.443-18-18.475-18s-18.206 8.031-18.475 18h-9.025c-.553 0-1 .448-1 1v4.875c0 1.171.953 2.125 2.125 2.125h4.883c.429 1.424 1 2.806 1.704 4.123l-2.688 2.701c-.822.827-.821 2.172 0 2.998l6.191 6.22c.401.404.935.626 1.505.626h.002c.569 0 1.104-.222 1.507-.626l2.674-2.688c1.311.707 2.683 1.279 4.097 1.709v3.812c0 1.171.953 2.125 2.125 2.125h8.75c1.172 0 2.125-.954 2.125-2.125v-3.812c1.414-.43 2.786-1.002 4.097-1.709l2.675 2.689c.402.403.937.625 1.506.625h.002c.57 0 1.104-.222 1.505-.626l6.191-6.22c.821-.826.822-2.171 0-2.999l-2.688-2.7c.704-1.317 1.275-2.699 1.704-4.123h3.883c1.172 0 2.125-.954 2.125-2.125v-.875h-2v.875c0 .069-.056.125-.125.125h-4.64c-.454 0-.851.306-.966.745-.465 1.763-1.167 3.461-2.086 5.048-.227.392-.163.886.156 1.207l3.219 3.233c.048.05.048.13 0 .178l-6.191 6.22h-.049c-.05-.001-.13 0-.129 0l-3.21-3.227c-.324-.322-.822-.386-1.214-.157-1.581.924-3.272 1.629-5.022 2.095-.438.116-.743.513-.743.966v4.567c0 .069-.056.125-.125.125h-8.75c-.069 0-.125-.056-.125-.125v-4.567c0-.453-.305-.85-.743-.966-1.75-.466-3.441-1.171-5.022-2.095-.393-.229-.891-.165-1.214.157l-3.21 3.227.709.706-.887-.706-6.191-6.219c-.048-.049-.048-.129 0-.178l3.219-3.234c.319-.321.383-.815.156-1.207-.919-1.587-1.621-3.285-2.086-5.048-.115-.439-.512-.745-.966-.745h-5.64c-.069 0-.125-.056-.125-.125v-3.875z" fill="#fff" transform="translate(12 12)"/></g></svg>