<svg height="80" viewBox="0 0 80 80" width="80" xmlns="http://www.w3.org/2000/svg"><g fill="none" fill-rule="evenodd"><path d="m0 0h80v80h-80z" fill="#e7157b"/><path d="m13.9996175 40.0003564h2v-11h-2zm21 0h2v-11h-2zm-7 0h2v-25h-2zm-7 0h2v-16h-2zm33 6.193-35.58 7.693-16.30000001-22.053 10.56500001-29.772 22.365 1.863.952 17.132c.015.274.143.53.353.707.21.178.485.262.756.231l16.889-1.877zm1.667-27.938c-.213-.19-.496-.279-.777-.249l-16.95 1.884-.942-16.946c-.027-.498-.418-.899-.915-.941l-24-2c-.459-.037-.874.235-1.025.663l-11.00000001 31c-.111.313-.06.661.139.928l17.00000001 23c.19.259.49.406.803.406.071 0 .141-.007.211-.022l37-8c.461-.1.789-.507.789-.978v-28c0-.285-.121-.556-.333-.745z" fill="#fff" transform="translate(12 12)"/></g></svg>