<svg height="80" viewBox="0 0 80 80" width="80" xmlns="http://www.w3.org/2000/svg"><g fill="none" fill-rule="evenodd"><path d="m0 0h80v80h-80z" fill="#8c4fff"/><path d="m30.597 54.484-4.07-4.07 4.07-4.071-1.414-1.414-4.777 4.778c-.391.39-.391 1.023 0 1.414l4.777 4.777zm22.11-23.363c.391-.391.391-1.024 0-1.414l-4.777-4.778-1.414 1.414 4.07 4.071-4.07 4.07 1.414 1.414zm-8.707 21.919h12v-2h-12zm-7 6h31v-2h-31zm-20-28h14v-2h-14zm-5-8h31v-2h-31zm51.7 8.13c0-8.365-6.806-15.17-15.17-15.17-2.578 0-5.123.658-7.363 1.903l.973 1.748c1.942-1.08 4.152-1.651 6.39-1.651 7.261 0 13.17 5.908 13.17 13.17s-5.909 13.17-13.17 13.17c-1.204 0-2.396-.162-3.542-.481l-.537 1.926c1.321.368 2.694.555 4.079.555 8.364 0 15.17-6.805 15.17-15.17zm-27.888 3.437c-.3-1.114-.452-2.27-.452-3.437 0-1.746.336-3.441.998-5.039l-1.848-.765c-.764 1.841-1.15 3.794-1.15 5.804 0 1.342.175 2.673.52 3.957zm5.188 29.433h-24c-.552 0-1-.448-1-1v-24c0-.552.448-1 1-1h24c.553 0 1 .448 1 1v16h-2v-15h-22v22h22v-1h2v2c0 .552-.447 1-1 1z" fill="#fff"/></g></svg>