<svg height="80" viewBox="0 0 80 80" width="80" xmlns="http://www.w3.org/2000/svg"><g fill="none" fill-rule="evenodd"><path d="m0 0h80v80h-80z" fill="#7aa116"/><path d="m28 48.2895239v-5.771c0-1.946 1.583-3.529 3.529-3.529h4.29c-.73 4.325-3.775 7.864-7.819 9.3m-6 .519v-6.29c0-3.048-2.48-5.529-5.529-5.529h-4.471c0-.683.071-1.348.181-2l2.588-.001c2.051 0 4.004-.914 5.224-2.444.954-1.198 2.399-1.885 3.962-1.885s3.007.687 3.962 1.886c1.221 1.53 3.173 2.443 5.225 2.444h2.677c.11.652.181 1.317.181 2h-4.471c-3.049 0-5.529 2.481-5.529 5.529v6.29c-.652.11-1.317.181-2 .181s-1.348-.071-2-.181m-9.819-9.819h4.29c1.946 0 3.529 1.583 3.529 3.529v5.771c-4.044-1.436-7.089-4.975-7.819-9.3m11.819-14c5.213 0 9.647 3.347 11.3 8h-2.158c-1.449-.001-2.817-.633-3.662-1.691-1.336-1.677-3.35-2.639-5.525-2.639-2.176 0-4.189.962-5.526 2.639-.844 1.058-2.212 1.69-3.66 1.69l-2.069.001c1.653-4.653 6.087-8 11.3-8m0-2c-7.72 0-14 6.28-14 14s6.28 14 14 14 14-6.28 14-14-6.28-14-14-14m21.897 12-3.006-.007c-1.006-9.536-9.093-16.993-18.891-16.993-9.097 0-16.714 6.43-18.563 14.982-1.862-1.606-3.143-4.022-3.387-6.596-.033-.345-.05-.705-.05-1.078 0-2.76 2.045-6.637 5.885-6.74.505-.013.92-.4.969-.902l.102-1.05c.007-.072.007-.145-.002-.217-.063-.526-.096-1.062-.096-1.591 0-4.777 3.329-9.91600001 7.579-11.70100001 7.357-3.091 12.572.971 14.471 2.861 1.545 1.538 2.751 3.502 3.583 5.83800001.124.347.429.598.794.653.368.058.73-.096.95-.392 1.216-1.631 3.19-2.33500001 5.038-1.792 2.198.647 3.643 2.855 3.88 5.917-.081.539.284 1.044.822 1.135 2.413.411 8.025 2.096 8.025 8.843 0 8.042-7.853 8.805-8.103 8.83m-21.897 19c-9.374 0-17-7.626-17-17s7.626-17 17-17 17 7.626 17 17-7.626 17-17 17m23.097-38.486c-.434-3.654-2.368-6.30600001-5.259-7.15700001-2.129-.625-4.364-.117-6.056 1.296-.886-1.982-2.047-3.693-3.464-5.103-4.549-4.527-10.775-5.758-16.656-3.287-5.018 2.108-8.804 7.931-8.804 13.54500001 0 .572.033 1.151.097 1.72l-.011.116c-4.313.618-6.944 4.819-6.944 8.664 0 .44.021.862.06 1.268.336 3.555 2.234 6.77 5.029 8.664-.053.58-.089 1.166-.089 1.76 0 10.477 8.523 19 19 19s19-8.523 19-19c0-.002 0-.005 0-.007l2.976.004c.1-.008 10.024-.923 10.024-10.827 0-7.687-6.061-9.997-8.903-10.656" fill="#fff" transform="translate(12 12)"/></g></svg>