<svg height="80" viewBox="0 0 80 80" width="80" xmlns="http://www.w3.org/2000/svg"><g fill="none" fill-rule="evenodd"><path d="m0 0h80v80h-80z" fill="#01a88d"/><path d="m55 49.6624964v-16.8155019l-14 7.9270924v16.8155018zm-30 0 14 7.9270923v-16.8155018l-14-7.9270924zm1.04-18.5368133 13.96 7.9039401 13.96-7.9039401-13.96-7.9049468zm30.45 20.0034512-16 9.0595341c-.152.0855623-.321.1288467-.49.1288467s-.338-.0432844-.49-.1288467l-16-9.0595341c-.315-.1791774-.51-.5143802-.51-.8777682v-19.125683c0-.363388.195-.6985908.51-.8777682l16-9.0595341c.304-.1721312.676-.1721312.98 0l16 9.0595341c.315.1791774.51.5143802.51.8777682v19.125683c0 .363388-.195.6985908-.51.8777682zm11.007-16.1742882-1.961.3945931c.29 1.4626114.464 3.3993385.464 5.1810469 0 12.1095772-8.496 22.8360655-20.202 25.5066148l.441 1.9628991c12.61-2.8758988 21.761-14.4278113 21.761-27.4695139 0-1.9347139-.184-3.9670694-.503-5.57564zm-53.497 5.57564c0-1.7676158.174-3.5090596.516-5.1750072l-1.959-.4066725c-.37 1.7988209-.557 3.6771643-.557 5.5816797 0 13.0417026 9.151 24.5936151 21.761 27.4695139l.441-1.9628991c-11.706-2.6705493-20.202-13.3970376-20.202-25.5066148zm5.687-16.3242738-1.562-1.2562554c5.521-6.9587288 13.494-10.9499569 21.875-10.9499569 8.656 0 17.061 4.3828013 22.481 11.7240437l-1.605 1.2018982c-5.045-6.8329019-12.849-10.9127121-20.876-10.9127121-7.77 0-15.173 3.7154156-20.313 10.1929825z" fill="#fff"/></g></svg>