<svg height="80" viewBox="0 0 80 80" width="80" xmlns="http://www.w3.org/2000/svg"><g fill="none" fill-rule="evenodd"><path d="m0 0h80v80h-80z" fill="#8c4fff"/><path d="m49 43.943c0 5.664-2.692 8.693-8 9.024v-25.161l8 3.059zm-18 0v-13.078l8-3.059v25.151c-6.57-.43-8-5.077-8-9.014zm8.643-18.524-10 3.823c-.387.148-.643.52-.643.934v13.767c0 3.324 1.072 11.057 11 11.057 7.094 0 11-3.927 11-11.057v-13.767c0-.414-.256-.786-.643-.934l-10-3.823c-.23-.088-.484-.088-.714 0zm14.357 18.524c0 13.043-10.716 14.057-14 14.057-13.325 0-14-11.71-14-14.057v-16.52l14-5.353 14 5.353zm-40-22.943h7v-7h-7zm45 0h7v-7h-7zm0 45h7v-7h-7zm-45 0h7v-7h-7zm53-43c.553 0 1-.448 1-1v-9c0-.553-.447-1-1-1h-9c-.553 0-1 .447-1 1v8.586l-3.504 3.504-13.139-5.024c-.23-.088-.484-.088-.714 0l-13.139 5.024-3.504-3.504v-8.586c0-.553-.447-1-1-1h-9c-.553 0-1 .447-1 1v9c0 .552.447 1 1 1h8.586l2.894 2.894c-.29.18-.48.491-.48.841v17.208c0 2.86.634 5.901 2.081 8.562l-4.495 4.495h-8.586c-.553 0-1 .447-1 1v9c0 .552.447 1 1 1h9c.553 0 1-.448 1-1v-8.586l4.188-4.188c2.493 3.359 6.585 5.774 12.812 5.774 6.7 0 10.6-2.59 12.868-5.718l4.132 4.132v8.586c0 .552.447 1 1 1h9c.553 0 1-.448 1-1v-9c0-.553-.447-1-1-1h-8.586l-4.466-4.466c1.869-3.553 2.052-7.304 2.052-8.591v-17.208c0-.35-.19-.661-.48-.841l2.894-2.894z" fill="#fff"/></g></svg>