<svg height="80" viewBox="0 0 80 80" width="80" xmlns="http://www.w3.org/2000/svg"><g fill="none" fill-rule="evenodd"><path d="m0 0h80v80h-80z" fill="#7aa116"/><path d="m54 23h2v-14h-2zm-9 0h2v-23h-2zm-9 10h2v-20h-2zm-9 5h2v-32h-2zm-24.979-9h6.976c.441 9.737 8.265 17.562 18.003 18.003v6.975c-13.576-.447-24.531-11.402-24.979-24.978zm15.979-24.736v7.745c-5.34 3.269-8.647 8.803-9.011 14.991h-6.853c.442-10.003 6.642-18.891 15.864-22.736zm11 49.707v-6.982c9.895-.594 17.768-8.809 17.768-18.849h-2c0 9.322-7.585 16.906-16.908 16.906-9.322 0-16.907-7.584-16.907-16.906 0-5.521 2.612-10.555 7.047-13.73v13.59h2v-26.606l-1.333.471c-11.11 3.927-18.574 14.486-18.574 26.275h-.093c0 15.362 12.498 27.86 27.86 27.86 15.363 0 27.861-12.498 27.861-27.86h-2c0 13.877-10.989 25.232-24.721 25.831z" fill="#fff" transform="translate(12 12)"/></g></svg>