<svg height="80" viewBox="0 0 80 80" width="80" xmlns="http://www.w3.org/2000/svg"><g fill="none" fill-rule="evenodd"><path d="m0 0h80v80h-80z" fill="#ed7100"/><path d="m36.7707956 46h8v-8h-8zm10-9v10c0 .552-.448 1-1 1h-10c-.553 0-1-.448-1-1v-10c0-.552.447-1 1-1h10c.552 0 1 .448 1 1zm5-7h-10c-.553 0-1 .448-1 1v3c0 .552.447 1 1 1 .552 0 1-.448 1-1v-2h8v8h-1c-.553 0-1 .448-1 1s.447 1 1 1h2c.552 0 1-.448 1-1v-10c0-.552-.448-1-1-1zm-41-20h8v-8h-8zm-1.99999995 1v-10c0-.552.447-1 1-1h9.99999995c.552 0 1 .448 1 1v10c0 .552-.448 1-1 1h-9.99999995c-.553 0-1-.448-1-1zm-6 7h9.99999995c.552 0 1-.448 1-1v-2c0-.552-.448-1-1-1-.553 0-1 .448-1 1v1h-7.99999995v-8h2c.552 0 1-.448 1-1s-.448-1-1-1h-3c-.553 0-1 .448-1 1v10c0 .552.447 1 1 1zm52.30899995 10.135c-.151.532-.711.838-1.234.689-.531-.15-.84-.703-.69-1.235.816-2.877.287-6.035-1.38-8.241-1.56-2.063-3.945-3.154-6.898-3.154-7.615 0-11.773 4.246-15.89 9.02 2.583 2.952 5.306 5.854 8.709 7.488.498.239.708.837.469 1.334-.172.359-.529.568-.902.568-.145 0-.292-.032-.432-.099-3.668-1.761-6.498-4.727-9.159-7.757-4.014 4.688-8.252 9.377-15.598 9.377-4.07099995 0-7.54699995-1.653-9.78699995-4.654-2.138-2.865-2.831-6.544-1.852-9.843.156-.529.713-.832 1.243-.674.529.156.832.713.675 1.242-.788 2.657-.2 5.753 1.537 8.078 1.853 2.483 4.76 3.851 8.18399995 3.851 6.553 0 10.328-4.292 14.269-8.9-2.975-3.425-5.817-6.625-9.569-8.135-.513-.206-.761-.789-.555-1.301.207-.513.794-.761 1.301-.555 4.099 1.65 7.188 5.064 10.14 8.458 4.216-4.868 8.854-9.498 17.217-9.498 3.553 0 6.569 1.402 8.493 3.948 2.038 2.695 2.693 6.525 1.709 9.993z" fill="#fff" transform="translate(12 16)"/></g></svg>