<svg height="80" viewBox="0 0 80 80" width="80" xmlns="http://www.w3.org/2000/svg"><g fill="none" fill-rule="evenodd"><path d="m0 0h80v80h-80z" fill="#dd344c"/><path d="m50.707 40.293-1.414 1.414 3.293 3.293h-10.586v2h10.586l-3.293 3.293 1.414 1.414 5-5c.391-.391.391-1.023 0-1.414zm-26.707 6.707h10.586l-3.293 3.293 1.414 1.414 5-5c.391-.391.391-1.023 0-1.414l-5-5-1.414 1.414 3.293 3.293h-10.586zm-9.293 4.707 5-5c.391-.391.391-1.023 0-1.414l-5-5-1.414 1.414 3.293 3.293h-10.586v2h10.586l-3.293 3.293zm-8.707-17.707h18v-2h-18zm0-11h18v-2h-18zm24 0h6v-3h-6zm7-5c.553 0 1 .448 1 1v5c0 .552-.447 1-1 1h-8c-.553 0-1-.448-1-1v-5c0-.552.447-1 1-1zm-7 17h24v-3h-24zm26-4v5c0 .552-.447 1-1 1h-26c-.553 0-1-.448-1-1v-5c0-.552.447-1 1-1h26c.553 0 1 .448 1 1zm-21-22h5.586l-5.586-5.586zm7 42h2v4c0 .552-.447 1-1 1h-42c-.553 0-1-.448-1-1v-54c0-.552.447-1 1-1h33c.266 0 .52.105.707.293l9 9c.188.188.293.442.293.707v17h-2v-16h-8c-.553 0-1-.448-1-1v-8h-31v52h40zm-27-35c-.256 0-.512-.098-.707-.293l-4-4 1.414-1.414 3.293 3.293 7.293-7.293 1.414 1.414-8 8c-.195.195-.451.293-.707.293z" fill="#fff" transform="translate(12 12)"/></g></svg>