<svg height="80" viewBox="0 0 80 80" width="80" xmlns="http://www.w3.org/2000/svg"><g fill="none" fill-rule="evenodd"><path d="m0 0h80v80h-80z" fill="#8c4fff"/><path d="m16.414 12c0-5.514 4.486-10 10-10s10 4.486 10 10v1h2v-1c0-6.617-5.383-12-12-12s-12 5.383-12 12v1h2zm7 26c0 1.654 1.346 3 3 3s3-1.346 3-3-1.346-3-3-3-3 1.346-3 3zm-2 0c0-2.757 2.243-5 5-5s5 2.243 5 5c0 2.415-1.721 4.434-4 4.899v6.101h-2v-6.101c-2.279-.465-4-2.484-4-4.899zm-11 16h32v-26h-32zm28-28h6v30h-36v-30h6v-6h2v6h20v-6h2zm14.414-9-6.707 6.707-1.414-1.414 4.293-4.293h-45.172l4.293 4.293-1.414 1.414-6.707-6.707 6.707-6.707 1.414 1.414-4.293 4.293h45.172l-4.293-4.293 1.414-1.414z" fill="#fff" transform="translate(14.6 12)"/></g></svg>