<svg height="80" viewBox="0 0 80 80" width="80" xmlns="http://www.w3.org/2000/svg"><g fill="none" fill-rule="evenodd"><path d="m0 0h80v80h-80z" fill="#c925d1"/><path d="m65.4396329 22-5.9541177-5.451-5.9600728 5.451zm-8.2379025-6.062-12.0779561.018 6.4513694 5.127zm-5.4469408 17.562-9.506341 3.5h18.2861585zm-13.9567934 23.5h26.7979961v-18h-26.7979961zm11.7246195-35-6.5853594-5.234-6.5416886 5.234zm-15.2133216-.885 6.4394592-5.152-12.8372327.019zm-2.0842886.885-6.5724567-5.274-6.5724567 5.274h9.7852387zm-4.3521931 2h-8.0304662l8.0304662 7.965zm0 11.083-9.4249545 8.582 9.4249545 9.224zm0 21.054-9.9251838 9.702v.161h9.9251838zm-9.9251838-10.174v17.09l8.7361468-8.54zm0-4.539 8.6726256-7.896-8.6726256-8.6zm-.9925183-20.276 6.429534-5.159-6.429534.01zm-1.9850368-7.148h-1.9850367v10h1.9850367v-1-8zm53.9632241 9.36c-.1478852.386-.5161095.64-.9260196.64h-15.3215062v8l13.2779109 5.074-.0009926.002c.3632618.149.618339.506.618339.924v20c0 .552-.4436557 1-.9925184 1h-28.7830329c-.5478702 0-.9925184-.448-.9925184-1v-20c0-.428.269965-.787.6461295-.929l-.0029776-.007 14.2446238-5.064v-8h-20.8428859v43c0 .552-.4436558 1-.9925184 1h-11.9102205c-.5478702 0-.9925184-.448-.9925184-1v-41h-3.9700735c-.5478702 0-.9925184-.448-.9925184-1v-12c0-.552.4446482-1 .9925184-1h3.9700735c.5488626 0 .9925184.448.9925184 1v.999l42.6782901.001 9.0418425 8.26c.3027181.278.40594.715.2580547 1.1zm-20.5937638 31.948 5.776457-13.225-1.8163086-.806-5.776457 13.225zm5.426098-4.42 1.2833263 1.527 4.2876794-3.658c.2104138-.18.3364637-.441.3493664-.718.0129028-.278-.0913117-.549-.2848528-.747l-3.5790212-3.659-1.4133462 1.405 2.8266923 2.89zm-12.8947987-2.904c-.2183541-.201-.3364638-.491-.3205835-.789.0148878-.299.162773-.574.4009774-.752l4.8702877-3.631 1.1810969 1.607-3.9025823 2.911 3.2753107 3.024-1.3418849 1.475z" fill="#fff"/></g></svg>