<svg height="80" viewBox="0 0 80 80" width="80" xmlns="http://www.w3.org/2000/svg"><g fill="none" fill-rule="evenodd"><path d="m0 0h80v80h-80z" fill="#ed7100"/><path d="m19 36h-2v-9c0-.366.199-.703.521-.878l11-6.009.958 1.755-10.479 5.725zm44 0h-2v-8.407l-10.479-5.727.958-1.755 11 6.011c.322.175.521.512.521.878zm-29.492 26.871-16-9.044c-.314-.177-.508-.51-.508-.87v-9.957h2v9.373l15.492 8.756zm12.984 0-.984-1.742 15.492-8.756v-9.373h2v9.957c0 .36-.194.693-.508.87zm-11.492-36.489 5 2.5 5-2.5v-6.764l-5-2.5-5 2.5zm-9.942 8.576 14.944 7.911 14.94-7.911-10.44-6.091-3.502 1.751v4.382h-2v-4.382l-3.502-1.751zm-.069 10.972 15.01 8.032 15.012-8.032-7.55-4.748-6.461 3.421.001 2.397h-2l-.001-2.399-6.461-3.42zm14.012 20.07-.001-10.304-16.472-8.814c-.314-.169-.515-.491-.527-.847-.013-.356.165-.692.467-.882l8.031-5.052-7.967-4.217c-.321-.17-.524-.5-.532187-.863-.006813-.363.183187-.702.496187-.885l10.886-6.35c-.238-.187-.382-.475-.382-.786v-8c0-.379.214-.725.553-.895l6-3c.281-.14.613-.14.894 0l6 3c.339.17.553.516.553.895v8c0 .311-.144.599-.382.786l10.886 6.35c.313.183.503.522.496187.885-.008187.362-.211187.693-.532187.863l-7.967 4.218 8.031 5.051c.302.19.48.526.467.882-.012.356-.213.679-.527.847l-16.472 8.813.001 10.305z" fill="#fff"/></g></svg>