<svg height="80" viewBox="0 0 80 80" width="80" xmlns="http://www.w3.org/2000/svg"><g fill="none" fill-rule="evenodd"><path d="m0 0h80v80h-80z" fill="#e7157b"/><path d="m55.0592315 46.7773707c0-3.9093426-3.2016727-7.0897402-7.1371669-7.0897402-3.9354941 0-7.1361616 3.1803976-7.1361616 7.0897402s3.2006675 7.0897401 7.1361616 7.0897401c3.9354942 0 7.1371669-3.1803975 7.1371669-7.0897401m2.0104696 0c0 5.0107487-4.1033684 9.08685-9.1476365 9.08685-5.0432628 0-9.1466312-4.0761013-9.1466312-9.08685 0-5.0107488 4.1033684-9.0868501 9.1466312-9.0868501 5.0442681 0 9.1476365 4.0761013 9.1476365 9.0868501m8.4399511 13.6961797-7.0084968-6.2709251c-.5659472.7918541-1.220355 1.5148079-1.9471398 2.1608729l6.9984445 6.2699266c.5971095.5352254 1.5259464.4852977 2.0657575-.107844.5367954-.5931416.4885441-1.5148078-.1085654-2.0520304m-17.5875876-2.8119307c6.0424663 0 10.9580643-4.8829338 10.9580643-10.884249 0-6.0023138-4.915598-10.884249-10.9580643-10.884249-6.041461 0-10.957059 4.8819352-10.957059 10.884249 0 6.0013152 4.915598 10.884249 10.957059 10.884249m19.1899319 6.2010262c-.6855701.753909-1.6335065 1.1373541-2.5834534 1.1373541-.8283135 0-1.6586374-.291578-2.3210871-.8827226l-7.2768945-6.5185667c-2.0235376 1.2981214-4.4250435 2.0600189-7.0084969 2.0600189-7.1502349 0-12.9675285-5.7786375-12.9675285-12.8813589s5.8172936-12.8813589 12.9675285-12.8813589c7.1512402 0 12.9685339 5.7786375 12.9685339 12.8813589 0 2.0380506-.4915598 3.9592704-1.3439989 5.6737892l7.309062 6.5395364c1.4193915 1.2751547 1.5339883 3.4589944.2563349 4.8719496m-45.8316691-34.4701169c0 .5192486.0321675 1.0365.0934869 1.5367761.0351832.2845881-.0532775.5691763-.2442721.7838656-.1517904.1707529-.3558531.2835896-.5790152.3215347-2.4718723.6340824-6.5400575 2.553305-6.5400575 8.3109728 0 4.3477083 2.4135687 6.7472359 4.4391168 7.9954295.6916015.4333729 1.5098626.6640391 2.3733593.6730261l12.1221261.0109841-.0020104 1.9971099-12.1311733-.0109841c-1.2454859-.0129812-2.427642-.3504928-3.4278506-.9765868-2.0074538-1.2372095-5.3840374-4.1450016-5.3840374-9.6889787 0-6.6833282 4.5999543-9.1537532 7.3000149-10.0264902-.0201047-.3075549-.030157-.617107-.030157-.926659 0-5.4600985 3.7284158-11.1229036 8.6721604-13.1709398 5.7821104-2.4065175 11.9080111-1.2132443 16.3843216 3.1893845 1.3872239 1.3640261 2.5281654 3.0206287 3.4037249 4.9368557 1.1761247-.9675998 2.6256732-1.5018267 4.1536301-1.5018267 3.0026363 0 6.3822356 2.2637241 6.9843712 7.2145595 2.8116417.644068 8.7525792 2.8948109 8.7525792 10.3620048 0 2.9816851-.9408998 5.4441216-2.7975684 7.3194078l-1.4334648-1.4009726c1.4736742-1.4878469 2.2205636-3.4789655 2.2205636-5.9184352 0-6.531548-5.5046656-8.1561969-7.8729987-8.5506261-.2694029-.0449349-.5076436-.1967153-.6614445-.4203916-.14978-.2156879-.2070784-.4803049-.1618428-.7369336-.3287118-4.0541331-2.7533381-5.8715031-5.0301948-5.8715031-1.4364805 0-2.7834951.6949943-3.6962483 1.90724-.2221569.2935751-.5830361.4433584-.9529625.3894364-.3649003-.053922-.6714969-.3035607-.7971512-.6480622-.8232873-2.2657211-2.0094643-4.170964-3.5253584-5.660808-3.879201-3.8154784-9.1838249-4.8499814-14.1949202-2.7659972-4.1707191 1.7275001-7.4367269 6.7023008-7.4367269 11.3276074" fill="#fff"/></g></svg>