<svg height="80" viewBox="0 0 80 80" width="80" xmlns="http://www.w3.org/2000/svg"><g fill="none" fill-rule="evenodd"><path d="m0 0h80v80h-80z" fill="#7aa116"/><path d="m56.344 54.964-8.536-8.537-1.414 1.414 8.519 8.52-14.907 6.179-14.985-6.202 8.541-8.541-1.414-1.415-8.515 8.516-6.174-14.893 6.177-14.922 8.522 8.523 1.415-1.414-8.534-8.534 14.955-6.199 14.907 6.17-8.518 8.518 1.414 1.414 8.538-8.538 6.206 14.971zm11.656-13.964v-2h-3.707l-6.427-15.509 3.135-3.135-1.414-1.414-3.155 3.156-15.432-6.387v-3.711h-2v3.706l-15.492 6.422-3.185-3.186-1.414 1.414 3.197 3.196-6.395 15.448h-3.711v2h3.707l6.395 15.429-3.193 3.192 1.414 1.414 3.167-3.166 15.51 6.42v3.711h2v-3.707l15.445-6.401 3.142 3.143 1.414-1.414-3.126-3.126 6.414-15.495zm-28 4.72c-3.154 0-5.719-2.566-5.719-5.72 0-3.155 2.565-5.721 5.719-5.721 3.155 0 5.72 2.566 5.72 5.721 0 3.154-2.565 5.72-5.72 5.72zm0-13.441c-4.257 0-7.719 3.464-7.719 7.721 0 4.256 3.462 7.72 7.719 7.72s7.72-3.464 7.72-7.72c0-4.257-3.463-7.721-7.72-7.721z" fill="#fff"/></g></svg>