<svg height="80" viewBox="0 0 80 80" width="80" xmlns="http://www.w3.org/2000/svg"><g fill="none" fill-rule="evenodd"><path d="m0 0h80v80h-80z" fill="#7aa116"/><path d="m41 26h13.001v-1h-13.001zm1-3h11v-7h-11zm14 1v2c0 1.103-.897 2-2 2h-13c-1.103 0-2-.897-2-2v-2c0-.552.447-1 1-1v-8c0-.552.447-1 1-1h13c.553 0 1 .448 1 1v8c.553 0 1 .448 1 1zm-13.587-19.325h-2.469l-4.724 6.994-1.265 1.816 4.045 6.009v-3.869l-1.564-2.309zm-15.08 18.325h2.504l4.177-6.326-1.129-1.652zm6.838-12.883-3.677-5.442h-2.605l4.966 7.26zm-11.344 1.429-3.327-1.322c-1.1-.431-1.944-.833-2.535-1.21-.591-.376-1.016-.795-1.276-1.258-.258-.462-.388-1.069-.388-1.822 0-1.333.425-2.359 1.275-3.08.85-.72 2.073-1.08 3.67-1.08 1.638 0 3.514.387 5.629 1.161v-1.645c-.892-.408-1.84-.726-2.846-.951-1.006-.226-1.965-.339-2.877-.339-2.01 0-3.633.554-4.867 1.661-1.233 1.108-1.849 2.553-1.849 4.338 0 1.312.373 2.413 1.119 3.305.746.893 1.918 1.661 3.514 2.306l3.608 1.452c1.243.494 2.145 1.053 2.705 1.676.559.624.84 1.377.84 2.258 0 1.441-.513 2.58-1.539 3.419-1.027.838-2.401 1.257-4.121 1.257-1.825 0-3.826-.408-6.002-1.225v1.645c1.803.903 3.856 1.354 6.157 1.354 2.219 0 4.007-.591 5.365-1.774 1.357-1.182 2.037-2.73 2.037-4.644 0-1.311-.343-2.403-1.026-3.273-.685-.871-1.773-1.607-3.266-2.209zm-22.827-10.998h12.098v1.709h-10.263v8.547h8.677v1.709h-8.677v10.385h-1.835z" fill="#fff" transform="translate(12 26)"/></g></svg>