<svg height="80" viewBox="0 0 80 80" width="80" xmlns="http://www.w3.org/2000/svg"><g fill="none" fill-rule="evenodd"><path d="m0 0h80v80h-80z" fill="#7aa116"/><path d="m1 39h11v-2h-11zm3-6h8v-2h-8zm-4-6h12v-2h-12zm33 15h5v-2h-5zm-7 0h5v-2h-5zm-7 0h5v-2h-5zm14-5h5v-2h-5zm-7 0h5v-2h-5zm-7 0h5v-2h-5zm2-9h15v-3h-15zm16-5h-17c-.553 0-1 .448-1 1v5c0 .552.447 1 1 1h17c.553 0 1-.448 1-1v-5c0-.552-.447-1-1-1zm-21 23h25v-26h-25zm26 2c.553 0 1-.448 1-1v-28c0-.552-.447-1-1-1h-27c-.553 0-1 .448-1 1v28c0 .552.447 1 1 1zm-4-44.727 8.43 7.727h-8.43zm11.676 7.99-12-11c-.185-.169-.426-.263-.676-.263h-29c-.553 0-1 .448-1 1v22h2v-21h27v10c0 .552.447 1 1 1h11v41h-39v-13h-2v14c0 .552.447 1 1 1h41c.553 0 1-.448 1-1v-43c0-.28-.117-.548-.324-.737z" fill="#fff" transform="translate(13 12)"/></g></svg>