<svg height="80" viewBox="0 0 80 80" width="80" xmlns="http://www.w3.org/2000/svg"><g fill="none" fill-rule="evenodd"><path d="m0 0h80v80h-80z" fill="#ed7100"/><path d="m53.0046805 29.3343049c0-.366657 0-.7422326-.0189555-.9731274-.2324547-.0178374-.6105678-.0178374-.9787042-.0178374h-13.9672363c-.3681365 0-.7462495 0-.9787043.0178374-.0189555.2308948-.0189555.6064704-.0189555.9731274v30.7199067c0 .366657 0 .7422326.0189555.9731274.2324548.0178373.6105678.0178373.9787043.0178373h3.9906389 5.9859584 3.990639c.3681364 0 .7462495 0 .9787042-.0178373.0189555-.2308948.0189555-.6064704.0189555-.9731274zm-3.9906389 34.6837656h1.9953194v-.9909647h-1.9953194zm-9.9765974 0h1.9953195v-.9909647h-1.9953195zm15.9625558-34.6837656v30.7199067c0 2.1484115-.337209 2.7865928-1.9953195 2.9312737v2.02355c0 .5470125-.4459539.9909647-.9976597.9909647h-3.990639c-.5517058 0-.9976597-.4439522-.9976597-.9909647v-1.9819295h-3.990639v1.9819295c0 .5470125-.4459539.9909647-.9976597.9909647h-3.9906389c-.5517059 0-.9976598-.4439522-.9976598-.9909647v-2.02355c-1.6581105-.1446809-1.9953195-.7828622-1.9953195-2.9312737v-30.7199067c0-2.5279511.4469516-2.9728942 2.9929793-2.9728942h13.9672363c2.5460276 0 2.9929792.4449431 2.9929792 2.9728942zm-4.9882987 12.8825415c0 .5460216-.4469516.9909647-.9976597.9909647-.5507082 0-.9976598-.4449431-.9976598-.9909647s.4469516-.9909647.9976598-.9909647c.5507081 0 .9976597.4449431.9976597.9909647zm0-3.9638589c0 .5460215-.4469516.9909647-.9976597.9909647-.5507082 0-.9976598-.4449432-.9976598-.9909647 0-.5460216.4469516-.9909648.9976598-.9909648.5507081 0 .9976597.4449432.9976597.9909648zm0-3.963859c0 .5460216-.4469516.9909648-.9976597.9909648-.5507082 0-.9976598-.4449432-.9976598-.9909648 0-.5460215.4469516-.9909647.9976598-.9909647.5507081 0 .9976597.4449432.9976597.9909647zm-9.9765974.9909648h6.9836182v-1.9819295h-6.9836182zm0 7.9277178h6.9836182v-1.9819294h-6.9836182zm0-3.9638589h6.9836182v-1.9819295h-6.9836182zm-8.9061085-2.9728942h2.8712648v1.9819295h-2.9650448c-.0598596 0-.1207168-.0049549-.1795787-.0168464-4.1203347-.7511513-5.5809086-4.0064705-5.7784452-5.6227339-.5796403-4.8041971 2.2267765-7.0566599 4.3487988-7.8008744-.0488854-2.2940834.8889148-4.8299621 2.5091142-6.6771204 1.2540583-1.4299621 3.503781-3.1344214 7.0933608-3.1354124 5.4751566 0 7.8505844 3.4733314 8.7923752 5.5979598 1.4855154-.9374527 3.0997288-.5559312 3.1865252-.53413 3.0867593.5916059 3.9537256 3.7230545 3.9726811 5.2947246l-1.9953195.0237831c-.0009976-.1149519-.0867964-2.9382104-2.4093482-3.3841446-.190553-.0436024-1.5214311-.3022442-2.351484.9453804-.2234758.336928-.624535.5034101-1.0265919.4261148-.3980662-.0792771-.7073408-.3884581-.7841606-.7838531-.0458923-.2259399-1.2061706-5.6039055-7.3846773-5.6039055-2.8393397 0-4.6071927 1.3348295-5.5888899 2.4556106-1.6690847 1.9026523-2.1918584 4.3751093-1.9683827 5.9804721.0738269.5281842-.2863283 1.0197028-.8140903 1.1118625-.4260007.0792772-4.1921662.9295249-3.5985587 5.8466919.0169602.1238706.4728907 3.1909064 4.0704517 3.8944914z" fill="#fff"/></g></svg>