<svg height="80" viewBox="0 0 80 80" width="80" xmlns="http://www.w3.org/2000/svg"><g fill="none" fill-rule="evenodd"><path d="m0 0h80v80h-80z" fill="#7aa116"/><path d="m55.0231729 36.4888612c-3.8211765-2.8226395-9.3752585-4.4970188-14.973262-4.4970188-6.2398574 0-11.4046346 1.5423494-14.9732621 4.4660118v29.5416926h3.9928699v-27.0061182c0-.3550804.1876649-.6831548.4931194-.8631955 2.8159715-1.6533746 5.7367558-3.1377109 10.4872728-3.1377109 4.4161141 0 7.6343672 1.6633769 10.2207486 2.9986794l.2186097.1130256c.3324064.1710387.5410338.5141164.5410338.8892014v27.0061182h3.9928699zm1.6131194-1.2842909c.2415687.190043.3833155.4801087.3833155.7881785v31.0070246c0 .5521251-.4462032 1.0002266-.9982174 1.0002266h-5.9893048c-.5520143 0-.9982175-.4481015-.9982175-1.0002266v-27.3962066c-2.4406417-1.258285-5.2196792-2.6105914-8.9839572-2.6105914-3.9928699 0-6.4874154 1.1412586-8.9839572 2.5765837v27.4302143c0 .5521251-.4462033 1.0002266-.9982175 1.0002266h-5.9893048c-.5520143 0-.9982175-.4481015-.9982175-1.0002266v-31.0070246c0-.2900657.1257754-.5661282.344385-.7551711 3.9449555-3.4327777 9.6946881-5.2461885 16.625312-5.2461885 6.2188948 0 12.4198217 1.9494417 16.5863814 5.2131811zm11.3637077 1.9744473c0 5.681287-3.0705169 9.1660765-8.6475579 9.8102225l-.2285918-1.9884505c4.6297326-.534121 6.8797148-3.0937009 6.8797148-7.821772 0-4.5450297-2.6802139-7.3966757-7.9647772-8.4739198-.4432086-.0910206-.7696257-.4671058-.7975758-.918208-.2575401-4.1649436-2.7201426-6.0293659-5.0449911-6.0293659-1.4723707 0-2.8489126.6941572-3.7762567 1.9054316-.220606.2890655-.5759714.4380993-.9433155.3790859-.3593582-.0550125-.6608199-.3020684-.7865953-.6451462-.8055615-2.2085003-2.0283779-4.1429385-3.5336899-5.5922669-1.8846345-1.8194122-7.0524064-5.7242968-14.3463814-2.7526236-4.1995009 1.7163889-7.4896257 6.638504-7.4896257 11.2055386 0 .512116.0309447 1.006228.0938324 1.5083417.0039929.0360082.0069876.0730166.0079858.110025v.0020004.0020005.0010002.0020004.0010003.0020004.0010003.0020004.0020005.0020004c0 .5041142-.3713369.9252096-.8554724.9952255-2.4985383.6411452-6.5702674 2.5525783-6.5702674 8.2018581 0 .2170492.0109804.4230958.0219608.6301428.2096257 3.7458486 3.1084492 6.6745121 7.211123 7.2856505l-.2914795 1.9784482c-5.0669519-.7541708-8.6495544-4.4330043-8.9130838-9.155074-.013975-.2450556-.0249554-.4861102-.0249554-.7391675 0-6.6114978 4.6307308-9.0630532 7.3528699-9.9322501-.0189662-.2970673-.0289483-.5961351-.0289483-.900204 0-5.4102257 3.7542959-11.0234973 8.7324064-13.0579582 5.8176114-2.3685366 11.9776114-1.1862688 16.483565 3.1627165 1.3835295 1.3313016 2.5534403 3.0086816 3.4318717 4.9081119 1.1928699-.9742207 2.6692335-1.5133428 4.2244563-1.5133428 3.1044564 0 6.3746168 2.2185026 6.9685562 7.1506199 5.705811 1.3943159 8.8352228 5.0201373 8.8352228 10.271327z" fill="#fff"/></g></svg>