<svg height="80" viewBox="0 0 80 80" width="80" xmlns="http://www.w3.org/2000/svg"><g fill="none" fill-rule="evenodd"><path d="m0 0h80v80h-80z" fill="#e7157b"/><path d="m29.657 0-15.694 26.387-1.038-3.872-1.931.518 1.954 7.294 7.294-1.955-.517-1.931-4.125 1.104 15.194-25.544h15.015l7.506 12.999-7.506 13h-7.846v2.001h9l8.661-15.001-8.661-15zm4.884 13.628.518 1.932 4.173-1.119-14.417 25.56h-15l-7.506-13.001 7.506-13h6.149v-1.999h-7.303l-8.661 14.999 8.661 15h17.322l14.854-26.331 1.022 3.816 1.932-.518-1.955-7.293z" fill="#fff" transform="translate(12 19)"/></g></svg>