<svg height="80" viewBox="0 0 80 80" width="80" xmlns="http://www.w3.org/2000/svg"><g fill="none" fill-rule="evenodd"><path d="m0 0h80v80h-80z" fill="#01a88d"/><path d="m51.7313365 50c-3.2867748 0-5.9597005-2.691-5.9597005-6s2.6729257-6 5.9597005-6 5.9597004 2.691 5.9597004 6-2.6729256 6-5.9597004 6zm0-14c-4.3813732 0-7.9462673 3.589-7.9462673 8s3.5648941 8 7.9462673 8c4.3813731 0 7.9462673-3.589 7.9462673-8s-3.5648942-8-7.9462673-8zm.9932834 11c0 .552-.4439977 1-.9932834 1-.5492858 0-.9932834-.448-.9932834-1s.4439976-1 .9932834-1c.5492857 0 .9932834.448.9932834 1zm-1.9865668-2h1.9865668v-5h-1.9865668zm11.1366936-12.656 2.2021093-3.713 1.7054676 1.025-2.2021093 3.713zm-13.9129208-3.072-1.2982214-3.91 1.8842586-.634 1.2982215 3.91zm7.7724427-.515.9932834-4 1.9269698.486-.9932834 4zm9.7828483 30.126c-.4191656.424-1.047914.7-1.4243684.321l-5.3537976-5.518c.6208022-.456 1.1939267-.97 1.7154005-1.536l5.3875692 5.278c.3675149.37.1142276 1.012-.3248037 1.455zm-23.7186146-14.883c0-5.514 4.4558694-10 9.9328342-10 5.4769647 0 9.9328341 4.486 9.9328341 10s-4.4558694 10-9.9328341 10c-5.4769648 0-9.9328342-4.486-9.9328342-10zm-3.9353888 6.077c-.9028946-1.252-2.3590481-2.077-4.0108784-2.077-.1291269 0-.2503075.028-.3764545.038l-4.237347-7.998 3.9850531-8.104c.2075962.027.4132059.064.6287484.064 1.1412826 0 2.1812503-.405 3.0215681-1.06l6.6222205 4.406c-2.2646862 2.185-3.6840882 5.254-3.6840882 8.654 0 1.585.3138776 3.097.8711096 4.483zm-4.0108784 5.923c-1.6428908 0-2.9798503-1.346-2.9798503-3s1.3369595-3 2.9798503-3c1.6428907 0 2.9798502 1.346 2.9798502 3s-1.3369595 3-2.9798502 3zm-13.3149642 3.54c-.1907104-.199-.4012865-.374-.6208021-.539l5.30612-10.792 4.0545829 2.847c-.2513007.597-.3913537 1.255-.3913537 1.944 0 .636.1301201 1.239.3456626 1.798zm-3.5708538 6.46c-1.6428908 0-2.9798503-1.346-2.9798503-3s1.3369595-3 2.9798503-3c1.6428907 0 2.9798502 1.346 2.9798502 3s-1.3369595 3-2.9798502 3zm13.4421044-16.589-4.2949575-3.015 2.0411974-4.15 3.3712039 6.364c-.4072462.22-.7876737.48-1.1174438.801zm-9.3626895-6.572c.557232-.808.8870021-1.784.8870021-2.839 0-.7-.1450194-1.365-.4042663-1.97l3.1069905-2.428 2.3679876 4.473-2.5378391 5.164zm-4.0794149.161c-1.6428908 0-2.9798503-1.346-2.9798503-3s1.3369595-3 2.9798503-3c1.6428907 0 2.9798502 1.346 2.9798502 3s-1.3369595 3-2.9798502 3zm2.3779204-21.638c.5353798-.297 1.0061961-.686 1.3995364-1.154l8.3207351 5.537c-.105288.403-.178791.819-.178791 1.255 0 .831.2224955 1.604.5800775 2.294l-4.1866896 3.272zm-5.3577707-4.362c0-1.654 1.3369595-3 2.9798503-3 1.6428907 0 2.9798502 1.346 2.9798502 3s-1.3369595 3-2.9798502 3c-1.6428908 0-2.9798503-1.346-2.9798503-3zm16.7328524 13.847c.1917037.159.3923469.305.6078894.435l-3.2390972 6.587-1.8604198-3.512zm3.1328159-6.847c1.6428907 0 2.9798502 1.346 2.9798502 3s-1.3369595 3-2.9798502 3c-1.6428908 0-2.9798503-1.346-2.9798503-3s1.3369595-3 2.9798503-3zm33.3842554 32.004-5.544508-5.432c1.2346513-1.89 1.9587549-4.146 1.9587549-6.572 0-6.617-5.3468446-12-11.9194009-12-2.4464571 0-4.7220694.748-6.6152676 2.025l-6.9390779-4.616c.3963201-.718.6416611-1.531.6416611-2.409 0-2.757-2.2279347-5-4.966417-5-1.5882602 0-2.9877965.768-3.8976442 1.939l-8.2581582-5.494c.1390596-.461.2364014-.939.2364014-1.445 0-2.757-2.2279347-5-4.966417-5-2.7384824 0-4.9664171 2.243-4.9664171 5s2.2279347 5 4.9664171 5c.1499858 0 .2920253-.031.4380379-.045l6.2825176 11.856-3.301674 2.58c-.8909753-.857-2.0918549-1.391-3.4188815-1.391-2.7384824 0-4.9664171 2.243-4.9664171 5s2.2279347 5 4.9664171 5c.9565319 0 1.8425407-.287 2.6014092-.76l4.005912 2.812-5.4561058 11.097c-.371488-.089-.7539021-.149-1.1512154-.149-2.7384824 0-4.9664171 2.243-4.9664171 5s2.2279347 5 4.9664171 5c2.7384823 0 4.966417-2.243 4.966417-5 0-.623-.1271403-1.213-.3347365-1.763l8.7071224-4.749c.9019013.93 2.1574116 1.512 3.5470151 1.512 2.7384823 0 4.966417-2.243 4.966417-5 0-.377-.0496642-.742-.1291268-1.096l2.8964144-1.637c2.0998011 3.432 5.856399 5.733 10.1453968 5.733 1.8912116 0 3.673162-.458 5.2634088-1.25l5.6855542 5.86c.5095544.512 1.1631349.764 1.8465139.764.8214454 0 1.6865952-.364 2.3948063-1.077 1.3041811-1.314 1.4452273-3.155.3148708-4.293z" fill="#fff"/></g></svg>