<svg height="80" viewBox="0 0 80 80" width="80" xmlns="http://www.w3.org/2000/svg"><g fill="none" fill-rule="evenodd"><path d="m0 0h80v80h-80z" fill="#01a88d"/><path d="m0 23.174c0-4.534 3.394-8.281 7.742-8.771.484-8.024 7.078-14.403 15.115-14.403 6.121 0 11.524 3.656 13.9 9.247 1.171-.916 2.601-1.421 4.1-1.421 3.628 0 6.601 2.899 6.778 6.529 4.643.186 8.365 4.07 8.365 8.819 0 4.867-3.909 8.826-8.714 8.826h-6.286v-2h6.286c3.702 0 6.714-3.062 6.714-6.826s-3.012-6.826-6.714-6.826h-.708c-.284 0-.555-.121-.744-.332-.189-.212-.28-.493-.25-.776l.027-.219c.014-.107.032-.214.032-.325 0-2.685-2.147-4.87-4.786-4.87-1.439 0-2.794.673-3.718 1.845-.23.292-.606.433-.968.365-.365-.069-.663-.333-.773-.688-1.727-5.591-6.767-9.348-12.541-9.348-7.247 0-13.143 5.988-13.143 13.348 0 .552-.447 1-1 1-3.702 0-6.714 3.062-6.714 6.826s3.012 6.826 6.714 6.826h6.286v2h-6.286c-4.805 0-8.714-3.959-8.714-8.826zm14 25.826h-12v-12h10 2zm7-18v-7.87l2.253 2.535 1.494-1.329-4-4.5c-.379-.427-1.115-.427-1.494 0l-4 4.5 1.494 1.329 2.253-2.535v7.87c0 2.206-1.794 4-4 4h-3-11c-.553 0-1 .448-1 1v14c0 .552.447 1 1 1h14c.553 0 1-.448 1-1v-13.09c2.833-.478 5-2.943 5-5.91zm33 18h-12v-12h2 10zm1-14h-11-3c-2.206 0-4-1.794-4-4v-7.87l2.253 2.535 1.494-1.329-4-4.5c-.379-.427-1.115-.427-1.494 0l-4 4.5 1.494 1.329 2.253-2.535v7.87c0 2.967 2.167 5.432 5 5.91v13.09c0 .552.447 1 1 1h14c.553 0 1-.448 1-1v-14c0-.552-.447-1-1-1zm-34 19h14v-14h-14zm15-16h-7v-22.87l2.253 2.535 1.494-1.329-4-4.5c-.379-.427-1.115-.427-1.494 0l-4 4.5 1.494 1.329 2.253-2.535v22.87h-7c-.553 0-1 .448-1 1v16c0 .552.447 1 1 1h16c.553 0 1-.448 1-1v-16c0-.552-.447-1-1-1z" fill="#fff" transform="translate(12 12)"/></g></svg>