<svg height="80" viewBox="0 0 80 80" width="80" xmlns="http://www.w3.org/2000/svg"><g fill="none" fill-rule="evenodd"><path d="m0 0h80v80h-80z" fill="#c925d1"/><path d="m44 67h2v-7h-2zm-9-.14h2v-6.86h-2zm18-1.86h2v-6h-2zm-27 0h2v-6h-2zm14-30c-7.511 0-12-2.034-12-4v-7.641c2.32 1.663 6.533 2.641 12 2.641 4.983 0 10.225-.894 13-2.8v7.8c0 1.932-5.223 4-13 4zm0 10c-7.511 0-12-2.034-12-4v-6.641c2.32 1.663 6.533 2.641 12 2.641 4.983 0 10.225-.894 13-2.8v6.8c0 1.932-5.223 4-13 4zm0 10c-7.794 0-12-2.061-12-4v-6.641c2.32 1.663 6.533 2.641 12 2.641 4.983 0 10.225-.894 13-2.8v6.8c0 1.932-5.223 4-13 4zm0-39c7.661 0 13 2.108 13 4s-5.339 4-13 4c-7.511 0-12-2.034-12-4s4.489-4 12-4zm0-2c-8.505 0-14 2.355-14 6v31c0 3.645 5.495 6 14 6 7.225 0 15-1.877 15-6v-31c0-4.123-7.775-6-15-6z" fill="#fff"/></g></svg>