<svg height="80" viewBox="0 0 80 80" width="80" xmlns="http://www.w3.org/2000/svg"><g fill="none" fill-rule="evenodd"><path d="m0 0h80v80h-80z" fill="#7aa116"/><path d="m50.406 55.813c-2.981 0-5.406-2.425-5.406-5.407 0-2.981 2.425-5.406 5.406-5.406s5.406 2.425 5.406 5.406c0 2.982-2.425 5.407-5.406 5.407zm0-12.813c-4.084 0-7.406 3.322-7.406 7.406s3.322 7.407 7.406 7.407 7.406-3.323 7.406-7.407-3.322-7.406-7.406-7.406zm15.301 21.114c-.423.468-1.153.506-1.62.085l-5.985-5.399c.563-.516 1.074-1.087 1.524-1.706l5.995 5.4c.469.424.507 1.152.086 1.62zm-24.707-13.708c0-5.186 4.219-9.406 9.406-9.406s9.406 4.22 9.406 9.406c0 5.187-4.219 9.407-9.406 9.407s-9.406-4.22-9.406-9.407zm25.961 10.603-6.289-5.664c.723-1.497 1.14-3.168 1.14-4.939 0-6.289-5.117-11.406-11.406-11.406s-11.406 5.117-11.406 11.406c0 6.29 5.117 11.407 11.406 11.407 2.237 0 4.319-.657 6.082-1.774l6.261 5.647c.6.539 1.352.804 2.102.804.862 0 1.721-.35 2.342-1.038 1.156-1.288 1.053-3.281-.232-4.443zm-47.961-20.121c1.116-.247 2.103-.906 2.826-1.783l5.582 3.987c-.262.595-.408 1.241-.408 1.908 0 2.323 1.778 4.396 4 4.888v14.112h-12zm-4-4.888c0-1.546 1.458-3.009 3-3.009s3 1.463 3 3.009c0 1.542-1.458 3-3 3s-3-1.458-3-3zm17 6c1.542 0 3 1.458 3 3s-1.458 3-3 3-3-1.458-3-3 1.458-3 3-3zm14-19c1.542 0 3 1.458 3 3s-1.458 3-3 3-3-1.458-3-3 1.458-3 3-3zm15-6c1.542 0 3 1.458 3 3s-1.458 3-3 3-3-1.458-3-3 1.458-3 3-3zm-28 32.888c2.221-.492 4-2.565 4-4.888 0-1.001-.33-1.956-.884-2.757l8.519-11.474c.123.038.24.091.365.119v6.112h2v-6.112c2.221-.492 4-2.565 4-4.888 0-.134-.032-.263-.043-.395l5.697-3.256c.71 1.256 1.928 2.225 3.346 2.539v15.112h2v-15.112c2.221-.492 4-2.565 4-4.888s-1.779-4.395-4-4.888v-2.112h-2v2.112c-2.222.493-4 2.565-4 4.888 0 .134.031.263.043.396l-5.698 3.255c-.71-1.256-1.927-2.225-3.345-2.539v-8.112h-2v8.112c-2.222.493-4 2.565-4 4.888 0 1.494.749 2.867 1.864 3.801l-8.193 11.033c-.509-.336-1.072-.589-1.671-.722v-27.112h-2v27.112c-.924.205-1.769.686-2.444 1.343l-5.775-4.126c.128-.429.219-.87.219-1.329 0-2.328-1.779-4.403-4-4.896v-18.104h-2v18.104c-2.222.493-4 2.568-4 4.896 0 2.323 1.778 4.396 4 4.888v25.112h35v-2h-19z" fill="#fff"/></g></svg>