<svg height="80" viewBox="0 0 80 80" width="80" xmlns="http://www.w3.org/2000/svg"><g fill="none" fill-rule="evenodd"><path d="m0 0h80v80h-80z" fill="#e7157b"/><path d="m43.914 50.9456084c-.678-.651-1.552-.976-2.426-.976-.919 0-1.837.359-2.523 1.073-1.337 1.391-1.294 3.611.097 4.949 1.391 1.336 3.61 1.295 4.95-.097 1.337-1.391 1.294-3.611-.098-4.949zm1.387-1.441c2.185 2.102 2.254 5.59.152 7.776-1.078 1.121-2.52 1.686-3.966 1.686-1.372 0-2.746-.509-3.811-1.534-2.186-2.102-2.254-5.591-.153-7.777 2.102-2.184 5.59-2.255 7.778-.151zm9.488 4.229-4.025-1.849c-.256-.117-.451-.337-.537-.605l-.694-2.178c-.084-.264-.055-.552.081-.794l2.167-3.854-5.537-4.029-2.97 3.222c-.188.204-.452.32-.729.322l-2.328.014c-.276-.014-.551-.116-.741-.323l-2.987-3.242-5.544 4.021 2.174 3.869c.137.244.165.534.078.801l-.703 2.153c-.086.266-.279.482-.533.599l-4.038 1.853 2.11 6.515 4.318-.864c.278-.056.566.009.792.177l1.871 1.385c.222.165.366.414.398.688l.508 4.355 6.848.006.514-4.384c.032-.276.178-.526.403-.69l1.848-1.354c.227-.166.514-.23.787-.174l4.349.872zm2.178-.227-2.671 8.204c-.157.482-.656.77-1.148.671l-4.789-.96-1.141.836-.568 4.836c-.058.503-.486.883-.993.883h-.001l-8.628-.008c-.507-.001-.933-.38-.992-.884l-.56-4.808-1.166-.864-4.757.951c-.499.098-.992-.189-1.148-.672l-2.659-8.208c-.156-.483.073-1.006.534-1.217l4.449-2.042.431-1.32-2.394-4.263c-.248-.442-.126-1.001.285-1.299l6.984-5.066c.406-.298.979-.243 1.322.132l3.29 3.571 1.452-.009 3.278-3.556c.345-.374.913-.429 1.323-.131l6.977 5.077c.41.298.532.856.284 1.298l-2.39 4.25.428 1.343 4.434 2.036c.461.212.691.736.534 1.219zm-38.245-38.989c2.221-.899 4.727-.614 6.703.764l1.144-1.64c-2.531-1.766-5.744-2.131-8.597-.979-2.854 1.155-4.911 3.653-5.502 6.683l1.963.383c.46-2.364 2.064-4.312 4.289-5.211zm3.304 9.256c4.113-1.664 8.75-1.136 12.405 1.415l1.144-1.641c-4.212-2.938-9.558-3.546-14.299-1.627-4.745 1.919-8.165 6.074-9.148 11.113l1.963.383c.853-4.373 3.82-7.977 7.935-9.643zm26.849-9.651c7.102.505 13.467 4.195 17.462 10.123l1.658-1.118c-4.341-6.441-11.259-10.451-18.977-11-6.375-.449-12.608 1.522-17.563 5.561l1.264 1.55c4.558-3.716 10.283-5.535 16.156-5.116zm19.103 36.019c0 5.375-3.077 8.332-4.912 9.616-.971.679-2.696 1.211-3.927 1.211h-1.151v-2h1.151c.834 0 2.133-.398 2.781-.85 1.851-1.296 4.058-3.732 4.058-7.977 0-5.985-4.163-7.947-6.645-8.584-.463-.119-.777-.55-.749-1.028l.101-1.704c-.002-4.709-3.287-9.839-7.479-11.619-7.253-3.08-12.392.968-14.265 2.853-1.526 1.535-2.715 3.496-3.537 5.827-.123.349-.429.602-.796.657-.364.053-.733-.098-.952-.396-1.243-1.688-3.383-2.39-5.325-1.753-2.18.716-3.438 2.842-3.458 5.837l.005.033c.082.538-.282 1.043-.818 1.136-1.891.325-8.06 1.924-8.06 8.825 0 8.017 7.318 8.72 7.63 8.746l3.358-.003v2h-3.438c-.172-.01-9.55-.855-9.55-10.743 0-7.617 6.025-9.95 8.893-10.627.207-3.541 1.973-6.171 4.814-7.105 2.228-.731 4.632-.23 6.401 1.238.873-1.972 2.019-3.677 3.415-5.082 4.497-4.525 10.654-5.754 16.464-3.284 4.957 2.105 8.696 7.917 8.696 13.519l-.057.968c2.705.889 7.352 3.418 7.352 10.289z" fill="#fff"/></g></svg>