<svg height="80" viewBox="0 0 80 80" width="80" xmlns="http://www.w3.org/2000/svg"><g fill="none" fill-rule="evenodd"><path d="m0 0h80v80h-80z" fill="#ed7100"/><path d="m37.93 43.9712762h2v-2h-2zm-1 2h4c.553 0 1-.448 1-1v-4c0-.553-.447-1-1-1h-4c-.553 0-1 .447-1 1v4c0 .552.447 1 1 1zm10-2h2v-2h-2zm-1 2h4c.553 0 1-.448 1-1v-4c0-.553-.447-1-1-1h-4c-.553 0-1 .447-1 1v4c0 .552.447 1 1 1zm-8-12h2v-2h-2zm-1 2h4c.553 0 1-.448 1-1v-4c0-.553-.447-1-1-1h-4c-.553 0-1 .447-1 1v4c0 .552.447 1 1 1zm10-2h2v-2h-2zm-1 2h4c.553 0 1-.448 1-1v-4c0-.553-.447-1-1-1h-4c-.553 0-1 .447-1 1v4c0 .552.447 1 1 1zm-13 18h21v-27h-21zm-7.486-.109-23.444-12.464v-26.828l20-11.81900001v9.69900001l-10.538 6.705c-.288.184-.462.502-.462.844v16c0 .373.208.715.538.887l13.453 7c.288.15.633.151.921.002l5.018-2.593v9.537zm15.059-34.727-11.503-6.71v-9.67400001l20 11.81900001v10.401h-8v-4.972c0-.355-.189-.685-.497-.864zm14.427 5.836h-3.93v-10.972c0-.354-.187-.681-.492-.861l-22-13.00000001c-.309-.182-.691-.184-1.005-.008-.311.179-.503.51-.503.869v12.00000001c0 .355.188.685.496.864l11.504 6.71v4.398h-7.07c-.553 0-1 .447-1 1v8.051l-5.918-6.902 6.83-7.922h-2.661l-6.181 6.801v-7h-2v17h2v-8l6.668 7.784h1.262v3.261l-5.475 2.829-12.455-6.481v-14.844l10.537-6.705c.288-.184.463-.502.463-.844v-12.00000001c0-.359-.193-.69-.504-.869-.313-.176-.695-.174-1.005.008l-22 13.00000001c-.305.18-.491.507-.491.861v28c0 .37.204.709.53.883l24.453 13c.147.078.309.117.47.117.167 0 .333-.042.483-.125l4.994-2.757v1.854c0 .552.447 1 1 1h23c.553 0 1-.448 1-1v-29c0-.553-.447-1-1-1z" fill="#fff" transform="translate(12 12)"/></g></svg>