<svg height="80" viewBox="0 0 80 80" width="80" xmlns="http://www.w3.org/2000/svg"><g fill="none" fill-rule="evenodd"><path d="m0 0h80v80h-80z" fill="#ed7100"/><path d="m39.931 44.813026c-2.685 0-4.869-2.185-4.869-4.87s2.184-4.869 4.869-4.869 4.869 2.184 4.869 4.869-2.184 4.87-4.869 4.87zm0-11.739c-3.788 0-6.869 3.081-6.869 6.869s3.081 6.87 6.869 6.87 6.869-3.082 6.869-6.87-3.081-6.869-6.869-6.869zm14 9.13h-2.182c-.454 0-.85.305-.966.744-.251.947-.63 1.86-1.126 2.714-.229.392-.164.888.157 1.209l1.544 1.545-2.954 2.955-1.545-1.545c-.322-.323-.82-.386-1.21-.158-.855.498-1.768.877-2.713 1.127-.439.116-.744.513-.744.967v2.181h-4.522v-2.181c0-.459-.311-.859-.757-.97-1.005-.252-1.975-.634-2.884-1.135-.38-.211-.854-.15-1.17.15l-1.69 1.6-3.158-2.991 1.61-1.526c.344-.325.413-.846.165-1.249-.523-.853-.922-1.764-1.186-2.706-.121-.432-.515-.731-.963-.731h-1.706v-4.259h.018l2.181-.038c.448-.008.837-.314.95-.748.252-.967.632-1.9 1.129-2.772.222-.388.159-.877-.154-1.196l-1.564-1.595 2.972-3.029.015.017 1.516 1.553c.324.331.832.397 1.226.161.854-.506 1.766-.892 2.711-1.147.437-.117.739-.513.739-.965v-2.243h4.522v2.182c0 .454.305.851.744.967.945.25 1.858.629 2.713 1.126.393.229.888.164 1.21-.157l1.545-1.545 2.954 2.955-1.544 1.545c-.321.32-.386.817-.157 1.209.496.854.875 1.767 1.126 2.714.116.438.512.744.966.744h2.182zm-28.486 11.658-23.445-12.464v-26.828l20-11.81799996v9.69899996l-10.537 6.705c-.288.183-.463.502-.463.844v16c0 .373.208.714.538.887l12.662 6.588c.29.438.786.729 1.35.729h1.353c.211.607.469 1.2.773 1.774l-1.332 1.262c-.321.304-.506.733-.506 1.176 0 .442.185.871.506 1.175l2.517 2.385zm15.059-34.726-11.504-6.711v-9.67299996l20 11.81799996v11.913c-.584-.221-1.29-.105-1.741.35l-1.287 1.286c-.575-.291-1.171-.538-1.78-.74v-1.816c0-.893-.727-1.62-1.619-1.62h-1.573v-3.943c0-.356-.188-.685-.496-.864zm13.808 16.547h-1.818c-.201-.61-.448-1.205-.739-1.781l1.285-1.285c.307-.306.476-.713.476-1.146s-.169-.84-.475-1.145l-2.041-2.041v-14.285c0-.354-.186-.682-.491-.861l-22-12.99999996c-.309-.183-.691-.185-1.005-.008-.311.178-.504.51-.504.869v11.99999996c0 .355.189.684.496.863l11.504 6.711v3.369h-1.711c-.892 0-1.619.727-1.619 1.62v1.881c-.608.205-1.202.456-1.776.751l-.9-.922c-.29-.455-.742-.754-1.262-.831-.543-.079-1.072.088-1.424.447l-2.938 2.993-2.357-2.762 6.83-7.921h-2.661l-6.182 6.801v-7h-2v17h2v-8l3.368 3.89c.057.307.2.602.433.84l1.313 1.338c-.298.599-.55 1.218-.755 1.852l-1.431.025c-.222 0-.594 0-.964.133-.646.231-1.033.777-1.033 1.459v3.543l-10.931-5.687v-14.845l10.537-6.705c.289-.183.463-.502.463-.843v-11.99999996c0-.359-.192-.691-.504-.869-.312-.177-.694-.175-1.004.008l-22 12.99999996c-.305.179-.492.507-.492.861v28c0 .369.204.709.531.882l24.453 13c.147.078.308.118.469.118.166 0 .333-.042.484-.125l4.535-2.503c.59.285 1.31.209 1.811-.265l1.435-1.359c.631.305 1.283.563 1.952.771v1.805c0 .893.727 1.619 1.619 1.619h5.284c.892 0 1.619-.726 1.619-1.619v-1.817c.609-.201 1.205-.448 1.78-.739l1.286 1.286c.61.611 1.676.613 2.29 0l3.492-3.492c.307-.307.476-.713.476-1.146s-.169-.84-.475-1.145l-1.286-1.287c.291-.575.538-1.17.739-1.78h1.818c.892 0 1.619-.726 1.619-1.619v-5.284c0-.892-.727-1.618-1.619-1.618z" fill="#fff" transform="translate(12 12)"/></g></svg>