<svg height="80" viewBox="0 0 80 80" width="80" xmlns="http://www.w3.org/2000/svg"><g fill="none" fill-rule="evenodd"><path d="m0 0h80v80h-80z" fill="#7aa116"/><path d="m60 60c-1.654 0-3-1.346-3-3s1.346-3 3-3 3 1.346 3 3-1.346 3-3 3zm-31.088-13c-2.9-.003-5.291-2.109-5.443-4.794-.007-.125-.011-.253-.011-.384 0-3.458 2.486-4.619 4.004-5.005.462-.091.806-.5.806-.983 0-.048-.004-.097-.011-.144-.036-.303-.056-.61-.056-.923 0-2.845 2.037-5.907 4.637-6.971 4.536-1.856 7.744.582 8.914 1.716.951.923 1.695 2.104 2.209 3.51.126.343.428.59.789.645.358.054.724-.091.945-.381.706-.924 1.851-1.312 2.906-.99 1.272.389 2.065 1.661 2.174 3.49.028.453.356.831.801.921 3.239.652 4.882 2.391 4.882 5.168 0 4.625-3.89 5.125-5.562 5.125zm13.088 13c0 1.654-1.346 3-3 3s-3-1.346-3-3 1.346-3 3-3 3 1.346 3 3zm-22-1c-1.654 0-3-1.346-3-3s1.346-3 3-3 3 1.346 3 3-1.346 3-3 3zm-1-39c0-1.654 1.346-3 3-3s3 1.346 3 3-1.346 3-3 3-3-1.346-3-3zm36-3c1.654 0 3 1.346 3 3s-1.346 3-3 3-3-1.346-3-3 1.346-3 3-3zm5 35c-.671 0-1.309.137-1.894.378l-2.975-4.379c1.916-1.043 3.327-2.971 3.327-6.124 0-3.533-2.04-5.983-5.766-6.962-.268-1.77-1.098-3.162-2.331-3.97l3.095-6.212c.489.16 1.002.269 1.544.269 2.757 0 5-2.243 5-5s-2.243-5-5-5-5 2.243-5 5c0 1.494.672 2.822 1.715 3.739l-3.236 6.495c-1.136-.159-2.276.107-3.223.748-.561-1.114-1.268-2.087-2.111-2.906-3.026-2.934-7.162-3.73-11.065-2.131-1.057.433-2.03 1.106-2.869 1.94l-3.547-4.51c.822-.891 1.336-2.07 1.336-3.375 0-2.757-2.243-5-5-5s-5 2.243-5 5 2.243 5 5 5c.73 0 1.419-.166 2.045-.448l3.864 4.912c-1.065 1.584-1.708 3.46-1.708 5.303 0 .112.002.226.006.34-2.991 1.048-4.749 3.505-4.749 6.715 0 .168.006.332.015.495.149 2.647 1.83 4.885 4.201 5.973l-3.336 3.317c-.701-.375-1.489-.607-2.338-.607-2.757 0-5 2.243-5 5s2.243 5 5 5 5-2.243 5-5c0-1.181-.429-2.253-1.116-3.109l3.989-3.968c.34.045.686.077 1.038.077h11.226l-1.461 6.033c-2.604.171-4.676 2.321-4.676 4.967 0 2.757 2.243 5 5 5s5-2.243 5-5c0-2.17-1.397-4.002-3.334-4.693l1.528-6.307h8.702c.773 0 1.556-.09 2.312-.271l3.237 4.762c-.891.904-1.445 2.142-1.445 3.509 0 2.757 2.243 5 5 5s5-2.243 5-5-2.243-5-5-5z" fill="#fff"/></g></svg>