<svg height="80" viewBox="0 0 80 80" width="80" xmlns="http://www.w3.org/2000/svg"><g fill="none" fill-rule="evenodd"><path d="m0 0h80v80h-80z" fill="#01a88d"/><path d="m59.692 34.9896678c-.438-3.781-2.423-6.52-5.391-7.388-2.173-.634-4.453-.102-6.172 1.358-.908-2.053-2.097-3.824-3.551-5.283-4.652-4.666-11.017-5.931-17.024-3.386-5.127 2.171-8.992 8.165-8.992 13.943 0 .345.011.69.033 1.033-2.795.916-7.595 3.523-7.595 10.603 0 .377.014.742.042 1.097.431 5.507 3.064 9.133 7.223 9.948l.385-1.963c-4.397-.861-5.405-5.47-5.614-8.14-.024-.304-.036-.618-.036-.942 0-6.165 4.271-8.216 6.86-8.892.462-.091.807-.499.807-.983 0-.049-.004-.098-.011-.146-.063-.529-.094-1.072-.094-1.615 0-4.94 3.414-10.256 7.772-12.101 7.537-3.193 12.879 1.003 14.828 2.957 1.584 1.589 2.82 3.619 3.675 6.035.123.348.428.601.794.656.361.054.732-.099.953-.395 1.243-1.685 3.269-2.415 5.156-1.864 2.271.664 3.764 2.957 4.009 6.144l-.001.005c-.079.537.285 1.039.82 1.131 2.475.425 8.231 2.168 8.231 9.154 0 8.326-8.055 9.115-8.314 9.14h-13.359l-.002 1.99 13.441.007c.103-.008 10.234-.95 10.234-11.137 0-7.922-6.211-10.293-9.107-10.966zm-24.567 16.106h2v-9h-9v2h5.691l-13.421 14.316 1.459 1.369 13.271-14.156zm17-9.579-18.275 19.267-1.451-1.376 18.317-19.312h-9.591v-2h13v13h-2z" fill="#fff"/></g></svg>