<svg height="80" viewBox="0 0 80 80" width="80" xmlns="http://www.w3.org/2000/svg"><g fill="none" fill-rule="evenodd"><path d="m0 0h80v80h-80z" fill="#dd344c"/><path d="m21 29h3v-2h-3zm6 20h2v-3h-2zm0-5h2v-3h-2zm0-10h2v-3h-2zm0 5h2v-3h-2zm-11-10h3v-2h-3zm-5 0h3v-2h-3zm-5 0h3v-2h-3zm23 25v-3h-2v3h-25v-25h2v-2h-2v-25h25v25h-1v2h2 1 25v25zm0-50.586 23.586 23.586h-23.586zm27 24.586c0-.26-.102-.516-.293-.707l-27-27c-.192-.191-.447-.293-.707-.293h-27c-.553 0-1 .448-1 1v54c0 .552.447 1 1 1h54c.552 0 1-.448 1-1z" fill="#fff" transform="translate(12 12)"/></g></svg>