<svg height="80" viewBox="0 0 80 80" width="80" xmlns="http://www.w3.org/2000/svg"><g fill="none" fill-rule="evenodd"><path d="m0 0h80v80h-80z" fill="#c925d1"/><path d="m52.0859525 54.8502506c-3.3379956 2.6987832-10.3409864 4.1250421-17.0419776 4.1250421-6.7019911 0-13.7069819-1.4272507-17.0439775-4.1260339v5.4352562h.001c0 2.7106852 6.999 5.7318149 17.0429775 5.7318149 10.0359868 0 17.0309776-3.0171623 17.0419776-5.7258639zm.001-10.3279786 1.9999974-.0109102v.0109102c0 1.2080551-.6049992 2.3357716-1.7829977 3.3682719 1.4279981 1.2566551 1.7829977 2.489506 1.7829977 3.3672801 0 .005951-.001.0109102-.001.0168612v9.0098298h.001c0 5.0107508-9.8119871 7.715485-19.042975 7.715485-9.2089878 0-18.993975-2.6928322-19.0409749-7.6807708 0-.0049592-.003-.0099183-.003-.0148775v-9.0495032c0-.0019837.002-.0049592.002-.0079347.003-.877774.3589995-2.1056659 1.7849976-3.3593454-1.4169981-1.2516959-1.7769976-2.4726448-1.7859976-3.343476h.001c0-.0039674-.002-.0069429-.002-.0109102v-9.0495032c0-.0029755.002-.005951.002-.0089265.003-.8777741.3599995-2.1056659 1.7859976-3.3573617-1.4179981-1.2526877-1.7779976-2.4746285-1.7869976-3.3444679h.001c0-.0039673-.002-.0079347-.002-.011902v-9.0485114c0-.0029755.002-.005951.002-.0089265.017-5.0038079 9.8179871-7.703583 19.0419749-7.703583 5.2109932 0 10.2169866.8281823 13.733982 2.2722941l-.764999 1.8329113c-3.2829957-1.3479039-8.0099895-2.1215353-12.968983-2.1215353-10.0439867 0-17.0429775 3.0211297-17.0429775 5.7337986 0 2.7116771 6.9989908 5.7328067 17.0429775 5.7328067.2709997.0029755.5359993 0 .803999-.0099183l.0839999 1.9816864c-.2959996.0119021-.5919993.0119021-.8879989.0119021-6.7019911 0-13.7069819-1.4272507-17.0439749-4.1260339v5.4322806h.0009974v.0228123c.01 1.0404349 1.0769985 1.9489559 1.9709974 2.5262039 2.6899964 1.7148828 7.5099901 2.88624 12.884983 3.1292396l-.0909999 1.9816865c-5.4449928-.2469669-10.2129865-1.3766671-13.2819825-3.1084111-.755999.565346-1.482998 1.3300508-1.482998 2.1969147 0 2.7116771 6.9989908 5.7328067 17.0429775 5.7328067.9849987 0 1.9629974-.0327306 2.9079962-.0981917l.1389998 1.978711c-.9899987.0684366-2.0159973.1031508-3.046996.1031508-6.7019911 0-13.7069819-1.4272506-17.0439749-4.1260339v5.4322807h.0009974c.01 1.0632472 1.0769985 1.9707763 1.9709974 2.5490162 3.0759959 1.9628416 8.8519883 3.1847824 15.0719801 3.1847824h.4399995v1.9836701h-.4399995c-6.3189917 0-12.0619841-1.1733409-15.5739795-3.1560192-.751999.5643542-1.468998 1.3250917-1.468998 2.1850127 0 2.7116771 6.9989908 5.7337985 17.0429775 5.7337985 10.0359868 0 17.0309776-3.0171623 17.0419776-5.7268557v-.0099183-.0009919c-.002-.8619046-.7219991-1.6226421-1.4759981-2.1869963-.4879993.276722-1.0109986.5435256-1.6059978.7885089l-.765999-1.8329112c.725999-.2985424 1.3559982-.6208888 1.8729975-.9600964.9019988-.5881582 1.9759974-1.5075893 1.9759974-2.5400896zm8.5659887-14.5055879h-5.6039926c-.3309996 0-.6419992-.162661-.8269989-.4344238-.1869998-.2717628-.2249997-.6179132-.1029999-.9224066l3.4089955-8.5218469h-12.9089751l-6 11.9020208h6.3819916c.3189996 0 .6189992.1517508.807999.4066524.1869997.2558935.2419996.5841909.1449998.8867006l-5.6959925 17.7558314zm3.068996-.3044934-24.9989671 25.8273853c-.1949998.2003507-.4569994.3044934-.7219991.3044934-.1759997 0-.3529995-.0446326-.5109993-.138857-.3999995-.2360567-.5829992-.7131294-.4419994-1.1535041l6.5859913-20.5280105h-6.6329912c-.3469996 0-.6679992-.1775385-.8509989-.4701299-.1819998-.2925913-.1989998-.6575866-.043-.9650555l6.9999908-13.885691c.1689998-.3362321.5149993-.5484848.8939988-.5484848h14.9999803c.3309996 0 .6419991.1636528.8269989.4344238.1869998.2727546.2249997.6179132.1029999.9233984l-3.4089955 8.5208551h6.4779914c.3999995 0 .762999.2380405.9199988.6030358.1569998.3659871.0789999.7895007-.1979997 1.076141zm-44.2669417 30.9621155c1.4169981.7984272 3.2009957 1.4698995 5.301993 1.9935885l.4879993-1.9241601c-1.8989975-.4731053-3.5589953-1.0939941-4.8019936-1.7942296zm5.301993-13.8757727.4879993-1.9231682c-1.8989975-.4740972-3.5589953-1.0949859-4.8019936-1.7952215l-.9879987 1.7248012c1.4169981.7984272 3.1999957 1.4698996 5.301993 1.9935885zm-5.301993-17.8629496.9879987-1.7248012c1.2409983.7002355 2.9019961 1.3201324 4.8019936 1.7952214l-.4879993 1.9231682c-2.1039973-.5246807-3.8869949-1.196153-5.301993-1.9935884z" fill="#fff"/></g></svg>