<svg height="80" viewBox="0 0 80 80" width="80" xmlns="http://www.w3.org/2000/svg"><g fill="none" fill-rule="evenodd"><path d="m.504212 0h80v80h-80z" fill="#8c4fff"/><path d="m64.815421 47.6882476c-.7911439-.7920041-1.8293326-1.1875056-2.8685216-1.1875056-1.0391889 0-2.0773777.3955015-2.8685215 1.1875056-.7661393.7669724-1.1892162 1.787266-1.1892162 2.8716408 0 1.0843749.4230769 2.1046684 1.1892162 2.8716409 1.5822877 1.583007 4.1547554 1.583007 5.7370431 0 1.5812875-1.5840083 1.5812875-4.1602747 0-5.7432817zm-8.5285507.7219153c.2900528-.7679737.7351337-1.4738687 1.3232406-2.0786354l-2.1533915-4.1032023-2.6814875 5.0714298zm-6.402164.0750952-11.7981451-3.73073c-.6321149 1.6160489-1.5942899 3.1309696-2.8965266 4.4346224-.1640299.163207-.3400619.3073898-.5100928.460584l5.202946 7.227163c.9831788-.6528277 2.1333879-1.003272 3.338607-1.003272.8681579 0 1.7053101.1872374 2.4754501.5326753zm-2.6064739 13.451054c0-1.0843748-.4220767-2.1046684-1.188216-2.8716408-.7661393-.7659712-1.7853246-1.1885069-2.8685216-1.1885069-1.0831969 0-2.1013821.4225357-2.8675214 1.1885069-.7661392.7669724-1.1892162 1.787266-1.1892162 2.8716408s.423077 2.1046684 1.1892162 2.8716408c.7661393.7669725 1.7843245 1.1895082 2.8675214 1.1895082 1.083197 0 2.1023823-.4225357 2.8685216-1.1895082.7661393-.7669724 1.188216-1.787266 1.188216-2.8716408zm-13.502455-14.1639579c4.28978-4.2944447 4.28978-11.281303 0-15.5757478-2.1453901-2.1467217-4.9629023-3.2200826-7.7804146-3.2200826s-5.6340244 1.0723596-7.7794144 3.2200826c-4.28978 4.2944448-4.28978 11.2813031 0 15.5757478 4.2897799 4.2944448 11.2700491 4.2944448 15.559829 0zm.8881615-17.4671458c.1750318.1571993.3570649.3063884.5260957.475603 1.2492271 1.2505855 2.1863975 2.6954174 2.8205128 4.2373724l11.7531369-3.6336069-4.0837425-7.7818663c-.7641389.3414329-1.5972904.5246652-2.458447.5246652-1.2122204 0-2.3694308-.3534481-3.3536097-1.0132847zm4.5008183-12.2405192c0 1.0843748.423077 2.1036671 1.1892162 2.8706395.7661393.7669724 1.7843245 1.1895081 2.8675214 1.1895081 1.083197 0 2.1023823-.4225357 2.8685216-1.1895081s1.188216-1.7862647 1.188216-2.8706395c0-1.0853761-.4220767-2.1046685-1.188216-2.8726421-.7661393-.7669725-1.7853246-1.1895082-2.8685216-1.1895082-1.0831969 0-2.1013821.4225357-2.8675214 1.1895082-.7661392.7679736-1.1892162 1.787266-1.1892162 2.8726421zm-.5000909 24.7724078 12.171213 3.8488799 3.4936352-6.6053747-3.618658-6.892739-12.0951991 3.7387402c.4660847 1.9414615.484088 3.9630245.0490089 5.9104936zm13.9915439-10.2509968 2.8065103 5.3487815 2.6324786-4.979313c-.1420258-.1191511-.297054-.2182768-.4310784-.3524469-.3820694-.3824849-.7021276-.810027-.9641753-1.2666059zm5.2329515-4.2714155c0 1.0853761.4230769 2.1046684 1.1892162 2.8726421 1.5822877 1.583007 4.1547554 1.583007 5.7370431 0 1.5812875-1.5840083 1.5812875-4.1602746 0-5.7432817-.7911439-.7920041-1.8293326-1.1875056-2.8685216-1.1875056-1.0391889 0-2.0773777.3955015-2.8685215 1.1875056-.7661393.7669724-1.1892162 1.7862648-1.1892162 2.8706396zm8.3405164 17.9577679c2.3604292 2.3639972 2.3604292 6.2108745 0 8.5748717-1.1812147 1.1824992-2.7314966 1.7732482-4.2827787 1.7732482-1.551282 0-3.1025641-.590749-4.2827787-1.7732482-1.144208-1.1454523-1.7753227-2.6683831-1.7753227-4.2874359 0-.0580736.0070012-.115146.0090016-.1732196l-4.0737407-1.2876325-4.4548099 8.4266838c.044008.0420533.0910165.0801016.1350245.1231562 1.144208 1.1454522 1.7743226 2.6683831 1.7743226 4.2874358 0 1.620054-.6301146 3.1429849-1.7743226 4.2874359-1.1432079 1.1454522-2.6654846 1.776252-4.2827787 1.776252-1.617294 0-3.1385706-.6307998-4.2817785-1.776252-1.1452082-1.144451-1.7753228-2.6673819-1.7753228-4.2874359 0-1.3477087.4430806-2.6243273 1.2492272-3.6766615l-5.3109657-7.3763521c-2.150391 1.4057823-4.6278414 2.1116773-7.1072922 2.1116773-3.3296054 0-6.6592108-1.2686084-9.1936716-3.8058253-5.0689216-5.0754349-5.0689216-13.3329042 0-18.4083391 4.4158029-4.421606 11.2450446-4.9873232 16.2829606-1.7051619l5.3179669-7.3493179c-.7991453-1.0493304-1.2382252-2.3209426-1.2382252-3.6616424 0-1.620054.6311148-3.1429849 1.7753228-4.2884372 1.1432079-1.1454522 2.6644845-1.776252 4.2817785-1.776252 1.6172941 0 3.1395708.6307998 4.2827787 1.776252 1.144208 1.1454523 1.7743226 2.6683832 1.7743226 4.2884372 0 1.6190527-.6301146 3.1419835-1.7743226 4.2864345-.0470085.048061-.1000182.0901143-.1490271.137174l4.3537916 8.2945162 4.28978-1.3256807c-.0720131-.3724723-.11002-.753956-.11002-1.1424485 0-1.6190527.6311147-3.1419836 1.7753227-4.2864346 2.3614294-2.3649985 6.2041281-2.3649985 8.5655574 0 2.3604292 2.3629959 2.3604292 6.2098732 0 8.5748717-1.1812147 1.181498-2.7314966 1.7732482-4.2827787 1.7732482-.7231314 0-1.4432624-.1421802-2.1283869-.3985052l-3.2285871 6.1057412 2.6644845 5.0754349c2.2674122-1.1294319 5.0879251-.7749825 6.9752682 1.1134117zm-39.2341335-7.2892417h5.0009093v2.0025389h-5.0009093v5.0063473h-2.0003637v-5.0063473h-5.0009092v-2.0025389h5.0009092v-5.0063474h2.0003637z" fill="#fff"/></g></svg>