<svg height="80" viewBox="0 0 80 80" width="80" xmlns="http://www.w3.org/2000/svg"><g fill="none" fill-rule="evenodd"><path d="m0 0h80v80h-80z" fill="#ed7100"/><path d="m37.053 33.812-4.053-2.384v-6.856l4.053-2.384 9.963 5.812zm-1.053 13.447-10-5.833v-4.846l5.993-3.424 4.007 2.357zm-11-12.411-6-3.428v-6.84l6-3.428 6 3.428v6.84zm-1 6.578-10 5.833v-11.746l4.007-2.357 5.993 3.424zm-11.052-7.614-9.963-5.812 9.963-5.812 4.052 2.384v6.856zm1.052-25.071 10 5.833v4.846l-5.993 3.424-4.007-2.357zm12 5.833 10-5.833v11.746l-4.007 2.357-5.993-3.424zm24 13.426c0-.355-.188-.685-.496-.864l-10.475-6.11 4.917-2.893 4.54 2.724 1.029-1.714-3.607-2.164 3.599-2.117-1.014-1.724-3.493 2.055v-4.193h-2v5.369l-5 2.942v-12.311c0-.358-.191-.689-.502-.867-.309-.178-.692-.177-1.002.003l-10.496 6.123v-5.693l4.515-2.709-1.029-1.714-3.486 2.091v-4.234h-2v4.234l-3.485-2.091-1.029 1.714 4.514 2.709v5.693l-10.496-6.123c-.308-.179-.691-.181-1.002-.003-.31.178-.502.509-.502.867v12.311l-5-2.942v-5.369h-2v4.193l-3.493-2.055-1.014 1.724 3.599 2.117-3.606 2.164 1.029 1.714 4.54-2.724 4.917 2.893-10.476 6.11c-.307.179-.496.509-.496.864s.189.685.496.864l10.476 6.11-4.917 2.893-4.54-2.724-1.029 1.714 3.606 2.164-3.599 2.117 1.014 1.724 3.493-2.055v4.193h2v-5.369l5-2.942v12.311c0 .358.192.689.502.867.311.178.694.177 1.002-.003l10.496-6.123v5.693l-4.514 2.709 1.029 1.714 3.485-2.091v4.234h2v-4.234l3.486 2.091 1.029-1.714-4.515-2.709v-5.693l10.496 6.123c.31.18.693.181 1.002.003.311-.178.502-.509.502-.867v-12.311l5 2.942v5.369h2v-4.193l3.493 2.055 1.014-1.724-3.599-2.117 3.607-2.164-1.029-1.714-4.54 2.724-4.917-2.893 10.475-6.11c.308-.179.496-.509.496-.864z" fill="#fff" transform="translate(15 12)"/></g></svg>