<svg height="80" viewBox="0 0 80 80" width="80" xmlns="http://www.w3.org/2000/svg"><g fill="none" fill-rule="evenodd"><path d="m0 0h80v80h-80z" fill="#e7157b"/><path d="m0 33.823h24.442v-2h-24.442zm8.452-5.903h17.791v-2h-17.791zm22.73.986c.486-.124.805-.589.746-1.088-.02-.156-.03-.316-.03-.478 0-1.401.998-2.964 2.225-3.483.566-.24 1.09-.336 1.565-.336 1.352 0 2.307.775 2.724 1.194.466.466.832 1.07 1.088 1.794.123.349.429.601.795.656.364.052.732-.098.952-.395.257-.349.65-.501 1.025-.388.482.14.807.675.877 1.439-.027.501.325.953.83 1.04.834.143 2.235.652 2.235 2.444 0 2.111-1.864 2.397-2.15 2.43l-12.248-.013c-1.324-.001-2.409-1.001-2.471-2.283l-.004-.163c0-1.571 1.001-2.156 1.841-2.37zm.632 6.816 12.331.009c1.407-.114 4.069-1.186 4.069-4.426 0-2.402-1.523-3.721-3.158-4.236-.326-1.525-1.319-2.343-2.222-2.607-.685-.2-1.39-.137-2.012.148-.281-.489-.613-.926-.994-1.307-1.768-1.776-4.193-2.258-6.484-1.288-1.934.819-3.399 3.049-3.445 5.221-1.617.704-2.558 2.165-2.558 4.04 0 .092.003.183.007.266.113 2.342 2.075 4.178 4.466 4.18zm.695-30.257h2.079v-2h-2.079zm3.466 0h6.93v-2h-6.93zm12.304 48.59h-21.145c-1.452 0-2.634-1.161-2.634-2.588v-1.649h26.413v1.649c0 1.427-1.182 2.588-2.634 2.588zm-23.779-47.125v-1.277c0-2.014 1.665-3.653 3.712-3.653h18.989c2.047 0 3.712 1.639 3.712 3.653v1.277zm28.413-1.281c0-2.92-2.252-5.33-5.129-5.619-.191-.02-.386-.03-.583-.03h-18.989c-3.15 0-5.712 2.536-5.712 5.653v3.482 13.628h2v-13.628-.205h26.413v38.888h-26.413v-10.091h-2v13.74c0 2.53 2.079 4.588 4.634 4.588h21.145c2.555 0 4.634-2.058 4.634-4.588v-45.814z" fill="#fff" transform="translate(14 12)"/></g></svg>