<svg height="80" viewBox="0 0 80 80" width="80" xmlns="http://www.w3.org/2000/svg"><g fill="none" fill-rule="evenodd"><path d="m0 0h80v80h-80z" fill="#e7157b"/><path d="m25 52.996052h4v-2.001974h-4zm34.971-14.8326252c-.225-3.0369946-1.71-5.2731995-4.069-6.0629783-1.899-.6336247-3.991-.1861835-5.584 1.1120966-.966-1.9048783-2.418-3.770718-3.616-4.9528836-4.296-4.240181-9.034-5.3212469-14.086-3.2141693-4.51 1.8768506-8.616 8.0419295-8.616 12.9357549v.1901876c-2.707.9149021-4.891 2.9028622-5.926 5.4373613l1.852.7567462c1.319-3.2301851 4.406-4.2431839 5.321-4.4764139.443-.1131115.753-.5125053.753-.9699564v-.9379248c0-4.0449884 3.657-9.5364031 7.385-11.0879329 4.295-1.7907657 8.193-.8818695 11.913 2.7917527 1.582 1.5605388 3.129 3.8758217 3.762 5.6325538.124.3463415.428.5955873.792.6506416.36.0550543.725-.0940928.947-.388383 1.105-1.4694489 2.897-2.1060766 4.47-1.5805584 1.735.5815734 2.731 2.3973638 2.731 4.9829132 0 .4894827.354.9068942.836.9869732.733.1221204 7.164 1.382363 7.164 8.0219098 0 6.8767806-6.719 7.0049069-7 7.0069089h-23v2.001974h23.002c3.112-.0060059 8.998-1.8958694 8.998-9.0088829 0-6.2071204-4.721-9.0018761-8.029-9.8276903zm-28.971 14.8326252h14v-2.001974h-14zm-4 4.003948h6v-2.001974h-6zm-15 0h3v-2.001974h-3zm3-8.0078959h9v-2.001974h-9zm-2 4.0039479h10v-2.001974h-10zm14-4.0039479h7v-2.001974h-7zm-10 8.0078959h8v-2.001974h-8z" fill="#fff"/></g></svg>