<svg height="80" viewBox="0 0 80 80" width="80" xmlns="http://www.w3.org/2000/svg"><g fill="none" fill-rule="evenodd"><path d="m0 0h80v80h-80z" fill="#e7157b"/><path d="m47 40.333v3.667h-14v-3.667c0-4.029 1.839-8.333 7-8.333s7 4.304 7 8.333m3.667-26.229-.762 1.848c10.327 4.259 16.772 14.63 16.036 25.807-.852 12.98-11.288 23.379-24.273 24.188-7.258.447-14.183-2.031-19.468-6.995-5.288-4.969-8.2-11.7-8.2-18.952 0-14.002 11.126-25.454 25-25.981v16.034c-5.876.535-8 5.762-8 10.28v4.667c0 .552.447 1 1 1h3v6h2v-6h6v6h2v-6h3c.553 0 1-.448 1-1v-4.667c0-4.518-2.124-9.745-8-10.28v-17.053c0-.553-.447-1-1-1-15.439 0-28 12.56-28 28 0 7.697 3.219 15.136 8.831 20.409 5.249 4.932 11.989 7.591 19.147 7.591.602 0 1.208-.019 1.815-.057 13.985-.872 25.226-12.072 26.144-26.053.792-12.034-6.149-23.201-17.27-27.786" fill="#fff"/></g></svg>