<svg height="80" viewBox="0 0 80 80" width="80" xmlns="http://www.w3.org/2000/svg"><g fill="none" fill-rule="evenodd"><path d="m0 0h80v80h-80z" fill="#8c4fff"/><path d="m36.0081373 36.9770888v-8.9906272h1.9959313v3.9958343l2.6935094-3.9958343h2.209496l-3.1216366 4.2036177 3.3791118 4.7870095h-2.3671746l-2.793306-4.3454698v4.3454698zm29.9918627 12.1403437-.668637.578397c-1.3472537 1.1797701-3.1595594 1.7701546-4.973861 1.7701546s-3.6296012-.5903845-4.9788508-1.7731515l-1.3332821-1.1547961c-1.9560128-1.7142129-5.3800331-1.7142129-7.3320539-.0039959l-1.3412659 1.1617889c-2.6935094 2.3605391-7.2552105 2.362537-9.9527118-.0029969l-1.3332822-1.1547961c-1.9560127-1.7142129-5.380033-1.7142129-7.3320538-.0039959l-1.3412659 1.1617889c-2.6935094 2.3605391-7.2552106 2.362537-9.9527118-.0029969l-.6646451-.5754001 1.306337-1.5114244.668637.579396c1.9570108 1.7142129 5.381031 1.7142129 7.3320539.0039958l1.3412659-1.1627878c2.6935094-2.3595401 7.2552105-2.3595401 9.9527118.0039959l1.3332821 1.1547961c1.9570108 1.7142129 5.381031 1.7142129 7.3320539.0039958l1.3412659-1.1627878c2.6935094-2.3595401 7.2552106-2.3595401 9.9527118.0039959l1.3332822 1.1547961c1.9560127 1.7142129 5.380033 1.7142129 7.3320538.0039958l.6726289-.5833918zm-2.1017157 12.0224665 1.306337 1.5104254-.668637.5793959c-1.3462557 1.1797701-3.1585614 1.7691557-4.971865 1.7691557-1.8152996 0-3.6305992-.5903845-4.9808467-1.7731515l-1.3332822-1.1547961c-1.9560127-1.712215-5.380033-1.712215-7.3320539-.0039958l-1.3412659 1.1627877c-2.6915134 2.3605392-7.2532146 2.3615381-9.9527117-.0039958l-1.3332822-1.1547961c-1.9550148-1.712215-5.379035-1.712215-7.3320539-.0039958l-1.3412659 1.1627877c-2.6925114 2.3605392-7.2542125 2.3615381-9.9527118-.0039958l-.6646451-.5754001 1.3063371-1.5104254.668637.579396c1.9570107 1.712215 5.381031 1.7132139 7.3320539.0029968l1.3412659-1.1617888c2.6945073-2.3595402 7.2542125-2.3605391 9.9527117.0029969l1.3332822 1.1557951c1.9570107 1.712215 5.381031 1.7132139 7.3320539.0029968l1.3412659-1.1617888c2.6945073-2.3595402 7.2542125-2.3605391 9.9527117.0029969l1.3332822 1.1557951c1.9570107 1.712215 5.381031 1.7132139 7.3320539.0029968zm0-6.3333974 1.306337 1.5094264-.668637.579396c-2.6925114 2.3615381-7.2542125 2.362537-9.9527117-.0029969l-1.3332822-1.1547961c-1.9560127-1.7142129-5.380033-1.713214-7.3320539-.0039959l-1.3412659 1.1627878c-1.3462557 1.1797701-3.1595593 1.7691557-4.971865 1.7691557-1.8152996 0-3.6305992-.5903845-4.9808467-1.7731515l-1.3332822-1.1547961c-1.9550148-1.7142129-5.379035-1.713214-7.3320539-.0039959l-1.3412659 1.1627878c-2.6915134 2.3605392-7.2532146 2.3605392-9.9527118-.0039958l-.6646451-.5763991 1.3063371-1.5094264.668637.579396c1.9570107 1.7142129 5.381031 1.7132139 7.3320539.0029968l1.3412659-1.1617888c2.6945073-2.3595402 7.2562085-2.3615381 9.9527117.0029969l1.3332822 1.1547961c1.9570107 1.7152119 5.381031 1.7142129 7.3320539.0039958l1.3412659-1.1617888c2.6945073-2.3595402 7.2562085-2.3615381 9.9527117.0029969l1.3332822 1.1547961c1.9570107 1.7152119 5.381031 1.7142129 7.3320539.0039958zm-39.8657353-16.8304542c1.1007562 0 1.9959314.8960658 1.9959314 1.9979172 0 1.1018513-.8951752 1.9979171-1.9959314 1.9979171-1.1007561 0-1.9959313-.8960658-1.9959313-1.9979171 0-1.1018514.8951752-1.9979172 1.9959313-1.9979172zm14.9694853-20.9781302c1.1007562 0 1.9959314.8960658 1.9959314 1.9979171s-.8951752 1.9979172-1.9959314 1.9979172c-1.1007561 0-1.9959314-.8960659-1.9959314-1.9979172s.8951753-1.9979171 1.9959314-1.9979171zm16.9654167 22.9760474c0 1.1018513-.8951753 1.9979171-1.9959314 1.9979171-1.1007562 0-1.9959314-.8960658-1.9959314-1.9979171 0-1.1018514.8951752-1.9979172 1.9959314-1.9979172 1.1007561 0 1.9959314.8960658 1.9959314 1.9979172zm-16.9654167-16.9822959c.6646452 0 1.2833839-.1788136 1.8352589-.4685116l10.1672744 14.8035672c-.4161517.4655147-.7215292 1.0259305-.8822017 1.6482817h-22.2406632c-.1606725-.6223512-.46605-1.182767-.8822017-1.6482817l10.1672744-14.8035672c.551875.289698 1.1706138.4685116 1.8352589.4685116zm-14.9694853 20.9781302c1.8542203 0 3.404061-1.278667 3.8491537-2.9968758h22.2406632c.4450927 1.7182088 1.9949335 2.9968758 3.8491537 2.9968758 2.2015123 0 3.9918627-1.7921317 3.9918627-3.9958343 0-2.2037027-1.7903504-3.9958344-3.9918627-3.9958344-.4600622 0-.8951752.0939021-1.308333.2377522l-10.325951-15.0353257c.4131578-.6283449.6566615-1.3775638.6566615-2.1847224 0-2.2037026-1.7903505-3.9958343-3.9918628-3.9958343s-3.9918627 1.7921317-3.9918627 3.9958343c0 .8071586.2435036 1.5563775.6566614 2.1847224l-10.325951 15.0353257c-.4131577-.1438501-.8482708-.2377522-1.308333-.2377522-2.2015123 0-3.9918627 1.7921317-3.9918627 3.9958344 0 2.2037026 1.7903504 3.9958343 3.9918627 3.9958343z" fill="#fff"/></g></svg>