<svg height="80" viewBox="0 0 80 80" width="80" xmlns="http://www.w3.org/2000/svg"><g fill="none" fill-rule="evenodd"><path d="m0 0h80v80h-80z" fill="#8c4fff"/><path d="m41.745 41.1552326c.968 1.0935404 2.255 2.7722563 2.255 4.7167774 0 3.9011701-3.141 7.0746608-7 7.0746608h-8c-3.859 0-7-3.1734907-7-7.0746608 0-3.9001594 3.141-7.0746608 7-7.0746608h4v2.0213316h-4c-2.757 0-5 2.2679342-5 5.0533292 0 2.7864057 2.243 5.0533292 5 5.0533292h8c2.757 0 5-2.2669235 5-5.0533292 0-1.252215-.996-2.5226219-1.745-3.3685492zm14.255 2.6954457c0 3.9011702-3.141 7.0746609-7 7.0746609h-4v-2.0213317h4c2.757 0 5-2.2669235 5-5.0533292 0-2.785395-2.243-5.0533291-5-5.0533291h-8c-2.757 0-5 2.2679341-5 5.0533291 0 .8994926.463 1.8222305.865 2.5266646l-1.73 1.0116765c-.529-.9217272-1.135-2.1577715-1.135-3.5383411 0-3.9001594 3.141-7.0746608 7-7.0746608h8c3.859 0 7 3.1745014 7 7.0746608zm1.28 12.12799h-34.559c-4.71-.0040426-8.453-3.3928052-8.704-7.8791508-.01-.2051652-.017-.4153837-.017-.6296448 0-5.7779766 4.112-7.7053163 6.605-8.3420358.467-.0889386.815-.5033116.815-.9944952 0-.0515439-.004-.1010666-.011-.1515998-.06-.5033116-.091-1.0126872-.091-1.5139775 0-4.6419881 3.29-9.6397307 7.49-11.3780759 5.061-2.0910676 10.419-1.0500818 14.337 2.7904484 1.527 1.4957854 2.718 3.4059438 3.54 5.6789313.126.347669.428.5973035.789.6528901s.723-.0929813.946-.3850637c1.228-1.6261613 3.216-2.3093714 5.073-1.7353132 2.159.6660288 3.558 2.8844403 3.738 5.9326084.028.4578316.356.8398633.801.9308232 3.635.7398074 7.968 2.8318857 7.968 8.595713 0 7.3333912-5.463 8.4279423-8.72 8.4279423zm1.879-18.8418431c-.424-3.5353091-2.288-6.1165496-5.082-6.9786476-2.142-.6599647-4.398-.1687812-6.107 1.246151-.879-1.9323931-2.03-3.6010023-3.432-4.9755079-4.506-4.4166097-10.669-5.61627-16.487-3.208864-4.979 2.059737-8.733 7.7548389-8.733 13.2478077 0 .3062318.01.6144849.03.9227379-2.721.88029-7.348 3.3645066-7.348 10.0793704 0 .2506451.007.4962369.02.740818.313 5.5748328 4.913 9.784256 10.7 9.7893093h34.56c2.515 0 10.72-.752946 10.72-10.449274 0-5.3403583-3.132-9.0151393-8.841-10.4139008z" fill="#fff"/></g></svg>