<svg height="80" viewBox="0 0 80 80" width="80" xmlns="http://www.w3.org/2000/svg"><g fill="none" fill-rule="evenodd"><path d="m0 0h80v80h-80z" fill="#8c4fff"/><path d="m32.0660937 61.16-.682 1.881c-6.438-2.332-11.604-7.314-14.171-13.667l1.854-.749c2.355 5.827 7.093 10.396 12.999 12.535zm29.193-12.535 1.854.749c-2.593 6.417-7.819 11.421-14.341 13.727l-.666-1.885c5.981-2.116 10.774-6.705 13.153-12.591zm-42.192-16.262-1.854-.749c2.522-6.239 7.577-11.179 13.868-13.554l.707 1.871c-5.772 2.178-10.408 6.709-12.721 12.432zm29.039-12.591.666-1.885c6.522 2.306 11.748 7.31 14.341 13.727l-1.854.749c-2.379-5.886-7.172-10.475-13.153-12.591zm-8.108-5.772c1.654 0 3 1.346 3 3s-1.346 3-3 3c-1.655 0-3-1.346-3-3s1.345-3 3-3zm0 8c2.756 0 5-2.243 5-5s-2.244-5-5-5c-2.757 0-5 2.243-5 5s2.243 5 5 5zm1.919 43.306c-1.272 1.058-3.166.884-4.225-.387-1.059-1.272-.885-3.167.387-4.225.559-.466 1.239-.693 1.916-.693.861 0 1.716.368 2.308 1.08 1.059 1.271.885 3.166-.386 4.225zm-5.118-6.149c-2.119 1.763-2.408 4.922-.644 7.041.987 1.187 2.412 1.8 3.847 1.7990012 1.127 0 2.261-.3780012 3.194-1.1540012 2.119-1.764 2.408-4.923.644-7.041-1.763-2.12-4.921-2.409-7.041-.645zm26.199-16.157c-1.655 0-3-1.346-3-3s1.345-3 3-3c1.654 0 3 1.346 3 3s-1.346 3-3 3zm0-8c-2.757 0-5 2.243-5 5s2.243 5 5 5c2.756 0 5-2.243 5-5s-2.244-5-5-5zm-44.081 7.306c-1.273 1.058-3.166.884-4.225-.387-1.058-1.272-.885-3.167.387-4.225 1.271-1.057 3.166-.884 4.224.387 1.059 1.271.885 3.166-.386 4.225zm1.923-5.504c-1.763-2.121-4.922-2.408-7.041-.645s-2.408 4.922-.644 7.041c.987 1.187 2.412 1.799 3.847 1.799 1.127 0 2.261-.378 3.194-1.154 2.119-1.764 2.408-4.923.644-7.041zm17.443 10.326-4.367-4.108 1.371-1.457 3.086 2.903 7.141-5.87 1.27 1.544zm-4.285-16.454c0-1.474 1.495-2.674 3.333-2.674h5.335c1.837 0 3.332 1.2 3.332 2.674v3.326h-12zm-4 20.326h20v-15h-20zm-.446-17c-.857 0-1.554.697-1.554 1.555v15.89c0 .858.697 1.555 1.554 1.555h20.891c.857 0 1.555-.697 1.555-1.555v-15.89c0-.858-.698-1.555-1.555-1.555h-2.445v-3.326c0-2.577-2.392-4.674-5.332-4.674h-5.335c-2.941 0-5.333 2.097-5.333 4.674v3.326z" fill="#fff"/></g></svg>