<svg height="80" viewBox="0 0 80 80" width="80" xmlns="http://www.w3.org/2000/svg"><g fill="none" fill-rule="evenodd"><path d="m0 0h80v80h-80z" fill="#e7157b"/><path d="m39.976 39.673c2.979 0 5.403 2.424 5.403 5.403s-2.424 5.403-5.403 5.403-5.403-2.424-5.403-5.403 2.424-5.403 5.403-5.403zm0 12.806c4.082 0 7.403-3.321 7.403-7.403s-3.321-7.403-7.403-7.403-7.403 3.321-7.403 7.403 3.321 7.403 7.403 7.403zm-1.622-4.866-1.829-1.83 1.414-1.414 1.122 1.122 2.952-2.951 1.414 1.414-3.659 3.659c-.188.187-.441.293-.707.293s-.52-.106-.707-.293zm-12.354-15.613h28v-2h-28zm0-3h28v-2h-28zm0-3h28v-2h-28zm0-7h11v-2h-11zm3.949 26.101c0-.737.523-1.376 1.244-1.52.371-.074.668-.35.768-.714.186-.669.451-1.307.787-1.896.182-.317.176-.707-.015-1.019-.155-.253-.234-.523-.234-.802 0-.855.696-1.551 1.55-1.551.281 0 .55.079.802.234.313.19.703.196 1.02.015.59-.337 1.228-.602 1.896-.786.364-.101.64-.398.714-.768.144-.722.783-1.246 1.519-1.246.737 0 1.375.524 1.52 1.246.074.37.35.667.714.768.668.184 1.305.449 1.896.786.316.181.706.175 1.02-.015.252-.155.521-.234.802-.234.854 0 1.549.696 1.549 1.551 0 .279-.078.549-.233.802-.191.312-.197.702-.016 1.019.337.589.602 1.227.787 1.896.101.364.398.64.769.714.721.144 1.244.783 1.244 1.52 0 .736-.523 1.375-1.244 1.519-.371.074-.668.35-.769.714-.185.669-.45 1.307-.787 1.896-.181.318-.174.708.016 1.02.155.252.233.522.233.801 0 .855-.695 1.551-1.549 1.551-.281 0-.55-.078-.802-.233-.312-.192-.704-.198-1.02-.016-.591.337-1.228.602-1.896.786-.364.101-.64.398-.714.768-.145.722-.783 1.245-1.52 1.245-.736 0-1.375-.523-1.519-1.245-.074-.37-.35-.667-.714-.768-.668-.184-1.306-.449-1.896-.786-.154-.088-.326-.132-.497-.132-.181 0-.363.049-.523.148-.252.155-.521.233-.802.233-.854 0-1.55-.696-1.55-1.551 0-.279.079-.549.234-.801.19-.312.197-.702.015-1.02-.336-.589-.601-1.227-.787-1.896-.1-.364-.397-.64-.768-.714-.721-.144-1.244-.783-1.244-1.519zm4.1 9.501c.448 0 .891-.088 1.308-.256.432.216.88.403 1.341.557.526 1.334 1.829 2.249 3.302 2.249 1.474 0 2.777-.915 3.303-2.249.461-.154.909-.341 1.341-.557.417.168.86.256 1.308.256 1.957 0 3.549-1.593 3.549-3.551 0-.446-.087-.889-.255-1.307.215-.431.402-.879.557-1.341 1.334-.526 2.249-1.829 2.249-3.302 0-1.474-.915-2.777-2.249-3.303-.155-.462-.342-.91-.557-1.341.168-.418.255-.861.255-1.307 0-1.958-1.592-3.551-3.549-3.551-.447 0-.891.088-1.308.256-.432-.216-.88-.403-1.341-.557-.526-1.334-1.829-2.25-3.303-2.25-1.473 0-2.776.916-3.302 2.25-.461.154-.909.341-1.341.557-.417-.168-.861-.256-1.308-.256-1.957 0-3.55 1.593-3.55 3.551 0 .446.088.889.256 1.307-.216.431-.402.879-.557 1.341-1.334.526-2.249 1.829-2.249 3.303 0 1.473.915 2.776 2.249 3.302.155.462.341.91.557 1.341-.168.418-.256.861-.256 1.307 0 1.958 1.593 3.551 3.55 3.551zm9.951 1.398h2v10c0 .384-.22.735-.566.901-.138.066-.286.099-.434.099-.222 0-.444-.075-.625-.22l-4.375-3.5-4.375 3.5c-.299.241-.71.287-1.058.121-.346-.166-.567-.517-.567-.901v-10h2v7.919l3.375-2.7c.366-.292.885-.292 1.25 0l3.375 2.7zm8-39.586 3.586 3.586h-3.586zm6.707 3.879-7-7c-.187-.188-.441-.293-.707-.293h-29c-.552 0-1 .447-1 1v46c0 .552.448 1 1 1h10v-2h-9v-44h27v6c0 .552.448 1 1 1h6v37h-9v2h10c.553 0 1-.448 1-1v-39c0-.265-.105-.52-.293-.707z" fill="#fff"/></g></svg>