<svg height="80" viewBox="0 0 80 80" width="80" xmlns="http://www.w3.org/2000/svg"><g fill="none" fill-rule="evenodd"><path d="m0 0h80v80h-80z" fill="#01a88d"/><path d="m16.9999653 54h15.9998889v-2h-15.9998889zm16.999882-7h8.9999375v-2h-8.9999375zm-16.999882 0h14.9998959v-2h-14.9998959zm0-21h12.9999097v-2h-12.9999097zm46.0106806 28.079c-.1129992.077-.2579982.139-.4069972.208-.5279963.247-1.2509913.586-1.5419893 1.364-.0409997.112-.0619996.23-.0619996.349v4h-1.9999861v-9h2.9999792v-2h-7.9999445v2h2.9999792v9h-1.9999861v-4c0-.119-.0209999-.237-.0629996-.349-.289998-.778-1.0129929-1.117-1.5409893-1.364-.1489989-.069-.2939979-.131-.4069972-.208-2.9639794-2.055-4.4449691-5.574-3.8639731-9.183.6479955-4.033 4.0809716-7.275 8.1619433-7.708.2089986-.023 1.2209915-.022 1.4259901 0 4.0809717.433 7.5139478 3.675 8.1619433 7.708.580996 3.609-.8999937 7.128-3.8639731 9.183zm5.8389594-9.5c-.7889945-4.909-4.9639655-8.853-9.9269311-9.381-.3459976-.036-1.5019895-.036-1.8459871 0h-.001c-4.9619656.528-9.1369366 4.472-9.9259311 9.381-.7039951 4.376 1.0969924 8.646 4.7009673 11.143.1949987.135.439997.257.6969952.377.1369991.064.3459976.161.4519969.215v4.686c0 .552.4469969 1 .999993 1h7.9999445c.5529961 0 .999993-.448.999993-1v-4.67c.1209992-.077.3199978-.169.4519969-.231.2569982-.12.5019965-.242.6969952-.377 3.6039749-2.497 5.4049624-6.767 4.7009673-11.143zm-9.3849348 21.421h-2.9299797l-.6669953-1h4.2639704zm2.5349824-3h-7.9999445c-.3689974 0-.7079951.203-.8819939.528-.1739987.326-.1539989.72.0499997 1.027l1.9999861 3c.1859987.278.4979966.445.8319942.445h3.9999723c.3339977 0 .6459955-.167.8319942-.445l1.9999861-3c.2039986-.307.2239985-.701.0499997-1.027-.1739988-.325-.5129965-.528-.8819939-.528zm-44.9996876-23h25.9998195v-2h-25.9998195zm8.9999375-7h16.999882v-2h-16.999882zm-8.9999375 0h6.9999514v-2h-6.9999514zm18.9998681-17.586 8.5859404 8.586h-8.5859404zm9.9999306 45.586h-31.9997779v-46.995l19.9998612-.005v11c0 .552.4469969 1 .999993 1h10.9999237v12h1.9999861v-13h-.009c-.001-.26-.0929993-.516-.283998-.707l-11.9999167-12c-.1899987-.191-.4459969-.283-.7069951-.283v-.01l-21.9998403.005c-.5530031 0-1 .448-1 1v48.995c0 .552.4469969 1 1 1h33.999757c.5529962 0 .9999931-.448.9999931-1v-6h-1.9999861z" fill="#fff"/></g></svg>