<svg height="80" viewBox="0 0 80 80" width="80" xmlns="http://www.w3.org/2000/svg"><g fill="none" fill-rule="evenodd"><path d="m0 0h80v80h-80z" fill="#01a88d"/><path d="m30.24 9.103c0 1.284 1.045 2.329 2.329 2.329s2.329-1.045 2.329-2.329-1.045-2.329-2.329-2.329-2.329 1.045-2.329 2.329m-2 0c0-2.387 1.942-4.329 4.329-4.329s4.329 1.942 4.329 4.329-1.942 4.329-4.329 4.329-4.329-1.942-4.329-4.329m18.875 22.787c0 12.99-10.568 23.558-23.558 23.558-12.989 0-23.557-10.568-23.557-23.558 0-6.449 2.555-12.468 7.196-16.949l15.612-14.941 1.383 1.445-15.609 14.938c-4.243 4.097-6.582 9.606-6.582 15.507 0 11.887 9.671 21.558 21.557 21.558 11.887 0 21.558-9.671 21.558-21.558 0-5.962-2.38-11.51-6.701-15.621l1.379-1.449c4.721 4.492 7.322 10.554 7.322 17.07" fill="#fff" transform="translate(16.0002 12)"/></g></svg>