<svg height="80" viewBox="0 0 80 80" width="80" xmlns="http://www.w3.org/2000/svg"><g fill="none" fill-rule="evenodd"><path d="m0 0h80v80h-80z" fill="#01a88d"/><path d="m30 50h20v-20h-20zm20.852 2h-21.703c-.633 0-1.149-.515-1.149-1.148v-21.704c0-.633.516-1.148 1.149-1.148h21.703c.633 0 1.148.515 1.148 1.148v21.704c0 .633-.515 1.148-1.148 1.148zm16.02-22h-11.872v2h11v34h-34v-11h-2v11.873c0 .621.506 1.127 1.127 1.127h35.745c.622 0 1.128-.506 1.128-1.127v-35.746c0-.621-.506-1.127-1.128-1.127zm-52.872 18h11v2h-11.863c-.627 0-1.137-.51-1.137-1.137v-35.726c0-.627.51-1.137 1.137-1.137h35.726c.627 0 1.137.51 1.137 1.137v11.863h-2v-11h-34z" fill="#fff"/></g></svg>