<svg height="80" viewBox="0 0 80 80" width="80" xmlns="http://www.w3.org/2000/svg"><g fill="none" fill-rule="evenodd"><path d="m0 0h80v80h-80z" fill="#7aa116"/><path d="m44.96 28.9630939v-3h-3v-2h4c.553 0 1 .448 1 1v4zm0 14h2v4c0 .553-.447 1-1 1h-4v-2h3zm-21-19h4v2h-3v3h-2v-4c0-.552.448-1 1-1zm8 2h6v-2h-6zm-20 28h20v-20h-20zm44-27.103c0-7.87-5.991-10.244-8.808-10.923-.427-3.812-2.383-6.55199999-5.313-7.38899999-2.071-.591-4.24-.066-5.886 1.345-.873-2.026-2.017-3.777-3.415-5.221-4.512-4.662-10.688-5.926-16.519-3.381-4.963 2.165-8.706 8.137-8.706 13.88999999 0 .344.011.689.033 1.033-2.711.919-7.346 3.522-7.346 10.561 0 .448.02.88.058 1.296.459 5.037 4.779 9.202 9.902 9.808v17.084c0 .553.448 1 1 1h22c.553 0 1-.447 1-1v-7h4v-2h-4v-13c0-.553-.447-1-1-1h-22c-.552 0-1 .447-1 1v2.899c-4.112-.589-7.542-3.935-7.91-7.972-.033-.358-.05-.729-.05-1.115 0-6.121 4.087-8.17 6.587-8.85.519-.09.882-.571.821-1.1-.063-.542-.095-1.095-.095-1.644 0-4.925 3.297-10.22099999 7.505-12.05699999 7.258-3.167 12.406 1 14.283 2.939 1.533 1.585 2.727 3.608 3.551 6.01199999.122.354.431.611.801.665.373.054.74-.102.958-.406 1.178-1.642 3.093-2.37399999 4.878-1.863 2.22.635 3.68 2.925 3.918 6.136l-.001.004c-.079.536.282 1.037.815 1.131 2.387.423 7.939 2.158 7.939 9.118 0 6.561-4.85 8.416-7 8.92v-3.817h-2v4.999l-.001 1h.001v2.001h2v-2.156c2.463-.516 9-2.667 9-10.947z" fill="#fff" transform="translate(12 11.999906)"/></g></svg>