<svg height="80" viewBox="0 0 80 80" width="80" xmlns="http://www.w3.org/2000/svg"><g fill="none" fill-rule="evenodd"><path d="m0 0h80v80h-80z" fill="#e7157b"/><path d="m46.5941588 30h12.813l4.909 9h-3.749l-2.709-4.515c-.181-.301-.506-.485-.858-.485h-8c-.351 0-.677.184-.857.485l-2.709 4.515h-3.749zm-7.454 10.51c.181.304.508.49.86.49h6c.352 0 .677-.184.858-.485l2.709-4.515h6.867l2.709 4.515c.18.301.506.485.857.485h6c.353 0 .68-.186.861-.49.179-.303.186-.679.017-.989l-6-11c-.175-.321-.512-.521-.878-.521h-14c-.366 0-.703.2-.878.521l-6 11c-.169.31-.162.686.018.989zm20.267 13.49h-12.813l-4.909-9h3.749l2.709 4.515c.18.301.506.485.857.485h8c.352 0 .677-.184.858-.485l2.709-4.515h3.749zm6.593-11h-6c-.351 0-.677.184-.857.485l-2.709 4.515h-6.867l-2.709-4.515c-.181-.301-.506-.485-.858-.485h-6c-.352 0-.679.186-.86.49-.18.303-.187.679-.018.989l6 11c.175.321.512.521.878.521h14c.366 0 .703-.2.878-.521l6-11c.169-.31.162-.686-.017-.989-.181-.304-.508-.49-.861-.49zm-31.597 25h-12.805l-6.451-11.98 6.427-11.02h12.852l6.428 11.02zm1.462-24.504c-.18-.307-.509-.496-.865-.496h-14c-.355 0-.684.189-.864.496l-7 12c-.175.301-.182.671-.017.978l7 13c.175.324.513.526.881.526h14c.368 0 .706-.202.881-.526l7-13c.165-.307.158-.677-.016-.978zm-4.483 19.504h-6.764l-3.484-6.969 3.446-6.031h6.84l3.446 6.031zm.618-15h-8c-.358 0-.69.192-.868.504l-4 7c-.166.29-.176.644-.026.943l4 8c.17.339.515.553.894.553h8c.379 0 .725-.214.895-.553l4-8c.149-.299.139-.653-.027-.943l-4-7c-.177-.312-.509-.504-.868-.504zm-12.574-19 5.833 10h-3.685l-5.833-10zm11.956 6 2 4h-5.808l-2.333-4zm5.153-6h3.724l-5.191 8.899-1.913-3.827zm-16.399 11.504c.18.307.509.496.864.496h13.999.001c.355 0 .685-.188.865-.496l7-12c.179-.31.181-.692.002-1.002-.178-.311-.508-.502-.867-.502h-6c-.334 0-.646.167-.832.445l-3.703 5.555h-7.391l-3.209-5.504c-.18-.307-.509-.496-.865-.496h-6c-.358 0-.688.191-.867.502-.179.31-.177.692.003 1.002zm1.438-27.504h12.852l5.833 10h-3.724l-3.703-5.555c-.185-.278-.498-.445-.832-.445h-8c-.334 0-.646.167-.832.445l-3.703 5.555h-3.724zm-7.574 12h6c.334 0 .647-.167.832-.445l3.703-5.555h6.93l3.703 5.555c.186.278.498.445.832.445h6c.359 0 .689-.191.867-.502.179-.31.177-.692-.002-1.002l-7-12c-.18-.307-.509-.496-.865-.496h-14c-.355 0-.684.189-.864.496l-7 12c-.18.31-.182.692-.003 1.002.179.311.509.502.867.502z" fill="#fff"/></g></svg>