<svg height="80" viewBox="0 0 80 80" width="80" xmlns="http://www.w3.org/2000/svg"><g fill="none" fill-rule="evenodd"><path d="m0 0h80v80h-80z" fill="#ed7100"/><path d="m15.707 41.707-1.414-1.414-12.293 12.293v-6.586h-2v9c0 .552.447 1 1 1h9v-2h-6.586zm39.293-41.707h-9v2h6.586l-12.293 12.293 1.414 1.414 12.293-12.293v6.586h2v-9c0-.552-.447-1-1-1zm-24 47h16v-16h-16zm18-17v18c0 .552-.447 1-1 1h-18c-.553 0-1-.448-1-1v-18c0-.552.447-1 1-1h18c.553 0 1 .448 1 1zm-40-5h16v-16h-16zm18-17v18c0 .552-.447 1-1 1h-18c-.553 0-1-.448-1-1v-18c0-.552.447-1 1-1h18c.553 0 1 .448 1 1zm-1 21h-18c-.553 0-1 .448-1 1v14.757l2-2v-11.757h16v16h-11.758l-2 2h14.758c.553 0 1-.448 1-1v-18c0-.552-.447-1-1-1zm21-15.758 2-2v14.758c0 .552-.447 1-1 1h-18c-.553 0-1-.448-1-1v-18c0-.552.447-1 1-1h14.758l-2 2h-11.758v16h16z" fill="#fff" transform="translate(12 12)"/></g></svg>