<svg height="80" viewBox="0 0 80 80" width="80" xmlns="http://www.w3.org/2000/svg"><g fill="none" fill-rule="evenodd"><path d="m0 0h80v80h-80z" fill="#8c4fff"/><path d="m53.9372096 45.211c.7629841.89 1.8959605 1.455 3.1569343 1.455 2.2919522 0 4.1559134-1.865 4.1559134-4.157h-1.9999583c0 1.19-.9669799 2.157-2.1559551 2.157-1.1889753 0-2.1569551-.967-2.1569551-2.157h-1.9999583c0 1.19-.9669799 2.157-2.1559551 2.157-1.1899752 0-2.1569551-.967-2.1569551-2.157h-1.9999583c0 1.19-.9679798 2.157-2.1569551 2.157-1.1889752 0-2.156955-.967-2.156955-2.157h-1.9999584c0 1.19-.9679798 2.157-2.1559551 2.157v2c1.2619738 0 2.3929502-.565 3.1559343-1.455.7629841.89 1.8959605 1.455 3.1569342 1.455 1.2619737 0 2.3939502-.565 3.1569343-1.455.7619841.89 1.8949605 1.455 3.1569342 1.455 1.2609737 0 2.3929501-.565 3.1559342-1.455zm-.8779817-13.606h-1.9999583c0 1.189-.9679798 2.156-2.1569551 2.156-1.1889752 0-2.155955-.967-2.155955-2.156h-1.9999584c0 1.189-.9679798 2.156-2.157955 2.156-1.1879753 0-2.1559551-.967-2.1559551-2.156h-1.9999583c0 1.189-.9679799 2.156-2.1559551 2.156v2c1.2619737 0 2.3929501-.565 3.1559342-1.455.7629841.89 1.8949605 1.455 3.1559343 1.455 1.2619737 0 2.3949501-.565 3.1579342-1.455.7619841.89 1.8939605 1.455 3.1559342 1.455s2.3939502-.565 3.1569343-1.455c.7629841.89 1.8949605 1.455 3.1559342 1.455v-2c-1.1879752 0-2.1559551-.967-2.1559551-2.156zm-15.8536697 27.318c1.2609737 0 2.3929502-.565 3.1559343-1.455.7629841.89 1.8949605 1.455 3.1569342 1.455s2.3939501-.565 3.1559343-1.455c.7629841.89 1.8949605 1.455 3.1569342 1.455v-2c-1.1889752 0-2.1569551-.967-2.1569551-2.156h-1.9999583c0 1.189-.9669799 2.156-2.1559551 2.156s-2.1569551-.967-2.1569551-2.156h-1.9999583c0 1.189-.9679798 2.156-2.1559551 2.156-1.1899752 0-2.157955-.967-2.157955-2.156h-1.9999584c0 1.189-.9669798 2.156-2.155955 2.156v2c1.2619737 0 2.3939501-.565 3.1559342-1.455.7629841.89 1.8959605 1.455 3.1579342 1.455zm-14.2047041-38.923h.9999792v-1h-.9999792zm-2.0009583 1v-3c0-.553.4479907-1 1.0009792-1h2.9999375c.5519885 0 .9999792.447.9999792 1v3c0 .552-.4479907 1-.9999792 1h-2.9999375c-.5529885 0-1.0009792-.448-1.0009792-1zm8.0008334-5h.9999791v-1h-.9999791zm-1.9999584 1v-3c0-.553.4469907-1 .9999792-1h2.9999375c.5519885 0 .9999792.447.9999792 1v3c0 .552-.4479907 1-.9999792 1h-2.9999375c-.5529885 0-.9999792-.448-.9999792-1zm2.9999375 6h.9999792v-1h-.9999792zm1.9999584-3c.5519885 0 .9999791.447.9999791 1v3c0 .552-.4479906 1-.9999791 1h-2.9999375c-.5529885 0-.9999792-.448-.9999792-1v-3c0-.553.4469907-1 .9999792-1zm-3.8129206 8.075c-1.0149789 0-4.7909002-.039-7.6418408-.562l6.2988688 9.952c.1019978.16.1559967.345.1559967.535v1.261c.6929856.166 1.3479719.171 1.9999584.013v-1.274c0-.189.0529988-.374.1539967-.535l6.5618633-9.935c-2.2009541.39-5.1008937.545-7.5288431.545zm-11.1217683-2.508c-.0069999-.047-.0159997-.136-.0159997-.183 0-.615 0-2.486 9.9307931-2.68l.0389992 2c-3.1979334.062-5.5618841.367-6.908856.68 1.4709693.343 4.1999125.691 8.0768317.691 3.7349222 0 6.5248641-.336 8.0588321-.692-.5119893-.121-1.2219745-.253-2.1999542-.372l.242995-1.985c3.5759255.436 5.0348951 1.12 5.0348951 2.358 0 .264-.094998.626-.433991.972l-7.8898356 11.933v1.711c0 .408-.2489948.775-.626987.927-.7689839.309-1.5409678.463-2.3289514.463-.7779838 0-1.5709673-.151-2.3899502-.452-.3929919-.145-.6539864-.519-.6539864-.938v-1.71l-7.6758401-12.128c-.002-.003-.0039999-.006-.0059999-.009l-.0079998-.014-.1489969-.236.0149997-.01c-.0539989-.102-.0939981-.211-.1109977-.326zm9.934793 19.433v-3h-1.9999583v2h-1.9999584c-.3879919 0-.7419845.224-.9059811.575-.1649965.352-.1109977.767.1369972 1.065l4.9998958 6c.189996.228.4719902.36.768984.36.2959938 0 .5779879-.132.767984-.36l4.9998958-6c.2479949-.298.3019937-.713.1369972-1.065-.1639966-.351-.5179892-.575-.9049812-.575h-1.9999583v-2h-1.9999583v3c0 .552.4469906 1 .9999791 1h.864982l-2.8649403 3.438-2.8659403-3.438h.865982c.5519885 0 .9999791-.448.9999791-1zm36.9992292-2c0 13.233-10.7667757 24-24.0005 24-13.2327243 0-23.9995-10.767-23.9995-24 0-3.658.8019833-7.169 2.3819504-10.436l1.8009625.871c-1.4479699 2.993-2.1829546 6.211-2.1829546 9.565 0 12.13 9.8697944 22 21.9995417 22 12.1307473 0 22.0005417-9.87 22.0005417-22 0-12.131-9.8697944-22-22.0005417-22-1.2859732 0-2.5729464.111-3.8269203.331l-.3449928-1.97c1.3669715-.24 2.7709423-.361 4.1719131-.361 13.2337243 0 24.0005 10.766 24.0005 24z" fill="#fff"/></g></svg>