<svg height="80" viewBox="0 0 80 80" width="80" xmlns="http://www.w3.org/2000/svg"><g fill="none" fill-rule="evenodd"><path d="m0 0h80v80h-80z" fill="#ed7100"/><path d="m22 56.00025h6v-2h-6zm26-28h2v-5h-2zm-48 0h2v-5h-2zm25 16.158-8.301 4.842h16.602zm25-29.158v5h-2v-3.852c-12.668 1.952-21.451 9.836-22 19.879v6.399l3 1.75v-5.176c.281-6.467 5.068-10.755 11.687-10.466 2.588.113 4.977 1.227 6.727 3.136 1.751 1.911 2.652 4.387 2.539 6.975-.093 2.123-1.006 4.084-2.573 5.52s-3.603 2.176-5.724 2.084c-1.752-.077-3.369-.831-4.554-2.124s-1.795-2.97-1.719-4.722c.063-1.455.689-2.799 1.763-3.783s2.451-1.493 3.922-1.428l-.088 1.998c-.909-.047-1.803.282-2.483.905s-1.076 1.473-1.116 2.395c-.11 2.515 1.848 4.651 4.363 4.76 1.558.072 3.11-.483 4.284-1.56 1.174-1.075 1.858-2.543 1.927-4.132.09-2.054-.626-4.02-2.016-5.536-1.388-1.516-3.285-2.4-5.339-2.49-5.511-.24-9.369 3.181-9.601 8.511l.001 6.299 6.504 3.794c.391.228.579.689.462 1.125-.118.436-.514.739-.966.739h-24c-.452 0-.848-.303-.966-.739-.117-.436.071-.897.462-1.125l6.504-3.794v-6.342c-.231-5.289-4.118-8.701-9.637-8.468-2.054.09-3.951.974-5.341 2.49-1.388 1.516-2.104 3.481-2.014 5.535.069 1.59.753 3.058 1.927 4.133 1.172 1.076 2.703 1.632 4.284 1.56 2.515-.109 4.472-2.245 4.363-4.76-.04-.922-.436-1.772-1.116-2.395-.681-.623-1.569-.95-2.484-.905l-.087-1.998c1.485-.063 2.848.444 3.921 1.428 1.075.984 1.701 2.328 1.764 3.783.076 1.752-.534 3.429-1.719 4.722s-2.802 2.047-4.554 2.124c-2.133.091-4.157-.648-5.724-2.084s-2.48-3.397-2.573-5.52c-.114-2.588.788-5.064 2.538-6.974s4.139-3.024 6.727-3.137c.211-.009.42-.013.626-.013 6.299 0 10.827 4.214 11.098 10.436l.001 5.219 3-1.75v-6.427c-.533-10.003-9.32-17.897-22-19.851v3.852h-2v-5c0-.287.123-.56.338-.75.047-.041.098-.078.151-.109l4.996-2.998 1.03 1.714-2.646 1.588c9.5 1.856 16.779 6.959 20.131 13.806v-3.251c0-7.065-4.126-13.63-10.319-16.506l-2.148 1.352-1.066-1.692 2.599-1.637c.278-.175.624-.203.926-.074 5.248 2.241 9.237 6.825 11.006 12.265 1.763-5.446 5.743-10.031 10.98-12.266.301-.128.646-.101.92.072l2.63 1.637-1.056 1.698-2.18-1.357c-6.177 2.868-10.292 9.434-10.292 16.508v3.269c3.353-6.863 10.632-11.968 20.131-13.824l-2.646-1.588 1.03-1.714 4.996 2.997c.052.032.104.069.151.11.215.19.338.463.338.75zm-29.485-10.143-1.03-1.714 5-3c.317-.191.713-.191 1.03 0l5 3-1.03 1.714-3.485-2.091v4.234h-2v-4.234z" fill="#fff" transform="translate(15 12)"/></g></svg>