<svg height="80" viewBox="0 0 80 80" width="80" xmlns="http://www.w3.org/2000/svg"><g fill="none" fill-rule="evenodd"><path d="m0 0h80v80h-80z" fill="#c925d1"/><path d="m2.05315746 28.7644987c-.246-2.024.378-4.049 1.712-5.556 1.318-1.487 3.209-2.34 5.186-2.34h24.50600004l-5.293 5.292 1.414 1.415 7-7c.391-.391.391-1.024 0-1.415l-7-7-1.414 1.415 5.293 5.293h-24.50600004c-2.549 0-4.986 1.098-6.683 3.014-1.713 1.935-2.516 4.531-2.201 7.123.545 4.483 4.507 7.863 9.217 7.863h1.66700004v-2h-1.66700004c-3.7 0-6.809-2.625-7.231-6.104m53.94600004-2.644c0 9.897-9.949 10.738-10.049 10.745l-27.368.002 5.293 5.293-1.414 1.415-7-7c-.39-.391-.39-1.024 0-1.415l7-7 1.414 1.415-5.293 5.293h27.295c.26-.023 8.122-.726 8.122-8.748 0-1.464-.274-2.784-.814-3.922-.696-1.465-1.84-2.659-3.399-3.548-.577-.329-1.208-.614-1.876-.846-.648-.227-1.312-.398-1.973-.512-.537-.092-.902-.596-.821-1.135l.006-.034c-.006-.762-.091-1.477-.256-2.125-.534-2.091-1.902-3.498-3.754-3.859-1.794-.35200002-3.669.395-4.777 1.897-.219.297-.582.448-.952.396-.366-.055-.673-.307-.796-.657-.823-2.33300002-2.013-4.29400002-3.539-5.82800002-1.873-1.885-7.016-5.938-14.27-2.855-4.195 1.781-7.48100004 6.91400002-7.48100004 11.68300002h-2c0-5.60300002 3.73900004-11.41800002 8.69900004-13.52400002 5.815-2.468 11.971-1.241 16.47 3.285 1.398 1.406 2.544 3.113 3.419 5.089 1.552-1.279 3.616-1.839 5.609-1.449 2.604.508 4.588 2.50000002 5.309 5.32800002.159.623.259 1.288.299 1.985.493.115.984.258 1.467.426.783.273 1.526.609 2.208.998 1.922 1.096 3.339 2.585 4.214 4.427.669 1.408 1.008 3.017 1.008 4.78" fill="#fff" transform="translate(12 18.15)"/></g></svg>