<svg height="80" viewBox="0 0 80 80" width="80" xmlns="http://www.w3.org/2000/svg"><g fill="none" fill-rule="evenodd"><path d="m0 0h80v80h-80z" fill="#ed7100"/><path d="m49.239 49.377026-21.502-.022c-2.604-.003-4.831-1.939-5.07-4.406-.02-.206-.031-.421-.031-.644 0-3.376 2.332-4.507 3.755-4.883.458-.094.798-.5.798-.981 0-.047-.003-.094-.01-.141-.034-.296-.051-.598-.051-.904 0-2.783 1.918-5.775 4.366-6.812 4.251-1.798 7.26.567 8.358 1.669.899.901 1.601 2.056 2.086 3.431.124.349.43.602.796.656.363.054.733-.097.952-.395.636-.86 1.666-1.237 2.621-.957 1.17.342 1.946 1.553 2.086 3.25-.051.518.307.993.825 1.082 1.369.236 4.551 1.197 4.551 5.036 0 4.483-4.143 4.982-4.53 5.021zm-23.795 4.485-23.444-12.464v-26.828l20-11.81799996v9.69899996l-10.537 6.705c-.288.183-.463.502-.463.844v16c0 .373.208.714.538.887l9.363 4.871.139.077c-.256.757-.404 1.58-.404 2.47 0 .289.015.567.041.835.335 3.481 3.436 6.211 7.058 6.215l2.247.001zm15.06-34.726-11.504-6.711v-9.67299996l20 11.81799996v19.897c-.569-.664-1.284-1.151-2.132-1.399-1.252-.365-2.56-.142-3.623.569-.527-1.07-1.189-2.006-1.977-2.796-.086-.086-.18-.152-.268-.235v-10.606c0-.356-.189-.685-.496-.864zm10.496 18.59v-23.726c0-.354-.187-.682-.491-.861l-22-12.99999996c-.31-.183-.692-.185-1.005-.008-.312.178-.504.51-.504.869v11.99999996c0 .355.188.684.496.863l11.504 6.711v8.544c-2.517-1.404-5.463-1.57-8.285-.376-.99.419-1.888 1.086-2.678 1.887l-3.026-3.509 6.831-7.921h-2.662l-6.18 6.801v-7h-2v17h2v-8l3.682 4.311c-.968 1.53-1.554 3.322-1.554 5.085 0 .109.002.218.005.327-1.348.493-2.421 1.304-3.187 2.35l-8.946-4.68v-14.845l10.537-6.705c.288-.183.463-.502.463-.843v-11.99999996c0-.359-.193-.691-.504-.869-.313-.177-.694-.175-1.005.008l-22 12.99999996c-.305.179-.491.507-.491.861v28c0 .369.204.709.53.882l24.453 13c.148.078.309.118.47.118.167 0 .333-.042.483-.125l8.178-4.515 15.205.014c2.232-.182 6.45-1.882 6.45-7.018 0-3.678-2.264-5.753-4.769-6.63z" fill="#fff" transform="translate(12 12)"/></g></svg>