<svg height="80" viewBox="0 0 80 80" width="80" xmlns="http://www.w3.org/2000/svg"><g fill="none" fill-rule="evenodd"><path d="m0 0h80v80h-80z" fill="#c925d1"/><path d="m65 58c-.552 0-1-.449-1-1s.448-1 1-1 1 .449 1 1-.448 1-1 1zm-9.5 8c-1.379 0-2.5-1.122-2.5-2.5s1.121-2.5 2.5-2.5 2.5 1.122 2.5 2.5-1.121 2.5-2.5 2.5zm-4.5-17.5c0-1.93 1.57-3.5 3.5-3.5s3.5 1.57 3.5 3.5-1.57 3.5-3.5 3.5-3.5-1.57-3.5-3.5zm-6-8.5c-.552 0-1-.449-1-1s.448-1 1-1 1 .449 1 1-.448 1-1 1zm-3 14c-1.103 0-2-.897-2-2s.897-2 2-2 2 .897 2 2-.897 2-2 2zm21-21c1.103 0 2 .897 2 2s-.897 2-2 2-2-.897-2-2 .897-2 2-2zm2 21c-1.654 0-3 1.346-3 3 0 .446.104.865.279 1.246l-3.505 2.188c-.657-.702-1.53-1.189-2.517-1.357l-.238-5.295c2.295-.661 3.981-2.777 3.981-5.282 0-1.472-.585-2.808-1.53-3.796l3.485-5.86c.335.092.682.156 1.045.156 2.206 0 4-1.794 4-4s-1.794-4-4-4-4 1.794-4 4c0 1.122.467 2.133 1.213 2.86l-3.372 5.671c-.711-.337-1.503-.531-2.341-.531-1.152 0-2.222.358-3.106.966l-3.661-3.743c.168-.374.267-.786.267-1.223 0-1.654-1.346-3-3-3s-3 1.346-3 3 1.346 3 3 3c.486 0 .939-.127 1.347-.334l3.63 3.712c-.615.888-.977 1.963-.977 3.122 0 .204.013.405.035.603l-3.664.762c-.711-1.117-1.951-1.865-3.371-1.865-2.206 0-4 1.794-4 4s1.794 4 4 4 4-1.794 4-4c0-.075-.018-.145-.021-.218l3.64-.758c.848 1.632 2.486 2.787 4.406 2.952l.235 5.219c-1.876.543-3.26 2.257-3.26 4.305 0 2.481 2.019 4.5 4.5 4.5s4.5-2.019 4.5-4.5c0-.467-.092-.91-.225-1.334l3.947-2.463c.388.185.819.297 1.278.297 1.654 0 3-1.346 3-3s-1.346-3-3-3zm-33.5-39c9.724 0 16.5 3.162 16.5 6s-6.776 6-16.5 6-16.5-3.162-16.5-6 6.776-6 16.5-6zm16.5 45.02c0 2.752-6.776 5.82-16.5 5.82s-16.5-3.068-16.5-5.82v-8.24c2.957 2.522 8.937 4.174 16.167 4.174 1.703 0 3.424-.095 5.112-.282l-.22-1.988c-1.616.179-3.262.27-4.892.27-9.671 0-16.167-3.035-16.167-5.868v-9.799c2.957 2.522 8.937 4.173 16.167 4.173 3.465 0 6.829-.384 9.728-1.112l-.487-1.939c-2.742.688-5.937 1.051-9.241 1.051-9.671 0-16.167-3.034-16.167-5.868v-9.87c2.997 2.583 9.104 4.278 16.5 4.278s13.503-1.695 16.5-4.278v11.278h2v-15c0-4.561-7.953-8-18.5-8s-18.5 3.439-18.5 8v39.02c0 4.458 7.953 7.82 18.5 7.82s18.5-3.362 18.5-7.82v-5.02h-2z" fill="#fff"/></g></svg>