<svg height="80" viewBox="0 0 80 80" width="80" xmlns="http://www.w3.org/2000/svg"><g fill="none" fill-rule="evenodd"><path d="m0 0h80v80h-80z" fill="#ed7100"/><path d="m60.0130356 59.8905v-7.904l6-3.527v7.991zm5.211 6.077h-14.634l-1.946-8.001h1.955l7.918 4.53c.153.088.325.132.496.132.138 0 .274-.037.404-.094l.001.002.019-.01c.026-.012.053-.018.078-.033.023-.013.041-.033.063-.048l2.871-1.646zm-47.527-5.084 2.82 1.613c.153.088.325.132.496.132.138 0 .274-.037.404-.094l.001.002.019-.01c.026-.012.053-.018.078-.033.023-.013.041-.033.063-.048l7.811-4.479h1.877l-2.067 8.001h-14.35zm-3.684-12.379 6 3.428v7.972l-6-3.433zm7.031-5.344 6.03 3.535-6.011 3.534-6.076-3.472zm8.802-4.172 5.542 3.031-1.537 5.947h-3.838v-1h-.004c.025-.088.04-.179.04-.273 0-.355-.188-.683-.494-.862l-2.722-1.596zm-1.833-17.458 11 5.076v15.116l-11-6.016zm11.996-7.396 10.762 5.766-10.758 4.965-10.759-4.965zm13.406 29.915.05.094-2.982 1.77c-.306.182-.492.512-.49.868.001.064.014.125.026.185h-.006v1h-3.8l-1.471-6.049 5.804-3.116zm-1.402 4.458 6 3.43v7.967l-6-3.433zm-11-6.857v-15.044l11-5.076v14.213zm-1.479 2.636c.149.081.314.122.479.122.177 0 .353-.047.51-.139.097-.058.178-.135.249-.22l2.149-1.154 1.233 5.071h-8.238l1.281-4.958zm-9.521 5.68h3.321l-1.551 6h-1.77zm-8 2.024 6-3.527v1.503 6.484l-6 3.44zm24.573 5.976 1.946 8.001h-17.269l2.068-8.001zm-12.738-2 1.551-6h9.242l1.459 6zm16.165 0h-1.855l-1.459-6h3.314zm9.024-12.806 6.03 3.535-6.012 3.534-6.075-3.472zm9.005 3.533c0-.355-.188-.683-.494-.862l-8.008-4.695c-.314-.184-.704-.183-1.016.003l-3.349 1.988-2.868-5.272 1.179-.633c.325-.174.527-.513.527-.881v-16.375h-.003c-.001-.367-.199-.706-.524-.881l-13.004-6.967c-.295-.158-.651-.158-.946 0l-12.996 6.967c-.325.175-.523.514-.524.881h-.003v16.333c0 .366.199.702.521.877l1.554.851-3.005 5.182-3.536-2.073c-.314-.184-.704-.183-1.016.003l-8.041 4.774c-.306.182-.493.512-.4900356.868.0010356.064.0140356.125.0260356.185h-.013v10.085c0 .359.192.69.504.869l3.445 1.97-3.685 6.577c-.172.306-.17.68.004.985s.496.496.846.504l53.398.011.374-.001c.35 0 .676-.186.855-.487.181-.302.189-.676.023-.986l-3.592-6.689 3.325-1.907c.312-.178.503-.509.503-.868v-10.063h-.011c.025-.088.04-.179.04-.273z" fill="#fff"/></g></svg>