<svg height="80" viewBox="0 0 80 80" width="80" xmlns="http://www.w3.org/2000/svg"><g fill="none" fill-rule="evenodd"><path d="m0 0h80v80h-80z" fill="#fff"/><path d="m32.98 45.00025c0 1.378-1.121 2.5-2.5 2.5s-2.5-1.122-2.5-2.5 1.121-2.5 2.5-2.5 2.5 1.122 2.5 2.5zm6.99-30.5c-.475 0-.886.335-.98.801l-4.297 21.199h-29.894l-2.839-14.196-1.96.392 3 15c.093.468.503.804.98.804h27.041l-1.16 2.063c-2.188.305-3.881 2.167-3.881 4.437 0 2.481 2.019 4.5 4.5 4.5s4.5-2.019 4.5-4.5c0-1.936-1.235-3.576-2.954-4.209l1.288-2.291h2.196c.476 0 .886-.335.981-.801l4.297-21.199h8.192v-2zm-29.49 33c-1.379 0-2.5-1.122-2.5-2.5s1.121-2.5 2.5-2.5 2.5 1.122 2.5 2.5-1.121 2.5-2.5 2.5zm0-7c-2.481 0-4.5 2.019-4.5 4.5s2.019 4.5 4.5 4.5 4.5-2.019 4.5-4.5-2.019-4.5-4.5-4.5zm.5-38.345 6 3.464-6 3.464-6-3.464zm16 0 6 3.464-6 3.464-6-3.464zm1 15.588v-6.928l6-3.464v6.928zm-8 13.901v-6.929l6-3.464v6.929zm-8-10.393 6 3.464v6.929l-6-3.464zm6-6.972-6 3.464v-6.928l6-3.464zm8 3.464-6-3.464v-6.928l6 3.464zm-7 5.24-6.038-3.486 6.038-3.486 6.038 3.486zm-15-15.632 6 3.464v6.928l-6-3.464zm-1.5 8.372 7.5 4.33v8.704c0 .357.19.687.5.866l8 4.619c.154.089.327.133.5.133s.346-.044.5-.133l8-4.619c.31-.179.5-.509.5-.866v-8.704l7.5-4.33c.31-.179.5-.509.5-.867v-9.237c0-.358-.19-.688-.5-.867l-8-4.618c-.309-.179-.691-.179-1 0l-7.5 4.33-7.5-4.33c-.309-.179-.691-.179-1 0l-8 4.618c-.31.179-.5.509-.5.867v9.237c0 .358.19.688.5.867z" fill="#232f3d" transform="translate(16 15.5)"/></g></svg>