<svg height="80" viewBox="0 0 80 80" width="80" xmlns="http://www.w3.org/2000/svg"><g fill="none" fill-rule="evenodd"><path d="m0 0h80v80h-80z" fill="#ed7100"/><path d="m54 27.4941175c0-.551-.448-1-1-1h-42c-.552 0-1 .449-1 1v6c0 .551.448 1 1 1h42c.552 0 1-.449 1-1zm2 0v6c0 1.654-1.346 3-3 3h-42c-1.654 0-3-1.346-3-3v-6c0-1.654 1.346-3 3-3h42c1.654 0 3 1.346 3 3zm-43 4h3v-2h-3zm6 0h6v-2h-6zm9 0h23v-2h-23zm-20.71-19.578c.007.047.01.094.01.142 0 .48-.34.887-.798.98-1.703.448-4.502 1.8-4.502 5.846 0 .135.004.268.01.399.09 1.863.764 5.062 4.266 5.535l-.267 1.982c-5.266-.712-5.921-5.861-5.997-7.422-.008-.163-.012-.327-.012-.494 0-3.622 1.941-6.389 5.238-7.549-.007-.165-.01-.33-.01-.495 0-4.10999997 2.752-8.37599997 6.404-9.92199997 4.271-1.81 8.799-.911 12.106 2.407.946.949 1.734 2.084 2.353 3.385 1.223-.885 2.766-1.179 4.236-.75 2.114.618 3.546 2.514 3.917 5.13499997 2.188.486 6.327 2.117 6.327 9.807h-2c0-6.211-2.747-7.521-5.433-7.983-.525-.09-.885-.573-.825-1.098-.166-2.05299997-1.113-3.52199997-2.546-3.94099997-1.182-.345-2.449.116-3.23 1.175-.22.296-.591.449-.952.395-.366-.055-.672-.308-.795-.656-.575-1.626-1.405-2.99-2.468-4.057-1.301-1.305-4.872-4.112-9.911-1.977-2.906 1.231-5.183 4.78-5.183 8.07999997 0 .362.02.723.062 1.076z" fill="#fff" transform="translate(12 21.5)"/></g></svg>