<svg height="80" viewBox="0 0 80 80" width="80" xmlns="http://www.w3.org/2000/svg"><g fill="none" fill-rule="evenodd"><path d="m0 0h80v80h-80z" fill="#ed7100"/><path d="m19.396 5.39025-1-1.732 6.104-3.524c.308-.179.691-.179 1 0l6.103 3.524-1 1.732-5.603-3.235zm11.604 39.361-6 3.464-6-3.464v-6.928l6-3.464 6 3.464zm2-7.505c0-.357-.191-.688-.5-.866l-7-4.042c-.309-.178-.692-.178-1 0l-7 4.042c-.31.178-.5.509-.5.866v3.254h-16v2h16v2.828c0 .358.19.688.5.867l6.5 3.753v5.552h2v-5.552l6.5-3.753c.309-.179.5-.509.5-.867v-2.828h16v-2h-16zm5-12.746h6v-2h-6zm0-5h6v-2h-6zm0-5h6v-2h-6zm-31 0h16v-2h-16zm-5 12h46v-17h-46zm47-19h-48c-.553 0-1 .448-1 1v19c0 .552.447 1 1 1h48c.552 0 1-.448 1-1v-19c0-.552-.448-1-1-1z" fill="#fff" transform="translate(15.0005 12.00005)"/></g></svg>