<svg height="80" viewBox="0 0 80 80" width="80" xmlns="http://www.w3.org/2000/svg"><g fill="none" fill-rule="evenodd"><path d="m0 0h80v80h-80z" fill="#01a88d"/><path d="m26.6372327 21.525-3.8380767-3.837-1.4140283 1.414 3.8380768 3.837zm31.9776396-2.423-1.4150283-1.414-3.8370767 3.837 1.4140282 1.414zm-16.3453269 8.388-1.9810396-.283-2.5580512 17.907 1.9800396.283zm7.4831497 9.412c.2670053-.356.2670053-.845 0-1.2l-3.8370768-5.116-1.599032 1.2 3.3860678 4.516-3.3860678 4.516 1.599032 1.2zm-14.0692814 3.916-3.3870678-4.516 3.3870678-4.516-1.600032-1.2-3.8370768 5.116c-.2660053.355-.2660053.844 0 1.2l3.8370768 5.116zm-1.7560352 22.182h12.145243l-2.1150423 3h-7.9161584zm11.3662274 4.576 3.5240705-5c.2150043-.305.2420048-.705.0700014-1.037-.1720035-.331-.5150103-.539-.8880178-.539h-16.00032c-.3730075 0-.7160143.208-.8870178.539-.1720034.332-.1450029.732.0700014 1.037l3.5230705 5c.1880038.265.4930099.424.8180164.424h8.953179c.3250065 0 .6300126-.159.8170164-.424zm-13.247265-18.824c0-.322-.1540031-.624-.4150083-.812-3.5410708-2.551-5.6551131-7.023-5.6551131-11.964 0-7.863 6.1601232-14.023 14.0232805-14.023 7.8641573 0 14.0242805 6.16 14.0242805 14.023 0 4.941-2.1150423 9.413-5.6561131 11.964-.2600052.188-.4150083.49-.4150083.812v7.015h-15.9063182zm17.9063582 8.015v-7.515c3.8110762-2.967 6.0711214-7.888 6.0711214-13.276 0-8.985-7.0381408-16.023-16.0243205-16.023-8.9851797 0-16.0233205 7.038-16.0233205 16.023 0 5.388 2.2600452 10.309 6.0701214 13.276v7.515c0 .552.447009 1 1.00002 1h17.9063582c.553011 0 1.00002-.448 1.00002-1zm9.2341846-19.767h5.8131163v-2h-5.8131163zm-44.1868837 0h5.8131163v-2h-5.8131163zm23.99948-19h2.00004v-6h-2.00004z" fill="#fff"/></g></svg>