<svg height="80" viewBox="0 0 80 80" width="80" xmlns="http://www.w3.org/2000/svg"><g fill="none" fill-rule="evenodd"><path d="m0 0h80v80h-80z" fill="#dd344c"/><path d="m30.999 36.356-4.258-2.356h-3.742v-2h3v-3.456l-5.609-3.635-3.391 1.707v6.849l5.555 3.703-1.11 1.664-6-4c-.278-.185-.445-.497-.445-.832v-7.382l-2.969-1.484-6.031 3.447v3.801l2.928 1.464 2.072-1.381v-3.465h2v4c0 .335-.167.647-.445.832l-2.555 1.703v3.465c0 .335-.167.647-.445.832l-3 2-1.11-1.664 2.555-1.703v-2.847l-2.94-1.47-3.06 1.948v6.467l3.408 1.524c.361.161.592.519.592.913v4.485l6.092 4.351 2.908-1.454v-8.247l-4.359 3.633-1.282-1.536 5.641-4.701v-1.996l-2.555-1.703 1.11-1.664 3 2c.278.186.445.498.445.832v8h5v2h-5v3.323l3.863 1.546 6.137-4.384v-4.004l-4.625-3.7 1.25-1.562 4.548 3.639 2.827-1.111zm2-.59v7.663c0 .411-.252.78-.635.93l-3.365 1.323v4.318c0 .323-.156.626-.419.814l-7 5c-.172.123-.376.186-.581.186-.125 0-.252-.023-.371-.071l-4.583-1.834-3.599 1.8c-.333.165-.727.132-1.028-.081l-7-5c-.263-.188-.419-.491-.419-.814v-4.352l-3.407-1.525c-.361-.161-.592-.518-.592-.913v-7.663c0-.341.175-.659.463-.843l3.536-2.253v-4.451c0-.359.192-.69.504-.868l7-4c.291-.166.645-.175.943-.026l3.551 1.775 4.005-2.016c.319-.16.696-.139.994.053l6.547 4.243c.284.184.456.5.456.839v4.41l4.484 2.481c.319.176.516.511.516.875zm-13-15.766h2v-14h-2zm7 3h2v-13h-2zm7 5h2v-22h-2zm14-10h2v-8h-2zm-35 1h2v-7h-2zm28 3h2v-10h-2zm0 24c-.119 0-.239-.021-.355-.065-.388-.148-.645-.52-.645-.935v-8h-5v-2h6c.553 0 1 .448 1 1v6.37l6.253-7.035c.189-.213.462-.335.747-.335h3c1.299 0 2-1.583 2-3.073v-27.29c0-1.454-1.106-2.637-2.466-2.637h-40.837c-.42 0-1.697 0-1.697 2.637v18.22h-2v-18.22c0-2.904 1.382-4.637 3.697-4.637h40.837c2.463 0 4.466 2.08 4.466 4.637v27.29c0 2.459-1.402 5.073-4 5.073h-2.551l-7.702 8.665c-.193.217-.467.335-.747.335z" fill="#fff" transform="translate(12 12)"/></g></svg>