<svg height="80" viewBox="0 0 80 80" width="80" xmlns="http://www.w3.org/2000/svg"><g fill="none" fill-rule="evenodd"><path d="m0 0h80v80h-80z" fill="#c925d1"/><path d="m60.9638139 57h2.0103389v-3h-2.0103389zm-3.0155083 0h2.0103389v-3h-2.0103389zm-3.0155084 0h2.0103389v-3h-2.0103389zm11.0568639 8h-24.1240666v-6.586l4.1483343-4.127 5.3454911 3.545c.3075818.206.7046238.224 1.032309.05.3266801-.174.5307295-.513.5307295-.882v-5h13.0672027zm1.0051695-15h-15.0775417c-.5558587 0-1.0051694.448-1.0051694 1v4.131l-4.4679782-2.963c-.3970419-.264-.9287766-.212-1.2685238.125l-5.0258473 5c-.1889718.187-.2945146.442-.2945146.707v8c0 .552.4493107 1 1.0051694 1h26.1344056c.5558587 0 1.0051694-.448 1.0051694-1v-15c0-.552-.4493107-1-1.0051694-1zm-52.2688111-27h-2.0103389v-9c0-.552.4493108-1 1.0051695-1h9.046525v2h-6.620046l7.3307008 7.293-1.4213096 1.414-7.3307008-7.293zm9.7571798 29.707-7.3307007 7.293h6.6200459v2h-9.046525c-.5558587 0-1.0051694-.448-1.0051694-1v-9h2.0103389v6.586l7.3307007-7.293zm26.7234348-30.414 7.3307008-7.293h-6.620046v-2h9.046525c.5558587 0 1.0051694.448 1.0051694 1v9h-2.0103388v-6.586l-7.3307008 7.293zm9.0807008 14.756c0-2.743-3.2235784-5.466-8.6223435-7.284l.6443136-1.894c6.347645 2.137 9.9883688 5.482 9.9883688 9.178s-3.6407238 7.041-9.9883688 9.179l-.6443136-1.895c5.3987651-1.817 8.6223435-4.541 8.6223435-7.284zm-48.2873349 0c0-3.558 3.4246123-6.827 9.3973291-8.97l.6804997 1.881c-5.0509764 1.813-8.0674899 4.463-8.0674899 7.089 0 2.625 3.0165135 5.275 8.0684951 7.089l-.68251 1.881c-5.9717117-2.144-9.396324-5.413-9.396324-8.97zm25.342332 10.951c-5.8812464 0-8.5439403-1.534-8.5439403-2v-2.47c2.1038197 1.051 5.5224009 1.47 8.6183228 1.47 3.0376221 0 6.3928777-.415 8.4695578-1.454v2.454c0 .466-2.6636991 2-8.5439403 2zm-8.5439403-10.47c2.1038197 1.051 5.5224009 1.47 8.6183228 1.47 3.0376221 0 6.3928777-.415 8.4695578-1.454v3.454c0 .551-2.6043941 2-8.4695578 2-6.0249856 0-8.6183228-1.518-8.6183228-2zm0-6.051c2.0505457 1.033 5.3726307 1.521 8.5439403 1.521s6.4933946-.488 8.5439403-1.521v3.521c0 .551-2.6043941 2-8.4695578 2-6.0249856 0-8.6183228-1.518-8.6183228-2zm8.5439403-4.479c5.3826824 0 8.4203044 1.398 8.5429351 2-.1226307.602-3.1602527 2-8.5429351 2-5.3957496 0-8.435382-1.405-8.5439403-1.996.1085583-.599 3.1481907-2.004 8.5439403-2.004zm10.5542791 19v-17c0-2.748-5.4721424-4-10.5542791-4-5.0831419 0-10.5542792 1.252-10.5542792 4v17c0 2.763 5.3002585 4 10.5542792 4 5.2530155 0 10.5542791-1.237 10.5542791-4z" fill="#fff"/></g></svg>