<svg height="80" viewBox="0 0 80 80" width="80" xmlns="http://www.w3.org/2000/svg"><g fill="none" fill-rule="evenodd"><path d="m0 0h80v80h-80z" fill="#7aa116"/><path d="m52.241 40.363c.443 3.036-.322 6.062-2.156 8.522-1.833 2.46-4.516 4.059-7.551 4.502-.563.082-1.125.122001-1.683.122001-2.456.000999-4.836-.784001-6.839-2.278001-2.913-2.171-4.598-5.502-4.624-9.139l2-.014c.022 3.004 1.414 5.756 3.819 7.549 2.031 1.515 4.527 2.148 7.038 1.781 2.507-.366 4.722-1.686 6.236-3.718 1.515-2.032 2.147-4.531 1.781-7.038-.366-2.508-1.686-4.723-3.717-6.237-3.563-2.655-8.796-2.272-12.213.581l1.667-.002.002 2-4 .006h-.001c-.265 0-.52-.105-.707-.293-.188-.187-.293-.442-.293-.707v-3.987h2v1.5c1.667-1.403 3.739-2.372 5.968-2.733 3.157-.511 6.354.229 8.772 2.032 2.46 1.833 4.059 4.515 4.501 7.551m1.759 17.637c-.456 0-.916.065-1.362.19l-2.837-3.79-1.602 1.199 2.634 3.516c-.858.683-1.506 1.659-1.738 2.885h-18.178c-.2-1.261-.794-2.264-1.679-2.956l2.565-3.448-1.606-1.193-2.808 3.774c-.435-.101-.891-.172-1.389-.172-.43 0-.832.049-1.217.125l-5.819-19.447c.884-.304 1.59-.833 2.104-1.542l4.567 1.79.73-1.862-4.507-1.767c.084-.409.142-.837.142-1.302 0-1.096-.264-2.045-.733-2.819l15.084-10.558c.671.675 1.574 1.118 2.649 1.288v5.089h2v-5.086c1.091-.165 1.996-.6 2.665-1.273l15.029 10.659c-.439.757-.694 1.664-.694 2.7 0 .42.056.843.16 1.259l-4.531 1.812.742 1.857 4.64-1.856c.606.817 1.482 1.457 2.606 1.749l-7.314 19.204c-.103-.005-.198-.025-.303-.025m0 8c-1.963 0-3-1.038-3-3 0-1.878 1.525-3 3-3 1.934 0 3 1.065 3 3 0 1.962-1.037 3-3 3m-28 0c-1.906 0-3-1.094-3-3 0-1.931 1.065-2.995 3-2.995 2.479 0 3 1.629 3 2.995 0 1.934-1.066 3-3 3m-12-32c0-1.935 1.065-3 3-3 1.934 0 3 1.065 3 3 0 1.962-1.037 3-3 3-1.99 0-3-1.01-3-3m26-20c1.963 0 3 1.037 3 3 0 1.959-1.037 2.994-3 2.994-1.935 0-3-1.063-3-2.994 0-1.935 1.065-3 3-3m23 17c1.934 0 3 1.065 3 3 0 1.934-1.066 3-3 3-1.948 0-3-1.546-3-3 0-1.907 1.094-3 3-3m5 3c0-3.038-1.963-5-5-5-1.14 0-2.134.295-2.932.822l-15.373-10.902c.192-.576.305-1.213.305-1.92 0-3.084-1.916-5-5-5-3.037 0-5 1.962-5 5 0 .699.115 1.334.312 1.908l-15.475 10.833c-.778-.476-1.734-.741-2.837-.741-3.037 0-5 1.962-5 5 0 3.073 1.904 4.985 4.97 4.997l5.959 19.912c-1.215.857-1.929 2.275-1.929 4.091 0 3.037 1.963 5 5 5 2.687 0 4.527-1.541 4.917-4h18.166c.389 2.459 2.229 4 4.917 4 3.037 0 5-1.963 5-5 0-2.183-1.026-3.796-2.723-4.539l7.435-19.52c2.621-.29 4.288-2.152 4.288-4.941" fill="#fff"/></g></svg>