<svg height="80" viewBox="0 0 80 80" width="80" xmlns="http://www.w3.org/2000/svg"><g fill="none" fill-rule="evenodd"><path d="m0 0h80v80h-80z" fill="#e7157b"/><path d="m37.9997933 23h3.9995308v-2h-3.9995308zm-6.9991789 0h3.9995308v-2h-3.9995308zm-6.9991789 0h3.9995308v-2h-3.9995308zm41.7051074 28.356c-.3029645.706-.9398898 1.239-1.7097994 1.488v-5.651c.6069288.216 1.1448657.605 1.5108227 1.161.5729328.871.6469241 1.965.1989767 3.002zm-50.4130858 0c-.4479474-1.037-.374956-2.131.1989767-3.002.365957-.556.9038939-.945 1.5098228-1.161v5.652c-.7689097-.249-1.405835-.783-1.7087995-1.489zm51.8839132-4.102c-.740913-1.127-1.8897783-1.882-3.1806268-2.145v-1.776c0-3.492-2.6906844-6.333-5.9992962-6.333h-18.9977713v2h18.9977713c2.2067411 0 3.9995308 1.944 3.9995308 4.333v13.334c0 2.389-1.7927897 4.333-3.9995308 4.333h-34.9958945c-2.2057412 0-3.9995308-1.944-3.9995308-4.333v-13.334c0-2.389 1.7937896-4.333 3.9995308-4.333h4.9994135v-2h-4.9994135c-3.3076119 0-5.9992962 2.841-5.9992962 6.333v1.776c-1.2908485.263-2.4387139 1.018-3.1796269 2.145-.9498886 1.443-1.0838729 3.227-.366957 4.893.6249267 1.451 1.9617699 2.467 3.5465839 2.763v1.757c0 3.492 2.6916843 6.333 5.9992962 6.333h11.9985924v6h1.9997654v-6h5.9992962v6h1.9997654v-6h12.9984751c3.3086118 0 5.9992962-2.841 5.9992962-6.333v-1.757c1.5868138-.296 2.923657-1.312 3.5475838-2.763.7169159-1.666.5829316-3.45-.366957-4.893zm-35.1768732 2.746c0 1.654-1.3448422 3-2.9996481 3-1.653806 0-2.9996481-1.346-2.9996481-3s1.3458421-3 2.9996481-3c1.6548059 0 2.9996481 1.346 2.9996481 3zm-7.9990616 0c0 2.757 2.2437368 5 4.9994135 5 2.7566766 0 4.9994135-2.243 4.9994135-5s-2.2427369-5-4.9994135-5c-2.7556767 0-4.9994135 2.243-4.9994135 5zm24.9970675 0c0-1.654 1.3458421-3 2.9996481-3 1.6548059 0 2.9996481 1.346 2.9996481 3s-1.3448422 3-2.9996481 3c-1.653806 0-2.9996481-1.346-2.9996481-3zm7.9990616 0c0-2.757-2.2427369-5-4.9994135-5-2.7556767 0-4.9994135 2.243-4.9994135 5s2.2437368 5 4.9994135 5c2.7566766 0 4.9994135-2.243 4.9994135-5zm-36.9956599-35.148c0-.47.3819552-.852.8519001-.852h25.1450501v16.117c0 .487-.3959535.883-.8818965.883h-10.1168132c-.5519352 0-.9998827.448-.9998827 1v5.188l-4.4194815-5.794c-.1899777-.248-.4839432-.394-.7949068-.394h-7.9320694c-.4699449 0-.8519001-.382-.8519001-.852zm.8519001 18.148h7.4371275l5.9153061 7.753c.1919774.253.4889426.394.7939068.394.1079873 0 .2149748-.017.3209624-.053.4059523-.137.6789203-.518.6789203-.947v-7.147h9.1169305c1.5898135 0 2.8816619-1.293 2.8816619-2.883v-16.593c0-.84-.6829199-1.524-1.5238212-1.524h-25.6209943c-1.5718156 0-2.8516655 1.279-2.8516655 2.852v15.296c0 1.573 1.2798499 2.852 2.8516655 2.852z" fill="#fff"/></g></svg>