<svg height="80" viewBox="0 0 80 80" width="80" xmlns="http://www.w3.org/2000/svg"><g fill="none" fill-rule="evenodd"><path d="m0 0h80v80h-80z" fill="#7aa116"/><path d="m63 53.404206-22.989 12.4528242-22.011-12.4408244v-26.8326212l22.011-12.4398244 22.989 12.4518242zm1.477-28.2836008-24-12.9998165c-.305-.1639977-.67-.1609977-.969.0089999l-23 12.9998165c-.314.1769975-.508.5099928-.508.8709877v27.9996048c0 .3599949.194.6929902.508.8699877l23 12.9998165c.152.0869988.322.1299982.492.1299982.164 0 .328-.0399994.477-.1209983l24-12.9998165c.322-.1749975.523-.5119928.523-.8789876v-27.9996048c0-.3669948-.201-.70499-.523-.8799876zm-8.619 17.6317512c0 5.6359204-4.585 10.2208557-10.22 10.2208557-1.239 0-2.458-.2409966-3.609-.6749905 1.75-1.3929803 3.079-3.2309544 3.841-5.3359247 2.306-.1919973 4.13-2.1079702 4.13-4.461937 0-.7189898-.186-1.3899804-.486-1.9929719 1.308-1.6929761 2.122-3.7019477 2.384-5.8289177 2.471 1.9219729 3.96 4.9039308 3.96 8.0738861zm-31.662 0c0-3.1479556 1.472-6.1089138 3.913-8.0308867.269 2.0999704 1.08 4.0909423 2.381 5.7769185-.303.6059914-.49 1.2789819-.49 2.0019717 0 2.3739665 1.854 4.3039393 4.187 4.467937.762 2.1019703 2.089 3.9379444 3.838 5.3299247-1.15.4339939-2.37.6749905-3.608.6749905-5.636 0-10.221-4.5849353-10.221-10.2208557zm23.995-3.8369459c-.707-.5319925-1.567-.8579879-2.508-.8969873-.339-.8089886-.778-1.5809777-1.288-2.3049675.374-.6569907.605-1.4049802.605-2.2129688 0-.3189954-.035-.6279911-.099-.9279869 1.761-.1259982 3.511.1949973 5.084.9349868-.059 1.9589724-.684 3.828946-1.794 5.4079237zm-2.691 6.0849141c-1.379 0-2.5-1.1219841-2.5-2.4999647 0-1.3789805 1.121-2.4999647 2.5-2.4999647s2.5 1.1209842 2.5 2.4999647c0 1.3779806-1.121 2.4999647-2.5 2.4999647zm-11-4.9999294c1.379 0 2.5 1.1209842 2.5 2.4999647 0 1.3779806-1.121 2.4999647-2.5 2.4999647s-2.5-1.1219841-2.5-2.4999647c0-1.3789805 1.121-2.4999647 2.5-2.4999647zm1.761-5.0509287c-.775.9319868-1.422 1.9609723-1.886 3.0629568-.961.0269996-1.84.3579949-2.56.8969873-1.107-1.5779777-1.734-3.4359515-1.799-5.3739241 1.864-.8909875 3.977-1.1959832 6.067-.853988-.05.2659963-.083.5379924-.083.8189884 0 .5089929.104.9909861.261 1.4489796zm6.739-1.4489796c0 1.3779806-1.121 2.4999648-2.5 2.4999648s-2.5-1.1219842-2.5-2.4999648c0-1.3789805 1.121-2.4999647 2.5-2.4999647s2.5 1.1209842 2.5 2.4999647zm-2 8.999873c0 .3069957.031.6069915.091.8969874-.718.0749989-1.458.0769989-2.181-.003.059-.2889959.09-.5879917.09-.8939874 0-1.8039745-1.072-3.3509527-2.607-4.0689426.277-.5919916.599-1.1659835.989-1.698976.809.780989 1.906 1.2679821 3.118 1.2679821.925 0 1.785-.281996 2.5-.7619892.243.3769947.461.7669892.65 1.1699835-1.558.70799-2.65 2.2709679-2.65 4.0919422zm-.973 8.7828761c-1.722-1.1329841-3.052-2.7379614-3.822-4.6229348.722-.2979958 1.338-.7859889 1.816-1.3909804.656.1129984 1.325.1879974 2.009.1879974.67 0 1.321-.072999 1.956-.1799975.488.6139914 1.119 1.1039844 1.859 1.3979803-.772 1.8779735-2.099 3.4789509-3.818 4.607935zm-.022-28.0896036c4.825 0 8.899 3.4989506 9.802 8.077886-1.852-.6709905-3.858-.8909874-5.85-.6169913-.826-1.0009859-2.061-1.6539766-3.457-1.6539766-1.465 0-2.756.7139899-3.578 1.7999746-2.278-.4729934-4.609-.286996-6.731.493993.9-4.5969351 4.981-8.1008857 9.814-8.1008857zm0-1.9999717c-6.285 0-11.51 4.9399302-11.96 11.1518425-3.609 2.2149688-5.849 6.164913-5.849 10.4068532 0 6.7379049 5.483 12.2208275 12.221 12.2208275 1.957 0 3.879-.4939931 5.61-1.3909804 1.732.8969873 3.654 1.3909804 5.611 1.3909804 6.738 0 12.22-5.4829226 12.22-12.2208275 0-4.2649398-2.261-8.2368838-5.904-10.4448526-.461-6.1859127-5.676-11.1138431-11.949-11.1138431z" fill="#fff"/></g></svg>