<svg height="80" viewBox="0 0 80 80" width="80" xmlns="http://www.w3.org/2000/svg"><g fill="none" fill-rule="evenodd"><path d="m0 0h80v80h-80z" fill="#8c4fff"/><path d="m65.11775 60.122c-1.133 1.133-3.109 1.133-4.242 0-1.17-1.17-1.17-3.073 0-4.243.566-.567 1.319-.879 2.121-.879s1.555.312 2.121.879c1.17 1.17 1.17 3.073 0 4.243zm-2.121-7.122c-.996 0-1.946.291-2.757.829l-4.536-4.536-1.414 1.414 4.536 4.537c-1.283 1.94-1.071 4.585.636 6.292.944.944 2.199 1.464 3.535 1.464s2.591-.52 3.535-1.464c1.949-1.95 1.949-5.122 0-7.071-.944-.945-2.199-1.465-3.535-1.465zm-2.121-33.121c.566-.567 1.319-.879 2.121-.879s1.555.312 2.121.879c1.17 1.17 1.17 3.073 0 4.243-1.133 1.133-3.109 1.133-4.242 0-1.17-1.17-1.17-3.073 0-4.243zm-5.172 10.828 4.536-4.536c.811.539 1.761.829 2.757.829 1.336 0 2.591-.52 3.535-1.464 1.949-1.95 1.949-5.122 0-7.071-.944-.945-2.199-1.465-3.535-1.465s-2.591.52-3.535 1.465c-1.707 1.707-1.919 4.352-.636 6.292l-4.536 4.536zm-36.586 29.415c-1.133 1.133-3.109 1.133-4.242 0-1.17-1.17-1.17-3.073 0-4.243.566-.567 1.319-.879 2.121-.879s1.555.312 2.121.879c1.17 1.17 1.17 3.073 0 4.243zm5.172-10.829-4.536 4.536c-.811-.538-1.761-.829-2.757-.829-1.336 0-2.591.52-3.535 1.465-1.949 1.949-1.949 5.121 0 7.071.944.944 2.199 1.464 3.535 1.464s2.591-.52 3.535-1.464c1.707-1.707 1.919-4.352.636-6.292l4.536-4.537zm15.707-8.293c.827 0 1.5.673 1.5 1.5 0 .828-.673 1.5-1.5 1.5s-1.5-.672-1.5-1.5c0-.827.673-1.5 1.5-1.5zm-.969 4.847v3.153h2v-3.172c1.425-.444 2.469-1.759 2.469-3.328 0-1.929-1.57-3.5-3.5-3.5s-3.5 1.571-3.5 3.5c0 1.592 1.074 2.924 2.531 3.347zm-24.152-21.725c-1.17-1.17-1.17-3.073 0-4.243.566-.567 1.319-.879 2.121-.879s1.555.312 2.121.879c1.17 1.17 1.17 3.073 0 4.243-1.133 1.133-3.109 1.133-4.242 0zm5.656-5.657c-.944-.945-2.199-1.465-3.535-1.465s-2.591.52-3.535 1.465c-1.949 1.949-1.949 5.121 0 7.071.944.944 2.199 1.464 3.535 1.464.996 0 1.946-.29 2.757-.829l4.536 4.536 1.414-1.414-4.536-4.536c1.283-1.94 1.071-4.585-.636-6.292zm8.465 33.535h22v-15h-22zm4.976-21.047c0-1.628 1.357-2.953 3.024-2.953h5.976c1.667 0 3.024 1.325 3.024 2.953v4.047h-12.024zm9.024 32.047c0 1.655-1.346 3-3 3s-3-1.345-3-3c0-1.654 1.346-3 3-3s3 1.346 3 3zm-6-46c0-1.654 1.346-3 3-3s3 1.346 3 3c0 1.655-1.346 3-3 3s-3-1.345-3-3zm14.257 18h-3.257v-4.047c0-2.731-2.254-4.953-5.024-4.953h-1.976v-4.101c2.279-.464 4-2.484 4-4.899 0-2.756-2.243-5-5-5s-5 2.244-5 5c0 2.415 1.721 4.435 4 4.899v4.101h-2c-2.77 0-5.024 2.222-5.024 4.953v4.047h-3.233c-.961 0-1.743.771-1.743 1.718v15.565c0 .947.782 1.717 1.743 1.717h10.257v4.101c-2.279.465-4 2.485-4 4.899 0 2.757 2.243 5 5 5s5-2.243 5-5c0-2.414-1.721-4.434-4-4.899v-4.101h11c.553 0 1-.447 1-1v-16.282c0-.947-.782-1.718-1.743-1.718z" fill="#fff"/></g></svg>