<svg height="80" viewBox="0 0 80 80" width="80" xmlns="http://www.w3.org/2000/svg"><g fill="none" fill-rule="evenodd"><path d="m0 0h80v80h-80z" fill="#dd344c"/><path d="m37 38c-2.43 0-4-1.57-4-4s1.57-4 4-4 4 1.57 4 4-1.57 4-4 4zm15-5h-9.076c-.423-2.988-2.736-5-5.924-5-3.532 0-6 2.467-6 6s2.468 6 6 6c3.188 0 5.501-2.012 5.924-5h9.076zm-25 1c0 5.595 4.393 9.979 10 9.979 4.01 0 7.563-2.865 9.052-7.297l1.896.636c-1.767 5.261-6.064 8.661-10.948 8.661-6.617 0-12-5.374-12-11.979 0-6.617 5.383-12 12-12 5.239 0 9.332 2.872 10.948 7.682l-1.896.636c-1.349-4.015-4.648-6.318-9.052-6.318-5.514 0-10 4.486-10 10zm-13 11h3v-5h-3zm0-18h3v-5h-3zm5 19v-7-11-7-6h37v27h2v-27c0-1.845-1.032-2-2-2h-37c-.968 0-2 .155-2 2v5h-4c-.553 0-1 .448-1 1v7c0 .552.447 1 1 1h4v9h-4c-.553 0-1 .448-1 1v7c0 .552.447 1 1 1h4v6c0 1.551.448 2 2 2h21v-2h-21zm47 20h-1.586l-1.707-1.707c-.187-.188-.441-.293-.707-.293h-2v-1c0-.265-.105-.52-.293-.707l-1-1c-.187-.188-.441-.293-.707-.293h-2v-2c0-.265-.105-.52-.293-.707l-1.54-1.541c-.062-.071-.135-.135-.216-.188-.285-.184-.645-.21-.955-.07-.783.355-1.619.535-2.485.535-3.317 0-6.015-2.698-6.015-6.014 0-3.317 2.698-6.015 6.015-6.015 3.316 0 6.014 2.698 6.014 6.015 0 1.068-.146 1.934-.436 2.572-.172.379-.091.826.204 1.12l9.707 9.707zm1.707-2.707-9.545-9.545c.241-.777.363-1.693.363-2.733 0-4.42-3.595-8.015-8.014-8.015s-8.015 3.595-8.015 8.015c0 4.419 3.596 8.014 8.015 8.014.915 0 1.804-.151 2.654-.449l.835.834v2.586c0 .552.447 1 1 1h2.586l.414.414v1.586c0 .552.447 1 1 1h2.586l1.707 1.707c.187.188.441.293.707.293h3c.553 0 1-.448 1-1v-3c0-.265-.105-.52-.293-.707zm-17.196-11.264c-.56 0-1.015-.455-1.015-1.014 0-.56.455-1.015 1.015-1.015.559 0 1.014.455 1.014 1.015 0 .559-.455 1.014-1.014 1.014zm0-4.029c-1.662 0-3.015 1.353-3.015 3.015s1.353 3.014 3.015 3.014 3.014-1.352 3.014-3.014-1.352-3.015-3.014-3.015z" fill="#fff"/></g></svg>