<svg height="80" viewBox="0 0 80 80" width="80" xmlns="http://www.w3.org/2000/svg"><g fill="none" fill-rule="evenodd"><path d="m0 0h80v80h-80z" fill="#ed7100"/><path d="m48.0294313 15.7523629c-.447-.721-.938-1.401-1.472-2.036l6.553-2.721c.4.629.993 1.576 1.458 2.379zm-5.069 12.523c-.033-2.506-.608-4.976-1.694-7.263l6.479-2.359c1.01 2.285 1.658 4.693 1.933 7.18zm9.631-1.373 1.402-.51c.094 3.724-.678 7.439-2.257 10.82-5.665 12.151-20.16 17.429-32.311 11.763-3.385-1.579-6.365-3.93-8.685-6.842l6.966-2.537c1.358 1.293 2.91 2.352 4.621 3.151 4.218 1.967 8.955 2.172 13.337.576 4.383-1.595 7.88-4.797 9.845-9.015.8-1.71 1.291-3.518 1.499-5.376zm-50.38500004 8.327 6.478-2.359c.636 2.446 1.78300004 4.709 3.37200004 6.655l-6.71800004 2.445c-1.382-2.077-2.433-4.338-3.132-6.741zm13.63300004-10.083c.01.749.07 1.502.177 2.255l-6.56100004 2.39c-.155-.744-.273-1.477-.355-2.194zm23.145-4.199c1.491 2.675 2.16 5.682 1.935 8.697-.026.338.123.667.393.872.176.133.389.203.604.203.115 0 .23-.02.342-.06l2.628-.956c-.233 1.293-.626 2.553-1.189 3.759-1.74 3.735-4.837 6.569-8.718 7.982-3.879 1.412-8.073 1.231-11.806-.51-1.689-.788-3.203-1.863-4.498-3.192-.275-.282-.691-.376-1.058-.242l-3.544 1.291c-1.829-2.042-3.08-4.523-3.634-7.231l7.043-2.564c.462-.168.733-.646.641-1.128-.264-1.37-.345-2.746-.243-4.091.025-.338-.122-.667-.393-.872s-.626-.257-.946-.143l-2.138.778c.232-1.307.621-2.565 1.175-3.754 3.598-7.719 12.806-11.07000001 20.527-7.472 1.659.775 3.169 1.852 4.487 3.199.285.294.721.383 1.098.224l2.918-1.212c.681.744 1.278 1.584 1.817 2.48l-6.91 2.516c-.275.1-.493.316-.595.59-.102.275-.079.58.064.836zm-33.70800004 5.913c-.088-3.724.686-7.44 2.263-10.824 5.66700004-12.14800001 20.16100004-17.42500001 32.31300004-11.76100001 3.266 1.525 6.162 3.783 8.447 6.55200001l-6.763 2.809c-1.368-1.299-2.908-2.351-4.585-3.134-8.722-4.06600001-19.121-.279-23.186 8.439-.785 1.685-1.272 3.491-1.484 5.371zm51.62400004-13.379c-.639-1.318-2.484-4.15600001-2.562-4.27600001-.264-.405-.778-.562-1.222-.378l-2.894 1.20100001c-2.528-3.21400001-5.805-5.82800001-9.524-7.56500001-13.148-6.131-28.839-.421-34.97200004 12.72800001-1.91 4.097-2.731 8.644-2.376 13.15.025.312.194.594.456.763s.588.204.883.099l2.484-.904c.122.916.304 1.853.532 2.8l-7.047 2.566c-.483.175-.753.687-.628 1.184.811 3.215 2.193 6.212 4.107 8.904.193.27.499.421.816.421.114 0 .229-.019.342-.06l3.484-1.267c2.56700004 3.395 5.93500004 6.137 9.80000004 7.94 3.587 1.672 7.361 2.464 11.079 2.464 9.917-.001 19.431-5.629 23.891-15.192 1.912-4.096 2.731-8.642 2.368-13.149-.026-.311-.195-.592-.457-.761-.263-.168-.588-.204-.882-.098l-2.67.971-.299.109c-.347-2.683-1.112-5.274-2.254-7.733l6.987-2.542c.265-.097.478-.301.584-.563.107-.263.097-.558-.026-.812z" fill="#fff" transform="translate(11.5 13)"/></g></svg>