<svg height="80" viewBox="0 0 80 80" width="80" xmlns="http://www.w3.org/2000/svg"><g fill="none" fill-rule="evenodd"><path d="m0 0h80v80h-80z" fill="#ed7100"/><path d="m17.892181 2.01475c.055-.07.151-.086.231.016l10.075 12.315c-2.355-.553-5.898-1.152-10.197-1.152-4.107 0-7.503.592-9.773 1.143zm-12.025 15.109c.048-.018 5.019-1.93 12.134-1.93 7.428 0 12.595 1.916 12.647 1.935.115.043.234.065.352.065.316 0 .621-.15.813-.417.265-.367.249-.866-.037-1.216l-12.091-14.78c-.816-1.041-2.551-1.041-3.367 0l-11.604 14.796c-.278.354-.284.851-.014 1.213.268.363.746.5 1.167.334zm9.134 37.07h5v-2h-5zm-4-2h2v3c0 .552.448 1 1 1h7c.553 0 1-.448 1-1v-3h2v-2h-13zm22-5.439-5.568-5.442c.391-1.711.459-3.79.459-6.119v-6.494l5.109 5.917zm1.757-13.164-6.844-7.926-.022.02v-7.491h-1.891v17c0 7.317-.934 9-5 9-.552 0-1 .447-1 1v4h1.891v-3.039c2.477-.204 3.934-1.201 4.793-2.777l6.617 6.468c.191.187.444.285.699.285.131 0 .263-.025.388-.078.371-.156.612-.519.612-.922v-14.887c0-.24-.086-.471-.243-.653zm-32.866 13.164v-12.138l5.109-5.917v6.494c0 2.329.069 4.408.459 6.119zm11.109-.6v3.039h2v-4c0-.553-.447-1-1-1-4.065 0-5-1.683-5-9v-17h-2v7.491l-.022-.02-6.844 7.926c-.157.182-.134.413-.134.653v14.887c0 .403.132.766.503.922.125.053.257.078.388.078.256 0 .509-.098.699-.285l6.617-6.468c.86 1.576 2.317 2.573 4.793 2.777zm0-14.012v-3.741l3 1.25v4.223zm4.5-7.795 3.631 2.097-3.648 1.658-3.768-1.569zm.5 10.105v-4.388l4-1.819v3.897zm-1.984 1.741.984.568c.155.089.328.134.5.134.173 0 .346-.045.5-.134l5.5-3.176c.31-.178.5-.509.5-.866v-6.351c0-.357-.19-.687-.5-.866l-5.5-3.176c-.308-.177-.691-.177-1 0l-5.5 3.176c-.309.179-.5.509-.5.866v6.351c0 .357.191.688.5.866l4.5 2.599v.009z" fill="#fff" transform="translate(22 12)"/></g></svg>