<svg height="80" viewBox="0 0 80 80" width="80" xmlns="http://www.w3.org/2000/svg"><g fill="none" fill-rule="evenodd"><path d="m0 0h80v80h-80z" fill="#01a88d"/><path d="m52 26.9998918c-1.103 0-2-.897-2-2s.897-2 2-2 2 .897 2 2-.897 2-2 2zm-31.887 26.908-3.248-1.894 6.665-4.166-1.06-1.696-7.557 4.723-5.913-3.449v-8.891l5.555-3.703-1.11-1.664-5.486 3.657-5.959-3.405v-4.84l6.496-3.712-.992-1.736-5.504 3.145v-3.697l6-3.428 6 3.428v3.854l-4.515 2.709 1.03 1.714 4.485-2.691 4.485 2.691 1.03-1.714-4.515-2.709v-3.899l5.555-3.703c.278-.186.445-.498.445-.832v-7h-2v6.465l-5.041 3.36-5.959-3.405v-8.84599999l5-2.916v8.34199999h2v-9.50899999l4.113-2.399 7.887 2.629v28.71299999l-14.515 8.709 1.03 1.714 13.485-8.091v15.513zm29.887-15.908c0 1.103-.897 2-2 2s-2-.897-2-2 .897-2 2-2 2 .897 2 2zm-10 10c0 1.103-.897 2-2 2s-2-.897-2-2 .897-2 2-2 2 .897 2 2zm-1-39.99999999c0-1.103.897-2 2-2s2 .897 2 2-.897 2-2 2-2-.897-2-2zm13 12.99999999c-1.859 0-3.411 1.28-3.858 3h-18.142v-5h11c.553 0 1-.448 1-1v-6.142c1.72-.447 3-1.99999999 3-3.85799999 0-2.206-1.794-4-4-4s-4 1.794-4 4c0 1.858 1.28 3.41099999 3 3.85799999v5.142h-10v-12.99999999c0-.431-.275-.812-.684-.949l-9-3c-.274-.09-.572-.06-.82.085l-12 7c-.308.179-.496.509-.496.864v9.41999999l-6.496 3.712c-.312.178-.504.509-.504.868v12c0 .359.192.69.504.868l6.496 3.712v9.42c0 .355.188.685.496.864l12 7c.154.09.329.136.504.136.106 0 .213-.017.316-.051l9-3c.409-.137.684-.518.684-.949v-12h7v4.142c-1.72.447-3 2-3 3.858 0 2.206 1.794 4 4 4s4-1.794 4-4c0-1.858-1.28-3.411-3-3.858v-5.142c0-.552-.447-1-1-1h-8v-5h12.5l2.138 2.85c-.399.622-.638 1.357-.638 2.15 0 2.206 1.794 4 4 4s4-1.794 4-4-1.794-4-4-4c-.684 0-1.318.188-1.881.492l-2.319-3.092c-.189-.252-.486-.4-.8-.4h-13v-5h18.142c.447 1.72 1.999 3 3.858 3 2.206 0 4-1.794 4-4s-1.794-4-4-4z" fill="#fff" transform="translate(12 12)"/></g></svg>