<svg height="80" viewBox="0 0 80 80" width="80" xmlns="http://www.w3.org/2000/svg"><g fill="none" fill-rule="evenodd"><path d="m0 0h80v80h-80z" fill="#7aa116"/><path d="m59.4955965 44.0697674c-1.9315453 0-3.5028023-1.573777-3.5028023-3.5084202 0-1.9346431 1.571257-3.5084202 3.5028023-3.5084202 1.9315452 0 3.5028022 1.5737771 3.5028022 3.5084202 0 1.9346432-1.571257 3.5084202-3.5028022 3.5084202m-8.2345877 13.0342823c-3.7920336 3.7991179-8.830064 5.8911388-14.1833467 5.8911388-3.7890312 0-7.4479583-1.0675622-10.6285028-3.0693665.2532026-.543304.4263411-1.1307137.4913931-1.7522053l28.072458-14.4236167c.5064051.7117081 1.17494 1.2971131 1.9535629 1.702085-.56245 4.3865277-2.5680545 8.5084202-5.7055645 11.6519647m-29.7958367 4.0066159c-1.9315452 0-3.5028022-1.5737771-3.5028022-3.5084202 0-1.9346432 1.571257-3.5084202 3.5028022-3.5084202 1.9315453 0 3.5028023 1.573777 3.5028023 3.5084202 0 1.9346431-1.571257 3.5084202-3.5028023 3.5084202m-4.4635708-18.223737c0-5.3628709 2.0886709-10.4079791 5.8817053-14.207097 3.1485189-3.1535686 7.2818255-5.1633921 11.6743395-5.7137129.3893115.7808741.9567654 1.4544908 1.6513211 1.9707297l-13.9391513 27.2173216c-.2632106-.0380914-.5314252-.0651564-.8046438-.0651564-.7135708 0-1.3951161.1413392-2.0216173.3899359-1.5972778-2.9270249-2.4419535-6.2159182-2.4419535-9.5920209m22.4779824-25.8821171c1.9315452 0 3.5028022 1.5737771 3.5028022 3.5084203 0 1.9346431-1.571257 3.5084202-3.5028022 3.5084202-1.9315453 0-3.5028023-1.5737771-3.5028023-3.5084202 0-1.9346432 1.571257-3.5084203 3.5028023-3.5084203m11.0528422 10.9883721-25.4353482 25.4771452c-.281225-.2485966-.58747-.4691259-.9157326-.6565758l13.8240592-26.9937851c.4703763.1313152.9627702.2064956 1.4741794.2064956 1.7373899 0 3.2876301-.8129511 4.2974379-2.0769848 2.4789832.8771051 4.7838271 2.2564154 6.7554043 4.0437049m6.9615693-8.9835605c1.9315452 0 3.5028022 1.5737771 3.5028022 3.5084202s-1.571257 3.5084202-3.5028022 3.5084202-3.5028022-1.5737771-3.5028022-3.5084202 1.571257-3.5084202 3.5028022-3.5084202m-3.5028022 21.5517241c0 .474138.0660528.931235.1791433 1.3692863l-27.4329464 14.0948276c-.1010809-.3378107-.2341873-.6615878-.3943154-.968324l25.6034827-25.6475541c1.8094476 2.0018043 3.1995597 4.3494387 4.0782627 6.877506-1.239992 1.0124298-2.0336269 2.5511227-2.0336269 4.2742582m5.5044035-5.5132317c-.5884708 0-1.1529224.0952285-1.6863491.2666399-.978783-2.6874499-2.4939952-5.1764234-4.4335468-7.3075381l.993795-.9552927c.888711.6164796 1.9645717.9793505 3.1244996.9793505 3.0344275 0 5.5044035-2.4729351 5.5044035-5.5132318s-2.469976-5.5132318-5.5044035-5.5132318-5.5044035 2.4729351-5.5044035 5.5132318c0 1.1547715.3572858 2.2273456.9667734 3.1144747l-.993795.9562952c-2.1116894-1.9336408-4.573659-3.4482759-7.2287831-4.431636.1621297-.5192462.2502002-1.0715717.2502002-1.6439454 0-3.0402968-2.469976-5.5132318-5.5044035-5.5132318-3.0344276 0-5.5044036 2.472935-5.5044036 5.5132318 0 .1724137.0100081.3418203.0250201.5102245-4.7157727.6605854-9.1433147 2.8448276-12.5320257 6.2389735-4.171337 4.1770249-6.4681745 9.7263433-6.4681745 15.6244988 0 3.7540097.9517614 7.4107859 2.7502002 10.659583-1.0968775 1.0084202-1.7894316 2.4508821-1.7894316 4.0557338 0 3.0402967 2.469976 5.5132317 5.5044035 5.5132317 1.4831866 0 2.8302642-.5944266 3.8210569-1.5537289 3.5228182 2.2433841 7.585068 3.4382518 11.7914331 3.4382518 5.888711 0 11.4291433-2.3015237 15.5994796-6.4785485 3.3706966-3.3761027 5.547438-7.781676 6.2239792-12.4799519.1961569.0210505.3933146.0330794.5944756.0330794 3.0344275 0 5.5044035-2.4729351 5.5044035-5.5132318s-2.469976-5.5132317-5.5044035-5.5132317" fill="#fff"/></g></svg>