<svg height="80" viewBox="0 0 80 80" width="80" xmlns="http://www.w3.org/2000/svg"><g fill="none" fill-rule="evenodd"><path d="m0 0h80v80h-80z" fill="#ed7100"/><path d="m40.2258065 58.897c1.2389112 0 2.2449596.997 2.2449596 2.227s-1.0060484 2.227-2.2449596 2.227c-1.2389113 0-2.2449597-.997-2.2449597-2.227s1.0060484-2.227 2.2449597-2.227m-18.9243952-18.021c0 1.23-1.0060484 2.227-2.2449597 2.227s-2.2449597-.997-2.2449597-2.227c0-1.229 1.0060484-2.227 2.2449597-2.227s2.2449597.998 2.2449597 2.227m40.077621 25.124c-2.5816533 0-4.6038307-1.934-4.6038307-4.402 0-2.518 2.0655242-4.567 4.6038307-4.567 2.5393145 0 4.6048387 2.049 4.6048387 4.567 0 2.468-2.0221775 4.402-4.6048387 4.402m-4.6038307-25c0-2.518 2.0655242-4.567 4.6038307-4.567 2.5393145 0 4.6048387 2.049 4.6048387 4.567s-2.0655242 4.567-4.6048387 4.567c-2.5383065 0-4.6038307-2.049-4.6038307-4.567m-16.5493951 4.567c-2.5393146 0-4.6038307-2.049-4.6038307-4.567s2.0645161-4.567 4.6038307-4.567c2.5393145 0 4.6038306 2.049 4.6038306 4.567s-2.0645161 4.567-4.6038306 4.567m5.0403225 15.433c0 2.851-2.1663306 5-5.0403225 5-2.873992 0-5.0403226-2.149-5.0403226-5s2.1663306-5 5.0403226-5c2.8739919 0 5.0403225 2.149 5.0403225 5m-11.0887096-40c0-3.14 2.8820564-6 6.0483871-6 3.1663306 0 6.048387 2.86 6.048387 6s-2.8820564 6-6.048387 6c-3.1663307 0-6.0483871-2.86-6.0483871-6m-15.1209678 25c-2.8739919 0-5.0403226-2.149-5.0403226-5 0-2.894 2.2610887-5.248 5.0403226-5.248s5.0403226 2.354 5.0403226 5.248c0 2.851-2.1663307 5-5.0403226 5m4.5887097 15.564c0 2.487-2.0221774 4.436-4.6048387 4.436-2.5816532 0-4.6038307-1.949-4.6038307-4.436 0-2.519 2.0655242-4.567 4.6038307-4.567 2.5393145 0 4.6048387 2.048 4.6048387 4.567m38.7419355-6.449v-7.633c3.172379-.483 5.6129032-3.202 5.6129032-6.482 0-3.621-2.9707661-6.567-6.6209677-6.567-3.3064517 0-6.0473791 2.42-6.5342742 5.567h-8.0846775c-.4364919-2.82-2.6834677-5.049-5.5262096-5.482v-5.595c3.859879-.526 7.0564516-3.999 7.0564516-7.923 0-4.262-3.7681452-8-8.0645161-8-4.296371 0-8.0645162 3.738-8.0645162 8 0 3.924 3.1965726 7.397 7.0564516 7.923v5.595c-2.8427419.433-5.0897177 2.662-5.5262096 5.482h-7.6532258c-.4778226-3.523-3.4223791-6.248-6.9818549-6.248-3.890121 0-7.0564516 3.252-7.0564516 7.248 0 3.584 2.5866935 6.451 6.0483871 6.924v7.155c-3.1794355.477-5.6280242 3.199-5.6280242 6.485 0 3.609 2.9082661 6.436 6.6199597 6.436 3.7127016 0 6.6209677-2.827 6.6209677-6.436 0-3.275-2.4314516-5.99-5.5967742-6.48v-7.16c3.1310484-.428 5.5403226-2.817 5.9717742-5.924h7.655242c.4364919 2.82 2.6834677 5.049 5.5262096 5.482v6.594c-3.4616935.473-6.0483871 3.34-6.0483871 6.924 0 3.925 3.0997984 7 7.0564517 7 3.9566532 0 7.0564516-3.075 7.0564516-7 0-3.584-2.5866936-6.451-6.0483871-6.924v-6.594c2.8427419-.433 5.0897177-2.662 5.5262096-5.482h8.0846775c.4375 2.82 2.6834677 5.049 5.5262096 5.482v7.633c-3.1713709.484-5.6118951 3.203-5.6118951 6.483 0 3.59 2.9082661 6.402 6.6199597 6.402 3.7127016 0 6.6209677-2.812 6.6209677-6.402 0-3.28-2.4405242-5.999-5.6129032-6.483" fill="#fff"/></g></svg>