<svg height="80" viewBox="0 0 80 80" width="80" xmlns="http://www.w3.org/2000/svg"><g fill="none" fill-rule="evenodd"><path d="m0 0h80v80h-80z" fill="#01a88d"/><path d="m38.0058946 48.3733707-12.0956719 7.0977211-1.0153082-1.7183641 6.8170695-3.9998814v-4.419505l-5.7387421-3.2064835-6.103853 3.0101275-.8872693-1.7871387 6.0198274-2.9682648v-5.7790461l-5.9568083-3.3928721-5.0445314 3.3988525v4.2381001l4.8194631-2.8227421 1.0143079 1.7173674-5.833771 3.4187872v5.2826741l5.0355287 3.3510095 6.1158566-3.5433786 1.0063055 1.7243446-6.1578694 3.5663034v6.8375743l5.5766929 3.3430357 5.8167658-3.4138035 1.0153082 1.7183641-4.8814818 2.8636081 4.911491 2.9443432 5.5666898-3.4586564zm20.5062252-5.3434747c0-.8242965-.6732044-1.4950964-1.5004555-1.4950964-.8272512 0-1.5004555.6707999-1.5004555 1.4950964s.6732043 1.4950964 1.5004555 1.4950964c.8272511 0 1.5004555-.6707999 1.5004555-1.4950964zm-5.0015184-16.9803086c0-.8242965-.6732043-1.4950965-1.5004555-1.4950965-.8272511 0-1.5004555.6708-1.5004555 1.4950965s.6732044 1.4950964 1.5004555 1.4950964c.8272512 0 1.5004555-.6707999 1.5004555-1.4950964zm-7.0021256 11.9966538c0 .8242965.6732044 1.4950965 1.5004555 1.4950965s1.5004555-.6708 1.5004555-1.4950965-.6732044-1.4950964-1.5004555-1.4950964-1.5004555.6707999-1.5004555 1.4950964zm-2.5007592 15.911813h-4.0012146v8.9705787c0 .3438722-.1780541.6638228-.4711431.8462246l-6.5569905 4.0746361c-.1620492.0996731-.346105.1505064-.5301609.1505064-.1780541 0-.3561081-.0478431-.5151564-.1425325l-13.4490828-8.06156c-.3000911-.1804083-.4841469-.5043459-.4841469-.8541985v-7.4405966l-5.5556866-3.6958784c-.2770841-.1853919-.4441348-.496372-.4441348-.8292801v-12.8957052c0-.3309147.1650501-.640898.4391333-.8252932l5.5606881-3.7477084v-7.4445836c0-.3508492.1850562-.6757835.4871479-.8551951l13.450083-8.0107267c.3220978-.1893789.7252202-.1863887 1.0423164.010964l6.0368326 3.756679 6.4099459-3.8224632c.3180966-.1913724.7162174-.1883822 1.034314.0039869l13.0729686 7.9409555c.2970902.1804083.4791454.5033492.4791454.8512083v7.5183416l6.4979726 3.7018588c.3120948.1774181.5041531.507336.5041531.8651625v14.2402952c0 .351846-.1870568.6787738-.4911491.8571886-.3070932.1804083-.6832074.1843952-.9913009.0159477l-6.2649019-3.4407153c-.6091849.5133165-1.3974242.8223031-2.2556847.8223031-1.9305861 0-3.5010629-1.5648676-3.5010629-3.4885584 0-1.9236907 1.5704768-3.4885583 3.5010629-3.4885583 1.930586 0 3.5010628 1.5648676 3.5010628 3.4885583 0 .3448689-.0510155.6787738-.1450441.9947375l4.6464106 2.5516313v-11.9747258l-6.4979726-3.7018588c-.3120948-.1774181-.5041531-.507336-.5041531-.8651624v-2.9881995h-2.6468035c-.4311309 1.4392795-1.7715378 2.4918274-3.3550185 2.4918274-1.930586 0-3.5010628-1.5648676-3.5010628-3.4885583 0-1.9236908 1.5704768-3.4885584 3.5010628-3.4885584 1.5834807 0 2.9238876 1.0525479 3.3550185 2.4918274h2.6468035v-2.5556182l-12.0766661-7.3359398-5.9298001 3.5364014.0010003 12.5637938 5.9488059 3.9610088c.5771752-.4176303 1.2863905-.6648195 2.0536234-.6648195 1.9305861 0 3.5010628 1.5648676 3.5010628 3.4885583 0 1.9236908-1.5704767 3.4885584-3.5010628 3.4885584s-3.5010628-1.5648676-3.5010628-3.4885584c0-.4355714.0810246-.8532017.2280692-1.2389366l-6.2859082-4.1842765c-.2770841-.185392-.4441349-.4963721-.4441349-.8292802l-.0010003-13.1080088-5.5666898-3.4646369-5.4356502 3.2363855v7.5920997h-2.0006073v-6.4000095l-5.0015183 2.9782321v6.8296005l6.001822 3.4177905 6.001822-3.4177905v-5.401285h2.0006073v5.9803857c0 .3578264-.1920583.6877444-.5041531.8651625l-6.4979726 3.700862v5.8139317l6.1988819 3.4636401c.3160959.1764214.5111551.5083328.5111551.8691494v3.8304371l4.2933033-2.5197359v-4.5341291l-5.6157047-3.8274469 1.1293428-1.6446061 6.0508369 4.1244727c.2730829.185392.4361324.4933819.4361324.8223031v10.9640405h4.0012146zm21.1264134.4365682-.7432256-.6638228-8.3035207 8.0376384c-.0400122-.0019934-.0780237-.0119607-.1180359-.0119607-1.1513495 0-2.088634.9339369-2.088634 2.0811742 0 1.1482341.9372845 2.0811743 2.088634 2.0811743 1.1513496 0 2.0886341-.9329402 2.0886341-2.0811743 0-.1166175-.0160049-.2282514-.0340103-.3398852zm-5.3186146 1.1322864.7912402-1.8309948c-1.4744476-.6319274-3.033921-.9518781-4.6374078-.9518781-6.6340139 0-12.0306521 5.4630824-12.0306521 12.1780589h2.0006073c0-5.6155822 4.4993659-10.1845969 10.0300448-10.1845969 1.3294036 0 2.6237965.2651304 3.8461676.7894109zm8.1844846 9.395186h-2.0006073c0-2.1050958-.6451959-4.1364335-1.867567-5.8747323l1.6394977-1.1432504c1.4584428 2.0751939 2.2286766 4.5022338 2.2286766 7.0179827z" fill="#fff"/></g></svg>