<svg height="80" viewBox="0 0 80 80" width="80" xmlns="http://www.w3.org/2000/svg"><g fill="none" fill-rule="evenodd"><path d="m0 0h80v80h-80z" fill="#ed7100"/><path d="m28.0075352 66h-12.4168078l13.7328611-28.704 6.2224364 12.81zm2.2121322-31.447c-.1683906-.345-.5192045-.564-.9020929-.564h-.0030069c-.3858953.001-.7367093.222-.902093.569l-15.3145306 32.011c-.1483441.31-.1272953.674.0571326.965.1824232.29.5031673.466.846965.466h14.6399656c.3878999 0 .7397162-.223.9061022-.572l8.0155966-16.9c.1293-.274.1282977-.591-.0050116-.863zm34.7756817 31.447h-12.3366217l-19.7919184-41.43c-.1653837-.348-.5182023-.57-.9050999-.57h-8.0717269l.0090209-10h15.820705l19.7007068 41.429c.1653837.348.5182023.571.9050999.571h4.6698343zm1.0023254-12h-5.0376877l-19.7007068-41.429c-.1653837-.348-.5182023-.571-.9061022-.571h-17.4554978c-.5522813 0-1.0013231.447-1.0023255.999l-.0110255 12c0 .266.1042418.52.2936813.708.1874349.188.4420255.293.7086441.293h8.4425873l19.7929208 41.43c.166386.348.5171999.57.9040975.57h13.9714145c.554286 0 1.0023255-.448 1.0023255-1v-12c0-.552-.4480395-1-1.0023255-1z" fill="#fff"/></g></svg>