<svg height="80" viewBox="0 0 80 80" width="80" xmlns="http://www.w3.org/2000/svg"><g fill="none" fill-rule="evenodd"><path d="m0 0h80v80h-80z" fill="#e7157b"/><path d="m22.231 15.64-5-6 1.537-1.28 4.7 5.64h17.117l-2.292-2.293 1.414-1.414 4 4c.39.39.39 1.023 0 1.414l-4 4-1.414-1.414 2.292-2.293h-17.585c-.297 0-.579-.132-.769-.36zm21.476 24.653c.39.39.39 1.023 0 1.414l-4 4-1.414-1.414 2.292-2.293h-17.117l-4.7 5.64-1.537-1.28 5-6c.19-.228.472-.36.769-.36h17.585l-2.292-2.293 1.414-1.414zm12-11.586-4 4-1.414-1.414 2.292-2.293h-23.585v-2h23.585l-2.292-2.293 1.414-1.414 4 4c.39.39.39 1.023 0 1.414zm-49.707 25.293c-2.206 0-4-1.795-4-4 0-2.206 1.794-4 4-4s4 1.794 4 4c0 2.205-1.794 4-4 4zm9-26c0-2.206 1.794-4 4-4s4 1.794 4 4c0 2.205-1.794 4-4 4s-4-1.795-4-4zm-13-22c0-2.206 1.794-4 4-4s4 1.794 4 4c0 2.205-1.794 4-4 4s-4-1.795-4-4zm7.77 39.339 8.741-11.364c.162.013.324.025.489.025 3.308 0 6-2.692 6-6 0-3.309-2.692-6-6-6-.165 0-.327.012-.489.025l-8.741-11.364c1.358-1.101 2.23-2.78 2.23-4.661 0-3.309-2.692-6-6-6-3.309 0-6 2.691-6 6 0 3.308 2.691 6 6 6 .704 0 1.377-.129 2.005-.352l8.417 10.942c-2.02.967-3.422 3.025-3.422 5.41s1.402 4.443 3.422 5.41l-8.417 10.942c-.628-.224-1.301-.352-2.005-.352-3.309 0-6 2.691-6 6 0 3.308 2.691 6 6 6 3.308 0 6-2.692 6-6 0-1.881-.872-3.56-2.23-4.661z" fill="#fff" transform="translate(12 12)"/></g></svg>