<svg height="80" viewBox="0 0 80 80" width="80" xmlns="http://www.w3.org/2000/svg"><g fill="none" fill-rule="evenodd"><path d="m0 0h80v80h-80z" fill="#ed7100"/><path d="m60.9999924 33.6181545-5-2.4999884-5 2.4999884v6.7639687l5 2.4999885 5-2.4999885zm-15.9999889-9.9999537-5-2.4999884-5 2.4999884v6.7639687l5 2.4999885 5-2.4999885zm-15.999989 9.9999537-5-2.4999884-5 2.4999884v6.7639687l5 2.4999885 5-2.4999885zm33.9999696-.6179971v7.999963c0 .3789982-.2139998.7249966-.5529996.8939958l-5.9999959 2.9999861c-.1399999.0709997-.2939998.1059996-.4469996.1059996-.1529999 0-.3069998-.0349999-.4469997-.1059996l-5.9999959-2.9999861c-.3389998-.1689992-.5529996-.5149976-.5529996-.8939958v-7.3819659l-2.9999979-1.499993-5.5529962 2.7759871c-.2809998.1409994-.6129996.1409994-.8939994 0l-5.5529962-2.7759871-2.9999882 1.499993v7.3819659c0 .3789982-.2140095.7249966-.5530093.8939958l-5.9999959 2.9999861c-.2809998.1409994-.6129995.1409994-.8939993 0l-5.9999959-2.9999861c-.3389998-.1689992-.5529996-.5149976-.5529996-.8939958v-7.999963c0-.3789982.2139998-.7249966.5529996-.8949958l5.9999959-2.9999862c.2809998-.1399993.6129995-.1399993.8939993 0l5.5530052 2.7769872 2.9999889-1.4999931v-7.3819658c0-.3789982.2139999-.7249966.5529997-.8949959l5.9999958-2.9999861c.2809998-.1399993.6129996-.1399993.8939994 0l5.9999958 2.9999861c.3389998.1699993.5529997.5159977.5529997.8949959v7.3819658l2.9999979 1.4999931 5.5529962-2.7769872c.2809998-.1399993.6129995-.1399993.8939993 0l5.9999959 2.9999862c.3389998.1699992.5529996.5159976.5529996.8949958zm-27.484981 22.1418975-1.0299993 1.7149921 5.0009966 2.9999861c.1589998.0949995.3369997.1429993.5149996.1429993s.3559998-.0479998.5149996-.1429993l4.9989966-2.9999861-1.0299924-1.7149921-3.4850045 2.0919903v-15.4689284l3.4850045 2.0919903 1.0299924-1.714992-4.9999966-2.9999861c-.3169997-.1909991-.7129995-.1909991-1.0299958 0l-5 2.9999861 1.0299993 1.714992 3.4849976-2.0919903v15.4679284zm-11.4909921-30.9608567 4.460997 2.6759876c.3099997.1859992.6949995.1909992 1.0079993.013.3139997-.1769992.5069996-.5099977.5069996-.869996v-5.405975l9.9999931-5.4549747 9.9999931 5.4549747v5.405975c0 .3599983.1929999.6929968.5069996.869996.3139998.1779992.6989996.1729992 1.0079993-.013l4.460997-2.6759876 5.4739962 3.6029834 1.0999992-1.6709923-5.9999958-3.9489817c-.3209998-.2099991-.7339995-.218999-1.0649993-.0219999l-3.4849976 2.0919903v-4.2339804c0-.3659983-.1999998-.7029968-.5209996-.8779959l-10.9999924-5.9999723c-.2969998-.1629992-.6609996-.1629992-.9579994 0l-10.9999924 5.9999723c-.3209998.1749991-.5209996.5119976-.5209996.8779959v4.2339804l-3.4849976-2.0919903c-.3309998-.1969991-.7439995-.1889992-1.0649951.0219999l-6 3.9489817 1.0999992 1.6709923zm38.975989 28.7478669c.0019841.3549984-.1850158.6849969-.4890155.865996l-21.9999849 13.0649395c-.1569998.0929996-.3339997.1399994-.5109996.1399994s-.3539998-.0469998-.5109996-.1399994l-21.9999849-13.0659395c-.3039997-.1809991-.4909996-.5109976-.4890155-.865996.0020159-.3549983.1920158-.6819968.5000155-.859996l11.9999845-6.9339679 1 1.731992-10.5209862 6.0799719 20.0209862 11.8909449 20.0209862-11.8899449-10.5209862-6.0809719 1-1.731992 11.9999845 6.9349679c.3079997.1779992.4979996.5049977.5000155.859996z" fill="#fff"/></g></svg>