<svg height="80" viewBox="0 0 80 80" width="80" xmlns="http://www.w3.org/2000/svg"><g fill="none" fill-rule="evenodd"><path d="m0 0h80v80h-80z" fill="#dd344c"/><path d="m32.836 39.639c.092.45.354.837.738 1.09.383.254.841.343 1.293.249.45-.092.837-.354 1.09-.737.253-.384.342-.844.249-1.294-.092-.45-.354-.837-.738-1.09-.284-.188-.611-.285-.944-.285-.116 0-.232.012-.349.036-.45.092-.837.354-1.09.738-.253.383-.342.843-.249 1.293zm14.586-6.631-11.652-7.684-10.77 8.281v18.087l6.662-10.043c-.382-.463-.662-1.004-.786-1.608-.199-.973-.008-1.966.539-2.796s1.385-1.397 2.358-1.597c.973-.199 1.967-.008 2.796.539s1.397 1.385 1.597 2.358c.199.973.008 1.967-.539 2.796-.547.83-1.385 1.397-2.358 1.597-.251.052-.504.077-.755.077-.416 0-.824-.078-1.216-.215l-6.65 10.026 16.936-7.036zm2.064.276c-.021.026-.053.037-.077.061l-4.046 13.474c-.087.287-.297.521-.574.636l-20.405 8.476c-.123.052-.254.077-.384.077h-24v-2h23v-20.896c0-.31.145-.603.391-.793l11.666-8.97.007.01 6.509-12.81 1.784.906-6.272 12.34 11.413 7.526 5.941-7.392 1.558 1.252zm-.768-32.378-1.783-.906-4.429 8.714 1.783.906zm-35.775 20.124h.001c.274 0 .536-.112.724-.31l8.721-9.166-1.449-1.379-7.998 8.405-3.64-3.818-1.447 1.379 4.365 4.579c.188.198.45.31.723.31zm-10.943-5.522c0 1.114.792 2.081 1.884 2.299.371.074.668.351.768.714.249.901.607 1.763 1.062 2.561.182.317.175.707-.016 1.019-.234.38-.352.789-.352 1.215 0 1.293 1.053 2.346 2.346 2.346.426 0 .834-.119 1.216-.353.16-.098.341-.147.523-.147.171 0 .342.044.496.132.8.456 1.66.814 2.559 1.062.365.1.642.397.715.768.218 1.092 1.185 1.884 2.299 1.884s2.081-.792 2.299-1.884c.073-.371.35-.668.715-.768.899-.248 1.759-.606 2.559-1.062.318-.182.707-.176 1.019.015.382.234.79.353 1.216.353 1.294 0 2.346-1.053 2.346-2.346 0-.426-.118-.835-.352-1.215-.191-.312-.197-.702-.016-1.019.455-.798.813-1.66 1.062-2.561.1-.363.397-.64.768-.714 1.092-.218 1.884-1.185 1.884-2.299s-.792-2.081-1.884-2.299c-.371-.074-.668-.35-.768-.714-.249-.9-.607-1.762-1.062-2.561-.181-.316-.175-.707.016-1.019.234-.38.352-.789.352-1.214 0-1.294-1.052-2.347-2.346-2.347-.426 0-.834.119-1.216.353-.312.19-.701.196-1.019.015-.8-.456-1.66-.813-2.559-1.062-.365-.1-.642-.397-.715-.768-.218-1.091-1.185-1.884-2.299-1.884s-2.081.793-2.299 1.884c-.073.371-.35.668-.715.768-.899.249-1.759.606-2.559 1.062-.319.181-.708.175-1.019-.015-.382-.234-.79-.353-1.216-.353-1.293 0-2.346 1.053-2.346 2.347 0 .425.118.834.352 1.214.191.312.198.703.016 1.019-.455.799-.813 1.661-1.062 2.561-.1.364-.397.64-.768.714-1.092.218-1.884 1.185-1.884 2.299zm-2 0c0-1.853 1.183-3.486 2.889-4.094.221-.686.498-1.35.825-1.985-.242-.548-.368-1.136-.368-1.728 0-2.397 1.95-4.347 4.346-4.347.592 0 1.18.126 1.728.368.636-.328 1.301-.604 1.987-.826.607-1.705 2.24-2.888 4.093-2.888 1.854 0 3.486 1.183 4.093 2.888.686.222 1.351.498 1.987.826.548-.242 1.136-.368 1.728-.368 2.396 0 4.346 1.95 4.346 4.347 0 .592-.126 1.18-.368 1.728.327.635.604 1.299.825 1.985 1.706.608 2.889 2.241 2.889 4.094s-1.183 3.486-2.889 4.094c-.221.686-.498 1.35-.825 1.986.242.548.368 1.135.368 1.728 0 2.396-1.95 4.346-4.346 4.346-.592 0-1.18-.126-1.728-.368-.636.328-1.301.604-1.987.826-.607 1.705-2.239 2.888-4.093 2.888-1.853 0-3.486-1.183-4.093-2.888-.686-.222-1.351-.498-1.987-.826-.548.242-1.136.368-1.728.368-2.396 0-4.346-1.95-4.346-4.346 0-.593.126-1.18.368-1.728-.327-.636-.604-1.3-.825-1.986-1.706-.608-2.889-2.241-2.889-4.094zm10 13.5v11.825l4.712-4.711c.391-.391 1.023-.39 1.414-.001l4.921 4.914-1.414 1.416-4.214-4.208-5.712 5.711c-.191.192-.447.293-.707.293-.129 0-.259-.025-.383-.076-.374-.155-.617-.519-.617-.924v-14.239z" fill="#fff" transform="translate(12 12)"/></g></svg>