<svg height="80" viewBox="0 0 80 80" width="80" xmlns="http://www.w3.org/2000/svg"><g fill="none" fill-rule="evenodd"><path d="m0 0h80v80h-80z" fill="#e7157b"/><path d="m53 39.9632039h5v-2.0030664h-5zm-25 12.018398h5v-2.0030663h-5zm-10 0h7v-2.0030663h-7zm0-6.009199h12v-2.0030663h-12zm0-12.0183981h9v-2.0030663h-9zm0 6.0091991h33v-2.0030664h-33zm19 22.0337298h-23v-34.0521279h23v8.0122654h2v-9.0137986c0-.5528463-.448-1.0015331-1-1.0015331h-25c-.553 0-1 .4486868-1 1.0015331v36.0551942c0 .5528463.447 1.0015332 1 1.0015332h25c.552 0 1-.4486869 1-1.0015332v-20.0306634h-2zm31-25.0383293c0 6.4719073-5.827 8.7233539-8.908 9.0097924l-16.092.0040061v-2.0030663h16c.195-.0230353 7-.7571591 7-7.0107322 0-5.6947177-5.137-6.8504869-6.166-7.0247537-.513-.0871334-.874-.5518448-.83-1.070639.001-.0190291.003-.0370567.005-.0550843-.055-3.2179261-2.028-4.2234654-2.883-4.5079008-1.596-.5308126-3.375-.0230353-4.316 1.2388965-.219.2964538-.581.4476854-.949.3915995-.364-.0550843-.669-.3054676-.793-.6540012-.621-1.7406646-1.522-2.868391-2.775-4.123312-3.134-3.1147682-7.388-3.9750852-11.368-2.3005217-2.088.8803476-3.913 2.8754017-5.003 5.4743803l-1.844-.7771898c1.292-3.0757083 3.506-5.4613603 6.072-6.5430162 4.755-2.0020648 9.821-.9815025 13.554 2.7271749 1.07 1.072642 1.956 2.1172411 2.646 3.4693109 1.493-1.1056927 3.507-1.4361986 5.407-.8042312 2.432.8092388 3.97 2.9214723 4.218 5.7297713 3.406.8593155 7.025 3.5824842 7.025 8.8295165z" fill="#fff"/></g></svg>