<svg height="80" viewBox="0 0 80 80" width="80" xmlns="http://www.w3.org/2000/svg"><g fill="none" fill-rule="evenodd"><path d="m0 0h80v80h-80z" fill="#dd344c"/><path d="m51.996 32.414c5.328-5.329 5.328-14 0-19.329-5.329-5.329-14-5.33-19.329 0l-11.643 11.642c-3.489 3.49-4.828 8.613-3.493 13.37l1.926-.54c-1.14-4.062.003-8.436 2.981-11.415l11.643-11.643c4.55-4.549 11.951-4.549 16.501 0 4.549 4.549 4.549 11.952 0 16.501l-23.593 23.592 1.414 1.414zm-38.328 14.751c-3.651 0-7.082-1.421-9.664-4.002-2.582-2.582-4.004-6.014-4.004-9.665 0-3.65 1.422-7.083 4.004-9.664l23.834-23.834 1.414 1.414-23.834 23.834c-2.204 2.204-3.418 5.134-3.418 8.25 0 3.117 1.214 6.047 3.418 8.25 2.204 2.204 5.134 3.417 8.25 3.417 3.117 0 6.047-1.213 8.25-3.417l11.642-11.642c3.153-3.152 4.23-7.738 2.812-11.968l1.896-.636c1.662 4.954.399 10.326-3.293 14.018l-11.643 11.643c-2.581 2.581-6.013 4.002-9.664 4.002z" fill="#fff" transform="translate(12 12)"/></g></svg>