<svg height="80" viewBox="0 0 80 80" width="80" xmlns="http://www.w3.org/2000/svg"><g fill="none" fill-rule="evenodd"><path d="m0 0h80v80h-80z" fill="#7aa116"/><path d="m41.536 18.534-6.843 9.831h3.086l5.147-7.796zm9.211 9.831h3.253l-8.089-11.933 7.366-10.649h-3.043l-5.822 8.619-1.558 2.237zm-7.627-15.875-4.53-6.707h-3.212l6.121 8.946zm-20.855 1.817c-1.966-.794-3.41-1.741-4.33-2.841-.92-1.099-1.379-2.457-1.379-4.074 0-2.198.76-3.98 2.28-5.345 1.519-1.364 3.519-2.047 5.998-2.047 1.124 0 2.305.139 3.545.418 1.238.278 2.407.669 3.506 1.172v2.027c-2.606-.954-4.918-1.431-6.937-1.431-1.967 0-3.474.444-4.521 1.331-1.048.889-1.572 2.153-1.572 3.796 0 .928.16 1.676.48 2.245.318.57.843 1.087 1.57 1.55.729.464 1.77.961 3.124 1.49l4.101 1.63c1.839.742 3.18 1.649 4.023 2.723.843 1.072 1.265 2.417 1.265 4.033 0 2.359-.837 4.266-2.51 5.723-1.674 1.457-3.878 2.186-6.611 2.186-2.836 0-5.365-.557-7.588-1.67v-2.026c2.682 1.007 5.148 1.51 7.396 1.51 2.12 0 3.814-.517 5.078-1.55 1.265-1.033 1.897-2.437 1.897-4.212 0-1.087-.345-2.014-1.034-2.783-.691-.768-1.802-1.456-3.334-2.066zm-22.265 13.91v-27.541h14.907v2.107h-12.646v10.531h10.692v2.106h-10.692v12.797z" fill="#fff" transform="translate(13 26.5)"/></g></svg>