<svg height="80" viewBox="0 0 80 80" width="80" xmlns="http://www.w3.org/2000/svg"><g fill="none" fill-rule="evenodd"><path d="m0 0h80v80h-80z" fill="#dd344c"/><path d="m49.214 51.3947776 1.01 1.7260231-4.108 2.4040322-1.009-1.7250231zm-18.844-.0330004 4.145 2.3410313-.985 1.7410233-4.144-2.3410313zm18.844-23.2123109-4.107-2.4050322 1.009-1.7250231 4.108 2.4040322zm-18.844.0330004-.984-1.7420233 4.144-2.3400313.985 1.7410233zm24.63 13.7681844h2v-3.9500529h-2zm-32 0h2v-3.9500529h-2zm39 10.977147-21.971 12.913173-22.029-12.913173v-25.8553462l22.029-12.913173 21.971 12.913173zm1.507-27.2903655-22.97-13.5001808c-.312-.1830024-.7-.1830024-1.012 0l-23.031 13.5001808c-.305.1790024-.494.5070068-.494.8620116v27.0003616c0 .3550048.189.6840092.494.8630116l23.031 13.5001808c.156.0920012.331.1370018.505.1370018.175 0 .351-.0450006.507-.1370018l22.97-13.5001808c.306-.1800025.493-.5080068.493-.8630116v-27.0003616c0-.3540048-.187-.6820091-.493-.8620116zm-39.294 25.1753372c-1.044 0-1.894-.8490114-1.894-1.8920253 0-1.044014.85-1.8930254 1.894-1.8930254s1.893.8490114 1.893 1.8930254c0 1.0430139-.849 1.8920253-1.893 1.8920253zm0-5.7850775c-2.146 0-3.894 1.7460234-3.894 3.8930522 0 2.1460287 1.748 3.8920521 3.894 3.8920521 2.147 0 3.893-1.7460234 3.893-3.8920521 0-2.1470288-1.746-3.8930522-3.893-3.8930522zm31.411 5.7850775c-1.044 0-1.892-.8490114-1.892-1.8920253 0-1.044014.848-1.8930254 1.892-1.8930254s1.894.8490114 1.894 1.8930254c0 1.0430139-.85 1.8920253-1.894 1.8920253zm0-5.7850775c-2.146 0-3.892 1.7460234-3.892 3.8930522 0 2.1460287 1.746 3.8920521 3.892 3.8920521 2.147 0 3.894-1.7460234 3.894-3.8920521 0-2.1470288-1.747-3.8930522-3.894-3.8930522zm-13.812-23.3123122c0 1.043014-.849 1.8920254-1.893 1.8920254s-1.893-.8490114-1.893-1.8920254c0-1.044014.849-1.8930253 1.893-1.8930253s1.893.8490113 1.893 1.8930253zm-5.786 0c0 2.1460288 1.747 3.8920521 3.893 3.8920521 2.147 0 3.893-1.7460233 3.893-3.8920521 0-2.1470287-1.746-3.8930521-3.893-3.8930521-2.146 0-3.893 1.7460234-3.893 3.8930521zm19.598 7.1760961c1.044 0 1.894.8490114 1.894 1.8930254s-.85 1.8930253-1.894 1.8930253-1.892-.8490113-1.892-1.8930253.848-1.8930254 1.892-1.8930254zm-15.705 12.8881726c-1.044 0-1.893-.8490113-1.893-1.8930253 0-1.043014.849-1.8920254 1.893-1.8920254s1.893.8490114 1.893 1.8920254c0 1.044014-.849 1.8930253-1.893 1.8930253zm1.893 16.2072171c0 1.044014-.849 1.8930253-1.893 1.8930253s-1.893-.8490113-1.893-1.8930253.849-1.8930254 1.893-1.8930254 1.893.8490114 1.893 1.8930254zm-17.599-25.309339c-1.044 0-1.894-.8490113-1.894-1.8930253s.85-1.8930254 1.894-1.8930254 1.893.8490114 1.893 1.8930254-.849 1.8930253-1.893 1.8930253zm18.313 4.3380581c-.692-.6280084-1.601-1.0210136-2.607-1.0210136-1.058 0-2.017.4260057-2.719 1.1140149l-9.231-5.3560718c.08-.3120041.137-.6320084.137-.9680129 0-2.1460288-1.746-3.8930522-3.893-3.8930522-2.146 0-3.894 1.7470234-3.894 3.8930522 0 2.1470287 1.748 3.8930521 3.894 3.8930521 1.091 0 2.074-.4540061 2.781-1.1790158l9.195 5.3340715c-.096.3380045-.163.6870092-.163 1.0540141 0 1.8400246 1.287 3.3770452 3.004 3.7810506v10.5381412c-1.717.4040054-3.004 1.941026-3.004 3.7810506 0 2.1460287 1.747 3.8930521 3.893 3.8930521 2.147 0 3.893-1.7470234 3.893-3.8930521 0-1.7580235-1.179-3.2300433-2.782-3.7120497v-10.676143c1.603-.4820065 2.782-1.9540262 2.782-3.7120497 0-.4160056-.083-.8090109-.204-1.1850159l9.155-5.299071c.712.7780105 1.725 1.2750171 2.861 1.2750171 2.147 0 3.894-1.7460234 3.894-3.8930521 0-2.1460288-1.747-3.8930522-3.894-3.8930522-2.146 0-3.892 1.7470234-3.892 3.8930522 0 .2910039.038.5730077.098.8460113z" fill="#fff"/></g></svg>