<svg height="80" viewBox="0 0 80 80" width="80" xmlns="http://www.w3.org/2000/svg"><g fill="none" fill-rule="evenodd"><path d="m0 0h80v80h-80z" fill="#01a88d"/><path d="m62.515 26.38975c-.16.362-.52.596-.915.596h-4.6v8h3c.553 0 1 .447 1 1v29c0 .552-.447 1-1 1h-40c-1.654 0-3-1.346-3-3v-35c0-.553.448-1 1-1h12.556c.283 0 .554.12.743.33l2.404 2.67h5.297v2h-5.742c-.283 0-.554-.12-.743-.331l-2.404-2.669h-11.111v34c0 .551.449 1 1 1 .552 0 1-.449 1-1v-27c0-.553.448-1 1-1h17v2h-16v26c0 .352-.072.685-.184 1h36.184v-27h-7v-2h3v-9c0-.553.448-1 1-1h3.338l-6.838-7.514-6.838 7.514h3.338c.553 0 1 .447 1 1v6 4 4h4c.39 0 .744.226.908.579s.107.769-.144 1.066l-8.453 10c-.19.224-.468.354-.761.355h-.003c-.292 0-.57-.128-.76-.35l-8.546-10c-.254-.297-.312-.714-.149-1.069.163-.354.518-.581.908-.581h4v-8h2v9c0 .552-.447 1-1 1h-2.83l6.373 7.456 6.303-7.456h-2.846c-.552 0-1-.448-1-1v-5-4-5h-4.599c-.396 0-.755-.234-.915-.596-.159-.362-.091-.785.175-1.077l9.1-10c.379-.417 1.1-.417 1.479 0l9.099 10c.267.292.335.715.176 1.077" fill="#fff"/></g></svg>