<svg height="80" viewBox="0 0 80 80" width="80" xmlns="http://www.w3.org/2000/svg"><g fill="none" fill-rule="evenodd"><path d="m0 0h80v80h-80z" fill="#ed7100"/><path d="m44.134145 41.6168166c3.121-2.27 3.813-6.657 1.544-9.778-1.1-1.512-2.723-2.506-4.569-2.797-.371-.059-.741-.088-1.108-.088-1.467 0-2.892.461-4.102 1.341-3.121 2.27-3.815 6.656-1.544 9.778 1.099 1.512 2.722 2.506 4.569 2.797 1.854.291 3.698-.154 5.21-1.253zm1.95.981 5.328 7.327-1.617 1.176-5.34-7.342c-1.356.775-2.865 1.199-4.42 1.199-.472 0-.947-.037-1.422-.112-2.375-.375-4.461-1.652-5.875-3.596-2.919-4.014-2.029-9.654 1.985-12.572 1.943-1.414 4.318-1.988 6.697-1.612 2.375.375 4.461 1.653 5.875 3.596 1.414 1.945 1.986 4.323 1.611 6.698-.322 2.041-1.315 3.867-2.822 5.238zm16.932 19.357h-46v2.6c0 .855.436 1.4.737 1.4h44.913c.09-.03.35-.38.35-1.4zm2-1v3.6c0 3.155-1.799 3.4-2.35 3.4h-44.913c-1.535 0-2.737-1.493-2.737-3.4v-3.6c0-.552.447-1 1-1h4v-22c0-1.103.897-2 2-2h7v2h-7v22h36v-22h-7v-2h7c1.102 0 2 .897 2 2v22h4c.553 0 1 .448 1 1zm2.9990003-23.499c0 .248 0 .415-.0040003.578 0 .195-.045 5.458-4.396 8.721l-1.199-1.599c3.532-2.65 3.595-7.106 3.595-7.151.004-.17.004-.318.004-.468.001-6.551-4.466-8.07-7.826-8.649-.043-.007-.086-.018-.128-.031l-.343-.107c-.47-.146-.763-.612-.691-1.099.367-2.512-.658-4.506-2.741-5.333-1.712-.679-4.118-.41-5.404 1.424-.216.307-.586.467-.955.417-.371-.051-.683-.305-.808-.658-.798-2.267-1.956-4.173-3.438-5.665-1.82-1.83-6.811-5.766-13.862-2.773-4.482 1.904-7.266 5.694-7.266 9.892l.097 3.085c.015.468-.297.884-.75 1l-.25.064c-3.308.845-7.057 1.803-7.639 7.946-.019.205-.013.813.004 1.258l-1.998.076c-.002-.043-.04-1.062.004-1.522.676-7.158 5.272-8.69 8.605-9.559l-.072-2.316c-.001-5.047 3.25-9.542 8.483-11.765 5.672-2.41 11.675-1.21 16.062 3.204 1.353 1.361 2.464 3.011 3.314 4.92 1.777-1.429 4.292-1.809 6.613-.887 2.139.851 4.232 3.004 4.068 6.564 5.922 1.197 8.922 4.705 8.9210003 10.433z" fill="#fff"/></g></svg>