<svg height="80" viewBox="0 0 80 80" width="80" xmlns="http://www.w3.org/2000/svg"><g fill="none" fill-rule="evenodd"><path d="m0 0h80v80h-80z" fill="#e7157b"/><path d="m49.084 48c-2.71 0-4.915-2.205-4.915-4.916 0-2.71 2.205-4.916 4.915-4.916 2.711 0 4.916 2.206 4.916 4.916 0 2.711-2.205 4.916-4.916 4.916zm0-11.832c-3.813 0-6.915 3.103-6.915 6.916s3.102 6.916 6.915 6.916 6.916-3.103 6.916-6.916-3.103-6.916-6.916-6.916zm0-3.168c-2.71 0-4.915-2.205-4.915-4.916 0-2.71 2.205-4.916 4.915-4.916 2.711 0 4.916 2.206 4.916 4.916 0 2.711-2.205 4.916-4.916 4.916zm0-11.832c-3.813 0-6.915 3.103-6.915 6.916s3.102 6.916 6.915 6.916 6.916-3.103 6.916-6.916-3.103-6.916-6.916-6.916zm0-3.336c-2.71 0-4.915-2.206-4.915-4.916 0-2.711 2.205-4.916 4.915-4.916 2.711 0 4.916 2.205 4.916 4.916 0 2.71-2.205 4.916-4.916 4.916zm0-11.832c-3.813 0-6.915 3.103-6.915 6.916s3.102 6.916 6.915 6.916 6.916-3.103 6.916-6.916-3.103-6.916-6.916-6.916zm6.916-6v2h-18v52h18v2h-19c-.553 0-1-.448-1-1v-26h-15.895v-2h15.895v-26c0-.552.447-1 1-1zm-54 34.333v-12.666l11.875 6.333zm14.471-7.215-15-8c-.312-.167-.685-.156-.986.025-.3.18-.485.506-.485.857v16c0 .351.185.677.485.857.159.095.336.143.515.143.161 0 .323-.039.471-.118l15-8c.326-.174.529-.513.529-.882s-.203-.708-.529-.882zm-14.471-13.118h12v-12h-12zm-1 2h14c.553 0 1-.448 1-1v-14c0-.552-.447-1-1-1h-14c-.553 0-1 .448-1 1v14c0 .552.447 1 1 1zm7.258 38c-3.45 0-6.258-2.808-6.258-6.258 0-3.451 2.808-6.258 6.258-6.258 3.451 0 6.259 2.807 6.259 6.258 0 3.45-2.808 6.258-6.259 6.258zm0-14.516c-4.554 0-8.258 3.704-8.258 8.258 0 4.553 3.704 8.258 8.258 8.258s8.259-3.705 8.259-8.258c0-4.554-3.705-8.258-8.259-8.258z" fill="#fff" transform="translate(12 12.084)"/></g></svg>