<svg height="80" viewBox="0 0 80 80" width="80" xmlns="http://www.w3.org/2000/svg"><g fill="none" fill-rule="evenodd"><path d="m0 0h80v80h-80z" fill="#dd344c"/><path d="m33 25h14v-5.75c0-2.748-2.74-5.25-5.75-5.25h-2.5c-3.01 0-5.75 2.502-5.75 5.25zm19 2h-24c-.552 0-1 .449-1 1v20c0 .551.448 1 1 1h24c.552 0 1-.449 1-1v-20c0-.551-.448-1-1-1zm-21-2v-5.75c0-3.862 3.621-7.25 7.75-7.25h2.5c4.129 0 7.75 3.388 7.75 7.25v5.75h3c1.654 0 3 1.346 3 3v20c0 1.654-1.346 3-3 3h-24c-1.654 0-3-1.346-3-3v-20c0-1.654 1.346-3 3-3zm8.207 19.457 11.25-11.25-1.414-1.414-11.25 11.25zm3.75-11.25-1.414-1.414-11.25 11.25 1.414 1.414zm23.043-7.893v29.874c0 2.534-2.091 4.755-4.474 4.755l-24.48.055-.046 7.008c-.003.404-.247.766-.62.919-.123.051-.252.075-.38.075-.26 0-.516-.102-.707-.293l-7.71-7.709-9.018-.054c-2.648 0-4.502-1.589-4.502-3.863l-.063-31.015c0-2.319 1.93-4.066 4.488-4.066h10.512v2h-10.512c-1.236 0-2.488.709-2.488 2.064l.063 31.015c0 1.775 2.089 1.865 2.508 1.865l9.435.056c.264.001.515.107.701.293l6.309 6.309.037-5.608c.004-.55.449-.993.998-.994l25.473-.057c1.396 0 2.476-1.481 2.476-2.755v-29.874c0-1.276-1.116-2.314-2.488-2.314h-10.512v-2h10.512c2.474 0 4.488 1.935 4.488 4.314z" fill="#fff"/></g></svg>