<svg height="80" viewBox="0 0 80 80" width="80" xmlns="http://www.w3.org/2000/svg"><g fill="none" fill-rule="evenodd"><path d="m0 0h80v80h-80z" fill="#8c4fff"/><path d="m40.703 16.88075c-.43.43-1.129.43-1.559 0-.208-.208-.323-.485-.323-.78 0-.294.115-.571.323-.78.215-.214.497-.322.78-.322.282 0 .564.108.779.322v.001c.208.208.323.485.323.779 0 .295-.115.572-.323.78zm2.323-.78c0-.829-.323-1.608-.909-2.194-1.209-1.209-3.178-1.209-4.387 0-.586.586-.909 1.365-.909 2.194 0 .129.022.254.037.38l-5.237 2.88.965 1.752 5.138-2.826c.002.003.004.006.006.008.605.605 1.4.907 2.194.907s1.589-.302 2.193-.906c.009-.009.015-.02.023-.029l6.332 3.495.966-1.751-6.446-3.558c.013-.117.034-.232.034-.352zm17.498 37.932c-.416.416-1.142.416-1.558-.001-.208-.208-.324-.484-.324-.778 0-.295.116-.572.324-.78s.484-.323.779-.323.571.115.779.323c.208.208.324.485.324.779 0 .295-.116.571-.324.78zm1.414-2.974c-.285-.285-.624-.498-.987-.644v-3.394h-2v3.27c-.519.13-1.01.378-1.399.768-.586.586-.91 1.365-.91 2.195 0 .375.075.736.202 1.078l-6.182 3.108.898 1.787 6.6-3.318c.476.285 1.016.447 1.585.447.829 0 1.608-.323 2.193-.909.586-.586.91-1.365.91-2.194s-.324-1.607-.91-2.193zm-42.615 3.056c-.208-.208-.323-.484-.323-.779s.115-.571.323-.78c.208-.208.484-.322.779-.322s.572.114.78.322v.001c.208.208.323.484.323.779s-.115.571-.323.779c-.416.416-1.143.417-1.559 0zm3.882-.779c0-.829-.323-1.608-.909-2.194-.376-.376-.846-.618-1.345-.753v-3.368h-2v3.454c-.385.147-.742.367-1.042.667-.586.586-.909 1.365-.909 2.194s.323 1.608.909 2.193c.585.586 1.364.909 2.193.909.571 0 1.113-.162 1.589-.449l5.141 2.553.889-1.791-4.716-2.342c.126-.34.2-.7.2-1.073zm35.746-10.315h2v-5h-2zm-40 0h2v-5h-2zm21.752 21.644c-.43.43-1.129.43-1.559 0-.208-.208-.323-.485-.323-.78 0-.294.115-.571.323-.779.215-.215.497-.323.78-.323.282 0 .564.108.779.323.208.208.323.485.323.779 0 .295-.115.572-.323.78zm6.385-5.429-4.946 2.486c-.009-.009-.015-.021-.025-.03v-.001c-.339-.339-.74-.573-1.166-.722v-6.948h-2v6.932c-.445.147-.867.385-1.221.738-.006.007-.01.015-.017.022l-6.409-3.183-.889 1.791 6.442 3.199c-.014.121-.036.241-.036.365 0 .829.323 1.609.909 2.194.605.605 1.4.907 2.194.907s1.589-.302 2.193-.906c.586-.586.909-1.366.909-2.195 0-.119-.021-.234-.034-.351l4.994-2.511zm12.657-32.843c.282 0 .564.107.779.322.208.208.324.485.324.78 0 .294-.116.571-.324.78-.416.416-1.142.416-1.558-.001-.208-.208-.324-.485-.324-.779 0-.295.116-.572.324-.78.215-.215.497-.322.779-.322zm-8.03 7.337 6.504-3.548c.23.131.475.232.732.3v3.539h2v-3.668c.364-.154.699-.376.987-.664.586-.586.91-1.365.91-2.194s-.324-1.608-.91-2.194v-.001c-1.019-1.019-2.575-1.168-3.763-.468l-5.235-2.889-.966 1.751 4.879 2.693c-.134.349-.211.722-.211 1.108 0 .4.08.786.223 1.147l-6.107 3.332zm-11.012 6.749c-.416.416-1.143.417-1.559 0-.208-.208-.323-.485-.323-.78 0-.294.115-.57.323-.779.208-.208.485-.323.78-.323s.571.115.779.323v.001c.208.208.323.484.323.778 0 .295-.115.572-.323.78zm.773-3.441c-.95-.532-2.156-.532-3.105 0l-6.478-3.534-.957 1.755 6.097 3.327c-.135.351-.212.726-.212 1.113 0 .829.323 1.609.909 2.194.347.348.768.59 1.221.739v7.389h2v-7.405c.433-.152.833-.389 1.166-.722.586-.586.909-1.366.909-2.195 0-.387-.077-.762-.212-1.113l5.389-2.94-.957-1.756zm-22.153-10.323c.215-.215.497-.322.779-.322.283 0 .565.107.78.322.208.208.323.485.323.78 0 .294-.115.571-.323.78-.416.416-1.143.416-1.559-.001-.208-.208-.323-.485-.323-.779 0-.295.115-.572.323-.78zm8.794-5.426-6.442 3.544c-1.19-.702-2.745-.553-3.766.467-.586.586-.909 1.366-.909 2.195s.323 1.608.909 2.194c.302.302.656.531 1.042.685v3.647h2v-3.556c.237-.067.463-.162.678-.284l5.796 3.163.957-1.756-5.4-2.946c.144-.361.223-.747.223-1.147 0-.385-.076-.758-.21-1.107l6.085-3.347z" fill="#fff"/></g></svg>