<svg height="80" viewBox="0 0 80 80" width="80" xmlns="http://www.w3.org/2000/svg"><g fill="none" fill-rule="evenodd"><path d="m0 0h80v80h-80z" fill="#7aa116"/><path d="m42 24.932 5.17 7.684c.245.364.698.526 1.122.399.421-.129.708-.517.708-.957v-11.988h-2v8.71l-5.17-7.684c-.246-.365-.7-.528-1.122-.398-.421.128-.708.516-.708.956v11.416h2zm-12.527-12.251.986 1.392-3.652 5.334h-2.19zm3.104-1.438 1.729 2.459c-.334.696-.593 1.426-.754 2.186l-3.144-4.503 1.105-1.531 4.132-5.898h2.159zm-3.131-1.166-4.343-6.121h2.279l3.215 4.589zm-6.631 1.52c.598.735.897 1.655.897 2.76 0 1.614-.594 2.919-1.781 3.916s-2.751 1.496-4.69 1.496c-2.013 0-3.807-.381-5.385-1.142v-1.387c1.904.689 3.653 1.033 5.249 1.033 1.504 0 2.705-.353 3.603-1.06.897-.707 1.346-1.668 1.346-2.883 0-.743-.245-1.377-.735-1.903-.489-.526-1.278-.997-2.365-1.414l-3.155-1.224c-1.396-.544-2.42-1.192-3.072-1.944-.653-.752-.979-1.681-.979-2.787 0-1.505.539-2.724 1.618-3.658 1.078-.933 2.497-1.4 4.255-1.4.798 0 1.636.095 2.516.285.879.191 1.708.458 2.488.802v1.387c-1.849-.652-3.49-.979-4.922-.979-1.396 0-2.466.304-3.209.911-.743.608-1.115 1.473-1.115 2.597 0 .635.113 1.147.34 1.537s.598.743 1.115 1.06 1.255.657 2.216 1.02l2.91 1.115c1.305.507 2.257 1.128 2.855 1.862zm-22.815 7.709h1.604v-8.756h7.587v-1.441h-7.587v-7.206h8.974v-1.441h-10.578zm51.708 7.461-.162-1.993c.295-.028 2.932-.355 2.932-3.195 0-2.353-1.827-3.018-2.915-3.205-.513-.088-.867-.551-.829-1.059-.093-1.034-.55-1.766-1.232-1.965-.548-.161-1.123.052-1.495.556-.22.297-.583.452-.953.394-.366-.055-.672-.307-.795-.656-.322-.915-.787-1.68-1.38-2.275-.721-.723-2.699-2.276-5.485-1.096-1.574.666-2.854 2.668-2.854 4.462 0 .207.013.411.036.612.059.498-.26.962-.746 1.086-1.102.281-2.416 1.049-2.416 3.111 0 .142.006.278.019.409.147 1.569 1.571 2.801 3.242 2.802l-.002 2c-2.692-.002-4.989-2.031-5.233-4.617-.016-.193-.026-.39-.026-.594 0-2.247 1.153-3.986 3.126-4.789v-.02c0-2.61 1.751-5.32 4.074-6.304 2.711-1.149 5.582-.578 7.681 1.526.499.5.927 1.08 1.281 1.734.756-.402 1.637-.509 2.487-.261 1.352.396 2.288 1.549 2.586 3.147 1.966.578 3.829 2.129 3.829 5.002 0 3.798-3.121 5.055-4.77 5.188z" fill="#fff" transform="translate(12 28)"/></g></svg>