<?xml version="1.0" encoding="UTF-8"?>
<!-- Generated by Pixelmator Pro 3.7 -->
<svg width="813" height="578" viewBox="0 0 813 578" xmlns="http://www.w3.org/2000/svg">
    <g id="03-Cloud">
        <path id="03-Cloud-Glass" fill="#ffffff" fill-opacity="0.01" fill-rule="evenodd" stroke="#ffffff" stroke-width="45" stroke-opacity="0.01" stroke-linecap="round" stroke-linejoin="round" d="M 407 531 C 407 531 552 530.980591 631 531 C 648.785034 531.004395 763.302429 510.819885 766 382 C 767.106873 292.266541 693.111694 215.512085 590 222 C 585.3927 131.458618 509.590698 47.525452 407 47 C 299.425873 46.449036 227.055542 138.133606 223 220 C 131.631668 219.226257 46.502823 271.823792 47 387 C 47.314667 459.894806 104.930969 534.93457 194 531 L 407 531 Z"/>
        <path id="path1" fill="none" stroke="#ffffff" stroke-width="45" stroke-linecap="round" stroke-linejoin="round" d="M 407 531 C 407 531 552 530.980591 631 531 C 648.785034 531.004395 763.302429 510.819885 766 382 C 767.106873 292.266541 693.111694 215.512085 590 222 C 585.3927 131.458618 509.590698 47.525452 407 47 C 299.425873 46.449036 227.055542 138.133606 223 220 C 131.631668 219.226257 46.502823 271.823792 47 387 C 47.314667 459.894806 104.930969 534.93457 194 531 C 266.609741 527.79248 407 444 407 351 C 407 274 407 183 407 183 L 317 293 M 407 183 L 495.999603 293.000336"/>
        <path id="Path" fill="none" stroke="#ffffff" stroke-opacity="0.01" stroke-linecap="round" stroke-linejoin="round" d="M 414 531 L 174 531"/>
    </g>
</svg>
