<svg height="80" viewBox="0 0 80 80" width="80" xmlns="http://www.w3.org/2000/svg"><g fill="none" fill-rule="evenodd"><path d="m0 0h80v80h-80z" fill="#01a88d"/><path d="m62 53.4169349-22 12.4350555-22-12.4350555v-26.8331198l22-12.4350555 22 12.4350555zm1.492-28.2871263-23-13.000058c-.304-.1730008-.679-.1730008-.984 0l-23 13.000058c-.314.1770008-.508.5100023-.508.8700039v28.000125c0 .3610016.194.6940031.508.8710039l23 13.000058c.152.0870004.322.1290006.492.1290006s.34-.0420002.492-.1290006l23-13.000058c.314-.1770008.508-.5100023.508-.8710039v-28.000125c0-.3600016-.194-.6930031-.508-.8700039zm-21.492-.1300095c0 1.1040139-.897 2.0000179-2 2.0000179s-2-.896004-2-2.0000179c0-1.102996.897-2 2-2s2 .897004 2 2zm13 11.0000491c0 1.1040139-.897 2.0000179-2 2.0000179s-2-.896004-2-2.0000179c0-1.102996.897-2 2-2s2 .897004 2 2zm-7 18.0000893c-1.103 0-2-.896004-2-2.0000179 0-1.102996.897-2 2-2s2 .897004 2 2c0 1.1040139-.897 2.0000179-2 2.0000179zm-3.712-9.7160434 2.192 4.020018c-.417.1720007-.789.4210019-1.122.7160032l-3.692-2.7700124zm-9.646 4.7360212c-.333-.2950013-.705-.5440025-1.122-.7160032l2.192-4.020018 2.622 1.9660088zm-2.642 4.9800222c-1.103 0-2-.896004-2-2.0000179 0-1.102996.897-2 2-2s2 .897004 2 2c0 1.1040139-.897 2.0000179-2 2.0000179zm-7-18.0000893c0-1.102996.897-2 2-2s2 .897004 2 2c0 1.1040139-.897 2.0000179-2 2.0000179s-2-.896004-2-2.0000179zm6.371 12.0640628c-.278.0440002-.548.1140005-.805.213001l-2.316-8.496038c.318-.1060005.623-.240001.9-.4180018l4.945 3.7080165zm7.629-15.9210711c-1.721.447002-3 1.9990089-3 3.8570172 0 .8440038.266 1.6250073.713 2.2710102l-1.65 3.0270135-4.555-3.4160153c.304-.5640025.492-1.1980053.492-1.8820084 0-.690003-.191-1.3310059-.501-1.8980084l7.367-5.7300256c.346.219001.728.3810017 1.134.4860022zm-.729 7.4490333c.526.2540011 1.107.4080018 1.729.4080018s1.203-.1540007 1.729-.4080018l1.591 2.918013-3.32 2.4910111-3.32-2.4910111zm1.729-5.592025c1.103 0 2 .897004 2 2 0 1.1040139-.897 2.0000179-2 2.0000179s-2-.896004-2-2.0000179c0-1.102996.897-2 2-2zm8.629 14.0640628-2.724-4.9930223 4.945-3.7080165c.277.1780008.582.3120013.9.4180018l-2.316 8.496038c-.257-.0990005-.527-.1690008-.805-.213001zm-6.495-19.6920879 7.367 5.7300256c-.31.5670025-.501 1.2080054-.501 1.8980084 0 .6840031.188 1.3180059.492 1.8820084l-4.554 3.4160153-1.651-3.0270135c.447-.6460029.713-1.4270064.713-2.2710102 0-1.8580083-1.279-3.4100152-3-3.8570172v-3.2850146c.406-.1050005.788-.2670012 1.134-.4860022zm-6.134-3.3720151c0 .6910031.191 1.332006.501 1.8990085l-7.367 5.7300256c-.619-.3930018-1.348-.6290028-2.134-.6290028-2.206 0-4 1.795008-4 4.0000178 0 1.9370087 1.384 3.5550159 3.215 3.9210175l2.631 9.6480431c-.523.677003-.846 1.5130068-.846 2.4310109 0 2.2060098 1.794 4.0000178 4 4.0000178s4-1.794008 4-4.0000178c0-.4640021-.095-.9040041-.241-1.3190059l4.241-3.1810142 4.241 3.1810142c-.146.4150018-.241.8550038-.241 1.3190059 0 2.2060098 1.794 4.0000178 4 4.0000178s4-1.794008 4-4.0000178c0-.9180041-.323-1.7540079-.846-2.4310109l2.631-9.6480431c1.831-.3660016 3.215-1.9840088 3.215-3.9210175 0-2.2050098-1.794-4.0000178-4-4.0000178-.786 0-1.515.236001-2.134.6290028l-7.367-5.7300256c.31-.5670025.501-1.2080054.501-1.8990085 0-2.2050098-1.794-4.0000178-4-4.0000178s-4 1.795008-4 4.0000178z" fill="#fff"/></g></svg>