<svg height="80" viewBox="0 0 80 80" width="80" xmlns="http://www.w3.org/2000/svg"><g fill="none" fill-rule="evenodd"><path d="m0 0h80v80h-80z" fill="#c925d1"/><path d="m23.848 34.128 5.925-13.235 1.826.818-5.925 13.234zm8.295-4.031 3.559-2.596-3.135-3.18 1.424-1.404 3.949 4.005c.204.207.308.494.285.784s-.173.555-.407.726l-4.495 3.28zm-8.839-5.69-3.61 2.635 3.144 3.18-1.422 1.406-3.962-4.005c-.205-.207-.309-.494-.286-.784.024-.29.172-.556.408-.727l4.548-3.32zm-1.152-22.686-20.152 11.915v23.235h-2v-23.805c0-.354.187-.681.492-.861l20.642-12.205zm32.848 17.15v24.064c0 .358-.191.688-.501.867l-20.626 11.876-.998-1.733 20.125-11.588v-23.486zm-12 17.793-15.08 8.575-14.92-8.743v-17.324l14.91-8.573 15.09 8.748zm2 .582v-18.475c0-.357-.189-.686-.498-.866l-16.088-9.326c-.31-.18-.691-.18-1-.002l-15.912 9.15c-.31.178-.502.509-.502.867v18.475c0 .355.189.683.494.863l15.913 9.325c.156.091.331.137.505.137.171 0 .341-.043.495-.131l16.087-9.148c.313-.178.506-.51.506-.869z" fill="#fff" transform="translate(13 12)"/></g></svg>