<svg height="80" viewBox="0 0 80 80" width="80" xmlns="http://www.w3.org/2000/svg"><g fill="none" fill-rule="evenodd"><path d="m0 0h80v80h-80z" fill="#c925d1"/><path d="m28.0003116 66.9823009h26.0010681v-17.1504425h-26.0010681zm27.0011092-19.1681416h-28.0011503c-.5530227 0-1.0000411.4519646-1.0000411 1.0088495v19.1681416c0 .556885.4470184 1.0088496 1.0000411 1.0088496h28.0011503c.5530227 0 1.0000411-.4519646 1.0000411-1.0088496v-19.1681416c0-.5568849-.4470184-1.0088495-1.0000411-1.0088495zm-17.9057356 17.3844956 6.0562488-13.8716814 1.8300752.8141415-6.0562488 13.8716815zm11.44147-6.6876637-3.4061399-3.3443363 1.3940573-1.4466903 4.2461744 4.1685664c.2090086.2058053.3190131.4943363.3000123.7889203-.0190007.2945841-.1650067.5659646-.3990164.7425133l-4.747195 3.5804071-1.1970491-1.6151682zm-17.1467043-.3520885c-.2100087-.2058054-.3200132-.4933275-.3010124-.7879115.0190008-.2945841.1650068-.5659647.3990164-.7425133l4.747195-3.5804071 1.1980492 1.6151681-3.8101565 2.8732036 3.40714 3.3453451-1.3940573 1.4466903zm34.6534235-23.108708c-1.9190788-1.8724248-4.4721837-2.903469-7.1892953-2.903469-3.5421455 0-6.4352644 1.2610619-8.228338 3.3604778-.4400181-9.6678053-2.6501089-17.4460354-5.8102387-21.1505309 11.3104646 1.7089911 19.8948172 10.065292 21.7938952 21.2514159-.1870076-.187646-.3770154-.3732743-.5660232-.5578938zm-17.9777385.3470442-.3580147-.3470442c-1.9190789-1.8724248-4.4771839-2.903469-7.2012958-2.903469-3.4651424 0-6.2852582 1.1662301-8.0793319 3.1526548.6600271-12.7104955 4.5551871-21.2746194 8.0883322-21.2816814.0060003 0 .0100004.0010089.0170007.0010089 3.5911475.0211858 7.5543104 8.8829203 8.1093332 21.9485309-.1880078-.1886548-.3730154-.3742831-.5760237-.57zm-17.6787262.6739115c-.267011-.2784424-.5480225-.5548672-.8450347-.8454159l-.1810075-.1755398c-1.9190788-1.8724248-4.4761839-2.903469-7.2012958-2.903469-3.0931271 0-5.7012342.9372212-7.5053083 2.5735752 2.3770976-10.716 10.7794428-18.6748142 21.5638858-20.3585841-3.2181322 3.7781416-5.452224 11.7833628-5.8312395 21.7094336zm10.1394165-24.0711504c-15.6706438 0-27.9251472 11.9417522-28.5261718 27.7806903-.0140006.3773097.1980081.7193097.5070208.9089734l10.2424207 6.7340708 1.0920449-1.6908318-9.688398-6.3607965c.5106335-2.158352 2.0871862-3.7841528 4.3532883-4.6071878 1.0757173-.3906943 2.3068174-.6004936 3.6530406-.6004936 2.2030905 0 4.2671753.8292743 5.8112387 2.3364956l.1810074.1765486c1.3790567 1.3437876 2.1960903 3.7983186 2.1960903 3.8073983.0070002.0615398 1.3690562 5.1552212 1.3690562 5.1552212l1.9290792-.5276283-1.2980533-4.8364248.0080004-.1230796c.4840198-4.4157346 4.5271859-5.988531 8.1503348-5.988531 2.2030905 0 4.2661752.8292743 5.8102386 2.3364956 0 0 2.1800896 1.6746902 2.3400962 3.6469911l.0090003.134177-1.3110538 4.8273451 1.9300793.5336814 1.364056-5.0301238c.0080003-.0373275.0110005-.080708.0160007-.1240885.2710111-3.8538054 3.482143-6.3244779 8.1893364-6.3244779 2.1950901 0 4.2541747.8292743 5.7982382 2.3364956 1.2000493 1.1702654 2.046084 2.0560354 2.2810937 2.9266725l-8.6393549 6.0682301 1.1430469 1.656531 9.1353753-6.4183009c.2490102-.1967257.4280176-.9049381.4270217-.9432743-.2800157-15.8429735-12.5025178-27.7796815-28.4731738-27.7907788z" fill="#fff"/></g></svg>