<svg height="80" viewBox="0 0 80 80" width="80" xmlns="http://www.w3.org/2000/svg"><g fill="none" fill-rule="evenodd"><path d="m0 0h80v80h-80z" fill="#e7157b"/><path d="m54 2h-3c-2.627 0-2.958 1.678-3 2.061v9.939h-2v-9h-7v16h8c.524 0 .96.406.997.929.033.336.336 2.071 3.003 2.071h3zm-52 13h14v-4h-14zm54-14v24c0 .552-.447 1-1 1h-4c-2.986 0-4.331-1.646-4.799-3h-8.201c-.553 0-1-.448-1-1v-1h-3v-2h3v-12h-17.199c-1.531 0-1.801.649-1.801 4v4c0 3.351.27 4 1.801 4h5.199v1.94h-5.199c-2.871 0-3.572-1.879-3.744-3.94h-14.057v4h-2v-16h2v4h14.057c.172-2.061.873-3.94 3.744-3.94h17.199v-1.06c0-.552.447-1 1-1h8.201c.468-1.354 1.813-3 4.799-3h4c.553 0 1 .448 1 1zm-13 34h10v2h-9.262l-3.425 11.139c-.128.42-.517.706-.956.706h-.004c-.442-.002-.83-.293-.955-.716l-9.137-30.839-7.561 25.449c-.12.403-.478.688-.897.714-.419.035-.811-.213-.978-.598l-4.334-9.925-2.546 7.396c-.138.403-.518.674-.945.674h-11v-2h10.287l3.149-9.147c.133-.39.493-.657.905-.673.429-.012.791.221.956.598l4.265 9.768 7.741-26.057c.126-.424.516-.715.959-.715s.833.291.959.716l9.154 30.895 2.669-8.679c.129-.419.517-.706.956-.706z" fill="#fff" transform="translate(12 16)"/></g></svg>