<svg height="80" viewBox="0 0 80 80" width="80" xmlns="http://www.w3.org/2000/svg"><g fill="none" fill-rule="evenodd"><path d="m0 0h80v80h-80z" fill="#01a88d"/><path d="m54.034 26.0335731c0 .5599923-.456 1.0159861-1.017 1.0159861-.559 0-1.015-.4559938-1.015-1.0159861 0-.5599924.456-1.0159862 1.015-1.0159862.561 0 1.017.4559938 1.017 1.0159862zm-6.032 9.9668639c0-.5509925.448-.9999864 1-.9999864s1 .4489939 1 .9999864c0 .5509924-.448.9999863-1 .9999863s-1-.4489939-1-.9999863zm0 18.9997405c0-.5509925.448-.9999863 1-.9999863s1 .4489938 1 .9999863-.448.9999864-1 .9999864-1-.4489939-1-.9999864zm10-12.9998225c0 .5509925-.448.9999864-1 .9999864s-1-.4489939-1-.9999864c0-.5509924.448-.9999863 1-.9999863s1 .4489939 1 .9999863zm6.998 3.2719554-5.037-2.8899606c.016-.1259983.039-.2509966.039-.3819948 0-1.6539774-1.346-2.999959-3-2.999959-1.655 0-3 1.3459816-3 2.999959s1.345 2.9999591 3 2.9999591c.799 0 1.521-.3189957 2.059-.8289887l4.825 2.7679622-4.331 2.1659704c-.339.1699977-.553.515993-.553.8949878v8.4408847l-12.019 7.395899-5.98-3.4169533v-6.4199123h5.183c.414 1.1609841 1.514 1.9999727 2.816 1.9999727 1.654 0 3-1.3459817 3-2.9999591 0-1.6549774-1.346-2.999959-3-2.999959-1.302 0-2.402.8379885-2.816 1.9999727h-5.183v-13.9998089c0-.3509952-.185-.6769907-.486-.8579882l-5.001-2.9999591-1.029 1.7149766 4.516 2.708963v2.9409599l-6.001 4.6159369v-4.1229437c0-.3039958-.138-.5919919-.375-.7809893l-4.625-3.6999495v-4.9839319l5.554-3.7029495c.279-.1859974.446-.4979932.446-.8319886v-5.9999181h-2v5.4649254l-4.989 3.3249546-5.011-3.3269546v-7.8888923l5-2.9159601v8.3418861h2v-9.5088702l4.003-2.3349681 5.996 3.4589528.001 12.3848308c0 .3589951.192.6899906.504.8679882l6.536 3.734949c-.018.1309982-.04.2609964-.04.3969946 0 1.6539774 1.345 2.999959 3 2.999959 1.654 0 3-1.3459816 3-2.999959 0-1.6539775-1.346-2.9999591-3-2.9999591-.794 0-1.512.3149957-2.049.8199888l-5.951-3.4009535-.001-11.8018389 5.963-3.440953 11.038 7.3588995v2.4649664h-2.151c-.422-1.1559842-1.533-1.982973-2.834-1.982973-1.663 0-3.015 1.3529816-3.015 3.0159589s1.352 3.0159588 3.015 3.0159588c1.326 0 2.454-.8589883 2.858-2.048972h2.127v2.999959c0 .3589951.192.6899906.504.8679881l6.494 3.7119494zm-31.98 20.5647191-3.153-1.9399735 5.716-4.0829442-1.162-1.6279778-6.403 4.5729376-7.016-4.3179411v-7.8748924l4.514-2.708963-1.029-1.7149766-4.529 2.7179629-4.956-2.4779662-.001-5.7649213 5.448-2.7229628-.894-1.7889756-4.554 2.2759689.001-3.800948 5.961-3.4059535 5.039 3.3449543v4.9609322l-5.553 3.6869497 1.106 1.6659772 5.403-3.587951 4.044 3.2349559v5.1819292l-4.61 3.5449516 1.219 1.5849784 11.392-8.7618804v16.3887762zm33.476-32.7045534-6.494-3.7119493v-7.4198987c0-.3349954-.167-.6469911-.446-.8319886l-12-7.9998908c-.316-.2099971-.724-.2239969-1.054-.0339995l-6.498 3.7499488-6.502-3.7499488c-.312-.1799975-.695-.1799975-1.004.002l-12 6.9999044c-.308.1789975-.496.507993-.496.8639882v8.419885l-6.496 3.7119493c-.312.1769976-.504.5089931-.504.8679882v.4169943c-.001.0209997-.002.0409994-.002.0619991v10.8838514c0 .0199997.001.0399995.002.0589992v1.5779785c0 .3789948.214.7249901.553.8939877l5.447 2.7239629v8.3818855c0 .3469953.179.6689909.475.8509884l13 7.9998907c.161.0989987.343.148998.525.148998.171 0 .342-.0439994.496-.1319982l6.505-3.7159493 6.503 3.7159493c.315.1809975.707.1739976 1.02-.0169998l13-7.9998907c.296-.1819975.476-.5039931.476-.8509884v-8.3818855l5.445-2.7239629c.339-.1689976.553-.5149929.553-.8939877v-12.9998225c0-.3589951-.193-.6899906-.504-.8679882z" fill="#fff"/></g></svg>