<svg height="80" viewBox="0 0 80 80" width="80" xmlns="http://www.w3.org/2000/svg"><g fill="none" fill-rule="evenodd"><path d="m0 0h80v80h-80z" fill="#7aa116"/><path d="m25 21c1.654 0 3 1.346 3 3s-1.346 3-3 3-3-1.346-3-3 1.346-3 3-3zm0 8c1.012 0 1.952-.307 2.74-.826l21.913 22.826h-2.653v2h5c.553 0 1-.448 1-1v-5h-2v2.514l-21.84-22.749c.529-.793.84-1.743.84-2.765 0-2.757-2.243-5-5-5s-5 2.243-5 5 2.243 5 5 5zm26 15h2v-5h-2zm0-8h2v-5h-2zm-12 17h5v-2h-5zm-8 0h5v-2h-5zm-14-1c0-1.654 1.346-3 3-3s3 1.346 3 3-1.346 3-3 3-3-1.346-3-3zm35-29c-1.654 0-3-1.346-3-3s1.346-3 3-3 3 1.346 3 3-1.346 3-3 3zm4.572-.993c.272-.615.428-1.292.428-2.007 0-2.757-2.243-5-5-5s-5 2.243-5 5c0 2.415 1.721 4.434 4 4.899v3.101h2v-3.101c.922-.188 1.743-.639 2.405-1.259 4.778 4.235 7.595 10.471 7.595 16.944 0 12.36-10.125 22.416-22.57 22.416-6.467 0-12.514-2.752-16.79-7.595.62-.662 1.071-1.483 1.258-2.405h3.102v-2h-3.102c-.463-2.279-2.484-4-4.898-4-2.757 0-5 2.243-5 5s2.243 5 5 5c.715 0 1.392-.156 2.008-.428 4.662 5.369 11.306 8.428 18.422 8.428 13.548 0 24.57-10.953 24.57-24.416 0-7.112-3.131-13.963-8.428-18.577z" fill="#fff"/></g></svg>