<svg height="80" viewBox="0 0 80 80" width="80" xmlns="http://www.w3.org/2000/svg"><g fill="none" fill-rule="evenodd"><path d="m0 0h80v80h-80z" fill="#ed7100"/><path d="m26 48.3817923v-5.764061l5-2.5000265 5 2.5000265v5.764061l-5 2.5000265zm28-5.764061v5.764061l-5 2.5000265-5-2.5000265v-5.764061l5-2.5000265zm8 8.7650928-6-2.9940317v-6.3890677c0-.379004-.214-.7250077-.553-.8940094l-6-3.0000318c-.281-.1410015-.613-.1410015-.894 0l-6 3.0000318c-.339.1690017-.553.5150054-.553.8940094v7.0000741c0 .379004.214.7250077.553.8950095l6 3.0000318c.281.1400015.613.1400015.894 0l5.545-2.7730294 5.943 2.9650314-19.935 12.1341285v-10.2211082h-2v10.2211082l-19.936-12.1351285 5.936-2.9680314 5.553 2.7770294c.14.0700007.294.1050011.447.1050011s.307-.0350004.447-.1050011l6-3.0000318c.339-.1700018.553-.5160055.553-.8950095v-7.0000741c0-.379004-.214-.7250077-.553-.8940094l-6-3.0000318c-.281-.1410015-.613-.1410015-.894 0l-6 3.0000318c-.339.1690017-.553.5150054-.553.8940094v6.3820676l-6 3.0000318v-22.6162395l8.485 5.0920539 1.03-1.7150181-8.529-5.1170542 20.014-11.3121198v6.6680706l-5.447 2.7240288c-.339.1690018-.553.5150055-.553.8940095v7.0000741c0 .378004.213.7230077.55.8930095l6 3.023032c.283.1420015.617.1420015.9 0l6-3.023032c.337-.1700018.55-.5150055.55-.8930095v-7.0000741c0-.379004-.214-.7250077-.553-.8940095l-5.447-2.7240288v-6.7320713l20.003 10.4361105-9.54 6.0700643 1.074 1.6880179 9.463-6.0220638zm-22-27.2652887 5 2.5000265v5.766061l-5 2.5190267-5-2.5190267v-5.766061zm23.463.9950105-23-12.000127c-.302-.1560017-.661-.1490016-.955.0170001l-23 13.0001377c-.314.1770019-.508.5100054-.508.8700092v26.0002753c0 .3490037.182.6730071.48.854009l23 14.0001483c.16.097001.34.1460015.52.1460015s.36-.0490005.52-.1460015l23-14.0001483c.298-.1810019.48-.5050053.48-.854009v-27.0002859c0-.3720039-.207-.7140075-.537-.8870094z" fill="#fff"/></g></svg>