<svg height="80" viewBox="0 0 80 80" width="80" xmlns="http://www.w3.org/2000/svg"><g fill="none" fill-rule="evenodd"><path d="m0 0h80v80h-80z" fill="#ed7100"/><path d="m57.28 55.9855103h-33.48c-4.416 0-9.519-3.2755601-9.78-7.969321-.002-.0292101-.003-.0594275-.005-.0886376h11.321c.409 0 .776-.2508039.928-.6325497.152-.3827531.058-.8188901-.238-1.1039404-.495-.4744123-.767-1.1099838-.767-1.7878595 0-1.3668313 1.103-2.4778223 2.459-2.4778223 1.357 0 2.46 1.110991 2.46 2.4778223 0 .6778757-.272 1.3134472-.767 1.7878595-.296.2850503-.39.7211873-.238 1.1039404.152.3817458.519.6325497.928.6325497h11.229c-.17.4784413-.259.9860927-.259 1.50986 0 2.476815 2.001 4.4923119 4.46 4.4923119s4.46-2.0154969 4.46-4.4923119c0-.5237673-.089-1.0314187-.259-1.50986h16.261c-.236 7.261228-6.144 8.0579586-8.713 8.0579586zm-36.621-16.9207058c.49-.1218767.813-.5932672.754-1.0978969-.062-.5106731-.091-1.01631-.091-1.5471281 0-4.6222465 3.29-9.6030721 7.49-11.3395622 2.392-.9860927 4.849-1.2741647 7.188-.8994697v11.2720769c0 .4119631.249.7836365.63.9357305.379.1520939.814.0574129 1.095-.242746.978-1.036455 2.749-.9709841 3.656.1087824.476.5670788.67 1.2912879.545 2.0386635-.153.9115566-.845 1.6931786-1.722 1.9439825-.91.258862-1.838.008058-2.479-.6728395-.282-.300159-.717-.3958472-1.095-.242746-.381.152094-.63.5237673-.63.9357304v5.6556798h-4.08c.17-.4784413.258-.9860927.258-1.50986 0-2.4768151-2.001-4.492312-4.46-4.492312s-4.459 2.0154969-4.459 4.492312c0 .5237673.088 1.0314187.258 1.50986h-9.421c.641-4.6605219 4.299-6.286215 6.563-6.8482576zm17.341-14.3935286c1.868.6244918 3.619 1.6962003 5.148 3.1939733 1.493 1.4584905 2.716 3.41456 3.538 5.656687.127.345485.43.5932672.79.6476584.364.0564057.723-.0936738.944-.3847675.923-1.2187663 2.295-1.9177942 3.762-1.9177942 2.164 0 4.786 1.5984976 5.05 6.1039037.027.4562819.356.8380277.801.9276725 3.285.6647816 7.14 2.431489 7.851 7.014453h-17.97c-.409 0-.777.2508039-.929.6325497-.151.382753-.058.8188901.238 1.1039403.495.4744124.768 1.1099838.768 1.7878596 0 1.3668312-1.104 2.4778223-2.46 2.4778223s-2.46-1.1109911-2.46-2.4778223c0-.6778758.272-1.3134472.768-1.7878596.295-.2850502.389-.7211873.238-1.1039403-.152-.3817458-.52-.6325497-.929-.6325497h-5.148v-3.8275304c.865.3122459 1.822.3545502 2.75.0896448 1.63-.4663544 2.866-1.8583667 3.148-3.5475163.221-1.3225124-.14-2.6611408-.991-3.6744291-1.182-1.4081283-3.203-1.9490188-4.907-1.3295632zm30 22.249031c0-.0725216-.008-.144036-.023-.2115214-.288-4.9153548-3.385-8.2976829-8.815-9.6212026-.584-4.9898909-3.861-7.2350396-6.98-7.2350396-1.553 0-3.026.5418977-4.216 1.5239614-.886-1.9238376-2.054-3.6170162-3.424-4.9566518-4.499-4.4066961-10.662-5.6043102-16.489-3.2040458-4.977 2.0588084-8.731 7.7356403-8.731 13.2039724 0 .3142604.009.6214701.027.925658-2.632.8450785-7.051 3.1879299-7.335 9.404645-.009.0553985-.014.1118042-.014.1702244 0 .0332391.002.0654709.005.09871-.003.1208694-.005.242746-.005.3666371 0 .2598692.01.4945572.023.7373032.328 5.9084982 6.355 9.8770428 11.777 9.8770428h33.48c2.515 0 10.72-.7584554 10.72-10.5257085 0-.1460505-.002-.2910937-.007-.4341225.005-.0392825.007-.0785651.007-.1198621z" fill="#fff"/></g></svg>