<svg height="80" viewBox="0 0 80 80" width="80" xmlns="http://www.w3.org/2000/svg"><g fill="none" fill-rule="evenodd"><path d="m0 0h80v80h-80z" fill="#8c4fff"/><path d="m41.5782711 52.7687934c0-.866-.705-1.571-1.571-1.571-.867 0-1.572.705-1.572 1.571 0 .867.705 1.572 1.572 1.572.866 0 1.571-.705 1.571-1.572zm2 0c0 1.62-1.091 2.976-2.571 3.412v3.017h-2v-3.017c-1.481-.436-2.572-1.792-2.572-3.412 0-1.969 1.603-3.571 3.572-3.571 1.968 0 3.571 1.602 3.571 3.571zm6.429 8.429v-4h-3v-2h3v-4h-3v-2h3v-3h-20v15zm-17-17h14l.001-6c0-3.434-3.629-4.999-7.001-5h-.004c-1.863 0-3.661.485-4.933 1.332-1.369.911-2.063 2.145-2.063 3.668zm19 1v17c0 .552-.448 1-1 1h-22c-.553 0-1-.448-1-1v-17c0-.553.447-1 1-1h2v-6c0-2.171 1.05-4.065 2.955-5.333 1.615-1.075 3.761-1.667 6.04-1.667h.005c4.472.001 9.001 2.406 9.001 7l-.001 6h2c.552 0 1 .447 1 1zm16-2c0 2.966-.893 5.354-2.653 7.099-2.866 2.843-6.998 2.906-7.352 2.906h-.02l-3.976-.005.002-2 3.984.005h.001c.068 0 3.643-.023 5.964-2.337 1.36-1.355 2.05-3.262 2.05-5.668 0-7.244-6.805-8.781-8.169-9.015-.267-.045-.504-.197-.656-.421-.154-.223-.209-.498-.155-.764.56-2.753-1.057-4.543-2.759-5.3-1.686-.749-4.112-.728-5.457 1.093-.219.298-.587.451-.952.395-.366-.055-.672-.307-.796-.656-.68-1.928-1.912-3.768-3.764-5.626-2.942-2.95-8.608-5.451-14.903-2.785-4.564 1.933-7.389 7.676-7.389 11.888 0 .185-.006.417-.014.667-.014.487-.03 1.094.008 1.408.062.518-.284.996-.795 1.1-.011.002-.021.003-.03.005-4.208 1.103-6.169 3.65-6.169 8.011l-.004.315c-.003.216-.008.463.002.621.303 4.854 4.879 7.064 9.002 7.064l3.001.003-.002 2-3-.003c-7.171 0-10.728-4.633-10.997-8.938-.013-.197-.01-.506-.005-.778l.003-.284c0-5.023 2.343-8.298 6.97-9.747.001-.276.009-.563.017-.833.007-.229.013-.442.013-.611 0-4.957 3.22-11.447 8.61-13.73 5.934-2.513 12.646-1.252 17.098 3.215 1.619 1.623 2.819 3.254 3.639 4.948 1.805-1.358 4.369-1.618 6.727-.569 2.717 1.208 4.23 3.709 4.04 6.539 4.293 1.058 8.886 4.398 8.886 10.788z" fill="#fff"/></g></svg>