<svg height="80" viewBox="0 0 80 80" width="80" xmlns="http://www.w3.org/2000/svg"><g fill="none" fill-rule="evenodd"><path d="m0 0h80v80h-80z" fill="#7aa116"/><path d="m43 43.4c-.552 0-1-.449-1-1s.448-1 1-1 1 .449 1 1-.448 1-1 1zm0-4c-1.654 0-3 1.346-3 3s1.346 3 3 3 3-1.346 3-3-1.346-3-3-3zm9.293 13.479-2.586-2.586c-.256-.255-.629-.354-.974-.257-.347.096-.616.372-.703.721l-.811 3.243h-8.438l-.811-3.243c-.087-.349-.356-.625-.703-.721-.347-.097-.719.002-.974.257l-2.586 2.586-.646-4.525 3.646-3.647c.188-.187.293-.442.293-.707 0-7.753 4.287-13.523 6.001-15.521 1.716 1.992 5.999 7.746 5.999 15.521 0 .265.105.52.293.707l3.646 3.647zm-1.297-9.297c-.182-10.276-7.006-17.014-7.3-17.3-.388-.376-1.004-.376-1.392 0-.294.286-7.118 7.024-7.3 17.3l-3.711 3.711c-.223.223-.327.537-.283.849l1 7c.053.375.314.687.674.807.358.121.755.026 1.023-.242l2.751-2.751.572 2.287c.112.445.511.757.97.757h10c.459 0 .858-.312.97-.757l.572-2.287 2.751 2.751c.19.191.446.293.707.293.105 0 .213-.017.316-.051.36-.12.621-.432.674-.807l1-7c.044-.312-.06-.626-.283-.849zm-3.996 22.418h2v-6h-2zm-10 0h2v-6h-2zm5 2h2v-10h-2zm19-47h-43c-.553 0-1 .448-1 1v32.5c0 .827-.673 1.5-1.5 1.5s-1.5-.673-1.5-1.5v-40.5h12.586l3.707 3.707c.187.188.441.293.707.293h30zm6 0h-4v-4c0-.552-.447-1-1-1h-30.586l-3.707-3.707c-.187-.187-.441-.293-.707-.293h-14c-.553 0-1 .448-1 1v41.5c0 1.93 1.57 3.5 3.5 3.5h13.5v-2h-10.351c.218-.456.351-.961.351-1.5v-31.5h47v33h-9v2h10c.553 0 1-.448 1-1v-35c0-.552-.447-1-1-1z" fill="#fff"/></g></svg>