<svg height="80" viewBox="0 0 80 80" width="80" xmlns="http://www.w3.org/2000/svg"><g fill="none" fill-rule="evenodd"><path d="m0 0h80v80h-80z" fill="#e7157b"/><path d="m47 54.998059h13v2.0002986h-13v2.0002986h-2v-2.0002986h-4v-2.0002986h4v-1.0001493h2zm4-6.0008958h9v2.0002986h-9v2.0002986h-2v-2.0002986h-8v-2.0002986h8v-1.0001493h2zm5-6.0008958h4v2.0002986h-4v2.0002986h-2v-2.0002986h-13v-2.0002986h13v-1.0001493h2zm-35 4.0005972h9v2.0002986h-9c-1.255 0-2.596-.3770563-3.587-1.0081505-2.02-1.279191-5.413-4.273638-5.413-9.947485 0-6.8810272 4.665-9.4064042 7.38-10.2915364l-.054-.9161367c-.002-5.6678461 3.748-11.4797137 8.72-13.5770268 5.823-2.4753696 11.99-1.2491865 16.499 3.2804897 1.399 1.4012092 2.551 3.1104643 3.433 5.0937604 1.771-1.4752202 4.182-1.9802956 6.422-1.2451859 2.847.9341395 4.619 3.5655323 4.827 7.1080611 2.838.6791014 8.773 3.01445 8.773 10.637588 0 .2850426-.011.5600836-.022.8231229l-1.999-.0530079c.01-.2670399.021-.5130766.021-.770115 0-6.7340052-5.557-8.4252577-7.946-8.8393195-.27-.047007-.508-.20103-.66-.4280639-.151-.2250336-.204-.5010748-.148-.7661144-.029-2.9814451-1.29-5.0967609-3.47-5.8118676-1.953-.643096-4.099.0660098-5.342 1.7582625-.22.2970443-.581.4520675-.952.3960591-.366-.0530079-.672-.3050455-.796-.6540977-.833-2.3433498-2.03-4.3066429-3.557-5.8358712-3.913-3.9315869-9.262-4.9957457-14.303-2.8514256-4.208 1.7742648-7.502 6.9030305-7.502 11.675743l.099 1.6542469c.028.4780714-.287.9091357-.752 1.0271534-2.491.6340946-6.671 2.592387-6.671 8.5852816 0 4.4796687 2.438 6.9630395 4.485 8.2582328.675.4310644 1.638.6971041 2.515.6971041zm45 5.3207943-1.764-.1010151c-.473-.0250037-.924.3010449-1.032.7791163-.338 1.4982237-.926 2.9184357-1.748 4.2206301-.261.4140618-.185.9551426.181 1.2811912l1.317 1.1741753-3.281 3.2824901-1.171-1.3131961c-.326-.3670548-.869-.4410658-1.28-.1800269-1.302.8221228-2.723 1.4112107-4.225 1.7502613-.476.1080161-.806.5450814-.777 1.0331543l.1 1.755262h-4.64l.1-1.7572623c.029-.4880729-.301-.9251381-.777-1.0331543-1.498-.3380504-2.919-.9281385-4.223-1.7512614-.413-.2620391-.955-.1870279-1.28.1800269l-1.174 1.3151963-3.28-3.2814899 1.315-1.172175c.365-.3260486.441-.8671294.18-1.2801911-.821-1.3021944-1.409-2.7224064-1.747-4.2236305-.107-.4780714-.585-.80412-1.032-.7791163l-1.762.1010151v-4.6406928l1.768.1010151c.465.0260039.923-.301045 1.032-.7781162.339-1.4952232.928-2.9134349 1.75-4.2146291.261-.4140619.184-.9561428-.18-1.2811913l-1.324-1.1811763 3.281-3.2814899 1.181 1.3231975c.326.3640544.868.4390656 1.279.1790268 1.3-.8191223 2.718-1.40621 4.216-1.7442604.476-.1080162.806-.5450814.777-1.0331543l-.1-1.7712644h4.64l-.1 1.7732647c-.029.4880729.301.924138.777 1.0321541 1.495.3390506 2.912.9261383 4.214 1.7462607.411.261039.954.1850276 1.279-.1790267l1.183-1.326198 3.281 3.2814899-1.321 1.1781758c-.364.3260487-.441.8671295-.18 1.2811913.822 1.3011943 1.411 2.7204061 1.749 4.2176296.108.4760711.561.8041201 1.032.7781162l1.766-.1010151zm.943-6.6979999-2.001.114017c-.325-1.1451709-.782-2.2463353-1.363-3.2884909l1.497-1.3351993c.205-.1830274.326-.442066.334-.7181072.008-.2740409-.098-.5410808-.293-.7351098l-4.778-4.7787134c-.194-.1950291-.471-.3070458-.735-.2920436-.276.0080012-.535.1280192-.718.3330498l-1.34 1.5022242c-1.041-.5800866-2.14-1.0351545-3.283-1.3612032l.114-2.0082998c.016-.275041-.082-.5440812-.272-.7441111-.188-.2000298-.451-.3130467-.726-.3130467h-6.758c-.275 0-.538.1130169-.726.3130467-.19.2000299-.288.4690701-.272.7441111l.114 2.0062995c-1.145.3250485-2.245.7811166-3.285 1.3602031l-1.338-1.4992238c-.183-.2050306-.442-.3250486-.718-.3330498-.283-.0130019-.541.0970145-.735.2920436l-4.778 4.7787134c-.195.194029-.301.4610689-.293.7351098.008.275041.129.5350798.334.7181072l1.5 1.3381997c-.581 1.0421556-1.038 2.1413197-1.364 3.2854905l-2.003-.114017c-.268-.0180027-.544.0830124-.744.2710404-.2.1890283-.313.4520675-.313.7271086v6.759009c0 .2750411.113.5380803.313.7271085.2.1880281.477.2860427.744.2710405l1.996-.114017c.325 1.1481714.781 2.2503359 1.362 3.2934917l-1.491 1.3291984c-.205.1830273-.326.4430661-.334.7181072-.008.275041.098.5420809.293.7361099l4.778 4.7787134c.194.1950291.477.302045.735.2930437.276-.0080012.536-.1290193.718-.3340499l1.33-1.4922227c1.043.583087 2.146 1.0411554 3.292 1.3672041l-.113 1.9922974c-.016.2740409.082.5430811.272.7441111.188.2000298.451.3130467.726.3130467h6.758c.275 0 .538-.1130169.727-.3130467.189-.20103.287-.4700702.271-.7441111l-.113-1.9902971c1.148-.3270489 2.251-.7841171 3.294-1.366204l1.328 1.4892223c.182.2050306.442.3260487.718.3340499.267.0120018.541-.0980146.735-.2930437l4.778-4.7787134c.195-.194029.301-.4610689.293-.7361099-.008-.2750411-.129-.5350799-.335-.7181072l-1.493-1.3311987c.581-1.0431558 1.037-2.1453203 1.363-3.2914914l1.998.114017c.27.0150022.544-.0830124.744-.2710405.2-.1890282.313-.4520674.313-.7271085v-6.759009c0-.2750411-.113-.5380803-.313-.7271086-.2-.188028-.473-.288043-.744-.2710404z" fill="#fff"/></g></svg>