<svg height="80" viewBox="0 0 80 80" width="80" xmlns="http://www.w3.org/2000/svg"><g fill="none" fill-rule="evenodd"><path d="m0 0h80v80h-80z" fill="#c925d1"/><path d="m47.5 42.2002589h-2v13.8831823h-4v-9.9165588h-2v9.9165588h-4v-6.9415911h-2v6.9415911h-2v1.9833118h18v-1.9833118h-2zm8 7.4374191c0-7.9282887-6.505-14.3790102-14.5-14.3790102s-14.5 6.4507215-14.5 14.3790102c0 7.9282888 6.505 14.3790102 14.5 14.3790102s14.5-6.4507214 14.5-14.3790102zm2 0c0 9.0220852-7.402 16.362322-16.5 16.362322s-16.5-7.3402368-16.5-16.362322 7.402-16.362322 16.5-16.362322 16.5 7.3402368 16.5 16.362322zm10.5-10.935981c0 5.6573968-3.132 9.3364401-8.591 10.0920819l-.277-1.9644703c3.134-.4333536 6.868-2.1955261 6.868-8.1276116 0-5.5681478-4.247-7.5822008-7.809-8.2912348-.447-.0882574-.776-.4650866-.801-.91629-.234-4.0727307-2.645-5.8963859-4.932-5.8963859-1.437 0-2.777.6713511-3.676 1.8424966-.22.2875803-.585.432362-.943.3798042-.36-.0535494-.664-.2965051-.79-.636643-.81-2.1687514-2.01-4.0598392-3.47-5.4689822-3.838-3.7117679-9.09-4.720282-14.049-2.6953207-4.117 1.6749068-7.342 6.495346-7.342 10.973664 0 .5027695.031 1.0035557.091 1.4884754.063.4978113-.26.9638896-.752 1.0838799-2.437.5989602-6.527 2.4424485-6.527 8.060179 0 .2112227.011.4026123.021.6039184.183 3.2913059 3.047 6.3148647 6.966 7.351145l-.515 1.9158792c-4.744-1.2544447-8.218-5.0207537-8.448-9.1599253-.013-.2379974-.024-.4621117-.024-.7110173 0-6.4903877 4.538-8.8971365 7.216-9.7509522-.019-.2915469-.028-.5860687-.028-.8815821 0-5.3113089 3.69-10.8169823 8.582-12.8082273 5.718-2.3363413 11.778-1.1741206 16.205 3.1098328 1.338 1.2911359 2.481 2.9243932 3.351 4.7787897 1.166-.9400898 2.61-1.4587258 4.132-1.4587258 3.072 0 6.295 2.1766846 6.862 7.0129903 5.606 1.3496437 8.68 4.9037384 8.68 10.0742321z" fill="#fff"/></g></svg>