<svg height="80" viewBox="0 0 80 80" width="80" xmlns="http://www.w3.org/2000/svg"><g fill="none" fill-rule="evenodd"><path d="m0 0h80v80h-80z" fill="#e7157b"/><path d="m47.459 33.027.893 1.79-2.583 1.288-.893-1.79zm-4.994 2.562.832 1.819-3.297 1.507.002 2.084-2 .001-.001-1.874-3.439-1.584.835-1.816 3.372 1.552zm-4.465 12.411h2v-4h-2zm0 7h2v-4h-2zm25.188 10.2c-.712.713-1.809 1.154-2.524.441l-8.734-8.939c1.033-.802 1.96-1.729 2.761-2.763l8.95 8.71c.689.689.294 1.805-.453 2.551zm-23.188.137v-5.597c.807.13 1.629.216 2.472.216 2.835 0 5.486-.78 7.774-2.117l1.329 1.36zm-24-37.654 14.028 7.646c-1.894 2.567-3.028 5.727-3.028 9.155 0 6.976 4.643 12.884 11 14.807v6.03l-22-11.917zm23.351-13.543 21.515 12.081-10.256 5.129c-2.368-1.473-5.151-2.338-8.138-2.338-4.371 0-8.316 1.83-11.133 4.754l-14.232-7.757zm3.121 43.816c-7.429 0-13.472-6.043-13.472-13.472s6.043-13.472 13.472-13.472c7.428 0 13.472 6.043 13.472 13.472s-6.044 13.472-13.472 13.472zm16.475-2.666-3.118-3.034c1.336-2.287 2.115-4.938 2.115-7.772 0-4.734-2.142-8.973-5.503-11.814l9.559-4.779v25.78zm6.098 5.935-4.593-4.47 3.017-1.599c.327-.173.531-.513.531-.883v-28c0-.362-.195-.695-.511-.872l-23.636-13.273c-.297-.167-.659-.171-.96-.011l-24.364 13c-.326.174-.529.514-.529.883v28c0 .367.201.704.523.879l24 13c.149.081.313.121.477.121.161 0 .322-.039.469-.117l13.563-7.193 6.21 6.357c.644.644 1.455.96 2.306.96 1.037 0 2.133-.471 3.055-1.393 1.662-1.661 1.857-3.974.442-5.389z" fill="#fff"/></g></svg>