<svg height="80" viewBox="0 0 80 80" width="80" xmlns="http://www.w3.org/2000/svg"><g fill="none" fill-rule="evenodd"><path d="m0 0h80v80h-80z" fill="#dd344c"/><path d="m57 60.999875c0-1.626029-1.374-3.0000536-3-3.0000536s-3 1.3740246-3 3.0000536 1.374 3.0000536 3 3.0000536 3-1.3740246 3-3.0000536zm-17-1.0000179c-1.626 0-3 1.3740246-3 3.0000536s1.374 3.0000536 3 3.0000536 3-1.3740246 3-3.0000536-1.374-3.0000536-3-3.0000536zm-14-2.0000357c-1.626 0-3 1.3740246-3 3.0000536s1.374 3.0000536 3 3.0000536 3-1.3740246 3-3.0000536-1.374-3.0000536-3-3.0000536zm2.605-15.0002678h22.79l-7.656-6.8891231-3.09 2.6480473c-.186.1610029-.419.2410043-.65.2410043s-.464-.0800014-.65-.2410043l-3.089-2.6480473zm-1.605-14.8262648v13.5812425l7.729-6.9561242zm24.297-1.174021h-22.594l11.296 9.683173zm1.703 14.7552635v-13.5812425l-7.729 6.6241183zm6 19.2453437c0 2.7100484-2.29 5.0000893-5 5.0000893s-5-2.2900409-5-5.0000893c0-2.3690423 1.75-4.4160789 4-4.8940874v-3.1060555h-12v5.1060912c2.25.4780086 4 2.5250451 4 4.8940874 0 2.7100484-2.29 5.0000893-5 5.0000893s-5-2.2900409-5-5.0000893c0-2.3690423 1.75-4.4160788 4-4.8940874v-5.1060912h-12v3.1060555c2.25.4780085 4 2.5250451 4 4.8940874 0 2.7100484-2.29 5.0000893-5 5.0000893s-5-2.2900409-5-5.0000893c0-2.3690423 1.75-4.4160789 4-4.8940874v-4.1060733c0-.5520099.447-1.0000179 1-1.0000179h13v-6.0001071h-13c-.553 0-1-.448008-1-1.0000179v-18.0003214c0-.5520099.447-1.0000179 1-1.0000179h28c.553 0 1 .448008 1 1.0000179v18.0003214c0 .5520099-.447 1.0000179-1 1.0000179h-13v6.0001071h13c.553 0 1 .448008 1 1.0000179v4.1060733c2.25.4780085 4 2.5250451 4 4.8940874zm9-21.000375c0 5.9071055-1.823 11.5602064-5.273 16.3452919l-1.623-1.1700209c3.203-4.4430794 4.896-9.6901731 4.896-15.175271 0-14.335256-11.663-25.9994643-25.999-25.9994643-14.337 0-26.001 11.6642083-26.001 25.9994643 0 5.4850979 1.693 10.7321916 4.896 15.175271l-1.623 1.1700209c-3.45-4.7850855-5.273-10.4381864-5.273-16.3452919 0-15.4382757 12.561-27.9995 27.999-27.9995 15.439 0 28.001 12.5612243 28.001 27.9995z" fill="#fff"/></g></svg>