<svg height="80" viewBox="0 0 80 80" width="80" xmlns="http://www.w3.org/2000/svg"><g fill="none" fill-rule="evenodd"><path d="m0 0h80v80h-80z" fill="#c925d1"/><path d="m53.008 27.28c0 11.078-6.833 20.585-16.504 24.542v-2.177c8.539-3.835 14.504-12.414 14.504-22.365 0-11.949-8.597-21.921-19.93-24.073l-.933-2.178c12.897 1.782 22.863 12.872 22.863 26.251zm-36.504 22.365v2.177c-9.671-3.957-16.504-13.464-16.504-24.542 0-13.377 9.962-24.465 22.857-26.25l-.935 2.179c-11.329 2.154-19.922 12.125-19.922 24.071 0 9.951 5.965 18.53 14.504 22.365zm2 6.355h2v-19h-2zm14 0h2v-19h-2zm-7-5h2v-21h-2zm1-47.609 10.481 24.52-9.871-7.527c-.325-.248-.79-.262-1.14-.051-.031.019-.063.04-.092.062l-9.859 7.517zm-13.506 28.405c.181.141.398.211.614.211.214 0 .427-.068.607-.205l12.287-9.367 12.283 9.367c.363.276.863.274 1.221-.006.358-.279.483-.765.306-1.182l-12.827-30.007c-.158-.368-.519-.607-.919-.607h-.131c-.401 0-.762.239-.92.607l-12.826 30.007c-.178.417-.053.903.305 1.182z" fill="#fff" transform="translate(12.9998 11.9998)"/></g></svg>