<svg height="80" viewBox="0 0 80 80" width="80" xmlns="http://www.w3.org/2000/svg"><g fill="none" fill-rule="evenodd"><path d="m0 0h80v80h-80z" fill="#dd344c"/><path d="m0 13.916v27.824l24 13.915 24-13.915v-27.824l-24-13.916zm2 18.837v-17.685l22-12.756 22 12.756v25.52l-5 2.898v-25.73l-17-9.705-17 9.705v17.824zm32-10.719-15.091-8.774 5.091-2.906 15 8.563v9.692l-5 2.835zm-25 14.676v-17.793l7.9-4.51 5.119 2.976-8.019 4.65v17.503zm7-4.24v-9.284l8.012-4.646 7.988 4.644v9.394l-7.994 4.534zm23-1.562v5.844l-14.999 8.437-8.001-4.522v-5.884l7.994 4.635zm-37 9.68v-5.537l21.999 12.434 15.001-8.438v5.599l-15 8.698z" fill="#fff" transform="translate(16 12)"/></g></svg>