<svg height="80" viewBox="0 0 80 80" width="80" xmlns="http://www.w3.org/2000/svg"><g fill="none" fill-rule="evenodd"><path d="m0 0h80v80h-80z" fill="#dd344c"/><path d="m51.9968943 52.4963312h7v-2h-7zm-9 0h7v-2h-7zm-9 0h7v-2h-7zm11-8c0-1.103.898-2 2-2 1.103 0 2 .897 2 2s-.897 2-2 2c-1.102 0-2-.897-2-2zm6 0c0-2.206-1.793-4-4-4-2.206 0-4 1.794-4 4s1.794 4 4 4c2.207 0 4-1.794 4-4zm-14-2c1.103 0 2 .897 2 2s-.897 2-2 2c-1.102 0-2-.897-2-2s.898-2 2-2zm0 6c2.207 0 4-1.794 4-4s-1.793-4-4-4c-2.206 0-4 1.794-4 4s1.794 4 4 4zm29-15v23c0 .552-.447 1-1 1h-31v-2h30v-21h-22v-2h23c.553 0 1 .448 1 1zm-35.301 5.047c-.416.131-.699.517-.699.953v21.04l-2.399 2.057-2.601-2.973v-2.624c0-.265-.105-.52-.293-.707l-2.292-2.293 2.292-2.293c.188-.187.293-.442.293-.707v-2c0-.265-.105-.52-.293-.707l-2.292-2.293 2.292-2.293c.188-.187.293-.442.293-.707v-3.49c0-.436-.282-.822-.698-.953-5.142-1.63-8.182-6.919-7.069-12.304.802-3.88 3.786-6.991 7.601-7.926 3.249-.797 6.581-.1 9.141 1.907 2.558 2.007 4.025 5.02 4.025 8.266 0 4.553-3.002 8.685-7.301 10.047zm9.301-10.047c0-3.864-1.746-7.451-4.791-9.84s-6.997-3.22-10.851-2.275c-4.561 1.117-8.126 4.832-9.084 9.463v.001c-1.27 6.145 2.029 12.189 7.726 14.37v2.367l-2.707 2.707c-.39.391-.39 1.023 0 1.414l2.707 2.707v1.172l-2.707 2.707c-.39.391-.39 1.023 0 1.414l2.707 2.707v2.586c0 .242.088.476.248.659l3.5 4c.198.225.474.341.752.341.231 0 .462-.079.651-.241l3.5-3c.222-.19.349-.467.349-.759v-20.792c4.746-1.832 8-6.542 8-11.708zm-12.5 2.37c-1.378 0-2.5-1.121-2.5-2.5 0-1.378 1.122-2.5 2.5-2.5 1.379 0 2.5 1.122 2.5 2.5 0 1.379-1.121 2.5-2.5 2.5zm0-7c-2.481 0-4.5 2.019-4.5 4.5 0 2.482 2.019 4.5 4.5 4.5 2.482 0 4.5-2.018 4.5-4.5 0-2.481-2.018-4.5-4.5-4.5z" fill="#fff"/></g></svg>