<svg height="80" viewBox="0 0 80 80" width="80" xmlns="http://www.w3.org/2000/svg"><g fill="none" fill-rule="evenodd"><path d="m0 0h80v80h-80z" fill="#ed7100"/><path d="m54.142 21.071h7.715v-2h-7.715zm-1.142-5.142h10v-2h-10zm1 27.071h8v-2h-8zm-1 5h10v-2h-10zm-19.293-1.293c.391-.391.391-1.023 0-1.414l-12-12-1.414 1.414 11.293 11.293-11.293 11.293 1.414 1.414zm.293 11.293h20v-2h-20zm34 8v-10h-2v10h-52v-52h28v-2h-28c-1.103 0-2 .897-2 2v52c0 1.103.897 2 2 2h52c1.103 0 2-.897 2-2zm-18-20.289c0-3.015 1.132-5.888 3.188-8.091l11.086-11.875c2.403-2.575 3.726-5.933 3.726-9.456v-4.289h-2v4.289c0 3.015-1.132 5.888-3.188 8.091l-11.086 11.875c-2.403 2.575-3.726 5.933-3.726 9.456v4.289h2zm10.737-13.246-1.369 1.466 3.444 3.689c2.056 2.203 3.188 5.076 3.188 8.091v4.289h2v-4.289c0-3.523-1.323-6.881-3.726-9.456zm-9.011-6.72c-2.403-2.575-3.726-5.933-3.726-9.456v-4.289h2v4.289c0 3.015 1.132 5.888 3.188 8.091l3.444 3.689-1.369 1.466z" fill="#fff"/></g></svg>