<svg height="80" viewBox="0 0 80 80" width="80" xmlns="http://www.w3.org/2000/svg"><g fill="none" fill-rule="evenodd"><path d="m0 0h80v80h-80z" fill="#01a88d"/><path d="m40.062455 39v24.711l-24.6558812-24.711zm1.3799152 28.049c.3731658-.155.6156237-.52.6156237-.924v-28.125c0-.552-.4460029-1-.9977694-1h-28.0622662c-.4030989 0-.7682825.244-.921939.617-.1546543.374-.0688461.804.216516 1.09l28.0622662 28.125c.1905739.191.4460029.293.705423.293.1287122 0 .2584223-.025.3821457-.076zm25.5598603.951c-.25942 0-.514849-.102-.705423-.293l-20.2048316-20.25 1.410846-1.414 18.5016392 18.543v-50.586h-50.4731661l18.5016391 18.543-1.410846 1.414-20.2048316-20.25c-.2853621-.286-.3711703-.716-.216516-1.09.1536565-.373.5188401-.617.921939-.617h53.879551c.5517665 0 .9977695.448.9977695 1v54c0 .404-.242458.769-.6156238.924-.1237234.051-.2534334.076-.3821457.076z" fill="#fff"/></g></svg>