<svg height="80" viewBox="0 0 80 80" width="80" xmlns="http://www.w3.org/2000/svg"><g fill="none" fill-rule="evenodd"><path d="m0 0h80v80h-80z" fill="#e7157b"/><path d="m58.5407427 47.0508731 1.8808295.6504825-1.1865836 3.4284609c-.1392471.4038164-.5201872.6683858-.9389229.6683858-.0407795 0-.0825536-.0019892-.1243277-.0069623l-3.8312827-.4774184.2466662-1.9743241 2.1652914.2705371c-.8513962-1.3417446-2.4577102-2.1792161-4.37733-2.1792161-2.5144036 0-4.4200987 1.3755618-4.8547484 3.5040522l-1.9484639-.3978487c.6325794-3.0952626 3.3031386-5.0954468 6.8032123-5.0954468 2.4537317 0 4.5314963 1.0393796 5.7817358 2.7202903zm-1.3109114 6.7385618 1.9484638.3998379c-.6295955 3.073381-3.3638105 5.1382156-6.8032122 5.1382156-2.2388934 0-4.2122228-.964783-5.4873278-2.5124144l-.1979297.9339498-1.9464746-.412768.788735-3.7218743c.1123922-.531128.6236277-.8752671 1.1647019-.7698372l3.6174391.7081706-.3819347 1.9524424-1.8231416-.3570692c.8732779 1.3387608 2.4517424 2.1901569 4.2659324 2.1901569 2.5064466 0 4.4121417-1.3934649 4.8547484-3.5488101zm7.7809253.310322-1.1965298-.0676343c-.4823915-.0228763-.9190305.2993811-1.0264496.7748103-.2635747 1.1706697-.72309 2.2806675-1.3666102 3.2991601-.2595962.4107787-.184005.9498637.1780373 1.2731157l.8941649.796692-2.3164739 2.3174685-.7937081-.8891918c-.3242467-.3640315-.8633316-.4386281-1.2741104-.1790319-1.0184926.6435202-2.129485 1.1040301-3.3041332 1.3695941-.4734399.1074191-.801665.5410741-.772821 1.0264495l.0676343 1.1895675h-3.2782731l.0686289-1.1905621c.0278494-.4853754-.2993811-.920025-.7738156-1.0274442-1.1706698-.2635747-2.2826568-.7250792-3.302144-1.369594-.4107788-.2595963-.9498637-.1859943-1.2731157.1790319l-.7956974.891181-2.3174685-2.3174685.891181-.7947027c.3630369-.3232521.4386282-.8613424.1790319-1.2721212-.6425256-1.0194872-1.1010462-2.129485-1.3656155-3.3031385-.1064245-.4754292-.5579828-.8066382-1.0264496-.7738157l-1.1945406.0676343v-3.2772785l1.1985191.0676343c.4406174.0198925.9180358-.2983865 1.0264496-.772821.2645693-1.1696751.7250792-2.2786783 1.3685994-3.2961763.2595962-.4117733.1830104-.9498637-.1790319-1.2731157l-.8981434-.8016651 2.3174685-2.3184631.8016651.8971488c.3222574.3640315.8633316.4376335 1.2721211.1800265 1.0165034-.641531 2.1265011-1.1000516 3.2971709-1.364621.4744345-.1074191.801665-.5420688.7738156-1.0274441l-.0686289-1.201503h3.2782731l-.0676343 1.2034922c-.028844.4853754.2993811.9190304.772821 1.0264496 1.1696751.2645693 2.2776837.7240845 3.294187 1.3656155.4087895.257607.9488691.184005 1.2731158-.1790319l.8036543-.9001326 2.3174685 2.3184631-.8961541.7986812c-.3620423.3242467-.4376336.862337-.1780373 1.2731158.6425256 1.0184926 1.1030354 2.1274957 1.3676048 3.2991601.1074191.4744345.567929.7927135 1.0264496.772821l1.1975244-.0676343zm1.6769322-5.0536728c-.1979297-.1879835-.4734399-.2874456-.7390039-.2705371l-1.4362337.0825536c-.2456716-.8215575-.5738967-1.6152656-.9826862-2.3701834l1.0741914-.9588153c.2038974-.1820158.3242467-.4406174.3322036-.7141384.0069624-.2725263-.0984675-.5380903-.2914241-.7310469l-3.8064172-3.8074118c-.1939512-.1929566-.4465851-.3053488-.7320415-.2904295-.273521.007957-.531128.1273116-.7141384.331209l-.9617992 1.0791645c-.7539232-.4077949-1.545642-.73602-2.3662049-.9806969l.081559-1.4431961c.0149193-.2725263-.081559-.5400796-.2705371-.7390039-.1869889-.1989243-.4485744-.3113166-.7220954-.3113166h-5.3838871c-.2745156 0-.5351065.1123923-.72309.3113166s-.2854564.4664776-.2695424.7390039l.0815589 1.4412068c-.8225521.2446769-1.6132763.5729021-2.3681942.980697l-.9608045-1.0761807c-.1820158-.204892-.4396228-.3242466-.7141384-.3322036-.2774994-.0119355-.5370957.0974729-.7310469.2904295l-3.8074118 3.8074118c-.1939512.1929566-.2993811.4585206-.2914241.7310469.0079569.273521.1283062.5321226.3322036.7141384l1.0771753.9617992c-.4087895.7539232-.7370147 1.5466367-.9836808 2.3671995l-1.438223-.0825536c-.2715317-.0179031-.5410742.0825536-.7390039.2705371-.1989243.1879835-.3113166.449569-.3113166.72309v5.3838871c0 .2725264.1123923.5351065.3113166.72309.1979297.1879835.4684668.2834672.7390039.2695425l1.4332498-.081559c.2456716.8235467.5738968 1.6172548.9826863 2.3741619l-1.0712076.9538422c-.2038974.1830104-.3242467.4406174-.3322036.7141384-.007957.2735209.0974729.5380903.2914241.7320415l3.8074118 3.8064172c.1939512.1939512.4774184.3003757.7310469.2914241.2745156-.0079569.5321226-.1283062.7141384-.3322036l.9548368-1.0702129c.7569071.4097841 1.5506152.7390039 2.3741619.9846754l-.0815589 1.430266c-.015914.2735209.0815589.5410742.2695424.7399985.1879835.1989244.4485744.3113166.72309.3113166h5.3838871c.273521 0 .5351065-.1123922.7220954-.3113166.1889781-.1989243.2854564-.4664776.2705371-.7399985l-.081559-1.4282767c.8245413-.2456716 1.6192441-.5748914 2.3751565-.9846755l.9528476 1.0682237c.1820158.204892.4406174.3242467.7141384.3322036.2884403.0119355.5380903-.0974729.7320415-.2914241l3.8064172-3.8064172c.1929566-.1939512.2983865-.4585206.2914241-.7320415-.0079569-.273521-.1283062-.531128-.3322036-.7131438l-1.0722022-.956826c.4087895-.7559125.7380093-1.5496206.9826862-2.3721727l1.4342445.081559c.2645694.01293.5410742-.0825536.7390039-.2695425.199919-.1879835.3123112-.4505636.3123112-.72309v-5.3838871c0-.273521-.1123922-.5351065-.3123112-.72309zm-51.6984454 5.7280263h19.8924335v1.9892433h-20.8870552c-.5500258 0-.9946217-.4455905-.9946217-.9946217v-41.7741103c0-.5490312.4445959-.9946217.9946217-.9946217h45.752597c.5500258 0 .9946217.4455905.9946217.9946217v21.8816768h-1.9892433v-20.8870551h-43.7633537zm32.8225152-27.8494069h-.9946216v-1.9892434h.9946216 3.9784867.9946217v1.9892434h-.9946217zm.9946217-3.9784867h1.9892434v-3.9784867h-1.9892434zm3.9784867 12.9300817v-6.9623517h.9946217c.5500258 0 .9946217-.4455905.9946217-.9946217v-3.9784867c0-.5490311-.4445959-.9946216-.9946217-.9946216h-.9946217v-4.9731084c0-.5490312-.4445959-.9946217-.9946217-.9946217h-3.9784867c-.5500257 0-.9946216.4455905-.9946216.9946217v4.9731084h-.9946217c-.5500258 0-.9946217.4455905-.9946217.9946216v3.9784867c0 .5490312.4445959.9946217.9946217.9946217h.9946217v6.9623517h1.9892433v-6.9623517h1.9892434v6.9623517zm-18.8978118 1.9892434h-.9946217v-1.9892434h.9946217 3.9784867.9946217v1.9892434h-.9946217zm.9946217-3.9784867h1.9892433v-14.9193251h-1.9892433zm3.9784867 7.9569734v-1.9892434h.9946216c.5500258 0 .9946217-.4455905.9946217-.9946216v-3.9784867c0-.5490312-.4445959-.9946217-.9946217-.9946217h-.9946216v-15.9139468c0-.5490312-.4445959-.9946217-.9946217-.9946217h-3.9784867c-.5500258 0-.9946217.4455905-.9946217.9946217v15.9139468h-.9946217c-.5500258 0-.9946216.4455905-.9946216.9946217v3.9784867c0 .5490311.4445958.9946216.9946216.9946216h.9946217v10.9408385h1.9892434v-10.9408385h1.9892433v1.9892434zm-19.8924335-13.9247035h.9946216 3.9784867.9946217v1.9892434h-.9946217-3.9784867-.9946216zm1.9892433-1.9892433h1.9892434v-6.9623517h-1.9892434zm0 22.8762985h1.9892434v-16.9085685h-1.9892434zm-.9946217 1.9892434h3.9784867c.5500258 0 .9946217-.4455905.9946217-.9946217v-17.9031902h.9946217c.5500258 0 .9946217-.4455905.9946217-.9946216v-3.9784867c0-.5490312-.4445959-.9946217-.9946217-.9946217h-.9946217v-7.9569734c0-.5490312-.4445959-.9946217-.9946217-.9946217h-3.9784867c-.5500258 0-.9946216.4455905-.9946216.9946217v7.9569734h-.9946217c-.5500258 0-.9946217.4455905-.9946217.9946217v3.9784867c0 .5490311.4445959.9946216.9946217.9946216h.9946217v17.9031902c0 .5490312.4445958.9946217.9946216.9946217z" fill="#fff"/></g></svg>