<svg height="80" viewBox="0 0 80 80" width="80" xmlns="http://www.w3.org/2000/svg"><g fill="none" fill-rule="evenodd"><path d="m0 0h80v80h-80z" fill="#e7157b"/><path d="m64.830362 44h-20.929l1.876-7h20.929zm3.973-8.609c-.189-.246-.483-.391-.793-.391h-23c-.452 0-.849.304-.966.741l-2.412 9c-.081.301-.017.621.173.868.188.246.482.391.793.391h23c.452 0 .848-.304.965-.741l2.413-9c.081-.301.016-.621-.173-.868zm-25.499 27.109c0 1.93-1.571 3.5-3.5 3.5-1.93 0-3.5-1.57-3.5-3.5s1.57-3.5 3.5-3.5c1.929 0 3.5 1.57 3.5 3.5zm-28.929-19.5h17.93l-1.073 4h-17.929zm0-10h17.93l-1.073 4h-17.929zm21.929-15.5c0-1.93 1.57-3.5 3.5-3.5 1.929 0 3.5 1.57 3.5 3.5s-1.571 3.5-3.5 3.5c-1.93 0-3.5-1.57-3.5-3.5zm19.5 35.5h-32v-4h8.196c.452 0 .849-.304.966-.741l1.607-6c.081-.301.017-.621-.173-.868-.188-.246-.482-.391-.793-.391h-9.803v-2h8.196c.452 0 .849-.304.966-.741l1.607-6c.081-.301.017-.621-.173-.868-.188-.246-.482-.391-.793-.391h-9.803v-3h32v4h2v-5c0-.552-.448-1-1-1h-16v-3.096c2.555-.472 4.5-2.713 4.5-5.404 0-3.033-2.468-5.5-5.5-5.5-3.033 0-5.5 2.467-5.5 5.5 0 2.691 1.944 4.932 4.5 5.404v3.096h-16c-.553 0-1 .448-1 1v4h-8.197c-.452 0-.848.304-.965.741l-1.608 6c-.081.301-.017.621.173.868.188.246.482.391.793.391h9.804v2h-8.197c-.452 0-.848.304-.965.741l-1.608 6c-.081.301-.017.621.173.868.188.246.482.391.793.391h9.804v5c0 .552.447 1 1 1h16v2.096c-2.556.472-4.5 2.713-4.5 5.404 0 3.033 2.467 5.5 5.5 5.5 3.032 0 5.5-2.467 5.5-5.5 0-2.691-1.945-4.932-4.5-5.404v-2.096h16c.552 0 1-.448 1-1v-4.973h-2z" fill="#fff"/></g></svg>