<svg height="80" viewBox="0 0 80 80" width="80" xmlns="http://www.w3.org/2000/svg"><g fill="none" fill-rule="evenodd"><path d="m0 0h80v80h-80z" fill="#01a88d"/><path d="m31.7184064 37.7895814h2v-14h-2zm-6-11h2v-9h-2zm0 15h2v-4h-2zm0-6h2v-7h-2zm-6 12h2v-3h-2zm0-6h2v-9h-2zm33 3h-4c-.553 0-1-.448-1-1v-5h-4v5c0 .552-.447 1-1 1h-4v4h4c.553 0 1 .448 1 1v4h4v-4c0-.552.447-1 1-1h4zm2-1v6c0 .552-.447 1-1 1h-4v4c0 .552-.447 1-1 1h-6c-.553 0-1-.448-1-1v-4h-4c-.553 0-1-.448-1-1v-6c0-.552.447-1 1-1h4v-5c0-.552.447-1 1-1h6c.553 0 1 .448 1 1v5h4c.553 0 1 .448 1 1zm-44.99999997 9.731v-26.462c0-.148.12-.269.268-.269h12.73199997v-2h-12.73199997c-1.25 0-2.268 1.018-2.268 2.269v26.462c0 1.251 1.018 2.269 2.268 2.269h28.73199997v-2h-28.73199997c-.148 0-.268-.121-.268-.269zm37.99999997-18.731v-7.731c0-1.251-1.018-2.269-2.269-2.269h-8.731v2h8.731c.149 0 .269.121.269.269v7.731zm7.575-9.296c0 .194 0 .385-.004.573 0 .087-.014 2.685-1.467 5.363l-1.757-.953c1.212-2.236 1.224-4.409 1.224-4.431.004-.196.004-.372.004-.552 0-6.484-4.402-8.005-7.714-8.584-.043-.008-.086-.018-.128-.032l-.338-.106c-.466-.147-.758-.611-.689-1.096.366-2.543-.658-4.548-2.742-5.365-1.617-.63400001-3.956-.45400001-5.265 1.441-.214.31-.586.475-.958.422-.373-.051-.686-.307-.809-.663-.788-2.27000001-1.929-4.17900001-3.394-5.67400001-1.792-1.831-6.707-5.76699999-13.652-2.775-4.419 1.906-7.165 5.704-7.165 9.91100001l.096 3.09c.014.467-.296.881-.74799997.999l-.247.064c-3.259.846-6.954 1.804-7.528 7.959-.02.206-.014.816.003 1.262l-1.998.075c-.002-.043-.04-1.064.003-1.524.67-7.16 5.202-8.698 8.491-9.57l-.072-2.324c0-5.05000001 3.20899997-9.55100001 8.37399997-11.77800001 5.602-2.416 11.537-1.216 15.873 3.211 1.332 1.361 2.425 3.008 3.261 4.911 1.741-1.404 4.195-1.789 6.465-.899 2.146.841 4.246 3.00000001 4.079 6.59900001 5.842 1.201 8.802 4.713 8.802 10.446z" fill="#fff" transform="translate(12.27 12.2)"/></g></svg>