<svg height="80" viewBox="0 0 80 80" width="80" xmlns="http://www.w3.org/2000/svg"><g fill="none" fill-rule="evenodd"><path d="m0 0h80v80h-80z" fill="#7aa116"/><path d="m15 35h3v-7h-3zm9 0h3v-7h-3zm0-12h3v-7h-3zm12 6h3v-7h-3zm9 0h3v-7h-3zm-31 8h5c.553 0 1-.448 1-1v-3h2v3c0 .552.448 1 1 1h5c.553 0 1-.448 1-1v-3h3c.553 0 1-.448 1-1v-5h1v3c0 .552.448 1 1 1h5c.553 0 1-.448 1-1v-3h2v3c0 .552.448 1 1 1h5c.553 0 1-.448 1-1v-9c0-.552-.447-1-1-1h-5c-.552 0-1 .448-1 1v4h-2v-4c0-.552-.447-1-1-1h-5c-.552 0-1 .448-1 1v4h-1v-5c0-.552-.447-1-1-1h-3v-4c0-.552-.447-1-1-1h-5c-.552 0-1 .448-1 1v9c0 .552.448 1 1 1h5c.553 0 1-.448 1-1v-3h2v10h-2v-4c0-.552-.447-1-1-1h-5c-.552 0-1 .448-1 1v4h-2v-4c0-.552-.447-1-1-1h-5c-.552 0-1 .448-1 1v9c0 .552.448 1 1 1zm18.251-20.161-.501-1.936c2.349-.608 4.779-.87 7.229-.769 8.896.356 16.969 5.493 21.068 13.406l-1.775.92c-3.771-7.276-11.193-12-19.373-12.328-2.257-.087-4.489.148-6.648.707zm25.42 33.685 1.723 1.016c-2.578 4.376-6.377 7.817-10.984 9.952l-.842-1.814c4.238-1.964 7.731-5.129 10.103-9.154zm-42.52-11.525c.006 3.347.723 6.574 2.131 9.589l-1.813.847c-1.532-3.282-2.312-6.792-2.318-10.433zm17.461 17.581c-2.317 0-4.2-1.884-4.2-4.2s1.883-4.2 4.2-4.2c2.316 0 4.2 1.884 4.2 4.2s-1.884 4.2-4.2 4.2zm0-10.4c-3.419 0-6.2 2.781-6.2 6.2s2.781 6.2 6.2 6.2 6.2-2.781 6.2-6.2-2.781-6.2-6.2-6.2zm12 7.725-1.101-.063c-.461-.023-.924.301-1.032.779-.252 1.119-.691 2.18-1.306 3.153-.26.414-.184.955.18 1.28l.822.733-2.156 2.157-.73-.818c-.327-.367-.87-.442-1.281-.18-.972.614-2.034 1.055-3.157 1.308-.476.108-.806.544-.777 1.033l.062 1.093h-3.05l.063-1.095c.028-.488-.301-.925-.777-1.032-1.12-.253-2.181-.694-3.156-1.31-.413-.26-.955-.186-1.28.181l-.731.819-2.157-2.156.82-.731c.364-.325.44-.867.179-1.28-.613-.972-1.052-2.034-1.304-3.155-.108-.477-.56-.795-1.033-.779l-1.098.063v-3.05l1.102.063c.453.025.924-.301 1.033-.777.253-1.117.692-2.177 1.307-3.15.261-.414.185-.955-.179-1.28l-.827-.738 2.158-2.156.736.825c.325.364.868.44 1.279.18.972-.613 2.031-1.051 3.15-1.304.477-.108.806-.544.778-1.032l-.063-1.106h3.05l-.062 1.107c-.029.488.301.925.777 1.033 1.118.253 2.178.692 3.149 1.304.413.26.954.186 1.28-.18l.738-.827 2.157 2.156-.824.736c-.364.325-.44.866-.18 1.28.614.97 1.053 2.031 1.307 3.152.109.476.572.802 1.032.777l1.102-.063zm.943-5.107-1.344.077c-.232-.769-.539-1.511-.919-2.218l1.005-.896c.205-.183.327-.443.334-.718.008-.275-.098-.541-.293-.735l-3.654-3.654c-.194-.195-.464-.305-.735-.293-.276.008-.535.129-.718.334l-.899 1.009c-.707-.38-1.448-.687-2.215-.918l.076-1.349c.016-.275-.082-.544-.272-.744-.188-.2-.451-.313-.726-.313h-5.167c-.276 0-.538.113-.727.313s-.287.469-.271.744l.076 1.347c-.768.231-1.509.538-2.216.917l-.897-1.006c-.184-.205-.443-.326-.718-.334-.281-.01-.54.098-.735.293l-3.655 3.654c-.194.194-.301.46-.293.735s.129.535.334.718l1.007.898c-.381.708-.688 1.449-.92 2.216l-1.345-.077c-.277-.012-.544.083-.743.271-.2.189-.313.453-.313.728v5.166c0 .275.113.539.313.728.199.189.467.284.743.271l1.34-.077c.231.77.538 1.514.919 2.222l-1.001.893c-.205.183-.326.443-.334.717-.008.275.099.541.293.736l3.655 3.654c.194.195.478.308.735.292.275-.008.535-.129.718-.334l.892-1c.709.381 1.452.689 2.221.921l-.076 1.337c-.016.275.082.544.271.744s.451.313.727.313h5.167c.275 0 .538-.113.726-.313.19-.2.288-.469.272-.744l-.076-1.335c.771-.232 1.514-.541 2.223-.921l.891.998c.183.206.442.326.718.334.274.019.541-.097.735-.292l3.654-3.654c.195-.195.301-.461.293-.736-.007-.275-.129-.534-.334-.717l-1.003-.895c.38-.708.688-1.451.919-2.22l1.342.077c.273.012.544-.083.743-.271.201-.189.314-.453.314-.728v-5.166c0-.275-.113-.539-.314-.728-.199-.188-.469-.282-.743-.271zm13.045-7.584c-.999.606-2.308.287-2.914-.714s-.286-2.308.715-2.914c.343-.208.721-.307 1.096-.307.717 0 1.42.364 1.818 1.021h.001c.605 1.001.285 2.309-.716 2.914zm2.426-3.951c-1.179-1.942-3.717-2.567-5.662-1.388-1.944 1.178-2.567 3.717-1.389 5.661.775 1.278 2.137 1.985 3.532 1.985.728 0 1.464-.192 2.13-.596 1.944-1.178 2.567-3.718 1.389-5.661zm3.466 5.913-2.376-.345c-.273-.039-.551.036-.767.208l-1.136.906c-.221.176-.357.437-.375.719l-.151 2.409-3.599.191-.413-2.403c-.047-.274-.207-.517-.44-.669l-1.186-.77c-.164-.105-.353-.161-.545-.161-.083 0-.167.011-.249.032l-2.357.606-1.295-3.363 2.139-1.125c.249-.131.431-.361.502-.634l.365-1.406c.069-.268.025-.553-.124-.787l-1.286-2.025 2.799-2.271 1.735 1.691c.199.193.477.294.746.283l1.425-.069c.281-.014.544-.145.722-.362l1.548-1.873 3.026 1.96-1.076 2.182c-.124.252-.136.544-.035.805l.52 1.332c.1.259.306.465.563.567l2.25.89zm2.495-5.013-2.673-1.058-.201-.516 1.273-2.585c.225-.455.073-1.005-.352-1.281l-4.519-2.927c-.43-.277-.992-.188-1.314.202l-1.834 2.218-.549.027-2.062-2.009c-.363-.354-.933-.379-1.328-.06l-4.18 3.393c-.395.32-.487.884-.214 1.313l1.53 2.409-.145.558-2.535 1.332c-.448.237-.649.771-.467 1.245l1.934 5.025c.184.473.69.737 1.183.609l2.795-.719.45.292.489 2.849c.083.482.501.83.984.83.019 0 .037 0 .054-.001l5.376-.286c.507-.027.913-.43.945-.936l.18-2.855.45-.359 2.827.411c.496.072.979-.242 1.11-.732l1.39-5.201c.132-.491-.125-1.002-.597-1.188z" fill="#fff"/></g></svg>