<svg height="80" viewBox="0 0 80 80" width="80" xmlns="http://www.w3.org/2000/svg"><g fill="none" fill-rule="evenodd"><path d="m0 0h80v80h-80z" fill="#8c4fff"/><path d="m50.8250355 35.1704885c-1.0598286 0-1.9208769-.8594217-1.9208769-1.9162512s.8610483-1.9172483 1.9208769-1.9172483c1.0588297 0 1.919878.8604188 1.919878 1.9172483s-.8610483 1.9162512-1.919878 1.9162512m-4.8656222 11.6540379c-1.0588297 0-1.919878-.8594217-1.919878-1.9162512s.8610483-1.9162513 1.919878-1.9162513 1.9208769.8594218 1.9208769 1.9162513-.8620472 1.9162512-1.9208769 1.9162512m-11.6770938-1.9421735c-1.0578308 0-1.9188791-.8594217-1.9188791-1.9162512s.8610483-1.9172483 1.9188791-1.9172483c1.0598287 0 1.920877.8604188 1.920877 1.9172483s-.8610483 1.9162512-1.920877 1.9162512m-4.8646233 10.6829512c-1.0578308 0-1.919878-.8594217-1.919878-1.9162513 0-1.0568295.8620472-1.9162512 1.919878-1.9162512 1.0598286 0 1.920877.8594217 1.920877 1.9162512 0 1.0568296-.8610484 1.9162513-1.920877 1.9162513m21.4073393-26.222333c-2.160612 0-3.9186689 1.7547358-3.9186689 3.9112662 0 1.3220339.6642659 2.4875374 1.6741497 3.1964108l-1.8279796 4.6281156c-.2567163-.0528415-.5224226-.0807577-.7931234-.0807577-1.7181011 0-3.1655013 1.11665-3.6919195 2.6570289l-4.0904789-.9282154c-.1268598-2.0428713-1.814994-3.671984-3.8946954-3.671984-2.159613 0-3.916671 1.7547358-3.916671 3.9112662 0 1.0079761.393565 1.9192423 1.0238683 2.6131605l-1.785027 4.1784646c-.0639294-.003988-.1228642-.0189432-.1867936-.0189432-2.159613 0-3.9176699 1.7537388-3.9176699 3.9102692 0 2.1555334 1.7580569 3.9102692 3.9176699 3.9102692 2.160612 0 3.9186689-1.7547358 3.9186689-3.9102692 0-1.3838484-.7271963-2.5942173-1.8169918-3.2901296l1.5752589-3.6859421c.3775827.120638.7711477.2033898 1.1876873.2033898 1.5412965 0 2.8648336-.9002991 3.5031282-2.1934198l4.3332106.9830509c.3546081 1.7946161 1.9408549 3.1525424 3.840755 3.1525424 2.1606119 0 3.9186688-1.7537388 3.9186688-3.9102692 0-1.1655035-.5244204-2.2013958-1.3375217-2.9192423l1.920877-4.8614158c.1218653.0119642.2387361.0368894.3635981.0368894 2.159613 0 3.9176699-1.7547358 3.9176699-3.9102692 0-2.1565304-1.7580569-3.9112662-3.9176699-3.9112662m-10.8250355 36.663011c-9.7312444 0-17.0022081-2.9212363-17.0022081-5.5333998v-37.3210369c3.3103412 2.6899302 10.3175964 4.111665 17.0231849 4.111665 6.6756217 0 13.65291-1.4097707 16.9812313-4.0767697v37.2861416c0 2.6121635-7.2719626 5.5333998-17.0022081 5.5333998m.0209768-52.0119642c10.0069397 0 16.9812313 2.9710868 16.9812313 5.6380858 0 2.666002-6.9742916 5.6370887-16.9812313 5.6370887-10.0079386 0-16.9812313-2.9710867-16.9812313-5.6370887 0-2.666999 6.9732927-5.6380858 16.9812313-5.6380858m18.9790232 5.6380858c0-4.9571286-9.7781925-7.6321037-18.9790232-7.6321037-9.2008306 0-18.9790232 2.6749751-18.9790232 7.6321037 0 .0079761.0019978.0169491.0019978.0249252h-.0439514v40.8155534c0 4.889332 9.7891804 7.5274177 19 7.5274177s19-2.6380857 19-7.5274177v-40.8155534h-.0019978c0-.0079761.0019978-.0169491.0019978-.0249252" fill="#fff"/></g></svg>