<svg height="80" viewBox="0 0 80 80" width="80" xmlns="http://www.w3.org/2000/svg"><g fill="none" fill-rule="evenodd"><path d="m0 0h80v80h-80z" fill="#01a88d"/><path d="m23.888 50.588c.028-.488-.301-.925-.777-1.032-2.446-.554-4.764-1.515-6.891-2.859-.413-.261-.955-.188-1.28.18l-2.28 2.554-6.09-6.092 2.553-2.277c.365-.325.441-.867.18-1.28-1.341-2.125-2.3-4.443-2.851-6.89-.107-.478-.555-.804-1.032-.78l-3.42.196v-8.616l3.428.196c.461.015.923-.3 1.032-.778.553-2.439 1.515-4.753 2.857-6.878.26-.414.184-.955-.18-1.28l-2.567-2.291 6.091-6.092 2.289 2.566c.326.365.868.441 1.28.18 2.122-1.338 4.436-2.296 6.88-2.848.477-.108.806-.544.778-1.032l-.195-3.435h8.615l-.195 3.438c-.029.487.3.923.777 1.031 2.44.553 4.754 1.512 6.876 2.85.41.26.954.186 1.279-.179l2.294-2.571 6.092 6.092-2.564 2.287c-.364.325-.44.867-.179 1.28 1.341 2.121 2.301 4.437 2.854 6.882.108.478.577.793 1.033.778l3.425-.196v8.616l-3.423-.196c-.458-.027-.923.301-1.032.779-.551 2.444-1.511 4.761-2.851 6.887-.261.414-.185.955.179 1.28l2.558 2.281-6.091 6.092-2.275-2.55c-.327-.367-.868-.439-1.281-.18-2.123 1.342-4.442 2.304-6.894 2.857-.477.108-.806.545-.777 1.033l.195 3.409h-8.615zm10.205 5.099c.19-.201.287-.47.272-.744l-.208-3.636c2.096-.552 4.098-1.381 5.969-2.474l2.426 2.719c.183.206.442.327.718.334.265.013.541-.097.735-.292l7.589-7.589c.194-.194.301-.46.293-.735-.008-.276-.129-.535-.334-.718l-2.728-2.433c1.092-1.872 1.92-3.871 2.47-5.962l3.649.208c.269.011.544-.083.743-.272.2-.189.313-.452.313-.727v-10.732c0-.275-.113-.538-.313-.727-.199-.189-.473-.289-.743-.272l-3.653.208c-.551-2.09-1.38-4.088-2.47-5.957l2.732-2.437c.205-.183.326-.443.334-.718s-.099-.541-.293-.735l-7.589-7.589c-.194-.195-.472-.299-.735-.293-.276.008-.534.129-.718.334l-2.445 2.74c-1.868-1.089-3.864-1.916-5.95-2.467l.208-3.664c.015-.275-.082-.544-.272-.743-.188-.201-.451-.314-.726-.314h-10.733c-.275 0-.538.113-.726.314-.19.199-.288.468-.272.743l.208 3.661c-2.09.55-4.086 1.376-5.955 2.465l-2.44-2.735c-.183-.205-.443-.326-.718-.334-.259-.004-.541.098-.736.293l-7.588 7.589c-.195.194-.301.46-.293.735.007.275.128.535.334.718l2.736 2.441c-1.092 1.871-1.921 3.867-2.472 5.954l-3.655-.209c-.272-.018-.544.083-.743.272-.2.189-.314.452-.314.727v10.732c0 .275.114.538.314.727.199.189.472.284.743.272l3.645-.208c.55 2.094 1.377 4.094 2.469 5.966l-2.723 2.429c-.206.183-.327.442-.334.718-.008.275.098.541.293.735l7.588 7.589c.195.195.474.303.736.292.275-.007.535-.128.718-.334l2.429-2.723c1.873 1.093 3.874 1.924 5.966 2.475l-.208 3.639c-.016.275.082.543.272.744.188.2.451.313.726.313h10.733c.275 0 .538-.113.726-.313zm-8.108-21.899 10.161-10.161-1.414-1.414-9.454 9.454-4.009-4.009-1.414 1.414 4.716 4.716c.195.195.451.293.707.293s.511-.098.707-.293zm22.116-6.627-3.737 1.995c.611-8.611-5.602-16.332-14.269-17.446-7.018-.903-13.798 2.764-16.878 9.124l1.799.872c2.707-5.585 8.664-8.806 14.823-8.013 7.522.967 12.943 7.599 12.553 15.052l-2.68-2.643-1.404 1.424 4.689 4.626 6.045-3.227zm-5.317 8.005c-2.77 5.718-8.535 9.26-14.768 9.26-.699 0-1.402-.044-2.11-.135-8.667-1.115-14.88-8.836-14.269-17.447l-3.737 1.995-.942-1.764 6.045-3.227 4.69 4.627-1.405 1.424-2.679-2.644c-.39 7.454 5.031 14.085 12.552 15.052 6.145.791 12.118-2.427 14.823-8.013z" fill="#fff" transform="translate(12 12)"/></g></svg>