<svg height="80" viewBox="0 0 80 80" width="80" xmlns="http://www.w3.org/2000/svg"><g fill="none" fill-rule="evenodd"><path d="m0 0h80v80h-80z" fill="#dd344c"/><path d="m2.396 29h-2.396v-2h2.399c.2-5.059 1.84-9.872 4.809-13.975l1.621 1.173c-2.721 3.759-4.231 8.168-4.43 12.802h2.601v2h-2.604c.186 4.662 1.697 9.097 4.433 12.876l-1.621 1.173c-2.984-4.123-4.625-8.964-4.812-14.049zm40.614 19.828c-4.112 2.977-8.938 4.617-14.01 4.811v2.361h-2v-2.361c-5.072-.194-9.9-1.834-14.012-4.811l1.172-1.62c3.77 2.729 8.192 4.239 12.84 4.431v-2.639h2v2.639c4.648-.193 9.069-1.703 12.838-4.431zm-30.022-41.582c4.112-2.977 8.94-4.617 14.012-4.81v-2.436h2v2.436c5.072.193 9.898 1.834 14.01 4.81l-1.172 1.62c-3.769-2.728-8.19-4.238-12.838-4.43v2.564h-2v-2.564c-4.648.191-9.07 1.702-12.84 4.43zm43.012 19.754v2h-2.398c-.186 5.085-1.828 9.926-4.811 14.049l-1.622-1.173c2.736-3.779 4.248-8.214 4.433-12.876h-2.602v-2h2.599c-.199-4.634-1.709-9.043-4.43-12.802l1.622-1.173c2.968 4.103 4.608 8.916 4.808 13.975zm-13.028-15.35 7.84-7.84 1.414 1.414-7.84 7.84zm-29.946 32.774-7.84 7.84-1.414-1.414 7.84-7.84zm2.226-27.757-14.84-14.84 1.414-1.414 14.841 14.84zm25.455 22.626 14.879 14.88-1.414 1.414-14.88-14.879zm-21.043-10.558c.075-.133.156-.267.241-.401 1.681-2.641 1.199-6.245.665-8.422 1.441.947 2.74 2.904 3.183 3.726.189.348.556.559.959.523.395-.031.734-.291.866-.664 1.489-4.23.732-7.41-.318-9.471 1.273.741 2.259 1.807 2.912 3.166 1.416 2.942 1.101 6.969-.824 10.508-2.629 4.836-2.102 9.906-1.504 12.634-1.501-.647-2.837-1.378-3.99-2.182-3.027-2.11-3.99-6.245-2.19-9.417zm13.43-.337c-.065.409.127.816.485 1.024.357.207.807.174 1.13-.086.081-.065 1.721-1.419 2.515-4.694.957 1.392 1.958 4.201.626 9.361-1.318 5.105-7.57 6.541-9.801 6.894-.539-1.933-1.632-7.298 1.057-12.242 1.908-3.51 2.414-7.479 1.458-10.754 1.81 2.126 3.337 5.472 2.53 10.497zm-15.172-.648c-2.302 4.06-1.078 9.349 2.788 12.043 1.75 1.22 3.87 2.279 6.3 3.148.111.04.224.059.337.059.021 0 .039-.011.059-.012l.001.009c.425-.033 10.419-.901 12.379-8.494 2.522-9.766-2.529-12.663-2.745-12.782-.293-.16-.648-.164-.945-.009-.297.156-.496.45-.53.783-.071.675-.182 1.276-.316 1.807-.692-7.668-6.771-10.788-8-11.343-1.26-.965-2.792-1.628-4.568-1.943-.446-.081-.888.152-1.078.562-.192.409-.083.899.263 1.19.15.127 3.266 2.829 2.377 7.971-1.161-1.523-3.009-3.359-5.183-3.359-.33 0-.638.163-.824.435-.187.272-.227.619-.109.926.022.054 2.06 5.425.089 8.52-.104.164-.203.328-.295.489z" fill="#fff" transform="translate(11.9995 12)"/></g></svg>