<svg height="80" viewBox="0 0 80 80" width="80" xmlns="http://www.w3.org/2000/svg"><g fill="none" fill-rule="evenodd"><path d="m0 0h80v80h-80z" fill="#c925d1"/><path d="m63.95 49.7-3.688-2.536c.909-2.284 1.37-4.693 1.37-7.172 0-2.849-.632-5.684-1.834-8.252l3.604-2.588c1.711 3.343 2.611 7.068 2.611 10.84 0 3.392-.693 6.652-2.063 9.708zm.659-22.519c-.14-.245-.379-.419-.655-.48-.277-.059-.566 0-.796.165l-5.217 3.745c-.405.291-.534.836-.303 1.277 1.323 2.519 1.994 5.245 1.994 8.104 0 2.477-.512 4.874-1.522 7.125-.198.44-.053.959.346 1.233l5.325 3.662c.168.115.366.175.566.175.083 0 .166-.01.248-.031.279-.071.514-.26.644-.517 1.841-3.633 2.774-7.552 2.774-11.647 0-4.492-1.177-8.922-3.404-12.811zm-24.569 38.831v-4.937c6.407-.01 12.489-2.971 16.468-7.974l4.074 2.803c-4.909 6.339-12.512 10.098-20.542 10.108zm-26.04-26.005c0-13.678 10.616-24.916 24.04-25.925v4.954c-10.699.997-19.104 10.016-19.104 20.971 0 10.954 8.405 19.974 19.104 20.97v4.955c-13.424-1.01-24.04-12.247-24.04-25.925zm45.719-16.955-4.025 2.89c-3.994-4.455-9.645-6.995-15.654-7.004v-4.937c7.617.009 14.729 3.293 19.679 9.051zm-9.861 7.079c-2.608-2.601-6.15-4.077-9.851-4.077-7.689 0-13.944 6.252-13.952 13.939h-5.118c.008-10.509 8.559-19.056 19.07-19.056 5.377 0 10.44 2.239 14.051 6.179zm-9.851 23.828c4.08 0 7.98-1.818 10.618-4.905l4.228 2.909c-3.609 4.471-9.083 7.113-14.846 7.113-9.845 0-17.969-7.498-18.966-17.083h5.172c.969 6.753 6.776 11.966 13.794 11.966zm16.847-3.047-5.864-4.033c-.445-.307-1.051-.205-1.37.229-2.281 3.083-5.785 4.851-9.613 4.851-6.591 0-11.953-5.362-11.953-11.952 0-6.591 5.362-11.953 11.953-11.953 3.43 0 6.701 1.48 8.972 4.061.34.385.916.452 1.334.152l5.802-4.166 5.639-4.048c.222-.16.369-.403.407-.674s-.037-.546-.207-.76c-5.354-6.749-13.354-10.619-21.947-10.619-15.444 0-28.007 12.564-28.007 28.007s12.563 28.006 28.007 28.006c9.027 0 17.554-4.398 22.81-11.765.155-.218.217-.49.17-.754-.046-.264-.196-.499-.418-.65z" fill="#fff"/></g></svg>