<svg height="80" viewBox="0 0 80 80" width="80" xmlns="http://www.w3.org/2000/svg"><g fill="none" fill-rule="evenodd"><path d="m0 0h80v80h-80z" fill="#8c4fff"/><path d="m48 40.51c0-.828.672-1.5 1.5-1.5s1.5.672 1.5 1.5-.672 1.5-1.5 1.5-1.5-.672-1.5-1.5zm-3-3c0-.828.672-1.5 1.5-1.5s1.5.672 1.5 1.5-.672 1.5-1.5 1.5-1.5-.672-1.5-1.5zm-17 2.5h-2v-2h2v-2h2v2h2v2h-2v2h-2zm26 10c0 3.585-1.712 4-3 4-2.36 0-4.75-4.29-6.414-7.776 1.037.492 2.192.776 3.414.776 2.39 0 4.532-1.059 6-2.726zm-28 4c-1.3 0-2.121-.486-2.585-1.53-.414-.931-.414-2.009-.414-2.47l-.001-5.726c1.468 1.667 3.61 2.726 6 2.726 1.222 0 2.377-.284 3.414-.776-1.664 3.486-4.054 7.776-6.414 7.776zm3-21c3.309 0 6 2.691 6 6 0 3.308-2.691 6-6 6s-6-2.692-6-6c0-3.309 2.691-6 6-6zm11.589 9h-4.178c.377-.928.589-1.939.589-3 0-1.892-.663-3.629-1.765-5h6.53c-1.102 1.371-1.765 3.108-1.765 5 0 1.061.212 2.072.589 3zm13.411-3h-.001v.019c-.011 3.3-2.697 5.981-5.999 5.981-3.309 0-6-2.692-6-6 0-3.309 2.691-6 6-6s6 2.691 6 6zm2 0c0-4.411-3.589-8-8-8-1.401 0-2.718.364-3.864 1h-11.272c-1.146-.636-2.463-1-3.864-1-4.411 0-8 3.589-8 8l.001 11c0 .537 0 1.963.586 3.282.551 1.24 1.765 2.718 4.413 2.718 4.196 0 7.247-6.728 9.266-11.18.13-.286.254-.561.373-.82h5.722c.119.259.243.534.373.82 2.019 4.452 5.07 11.18 9.266 11.18 1.503 0 5-.585 5-6l-.001-10.981c0-.006.001-.013.001-.019zm-48.502-1.894c1.54-.816 3.307-1.494 5.243-2.022 1.069 3.373 2.58 6.148 4.39 8.055-3.754-1.096-7.065-3.215-9.633-6.033zm-1.296-1.568c-2.438-3.254-3.946-7.228-4.151-11.548h8.962c.07 3.3.487 6.401 1.184 9.174-2.225.609-4.249 1.407-5.995 2.374zm-.001-25.097c1.748.969 3.771 1.767 5.996 2.376-.698 2.773-1.114 5.873-1.184 9.173h-8.962c.205-4.32 1.713-8.294 4.15-11.549zm10.93-7.601c-1.81 1.908-3.322 4.683-4.391 8.057-1.935-.528-3.704-1.204-5.244-2.021 2.568-2.819 5.879-4.94 9.635-6.036zm5.869-.85c3.394 0 6.457 3.77 8.274 9.382-2.582.539-5.377.84-8.274.84-2.901 0-5.695-.301-8.274-.839 1.816-5.613 4.88-9.383 8.274-9.383zm15.502 6.883c-1.54.816-3.307 1.494-5.243 2.022-1.069-3.373-2.58-6.147-4.39-8.055 3.754 1.096 7.065 3.216 9.633 6.033zm1.296 1.568c2.438 3.254 3.946 7.228 4.151 11.549h-8.962c-.07-3.301-.487-6.401-1.184-9.175 2.225-.609 4.249-1.406 5.995-2.374zm-26.773 11.549c.074-3.104.477-6.057 1.151-8.693 2.757.587 5.738.915 8.824.915 3.081 0 6.064-.328 8.824-.916.673 2.637 1.077 5.59 1.151 8.694zm5.975 20.17c-1.727-1.638-3.214-4.278-4.274-7.553 1.676-.35 3.448-.587 5.273-.719v-2.004c-2.014.14-3.972.405-5.823.799-.673-2.636-1.077-5.59-1.151-8.693h19.95c-.049 2.088-.26 4.098-.59 6h2.052c.307-1.902.506-3.904.55-6h8.962c-.099 2.096-.511 4.109-1.182 6h2.14c.708-2.209 1.093-4.56 1.093-7 0-12.683-10.317-23-23-23s-23 10.317-23 23c0 11.317 8.219 20.745 19 22.644z" fill="#fff" transform="translate(12 12)"/></g></svg>