<svg height="80" viewBox="0 0 80 80" width="80" xmlns="http://www.w3.org/2000/svg"><g fill="none" fill-rule="evenodd"><path d="m0 0h80v80h-80z" fill="#01a88d"/><path d="m7.095 9.664c0-1.416 1.15-2.567 2.565-2.567s2.567 1.151 2.567 2.567-1.152 2.567-2.567 2.567-2.565-1.151-2.565-2.567zm7.132 0c0-2.519-2.049-4.567-4.567-4.567-2.517 0-4.565 2.048-4.565 4.567s2.048 4.567 4.565 4.567c2.518 0 4.567-2.048 4.567-4.567zm33.651 42.336c-2.825 0-5.123-2.298-5.123-5.125 0-2.826 2.298-5.125 5.123-5.125 2.824 0 5.122 2.299 5.122 5.125 0 2.827-2.298 5.125-5.122 5.125zm-18.349-26.557c1.695 0 3.075 1.38 3.075 3.076 0 1.697-1.38 3.078-3.075 3.078-1.696 0-3.076-1.381-3.076-3.078 0-1.696 1.38-3.076 3.076-3.076zm-4.239.298c-.526.799-.837 1.752-.837 2.778 0 2.8 2.277 5.078 5.076 5.078 2.798 0 5.075-2.278 5.075-5.078 0-2.799-2.277-5.076-5.075-5.076-1.05 0-2.027.321-2.837.869l-4.612-4.173c1.985-1.767 4.589-2.85 7.449-2.85 6.19 0 11.226 5.038 11.226 11.23 0 6.193-5.036 11.231-11.226 11.231-6.191 0-11.227-5.038-11.227-11.231 0-2.613.904-5.015 2.406-6.925zm4.239 27.259c-13.495 0-24.472-10.982-24.472-24.481 0-3.331.661-6.545 1.95-9.571.844.242 1.733.38 2.653.38 2.321 0 4.453-.825 6.121-2.194l3.441 3.114c-1.823 2.268-2.92 5.142-2.92 8.271 0 7.296 5.934 13.231 13.227 13.231s13.226-5.935 13.226-13.231c0-7.295-5.933-13.23-13.226-13.23-3.447 0-6.58 1.336-8.936 3.504l-3.407-3.085c1.332-1.656 2.135-3.757 2.135-6.044 0-1.099-.194-2.151-.533-3.136 3.355-1.646 6.963-2.489 10.741-2.489 4.046 0 8.024 1.014 11.563 2.915-.052.342-.087.69-.087 1.046 0 3.86 3.139 7 6.997 7 .608 0 1.195-.086 1.757-.232 2.769 4.064 4.241 8.803 4.241 13.751 0 4.188-1.079 8.283-3.103 11.913-.918-.433-1.939-.682-3.019-.682-3.928 0-7.123 3.197-7.123 7.125 0 1.081.249 2.102.681 3.02-3.628 2.026-7.721 3.105-11.907 3.105zm-27.529-43.336c0-4.226 3.437-7.664 7.66-7.664 4.224 0 7.661 3.438 7.661 7.664s-3.437 7.664-7.661 7.664c-4.223 0-7.66-3.438-7.66-7.664zm46.002-6.663c2.756 0 4.998 2.243 4.998 4.999 0 2.757-2.242 5-4.998 5s-4.997-2.243-4.997-5c0-2.756 2.241-4.999 4.997-4.999zm4.57 38.53c2.237-3.958 3.428-8.434 3.428-13.012 0-5.219-1.519-10.221-4.37-14.544 2.017-1.23 3.37-3.444 3.37-5.975 0-3.859-3.139-6.999-6.998-6.999-2.786 0-5.189 1.641-6.314 4.004-3.742-1.937-7.916-2.966-12.159-2.966-4.013 0-8.001.931-11.585 2.678-1.69-2.82-4.766-4.717-8.284-4.717-5.326 0-9.66 4.335-9.66 9.664 0 3.699 2.091 6.916 5.151 8.54-1.384 3.263-2.094 6.727-2.094 10.315 0 14.602 11.875 26.481 26.472 26.481 4.576 0 9.049-1.192 13.005-3.429 1.306 1.486 3.215 2.429 5.344 2.429 3.927 0 7.122-3.196 7.122-7.125 0-2.129-.943-4.038-2.428-5.344z" fill="#fff" transform="translate(12 12)"/></g></svg>