<svg height="80" viewBox="0 0 80 80" width="80" xmlns="http://www.w3.org/2000/svg"><g fill="none" fill-rule="evenodd"><path d="m0 0h80v80h-80z" fill="#dd344c"/><path d="m66 46.001-14.875-4.299v-5.279l14.875 4.327zm-8.148 12.917-3.715 3.714-7.689-13.781 3.736-3.736zm-13.352-10.947c-.306.305-.379.77-.187 1.154h-6.767c-.245 0-.474.089-.651.24l-4.866-4.865c-.192-.193-.448-.293-.707-.293-.152 0-.305.034-.447.105v-6.767c0-.245-.089-.474-.24-.651l4.865-4.866c.306-.305.379-.77.188-1.153h6.766c.245 0 .474-.09.651-.241l4.866 4.866c.305.306.772.379 1.154.187v6.767c0 .245.089.474.24.651zm-5.251 18.029h-5.25l4.299-14.875h5.279zm-18.167-8.149-3.716-3.715 13.783-7.688 3.735 3.735zm-7.082-18.602v-5.251l14.875 4.299v5.279zm8.148-18.167 3.715-3.715 7.689 13.781-3.736 3.736zm18.603-7.082h5.25l-4.299 14.875h-5.279zm18.167 8.148 3.716 3.715-13.783 7.688-3.735-3.735zm8.361 16.892-15.88-4.621 13.365-7.454c.273-.152.46-.425.503-.735.043-.311-.062-.624-.284-.845l-5.184-5.184c-.316-.316-.802-.385-1.193-.167l-14.613 8.118 4.299-14.875c.087-.302.027-.627-.162-.879-.189-.251-.484-.398-.799-.398h-7.331c-.444 0-.836.293-.96.72l-4.62 15.88-7.455-13.364c-.153-.273-.425-.46-.736-.503-.306-.043-.623.062-.844.284l-5.184 5.184c-.315.315-.384.802-.167 1.193l8.117 14.612-14.874-4.298c-.3-.089-.627-.029-.878.161-.252.189-.399.485-.399.799v7.332c0 .444.294.835.721.959l15.88 4.621-13.365 7.454c-.273.153-.46.425-.503.736-.043.31.062.623.284.844l5.184 5.184c.317.316.803.384 1.193.167l14.613-8.118-4.299 14.875c-.087.302-.027.627.162.879.189.251.484.399.799.399h7.331c.444 0 .836-.294.96-.721l4.62-15.88 7.455 13.364c.152.273.425.46.736.503.312.046.623-.061.844-.284l5.184-5.184c.315-.315.384-.802.167-1.193l-8.117-14.612 14.874 4.299c.299.087.627.027.878-.162.252-.189.399-.484.399-.799v-7.331c0-.445-.294-.836-.721-.96z" fill="#fff"/></g></svg>