<svg height="80" viewBox="0 0 80 80" width="80" xmlns="http://www.w3.org/2000/svg"><g fill="none" fill-rule="evenodd"><path d="m0 0h80v80h-80z" fill="#ed7100"/><path d="m48 40.9168609-22 12.378v-3.92-7.409l10.833-5.98 4.237 2.446 1-1.732-4.07-2.35v-12.289l10-5.387zm-34 5.388v-11.258l7-3.818v1.771c0 .346.18.668.475.85.16.099.342.15.525.15.153 0 .306-.036.447-.106l1.553-.776v7.667zm-12-6.99v-24.72l22-11.91699997v3.947 7.27899997l-11.019 5.968-4.534-2.267-.894 1.789 4.447 2.224v12.242zm26.447-8.421c.342-.171.557-.522.553-.905v-3.063l7-3.788v11.023l-10 5.52v-7.563zm-5.447-4.286 4-2.038v4.815l-4 1.996zm-1.459-1.497c-.332.172-.541.514-.541.889v2.952l-7 3.818v-11.175l10-5.417v7.662zm14.459-15.43299997v11.18799997l-7 3.801v-1.742c-.004-.347-.263-.667-.56-.846-.297-.18-.668-.191-.974-.031l-1.466.758v-7.711zm13.513 4.46299997c-.003-.002-.007-.002-.01-.004l.001-.001-5.141-3-1.008 1.727 3.601 2.101-8.956 4.825v-11.78899997c0-.353-.186-.679-.488-.86-.304-.181-.679-.188-.989-.02l-10.523 5.69999997v-6.19499997-3.898l3.376 1.949 1-1.733-4.876-2.815-.003.006c-.302-.173-.668-.179-.974-.014l-24 12.99999997c-.322.175-.523.512-.523.88v27c0 .353.187.679.489.859.002.002.005.002.007.003v.001l5.143 3 1.007-1.727-3.612-2.107 8.966-4.891v11.862c0 .354.187.681.492.861.156.092.332.139.508.139.166 0 .333-.042.483-.125l10.517-5.805v6.305 3.883l-3.639-2.122-1.007 1.727 5.113 2.983c.01.007.017.016.028.022.156.091.33.137.505.137.169 0 .338-.043.49-.129l24-13.502c.315-.178.51-.511.51-.872v-26.502c0-.353-.186-.679-.487-.859z" fill="#fff" transform="translate(15 12)"/></g></svg>