<svg height="80" viewBox="0 0 80 80" width="80" xmlns="http://www.w3.org/2000/svg"><g fill="none" fill-rule="evenodd"><path d="m0 0h80v80h-80z" fill="#01a88d"/><path d="m28.8110016 30.215 1.889.655-4.173 12.029-1.889-.655zm-5.815 3.143-3.072 3.098 3.011 3.092-1.434 1.396-3.695-3.796c-.38-.391-.377-1.015.007-1.402l3.763-3.796zm14.859 2.388c.384.387.387 1.011.007 1.402l-3.697 3.796-1.433-1.396 3.011-3.092-3.071-3.098 1.42-1.408zm7.176 4.069-3.448 1.723c-.338.17-.552.516-.552.895v5.958l-8.118 4.996-3.882-2.217v-5.17h-2v5.17l-3.882 2.217-8.118-4.996v-5.959c0-.379-.214-.725-.553-.894l-3.447-1.724-.001-3.894.001-4.37 3.606-2.748c.248-.189.394-.483.394-.795v-5.556l7.434-4.336 4.566 2.549v6.336h2v-6.336l4.565-2.549 7.435 4.336v5.556c0 .312.145.606.393.795l3.607 2.747.001 4.371zm1.606-9.556-3.606-2.748v-5.634c0-.355-.189-.684-.496-.864l-8.424-4.913c-.306-.179-.684-.182-.991-.01l-5.089 2.842-5.089-2.842c-.309-.171-.686-.169-.991.01l-8.424 4.913c-.308.18-.496.509-.496.864v5.635l-3.60700002 2.747c-.248.189-.393.484-.393.796l-.001 4.865.001 4.512c0 .379.214.725.552.895l3.44800002 1.723v5.9c0 .347.179.669.475.851l9.1 5.601c.311.19.701.197 1.02.016l4.405-2.516 4.404 2.516c.154.088.325.132.496.132.182 0 .363-.05.525-.148l9.099-5.601c.296-.182.476-.504.476-.851v-5.899l3.447-1.724c.339-.169.553-.515.553-.894l.001-4.513-.001-4.866c0-.312-.146-.606-.394-.795zm-28.606-24.759c0 .828-.672 1.5-1.5 1.5-.829 0-1.5-.672-1.5-1.5 0-.829.671-1.5 1.5-1.5.828 0 1.5.671 1.5 1.5zm-5 0c0 .828-.672 1.5-1.5 1.5-.829 0-1.5-.672-1.5-1.5 0-.829.671-1.5 1.5-1.5.828 0 1.5.671 1.5 1.5zm-5.00000002 0c0 .828-.672 1.5-1.5 1.5-.829 0-1.5-.672-1.5-1.5 0-.829.671-1.5 1.5-1.5.828 0 1.5.671 1.5 1.5zm-6 3.5.005-6.907c0-.044.052-.093.126-.093h51.74300002c.074 0 .126.049.126.093v6.907zm51.87400002-9h-51.74800002c-1.17 0-2.124.938-2.126 2.091l-.03100079 36.813c-.00099921 1.148.94700079 2.088 2.12000079 2.096l3.911-.002v-1.998l-3.876.001c-.073 0-.124-.049-.124-.093l.023-27.908h51.97700002v27.897c0 .055-.058.102-.126.102l-3.874.001v2l3.874-.001c1.172 0 2.126-.943 2.126-2.102v-36.804c0-1.154-.954-2.093-2.126-2.093z" fill="#fff" transform="translate(11.999999 12)"/></g></svg>