<svg height="80" viewBox="0 0 80 80" width="80" xmlns="http://www.w3.org/2000/svg"><g fill="none" fill-rule="evenodd"><path d="m0 0h80v80h-80z" fill="#e7157b"/><path d="m40 23.8c2.316 0 4.2 1.884 4.2 4.2s-1.884 4.2-4.2 4.2-4.2-1.884-4.2-4.2 1.884-4.2 4.2-4.2zm0 10.4c3.419 0 6.2-2.781 6.2-6.2s-2.781-6.2-6.2-6.2-6.2 2.781-6.2 6.2 2.781 6.2 6.2 6.2zm-12-7.725 1.103.063c.451.024.923-.3 1.032-.777.253-1.117.692-2.177 1.307-3.15.261-.414.185-.955-.179-1.28l-.826-.738 2.157-2.156.736.825c.324.365.867.439 1.279.18.971-.612 2.031-1.051 3.151-1.304.476-.108.805-.544.777-1.032l-.062-1.106h3.05l-.062 1.108c-.028.487.301.924.777 1.032 1.117.252 2.177.692 3.148 1.305.413.259.955.184 1.28-.181l.738-.827 2.157 2.156-.824.736c-.364.325-.44.867-.179 1.28.614.972 1.053 2.032 1.306 3.151.109.477.571.802 1.032.778l1.102-.063v3.05l-1.101-.063c-.462-.024-.923.301-1.032.779-.252 1.119-.691 2.18-1.305 3.153-.261.414-.185.955.179 1.28l.822.733-2.156 2.157-.729-.818c-.326-.366-.869-.44-1.281-.18-.973.615-2.036 1.055-3.157 1.308-.476.108-.805.545-.777 1.033l.062 1.093h-3.05l.062-1.095c.028-.487-.301-.924-.777-1.032-1.119-.253-2.181-.694-3.155-1.309-.413-.261-.955-.187-1.28.18l-.732.82-2.156-2.157.82-.731c.364-.325.44-.867.18-1.28-.615-.971-1.054-2.033-1.306-3.155-.108-.478-.569-.805-1.032-.779l-1.099.063zm-.943 5.107 1.339-.076c.232.77.539 1.513.919 2.221l-1.001.892c-.205.184-.326.443-.334.719-.007.275.099.541.293.735l3.655 3.654c.194.195.459.309.735.292.275-.008.535-.128.718-.334l.892-1c.709.381 1.452.689 2.221.922l-.076 1.336c-.016.275.082.544.271.744s.452.313.727.313h5.168c.275 0 .538-.113.727-.313s.287-.469.271-.744l-.076-1.335c.77-.232 1.514-.54 2.223-.921l.89.998c.183.205.443.326.718.334.256.02.542-.097.735-.292l3.655-3.654c.194-.194.3-.46.293-.735-.008-.276-.129-.535-.334-.718l-1.003-.895c.38-.708.687-1.45.919-2.219l1.341.076c.275.013.544-.082.744-.271s.313-.452.313-.727v-5.167c0-.275-.113-.538-.313-.727-.199-.189-.468-.289-.744-.272l-1.343.077c-.232-.768-.539-1.51-.919-2.217l1.005-.897c.205-.183.326-.442.334-.718.007-.275-.099-.541-.293-.735l-3.655-3.654c-.194-.195-.455-.304-.735-.292-.275.007-.535.128-.718.334l-.899 1.008c-.707-.379-1.448-.687-2.214-.918l.076-1.349c.016-.275-.082-.544-.271-.743-.189-.201-.452-.314-.727-.314h-5.168c-.275 0-.538.113-.727.314-.189.199-.287.468-.271.743l.076 1.347c-.767.231-1.509.539-2.216.917l-.897-1.006c-.184-.205-.443-.326-.718-.333-.273-.009-.541.097-.735.292l-3.655 3.654c-.194.194-.3.46-.293.735.008.275.129.535.334.718l1.007.898c-.381.708-.688 1.449-.92 2.216l-1.344-.077c-.277-.018-.545.083-.744.272-.2.189-.313.452-.313.727v5.167c0 .275.113.538.313.727s.468.285.744.271zm28.943 33.418h6v-10h-6zm-19 0h6v-10h-6zm-19 0h6v-10h-6zm45-12h-3v-5c0-.552-.447-1-1-1h-18v-3h-2v3h-18c-.553 0-1 .448-1 1v5h-3c-.553 0-1 .448-1 1v12c0 .552.447 1 1 1h8c.553 0 1-.448 1-1v-12c0-.552-.447-1-1-1h-3v-4h17v4h-3c-.553 0-1 .448-1 1v12c0 .552.447 1 1 1h8c.553 0 1-.448 1-1v-12c0-.552-.447-1-1-1h-3v-4h17v4h-3c-.553 0-1 .448-1 1v12c0 .552.447 1 1 1h8c.553 0 1-.448 1-1v-12c0-.552-.447-1-1-1z" fill="#fff"/></g></svg>