<svg height="80" viewBox="0 0 80 80" width="80" xmlns="http://www.w3.org/2000/svg"><g fill="none" fill-rule="evenodd"><path d="m0 0h80v80h-80z" fill="#ed7100"/><path d="m38.75 29.158-4.916 2.878 8.673 5.102c.305.18.493.507.493.862v6.277l5-2.857v-6.847zm-13.245 6.028 15.495 9.07v-5.684l-9.648-5.676c-.306-.18-.494-.509-.494-.863 0-.355.189-.683.496-.862l15.649-9.16-4.996-2.855-33.5 19.706c-.156.092-.331.138-.507.138-.171 0-.343-.044-.496-.132l-5.504-3.145v5.697l5.994 3.425 16.501-9.659c.311-.183.699-.183 1.01 0zm-14.255-8.345 4.916-2.878-8.673-5.101c-.305-.18-.493-.508-.493-.862v-6.277l-5 2.857v6.847zm13.25-6.024-15.5-9.073v5.684l9.507 5.592c.147.087.27.211.357.359l.073.124c.277.476.117 1.088-.36 1.366l-15.58 9.12 4.996 2.855 33.5-19.706c.309-.182.693-.184 1.003-.006l5.504 3.145v-5.697l-5.994-3.425-16.45 9.629c-.31.203-.719.231-1.056.033zm25.005 2.046-8.776 5.137 8.776 5.137c.307.179.495.508.495.863v8c0 .359-.192.69-.504.868l-7 4c-.153.088-.325.1321378-.496.1321378-.175 0-.35-.0461378-.505-.1371378l-16.495-9.656-16.495 9.656c-.307.181-.691.183-1.001.005l-7-4c-.312-.178-.504-.509-.504-.868v-8c0-.355.188-.684.495-.863l8.776-5.137-8.776-5.137c-.307-.18-.495-.508-.495-.863v-8c0-.359.192-.691.504-.868l7-4c.309-.179.693-.176 1.001.005l16.495 9.655 16.495-9.655c.308-.18.692-.183 1.001-.005l7 4c.312.177.504.509.504.868v8c0 .355-.188.683-.495.863zm-18.505 27.557-6 3.428-4.984-2.848 5.48-3.132c.312-.178.504-.509.504-.868v-4h-2v3.42l-5 2.857v-3.277h-2v5c0 .359.192.69.504.868l7 4c.153.088.325.132.496.132s.343-.044.496-.132l7-4c.312-.178.504-.509.504-.868v-5h-2zm-12-40.42h-2v-5c0-.359.192-.691.504-.868l7-4c.307-.176.685-.176.992 0l7 4c.312.177.504.509.504.868v5h-2v-3.277l-5 2.857v3.42h-2v-4c0-.359.192-.691.504-.868l5.48-3.132-4.984-2.848-6 3.428z" fill="#fff" transform="translate(15 12)"/></g></svg>