<svg height="80" viewBox="0 0 80 80" width="80" xmlns="http://www.w3.org/2000/svg"><g fill="none" fill-rule="evenodd"><path d="m0 0h80v80h-80z" fill="#01a88d"/><path d="m47.5 53.999c-1.93 0-3.5-1.57-3.5-3.5s1.57-3.5 3.5-3.5 3.5 1.57 3.5 3.5-1.57 3.5-3.5 3.5zm-29.999-.001c-1.93 0-3.5-1.57-3.5-3.499 0-1.93 1.57-3.5 3.5-3.5s3.499 1.57 3.499 3.5c0 1.929-1.569 3.499-3.499 3.499zm-8.77-21.558c.368-.268.704-.577.995-.925l7.274 3.851v9.658c-.467.043-.914.147-1.34.299zm-6.731-4.441c0-1.93 1.57-3.5 3.5-3.5s3.5 1.57 3.5 3.5-1.57 3.5-3.5 3.5-3.5-1.57-3.5-3.5zm13.312-17.458c.525.229 1.092.378 1.688.433v9.658l-7.274 3.851c-.36-.43-.786-.803-1.259-1.108zm2.189-8.541c1.93 0 3.499 1.57 3.499 3.499 0 1.93-1.569 3.5-3.499 3.5s-3.5-1.57-3.5-3.5c0-1.929 1.57-3.499 3.5-3.499zm11.299 12.385-6.4-6.4c.309-.607.51-1.276.575-1.986h19.05c.039.432.13.848.263 1.245zm-9.8 5.188v-8.787c.817-.232 1.556-.649 2.171-1.203l5.78 5.781zm7.95 21.061-5.78 5.78c-.615-.553-1.353-.97-2.17-1.202v-8.787zm15.339 8.12c-.134.397-.225.813-.264 1.245h-19.05c-.065-.71-.266-1.38-.576-1.986l6.401-6.401zm5.21-46.754c1.93 0 3.5 1.57 3.5 3.499 0 1.93-1.57 3.5-3.5 3.5s-3.499-1.57-3.499-3.5c0-1.929 1.569-3.499 3.499-3.499zm.001 42.999c-1.706 0-3.233.781-4.243 2.004l-12.978-6.87 1.427-1.427-1.414-1.414-1.862 1.862-9.43-4.992v-3.163h-2v2.104l-6.298-3.334c.085-.249.153-.506.202-.77h17.096v-2h-17.096c-.049-.264-.117-.521-.202-.77l6.298-3.334v2.104h2v-3.163l9.431-4.992 1.862 1.862 1.414-1.414-1.428-1.427 12.978-6.87c1.009 1.223 2.536 2.004 4.242 2.004 3.032 0 5.5-2.467 5.5-5.5 0-3.032-2.468-5.499-5.5-5.499-2.512 0-4.63 1.695-5.286 3.999h-19.426c-.656-2.304-2.774-3.999-5.286-3.999-3.032 0-5.5 2.467-5.5 5.499 0 1.531.63 2.917 1.644 3.915l-7.039 13.197c-.357-.073-.727-.112-1.106-.112-3.032 0-5.5 2.467-5.5 5.5s2.468 5.5 5.5 5.5c.494 0 .97-.071 1.426-.194l7.002 13.021c-1.177 1.009-1.927 2.504-1.927 4.173 0 3.032 2.468 5.499 5.5 5.499 2.512 0 4.63-1.695 5.286-3.999h19.426c.655 2.305 2.775 4 5.287 4 3.032 0 5.5-2.467 5.5-5.5s-2.468-5.5-5.5-5.5zm-4.5-13.68c-1.831 0-3.32-1.489-3.32-3.32s1.489-3.32 3.32-3.32 3.32 1.489 3.32 3.32-1.489 3.32-3.32 3.32zm0-8.64c-2.934 0-5.32 2.386-5.32 5.32s2.386 5.32 5.32 5.32 5.32-2.386 5.32-5.32-2.386-5.32-5.32-5.32zm11 6.82h-1.575c-.454 0-.851.306-.967.745-.198.748-.498 1.47-.892 2.147-.228.392-.164.889.158 1.21l1.115 1.115-2.121 2.122-1.115-1.115c-.321-.322-.821-.386-1.21-.158-.676.394-1.399.694-2.149.892-.438.116-.744.513-.744.967v1.575h-3v-1.575c0-.454-.306-.851-.744-.967-.75-.198-1.473-.498-2.149-.892-.39-.228-.889-.164-1.21.158l-1.115 1.115-2.121-2.122 1.115-1.115c.322-.321.386-.818.158-1.21-.394-.677-.694-1.399-.892-2.147-.116-.439-.513-.745-.967-.745h-1.575v-3h1.575c.454 0 .851-.306.967-.745.198-.748.498-1.47.892-2.147.228-.392.164-.889-.158-1.21l-1.115-1.116 2.121-2.121 1.115 1.115c.321.322.82.386 1.21.158.676-.393 1.399-.694 2.149-.892.438-.117.744-.514.744-.967v-1.575h3v1.575c0 .453.306.85.744.967.75.198 1.473.499 2.149.892.389.228.889.164 1.21-.158l1.115-1.115 2.121 2.121-1.115 1.116c-.322.321-.386.818-.158 1.21.394.677.694 1.399.892 2.147.116.439.513.745.967.745h1.575zm.5-5h-1.335c-.143-.413-.311-.818-.503-1.212l.944-.945c.585-.585.585-1.536 0-2.121l-2.828-2.828c-.584-.585-1.537-.585-2.121 0l-.944.944c-.395-.192-.8-.361-1.213-.504v-1.334c0-.827-.673-1.5-1.5-1.5h-4c-.827 0-1.5.673-1.5 1.5v1.334c-.413.143-.818.312-1.213.504l-.944-.944c-.584-.585-1.537-.585-2.121 0l-2.828 2.828c-.585.585-.585 1.536 0 2.121l.944.945c-.192.394-.36.799-.503 1.212h-1.335c-.827 0-1.5.673-1.5 1.5v4c0 .827.673 1.5 1.5 1.5h1.335c.143.413.311.818.503 1.212l-.944.945c-.284.283-.44.66-.44 1.061s.156.778.44 1.06l2.828 2.828c.584.585 1.537.585 2.121 0l.944-.944c.395.192.8.361 1.213.503v1.335c0 .827.673 1.5 1.5 1.5h4c.827 0 1.5-.673 1.5-1.5v-1.335c.413-.142.818-.311 1.213-.503l.944.944c.584.585 1.537.585 2.121 0l2.827-2.827c.285-.283.441-.66.441-1.061s-.156-.778-.44-1.061l-.944-.945c.192-.394.36-.799.503-1.212h1.335c.827 0 1.5-.673 1.5-1.5v-4c0-.827-.673-1.5-1.5-1.5z" fill="#fff" transform="translate(12 12)"/></g></svg>