<svg height="80" viewBox="0 0 80 80" width="80" xmlns="http://www.w3.org/2000/svg"><g fill="none" fill-rule="evenodd"><path d="m0 0h80v80h-80z" fill="#8c4fff"/><path d="m29.9703807 60.6603975h17.8603355v-5.8730824c0-.5171834-.5662326-.953338-1.2365079-.953338h-15.3883202c-.6702753 0-1.2355074.4361546-1.2355074.953338zm23.1715169 3.3341823v3.6803049.3251153h-2.0008218v-.3251153-3.6803049c0-.7852785-.4571878-1.3334728-.8673562-1.3334728h-22.7463423c-.4111689 0-.8673562.5481943-.8673562 1.3334728v3.6803049.3251153h-2.0008218v-.3251153-3.6803049c0-1.8376516 1.2875288-3.3341823 2.868178-3.3341823h.4421816v-5.8730824c0-1.6285775 1.4515962-2.9540475 3.2363292-2.9540475h15.3883202c1.7847331 0 3.2373297 1.32547 3.2373297 2.9540475v5.8730824h.4421816c1.5816496 0 2.868178 1.4965307 2.868178 3.3341823zm-7.6211301-25.4010066c1.273523 0 2.3099487-1.0363675 2.3099487-2.3098191 0-1.2734515-1.0364257-2.309819-2.3099487-2.309819-1.2735231 0-2.3099488 1.0363675-2.3099488 2.309819 0 1.2734516 1.0364257 2.3098191 2.3099488 2.3098191zm-1.0004109 12.034267v-10.1626034c-1.8947782-.454161-3.3103596-2.1497622-3.3103596-4.1814827 0-2.3768427 1.9337942-4.3105284 4.3107705-4.3105284 2.3769762 0 4.3107705 1.9336857 4.3107705 4.3105284 0 2.0317205-1.4165819 3.7273217-3.3103597 4.1814827v10.1626034zm-3.3823892-22.0668244c0-1.2744518-1.0354253-2.309819-2.3099487-2.309819-1.2735231 0-2.3089484 1.0353672-2.3089484 2.309819 0 1.2734516 1.0354253 2.3088187 2.3089484 2.3088187 1.2745234 0 2.3099487-1.0353671 2.3099487-2.3088187zm2.0008217 0c0 2.0047109-1.3815674 3.6783043-3.2373296 4.1584745v17.9083499h-2.0008217v-17.8633339c-1.9317935-.4261511-3.3823892-2.1467612-3.3823892-4.2034905 0-2.3768427 1.9337942-4.3105284 4.3097701-4.3105284 2.3769762 0 4.3107704 1.9336857 4.3107704 4.3105284zm-10.8584597 5.4129193c-1.2745234 0-2.3099487 1.0363675-2.3099487 2.309819 0 1.2734516 1.0354253 2.3098191 2.3099487 2.3098191 1.2735231 0 2.3089483-1.0363675 2.3089483-2.3098191 0-1.2734515-1.0354252-2.309819-2.3089483-2.309819zm0-2.0007094c2.3769763 0 4.3097701 1.9336857 4.3097701 4.3105284 0 2.0317205-1.4165818 3.7273217-3.3093592 4.1814827v10.1626034h-2.0008218v-10.1626034c-1.8937778-.454161-3.3103596-2.1497622-3.3103596-4.1814827 0-2.3768427 1.9337943-4.3105284 4.3107705-4.3105284zm35.7196706 5.3929122c0 7.6527135-5.809386 10.3796804-11.2466191 10.3796804h-7.8162103v-2.0007094h7.8162103c2.1688907 0 9.2457973-.6042142 9.2457973-8.378971 0-5.6259948-4.4068099-7.6907269-8.1023277-8.4319898-.4461833-.0900319-.7753184-.468166-.8023295-.922327-.2621077-4.4395742-2.8561731-6.0141325-4.9980528-6.0141325-1.448595 0-2.8071529.6902448-3.7265305 1.8956722-.2210909.2901029-.58424.4331536-.9453883.3811351-.3601479-.0540191-.6632724-.3011067-.7893242-.643228-.6342605-1.7246115-1.7597228-4.1364667-3.5184451-5.8390704-3.8815942-3.773338-9.1927756-4.7977012-14.2128374-2.7409719-4.0966826 1.6775948-7.4300516 6.8044127-7.4300516 11.4280521 0 .5091806.0310127 1.0203618.0930382 1.5185384.0620254.5031785-.2621077.9743455-.7553102 1.0943881-2.0478411.5001773-6.8107973 2.3018162-6.8107973 8.1959061 0 .2050727.0110045.4111458.022009.6172188.2420994 4.3215323 4.3087697 7.8397798 9.0637226 7.8397798h5.7503618v2.0007094h-5.7503618c-5.7983815 0-10.7614199-4.3655479-11.0615431-9.7314505-.0140058-.2450869-.0250103-.4861724-.0250103-.7262575 0-4.7957005 2.7851439-8.4459948 7.5010808-9.9085134-.0180074-.299106-.0280115-.6002128-.0280115-.9003192 0-4.7816955 3.2433321-11.0569205 8.6725619-13.2797087 5.7783733-2.3678396 11.8968863-1.1864206 16.3637209 3.1561191 1.5576397 1.5065342 2.666095 3.4472223 3.4164031 5.1358211 1.1814853-.9633416 2.6380835-1.49453 4.170713-1.49453 3.0942709 0 6.3466066 2.213785 6.9288458 7.1365305 5.7953802 1.3914934 8.974686 5.0037742 8.974686 10.2326282z" fill="#fff"/></g></svg>