<svg height="80" viewBox="0 0 80 80" width="80" xmlns="http://www.w3.org/2000/svg"><g fill="none" fill-rule="evenodd"><path d="m0 0h80v80h-80z" fill="#01a88d"/><path d="m40.3660145 46.4532689.2202273-2.0078001c-1.8131045-.1949223-3.6835283 1.6735034-4.4970621 4.4519029-.6717437 2.2936188-.4082754 4.5145205.6697324 5.6557751l1.4591317-1.3907147c-.4736396-.50195-.7059342-1.9674017-.2001152-3.695443.5762112-1.9653819 1.755785-3.0854273 2.3480859-3.0137202zm-19.6796749.2191613.2061489-2.0088101c-1.8875191-.1969422-3.849453 1.6714835-4.713267 4.4347336-.7220239 2.3128081-.4404547 4.5488592.7159902 5.6971835l1.4138795-1.4371729c-.5007909-.4969002-.7441471-1.9461926-.2111768-3.6550446.6435867-2.0562783 1.9166816-3.1076464 2.5884252-3.0308895zm23.0977236-9.7754013.8145395-1.8482265c-.096538-.0414083-9.6387166-4.1509349-15.4923388 6.2203427l1.7497513.9968303c4.9355056-8.7472621 12.6032379-5.5103409 12.928048-5.3689465zm20.91154 10.6480066-.627497 1.7462206-1.0558845 2.5824673c-.0834651.1989621-.2252553.3595457-.4002304.4686213l.0241345.4979102c.0211176 1.1927626-.3197822 2.164344-.983481 2.842027-.439449.4494322-1.0076154.7403006-1.6733254.905934l-.1086053.2464302c.1950872.00101.3972137 0 .6043682-.00101 2.5622795-.0161593 4.2144873-.7514101 4.911371-2.1845431 1.0206883-2.1007165.7210183-4.7447913-.6908501-7.1040575zm2.4979209 7.9908023c-.729063 1.4987804-2.4828368 3.2904491-6.7043634 3.317718-.1649191.00101-.3268214.00101-.4836956.00101-.94024 0-1.6914263-.0161594-1.6914263-.0161594-.3358718-.0070697-.6466035-.1828027-.8276123-.4676114-.1800032-.2848087-.2071545-.6413245-.0713979-.9503722l.2956476-.6716233h-12.0139537c-1.2439325 0-2.3521083-.4625616-3.0449696-1.2685095-.2785524-.3262171-.4836957-.6999022-.607385-1.106916-.429393.804938-.9050438 1.5058501-1.4249412 2.0976866-.8597916.979661-2.6437335 2.4168339-4.4699108 2.4168339-.3077149 0-.6154298-.0414084-.9201279-.1312948-3.0268687-.8948244-4.1159381-5.6456755-2.5321114-11.0519905 1.5908659-5.4285342 5.1929402-8.9876327 8.2037193-8.0948282.3117373.0929163.6114074.2312808.8889541.4120637l-1.0900749 1.6967325c-.1176557-.075747-.2403395-.1333147-.3670456-.1706832-1.6170116-.478721-4.3683448 2.163334-5.706804 6.7273425-1.321364 4.5125005-.4615723 8.0614994 1.1705233 8.5432502.9120831.2686494 2.4023885-.6433444 3.3144716-1.682593.9734249-1.1089359 1.7789139-2.7339613 2.393338-4.829628.6033626-2.0643579.7924162-4.1367955.5299535-5.8304981-.0834652-.5393186.2745299-1.0473284.8085058-1.1483244.5289478-.100996 1.0508564.2413804 1.1675065.7746392.5017965 2.2804893.4756508 5.3285481-.0784371 9.0573198-.0613419.4060039.0211176.7423205.2443618 1.0018802.3046981.3555059.8728645.5675974 1.5204736.5675974h13.0336364c.6868277 0 1.1876186-.1555338 1.4882943-.4625616.2805636-.2868286.4183313-.7443404.4072697-1.3594059l-.0201121-.4080238-1.379689-.0010099c-.3117373 0-.6053737-.1444243-.7954329-.3918645-.1910648-.2474401-.2564291-.5696173-.177992-.8726053l.1719583-.6625336c.0211177-.0807968.0522915-.1585637.09151-.2312808l-4.8771805-.0838267c-.6466035 0-1.2439324.3353067-1.5848323.8827049l-.1649191.6100158c-.1186613.4403424-.5168805.7453503-.970408.7453503l-3.9852096-.0010099c-.4957629.0979661-.9814697-.1969422-1.1453832-.6746532-.1538575-.4453923-.3077149-1.1160056-.5038078-1.9653819-.1960928-.8433164-.4384434-1.8936747-.7381135-2.9612022l1.9347826-.5484082c.3137485 1.1129757.5621327 2.188583.762248 3.0531086.09151.3969142.1769863.7655495.2544179 1.0766172l2.6517783.0010099c.0211177-.074737.0492746-.1464441.086482-.2141114.6817996-1.2483104 1.9860683-2.0239596 3.4029647-2.0239596h4.8279059c.7381135 0 1.4038235.3817649 1.7799195 1.0190495.2232441.3787349.3177709.804938.2835804 1.2240713h.8778925l.7843713-1.9148838.7260462-2.0239595c.569172-1.5906868.9673913-3.2520707 1.1825906-4.9397136l.8748757-7.8100195c.2574347-2.0229495-.2071545-3.8933951-1.3092967-5.2820899-1.1353272-1.4301031-2.7815013-2.2724096-4.5161686-2.3107881-.0633531-.00101-.1246949-.0080797-.1870424-.0222191l-3.425088-.0575677c-.1820144-.0121196-2.8327871-.1969422-4.8490236 2.4107741-.2674907.3454063-.7260463.476701-1.1313048.3322768-.4102865-.1464442-.6787828-.5393186-.6687268-.9756212.0191065-.8231173.6948725-2.3410869 2.1831668-3.4419432-14.4565664-1.9431627-20.3222559 3.1631943-22.5818486 6.5839282l-1.895564 3.3742759c-.0301681.0535278-.0653643.1040258-.1045828.1514939-1.03175 1.2351809-2.9604989 2.6814434-6.2357519 2.591557-2.5693188.1636135-4.4216418 1.483631-5.41719 3.9196541-.2393338.6635436-.4786676 1.4543422-.4977741 1.6553242-.010056.0989761-.0341905.2100716-.0724035.3110676-.0653642.3454063-.1126276.678693-.1478238.9907706.2755356-.2312808.5430263-.4534719.8024722-.6665735.3821296-.3151074.9362175-.3029879 1.3062799.0282789.3690567.3312668.4434715.8816949.1759807 1.2998183-.6787828 1.0594479-1.2529828 2.3077583-1.6602526 3.6095965-.2383282.7645396-.4193369 1.5452385-.535987 2.3178578l-.1438014 1.5543282c-.2393338 2.5824673.3057037 4.1529549 1.6200284 4.6700543 1.2640445.4958903 2.7382603-.3989341 3.6171584-1.3169876 1.2268372-1.2846689 2.2636151-3.1419851 2.9152467-5.2275522.9311895-2.9824114.9110774-5.9900718-.0512858-7.6635752l1.7427121-1.0099599c1.2489605 2.1724237 1.336448 5.7274823.2272666 9.2774911-.4183314 1.3371869-.9844866 2.5935769-1.6532134 3.7095825h7.4515274v2.0199197h-8.9207152c-.0874876.0979661-.1729639.199972-.2614571.2928884-1.05689 1.1038861-2.629655 2.0835471-4.2939301 2.0835471-.4987796 0-1.003593-.0868565-1.5063951-.2848087-1.5466193-.6079958-3.3034099-2.2703897-2.8901066-6.7334022.0040225-.051508.0321794-.3494461.1528519-1.6179557.1387734-.931183.3419054-1.8128779.6114074-2.6763936.0442466-.1424043.0905043-.2837987.1387733-.4241831-.0995548-.0090896-.1970984-.0313087-.2916252-.0706972-.3499502-.1434143-.5902897-.4716512-.6214634-.8493762-.0060336-.0717072-.144807-1.7785393.2684963-3.8348175.0100561-.049488.0241345-.0969562.0402242-.1444243.1045828-.6150655.4464883-1.5977564.6033625-2.0290093 1.3082912-3.2056125 3.8132513-4.9932414 7.259457-5.2083629 1.2841566.0373685 2.3772484-.1939123 3.2812866-.6847528h-10.6423096v-2.0199196h12.536868l1.379689-2.4501626c.1226837-.1858326.2584403-.377725.4002305-.5716373h-5.2552878v-2.0199197h7.0251512c1.1272824-1.079647 2.5813861-2.1461646 4.4427595-3.041999h-15.5013892v-2.0199197h22.1826237v.0353486c3.999288-.5989062 9.0464157-.5009401 15.4128961.7907986.4655947.0949362.7964385.5009401.8064946.9675415l2.8297703.0464582c.0683811.0010099.1347509.0090896.2011208.023229 2.2857384.0898865 4.4367259 1.2028622 5.9169753 3.0672481 1.4440477 1.8209576 2.0594775 4.2287018 1.7336617 6.7828903l-.8748757 7.8100194c-.1417902 1.1109558-.3630231 2.2047423-.6455979 3.2783296 2.5753524 3.2248018 3.2772642 7.2555515 1.7407009 10.4157159zm-10.5618612-14.0283422c1.0940974-.026259 1.9468498-.7988783 2.0785839-1.8391369l.1910648-1.5018103c-.6104017.7928185-1.5566753 1.3139578-2.6306606 1.3139578-.6234746 0-1.1996859-.1838127-1.6994712-.4837708l-.0181009.1393745c-.0774315.6100157.1136333 1.2200315.5229142 1.6755234.3962081.4423624.9633689.6958623 1.5556698.6958623zm-1.6833815-5.3760162c0 .7322208.5933065 1.3291071 1.3223696 1.3291071.7300686 0 1.3243807-.5968863 1.3243807-1.3291071 0-.7332309-.5943121-1.3291072-1.3243807-1.3291072-.7290631 0-1.3223696.5958763-1.3223696 1.3291072zm.434421-3.5308196-.0422353.3312668c.2976588-.0878665.6053737-.1494741.9301839-.1494741 1.3686273 0 2.5441787.8322069 3.0570368 2.0178998l.2121825-1.6674437c.0784372-.6090058-.1136332-1.2200315-.5219086-1.6765333-.3992248-.4433724-.9623632-.6948524-1.5536585-.6948524-.0181009 0-.0351962 0-.0522914.00101-1.0448228.0252489-1.8985808.7978682-2.0293094 1.8381269zm1.3444929 10.9257455c-1.2580109 0-2.368198-.4969002-3.1445244-1.3614259-.8024722-.8928045-1.176557-2.0896069-1.0247107-3.2843894l.8286178-6.5354501c.2594459-2.037089 1.9307602-3.5520287 3.9751536-3.6015168 1.1906354-.0434282 2.3460746.4655915 3.1495524 1.3604159.8014666.8928045 1.1755514 2.0896069 1.0247107 3.2833795v.0010099l-.8296235 6.5354502c-.2594459 2.037089-1.9307601 3.5520287-3.9751535 3.6025267z" fill="#fff"/></g></svg>