<svg height="80" viewBox="0 0 80 80" width="80" xmlns="http://www.w3.org/2000/svg"><g fill="none" fill-rule="evenodd"><path d="m0 0h80v80h-80z" fill="#7aa116"/><path d="m36 24h8v-2h-8zm-10 23h29v-12h-29zm30-14h-31c-.553 0-1 .448-1 1v14c0 .552.447 1 1 1h31c.553 0 1-.448 1-1v-14c0-.552-.447-1-1-1zm10 22.847c0 2.29-1.762 4.153-3.928 4.153h-44.144c-2.166 0-3.928-1.863-3.928-4.153v-31.694c0-2.29 1.762-4.153 3.928-4.153h44.144c2.166 0 3.928 1.863 3.928 4.153zm-3.928-37.847h-44.144c-3.269 0-5.928 2.76-5.928 6.153v31.694c0 3.393 2.659 6.153 5.928 6.153h44.144c3.269 0 5.928-2.76 5.928-6.153v-31.694c0-3.393-2.659-6.153-5.928-6.153zm-.072 35.52c0 .816-.671 1.48-1.495 1.48h-41.01c-.824 0-1.495-.664-1.495-1.48v-28.04c0-.816.671-1.48 1.495-1.48h10.724l.811 3.243c.112.444.511.757.97.757h16c.459 0 .858-.313.97-.757l.811-3.243h10.724c.824 0 1.495.664 1.495 1.48zm-1.495-31.52h-11.505c-.459 0-.858.312-.97.757l-.811 3.243h-14.438l-.811-3.243c-.112-.445-.511-.757-.97-.757h-11.505c-1.927 0-3.495 1.562-3.495 3.48v28.04c0 1.918 1.568 3.48 3.495 3.48h41.01c1.927 0 3.495-1.562 3.495-3.48v-28.04c0-1.918-1.568-3.48-3.495-3.48z" fill="#fff"/></g></svg>