<svg height="80" viewBox="0 0 80 80" width="80" xmlns="http://www.w3.org/2000/svg"><g fill="none" fill-rule="evenodd"><path d="m0 0h80v80h-80z" fill="#01a88d"/><path d="m47.217 46.0740345c0 .3598033.142.6987915.398.9525371.514.5104647 1.41.5104647 1.923 0 .257-.2537456.399-.5927338.399-.9525371 0-.3598032-.142-.6987915-.399-.952537-.257-.2547368-.598-.3954863-.962-.3954863-.363 0-.704.1407495-.961.3944951-.256.2547367-.398.593725-.398.9535282zm-1.016 2.3540849c-.634-.6284168-.984-1.4649842-.984-2.3540849 0-.8891006.35-1.7256681.984-2.355076 1.268-1.2578247 3.482-1.2578247 4.751.0009912.635.6284167.985 1.4649842.985 2.3540848 0 .8891007-.35 1.7256681-.985 2.3550761-.634.6284168-1.478.9743433-2.376.9743433-.897 0-1.741-.3459265-2.375-.9753345zm-3.904-2.6583813.407 2.554306 1.819-.0743396c.286-.0089207.55.0951546.749.2904198l.813.808814c.197.1952651.303.4628874.291.7394304l-.073 1.8059548 2.576.404407.486-1.7207121c.077-.2686135.264-.4936145.517-.6185048l1.06-.5243415c.247-.122908.535-.1377759.794-.0426213l1.681.6175136 1.185-2.303534-1.505-.993176c-.231-.1526438-.388-.3935038-.433-.6660821l-.187-1.1398727c-.045-.2745606.028-.5550684.202-.7741222l1.128-1.4144333-1.845-1.827761-1.424 1.1170752c-.221.1724677-.5.2448248-.783.2012123l-1.147-.1863444c-.274-.0446037-.516-.2002211-.67-.4291868l-1.005-1.4927377-2.324 1.1725821.623 1.6642141c.096.2577103.081.5431741-.043.7889901l-.531 1.0486829c-.127.2497808-.352.435134-.624.5114559zm-1.429 3.7358088-.685-4.2968244c-.08-.496588.228-.9723609.717-1.1091457l2.168-.6036369.137-.271587-.781-2.088445c-.177-.4718082.031-.9991232.483-1.2280889l3.911-1.9734665c.455-.2279746 1.003-.0852427 1.286.333041l1.257 1.8684.282.0465861 1.775-1.3936182c.399-.3132172.968-.2805078 1.328.0763219l3.104 3.0756738c.358.3548473.391.9208189.078 1.315314l-1.406 1.7633334.047.2834814 1.883 1.2429568c.422.2785254.567.8276467.336 1.2756662l-1.994 3.8745759c-.23.4490107-.763.6531966-1.238.4787465l-2.11-.7741222-.274.1357935-.607 2.1469254c-.122.4331516-.521.7235714-.962.7235714-.052 0-.105-.0039648-.157-.0118944l-4.334-.68095c-.501-.0792955-.864-.5174031-.843-1.0199382l.092-2.2529831-.195-.1932828-2.269.0931722c-.455.0168503-.95-.337997-1.029-.8355762zm24.132-13.6903664-33-.0089207v20.8061454l16 .0089207c.515 0 .965.1813884 1.379.5550684l6.621 6.2772293v-4.8499104c0-1.1854676.804-1.9823873 2-1.9823873h6.991zm2-.0089207v20.8150661c0 1.1676261-.822 1.9823873-2 1.9823873h-6.991l-.009 5.8222713c0 .624452-.37 1.1894324-.943 1.4411956-.203.0892074-.419.1328199-.634.1328199-.384 0-.763-.1407495-1.059-.4063894l-7.349-6.9680912-16.015-.0218062c-1.196 0-2-.7969197-2-1.9823873v-20.8150661c0-1.4630018.524-1.9823873 2-1.9823873h33c1.179.0039648 2 .818726 2 1.9823873zm-31-4.9559682h4v-1.9823872h-4zm-17 0h15v-1.9823872h-15zm13-4.9559681h11v-1.9823872h-11zm-13 0h9v-1.9823872h-9zm20-4.9559681h4v-1.9823873h-4zm-20 0h18v-1.9823873h-18zm8.276 16.1673592 1.449 1.366856-6.022 6.2673173c-.367.3261027-.794.4886585-1.207.4886585-.216 0-.427-.0436125-.626-.1318288-.536-.2388776-.87-.7602455-.87-1.3609088v-5.9392322l-4-.0079296c-1.178 0-2-.8147611-2-1.9823872v-19.8238725c0-1.1676261.822-1.9823873 2-1.9823873h30c1.215 0 2 .778087 2 1.9823873v14.8679043h-2v-14.8679043h-29.992l-.008 19.8159429 4 .0079296c1.178 0 2 .8147611 2 1.9823872v4.8132363z" fill="#fff"/></g></svg>