<svg height="80" viewBox="0 0 80 80" width="80" xmlns="http://www.w3.org/2000/svg"><g fill="none" fill-rule="evenodd"><path d="m0 0h80v80h-80z" fill="#8c4fff"/><path d="m64 62h-3c-.448 0-1-.551-1-1v-2h5v2c0 .449-.552 1-1 1zm-42-3h36v-3h-36zm-3 3h-3c-.663 0-1-.336-1-1v-2h5v2c0 .372-.211 1-1 1zm-3-30h3c.448 0 1 .551 1 1v3h-5v-3c0-.449.552-1 1-1zm21.008 3h5.991 15.001v3h-36v-3zm1.002-7h3.99l-.001 5h-3.991zm-5.01-2c-.507 0-.926.377-.991.866-.116.05-.403.134-1.009.134-1.267 0-2-.376-2-2.3 0-1.792.673-2.7 2-2.7.575 0 .885.088 1.011.148.071.482.487.852.989.852h13c.495 0 .906-.36.986-.833.107-.057.394-.167 1.014-.167 1.094 0 2 .19 2 2.531 0 2.056-.766 2.469-2 2.469-.597 0-.886-.074-1.007-.121-.059-.495-.481-.879-.993-.879h-2-2-3.99-2zm7-8c1.582 0 2 1.962 2 3h-4c0-1.038.418-3 2-3zm20 39h5v-19h-5zm-38-3h36v-14h-36zm-7 3h5v-19h-5zm46-25h3c.454 0 1 .614 1 1v3h-5v-3c0-.386.546-1 1-1zm3-2h-3c-1.514 0-3 1.486-3 3h-14.001l.001-5h1.286c.356.533 1.121 1 2.714 1 1.825 0 4-.775 4-4.469 0-3.007-1.346-4.531-4-4.531-1.416 0-2.248.441-2.664 1h-1.336c0-2.485-1.374-5-4-5s-4 2.515-4 5h-2.315c-.358-.51-1.111-1-2.685-1-1.934 0-4 1.235-4 4.7 0 2.773 1.421 4.3 4 4.3 1.588 0 2.345-.481 2.7-1h2.31l-.002 5h-14.008c0-1.542-1.458-3-3-3h-3c-1.542 0-3 1.458-3 3v28c0 1.767 1.233 3 3 3h3c1.948 0 3-1.546 3-3h36c0 1.542 1.458 3 3 3h3c1.542 0 3-1.458 3-3v-28c0-1.514-1.486-3-3-3z" fill="#fff"/></g></svg>