<svg height="80" viewBox="0 0 80 80" width="80" xmlns="http://www.w3.org/2000/svg"><g fill="none" fill-rule="evenodd"><path d="m0 0h80v80h-80z" fill="#7aa116"/><path d="m2.066 8.912c.843 2.955 10.582 6.088 23.434 6.088 12.83 0 22.558-3.122 23.429-6.073l.064-.45c-.073-1.317-7.629-6.477-23.493-6.477-15.867 0-23.421 5.161-23.494 6.478zm46.153 19.277-.383 2.703c3.36.827 3.963.322 3.9690132.317.0009868-.024-.0450132-.901-3.5860132-3.02zm-15.541 25.369.252 1.984c-2.397.304-4.899.458-7.436.458-7.633 0-19.719-1.691-19.853-6.223l-5.548-40.524c-.045-.195-.072-.394-.082-.596l-.003-.021h.001c-.002-.046-.009-.09-.009-.136 0-3.466 9.933-8.5 25.5-8.5 15.566 0 25.5 5.034 25.5 8.5 0 .047-.009.093-.011.14h.001l-.002.01c-.009.219-.041.432-.091.642l-2.376 16.762c3.347 1.91 4.989 3.402 5.248 4.786.114.611-.037 1.184-.435 1.659-.486.578-1.286.866-2.468.866-.881 0-1.979-.163-3.313-.482l-.128.904-1.98-.28.163-1.152c-6.165-1.821-14.622-5.674-18.681-7.595-.417.346-.944.562-1.526.562-1.324 0-2.402-1.078-2.402-2.403s1.078-2.403 2.402-2.403c1.325 0 2.403 1.078 2.403 2.403 0 .014-.004.028-.004.042 3.45 1.629 11.973 5.54 18.092 7.391l2.549-17.979c-4.419 3.026-13.886 4.627-22.941 4.627-9.071 0-18.553-1.606-22.962-4.641l5.093 37.206c.006.045.009.091.009.136 0 1.516 6.779 4.299 17.854 4.299 2.453 0 4.871-.149 7.184-.442zm18.288-7.689 2.371 2.37-1.415 1.414-2.653-2.653h-4.753l2.259 3.917 3.812 1.073-.542 1.924-3.174-.893-.867 3.238-1.932-.518 1.007-3.761-2.354-4.083-2.323 4.017.977 3.839-1.937.493-.814-3.195-3.237.867-.517-1.932 3.759-1.007 2.302-3.979h-4.689l-2.729 2.662-1.396-1.432 2.361-2.303-2.37-2.37 1.414-1.414 2.856 2.857h4.671l-2.384-4.123-3.807-1.071.541-1.925 3.175.893.867-3.237 1.932.518-1.009 3.767 2.357 4.076 2.32-4.023-.976-3.833 1.937-.493.815 3.196 3.236-.867.518 1.931-3.766 1.009-2.41 4.182h4.594l2.938-2.866 1.397 1.432z" fill="#fff" transform="translate(13 12)"/></g></svg>