<svg height="80" viewBox="0 0 80 80" width="80" xmlns="http://www.w3.org/2000/svg"><g fill="none" fill-rule="evenodd"><path d="m0 0h80v80h-80z" fill="#8c4fff"/><path d="m48.692 40.6795109c.739.6832623 1.109 1.5986137 1.109 2.748055 0 1.2504801-.45 2.2488634-1.349 2.99515-.9.7472869-2.109 1.1204301-3.626 1.1204301-1.199 0-2.386-.2560983-3.56-.7662942v-1.531588c1.391.4601767 2.577.6892646 3.56.6892646.97 0 1.716-.2170833 2.239-.6502496.523-.4341667.784-1.0534044.784-1.8567129 0-1.544593-.975-2.3168895-2.928-2.3168895-.612 0-1.218.0320123-1.818.0950365v-1.2624847l4.02-4.3846834h-5.665v-1.5696026h7.789v1.5125807l-3.943 4.1736024c.065-.013005.127-.0190073.192-.0190073h.191c1.264 0 2.265.3411309 3.005 1.0233929m-11.118-.3341283c.777.7272792 1.166 1.7286637 1.166 3.0041534 0 1.2514805-.452 2.2628688-1.359 3.0351653-.906.7722965-2.098 1.1584447-3.578 1.1584447-1.3 0-2.519-.2560983-3.655-.7662942v-1.531588c1.416.4601767 2.628.6892646 3.636.6892646.97 0 1.713-.2190841 2.229-.6602535.517-.4401689.776-1.0744125.776-1.9047312 0-.906348-.243-1.5636003-.728-1.971757-.485-.4081568-1.276-.6132355-2.373-.6132355-.791 0-1.779.065025-2.966.1920738v-1.2634851l.364-5.7241977h6.985v1.5696026h-5.378l-.249 3.8864921c.702-.1270487 1.333-.1910733 1.894-.1910733 1.378 0 2.457.3631394 3.236 1.091419m14.383 14.0323874c-4.854.872335-9.105 2.8490939-11.957 4.4597122-2.853-1.6106183-7.104-3.5873772-11.957-4.4597122-1.366-.2450941-8.174-1.6666398-8.174-5.6021508 0-1.8237002.653-3.0331645 1.907-5.1929937 1.498-2.5829917 3.362-5.7982261 3.362-10.4270033 0-3.3082701-.867-6.480488-2.579-9.4406245.201-.2480952.406-.4991916.612-.7522888 2.536 1.2674866 5.176 1.9097332 7.86 1.9097332 3.28 0 6.294-.8613307 8.969-2.5609832 2.674 1.6996525 5.688 2.5609832 8.968 2.5609832 2.684 0 5.325-.6422466 7.861-1.9097332.205.2530972.41.5041936.611.7522888-1.712 2.9601365-2.579 6.1323544-2.579 9.4406245 0 4.6287772 1.864 7.8440116 3.365 10.4310048 1.251 2.1558277 1.904 3.365292 1.904 5.1889922 0 3.935511-6.808 5.3570567-8.173 5.6021508m4.904-21.2221478c0-3.1582125.891-6.1853747 2.646-8.9974543.228-.3631395.199-.8303188-.073-1.1624463-.508-.6222389-1.041-1.2774905-1.567-1.9287405-.305-.3771448-.835-.4811848-1.261-.2470949-2.463 1.3615227-5.032 2.0517877-7.638 2.0517877-3.144 0-5.891-.8453245-8.399-2.5829916-.342-.2370911-.797-.2370911-1.139 0-2.508 1.7376671-5.255 2.5829916-8.399 2.5829916-2.606 0-5.175-.690265-7.638-2.0517877-.425-.2340899-.956-.1300499-1.261.2470949-.526.65125-1.059 1.3065016-1.567 1.9287405-.271.3321275-.301.7993068-.073 1.1624463 1.756 2.8120796 2.646 5.8392418 2.646 8.9974543 0 4.0905705-1.715 7.0467055-3.093 9.4256188-1.35 2.3228918-2.176 3.8654841-2.176 6.1943782 0 5.389069 7.516 7.1587485 9.82 7.5719071 4.86.8733353 9.104 2.9331261 11.808 4.5067302.155.091035.329.1360523.503.1360523.173 0 .347-.0450173.503-.1360523 2.704-1.5736041 6.947-3.6333949 11.807-4.5067302 2.304-.4131586 9.82-2.1828381 9.82-7.5719071 0-2.3288941-.826-3.8714864-2.176-6.1973793-1.378-2.3759122-3.093-5.3320472-3.093-9.4226177m-3.867 27.0013666c-6.131 1.1024233-11.271 4.3996892-12.994 5.6071528-1.724-1.2074636-6.864-4.5047295-12.995-5.6071528-12.068-2.1678322-13.005-9.259555-13.005-11.3813696 0-3.49034 1.371-5.8522468 2.697-8.1381244 1.264-2.1778362 2.571-4.4307011 2.571-7.4818726 0-4.8198504-2.783-8.2241574-4.156-9.6096894 1.444-1.7566744 5.092-6.204382 6.891-8.5222719 2.726 2.5729878 5.895 3.9765267 9.028 3.9765267 3.478 0 6.354-1.4155435 8.969-4.435703 2.614 3.0201595 5.49 4.435703 8.968 4.435703 3.133 0 6.302-1.4035389 9.029-3.9765267 1.799 2.3178899 5.446 6.7655975 6.89 8.5222719-1.373 1.385532-4.156 4.789839-4.156 9.6096894 0 3.0511715 1.308 5.3040364 2.571 7.4818726 1.327 2.2858776 2.698 4.6477844 2.698 8.1381244 0 2.1218146-.938 9.2135374-13.006 11.3813696m12.038-20.5228793c-1.235-2.1288173-2.301-3.9665228-2.301-6.4784873 0-5.2880302 4.116-8.7083433 4.156-8.7403556.207-.1680645.339-.4121583.367-.6782604.026-.2661022-.054-.531204-.224-.7372831-.067-.0800307-6.622-8.0270818-8.124-10.0858722-.176-.2410926-.449-.3911502-.747-.4091571-.299-.0220085-.587.0970372-.791.315121-2.52 2.6950347-5.502 4.1796046-8.4 4.1796046-3.204 0-5.724-1.4275481-8.174-4.6287771-.379-.4941897-1.209-.4941897-1.588 0-2.451 3.201229-4.971 4.6287771-8.175 4.6287771-2.898 0-5.88-1.4845699-8.4-4.1796046-.204-.2180838-.494-.3421314-.791-.315121-.297.0180069-.571.1680645-.747.4091571-1.502 2.0587904-8.057 10.0058415-8.124 10.0858722-.169.2060791-.249.4711809-.222.7362827.026.2651018.157.5091955.363.67726.042.0340131 4.158 3.4543262 4.158 8.7423564 0 2.5119645-1.066 4.34967-2.301 6.4784873-1.391 2.3969203-2.967 5.112963-2.967 9.1415097 0 6.7115768 5.477 11.7024929 14.652 13.3511259 6.907 1.2414766 12.682 5.6221585 12.739 5.6671758.179.1370526.394.2060791.609.2060791.214 0 .429-.0690265.609-.2070795.058-.0440169 5.813-4.4216976 12.738-5.6661754 9.175-1.648633 14.653-6.6395491 14.653-13.3511259 0-4.0285467-1.577-6.7445894-2.968-9.1415097" fill="#fff"/></g></svg>