<svg height="80" viewBox="0 0 80 80" width="80" xmlns="http://www.w3.org/2000/svg"><g fill="none" fill-rule="evenodd"><path d="m0 0h80v80h-80z" fill="#e7157b"/><path d="m49.202 44h-2v3h-3v2h3v3h2v-3h3v-2h-3zm-9 19h10v-2h-10zm16-40h8v-8h-8zm10-9v10c0 .552-.447 1-1 1h-10c-.553 0-1-.448-1-1v-10c0-.552.447-1 1-1h10c.553 0 1 .448 1 1zm-17.581 18.58-2.02-2.02-3.443 3.442 2.021 2.02zm-4.856 4.856-2.021-2.019-26.33 26.329 2.02 2.02zm6.977-4.149-32.601 32.6c-.195.196-.451.293-.707.293-.255 0-.511-.097-.707-.293l-3.434-3.434c-.188-.187-.293-.442-.293-.707s.105-.519.293-.707l32.601-32.601c.188-.188.442-.293.707-.293.266 0 .52.105.707.293l3.434 3.435c.391.39.391 1.023 0 1.414zm5.46 5.713h8v-8h-8zm10-9v10c0 .552-.447 1-1 1h-10c-.553 0-1-.448-1-1v-10c0-.552.447-1 1-1h10c.553 0 1 .448 1 1zm-5 27h-2v4h-4v2h4v4h2v-4h4v-2h-4zm-48-37h7v-2h-7zm27 3h8v-8h-8zm-2 1v-10c0-.552.447-1 1-1h10c.553 0 1 .448 1 1v10c0 .552-.447 1-1 1h-10c-.553 0-1-.448-1-1zm-10 13v-3h3v-2h-3v-3h-2v3h-3v2h3v3zm-6-17h6v-2h-6z" fill="#fff"/></g></svg>