<svg height="80" viewBox="0 0 80 80" width="80" xmlns="http://www.w3.org/2000/svg"><g fill="none" fill-rule="evenodd"><path d="m0 0h80v80h-80z" fill="#8c4fff"/><path d="m66 40c0-2.206-1.794-4-4-4s-4 1.794-4 4 1.794 4 4 4 4-1.794 4-4zm-10.337-1c-.178-2.81-1.085-5.423-2.553-7.643-1.377.729-2.986 1.327-4.751 1.782.378 1.811.6 3.785.657 5.861zm0 2h-6.647c-.052 1.924-.252 3.755-.582 5.454 1.818.475 3.474 1.098 4.874 1.863 1.348-2.148 2.185-4.641 2.355-7.317zm-3.525 8.967c-1.202-.633-2.603-1.159-4.146-1.567-.717 2.662-1.771 4.893-3.056 6.509 2.846-.945 5.337-2.674 7.202-4.942zm-8.138 12.033c0-2.206-1.794-4-4-4s-4 1.794-4 4 1.794 4 4 4 4-1.794 4-4zm-8.936-7.091c-1.285-1.616-2.339-3.847-3.056-6.51-1.544.407-2.945.933-4.148 1.566 1.866 2.269 4.358 3.998 7.204 4.944zm-3.498-8.455c-.33-1.7-.53-3.531-.582-5.454h-6.647c.169 2.676 1.007 5.167 2.354 7.316 1.4-.765 3.057-1.388 4.875-1.862zm-7.229-7.454h6.647c.057-2.076.279-4.05.657-5.861-1.765-.455-3.374-1.053-4.751-1.782-1.468 2.22-2.375 4.833-2.553 7.643zm3.787-9.26c1.174.589 2.521 1.081 3.999 1.463.712-2.486 1.721-4.578 2.941-6.112-2.718.903-5.105 2.528-6.94 4.649zm7.876-11.74c0 2.206 1.794 4 4 4s4-1.794 4-4-1.794-4-4-4-4 1.794-4 4zm4 14.162c2.057 0 4.053-.189 5.916-.529-1.266-4.375-3.467-7.347-5.916-7.347s-4.65 2.972-5.916 7.347c1.863.34 3.859.529 5.916.529zm7.018 6.838c-.058-1.913-.274-3.743-.623-5.426-2.02.377-4.179.588-6.395.588s-4.375-.211-6.395-.588c-.349 1.683-.565 3.513-.623 5.426zm-7.02 8.413c-2.097 0-4.131.196-6.025.549 1.245 4.595 3.503 7.752 6.027 7.752s4.782-3.156 6.027-7.751c-1.895-.353-3.93-.55-6.029-.55zm6.485-1.396c.301-1.567.482-3.26.535-5.017h-14.036c.053 1.757.234 3.449.535 5.017 2.045-.388 4.233-.604 6.481-.604 2.25 0 4.44.216 6.485.604zm-1.547-20.926c1.22 1.534 2.229 3.626 2.941 6.113 1.478-.383 2.825-.875 3.999-1.464-1.835-2.121-4.222-3.746-6.94-4.649zm-22.936 14.909c0-2.206-1.794-4-4-4s-4 1.794-4 4 1.794 4 4 4 4-1.794 4-4zm46 0c0 3.309-2.691 6-6 6-1.898 0-3.589-.888-4.69-2.268-1.459 6.776-6.802 12.119-13.577 13.579 1.379 1.1 2.267 2.791 2.267 4.689 0 3.309-2.691 6-6 6s-6-2.691-6-6c0-1.898.888-3.589 2.267-4.689-6.775-1.46-12.118-6.803-13.577-13.579-1.101 1.38-2.792 2.268-4.69 2.268-3.309 0-6-2.691-6-6s2.691-6 6-6c1.898 0 3.589.888 4.69 2.268 1.459-6.776 6.802-12.119 13.577-13.579-1.379-1.1-2.267-2.791-2.267-4.689 0-3.309 2.691-6 6-6s6 2.691 6 6c0 1.898-.888 3.589-2.267 4.689 6.775 1.46 12.118 6.803 13.577 13.579 1.101-1.38 2.792-2.268 4.69-2.268 3.309 0 6 2.691 6 6zm-7.504 8.359c-2.247 5.489-6.647 9.889-12.137 12.137.088.489.141.99.141 1.504 0 .205-.016.406-.031.607 6.504-2.445 11.693-7.635 14.138-14.138-.201.015-.402.031-.607.031-.514 0-1.015-.053-1.504-.141zm-28.855 12.137c-5.49-2.248-9.89-6.648-12.137-12.137-.489.088-.99.141-1.504.141-.205 0-.406-.016-.607-.031 2.445 6.503 7.634 11.693 14.138 14.138-.015-.201-.031-.402-.031-.607 0-.514.053-1.015.141-1.504zm-12.137-28.855c2.247-5.489 6.647-9.889 12.137-12.137-.088-.489-.141-.99-.141-1.504 0-.205.016-.406.031-.607-6.504 2.445-11.693 7.635-14.138 14.138.201-.015.402-.031.607-.031.514 0 1.015.053 1.504.141zm28.996-13.641c0-.205-.016-.406-.031-.607 6.504 2.445 11.693 7.635 14.138 14.138-.201-.015-.402-.031-.607-.031-.514 0-1.015.053-1.504.141-2.247-5.489-6.647-9.889-12.137-12.137.088-.489.141-.99.141-1.504z" fill="#fff"/></g></svg>