<svg height="80" viewBox="0 0 80 80" width="80" xmlns="http://www.w3.org/2000/svg"><g fill="none" fill-rule="evenodd"><path d="m0 0h80v80h-80z" fill="#c925d1"/><path d="m45.0911055 18.0451258h-3.0080387v-2.0180503h3.0080387v-3.0270755h2.0053592v3.0270755h3.0080387v2.0180503h-3.0080387v3.0270756h-2.0053592zm12.0321549 11.0992769h-3.0080387v-2.0180503h3.0080387v-3.0270755h2.0053592v3.0270755h3.0080387v2.0180503h-3.0080387v3.0270755h-2.0053592zm-5.2219552 31.8892315c-1.915118-4.8655194-6.3349295-9.3133023-11.1718558-11.2415494 4.8369263-1.9272381 9.2567378-6.3750211 11.1718558-11.2415495 1.915118 4.8665284 6.3349296 9.3143114 11.1708532 11.2415495-4.8359236 1.9282471-9.2557352 6.37603-11.1708532 11.2415494zm16.0960152-12.2505746c-7.0528481 0-15.0933356-8.0913728-15.0933356-15.1888559 0-.5569819-.4481978-1.0090252-1.0026796-1.0090252s-1.0026796.4520433-1.0026796 1.0090252c0 7.0974831-8.0414902 15.1888559-15.0943383 15.1888559-.5534791 0-1.0026796.4520433-1.0026796 1.0090252 0 .5579909.4492005 1.0090251 1.0026796 1.0090251 7.0528481 0 15.0943383 8.0913729 15.0943383 15.1898649 0 .5569819.4481978 1.0090252 1.0026796 1.0090252s1.0026796-.4520433 1.0026796-1.0090252c0-7.098492 8.0404875-15.1898649 15.0933356-15.1898649.5534792 0 1.0026796-.4510342 1.0026796-1.0090251 0-.5569819-.4492004-1.0090252-1.0026796-1.0090252zm-54.9919613-19.8798139c2.919803 2.1371153 8.592964 3.2682325 14.0375141 3.2682325s11.1177111-1.1311172 14.037514-3.2682325v9.6644431c-1.4448612 1.9332922-6.7580603 3.8383317-13.8369781 3.8383317-8.1487769 0-14.23805-2.5629239-14.23805-4.8544201zm14.0375141-7.8310443c8.6972426 0 14.037514 2.6446549 14.037514 4.5406132s-5.3402714 4.5406133-14.037514 4.5406133-14.0375141-2.644655-14.0375141-4.5406133 5.3402715-4.5406132 14.0375141-4.5406132zm14.037514 37.8697236c0 2.325803-6.0050479 4.9280789-14.0425274 4.9280789-8.0314634 0-14.0325007-2.6022759-14.0325007-4.9280789v-6.4476708c2.9558994 2.2561802 8.7423633 3.450866 14.2952027 3.450866 3.8613191 0 7.5952978-.5489097 10.5100873-1.5458265l-.6437202-1.9110937c-2.713251.9272941-6.2176161 1.4388699-9.8663671 1.4388699-8.1818653 0-14.2952027-2.5629239-14.2952027-4.8544201v-8.0933909c2.947878 2.2521442 8.7092748 3.444812 14.23805 3.444812 5.9238309 0 11.0044083-1.2279837 13.8369781-3.1723752v3.0280846h2.0053592v-18.6669657c0-4.2601042-8.2650877-6.5586636-16.0428732-6.5586636-7.4609387 0-15.3510243 2.1209709-15.9807071 6.054151h-.0621661v33.833623c0 4.5113515 8.2630824 6.9461293 16.0378598 6.9461293 7.7797908 0 16.0478866-2.4347778 16.0478866-6.9461293v-3.5628679h-2.0053592z" fill="#fff"/></g></svg>