<svg height="80" viewBox="0 0 80 80" width="80" xmlns="http://www.w3.org/2000/svg"><g fill="none" fill-rule="evenodd"><path d="m0 0h80v80h-80z" fill="#ed7100"/><path d="m29 52.3813232-5 2.5001158-5-2.5001158v-5.7642669l5-2.5001157 5 2.5001157zm2 .6180286v-7.0003241c0-.3790175-.214-.7250335-.553-.8940414l-6-3.0001389c-.281-.1410065-.613-.1410065-.894 0l-6 3.0001389c-.339.1690079-.553.5150239-.553.8940414v7.0003241c0 .3790176.214.7250336.553.8950415l6 3.0001389c.14.0700032.294.1050048.447.1050048s.307-.0350016.447-.1050048l6-3.0001389c.339-.1700079.553-.5160239.553-.8950415zm21 5.0702348v-10.496486l10-5.8332701v10.6794945zm-11 6.2202879v-9.4704384l7.88 5.0202324zm-11-31.0914394v-11.4505301l9 5.3202463-.003 5.9302746 2 .001.002-4.75122h.001l9 5.3202463v11.4835317l-3.084-2.2111024-1.166 1.6260753 4.25 3.046141v10.6664938l-9-5.7302652v-12.4505765c0-.3600166-.189-.6900319-.51-.8700402zm-2-11.2705218v10.1404695l-8.97-5.0702347zm12-6.7803139 8.875 5.0172323-8.488 5.4022501-9.198-5.4392518zm12 18.4688551 10-5.0002315v10.8075003l-10 5.8342701zm-1.149-12.3385713 10.021 5.6662624-9.83 4.9152275-.002-.001-8.72-5.1502385h-.001zm12.639 4.8502246-23-13.0006019c-.301-.1700079-.679-.1700079-.98 0l-23 13.0006019c-.321.1800083-.51.5100236-.51.8700403v12.0005555h2v-10.2904764l21 11.8705496v23.6610954l-8.488-5.054234-1.024 1.7180796 10.001 5.9562757.001-.001v.001h.01c.15.0900042.33.1400065.5.1400065s.34-.0400019.49-.130006l10.4-5.8802723 1-.5700263 11.6-6.5503033c.321-.1800083.51-.5100236.51-.8700403v-26.0012037c0-.3600167-.189-.690032-.51-.8700403z" fill="#fff"/></g></svg>