<svg height="80" viewBox="0 0 80 80" width="80" xmlns="http://www.w3.org/2000/svg"><g fill="none" fill-rule="evenodd"><path d="m0 0h80v80h-80z" fill="#e7157b"/><path d="m55 63.00001h8v-7.99996h-8zm-19 0h8v-7.99996h-8zm-19 0h8v-7.99996h-8zm47-9.99995h-4v-4.999975c0-.5519972-.448-.999995-1-.999995h-18v-2.999985h-2v2.999985h-18c-.553 0-1 .4479978-1 .999995v4.999975h-4c-.553 0-1 .4479978-1 .999995v9.99995c0 .5519972.447.999995 1 .999995h10c.552 0 1-.4479978 1-.999995v-9.99995c0-.5519972-.448-.999995-1-.999995h-4v-3.99998h17v3.99998h-4c-.553 0-1 .4479978-1 .999995v9.99995c0 .5519972.447.999995 1 .999995h10c.552 0 1-.4479978 1-.999995v-9.99995c0-.5519972-.448-.999995-1-.999995h-4v-3.99998h17v3.99998h-4c-.553 0-1 .4479978-1 .999995v9.99995c0 .5519972.447.999995 1 .999995h10c.552 0 1-.4479978 1-.999995v-9.99995c0-.5519972-.448-.999995-1-.999995zm-24-35.8448208 9 5.195974-9 5.1959741-9-5.1959741zm1 22.5158874v-10.391948l9-5.195974v10.392948zm-11-15.587922 9 5.195974v10.391948l-9-5.194974zm-1.5 11.8359408 11 6.3509682c.154.0889996.327.1329994.5.1329994.172 0 .345-.0439998.5-.1329994l11-6.3509682c.309-.1789991.5-.5089975.5-.8659957v-12.7019365c0-.3569982-.191-.6869965-.5-.8659956l-11-6.3509683c-.309-.1789991-.692-.1789991-1 0l-11 6.3509683c-.31.1789991-.5.5089974-.5.8659956v12.7019365c0 .3569982.19.6869966.5.8659957z" fill="#fff"/></g></svg>