<svg height="80" viewBox="0 0 80 80" width="80" xmlns="http://www.w3.org/2000/svg"><g fill="none" fill-rule="evenodd"><path d="m0 0h80v80h-80z" fill="#c925d1"/><path d="m14.018 15c3.584 0 6.499-2.916 6.499-6.5s-2.915-6.5-6.499-6.5c-3.585 0-6.501 2.916-6.501 6.5s2.916 6.5 6.501 6.5zm-11.889 15.007-2-.017c.001-.127.217-11.156 9.514-14.216-2.467-1.489-4.126-4.188-4.126-7.274 0-4.687 3.814-8.5 8.501-8.5s8.499 3.813 8.499 8.5c0 3.035-1.603 5.696-4.003 7.2 1.33.437 2.83 1.142 4.285 2.289l-1.238 1.571c-3.402-2.682-7.193-2.56-7.23-2.558-5.02.153-8.586 2.368-10.613 6.581-1.544 3.211-1.589 6.392-1.589 6.424zm51.847 17.993c-.314-6.324-3.577-12.29-8.492-15.403-2.682-1.699-5.759-2.597-8.899-2.597-3.834 0-7.555 1.366-10.585 3.834v14.166zm-40.976 6 10-5.991v-.009h.016l.984-.574v-12.852l-11-6.574-11 6.574v12.852zm23.501-26.032c5.238 0 9.499-4.261 9.499-9.5 0-5.238-4.261-9.5-9.499-9.5-5.239 0-9.501 4.262-9.501 9.5 0 5.239 4.262 9.5 9.501 9.5zm19.499 22.032h-32.444l-10.556 6-13-7.426v-15.148l13-7.426 11.45 6.521c2.059-1.746 4.421-3.027 6.94-3.766-3.78-1.886-6.39-5.783-6.39-10.287 0-6.341 5.16-11.5 11.501-11.5s11.499 5.159 11.499 11.5c0 4.476-2.575 8.353-6.316 10.252 1.705.489 3.345 1.221 4.87 2.187 5.738 3.635 9.446 10.737 9.446 18.093zm-34.209-12.082-9.717 8.005-6.252-4.59 1.183-1.612 4.998 3.669 8.517-7.015z" fill="#fff" transform="translate(12 12)"/></g></svg>