<svg height="80" viewBox="0 0 80 80" width="80" xmlns="http://www.w3.org/2000/svg"><g fill="none" fill-rule="evenodd"><path d="m0 0h80v80h-80z" fill="#ed7100"/><path d="m45.99 51.42-5.99 3.428-5.99-3.428v-6.84l5.99-3.428 5.99 3.428zm2-7.42c0-.358-.192-.69-.503-.868l-6.99-4c-.309-.176-.686-.176-.994 0l-6.991 4c-.31.178-.502.51-.502.868v3h-18.01v2h18.01v3c0 .358.192.69.502.868l6.488 3.713v7.419h2v-7.419l6.487-3.713c.311-.178.503-.51.503-.868v-3h18.01v-2h-18.01zm-29.99-17h6v-2h-6zm29 0h15v-2h-15zm-33 7h52v-16h-52zm53-18h-54c-.553 0-1 .448-1 1v18c0 .552.447 1 1 1h54c.552 0 1-.448 1-1v-18c0-.552-.448-1-1-1z" fill="#fff"/></g></svg>