<svg height="80" viewBox="0 0 80 80" width="80" xmlns="http://www.w3.org/2000/svg"><g fill="none" fill-rule="evenodd"><path d="m0 0h80v80h-80z" fill="#7aa116"/><path d="m49 30v-4.586l-7.293 7.293c-.361.362-.935.391-1.332.074l-4.301-3.441-6.367 6.367-1.414-1.414 7-7c.361-.361.935-.392 1.332-.074l4.301 3.441 6.66-6.66h-4.586v-2h7c.553 0 1 .448 1 1v7zm-23 13h-2v-30c0-.552.447-1 1-1h30c.553 0 1 .448 1 1v30h-2v-29h-28zm-11 21.471v-22.41l12.74 8.82zm25-5.346c.224 0 .447-.067.641-.2l9.956-6.893 13.094 13.968h-47.382l13.094-13.968 9.956 6.893c.194.133.417.2.641.2zm12.26-8.244 12.74-8.82v22.41zm14.398-11.633-8-7-1.316 1.504 6.937 6.071-24.279 16.809-24.279-16.809 6.937-6.071-1.316-1.504-8 7c-.218.19-.342.463-.342.752v27c0 .552.447 1 1 1h52c.553 0 1-.448 1-1v-27c0-.289-.124-.562-.342-.752z" fill="#fff"/></g></svg>