<svg height="80" viewBox="0 0 80 80" width="80" xmlns="http://www.w3.org/2000/svg"><g fill="none" fill-rule="evenodd"><path d="m0 0h80v80h-80z" fill="#ed7100"/><path d="m49.0692448 26.3860236c-4.742 2.959-11.352 5.967-18.609 8.469-5.121 1.765-10.13 3.123-14.595 3.983 3.862 9.842 11.079 16.199 18.112 15.015 6.537-1.103 11.41-8.76 12.123-19.052l1.996.138c-.792 11.408-6.203 19.606-13.787 20.886-.661.112-1.325.166-1.986.166-7.378 0-14.605-6.782-18.452-16.797-1.138.186-2.246.348-3.287.459-1.41100001.15-2.68300001.226-3.81500001.226-3.819 0-6.043-.854-6.628-2.551-.727-2.11 1.355-4.762 6.187-7.883l1.086 1.68c-4.71 3.042-5.6 4.921-5.382 5.552.231.671 2.247 1.636 8.34000001.988.895-.095 1.844-.232 2.815-.385-.65-1.983-1.173-4.075-1.54-6.252-1.241-7.355-.591-14.59 1.833-20.374 2.489-5.93899996 6.551-9.66399996 11.437-10.48799996 5.886-.995 12.158 2.525 16.762 9.413l-1.662 1.11099996c-4.155-6.21399996-9.668-9.40999996-14.768-8.55199996-4.186.706-7.71 4.005-9.924 9.28899996-2.279 5.439-2.885 12.282-1.705 19.268.368 2.181.895 4.271 1.553 6.242 4.445-.837 9.478-2.195 14.634-3.972 7.12-2.455 13.585-5.393 18.203-8.276 5.197-3.242 6.191-5.245 5.959-5.917-.2-.583-1.874-1.473-6.872-1.119l-.14-1.996c5.214-.368 8.214.459 8.903 2.463.759 2.2-1.526 4.981-6.791 8.266" fill="#fff" transform="translate(12 12)"/></g></svg>