<svg height="80" viewBox="0 0 80 80" width="80" xmlns="http://www.w3.org/2000/svg"><g fill="none" fill-rule="evenodd"><path d="m0 0h80v80h-80z" fill="#01a88d"/><path d="m55.813 25.302c0 .327-.014.652-.041.972-.478 5.648-5.479 10.071-11.386 10.071v-2c4.877 0 9.003-3.619 9.394-8.238.021-.264.033-.534.033-.805 0-4.873-3.302-8.547-7.68-8.547-.552 0-1-.448-1-1 0-3.293-1.789-6.812-6.811-6.812h-.867c-.364 0-.699-.197-.875-.515-2.231-4.025-6.446-6.428-11.277-6.428-7.106 0-12.887 5.781-12.887 12.886 0 .553-.448 1-1 1-5.192 0-9.416 4.224-9.416 9.416 0 8.815 8.145 9.07 9.074 9.07v2c-7.65 0-11.074-5.56-11.074-11.07 0-5.968 4.604-10.881 10.446-11.375.496-7.763 6.971-13.927 14.857-13.927 5.361 0 10.073 2.584 12.727 6.943h.292c5.028 0 8.385 3.051 8.773 7.859 5.033.493 8.718 4.842 8.718 10.5zm-14.626 20.168 4.225 3.299-9.184 7.174h-16.495l-9.183-7.174 4.223-3.299 1.23 1.577-2.205 1.722 6.624 5.174h15.117l6.623-5.174-2.205-1.722zm0-9 4.225 3.299-9.184 7.174h-16.495l-9.183-7.174 4.223-3.299 1.23 1.577-2.205 1.722 6.624 5.174h15.117l6.623-5.174-2.205-1.722zm-21.183-12.527h15.953l7.041 5.5-7.041 5.5h-15.953l-7.041-5.5zm16.642 13 9.6-7.5-9.6-7.5h-17.331l-9.6 7.5 9.6 7.5z" fill="#fff" transform="translate(12 12.05)"/></g></svg>