<svg height="80" viewBox="0 0 80 80" width="80" xmlns="http://www.w3.org/2000/svg"><g fill="none" fill-rule="evenodd"><path d="m0 0h80v80h-80z" fill="#e7157b"/><path d="m51 54.1184246h5.729c-1.967 4.903-6.742 8.167-12.062 8.167-7.168 0-13-5.832-13-13 0-7.169 5.832-13 13-13 6.714 0 12.404 5.233 12.955 11.915l1.994-.164c-.637-7.711-7.203-13.751-14.949-13.751-8.271 0-15 6.729-15 15s6.729 15 15 15c5.662 0 10.79-3.204 13.333-8.141v4.807h2v-8.833h-9zm-13.375-3.781-1.25 1.562 5 4c.185.147.405.219.625.219.272 0 .543-.111.74-.327l10-11-1.48-1.346-9.368 10.306zm30.3754452-8.094c-.0304452 3.463-1.3924452 5.647-2.5284452 6.87l-1.465-1.362c.895-.963 1.969-2.704 1.993-5.525.039-4.583-2.67-7.281-8.28-8.249-.52-.089-.881-.567-.824-1.091.365-3.42-1.45-5.393-3.269-6.1-1.843-.714-3.747-.21-4.85 1.288-.22.298-.581.449-.953.397-.366-.055-.673-.308-.796-.658-.865-2.458-2.596-4.537-3.896-5.848-1.879-1.893-7.033-5.963-14.311-2.868-4.207 1.791-7.503 6.948-7.503 11.741 0 .44.07 1.322.097 1.624.043.488-.272.935-.747 1.057-2.49.641-6.668 2.614-6.668 8.632 0 .314.012.617.035.911.358 4.585 3.59 7.664 6.386 7.664h5.51v2h-5.51c-3.674 0-7.922-3.634-8.38-9.507-.027-.343-.041-.7-.041-1.068 0-6.891 4.646-9.434 7.36-10.331-.022-.336-.042-.709-.042-.982 0-5.627 3.749-11.466 8.72-13.581 5.828-2.48 12.001-1.246 16.514 3.299 1.19 1.201 2.709 2.991 3.76 5.156 1.656-1.283 3.917-1.613 6.039-.79 2.228.865 4.655 3.261 4.59 7.255 7.516 1.615 9.09 6.326 9.0594452 10.066z" fill="#fff"/></g></svg>