<svg height="80" viewBox="0 0 80 80" width="80" xmlns="http://www.w3.org/2000/svg"><g fill="none" fill-rule="evenodd"><path d="m0 0h80v80h-80z" fill="#e7157b"/><path d="m14 43v12c0 .552-.447 1-1 1h-12c-.553 0-1-.448-1-1v-12c0-.552.447-1 1-1h3v2h-2v10h10v-10h-2v-2h3c.553 0 1 .448 1 1zm9.587-16.999h-7.589c-4.411 0-8 3.589-8 8v15.999h-2v-15.999c0-5.514 4.486-10 10-10h7.589l-3.293-3.293 1.414-1.414 5 5c.391.391.391 1.024 0 1.414l-5 5-1.414-1.414zm20.413 4v-10h-10v10h2v2h-3c-.553 0-1-.448-1-1v-12c0-.552.447-1 1-1h12c.553 0 1 .448 1 1v12c0 .552-.447 1-1 1h-3v-2zm-13.997 19.998h-7.59l3.293 3.293-1.414 1.414-5-5c-.391-.391-.391-1.023 0-1.414l5-5 1.414 1.414-3.293 3.293h7.59c4.411 0 8-3.589 8-8v-15.998h2v15.998c0 5.514-4.486 10-10 10zm16.998-46.585 5.585 5.586h-5.585zm8.707 5.879-9-9c-.187-.188-.441-.293-.707-.293h-31c-.553 0-1 .448-1 1v17h2v-16h29v8c0 .552.447 1 1 1h8v42.999h-20.945v2h21.945c.553 0 1-.448 1-1v-44.999c0-.265-.105-.519-.293-.707z" fill="#fff" transform="translate(12 12)"/></g></svg>