<svg height="80" viewBox="0 0 80 80" width="80" xmlns="http://www.w3.org/2000/svg"><g fill="none" fill-rule="evenodd"><path d="m0 0h80v80h-80z" fill="#01a88d"/><path d="m40.0225189 39.0044816h7.0068391v-2.0000371h-7.0068391zm3.0025021 11.0002037h2.0016681v-5.0000926h-2.0016681zm-15.0125105-17.0003148h4.0033361v-2.0000371h-4.0033361zm-11.0091744 11.0002037h15.0125105v-2.0000371h-15.0125105zm0-5.0000926h21.0175147v-2.0000371h-21.0175147zm23.0191828 13.0002407h2.0016681v-9.0001667h-2.0016681zm15.0125105 0h2.0016681v-8.0001481h-2.0016681zm-3.0025021 2.000037h2.0016681v-13.0002407h-2.0016681zm-3.0025021-1.0000185h2.0016681v-11.0002037h-2.0016681zm-3.0015013-1.0000185h2.0016681v-9.0001667h-2.0016681zm20.8283571 13.120243-4.564804-8.9281654c1.5853211-2.6190485 2.4200167-5.6321043 2.4200167-8.749162 0-9.4321747-7.6763971-17.1073168-17.1112595-17.1073168-2.7963303 0-5.5636364.6850127-8.0036698 1.9800367l.9387824 1.7670327c2.1517931-1.1430212 4.594829-1.7470323 7.0648874-1.7470323 8.3309425 0 15.1095914 6.7771255 15.1095914 15.1072797 0 2.9270542-.8316931 5.7451064-2.406005 8.151151-.1971643.3000055-.217181.6830126-.054045 1.0030185l3.8391993 7.5081391-7.6393662-3.8210708c-.3062552-.1530028-.6725604-.1390026-.9678065.0400008-2.3869891 1.4490268-5.1122602 2.215041-7.881568 2.215041-7.5212678 0-13.9596331-5.6031038-14.9764805-13.0322414l-1.983653.270005c1.1519599 8.4161559 8.4430359 14.7622734 16.9601335 14.7622734 2.9514596 0 5.8568808-.7670142 8.4390326-2.2240412l9.1035863 4.5530843c.1781485.0850016.3703086.1270024.5594663.1270024.3452877 0 .6835696-.1370025.934779-.3960073.3853211-.3980074.4713928-.9950185.2191826-1.4790274zm-49.8535449-32.1205948h9.0075063v-2.0000371h-9.0075063zm14.0116765-9.0001667h7.592327l-7.592327-7.5861405zm-16.0133445 15.0002778h-2.0016681v-25.000463c0-.5520102.4473728-1.0000185 1.000834-1.0000185l16.0133446-.0040001c.2612177 0 .5174312.106002.7075896.2970055l11.0091744 11.0002037c.1911593.1920036.2932444.4480083.2932444.7070131v3.0000556h-2.0016681v-2.0000371h-10.0083403c-.5534612 0-1.0008341-.4470083-1.0008341-1.0000185v-10.0041853l-14.0116764.0040001zm0 13.0002407h14.0116764v2.000037h-15.0125105c-.5534612 0-1.000834-.4470082-1.000834-1.0000185v-9.0001666h2.0016681z" fill="#fff"/></g></svg>