<svg height="80" viewBox="0 0 80 80" width="80" xmlns="http://www.w3.org/2000/svg"><g fill="none" fill-rule="evenodd"><path d="m0 0h80v80h-80z" fill="#01a88d"/><path d="m43.5257485 35.0078722c0 1.6513959-1.3575525 2.9952767-3.0257485 2.9952767s-3.0257485-1.3438808-3.0257485-2.9952767 1.3575525-2.9952767 3.0257485-2.9952767 3.0257485 1.3438808 3.0257485 2.9952767zm2.9047186 9.9842556h-11.8851402c.2854289-1.7083061 1.4180675-4.9921278 5.9002096-4.9921278 4.5335799 0 5.6904244 3.2858185 5.9849306 4.9921278zm-10.9733813-9.9842556c0 1.4307438.6192699 2.7137207 1.5965866 3.6242848-3.5653403 1.4656887-4.6223351 5.1758381-4.6223351 7.3583964 0 .5511309.4508365.9984255 1.0085828.9984255h14.0989796c.5557291 0 1.0075742-.4452978 1.0085828-.9954303 0-.1437732-.0161373-3.5314312-2.3701697-5.8687454-.6444844-.6399908-1.3989044-1.1282209-2.2481311-1.4786683.9874026-.9125609 1.6137325-2.2005299 1.6137325-3.6382627 0-2.7526593-2.2622513-4.9921278-5.0429142-4.9921278s-5.0429142 2.2394685-5.0429142 4.9921278zm27.8852984 5.6920241-.0494205-.0309512c-.1079184.1447717-.24912.2645828-.4236048.335471-.1250643.0519181-.2561801.0768788-.3862873.0768788-.2622315 0-.5204287-.1018394-.713068-.2925387l-3.5391172-3.5044737 1.4261361-1.4117738 1.6530673 1.6364195c-.9631966-7.5141507-6.0827631-14.0827925-13.3455682-16.8114895l.7150853-1.8670558c7.8790491 2.9603317 13.4464264 10.0451595 14.5851164 18.1753388l1.015643-1.6374179 1.7196337 1.0443532zm-30.236305 18.7654084-.7150853 1.8670558c-7.8578689-2.9533428-13.4181861-10.0112131-14.574022-18.1154333l-1.0973382 1.76921-1.7196337-1.0443531 2.6576158-4.2862409.0262231.0159748c.1038841-.2246458.2813947-.4133482.522446-.5111939.3782185-.154756.8109006-.0698898 1.0983467.2156599l3.5401257 3.5044737-1.4261361 1.4117738-1.6540759-1.6374179c.9631967 7.5141507 6.0827632 14.0817941 13.3415339 16.8104911zm27.0128742-12.0290311 1.8850414.7088821c-3.0781949 8.0293384-10.5749911 13.6315042-19.0934818 14.5211014l2.0000198 1.8880227-1.3918444 1.4457202-3.6762844-3.4705272.0060515-.006989c-.0998497-.0948505-.1875964-.201682-.2430685-.3334742-.1563303-.3734111-.0695922-.8027341.2188625-1.0882838l3.5401258-3.5034753 1.4261361 1.4117737-1.6540759 1.6364195c7.5916031-.952498 14.226061-6.0215045 16.9825179-13.2091701zm-39.1632717-14.7088054-1.8850413-.7088821c3.0943321-8.0692754 10.6496262-13.6884144 19.2215718-14.5360777l-2.1593759-2.0367882 1.3928529-1.4457202 3.6762845 3.4705272-.0776609.0808725c.1492702.1058331.2723173.248608.3449353.4233325.1563304.3734111.0695922.8027341-.2188625 1.0882838l-3.5401257 3.5044737-1.4261362-1.4117737 1.6540759-1.6374179c-7.5905945.9534964-14.226061 6.0215045-16.9825179 13.2091701zm32.6558952 7.2725318c0 7.1567144-5.8820551 12.9795323-13.1115769 12.9795323s-13.1115769-5.8228179-13.1115769-12.9795323 5.8820551-12.9795323 13.1115769-12.9795323 13.1115769 5.8228179 13.1115769 12.9795323zm-28.2403195 0c0 8.2579778 6.7867539 14.9763834 15.1287426 14.9763834s15.1287426-6.7184056 15.1287426-14.9763834-6.7867539-14.9763834-15.1287426-14.9763834-15.1287426 6.7184056-15.1287426 14.9763834z" fill="#fff"/></g></svg>