<svg height="80" viewBox="0 0 80 80" width="80" xmlns="http://www.w3.org/2000/svg"><g fill="none" fill-rule="evenodd"><path d="m0 0h80v80h-80z" fill="#e7157b"/><path d="m20.137 51.603c-.979-1.673-1.743-3.467-2.271-5.33l1.924-.545c.482 1.701 1.179 3.337 2.074 4.865zm-.347-17.33-1.924-.545c.517-1.825 1.261-3.584 2.212-5.229l1.731 1.002c-.868 1.5-1.547 3.106-2.019 4.772zm11.619-13.441-.818-1.824c2.966-1.332 6.132-2.008 9.409-2.008 3.278 0 6.444.676 9.409 2.008l-.818 1.824c-2.707-1.215-5.598-1.832-8.591-1.832s-5.884.617-8.591 1.832zm28.513 7.667c.951 1.645 1.695 3.404 2.212 5.229l-1.924.545c-.471-1.666-1.15-3.272-2.018-4.772zm.288 17.229 1.924.545c-.517 1.825-1.261 3.584-2.212 5.228l-1.73-1.002c.868-1.5 1.547-3.105 2.018-4.771zm-11.619 13.441.818 1.824c-2.965 1.332-6.131 2.007-9.409 2.007-3.277 0-6.443-.675-9.409-2.007l.818-1.824c2.707 1.215 5.598 1.831 8.591 1.831s5.884-.616 8.591-1.831zm-23.591-.169c-1.654 0-3-1.345-3-3 0-1.654 1.346-3 3-3 1.655 0 3 1.346 3 3 0 1.655-1.345 3-3 3zm0-8c-2.757 0-5 2.244-5 5 0 2.757 2.243 5 5 5s5-2.243 5-5c0-2.756-2.243-5-5-5zm30 8c-1.654 0-3-1.345-3-3 0-1.654 1.346-3 3-3 1.655 0 3 1.346 3 3 0 1.655-1.345 3-3 3zm0-8c-2.757 0-5 2.244-5 5 0 2.757 2.243 5 5 5s5-2.243 5-5c0-2.756-2.243-5-5-5zm-39-11c0-1.654 1.346-3 3-3 1.655 0 3 1.346 3 3 0 1.655-1.345 3-3 3-1.654 0-3-1.345-3-3zm7.899 1h4.695l-1.299 1.291 1.41 1.418 3-2.982c.189-.187.294-.441.295-.707.001-.265-.103-.52-.291-.708l-3-3.017-1.418 1.411 1.287 1.294h-4.679c-.464-2.279-2.485-4-4.899-4-2.757 0-5 2.244-5 5 0 2.757 2.243 5 5 5 2.414 0 4.435-1.72 4.899-4zm38.101 2c-1.654 0-3-1.345-3-3 0-1.654 1.346-3 3-3 1.655 0 3 1.346 3 3 0 1.655-1.345 3-3 3zm0-8c-2.757 0-5 2.244-5 5 0 2.757 2.243 5 5 5s5-2.243 5-5c0-2.756-2.243-5-5-5zm-37-14c1.655 0 3 1.346 3 3 0 1.655-1.345 3-3 3-1.654 0-3-1.345-3-3 0-1.654 1.346-3 3-3zm0 8c2.757 0 5-2.243 5-5 0-2.756-2.243-5-5-5s-5 2.244-5 5c0 2.757 2.243 5 5 5zm30-8c1.655 0 3 1.346 3 3 0 1.655-1.345 3-3 3-1.654 0-3-1.345-3-3 0-1.654 1.346-3 3-3zm0 8c2.757 0 5-2.243 5-5 0-2.756-2.243-5-5-5s-5 2.244-5 5c0 2.757 2.243 5 5 5zm-4.6 13.201 1.599-1.201h-3.999v-2h4l-1.599-1.199 1.199-1.601 4 2.999c.252.189.4.485.4.8 0 .314-.148.611-.399.8l-4 3.001zm-4.545 3.667c-1.799-.696-3.827-1.044-5.855-1.044-2.027 0-4.055.348-5.854 1.044.681-1.743 1.047-3.745 1.047-5.868 0-2.122-.366-4.124-1.047-5.867 3.597 1.392 8.111 1.392 11.709 0-.682 1.743-1.047 3.745-1.047 5.867 0 2.123.365 4.125 1.047 5.868zm3.852 2.425c-1.815-1.815-2.899-4.915-2.899-8.293 0-3.377 1.084-6.477 2.899-8.293.196-.195.293-.451.293-.707 0-.255-.097-.511-.293-.707-.39-.39-1.023-.39-1.414 0-3.875 3.875-12.711 3.875-16.586 0-.39-.39-1.023-.39-1.414 0-.195.196-.293.452-.293.707 0 .256.098.512.293.707 1.816 1.816 2.9 4.916 2.9 8.293 0 3.378-1.084 6.478-2.9 8.293-.195.196-.293.452-.293.707 0 .256.098.512.293.707.391.391 1.024.391 1.414 0 3.875-3.875 12.711-3.875 16.586 0 .196.196.451.293.707.293s.512-.097.707-.293c.196-.195.293-.451.293-.707 0-.255-.097-.511-.293-.707z" fill="#fff"/></g></svg>