<svg height="80" viewBox="0 0 80 80" width="80" xmlns="http://www.w3.org/2000/svg"><g fill="none" fill-rule="evenodd"><path d="m0 0h80v80h-80z" fill="#c925d1"/><path d="m65.5 37.6685-11-6.351c-.309-.177-.691-.177-1 0l-11 6.351c-.31.179-.5.509-.5.866v10.047l2-1.155v-8.315l10-5.773 10 5.773v11.548l-10 5.774-6.799-3.926-2 1.155 8.299 4.791c.154.089.327.134.5.134s.346-.045.5-.134l11-6.35c.31-.179.5-.509.5-.867v-12.702c0-.357-.19-.687-.5-.866zm-42.5 2.113c0-3.584 2.916-6.5 6.5-6.5s6.5 2.916 6.5 6.5-2.916 6.5-6.5 6.5-6.5-2.916-6.5-6.5zm42-13.817h-49c-.553.317-1 .765-1 1.317v27.521c0 .358.192.69.504.868l21.276 12.162c.154.088.325.132.496.132s.343-.044.496-.132l14.056-8.034-2.004-1.158-4.215 2.409c-.293-1.961-.919-3.871-1.885-5.65l-.426-.638-1.733 1 .448.67c.945 1.746 1.523 3.691 1.714 5.694l-6.451 3.688-19.436-11.111c2.736-3.62 7.049-5.781 11.658-5.781 2.642 0 5.21.727 7.433 2.104l.344.284 1.851-1.069-.977-.801c-.033-.028-.068-.053-.104-.076-1.471-.92-3.078-1.582-4.755-1.985 2.787-1.397 4.71-4.273 4.71-7.597 0-4.686-3.813-8.5-8.5-8.5s-8.5 3.814-8.5 8.5c0 3.313 1.909 6.181 4.682 7.583-3.358.785-6.402 2.591-8.682 5.182v-24.582h47v5l2 1.155v-6.838c0-.552-.447-1-1-1.317zm-44.983-2 16.992-9.811 16.991 9.811h4l-20.491-11.831c-.309-.178-.692-.178-1 0l-20.493 11.831zm13.574 34.092-1-1.733 19.236-11.106 1 1.732z" fill="#fff"/></g></svg>