<svg height="80" viewBox="0 0 80 80" width="80" xmlns="http://www.w3.org/2000/svg"><g fill="none" fill-rule="evenodd"><path d="m0 0h80v80h-80z" fill="#dd344c"/><path d="m31.086327 9.594c-.08.182-.105.383-.071.579l.846 4.827h-7.68l.805-4.835c.033-.194.007-.392-.072-.571l-3.375-7.594h12.922zm5.753-9.139c-.185-.283-.5-.455-.839-.455h-16c-.339 0-.654.172-.839.455-.184.284-.213.642-.075.951l3.878 8.726-.95 5.704c-.049.29.033.586.223.811.19.224.469.353.763.353h4v10h2v-10h4.052c.296 0 .576-.131.765-.357.191-.226.271-.525.22-.816l-.999-5.699 3.876-8.722c.138-.309.109-.667-.075-.951zm8.011 36.325-2.44 1.17-14.41 6.94-14.41-6.94-2.44-1.17-7.68999998-3.7 7.63999998-3.11 16.47 7.93c.13.07.28.1.43.1s.3-.03.43-.1l16.47-7.93 7.64 3.11zm7.69 5.3-24.54 11.81-24.53999998-11.81 7.63999998-3.11 16.47 7.93c.13.07.28.1.43.1s.3-.03.43-.1l16.47-7.93zm3.460327-9.11c-.010327-.4-.260327-.75-.620327-.9l-8.04-3.28 8.09-3.89c.36-.17.58-.54.570327-.93-.010327-.4-.260327-.75-.620327-.9l-19.43-7.91.06.32c.1.61.01 1.22-.24 1.76l16.77 6.84-7.69 3.7-2.44 1.17-14.41 6.94-14.41-6.94-2.44-1.17-7.68999998-3.7 16.81999998-6.85c-.24-.54-.34-1.13-.24-1.72l.06-.37-19.47999998 7.93c-.36.15-.61.5-.62032702.9-.00967298.39.21032702.76.57032702.93l8.09 3.89-8.04 3.28c-.36.15-.61.5-.62032702.9-.00967298.39.21032702.76.57032702.93l8.09 3.89-8.04 3.28c-.36.15-.61.5-.62032702.9-.00967298.39.21032702.76.57032702.93l26.99999998 13c.13.07.28.1.43.1s.3-.03.43-.1l27-13c.36-.17.58-.54.570327-.93-.010327-.4-.260327-.75-.620327-.9l-8.04-3.28 8.09-3.89c.36-.17.58-.54.570327-.93z" fill="#fff" transform="translate(12 12)"/></g></svg>