<svg height="80" viewBox="0 0 80 80" width="80" xmlns="http://www.w3.org/2000/svg"><g fill="none" fill-rule="evenodd"><path d="m0 0h80v80h-80z" fill="#c925d1"/><path d="m34.5 13.9928328c10.313 0 17.5 3.1506686 17.5 5.9784984 0 2.8278297-7.187 5.9784984-17.5 5.9784984s-17.5-3.1506687-17.5-5.9784984c0-2.8278298 7.187-5.9784984 17.5-5.9784984zm-.205 53.0143344c-10.192 0-17.295-3.2194214-17.295-6.1080325v-8.6867582c3.121 2.6126038 9.472 4.32644 17.161 4.32644 1.773 0 3.557-.0986452 5.304-.29195l-.221-1.9808758c-1.674.1853335-3.385.279993-5.083.279993-9.515 0-16.331-2.8218512-17.161-5.5530285v-10.7373831c3.121 2.6126038 9.472 4.3254435 17.161 4.3254435 1.81 0 3.596-.0996416 5.308-.296932l-.229-1.978883c-1.637.1883227-3.345.2829823-5.079.2829823-9.515 0-16.331-2.8208549-17.161-5.5520322v-11.4817062c2.879 2.4581593 8.818 4.3882179 17.5 4.3882179s14.621-1.9300586 17.5-4.3882179v3.3918015h2v-6.9749148c0-3.8641028-6.834-7.9713312-19.5-7.9713312s-19.5 4.1072284-19.5 7.9713312v40.9278035c0 4.6173936 8.295 8.1008653 19.295 8.1008653 8.835 0 16.297-2.330618 18.568-5.798147l-1.676-1.0890831c-1.592 2.4322524-7.906 4.8943973-16.892 4.8943973zm23.912-24.8396644c.563 0 1.06.2241937 1.399.6327245.624.7473123.523 1.8792413.462 2.2798007.029 2.1064242 1.192 2.5179442 1.327 2.5587973.43.1295341.733.5330827.722.9814701s-.308.8369898-.745.9455992c-.113.0348746-1.305.4563587-1.305 2.6305393.023 1.1727821-.54 2.4731055-1.83 2.5119657h-.768v-1.9928328h.528c.04-.1325234.071-.3407744.07-.5051831 0-1.8184599.61-2.9354427 1.262-3.6100166-.652-.6735775-1.262-1.787571-1.262-3.599056 0-.0607814.006-.1225592.017-.1823442.038-.2142296.038-.495219.006-.6586313h-.621v-1.9928328zm-4.68 0h.769v1.9928328h-.527c-.041.1325234-.072.3407744-.071.5051831 0 1.81846-.609 2.9354428-1.261 3.6100167.652.6735774 1.261 1.787571 1.261 3.599056 0 .0617778-.006.1225592-.016.1823442-.038.2142295-.038.4952189-.006.6586312h.62v1.9928328h-.738c-.563 0-1.06-.2241937-1.4-.631728-.623-.7473123-.521-1.8792413-.461-2.2807971-.028-2.1054279-1.192-2.5179442-1.327-2.5578009-.431-.1305306-.733-.5340792-.723-.9824666.011-.4473909.309-.8369897.746-.9455991.114-.0348746 1.305-.4563587 1.305-2.6305393-.023-1.1717857.539-2.4731055 1.829-2.5119658zm10.473 16.6640679h-17v-23.9139936h11v3.9856656c0 .5500219.447.9964164 1 .9964164h5zm-4-23.9139936h.245l3.023 2.9892492h-3.268zm5.704 2.5906827-4.343-4.2945547c-.186-.1853335-.44-.2889608-.704-.2889608h-.657-.365l-3.087-3.6329341c-.191-.2241937-.47-.3527314-.764-.3527314h-13.784c-.553 0-1 .4463945-1 .9964163v25.9068264c0 .5500218.447.9964164 1 .9964164h2v-1.9928328h-1v-23.9139936h12.32l1.694 1.9928328h-11.014c-.553 0-1 .4463946-1 .9964164v25.9068264c0 .5500218.447.9964164 1 .9964164h19c.553 0 1-.4463946 1-.9964164v-21.6122717c0-.2660432-.106-.5201293-.296-.7074556z" fill="#fff"/></g></svg>