<svg height="80" viewBox="0 0 80 80" width="80" xmlns="http://www.w3.org/2000/svg"><g fill="none" fill-rule="evenodd"><path d="m0 0h80v80h-80z" fill="#c925d1"/><path d="m43.441 42.6113776c-.528.2992288-1.11.5319623-1.745.6982005-.636.1662383-1.267.2488536-1.894.2488536-1.089 0-1.914-.3022513-2.474-.9097765-.562-.6065176-.842-1.4911065-.842-2.6557816 0-1.0971723.293-1.9737012.879-2.630594.585-.6558854 1.365-.9843319 2.339-.9843319 2.441 0 3.687 1.9616111 3.737 5.8848333zm-3.688-8.2786638c-1.138 0-2.145.2538911-3.02.7606658-.874.5077822-1.547 1.1969153-2.017 2.0694141s-.705 1.8669057-.705 2.980198c0 1.6795099.466 3.0003482 1.398 3.9645299s2.199 1.4457689 3.8 1.4457689c.758 0 1.501-.111833 2.227-.3365065.726-.223666 1.386-.5359924 1.98-.9349641-.116 2.0623615-.581 3.5826857-1.399 4.5629875-.816.9823168-2.016 1.4719639-3.6 1.4719639-1.139 0-2.385-.3072888-3.738-.922874v1.8951158c1.089.7143206 2.45 1.0719847 4.084 1.0719847 2.277 0 4.034-.8392512 5.272-2.5177535 1.237-1.6795099 1.856-4.0814004 1.856-7.2066791 0-2.7101869-.524-4.7705334-1.572-6.1840621-1.048-1.4125212-2.569-2.1197893-4.566-2.1197893zm17.122 21.6522774h-33.919c-4.761-.00403-8.688-3.5061154-8.939-7.9673449-.012-.2035159-.017-.4130769-.017-.6276753 0-5.7417677 4.086-7.6691236 6.581-8.3098964.012-.002015.025-.00403.039-.0070525.511-.1047805.856-.5893901.792-1.1112774-.063-.5037522-.094-1.0216095-.094-1.5394668 0-4.6274677 3.29-9.6095771 7.49-11.3414772 5.061-2.0865416 10.419-1.046797 14.337 2.7807122 1.527 1.4911066 2.718 3.3962974 3.54 5.6611673.126.3465816.428.5954351.789.6508479.361.0533977.723-.0916829.946-.3838592 1.228-1.6210746 3.215-2.3011401 5.073-1.7298851 2.159.6649529 3.557 2.8754176 3.738 5.9140509.027.4563995.356.8372362.801.9279116 3.635.7374932 7.968 2.8240349 7.968 8.5688251 0 7.9008496-6.985 8.5144198-9.125 8.5144198zm2.284-18.8947378c-.424-3.525258-2.288-6.0984243-5.082-6.9578255-2.143-.6589079-4.399-.1692608-6.108 1.2432604-.879-1.9263484-2.029-3.5907457-3.431-4.9609517-4.506-4.4017868-10.669-5.598702-16.488-3.1988265-4.978 2.053294-8.732 7.7305813-8.732 13.2063678 0 .3072889.01.6145777.028.9198516-2.719.8775363-7.346 3.3539822-7.346 10.0478415 0 .2508686.007.4956922.02.7385007.311 5.5291843 5.113 9.8664908 10.935 9.8715283h33.92c5.378 0 11.125-2.7655996 11.125-10.5294286 0-5.3226459-3.132-8.9869394-8.841-10.380318z" fill="#fff"/></g></svg>