<svg height="80" viewBox="0 0 80 80" width="80" xmlns="http://www.w3.org/2000/svg"><g fill="none" fill-rule="evenodd"><path d="m0 0h80v80h-80z" fill="#ed7100"/><path d="m38.7880741 37.5776945c-.4946896.287818-.8024964.8223372-.8024964 1.3959675v27.7458566l-20.9868318-11.7353531v-27.2765227l23.5582184-13.6487913 20.9278687 10.3694711zm25.1322308-13.175446c0-.5746332-.3068075-1.1101552-.8604601-1.4270558l-21.7133759-10.7605828c-.495689-.2858123-1.1113027-.2868151-1.6059923.0010029l-23.9379801 13.8684155c-.4946896.287818-.8024965.8223372-.8024965 1.3959675v27.7358281c0 .5736303.3078069 1.1081495.8174871 1.4039903l21.7563489 12.1655759c.2478445.1434075.5266696.2146099.8044952.2146099.2768263 0 .5556514-.0712024.8024965-.2146099.495689-.2868152.8034959-.8213344.8034959-1.3959675v-28.1881136l23.1334848-13.403093c.495689-.2868152.8024965-.8213343.8024965-1.3959675zm.0489693 30.6450966-18.9880859 11.6140082v-10.3995566l9.9007877-6.3891587.0679574-.448274c.0179887-.1173335.0249843-.1173335.0249843-.6578698l.0309806-12.4062598 8.9943564-5.2118126zm1.22723-25.975826c-.4966884-.2898238-1.1123021-.2888209-1.6079911 0l-9.5749922 5.5467644c-.2998119.1634646-1.0053692.5475563-1.0053692 1.3398079l-.0319799 12.7592632-9.1252743 5.8887364c-.5446583.3249235-.8684551.8393856-.8684551 1.3829304v11.3191703c0 .5666104.3048087 1.0830782.8154883 1.378919.2668326.1534361.5636463.2316584.8594607.2316584.2908176 0 .5816351-.0742109.8444702-.2266441l19.6656607-12.0281854c.4946896-.287818.8004978-.8223372.8004978-1.3929589l.0319799-24.804497c0-.5736303-.3078069-1.1081495-.8034958-1.3949646z" fill="#fff"/></g></svg>