<svg height="80" viewBox="0 0 80 80" width="80" xmlns="http://www.w3.org/2000/svg"><g fill="none" fill-rule="evenodd"><path d="m0 0h80v80h-80z" fill="#dd344c"/><path d="m48 48h10v2h-10v4h10v2h-10v3h-2v-14h2zm18 5.522-1.515-.086c-.471-.034-.924.3-1.032.778-.306 1.355-.839 2.641-1.582 3.821-.261.413-.184.954.18 1.279l1.132 1.01-2.859 2.859-1.006-1.127c-.326-.367-.868-.442-1.28-.18-1.178.744-2.465 1.277-3.825 1.584-.477.108-.806.545-.777 1.033l.085 1.507h-4.042l.085-1.508c.029-.488-.3-.925-.777-1.033-1.355-.307-2.641-.84-3.822-1.586-.414-.261-.956-.186-1.28.18l-1.008 1.13-2.86-2.859 1.129-1.007c.366-.326.442-.867.181-1.28-.743-1.178-1.275-2.464-1.582-3.823-.108-.478-.571-.812-1.032-.778l-1.513.086v-4.044l1.518.086c.479.019.922-.3 1.032-.777.306-1.353.84-2.637 1.585-3.815.261-.414.184-.955-.18-1.281l-1.138-1.014 2.86-2.86 1.014 1.137c.328.364.869.439 1.28.179 1.175-.741 2.46-1.273 3.815-1.579.478-.108.807-.544.778-1.032l-.085-1.522h4.042l-.085 1.523c-.029.488.3.925.777 1.032 1.354.307 2.638.839 3.813 1.581.412.26.954.184 1.281-.179l1.016-1.14 2.86 2.86-1.135 1.012c-.364.325-.441.867-.18 1.28.743 1.176 1.277 2.46 1.583 3.818.108.477.563.796 1.032.777l1.517-.086zm1.687-5.83c-.2-.188-.47-.287-.744-.271l-1.754.1c-.291-1.005-.691-1.971-1.196-2.887l1.312-1.17c.205-.183.326-.442.334-.717.007-.275-.099-.541-.293-.736l-4.357-4.356c-.194-.195-.464-.308-.735-.293-.275.008-.534.129-.718.334l-1.175 1.316c-.915-.504-1.88-.904-2.882-1.195l.099-1.76c.016-.275-.082-.544-.271-.744s-.452-.313-.727-.313h-6.16c-.275 0-.538.113-.727.313s-.287.469-.271.744l.099 1.758c-1.003.291-1.968.69-2.884 1.194l-1.173-1.313c-.184-.205-.443-.326-.718-.334-.274-.012-.541.098-.735.293l-4.357 4.356c-.194.195-.3.461-.293.736.008.275.129.534.334.717l1.315 1.173c-.505.916-.906 1.882-1.198 2.884l-1.755-.1c-.272-.017-.545.083-.744.271-.2.189-.313.453-.313.727v6.162c0 .274.113.538.313.727.2.188.473.286.744.271l1.749-.1c.291 1.006.691 1.974 1.197 2.892l-1.307 1.165c-.206.183-.327.443-.335.717-.007.276.099.542.293.736l4.357 4.357c.194.195.458.307.735.292.275-.008.535-.128.718-.334l1.166-1.306c.919.506 1.887.907 2.891 1.199l-.099 1.746c-.016.275.082.544.271.744s.452.313.727.313h6.16c.275 0 .538-.113.727-.313s.287-.469.271-.744l-.099-1.744c1.007-.292 1.976-.693 2.894-1.199l1.163 1.304c.183.206.443.326.718.334.273.017.541-.097.735-.292l4.357-4.357c.194-.194.3-.46.293-.735-.008-.275-.129-.535-.334-.718l-1.31-1.168c.505-.918.905-1.885 1.196-2.889l1.752.1c.273.014.544-.083.744-.271.2-.189.313-.453.313-.727v-6.162c0-.274-.113-.538-.313-.727zm-35.945-11.474-7.545 7.545c-.187.188-.441.293-.707.293-.265 0-.519-.105-.707-.293l-3.771-3.772 1.414-1.414 3.064 3.065 6.838-6.838zm0-14.392-7.545 7.544c-.187.188-.441.293-.707.293-.265 0-.519-.105-.707-.293l-3.771-3.772 1.414-1.414 3.064 3.065 6.838-6.837zm-1.886 30.529-3.537 3.537 3.537 3.537-1.414 1.414-3.537-3.537-3.537 3.537-1.414-1.414 3.537-3.537-3.537-3.537 1.414-1.414 3.537 3.537 3.537-3.537zm15.144-36.696 5.973 5.341h-5.973zm-31-1.659h29v8c0 .552.447 1 1 1h8v10h2v-11.529c0-.285-.121-.556-.333-.746l-9.474-8.471c-.183-.163-.421-.254-.667-.254h-30.526c-.553 0-1 .448-1 1v54c0 .552.447 1 1 1h25v-2h-24z" fill="#fff"/></g></svg>