<svg height="80" viewBox="0 0 80 80" width="80" xmlns="http://www.w3.org/2000/svg"><g fill="none" fill-rule="evenodd"><path d="m0 0h80v80h-80z" fill="#7aa116"/><path d="m57.9998228 48.912-4.7979702-2.056 1.4789908-.878c.7729952.629 1.7469892 1.022 2.8189825 1.022 1.2079926 0 2.3019858-.484 3.1099808-1.262l2.1069869 1.153zm-.4999969-8.912c1.3789915 0 2.4999845 1.121 2.4999845 2.5 0 1.378-1.120993 2.5-2.4999845 2.5-1.3789914 0-2.4999845-1.122-2.4999845-2.5 0-1.379 1.1209931-2.5 2.4999845-2.5zm-17.4998915-4c-3.8589761 0-6.9999566-3.14-6.9999566-7s3.1409805-7 6.9999566-7 6.9999566 3.14 6.9999566 7-3.1409805 7-6.9999566 7zm2.9999814 15c0 1.654-1.3459917 3-2.9999814 3s-2.9999814-1.346-2.9999814-3 1.3459917-3 2.9999814-3 2.9999814 1.346 2.9999814 3zm-2.9999814 7.848-4.8819697-2.79 1.9899876-.994c.8189949.584 1.8129888.936 2.8919821.936s2.0729872-.352 2.8919821-.936l1.9899876.994zm-17.9008891-9.936-4.7799703-2.018 2.1069869-1.126c.804995.758 1.8829883 1.232 3.073981 1.232 1.0839932 0 2.0649872-.401 2.8429823-1.041l1.4829908.896zm.4009976-8.912c1.3789914 0 2.4999845 1.121 2.4999845 2.5 0 1.378-1.1209931 2.5-2.4999845 2.5-1.3789915 0-2.4999845-1.122-2.4999845-2.5 0-1.379 1.120993-2.5 2.4999845-2.5zm42.9797336 6.122-3.7739766-2.065c.1809989-.487.2939982-1.008.2939982-1.557 0-2.482-2.0189875-4.5-4.4999722-4.5-.8979944 0-1.7319892.271-2.4369849.727l-6.8739574-6.015c.5159968-1.133.810995-2.388.810995-3.712 0-4.963-4.036975-9-8.9999442-9s-8.9999344 4.037-8.9999344 9c0 1.324.2949884 2.579.8109852 3.712l-6.8739574 6.015c-.7049957-.456-1.5389905-.727-2.4369849-.727-2.4809847 0-4.4999722 2.018-4.4999722 4.5 0 .564.1159993 1.1.3069981 1.599l-3.7789765 2.019c-.3399979.182-.5449967.543-.5269968.927.0179999.386.2549985.726.6099963.876l7.1049559 3c.1239993.053.2569984.079.3879976.079.1359992 0 .2719983-.028.3999975-.083l6.8949573-3c.3429979-.15.5739964-.478.5989963-.851.0239998-.373-.160999-.729-.479997-.922l-2.9369818-1.774c.2629983-.572.4189974-1.201.4189974-1.87 0-.858-.2539985-1.651-.6719959-2.334l6.5289596-5.712c1.454991 1.9 3.6429774 3.209 6.1429619 3.487v8.16c-2.2789859.465-3.9999752 2.484-3.9999752 4.899 0 .926.2699983 1.782.7099956 2.527l-3.1569804 1.578c-.329998.165-.5419967.498-.5529966.867-.01.369.1839988.713.5039969.896l6.9999566 4c.152999.088.324998.132.4959969.132s.3429979-.044.4959969-.132l6.9999566-4c.3199981-.183.5139969-.527.5039969-.896-.0109999-.369-.2229986-.702-.5529966-.867l-3.1569804-1.578c.4399973-.745.7099956-1.601.7099956-2.527 0-2.415-1.7209893-4.434-3.9999752-4.899v-8.16c2.4999845-.278 4.6879709-1.587 6.1429619-3.487l6.5289596 5.712c-.4179974.683-.6719959 1.476-.6719959 2.334 0 .679.161999 1.316.4319974 1.893l-2.9429818 1.747c-.322998.192-.5109968.55-.486997.925.0239999.376.2579984.706.6039963.854l6.9999566 3c.1249992.054.2599984.081.3939975.081.1339992 0 .2689984-.027.3939976-.081l6.9999566-3c.3519978-.151.5859964-.489.6049963-.871.0189998-.383-.1839989-.741-.5189968-.926z" fill="#fff"/></g></svg>