<svg height="80" viewBox="0 0 80 80" width="80" xmlns="http://www.w3.org/2000/svg"><g fill="none" fill-rule="evenodd"><path d="m0 0h80v80h-80z" fill="#7aa116"/><path d="m63.588 39.998-.743-.666-6.586 6.398c-.051-.004-.099-.015-.15-.015-1.037 0-1.879.843-1.879 1.879s.842 1.879 1.879 1.879c1.036 0 1.879-.843 1.879-1.879 0-.122-.013-.241-.036-.356zm-4.636.958.742-1.858c-1.145-.457-2.351-.689-3.585-.689-5.465 0-9.911 4.515-9.911 10.064h2c0-4.447 3.549-8.064 7.911-8.064.979 0 1.935.184 2.843.547zm5.204 1.68-1.632 1.155c.978 1.382 1.495 3.001 1.495 4.682h2c0-2.097-.644-4.115-1.863-5.837zm-27.724 5.837h2.084l3.476-5.077-.938-1.325zm12.552-14.707h-2.055l-3.933 5.613-1.052 1.458 2.992 4.286c.154-.723.4-1.418.718-2.08l-1.646-2.341zm-6.861 4.368-3.059-4.368h-2.169l4.133 5.826zm-10.124 1.132-2.769-1.061c-.915-.345-1.619-.668-2.11-.971-.492-.301-.845-.638-1.061-1.009s-.324-.858-.324-1.462c0-1.07.354-1.894 1.061-2.472.708-.578 1.726-.867 3.055-.867 1.362 0 2.925.31 4.684.931v-1.319c-.742-.328-1.531-.583-2.368-.764s-1.635-.272-2.394-.272c-1.674 0-3.025.445-4.051 1.333-1.027.889-1.54 2.049-1.54 3.481 0 1.053.311 1.937.932 2.653.621.717 1.596 1.333 2.924 1.851l3.003 1.165c1.035.397 1.786.846 2.252 1.346.466.501.698 1.104.698 1.812 0 1.156-.426 2.07-1.281 2.743-.853.673-1.997 1.01-3.429 1.01-1.518 0-3.183-.328-4.996-.984v1.32c1.502.725 3.21 1.087 5.125 1.087 1.847 0 3.335-.474 4.465-1.423s1.695-2.191 1.695-3.728c0-1.052-.284-1.928-.854-2.626-.568-.7-1.475-1.291-2.717-1.774zm-18.999-8.826h10.068v1.372h-8.541v6.859h7.221v1.372h-7.221v8.334h-1.527z" fill="#fff"/></g></svg>