<svg height="80" viewBox="0 0 80 80" width="80" xmlns="http://www.w3.org/2000/svg"><g fill="none" fill-rule="evenodd"><path d="m0 0h80v80h-80z" fill="#dd344c"/><path d="m26.72 27.0951612c2.072.476 4.651 1.329 7.328 2.215 3.563 1.18 7.246 2.399 8.954 2.399s5.391-1.219 8.952-2.399c2.677-.886 5.255-1.739 7.327-2.215l-3.408-2.275c-2.266.856-10.47 3.889-12.871 3.889-2.4 0-10.607-3.033-12.875-3.889zm4.728-3.916c4.151 1.551 9.98 3.53 11.554 3.53 1.572 0 7.385-1.974 11.533-3.523l-5.171-8.839c-.2-.318-.657-.429-1.003-.219l-3.945 2.366c-.873.523-1.955.523-2.828 0l-3.944-2.366c-.364-.22-.849-.113-1.101.029zm21.392 7.945c-.085.028-.171.056-.257.085-3.883 1.285-7.551 2.5-9.581 2.5s-5.698-1.215-9.583-2.5c-.086-.029-.173-.057-.259-.086.906 4.819 5.861 12.586 9.842 12.586 3.98 0 8.933-7.766 9.838-12.585zm-29.797-3.125c-.128-.422.035-.877.402-1.122l5.807-3.878 5.655-10.01c.054-.098.126-.185.209-.258.802-.708 2.323-1.061 3.557-.318l3.944 2.366c.237.143.534.142.77 0l3.944-2.366c1.276-.765 2.956-.361 3.743.9l5.667 9.681 5.815 3.883c.366.245.529.7.401 1.122s-.516.71-.957.71c-1.467 0-4.152.786-7.036 1.719-.494 5.694-6.555 15.281-11.962 15.281-5.41 0-11.471-9.588-11.966-15.281-2.883-.933-5.57-1.719-7.036-1.719-.44 0-.829-.288-.957-.71zm35.612 19.589 1.088-1.21c.185-.205.277-.476.254-.751-.022-.274-.157-.527-.372-.699l-5-4-1.25 1.562 4.173 3.337-8.291 9.213c-.187.208-.279.487-.252.766s.171.534.396.703l3.196 2.398-5.395 7.136 1.596 1.206 6-7.937c.16-.212.23-.48.193-.743-.038-.263-.178-.501-.391-.66l-3.125-2.344 5.553-6.17c4.385.094 8.972 4.828 8.972 9.314v9h2v-9c0-5.01-4.471-10.09-9.345-11.121zm-20.805 15.806-5.922-5.949c-.539.726-1.163 1.383-1.867 1.948l5.895 5.892c.497.498 1.327.478 1.849-.044.52-.521.541-1.349.045-1.847zm-14.35-3.685c4.687 0 8.5-3.813 8.5-8.5s-3.813-8.5-8.5-8.5c-4.686 0-8.5 3.813-8.5 8.5s3.814 8.5 8.5 8.5zm15.768 2.274c1.271 1.278 1.25 3.373-.049 4.672-.658.659-1.521.99-2.379.99-.837 0-1.667-.314-2.298-.945l-6.191-6.188c-1.452.761-3.101 1.197-4.851 1.197-5.79 0-10.5-4.711-10.5-10.5 0-5.79 4.71-10.5 10.5-10.5s10.5 4.71 10.5 10.5c0 1.598-.369 3.109-1.011 4.467zm9.024-14.989-5.29 5.3-5.295-5.3-1.414 1.413 6.002 6.008c.188.188.442.294.707.294.266 0 .521-.106.708-.294l5.998-6.008zm9.708 20.715h2v-7h-2z" fill="#fff"/></g></svg>