<svg height="80" viewBox="0 0 80 80" width="80" xmlns="http://www.w3.org/2000/svg"><g fill="none" fill-rule="evenodd"><path d="m0 0h80v80h-80z" fill="#8c4fff"/><path d="m32.70725 21.70725-1.414-1.414 8-8c.391-.391 1.023-.391 1.414 0l8 8-1.414 1.414-7.293-7.293zm35 19-8 8-1.414-1.414 7.293-7.293-7.293-7.293 1.414-1.414 8 8c.391.391.391 1.023 0 1.414zm-20.414 17.586 1.414 1.414-8 8c-.195.195-.451.293-.707.293s-.512-.098-.707-.293l-8-8 1.414-1.414 7.293 7.293zm-25.586-11-1.414 1.414-8-8c-.391-.391-.391-1.023 0-1.414l8-8 1.414 1.414-7.293 7.293zm31.793 9.707c-1.93 0-3.5-1.57-3.5-3.5s1.57-3.5 3.5-3.5 3.5 1.57 3.5 3.5-1.57 3.5-3.5 3.5zm-4.893-6h-17.214c-.527-1.027-1.366-1.866-2.393-2.393v-17.214c1.027-.527 1.866-1.366 2.393-2.393h17.214c.527 1.027 1.366 1.866 2.393 2.393v17.214c-1.027.527-1.866 1.366-2.393 2.393zm-22.107 6c-1.93 0-3.5-1.57-3.5-3.5s1.57-3.5 3.5-3.5 3.5 1.57 3.5 3.5-1.57 3.5-3.5 3.5zm-3.5-30.5c0-1.93 1.57-3.5 3.5-3.5s3.5 1.57 3.5 3.5-1.57 3.5-3.5 3.5-3.5-1.57-3.5-3.5zm30.5-3.5c1.93 0 3.5 1.57 3.5 3.5s-1.57 3.5-3.5 3.5-3.5-1.57-3.5-3.5 1.57-3.5 3.5-3.5zm0 25c-.169 0-.335.01-.5.025v-16.05c.165.015.331.025.5.025 3.032 0 5.5-2.467 5.5-5.5s-2.468-5.5-5.5-5.5-5.5 2.467-5.5 5.5c0 .169.01.335.025.5h-16.05c.015-.165.025-.331.025-.5 0-3.033-2.468-5.5-5.5-5.5s-5.5 2.467-5.5 5.5 2.468 5.5 5.5 5.5c.169 0 .335-.01.5-.025v16.05c-.165-.015-.331-.025-.5-.025-3.032 0-5.5 2.467-5.5 5.5s2.468 5.5 5.5 5.5 5.5-2.467 5.5-5.5c0-.169-.01-.335-.025-.5h16.05c-.015.165-.025.331-.025.5 0 3.033 2.468 5.5 5.5 5.5s5.5-2.467 5.5-5.5-2.468-5.5-5.5-5.5z" fill="#fff"/></g></svg>