<svg height="80" viewBox="0 0 80 80" width="80" xmlns="http://www.w3.org/2000/svg"><g fill="none" fill-rule="evenodd"><path d="m0 0h80v80h-80z" fill="#01a88d"/><path d="m28.1073651 24.142c-.797.5-1.586.992-2.362 1.476-3.621 2.254-7.042 4.385-9.588 6.438-3.179 2.562-4.545 5.899-4.063 9.919.368 3.057 2.82 5.978 7.494 8.929l1.069-1.692c-2.259-1.426-3.924-2.833-5.028-4.212h12.372v-2h-13.572c-.168-.424-.298-.847-.348-1.264-.402-3.336.688-5.993 3.332-8.124 2.451-1.976 5.821-4.075 9.389-6.297.779-.485 1.571-.978 2.369-1.48 2.736-1.718 7.828-4.918 7.828-10.835v-3h-2v3c0 .346-.029.676-.07 1h-20.927v-4h-2v3.986c-.064 4.395 3.781 7.052 6.87 9.187l.314.217 1.139-1.644-.317-.218c-2.229-1.542-4.686-3.247-5.616-5.528h20.001c-1.155 2.708-3.784 4.569-6.286 6.142zm14.894 28.858h25v-2h-25zm0-24h25v-2h-25zm0 16h13v-2h-13zm-28.395 17h19.947c-.93-2.28-3.387-3.985-5.617-5.527l-.316-.219 1.138-1.643.315.217c3.089 2.135 6.933 4.792 6.87 9.187v3.985h-2v-4h-20.873c-.041.324-.069.655-.069 1v3h-2v-3c0-5.915 5.091-9.115 7.827-10.835.799-.502 1.591-.995 2.369-1.479 3.568-2.222 6.938-4.321 9.389-6.297 2.644-2.131 3.734-4.789 3.333-8.124-.051-.418-.181-.84-.348-1.265h-11.57v-2h10.369c-1.104-1.378-2.769-2.785-5.028-4.212l1.069-1.691c3.112 1.965 5.217 3.917 6.399 5.903h27.191v2h-26.308c.094.341.17.682.212 1.026.482 4.02-.884 7.357-4.063 9.919-2.546 2.053-5.966 4.183-9.588 6.438-.776.484-1.565.975-2.362 1.476-2.502 1.573-5.13 3.434-6.286 6.141z" fill="#fff"/></g></svg>