<svg height="80" viewBox="0 0 80 80" width="80" xmlns="http://www.w3.org/2000/svg"><g fill="none" fill-rule="evenodd"><path d="m0 0h80v80h-80z" fill="#7aa116"/><path d="m50.91 16.3294285c-1.338-.818-2.897-1.457-4.383-1.802-.43-3.369-2.28-5.84199997-5.035-6.67699997-2.107-.639-4.336-.177-6.022 1.177-.867-1.853-2-3.454-3.382-4.773-4.443-4.243-10.521-5.394-16.255-3.084-4.914 1.981-8.62 7.463-8.62 12.75099997 0 .287.009.575.026.863-2.687.85-7.239 3.245-7.239 9.703 0 5.851 2.721 8.355 4.343 9.327 1.403.841 2.934 1.25 4.681 1.25h2.034v-2h-2.034c-1.831 0-2.962-.551-3.654-.966-1.537-.921-3.37-2.989-3.37-7.611 0-5.53 4.047-7.373 6.498-7.982.467-.088.814-.498.814-.984 0-.05-.004-.1-.01-.15-.06-.479-.089-.967-.089-1.45 0-4.44399997 3.236-9.23099997 7.368-10.89699997 4.984-2.008 10.267-1.009 14.126 2.677 1.502 1.434 2.674 3.265 3.481 5.44199997.126.34.427.586.786.641.365.055.719-.089.942-.375 1.207-1.55399997 3.168-2.19999997 4.996-1.64499997 2.078.62999997 3.446 2.66299997 3.677 5.44899997-.079.539.288 1.043.828 1.132 1.463.239 3.085.855 4.448 1.69 3.729 2.281 4.159 4.652 4.159 6.236 0 8.518-7.691 8.786-8 8.793h-2v2h2.017c.099-.002 9.983-.286 9.983-10.793 0-3.237-1.673-5.836-5.114-7.942zm-11.886 5.577c0-1.015-.826-1.842-1.842-1.842h-1.158v-3h-2v3h-3v-3h-2v3h-3v-3h-2v3h-3v-3h-2v3h-1.156c-1.017 0-1.844.827-1.844 1.843v1.157h-3v2h3v3h-3v2h3v3h-3v2h3v3h-3v2h3v1.158c0 1.015.826 1.842 1.842 1.842h3.158v-2h-3v-1-2-3-2-3-2-3-2-1h19v19h-8v2h8.157c1.016 0 1.843-.827 1.843-1.843v-1.157h3v-2h-3v-3h3v-2h-3v-3h3v-2h-3v-3h3v-2h-3zm-5 29.158h2v-7h-2zm-5 4h2v-8h-2zm-5-3h2v-14h-2zm-5 4h2v-10h-2z" fill="#fff" transform="translate(12 11.95)"/></g></svg>