<svg height="80" viewBox="0 0 80 80" width="80" xmlns="http://www.w3.org/2000/svg"><g fill="none" fill-rule="evenodd"><path d="m0 0h80v80h-80z" fill="#e7157b"/><path d="m13 42.9974161h2v-1.9998218h-2zm34.954-17.2964587c-.129-.415963-.514-.7009376-.951-.7019375h-.003c-.435 0-.821.2819749-.953.6969379l-6.284 19.75124-5.882-10.9230266c-.173-.3199715-.505-.5209536-.868-.5259532h-.013c-.358 0-.69.1919829-.868.5039551l-3.712 6.4954212h-11.42v1.9998218h12c.359 0 .691-.1919829.868-.5039551l3.106-5.4345157 6.145 11.4119831c.176.325971.516.5259531.881.5259531.031 0 .062-.0009999.093-.0039996.4-.0369967.738-.3099724.86-.6919384l6.039-18.976309 4.054 12.9718441c.13.4169628.517.7009375.954.7009375h15v-1.9998218h-14.264zm-7.951 37.6656437-14.397-18.5813443-1.58 1.2248909 15.184 19.5982536c.189.2449782.46.4229623.79.3869656.308 0 .599-.1419874.788-.3839658l15.293-19.5992536-1.576-1.2298904zm-25.286-29.2873903c-1.151-2.1148116-1.717-4.2376224-1.717-6.3704323 0-7.5593265 6.299-13.7087785 14.04-13.7087785 6.191 0 10.976 2.7997505 12.96 7.2003584 1.985-4.4006079 6.77-7.2003584 12.96-7.2003584 7.742 0 14.04 6.149452 14.04 13.7087785 0 2.0898137-.549 4.1846271-1.633 6.2244453-.318.6009465-.702 1.2028928-1.172 1.8348365l-.881 1.0429071-2.571 2.8557455-1.486-1.3378808 3.373-3.8046609c.369-.4989556.699-1.0149096.969-1.526864.931-1.750844 1.401-3.5286856 1.401-5.2885287 0-6.4564247-5.401-11.7089567-12.04-11.7089567-5.953 0-11.96 3.0927244-11.96 9.999109 0 .5529507-.447.9999109-1 .9999109-.552 0-1-.4469602-1-.9999109 0-6.9063846-6.007-9.999109-11.96-9.999109-6.638 0-12.04 5.252532-12.04 11.7089567 0 1.7958399.485 3.5966795 1.439 5.3545228l3.404 5.3155264-1.685 1.0779039z" fill="#fff"/></g></svg>