<svg height="80" viewBox="0 0 80 80" width="80" xmlns="http://www.w3.org/2000/svg"><g fill="none" fill-rule="evenodd"><path d="m0 0h80v80h-80z" fill="#7aa116"/><path d="m36 19h8v-2h-8zm19 19v-8h-29v12h18v2h-19c-.553 0-1-.447-1-1v-14c0-.552.447-1 1-1h31c.553 0 1 .448 1 1v9zm-37.072 17h22.047v2h-22.047c-3.269 0-5.928-2.76-5.928-6.153v-31.693c0-3.393 2.659-6.154 5.928-6.154h44.144c3.269 0 5.928 2.761 5.928 6.154v23.846h-2v-23.846c0-2.29-1.762-4.154-3.928-4.154h-44.144c-2.166 0-3.928 1.864-3.928 4.154v31.693c0 2.29 1.762 4.153 3.928 4.153zm1.567-5h20.505v2h-20.505c-1.927 0-3.495-1.561-3.495-3.48v-28.039c0-1.919 1.568-3.481 3.495-3.481h11.505c.459 0 .858.313.97.758l.811 3.242h14.438l.811-3.242c.112-.445.511-.758.97-.758h11.505c1.927 0 3.495 1.562 3.495 3.481v18.519h-2v-18.519c0-.816-.671-1.481-1.495-1.481h-10.724l-.811 3.243c-.112.445-.511.757-.97.757h-16c-.459 0-.858-.312-.97-.757l-.811-3.243h-10.724c-.824 0-1.495.665-1.495 1.481v28.039c0 .816.671 1.48 1.495 1.48zm36.219 7.387c-2.025 0-3.672-1.648-3.672-3.673s1.647-3.672 3.672-3.672c2.024 0 3.672 1.647 3.672 3.672s-1.648 3.673-3.672 3.673zm0-9.345c-3.128 0-5.672 2.545-5.672 5.672 0 3.128 2.544 5.673 5.672 5.673s5.672-2.545 5.672-5.673c0-3.127-2.544-5.672-5.672-5.672zm10.681 6.935-.882-.05c-.463-.019-.925.301-1.033.779-.223.993-.613 1.936-1.159 2.801-.26.413-.184.954.18 1.28l.658.587-1.786 1.786-.584-.655c-.326-.367-.868-.442-1.28-.18-.864.547-1.808.937-2.804 1.162-.477.107-.807.544-.778 1.033l.05.875h-2.526l.05-.876c.028-.489-.301-.925-.777-1.033-.995-.225-1.937-.616-2.803-1.163-.413-.262-.955-.187-1.28.179l-.586.658-1.785-1.786.656-.585c.364-.326.44-.867.179-1.28-.545-.864-.935-1.807-1.16-2.803-.107-.478-.585-.802-1.032-.779l-.88.05v-2.525l.884.05c.468.021.924-.301 1.032-.777.225-.993.616-1.934 1.162-2.798.261-.414.185-.955-.179-1.281l-.663-.591 1.786-1.786.591.662c.326.364.867.44 1.279.18.862-.544 1.804-.934 2.799-1.158.476-.108.805-.545.777-1.033l-.05-.886h2.526l-.05.888c-.029.488.301.924.777 1.032.992.224 1.934.614 2.796 1.159.412.26.953.184 1.28-.18l.593-.664 1.786 1.786-.661.59c-.364.325-.44.867-.179 1.28.544.862.935 1.803 1.16 2.799.108.477.565.799 1.033.778l.883-.05zm1.686-4.311c-.199-.188-.464-.288-.743-.271l-1.128.064c-.199-.645-.458-1.268-.773-1.864l.843-.752c.205-.183.326-.443.334-.718s-.098-.541-.293-.735l-3.282-3.284c-.195-.195-.454-.31-.735-.292-.275.008-.534.128-.718.333l-.756.848c-.597-.315-1.218-.573-1.86-.772l.063-1.132c.016-.275-.082-.544-.271-.744s-.451-.313-.727-.313h-4.642c-.276 0-.539.113-.727.314-.189.199-.287.468-.271.743l.063 1.131c-.644.199-1.266.457-1.861.771l-.755-.846c-.184-.205-.444-.325-.718-.333-.257-.015-.541.098-.735.292l-3.283 3.284c-.194.194-.3.46-.293.735.008.275.129.535.334.718l.845.754c-.314.596-.573 1.219-.773 1.862l-1.129-.064c-.278-.018-.545.083-.743.271-.201.189-.314.452-.314.727v4.643c0 .275.113.538.314.727.198.189.466.285.743.271l1.124-.064c.199.646.458 1.27.773 1.868l-.84.748c-.205.184-.326.443-.334.718-.007.275.099.541.293.736l3.283 3.282c.194.195.475.304.735.293.275-.008.534-.129.718-.334l.749-.84c.598.317 1.222.576 1.867.775l-.063 1.122c-.016.275.082.544.271.744.188.2.451.313.727.313h4.642c.276 0 .538-.113.727-.313s.287-.469.271-.744l-.063-1.12c.645-.2 1.27-.459 1.869-.775l.747.838c.183.205.442.326.718.334.284.013.542-.098.735-.293l3.282-3.282c.195-.195.301-.461.293-.736s-.129-.534-.334-.718l-.841-.75c.316-.598.574-1.222.773-1.866l1.126.064c.278.013.544-.083.743-.271.2-.189.314-.452.314-.727v-4.643c0-.275-.114-.538-.314-.727z" fill="#fff"/></g></svg>