<svg height="80" viewBox="0 0 80 80" width="80" xmlns="http://www.w3.org/2000/svg"><g fill="none" fill-rule="evenodd"><path d="m0 0h80v80h-80z" fill="#01a88d"/><path d="m50 59h6v-30h-6zm-2 2h10v-34h-10zm-13-2h6v-22h-6zm-2 2h10v-26h-10zm-13-2h6v-13h-6zm-2 2h10v-17h-10zm44-46v2h2.281l-5.99 5h-10.833c-.362 0-.696.196-.873.512l-4.19 7.488h-10.706c-.415 0-.787.257-.934.645l-3.173 8.355h-9.582v2h10.272c.415 0 .788-.257.935-.645l3.173-8.355h10.6c.363 0 .697-.196.874-.512l4.19-7.488h10.609c.235 0 .461-.082.641-.232l6.706-5.598v2.83h2v-6zm1 11h2v40h-8-45v-50h43v2h-41v46h43 6z" fill="#fff"/></g></svg>