<svg height="80" viewBox="0 0 80 80" width="80" xmlns="http://www.w3.org/2000/svg"><g fill="none" fill-rule="evenodd"><path d="m0 0h80v80h-80z" fill="#dd344c"/><path d="m41 23.378051v14.609h2v-15.314c0-.422-.266-.799-.664-.941l-12-4.286c-.217-.077-.455-.077-.672 0l-12 4.286c-.398.142-.664.519-.664.941v18.857c0 3.014 3.081 11.286 13 11.286v-2c-9.088 0-11-7.758-11-9.286v-18.152l10-3.571v22.18h2v-22.18zm22.248 37.813h-2c0 2.648-2.154 4.802-4.802 4.802-2.647 0-4.801-2.154-4.801-4.802h-2c0 2.648-2.155 4.802-4.802 4.802-2.649 0-4.803-2.154-4.803-4.802h-2c0 2.648-2.154 4.802-4.802 4.802v2c2.452 0 4.605-1.303 5.802-3.255 1.197 1.952 3.351 3.255 5.803 3.255 2.451 0 4.604-1.304 5.802-3.255 1.197 1.951 3.35 3.255 5.801 3.255 2.452 0 4.605-1.303 5.802-3.255 1.197 1.952 3.351 3.255 5.803 3.255v-2c-2.649 0-4.803-2.154-4.803-4.802zm0-9.787h-2c0 2.648-2.154 4.803-4.802 4.803-2.647 0-4.801-2.155-4.801-4.803h-2c0 2.648-2.155 4.803-4.802 4.803-2.649 0-4.803-2.155-4.803-4.803h-2c0 2.648-2.154 4.803-4.802 4.803v2c2.452 0 4.605-1.305 5.802-3.255 1.197 1.95 3.351 3.255 5.803 3.255 2.451 0 4.604-1.305 5.802-3.255 1.197 1.95 3.35 3.255 5.801 3.255 2.452 0 4.605-1.305 5.802-3.255 1.197 1.95 3.351 3.255 5.803 3.255v-2c-2.649 0-4.803-2.155-4.803-4.803zm0-9.919h-2c0 2.648-2.154 4.802-4.802 4.802-2.647 0-4.801-2.154-4.801-4.802h-2c0 2.648-2.155 4.802-4.802 4.802-2.649 0-4.803-2.154-4.803-4.802h-2c0 2.648-2.154 4.802-4.802 4.802v2c2.452 0 4.605-1.304 5.802-3.255 1.197 1.951 3.351 3.255 5.803 3.255 2.451 0 4.604-1.304 5.802-3.255 1.197 1.951 3.35 3.255 5.801 3.255 2.452 0 4.605-1.304 5.802-3.255 1.197 1.951 3.351 3.255 5.803 3.255v-2c-2.649 0-4.803-2.154-4.803-4.802zm-32.732 14.72v2c-9.029 0-13.534-4.525-15.724-8.32-2.714-4.704-2.792-9.647-2.792-10.195v-20.018c0-.415.256-.787.644-.935l17.515-6.672c.237-.089.498-.087.732.008l16.484 6.672c.378.153.625.52.625.927v18.315h-2v-17.641l-15.495-6.272-16.505 6.287v19.329c0 .674.188 16.515 16.516 16.515z" fill="#fff"/></g></svg>