<svg height="80" viewBox="0 0 80 80" width="80" xmlns="http://www.w3.org/2000/svg"><g fill="none" fill-rule="evenodd"><path d="m0 0h80v80h-80z" fill="#8c4fff"/><path d="m44.26 51.33c-4.417 0-8.01-3.593-8.01-8.009 0-4.417 3.593-8.01 8.01-8.01s8.01 3.593 8.01 8.01c0 4.416-3.593 8.009-8.01 8.009zm0-18.019c-5.52 0-10.01 4.49-10.01 10.01 0 5.519 4.49 10.009 10.01 10.009s10.01-4.49 10.01-10.009c0-5.52-4.49-10.01-10.01-10.01zm20.288 28.035c-.651.721-1.771.781-2.496.131l-8.34-7.523c.881-.784 1.672-1.664 2.337-2.641l8.367 7.538c.723.652.781 1.773.132 2.495zm-32.537-18.025c0-6.755 5.495-12.25 12.249-12.25s12.249 5.495 12.249 12.25c0 6.754-5.495 12.249-12.249 12.249s-12.249-5.495-12.249-12.249zm25.052 6.214c.917-1.881 1.446-3.985 1.446-6.214 0-7.858-6.392-14.25-14.249-14.25s-14.249 6.392-14.249 14.25c0 7.857 6.392 14.249 14.249 14.249 2.899 0 5.596-.875 7.849-2.368l8.605 7.762c.718.645 1.619.963 2.518.9620024 1.031 0 2.058-.4180024 2.802-1.2410024 1.386-1.542 1.262-3.928-.278-5.319zm9.937-29.535v34h-2v-33h-8v11h-2v-12c0-.552.448-1 1-1h10c.553 0 1 .448 1 1zm-16 41h2v5c0 .553-.447 1-1 1h-10c-.553 0-1-.447-1-1v-6h2v5h8zm-8-35h-2v-12c0-.552.447-1 1-1h10c.553 0 1 .448 1 1v14h-2v-13h-8zm-6 33h2v7c0 .553-.447 1-1 1h-10c-.552 0-1-.447-1-1v-15h2v14h8zm-8-23h-2v-13c0-.552.448-1 1-1h10c.553 0 1 .448 1 1v4h-2v-3h-8zm-14 29h8v-34h-8zm9-36h-10c-.552 0-1 .448-1 1v36c0 .553.448 1 1 1h10c.553 0 1-.447 1-1v-36c0-.552-.447-1-1-1z" fill="#fff"/></g></svg>