<svg height="80" viewBox="0 0 80 80" width="80" xmlns="http://www.w3.org/2000/svg"><g fill="none" fill-rule="evenodd"><path d="m0 0h80v80h-80z" fill="#ed7100"/><path d="m66 47.2832214h-10v-4.0343299h-5v4.0343299h-10v-4.0343299h-5v4.0343299h-10v-10.0858247h9.564c.167.1472531.333.3076177.436.4286476v4.6142647h5v-4.9077622c0-.0494206.001-.0937982.002-.1351501h9.998v5.0429123h5v-5.0429123h10zm.121-12.1029896h-10.242c-1.036 0-1.879.850235-1.879 1.8951264v3.1477859h-1v-2.6434946c.085-.219871.115-.4609222.086-.702982-.094-.7685398-.761-1.3353632-.964-1.4896763l-.268-.2067594h-11.567c-.48 0-1.287.2793773-1.287 2.152315v2.8905973h-1v-3.1084511l-.089-.1976822c-.296-.6606215-1.135-1.3383889-1.385-1.5300196l-.267-.2067594h-10.38c-1.036 0-1.879.850235-1.879 1.8951264v10.3299017c0 1.0448914.843 1.8951264 1.879 1.8951264h10.242c1.036 0 1.879-.850235 1.879-1.8951264v-2.1392035h1v2.3832804c0 1.3061143.842 1.6510495 1.287 1.6510495h11.23c.718 0 1.483-.5789263 1.483-1.6510495v-2.3832804h1.001l.001 2.3157054c-.055.8219947.606 1.5058136 1.646 1.7014786l10.473.0171459c1.036 0 1.879-.850235 1.879-1.8951264v-10.3299017c0-1.0448914-.843-1.8951264-1.879-1.8951264zm-3.121 5.0419037.002 4.0353385-4.002.0010086-.001-4.0353385zm-4.001 6.0525034h4.002c1.103 0 1.999-.9046985 1.999-2.0161563v-4.0363471c0-1.1114578-.896-2.0161563-1.999-2.0161563h-4.002c-1.103 0-1.999.9046985-1.999 2.0161563v4.0363471c0 1.1114578.896 2.0161563 1.999 2.0161563zm-10.999-2.0333022c0 .0090772-.007.0161373-.016.0161373l-3.984-.0161373.016-4.0181926 3.984.0161373zm-.016-6.0353575h-3.968c-1.112 0-2.016.9117585-2.016 2.0333022v4.0020553c0 1.1215437.904 2.0333022 2.016 2.0333022h3.968c1.112 0 2.016-.9117585 2.016-2.0333022v-4.0020553c0-1.1215437-.904-2.0333022-2.016-2.0333022zm-18.984 6.0525034-.001-4.0353385 4.001-.0010086.002 4.0353385zm4.001-6.0525034h-4.002c-1.103 0-1.999.9046985-1.999 2.0161563v4.0363471c0 1.1114578.896 2.0161563 1.999 2.0161563h4.002c1.103 0 1.999-.9046985 1.999-2.0161563v-4.0363471c0-1.1114578-.896-2.0161563-1.999-2.0161563zm-3.001-22.1888143c9.429 0 16 2.922872 16 5.5472036s-6.571 5.5472036-16 5.5472036-16-2.922872-16-5.5472036 6.571-5.5472036 16-5.5472036zm16 43.2923938c0 2.6828294-6.571 5.6732764-16 5.6732764s-16-2.990447-16-5.6732764v-8.6223715c3.184 2.703001 9.189 4.5497155 15.545 4.5497155 8.035 0 12.237-1.9052123 12.412-1.9858989l-.836-1.8336029c-.039.0181545-3.975 1.8023369-11.576 1.8023369-7.775 0-14.027-2.8512627-15.545-5.558298v-9.869988c1.916 1.7307275 4.818 3.094331 8.096 3.7105749l.367-1.9828731c-4.514-.8482179-7.526-3.1044169-8.463-4.8764963v-9.4857181c3.19 2.5950827 9.728 3.9717978 16 3.9717978s12.81-1.3767151 16-3.9717978v9.0147101h2v-13.111572h-.06c-.619-4.5860245-9.522-7.0600773-17.94-7.0600773s-17.321 2.4740528-17.94 7.0600773h-.06v38.2494814c0 4.384308 7.738 7.6904413 18 7.6904413s18-3.3061333 18-7.6904413v-7.9920075h-2z" fill="#fff"/></g></svg>