<svg height="80" viewBox="0 0 80 80" width="80" xmlns="http://www.w3.org/2000/svg"><g fill="none" fill-rule="evenodd"><path d="m0 0h80v80h-80z" fill="#7aa116"/><path d="m53.682 39.59c-.23-.237-.669-.602-1.474-1.108l-.117.87c.788.183 1.288.235 1.591.238zm-1.777-13.993c-.137-1.19-5.672-3.883-14.336-3.883-8.663 0-14.198 2.693-14.334 3.883l.019.153c.472 1.356 6.193 3.284 14.315 3.284 8.124 0 13.844-1.928 14.316-3.284zm-.377 2.955c-3.066 1.634-8.639 2.482-13.959 2.482s-10.893-.848-13.957-2.482l1.459 10.836c1.003.344 1.945.922 2.769 1.735.512.505.951 1.093 1.315 1.756.774-.416 1.685-.524 2.558-.266 1.362.403 2.303 1.559 2.604 3.154.6.182 1.207.458 1.74.795 1.668 1.055 2.513 2.428 2.513 4.082 0 1.348-.367 2.465-1.051 3.356h.05c2.556 0 5.109-.265 7.187-.746.805-.185 1.516-.399 2.114-.635 1.174-.465 1.527-.879 1.558-.987 0-.044.001-.071.007-.115l1.441-10.701c-4.103-1.27-9.578-3.801-11.891-4.904-.153.053-.314.088-.485.088-.827 0-1.5-.673-1.5-1.5s.673-1.5 1.5-1.5c.71 0 1.304.497 1.458 1.161 1.864.886 7.195 3.36 11.19 4.64zm-14.958 22.092c0-.648-.18-1.505-1.582-2.392-.534-.337-1.191-.596-1.756-.692-.513-.086-.868-.55-.83-1.058-.095-1.032-.561-1.766-1.256-1.971-.567-.166-1.181.053-1.562.56-.219.294-.58.448-.948.389-.364-.055-.668-.305-.793-.651-.33-.918-.804-1.686-1.408-2.283-.546-.539-1.796-1.536-3.566-1.536-.624 0-1.31.123-2.053.433-1.607.669-2.914 2.678-2.914 4.476 0 .206.011.41.036.609.061.501-.26.969-.749 1.092-1.128.283-2.473 1.055-2.473 3.122 0 1.694.947 2.612 1.742 3.084.191.114.426.173.681.174l15.909.016c.059 0 .167-.001.314-.002.666-.016 3.208-.281 3.208-3.37zm-20.668-4.707v-.018c0-2.619 1.781-5.337 4.144-6.322.98-.409 1.98-.59 2.957-.571l-1.721-12.787.033-.004c-.002-.009-.008-.017-.01-.025-.011-.04-.019-.082-.023-.124l-.041-.315c-.006-.043-.009-.086-.009-.129 0-1.685 1.919-3.103 4.768-4.132v-17.945c0-.863-.702-1.565-1.565-1.565h-20.869c-.863 0-1.566.702-1.566 1.565v44.87c0 .863.703 1.565 1.566 1.565h9.199c.231-1.895 1.354-3.351 3.137-4.063zm1.235 10.063c-.613-.001-1.201-.158-1.7-.454-.849-.504-2.161-1.593-2.578-3.546h-5.859v4h-2v-4h-1.434c-1.966 0-3.566-1.599-3.566-3.565v-44.87c0-1.966 1.6-3.565 3.566-3.565h20.869c1.966 0 3.565 1.599 3.565 3.565v17.325c2.845-.751 6.252-1.176 9.569-1.176 7.89 0 16.339 2.382 16.339 5.928 0 .043-.003.086-.009.129l-.041.315c-.005.042-.013.084-.024.124-.002.008-.007.016-.009.025l.033.004-1.36 10.088c2.183 1.256 3.221 2.238 3.406 3.226.091.492-.034.973-.356 1.354-.382.455-.97.682-1.837.682-.519 0-1.15-.089-1.887-.251l-1.4 10.391c-.042 1.102-.99 2.027-2.819 2.75-.692.273-1.498.516-2.399.724-2.221.513-4.933.797-7.637.797-.893 0-3.317-.004-4.218 0zm-10.137-35h15v-2h-15zm0 7h11v-2h-11zm0-14h15v-2h-15z" fill="#fff" transform="translate(12 12)"/></g></svg>