<svg height="80" viewBox="0 0 80 80" width="80" xmlns="http://www.w3.org/2000/svg"><g fill="none" fill-rule="evenodd"><path d="m0 0h80v80h-80z" fill="#c925d1"/><path d="m62 66c-2.206 0-4-1.794-4-4s1.794-4 4-4 4 1.794 4 4-1.794 4-4 4m-19.172-1.171c-1.512 1.51-4.144 1.51-5.656 0-.756-.756-1.172-1.761-1.172-2.829s.416-2.073 1.172-2.829c.756-.755 1.76-1.171 2.828-1.171s2.072.416 2.828 1.171c.756.756 1.172 1.761 1.172 2.829s-.416 2.073-1.172 2.829m-27.656-22c-.756-.756-1.172-1.761-1.172-2.829s.416-2.073 1.172-2.829c.756-.755 1.76-1.171 2.828-1.171s2.072.416 2.828 1.171c.756.756 1.172 1.761 1.172 2.829s-.416 2.073-1.172 2.829c-1.512 1.51-4.144 1.51-5.656 0m22-27.658c.756-.755 1.76-1.171 2.828-1.171s2.072.416 2.828 1.171c.756.756 1.172 1.761 1.172 2.829s-.416 2.073-1.172 2.829c-1.512 1.51-4.144 1.51-5.656 0-.756-.756-1.172-1.761-1.172-2.829s.416-2.073 1.172-2.829m24.828-1.171c2.206 0 4 1.794 4 4s-1.794 4-4 4-4-1.794-4-4 1.794-4 4-4m0 42c-2.967 0-5.431 2.167-5.91 5h-10.179c-.204-1.222-.775-2.349-1.669-3.243-1.133-1.133-2.639-1.757-4.242-1.757-1.264 0-2.464.393-3.473 1.113l-13.64-13.64c.72-1.008 1.113-2.209 1.113-3.473s-.393-2.464-1.113-3.473l13.64-13.64c1.008.72 2.209 1.113 3.473 1.113 1.603 0 3.109-.624 4.242-1.757.894-.894 1.465-2.021 1.669-3.243h10.179c.479 2.833 2.943 5 5.91 5 3.309 0 6-2.691 6-6s-2.691-6-6-6c-2.967 0-5.431 2.167-5.91 5h-10.179c-.204-1.222-.775-2.349-1.669-3.243-1.133-1.133-2.639-1.757-4.242-1.757s-3.109.624-4.242 1.757c-1.134 1.134-1.758 2.64-1.758 4.243 0 1.264.393 2.464 1.113 3.473l-13.64 13.64c-1.008-.72-2.209-1.113-3.473-1.113-1.603 0-3.109.624-4.242 1.757-1.134 1.134-1.758 2.64-1.758 4.243s.624 3.109 1.758 4.243c1.133 1.133 2.639 1.757 4.242 1.757 1.264 0 2.464-.393 3.473-1.113l13.64 13.64c-.72 1.008-1.113 2.209-1.113 3.473 0 1.603.624 3.109 1.758 4.243 1.133 1.133 2.639 1.757 4.242 1.757s3.109-.624 4.242-1.757c.894-.894 1.465-2.021 1.669-3.243h10.179c.479 2.833 2.943 5 5.91 5 3.309 0 6-2.691 6-6s-2.691-6-6-6m-44 9c-1.654 0-3-1.346-3-3s1.346-3 3-3 3 1.346 3 3-1.346 3-3 3m0-8c-2.757 0-5 2.243-5 5s2.243 5 5 5 5-2.243 5-5-2.243-5-5-5m44-14c-1.654 0-3-1.346-3-3s1.346-3 3-3 3 1.346 3 3-1.346 3-3 3m0-8c-2.757 0-5 2.243-5 5s2.243 5 5 5 5-2.243 5-5-2.243-5-5-5m-22 8c-1.654 0-3-1.346-3-3s1.346-3 3-3 3 1.346 3 3-1.346 3-3 3m0-8c-2.757 0-5 2.243-5 5s2.243 5 5 5 5-2.243 5-5-2.243-5-5-5m-22-20c1.654 0 3 1.346 3 3s-1.346 3-3 3-3-1.346-3-3 1.346-3 3-3m0 8c2.757 0 5-2.243 5-5s-2.243-5-5-5-5 2.243-5 5 2.243 5 5 5" fill="#fff"/></g></svg>