<svg height="80" viewBox="0 0 80 80" width="80" xmlns="http://www.w3.org/2000/svg"><g fill="none" fill-rule="evenodd"><path d="m0 0h80v80h-80z" fill="#ed7100"/><path d="m40 60.3862258c-1.592 0-3.146-.1643116-4.646-.4757979l4.144-17.1015067 1.981 8.5381528c0 .001008-.002.0030241-.004.0040322l.009.0131046 2.031 8.7508505c-1.147.1784242-2.32.2711645-3.515.2711645zm-14.533-21.2889313h6.043c.24 4.9303548 1.538 9.3395496 3.549 12.0522024-5.214-1.8064191-8.963-6.4898026-9.592-12.0522024zm9.597-15.3606106c-1.014 1.3669109-1.856 3.1813943-2.473 5.3023239-1.312-.3084622-2.53-.7016003-3.619-1.1773982 1.629-1.8608536 3.718-3.2963116 6.092-4.1249257zm15.406 4.0452901c-1.068.4808381-2.275.8749842-3.566 1.1935269-.616-2.0927043-1.45-3.8860188-2.455-5.238817 2.34.8165175 4.403 2.2227422 6.021 4.0452901zm-6.031 23.3796194c1.995-2.6995481 3.32-7.1147912 3.564-12.0642989h6.042c-.642 5.5361906-4.433 10.2578798-9.606 12.0642989zm1.561-12.0642989c-.225 4.2630281-1.301 8.1077169-2.879 10.4725937l-2.43-10.4725937zm2.04-2.0160928c-.022-2.1914928-.243-4.2700844-.639-6.1571472 1.586-.39213 3.047-.9032095 4.329-1.5231581 1.465 2.2096377 2.334 4.8456789 2.403 7.6803053zm-8.283-14.151963c1.955 0 3.993 2.4223355 5.202 6.4535129-1.69.2872932-3.49.4435404-5.338.4435404-1.753 0-3.467-.1360863-5.081-.3951542 1.208-4.0604107 3.254-6.5018991 5.217-6.5018991zm-5.708 8.4585171c1.774.2963657 3.653.4546289 5.572.4546289 2.014 0 3.981-.1794322 5.833-.5040231.355 1.7116627.565 3.6420715.587 5.7428401h-12.568c.022-2.0806077.227-3.9938797.576-5.6934459zm-8.668 5.6934459c.067-2.7902723.914-5.3869998 2.339-7.5754684 1.301.6078519 2.781 1.1048188 4.379 1.4838442-.387 1.869926-.603 3.9243245-.625 6.0916242zm10.587 11.7961587c-1.36-2.4062067-2.253-5.934369-2.455-9.7800659h4.826zm29.032-11.6762011c0-3.0563966-.537-6.0442461-1.597-8.8808886l-1.871.7106727c.974 2.607816 1.468 5.3567584 1.468 8.1702159 0 10.8818605-7.478 20.0329055-17.524 22.5157237l-1.468-6.325491c7.035-1.913272 12.143-8.4615412 12.143-15.9513258 0-9.1127391-7.354-16.5269202-16.394-16.5269202s-16.395 7.4141811-16.395 16.5269202c0 7.3305132 4.759 13.673141 11.554 15.780966l-1.502 6.1924288c-9.482-2.8628517-16.414-11.7346678-16.414-22.2123017 0-12.7840441 10.317-23.1850666 23-23.1850666 5.562 0 10.805 1.9737548 14.969 5.586593h-4.683v2.0160928h7.857v-7.9192123h-2v4.261012c-4.505-3.8577935-10.154-5.9605782-16.143-5.9605782-13.785 0-25 11.30524-25 25.2011593 0 11.4241895 7.583 21.0913542 17.939 24.1709358l-1.49 6.1490829 1.944.478822 1.486-6.130938c1.653.347776 3.366.5332565 5.121.5332565 1.352 0 2.677-.1118931 3.971-.3215668l1.371 5.9091678 1.947-.4586611-1.357-5.8517091c10.929-2.6914838 19.068-12.6419096 19.068-24.47839z" fill="#fff"/></g></svg>