<svg height="80" viewBox="0 0 80 80" width="80" xmlns="http://www.w3.org/2000/svg"><g fill="none" fill-rule="evenodd"><path d="m0 0h80v80h-80z" fill="#01a88d"/><path d="m47 36h2v-6h-2zm7 9h-4c-.553 0-1-.448-1-1v-4h-4v4c0 .552-.447 1-1 1h-4v4h4c.553 0 1 .448 1 1v4h4v-4c0-.552.447-1 1-1h4zm2-1v6c0 .552-.447 1-1 1h-4v4c0 .552-.447 1-1 1h-6c-.553 0-1-.448-1-1v-4h-4c-.553 0-1-.448-1-1v-6c0-.552.447-1 1-1h4v-4c0-.552.447-1 1-1h6c.553 0 1 .448 1 1v4h4c.553 0 1 .448 1 1zm-35-37h14v-5h-14zm-2 1v-7c0-.552.447-1 1-1h16c.553 0 1 .448 1 1v7c0 .552-.447 1-1 1h-16c-.553 0-1-.448-1-1zm-10-2.455c0-.852.693-1.545 1.546-1.545h6.454v-2h-6.454c-1.955 0-3.546 1.59-3.546 3.545v15.455h2zm38 0v15.455h2v-15.455c0-1.955-1.591-3.545-3.546-3.545h-6.454v2h6.454c.853 0 1.546.693 1.546 1.545zm-38 46.91v-22.455h-2v22.455c0 1.955 1.591 3.545 3.546 3.545h29.454v-2h-29.454c-.853 0-1.546-.693-1.546-1.545zm30.618-27.455-4.723-9.447c-.172-.344-.495-.542-.911-.553-.384.006-.731.232-.892.581l-5.251 11.377-5.009-7.513c-.371-.556-1.293-.556-1.664 0l-3.703 5.555h-17.465v2h18c.334 0 .646-.167.832-.445l3.168-4.752 5.168 7.752c.186.279.499.445.832.445.025 0 .052-.001.078-.003.36-.028.678-.249.83-.578l5.128-11.111 4.069 8.139c.17.339.516.553.895.553h17v-2zm-26.618 17h18v-2h-18zm0 6h18v-2h-18z" fill="#fff" transform="translate(12 12)"/></g></svg>