<svg height="80" viewBox="0 0 80 80" width="80" xmlns="http://www.w3.org/2000/svg"><g fill="none" fill-rule="evenodd"><path d="m0 0h80v80h-80z" fill="#01a88d"/><path d="m24.011 41.959c-1.055-1.379-3.707-2.163-6.514-2.313v-4.923l3.369-1.111c.046-.016.091-.034.134-.056.401-.201.876-.131 1.207.171 2.096 1.909 5.85 4.982 8.887 5.579-1.651 1.019-4.876 2.448-7.083 2.653zm-7.514 3.041c-3.937 0-6-1.257-6-1.692s2.063-1.693 6-1.693c3.936 0 6 1.258 6 1.693s-2.064 1.692-6 1.692zm4 3.5c0 .529-1.519 1.5-4 1.5-2.482 0-4-.971-4-1.5s1.518-1.5 4-1.5c2.481 0 4 .971 4 1.5zm-8.552-14.773c.332-.304.805-.37 1.234-.157l2.318 1.07v5.006c-2.806.15-5.458.934-6.514 2.312-2.127-.208-4.952-1.612-6.29-2.591 2.92-.374 6.598-3.223 9.252-5.64zm1.552-7.727c0-1.654 1.346-3 3-3s3 1.346 3 3-1.346 3-3 3-3-1.346-3-3zm19.701 11.585c-.29-.12-.645-.176-1.116-.176-1.793 0-4.981-1.929-8.529-5.161-.93-.847-2.249-1.045-3.376-.515l-2.68.884v-1.718c2.279-.465 4-2.484 4-4.899 0-2.757-2.243-5-5-5s-5 2.243-5 5c0 2.415 1.721 4.434 4 4.899v1.539l-1.451-.67c-1.144-.575-2.499-.385-3.448.48-3.548 3.232-6.737 5.161-8.528 5.161-.514 0-.916.07-1.231.213-.525.24-.839.705-.839 1.245 0 2.004 5.382 4.601 8.6 5.056.333 1.083 1.531 1.888 3.135 2.402-.78.589-1.238 1.338-1.238 2.175 0 1.795 2.09 3.189 5 3.452v4.048h2v-4.048c2.91-.263 5-1.657 5-3.452 0-.837-.459-1.586-1.239-2.175 1.605-.514 2.804-1.32 3.137-2.404 3.284-.463 9.652-3.084 9.652-5.136 0-.533-.317-.982-.849-1.2zm-2.701-11.585h7v-2h-7zm0-13h9v-2h-9zm0 7h19v-2h-19zm6 12h13v-2h-13zm4-6h9v-2h-9zm5-22.413 6.739 7.413h-6.739zm9.74 7.74-10-11c-.189-.208-.458-.327-.74-.327h-20c-.553 0-1 .448-1 1v26h2v-25h18v10c0 .552.447 1 1 1h9v28h-15v2h16c.553 0 1-.448 1-1v-30c0-.248-.093-.489-.26-.673z" fill="#fff" transform="translate(12.51 12)"/></g></svg>