<svg height="80" viewBox="0 0 80 80" width="80" xmlns="http://www.w3.org/2000/svg"><g fill="none" fill-rule="evenodd"><path d="m0 0h80v80h-80z" fill="#ed7100"/><path d="m59.158 49.5892385 1.879-.686-1.886-5.17c-.091-.249-.277-.452-.517-.564-.241-.112-.515-.123-.765-.033l-5.292 1.931.685 1.879 2.931-1.069c-1.326 2.613-2.803 5.035-4.345 7.089-.277.374-.555.727-.834 1.069-3.372 4.167-6.677 6.226-8.622 5.376-.65-.282-1.17-.893-1.543-1.815l-1.853.749c.567 1.407 1.468 2.41 2.599 2.9.54.236 1.118.352 1.729.352 2.658 0 5.925-2.201 9.244-6.302.295-.364.591-.739.883-1.132 1.645-2.189 3.218-4.773 4.619-7.558zm-10.646-28.404c1.498.661 2.304 3.077 2.213 6.63-.001.038.001.076.004.113.004.042 0 .084-.001.128l-.002.121c-.131 3.475-1.054 7.671-2.615 12.01l-1.109-2.724-1.853.754 2.074 5.098c.101.246.294.441.539.545.124.052.256.078.388.078.128 0 .256-.024.377-.074l5.217-2.122-.754-1.853-3.097 1.261c1.692-4.634 2.689-9.151 2.832-12.935l.002-.103c.003-.1.004-.197-.001-.293.105-4.443-1.105-7.448-3.416-8.468-1.14-.492-3.069-.712-5.776 1.037l1.086 1.68c1.083-.701 2.638-1.423 3.892-.883zm-16.512 16.114h5v-2h-5zm0-4h5v-2h-5zm-2 16h9v-21h-9zm10-23c.553 0 1 .448 1 1v23c0 .553-.447 1-1 1h-11c-.553 0-1-.447-1-1v-23c0-.552.447-1 1-1zm7.163 27h-24.212c-4.855 0-8.693-3.246-8.93-7.548-.01-.203-.021-.406-.021-.62 0-5.761 4.171-7.65 6.656-8.264.492-.121.815-.59.753-1.092-.061-.498-.092-1.013-.092-1.532 0-4.592 3.29-9.535 7.491-11.252 7.281-2.985 12.455.933 14.34 2.756 1.506 1.467 2.73 3.411 3.538 5.622.126.343.429.591.789.645.367.056.725-.091.946-.382.409-.536.891-.962 1.434-1.266l-.976-1.745c-.32.178-.623.385-.91.618-.878-1.899-2.046-3.582-3.428-4.927-4.516-4.368-10.679-5.553-16.49-3.172-4.98 2.035-8.734 7.668-8.734 13.103 0 .308.01.615.028.918-2.719.868-7.345 3.324-7.345 9.97 0 .25.011.488.024.728.295 5.382 4.993 9.44 10.927 9.44h24.212zm20.837-8.09c0 9.107-7.782 10.09-11.128 10.09h-.893v-2h.893c4.164 0 9.128-1.403 9.128-8.09 0-5.706-4.333-7.77-7.969-8.497-.444-.089-.774-.467-.802-.919-.159-2.597-1.169-4.548-2.843-5.495l.984-1.741c2.105 1.191 3.434 3.43 3.787 6.355 5.71 1.376 8.843 5.01 8.843 10.297z" fill="#fff"/></g></svg>