<svg height="80" viewBox="0 0 80 80" width="80" xmlns="http://www.w3.org/2000/svg"><g fill="none" fill-rule="evenodd"><path d="m0 0h80v80h-80z" fill="#8c4fff"/><path d="m52.625 29.072-.742 1.856c-3.198-1.279-7.099-1.928-11.595-1.928v-2c4.752 0 8.902.697 12.337 2.072zm-.687-1.123c-2.906-.965-8.786-1.949-11.65-1.949v-2c2.896 0 8.751-.983 11.604-1.947l.64 1.894c-1.094.371-2.572.737-4.16 1.057 1.607.319 3.104.684 4.197 1.047zm.673-7.015c-3.581 1.371-7.727 2.066-12.323 2.066v-2c4.351 0 8.256-.651 11.608-1.934zm-16.356 7.285-10 2.5v-11.438l10 2.5zm-12 4.781h-3v-16h3v1 14zm13.242-12.97-11.242-2.811v-1.219c0-.552-.447-1-1-1h-5c-.553 0-1 .448-1 1v.93c-15.202-1.109-17-7.311-17-11.93v-5h-2v5c0 8.469 6.23 13.023 19 13.927v1.036c-7.763-.311-13.337-1.536-17.469-3.836l-.973 1.747c4.429 2.467 10.313 3.77 18.442 4.09v2.014c-5.648-.134-13.299-.508-18.745-1.945l-.51 1.934c1.633.431 3.449.767 5.342 1.033-1.893.267-3.709.603-5.342 1.033l.51 1.934c5.447-1.437 13.098-1.811 18.745-1.944v2.014c-8.084.316-13.965 1.619-18.439 4.088l.967 1.751c4.175-2.304 9.762-3.52 17.472-3.829v1.021c-16.495 1.214-19 9.834-19 14.932l-.002.392c-.017 3.224-.007 3.582.008 3.715l1.991-.185c-.011-.182-.01-1.366.001-3.519l.002-.403c0-7.62 5.883-12.067 17-12.92v.92c0 .552.447 1 1 1h5c.553 0 1-.448 1-1v-1.219l11.242-2.811c.445-.111.758-.511.758-.97v-8c0-.459-.313-.859-.758-.97z" fill="#fff" transform="translate(14 15)"/></g></svg>