<svg height="80" viewBox="0 0 80 80" width="80" xmlns="http://www.w3.org/2000/svg"><g fill="none" fill-rule="evenodd"><path d="m0 0h80v80h-80z" fill="#dd344c"/><path d="m34 51h3v-2h-3zm-9 0h7v-2h-7zm0-5h11v-2h-11zm40 12v-19h-2v14c0 .552-.447 1-1 1h-20c-.553 0-1-.448-1-1v-14h-19v19zm-20.926-6h15.844c-.438-3.017-2.74-5.716-5.766-6.675-.697.294-1.447.454-2.201.454s-1.5-.157-2.195-.447c-3.036.967-5.274 3.619-5.682 6.668zm9.635-8.67c1.163-.631 1.885-1.836 1.885-3.145 0-1.987-1.634-3.604-3.643-3.604-2.008 0-3.641 1.617-3.641 3.604 0 1.308.719 2.513 1.877 3.146 1.081.587 2.426.595 3.522-.001zm7.291-10.33h-18v15.75c1.001-2.054 2.696-3.763 4.808-4.784-.944-1.018-1.498-2.356-1.498-3.781 0-3.09 2.531-5.604 5.641-5.604 3.111 0 5.643 2.514 5.643 5.604 0 1.419-.552 2.752-1.49 3.767 2.154 1.027 3.881 2.756 4.896 4.835zm-39-5v9h19v-5c0-.552.447-1 1-1h20c.553 0 1 .448 1 1v5h2v-9zm45-1v32c0 .552-.447 1-1 1h-45c-.553 0-1-.448-1-1v-32c0-.552.447-1 1-1h45c.553 0 1 .448 1 1zm-51 25h2v2h-3c-.553 0-1-.448-1-1v-32c0-.552.447-1 1-1h46c.553 0 1 .448 1 1v3h-2v-2h-44z" fill="#fff"/></g></svg>