<svg height="80" viewBox="0 0 80 80" width="80" xmlns="http://www.w3.org/2000/svg"><g fill="none" fill-rule="evenodd"><path d="m0 0h80v80h-80z" fill="#8c4fff"/><path d="m19 62h2c0-8.406 5.465-17 46-17v-2c-42.297 0-48 9.604-48 19m6 6h2c0-7.566 0-19 40-19v-2c-18.337 0-30.272 2.359-36.49 7.212-5.51 4.3-5.51 9.784-5.51 13.788m-10-42h-2c0 7.396 10.039 12.08 29.893 14-19.854 1.92-29.893 6.604-29.893 14h2c0-4.855 6.756-13 52-13v-2c-45.244 0-52-8.145-52-13m6-8h-2c0 9.396 5.703 19 48 19v-2c-40.535 0-46-8.594-46-17m46 13v2c-18.337 0-30.272-2.359-36.49-7.212-5.51-4.3-5.51-9.784-5.51-13.788h2c0 7.566 0 19 40 19" fill="#fff"/></g></svg>