<svg height="80" viewBox="0 0 80 80" width="80" xmlns="http://www.w3.org/2000/svg"><g fill="none" fill-rule="evenodd"><path d="m0 0h80v80h-80z" fill="#ed7100"/><path d="m27 53h25v-25h-25zm27-25h4v2h-4v4h4v2h-4v3h4v2h-4v4h4v2h-4v4h4v2h-4v.136c0 1.028-.836 1.864-1.864 1.864h-.136v4h-2v-4h-4v4h-2v-4h-3v4h-2v-4h-4v4h-2v-4h-4v4h-2v-4h-.136c-1.028 0-1.864-.836-1.864-1.864v-.136h-3v-2h3v-4h-3v-2h3v-4h-3v-2h3v-3h-3v-2h3v-4h-3v-2h3v-.136c0-1.028.836-1.864 1.864-1.864h.136v-4h2v4h4v-4h2v4h4v-4h2v4h3v-4h2v4h4v-4h2v4h.136c1.028 0 1.864.836 1.864 1.864zm-13 37.876c0 .068-.056.124-.124.124h-26.752c-.068 0-.124-.056-.124-.124v-26.752c0-.068.056-.124.124-.124h5.876v-2h-5.876c-1.171 0-2.124.953-2.124 2.124v26.752c0 1.171.953 2.124 2.124 2.124h26.752c1.171 0 2.124-.953 2.124-2.124v-4.876h-2zm27-51.752v26.752c0 1.171-.953 2.124-2.124 2.124h-5.876v-2h5.876c.068 0 .124-.056.124-.124v-26.752c0-.068-.056-.124-.124-.124h-26.752c-.068 0-.124.056-.124.124v5.876h-2v-5.876c0-1.171.953-2.124 2.124-2.124h26.752c1.171 0 2.124.953 2.124 2.124z" fill="#fff"/></g></svg>