<svg height="80" viewBox="0 0 80 80" width="80" xmlns="http://www.w3.org/2000/svg"><g fill="none" fill-rule="evenodd"><path d="m0 0h80v80h-80z" fill="#7aa116"/><path d="m66 58h2v10h-10v-2h6.586l-8.293-8.293 1.414-1.414 8.293 8.293zm-42.293-.293-8.293 8.293h6.586v2h-10v-10h2v6.586l8.293-8.293zm44.293-45.707v10h-2v-6.586l-8.293 8.293-1.414-1.414 8.293-8.293h-6.586v-2zm-52.586 2 8.293 8.293-1.414 1.414-8.293-8.293v6.586h-2v-10h10v2zm35.264 39.661c-1.157 1.187-5.043 2.385-11.115 2.385-7.395 0-11.532-1.816-11.563-3.046v-23.143c2.603 1.538 7.32 2.143 11.563 2.143 4.193 0 8.855-.603 11.437-2.133v23.158c.002.074.008.298-.322.636zm-11.115-29.661c6.1 0 9.982 1.181 11.123 2.352.322.33.316.55.314.623v.025c0 1.226-4.073 3-11.437 3-7.141 0-11.531-1.735-11.56-2.987.058-1.267 4.09-3.013 11.56-3.013zm13.436 3c.008-.518-.141-1.284-.881-2.044-1.805-1.851-6.498-2.956-12.555-2.956-6.198 0-13.469 1.303-13.563 5v26.025c.095 3.706 7.365 5.021 13.563 5.021 4.657 0 10.399-.785 12.547-2.989.759-.779.903-1.562.89-2.057v-25.989-.007-.004z" fill="#fff"/></g></svg>