<svg height="80" viewBox="0 0 80 80" width="80" xmlns="http://www.w3.org/2000/svg"><g fill="none" fill-rule="evenodd"><path d="m0 0h80v80h-80z" fill="#01a88d"/><path d="m27 25.767v3.765l-3 1.5-3-1.5v-3.765l3-1.507zm16.968 15.948-18 10.174c-1.213.687-2.723.687-3.936 0l-18-10.174c-1.254-.708-2.032-2.043-2.032-3.482v-21.273c0-1.386.736-2.695 1.92-3.417l18.001-10.956c.641-.39 1.36-.586 2.079-.586s1.438.196 2.08.586l18 10.956c1.184.722 1.92 2.031 1.92 3.417v21.273c0 .248-.031.492-.076.731l-16.924-9.402v-4.412c0-.378-.213-.723-.551-.893l-4-2.01c-.283-.141-.615-.141-.898 0l-4 2.01c-.338.17-.551.515-.551.893v5c0 .379.214.725.553.895l4 2c.14.07.294.105.447.105s.307-.035.447-.105l3.529-1.764 17.099 9.499c-.306.37-.676.692-1.107.935zm1.151-29.88-17.999-10.956c-1.926-1.172-4.315-1.172-6.239 0l-18 10.956c-1.777 1.082-2.881 3.046-2.881 5.125v21.273c0 2.159 1.168 4.16 3.048 5.223l18 10.174c.911.515 1.931.772 2.952.772s2.042-.257 2.952-.772l18-10.174c1.88-1.063 3.048-3.064 3.048-5.223v-21.273c0-2.079-1.104-4.043-2.881-5.125z" fill="#fff" transform="translate(16 12.35)"/></g></svg>