<svg height="80" viewBox="0 0 80 80" width="80" xmlns="http://www.w3.org/2000/svg"><g fill="none" fill-rule="evenodd"><path d="m0 0h80v80h-80z" fill="#01a88d"/><path d="m52 19v5.586l-4.293-4.293-1.414 1.414 6 6c.195.195.451.293.707.293s.512-.098.707-.293l6-6-1.414-1.414-4.293 4.293v-5.586c0-4.841-1.851-7-6-7h-4.995v2h4.995c2.267 0 4 .368 4 5zm-24 43v-6.586l4.293 4.293 1.414-1.414-6-6c-.391-.391-1.023-.391-1.414 0l-6 6 1.414 1.414 4.293-4.293v6.586c0 3.645 2.355 6 6 6h5v-2h-5c-2.505 0-4-1.495-4-4zm20.601-13.168c.715 1.775 1.694 3.324 2.917 4.614 1.183-1.277 2.107-2.796 2.808-4.614zm3.905-2.002h6.092c.27 0 .49.22.49.491v1.02c0 .271-.22.491-.49.491h-1.754c-.076.127-.207.257-.435.323-.836 2.268-1.943 4.132-3.374 5.674 1.653 1.267 3.619 2.165 5.857 2.674.172.04.312.171.362.343.05.171.002.356-.125.483-.197.197-.497.617-.654.916-.086.164-.255.263-.434.263-.041 0-.082-.005-.123-.016-2.539-.653-4.658-1.703-6.466-3.204-1.703 1.351-3.792 2.394-6.37 3.183-.243.074-.502-.049-.598-.284-.08-.198-.343-.591-.528-.819-.103-.128-.137-.3-.087-.457.049-.157.175-.279.333-.324 2.322-.666 4.208-1.562 5.747-2.733-1.48-1.633-2.67-3.656-3.541-6.022h-1.931c-.272 0-.492-.22-.492-.491v-1.02c0-.271.22-.491.492-.491h5.982v-2.212c0-.137.057-.266.155-.359.099-.092.232-.134.368-.1311498l1.374.0921498c.137.009.263.075.349.181s.124.243.106.378c-.016.111-.077.327-.305.481zm-22.068-11.588-2.583-7.501-2.558 7.501zm-1.324-9.531 5.648 15.289h-2.339l-1.411-4.059h-6.288l-1.369 4.059h-2.316l5.649-15.289zm33.886 15.289h-8c-.553 0-1-.448-1-1v-7h-13v33h22zm-7-2h5.37l-5.37-4.773zm9 1v27c0 .552-.447 1-1 1h-24c-.553 0-1-.448-1-1v-35c0-.552.447-1 1-1h15c.24 0 .478.087.664.252l9 8c.218.194.336.468.336.748zm-32-19h4.773l-4.773-5.37zm-15 16h-2v-23.997c0-.552.447-1 1-1l15-.003c.28 0 .554.118.747.335l8 9c.166.187.253.425.253.665v6h-2v-5h-7c-.553 0-1-.448-1-1v-8l-13 .003zm0 11h19v2h-20c-.553 0-1-.448-1-1v-7h2z" fill="#fff"/></g></svg>