<svg height="80" viewBox="0 0 80 80" width="80" xmlns="http://www.w3.org/2000/svg"><g fill="none" fill-rule="evenodd"><path d="m0 0h80v80h-80z" fill="#01a88d"/><path d="m48 20.0916944c0-1.6497871-1.346-2.9923588-3-2.9923588s-3 1.3425717-3 2.9923588c0 1.6497872 1.346 2.9923588 3 2.9923588s3-1.3425716 3-2.9923588zm2 0c0 2.7499778-2.243 4.9872647-5 4.9872647-2.414 0-4.435-1.7166165-4.898-3.9898117h-5.102v27.9286821h-2v-28.9261351c0-.550594.447-.9974529 1-.9974529h6.102c.463-2.2731952 2.484-3.9898117 4.898-3.9898117 2.757 0 5 2.2372869 5 4.9872646zm-19-15.10442974c0-1.64978715-1.346-2.99235879-3-2.99235879s-3 1.34257164-3 2.99235879 1.346 2.9923588 3 2.9923588 3-1.34257165 3-2.9923588zm-2 4.88652192v33.15932532h-2v-33.15932532c-2.279-.46381561-4-2.47867054-4-4.88652192 0-2.74997773 2.243-4.98726466 5-4.98726466s5 2.23728693 5 4.98726466c0 2.40785138-1.721 4.42270631-4 4.88652192zm-16 3.23573732c1.654 0 3-1.3425717 3-2.9923588 0-1.64978715-1.346-2.9923588-3-2.9923588s-3 1.34257165-3 2.9923588c0 1.6497871 1.346 2.9923588 3 2.9923588zm10 12.3973425v23.5109631h-2v-22.7588836l-8.274-2.3589762c-.43-.1216892-.726-.5136882-.726-.9585522v-7.9377305c-2.279-.4638156-4-2.4776731-4-4.8865219 0-2.74997774 2.243-4.98726467 5-4.98726467s5 2.23728693 5 4.98726467c0 2.4088488-1.721 4.4227063-4 4.8865219v7.1856509l8.274 2.3579788c.43.1226867.726.5136882.726.9595497zm18 24.508416h4v-1.9949059h-4zm6 0h4v-1.9949059h-4zm3.18 5.9847176h-44.359c-3.215 0-5.821-2.5993623-5.821-5.8061735v-2.351994c0-3.2068112 2.606-5.8061736 5.821-5.8061736h12.179v1.9949059h-12.499c-1.934 0-3.501 1.5630088-3.501 3.4920827v2.9913614c0 1.9280765 1.567 3.4910852 3.5 3.4910852h44.999c1.934 0 3.501-1.5630087 3.501-3.4920827v-2.9913613c0-1.9280765-1.567-3.4910853-3.5-3.4910853h-12.5v-1.9949059h12.179c3.215 0 5.821 2.5993624 5.821 5.8061736v2.351994c0 3.2068112-2.606 5.8061735-5.82 5.8061735z" fill="#fff" transform="translate(12 12)"/></g></svg>