<svg height="80" viewBox="0 0 80 80" width="80" xmlns="http://www.w3.org/2000/svg"><g fill="none" fill-rule="evenodd"><path d="m0 0h80v80h-80z" fill="#dd344c"/><path d="m47 42.8145503c-.021 1.8140324-.538 7.5011339-6 8.123145v-21.9013911l6 2.5560457zm-14-.0490009v-11.1731995l6-2.5560457v21.9013911c-5.463-.6270112-5.979-6.3551135-6-8.1721459zm6.608-16.1622886-8 3.4080608c-.369.1570028-.608.5190093-.608.9200165v11.8452115c.054 4.7160842 2.443 10.2241826 9 10.2241826 6.556 0 8.945-5.4750978 9-10.1741817v-11.8952124c0-.4010072-.239-.7630137-.608-.9200165l-8-3.4080608c-.25-.1060019-.534-.1060019-.784 0zm11.392 16.2212896c-.001.4970089-.157 12.1762175-11 12.1762175s-10.999-11.7152092-11-12.2132181v-13.8382471l11-4.6870837 11 4.6870837zm1.392-15.456276-12-5.1130913c-.25-.1070019-.534-.1070019-.784 0l-12 5.1130913c-.369.1570028-.608.5190093-.608.9200165v14.4992589c0 .1420025.148 14.2132538 13 14.2132538s13-14.0332506 13-14.1742531v-14.5382596c0-.4010072-.239-.7630137-.608-.9200165zm13.608 16.9393025-3.423-.1960035c-.458-.0270005-.924.3010054-1.032.7790139-.551 2.4440437-1.51 4.760085-2.852 6.887123-.26.4140074-.184.9550171.18 1.2800229l2.558 2.2820407-6.092 6.0911088-2.275-2.5500455c-.327-.3660066-.868-.4400079-1.28-.1790032-2.123 1.3420239-4.443 2.3020411-6.894 2.856051-.477.1080019-.806.5450097-.778 1.0330184l.196 3.4090609h-8.616l.196-3.4120609c.028-.4880088-.301-.9250166-.778-1.0330185-2.443-.5520098-4.761-1.514027-6.89-2.858051-.413-.2600047-.955-.1870034-1.281.1800032l-2.278 2.5540456-6.092-6.0911088 2.554-2.2770406c.364-.3260059.44-.8670155.18-1.2800229-1.341-2.1250379-2.3-4.4440794-2.851-6.8911231-.107-.4780085-.556-.8030143-1.032-.7800139l-3.42.1960035v-8.6151538l3.428.1950035c.461.0160002.923-.3000054 1.032-.7770139.553-2.4400436 1.515-4.7540849 2.856-6.8791229.261-.4130073.185-.955017-.179-1.2800228l-2.568-2.2900409 6.092-6.0921088 2.289 2.5650458c.325.3660065.867.4400079 1.279.1800032 2.123-1.3380239 4.437-2.296041 6.88-2.8470508.478-.1080019.807-.5450097.779-1.0320184l-.196-3.4350614h8.616l-.196 3.4370614c-.028.4880087.301.9240165.778 1.0320184 2.441.5530099 4.755 1.512027 6.876 2.8500509.41.2600047.954.1850033 1.279-.1800032l2.294-2.5700459 6.092 6.0921088-2.564 2.2860408c-.364.3250058-.44.8670155-.179 1.2800229 1.34 2.1220379 2.3 4.4370792 2.854 6.8821229.107.4780085.577.7940141 1.032.7780139l3.426-.1950035zm1.687-10.4011857c-.2-.1880034-.473-.2880052-.744-.2710049l-3.652.2080038c-.552-2.0910374-1.38-4.0890731-2.471-5.9581064l2.733-2.4370436c.205-.1830032.326-.4420078.334-.7170128.008-.2750049-.099-.5420096-.293-.7360131l-7.589-7.5891355c-.194-.1950035-.473-.2990054-.735-.2920052-.276.0080001-.535.1280023-.718.3330059l-2.446 2.7400489c-1.867-1.0890194-3.862-1.9160342-5.95-2.467044l.208-3.6640654c.016-.2740049-.082-.5430097-.271-.7430133s-.451-.3130056-.727-.3130056h-10.732c-.276 0-.538.113002-.727.3130056s-.287.4690084-.271.7430133l.208 3.6610653c-2.089.5500099-4.086 1.3770246-5.955 2.4650441l-2.441-2.7350489c-.183-.2050036-.442-.3250058-.718-.3330059-.258-.0050001-.541.0970017-.735.2920052l-7.589 7.5891355c-.194.1940035-.301.4610082-.293.7360131.008.275005.129.5340096.334.7170128l2.737 2.4420437c-1.092 1.8700333-1.921 3.866069-2.472 5.9531063l-3.655-.2080038c-.272-.0180003-.544.0830015-.744.2710049-.2.1890034-.313.4520081-.313.727013v10.7321916c0 .2750049.113.5380096.313.727013s.473.2840051.744.2720049l3.645-.2080038c.55 2.0940374 1.377 4.0950732 2.469 5.9671066l-2.724 2.4280434c-.205.1830032-.326.4430079-.334.7180128s.099.5410096.293.7350131l7.589 7.5891355c.194.1950035.474.3030054.735.2920052.276-.0080001.536-.1280023.718-.3340059l2.43-2.7230487c1.874 1.0940196 3.875 1.9240344 5.966 2.4750442l-.208 3.639065c-.016.2750049.082.5430097.271.7440133.189.2000036.451.3130056.727.3130056h10.732c.276 0 .538-.113002.727-.3130056.189-.2010036.287-.4700084.271-.7440133l-.208-3.6360649c2.097-.5520099 4.099-1.3810247 5.97-2.4730442l2.426 2.7180486c.182.2060036.442.3260058.718.3340059.265.0130003.541-.0970017.735-.2920052l7.589-7.5891355c.194-.1940035.301-.4600082.293-.7350131s-.129-.5350096-.334-.7180128l-2.728-2.4330435c1.092-1.8720334 1.92-3.8720691 2.47-5.9621065l3.648.2080038c.27.0110002.544-.0830015.744-.2720049s.313-.4520081.313-.727013v-10.7321916c0-.2750049-.113-.5380096-.313-.727013z" fill="#fff"/></g></svg>