<svg height="80" viewBox="0 0 80 80" width="80" xmlns="http://www.w3.org/2000/svg"><g fill="none" fill-rule="evenodd"><path d="m0 0h80v80h-80z" fill="#01a88d"/><path d="m34.909 43.1456233h19.091v-30h-19.091zm-5.909 0h4v-30h-4v5h2v2h-2v7h2v2h-2v7h2v2h-2zm27-31v32c0 .552-.447 1-1 1h-27c-.553 0-1-.448-1-1v-6h-2v-2h2v-7h-2v-2h2v-7h-2v-2h2v-6c0-.552.447-1 1-1h27c.553 0 1 .448 1 1zm-29 35.091h2v3.025c0 .362-.196.696-.513.873l-7.128 3.983c-.151.085-.319.127-.487.127-.172 0-.344-.044-.498-.133l-13.872-7.966c-.311-.178-.502-.509-.502-.867v-8.483l-5.46-2.832c-.332-.172-.54-.514-.54-.887v-12.931c0-.353.186-.68.49-.86l5.51-3.266v-8.98299998c0-.366.201-.704.523-.878l12.972-7.038c.289-.155.637-.162.928-.013l8.027 4.064c.337.17.549.515.549.891l.001 3.992h-2v-3.376l-7.013-3.55-1.987 1.079v8.93799998h-2v-7.85299998l-8 4.34v6.95599998l6.987 4.329 5.013-3.359v-5.413h2v5.947c0 .333-.166.645-.443.83l-5.557 3.724v4.499h5v2h-5.697l-5.748 3.832-1.11-1.664 5.555-3.703v-4.952l-6.053-3.75c-.075.224-.228.417-.437.541l-5.51 3.266v4.743l6.354-4.236 1.11 1.664-7.464 4.976v4.606l5.207 2.7 5.2-3.828 1.186 1.61-5.593 4.118v7.631l6.584 3.781-.114-.183 2.53-1.582v-10.57h2v9.32l3.47-2.168 1.06 1.696-7.191 4.495 4.54 2.607 6.121-3.421z" fill="#fff" transform="translate(12 11.9)"/></g></svg>