<svg height="80" viewBox="0 0 80 80" width="80" xmlns="http://www.w3.org/2000/svg"><g fill="none" fill-rule="evenodd"><path d="m0 0h80v80h-80z" fill="#01a88d"/><path d="m40.9995993 28.9924753h7.0001039v-2.0018231h-7.0001039zm0-6.0284902h9.0001336v-2.0018231h-9.0001336zm5.0000742 11.0330479h14.0002078v-2.0018231h-14.0002078zm4.0000594-5.0045577h11.0001632v-2.0018231h-11.0001632zm16.0002374 26.0237001h-17.0002522v2.0018231h18.0002671c.5520082 0 1.0000148-.4484083 1.0000148-1.0009115v-18.0164078h-2.0000297zm-1.418021-32.0291694-7.5821125-7.5738976v7.5738976zm3.4180507 1.0009116v6.9833598h-2.0000297v-5.9824483h-10.0001484c-.5530082 0-1.0000148-.4484084-1.0000148-1.0009115v-9.9860945l-18.0002671.0040036v12.9848255h-2.0000297v-13.985737c0-.5525032.4470066-1.0009116 1.0000148-1.0009116l20.0002968-.0040036c.2590039 0 .5150077.102093.7060105.2922662l11.0001632 10.987006c.1920029.1911741.2940044.4484084.2940044.7086454zm-49.0007271 27.0246117h2.0000297v-7.0063808h-2.0000297zm4.0000593 3.0027346h2.0000297v-14.0127616h-2.0000297zm4.0000594-2.0018231h2.0000297v-11.010027h-2.0000297zm4.0000593 3.0027346h2.0000297v-16.0145847h-2.0000297zm4.0000594-4.0036461h2.0000297v-9.0082039h-2.0000297zm4.0000594 4.0036461h2.0000296v-16.0145847h-2.0000296zm4.0000593-5.0045577h2.0000297v-7.0063808h-2.0000297zm2.1660322 6.4548786 1.6680247 1.1030045c-3.2600484 4.9374966-8.8061307 7.8851811-14.8342201 7.8851811-3.2200478 0-6.403095-.8107383-9.031134-2.2900856l-9.0791348 4.6972779c-.1950028.0930848-.3990059.1381258-.5980088.1381258-.3490052 0-.6830102-.1381258-.9310138-.396361-.3860058-.4023664-.471007-1.0049152-.2100032-1.5013673l4.6950697-9.0352285c-1.889028-3.0597866-2.8460422-6.1045595-2.8460422-9.0572486 0-9.7658939 8.2431223-18.0164078 18.0002671-18.0164078 3.7290553 0 7.6791139 1.188082 10.5671568 3.1788951l-1.1350168 1.6495022c-2.5660381-1.7706125-6.0930905-2.8265742-9.43214-2.8265742-8.6731287 0-16.0002374 7.3336789-16.0002374 16.0145847 0 2.7184758.9550141 5.5650682 2.8370421 8.4617062.1980029.3032762.2160032.6876263.0490007 1.007918l-3.9410585 7.5839067 7.5961127-3.9295787c.3100046-.1611468.6810101-.1481349.9800146.0350319 2.3730352 1.4513217 5.463081 2.2840802 8.4791258 2.2840802 5.3550795 0 10.2771525-2.6123792 13.1661954-6.9863626z" fill="#fff"/></g></svg>