<svg height="80" viewBox="0 0 80 80" width="80" xmlns="http://www.w3.org/2000/svg"><g fill="none" fill-rule="evenodd"><path d="m0 0h80v80h-80z" fill="#e7157b"/><path d="m22.065 43.6323642h2.935v-2.0170653h-2.935zm4.935 0h3v-2.0170653h-3zm-12-41.00290308-13 6.45259184v40.11136024l13 4.3961938zm2 12.76398908v26.2218487h3v2.0170653h-3v11.3591032c0 .3247475-.155.6293243-.416.8189285-.172.125058-.377.1896041-.584.1896041-.106 0-.214-.0171451-.318-.0524437l-15-5.0719107c-.408-.1381689-.682-.5234284-.682-.9560889v-41.46581957c0-.38324241.217-.7352203.559-.90465378l15-7.44498796c.309-.1543055.676-.13615191.969.04840956.293.18355294.472.50729192.472.85624422v12.36763583h3v2.0170652zm15 28.238914h3v-2.0170653h-3zm.065-28.238914h2.935v-2.0170652h-2.935zm-5 0h2.935v-2.0170652h-2.935zm-5 0h2.935v-2.0170652h-2.935zm31.935-6.31139724-13-6.45259184v50.96014588l13-4.3961938zm2 40.83750374c0 .4326605-.274.81792-.682.9560889l-15 5.0719107c-.104.0352986-.212.0524437-.318.0524437-.207 0-.412-.0645461-.584-.1896041-.261-.1896042-.416-.494181-.416-.8189285v-11.3591032h-1.935v-2.0170653h1.935v-26.2218487h-1.935v-2.0170652h1.935v-12.36763583c0-.3489523.179-.67269128.472-.85624422.293-.18456147.659-.20271506.969-.04840956l15 7.44498796c.342.16943348.559.52141137.559.90465378zm-25.066-28.1128474-1.868-.7241264-5 13.1109243 1.868.7241265zm6.773 6.4021652c.391-.3943362.391-1.0327374 0-1.4260651l-4-4.0341306-1.414 1.4260652 3.293 3.3210979-3.293 3.321098 1.414 1.4260652zm-15.414 4.0341306-4-4.0341306c-.391-.3943362-.391-1.0327374 0-1.4260651l4-4.0341306 1.414 1.4260652-3.293 3.3210979 3.293 3.321098z" fill="#fff" transform="translate(12 12)"/></g></svg>