<svg height="80" viewBox="0 0 80 80" width="80" xmlns="http://www.w3.org/2000/svg"><g fill="none" fill-rule="evenodd"><path d="m0 0h80v80h-80z" fill="#dd344c"/><path d="m52.278 36.4629928c-1.103 0-2-.8948678-2-1.9952461 0-1.1003782.897-1.995246 2-1.995246s2 .8948678 2 1.995246c0 1.1003783-.897 1.9952461-2 1.9952461m-9 9.9762305c-1.103 0-2-.8948679-2-1.9952461s.897-1.9952461 2-1.9952461 2 .8948679 2 1.9952461-.897 1.9952461-2 1.9952461m-8-11.9714766c-1.103 0-2-.8948678-2-1.995246 0-1.1003783.897-1.9952461 2-1.9952461s2 .8948678 2 1.9952461c0 1.1003782-.897 1.995246-2 1.995246m-10 9.9762305c-1.103 0-2-.8948679-2-1.9952461s.897-1.9952461 2-1.9952461 2 .8948679 2 1.9952461-.897 1.9952461-2 1.9952461m27-13.9667226c-2.206 0-4 1.7897357-4 3.9904921 0 1.0574805.422 2.014201 1.098 2.7284991l-3.635 4.1271665c-.681-.5367212-1.529-.8699273-2.463-.8699273-.407 0-.793.0788122-1.164.1925413l-3.732-5.6864514c.551-.6843694.896-1.5423252.896-2.4870742 0-2.2007565-1.794-3.9904922-4-3.9904922s-4 1.7897357-4 3.9904922c0 .8689296.287 1.6670281.762 2.323464l-4.444 4.4124868c-.656-.4678853-1.452-.7502126-2.318-.7502126-2.206 0-4 1.7897358-4 3.9904922s1.794 3.9904922 4 3.9904922 4-1.7897358 4-3.9904922c0-.6105453-.149-1.1841786-.396-1.7019449l4.704-4.6718687c.515.2424224 1.085.3880753 1.692.3880753.532 0 1.038-.1087409 1.504-.2972916l3.621 5.5158578c-.693.7182886-1.125 1.6889758-1.125 2.7624182 0 2.2007564 1.794 3.9904922 4 3.9904922s4-1.7897358 4-3.9904922c0-.5317331-.109-1.0385256-.3-1.5024203l4.121-4.6798497c.375.1157243.766.1965317 1.179.1965317 2.206 0 4-1.7897357 4-3.9904922 0-2.2007564-1.794-3.9904921-4-3.9904921m6.432 19.9524608h-9.142c-.212 0-.418.0668408-.589.1915437l-15.701 11.419791v-10.6137116c0-.5506879-.447-.9976231-1-.9976231h-11.277c-1.012-.0009976-1.811-.1945364-2.442-.592588-2.08-1.3098791-4.559-3.8298749-4.559-8.3989884 0-6.0964745 4.251-8.0947134 6.786-8.744166.463-.1187172.777-.5486927.749-1.0255565l-.101-1.6730139c0-4.8544337 3.352-10.0759927 7.63-11.8886738 1.925-.815058 3.704-1.1392855 5.317-1.1392855 4.585 0 7.824 2.6247462 9.238 4.0443638 1.555 1.5612801 2.77 3.5555286 3.608 5.9298714.123.3481704.43.6005691.796.6544407.369.052874.733-.097767.952-.3950587 1.272-1.7208998 3.462-2.4391883 5.448-1.7877405 2.229.7302601 3.515 2.8970973 3.537 5.9498238l-.006.0329216c-.084.5387164.28 1.0455089.818 1.1382879 1.931.3322085 8.228 1.9603293 8.228 8.9885836 0 8.1685375-8.024 8.8838332-8.29 8.9067785m1.23-19.6930788c-.206-3.5984264-2.002-6.2710585-4.893-7.2188004-2.269-.7442268-4.724-.2314485-6.524 1.2709718-.891-2.0142009-2.059-3.7530579-3.486-5.1836494-4.577-4.5940541-10.841-5.8400853-16.754-3.3350538-5.045 2.1369086-8.849 8.0378489-8.847 13.7841576l.056.9397609c-2.75.8968631-7.492 3.4607543-7.492 10.4441157 0 5.7672588 3.44 8.7950447 5.491 10.0859689.96.6045596 2.107.899856 3.509.9008536h10.278v11.5774155c0 .3761038.211.7192862.547.8898797.142.0728265.298.1077433.453.1077433.208 0 .415-.0638479.589-.190546l17.027-12.3844925 8.889-.0019952c.101-.007981 10.217-.8609487 10.217-10.9000294 0-7.7405572-6.149-10.1029286-9.06-10.7863003" fill="#fff"/></g></svg>