<svg height="80" viewBox="0 0 80 80" width="80" xmlns="http://www.w3.org/2000/svg"><g fill="none" fill-rule="evenodd"><path d="m0 0h80v80h-80z" fill="#01a88d"/><path d="m15.7649639 28.083h4.8599534v-2h-3.7499641l1.7139836-3.083h5.8209442l1.554985 2.833-2.08298 4.167h-5.8819436v2h6.4999377c.3789964 0 .724993-.214.8949914-.553l2.2239787-4.447h2.8229729l2.2049788 4.444c.1689984.34.5149951.556.8949914.556h3.7889637l-1.7139836 3h-19.0498172l-2.4119769-4.02zm11.8538863-9.083h6.7629351l1.7239835 3.447c.1699983.339.514995.553.8939914.553h6.4109385l2.0899799 3.761-2.5199758 5.041 1.7889828.895 1.9079817-3.818 1.1679888 2.101-2.4119768 4.02h-7.513928l4.2409594-7.421-1.7369834-.992-1.9499813 3.413h-4.3119586l-2.0509803-4.135 2.2629783-3.394-1.6639841-1.11-2.4249767 3.639h-2.4959761l-1.659984-3.022zm-12.4758803 17.514c.1809982.301.5059951.486.8569917.486h29.9997122c.3519967 0 .6769935-.185.8579918-.486l2.9999712-5c.1829983-.306.1899982-.688.0159999-1l-4.9999521-9c-.1749983-.318-.5099951-.514-.8739916-.514h-6.3809388l-1.7239834-3.448c-.1699984-.339-.5159951-.552-.8949914-.552h-7.9999233c-.3789964 0-.723993.213-.8939914.552l-1.7239835 3.448h-6.3819388c-.3629965 0-.6979933.196-.8739916.514l-4.999952 9c-.1739983.312-.1669984.694.0169998 1zm43.9555783 6.49c-.4629956-.044-.8929915.232-1.04399.669-.0599994.173-6.1889406 17.327-22.0547884 17.327-5.0659514 0-21.3887948-1.39-21.9827891-19h39.9826164c.3429967 0 .6619936-.176.8459919-.466.1829982-.29.204998-.654.0579994-.964-2.1489794-4.52-.5649946-7.869.3299969-9.228 1.242988.909 3.6169653 3.133 2.7969731 6.415-.0799992.317.001.652.214998.898.2139979.246.5359948.374.8609917.339.0439996-.003 4.1759599-.416 6.568937 1.206-.839992 1.109-2.921972 3.169-6.5769369 2.804zm8.6079174-3.712c-2.08498-2.084-5.631946-2.36-7.5259278-2.35.2889972-3.999-2.8369728-6.822-4.7089548-7.824-.3969962-.214-.8939914-.133-1.2029885.2-.1749983.187-3.9699619 4.369-1.7619831 10.682h-39.5066114c-.5520043 0-1 .447-1 1 0 8.269 3.0499707 14.368 9.063913 18.129 5.3869484 3.368 11.6698881 3.871 14.9358568 3.871 15.3388528 0 22.2487865-14.526 23.664773-17.956 5.6909454.133 8.1179221-4.381 8.2229211-4.584.200998-.387.1279987-.859-.1809983-1.168z" fill="#fff"/></g></svg>