<svg height="80" viewBox="0 0 80 80" width="80" xmlns="http://www.w3.org/2000/svg"><g fill="none" fill-rule="evenodd"><path d="m0 0h80v80h-80z" fill="#ed7100"/><path d="m35.959 47.958c-1.545-.824-4.132-2.203-6.536-4.937-2.228-2.53-3.34-5.136-4.075-6.86-.889-2.086-1.553-4.273-1.972-6.501-.078-.419-.413-.742-.834-.805-.424-.066-.835.147-1.033.524-.576 1.095-1.106 2.241-1.573 3.406-1.017 2.532-3.704 11.585-3.522 18.215h-4.287c-1.144-4.252-2.407-7.702-7.358-15.402-.394-.614-.778-1.242-1.144-1.842-.486-.796-.953-1.561-1.384-2.189l5.787-7.697c.339.617.656 1.25.949 1.893.782 1.725 1.14 2.987 2.004 6.035l.433 1.521c.305 1.065.792 2.759 1.418 4.875.139.469.601.764 1.08.709.485-.059.857-.46.878-.948.337-7.57 1.926-14.587 4.724-20.855 2.025-4.539 4.64-8.487 7.362-11.118 1.046-1.01 2.175-1.95 3.364-2.804l5.755 9.35c-1.067.823-2.051 1.754-2.932 2.777-.865 1.004-2.114 2.685-3.153 4.994-.716 1.59-1.916 4.911-1.899 9.298.005 1.186.014 3.963 1.189 7.289.557 1.577 2.285 5.618 6.286 9.08 3.968 3.434 8.141 4.565 10.225 5.024-4.773-.375-8.255-2.233-9.752-3.032m-7.766-45.958c.106 0 .209.006.314.007-1.054.793-2.077 1.627-3.02 2.537-2.902 2.804-5.673 6.974-7.799 11.741-2.221 4.975-3.708 10.398-4.438 16.177l-.344-1.21c-.868-3.059-1.264-4.455-2.109-6.316-.533-1.174-1.144-2.317-1.815-3.396-.174-.28-.475-.457-.805-.471-.318-.01-.646.134-.843.398l-5.213 6.933c.008-.3.014-.558.014-.73 0-14.154 11.689-25.67 26.058-25.67m25.678 47.587c-1.392.079-3.983.228-7.128-.423-1.62-.335-5.923-1.227-9.948-4.711-3.639-3.149-5.205-6.807-5.709-8.233-1.062-3.007-1.071-5.546-1.075-6.631-.016-4.158 1.2-7.307 1.723-8.469.941-2.091 2.066-3.607 2.844-4.51.978-1.134 2.096-2.145 3.323-3.002.435-.303.557-.893.28-1.344l-6.145-9.983c12.553 1.836 22.215 12.521 22.215 25.389 0 6.225-2.29 12.23-6.447 16.907l1.494 1.329c4.484-5.044 6.953-11.52 6.953-18.236 0-15.257-12.587-27.67-28.058-27.67s-28.058 12.413-28.058 27.67c0 .813-.134 3.811-.135 3.841l.008.001c-.011.231.052.465.202.658.478.614 1.075 1.593 1.708 2.629.375.613.767 1.254 1.169 1.88 5.18 8.057 6.149 11.167 7.303 15.574.115.44.512.747.967.747h6.112c.159 0 .308-.047.447-.118 3.242 1.292 6.669 1.946 10.207 1.946 2.328 0 4.641-.29 6.875-.862l-.496-1.938c-2.072.531-4.219.8-6.379.8-3.37 0-6.628-.644-9.705-1.907-.156-5.987 2.257-14.609 3.373-17.391.091-.226.185-.451.279-.675.391 1.393.871 2.761 1.438 4.09.786 1.842 1.974 4.626 4.413 7.397 2.644 3.007 5.432 4.492 7.097 5.381 1.627.868 5.436 2.901 10.719 3.274.56.04 1.121.058 1.678.058 3.94 0 7.615-.915 8.334-1.66.205-.214.342-.579.31-.874-.115-1.053-1.121-.993-2.188-.934" fill="#fff" transform="translate(12 13)"/></g></svg>