<svg height="80" viewBox="0 0 80 80" width="80" xmlns="http://www.w3.org/2000/svg"><g fill="none" fill-rule="evenodd"><path d="m0 0h80v80h-80z" fill="#c925d1"/><path d="m29.98 22.216c0-2.316-1.884-4.2-4.2-4.2-2.317 0-4.2 1.884-4.2 4.2s1.883 4.2 4.2 4.2c2.316 0 4.2-1.884 4.2-4.2zm2 0c0 3.418-2.781 6.2-6.2 6.2s-6.2-2.782-6.2-6.2c0-3.419 2.781-6.2 6.2-6.2s6.2 2.781 6.2 6.2zm1.207 9.563 2.157-2.156-.822-.733c-.364-.325-.44-.867-.18-1.28.615-.973 1.054-2.034 1.306-3.153.107-.478.561-.81 1.032-.779l1.1.063v-3.05l-1.102.063c-.469.017-.925-.302-1.032-.778-.253-1.119-.692-2.179-1.307-3.151-.26-.414-.184-.955.18-1.28l.825-.736-2.157-2.157-.739.829c-.325.363-.867.44-1.281.179-.97-.612-2.03-1.052-3.147-1.304-.477-.108-.806-.545-.777-1.033l.062-1.107h-3.05l.063 1.106c.028.488-.301.924-.778 1.032-1.12.253-2.18.692-3.151 1.304-.412.26-.955.185-1.279-.18l-.737-.826-2.157 2.157.827.738c.365.325.441.867.179 1.28-.613.971-1.054 2.03-1.307 3.15-.109.476-.588.794-1.033.777l-1.102-.063v3.05l1.098-.063c.449-.031.925.301 1.033.778.253 1.122.692 2.184 1.305 3.156.261.414.185.955-.179 1.28l-.821.731 2.157 2.157.732-.82c.325-.367.867-.442 1.28-.18.974.615 2.035 1.056 3.156 1.309.476.107.805.544.777 1.032l-.063 1.095h3.05l-.062-1.094c-.029-.488.3-.925.778-1.032 1.122-.253 2.184-.693 3.156-1.308.411-.261.954-.187 1.281.18zm.666 2.164c-.194.194-.447.302-.735.292-.276-.008-.535-.128-.718-.334l-.891-.998c-.709.381-1.453.688-2.223.921l.076 1.335c.015.275-.082.544-.272.744-.188.2-.451.313-.726.313h-5.167c-.276 0-.538-.113-.727-.313s-.287-.469-.271-.744l.076-1.337c-.77-.232-1.513-.54-2.222-.921l-.892 1c-.183.206-.443.326-.718.334-.271.008-.541-.098-.735-.292l-3.655-3.654c-.194-.195-.301-.461-.293-.736s.129-.534.334-.718l1.001-.892c-.38-.709-.687-1.452-.919-2.222l-1.34.077c-.276.017-.544-.083-.743-.271-.2-.189-.313-.453-.313-.728v-5.167c0-.275.113-.538.313-.727.199-.189.466-.287.743-.272l1.345.077c.233-.768.54-1.509.921-2.215l-1.008-.899c-.205-.183-.326-.442-.334-.717s.099-.541.293-.736l3.655-3.654c.194-.194.467-.296.735-.292.275.008.535.128.718.334l.898 1.006c.706-.379 1.447-.686 2.216-.917l-.076-1.347c-.016-.275.082-.544.271-.744s.451-.313.727-.313h5.167c.275 0 .538.113.726.313.19.2.287.469.272.744l-.076 1.349c.766.231 1.506.538 2.214.918l.9-1.01c.184-.205.442-.325.718-.333.285-.006.541.098.735.292l3.653 3.654c.195.195.301.461.293.736-.007.275-.129.534-.334.717l-1.005.897c.38.708.688 1.449.919 2.217l1.344-.077c.274-.014.544.083.743.272.201.189.314.452.314.727v5.167c0 .275-.113.539-.314.728-.199.188-.47.287-.743.271l-1.341-.077c-.231.769-.539 1.512-.919 2.22l1.002.895c.205.183.327.442.334.717.008.275-.098.541-.293.736zm10.444 6.27c-.008-.48-.205-.928-.551-1.261-.348-.335-.797-.501-1.245-.501-.473 0-.945.184-1.297.551-.687.714-.665 1.855.049 2.543.713.687 1.856.665 2.543-.05v-.001c.333-.345.511-.8.501-1.281zm.835-2.703c.732.704 1.146 1.649 1.165 2.664.021 1.014-.356 1.976-1.059 2.707s-1.65 1.145-2.663 1.165c-.027.001-.052.001-.077.001-.987 0-1.918-.375-2.631-1.061-1.509-1.452-1.556-3.861-.105-5.37 1.452-1.51 3.862-1.556 5.37-.106zm4.303 3.395-1.894-.87c-.256-.117-.451-.337-.537-.605l-.388-1.218c-.084-.265-.055-.552.081-.794l1.019-1.814-2.462-1.791-1.394 1.512c-.189.204-.452.321-.73.323l-1.302.007h-.006c-.279 0-.546-.116-.736-.322l-1.404-1.525-2.466 1.788 1.024 1.822c.136.244.165.534.079.8l-.393 1.205c-.087.265-.28.482-.534.598l-1.902.873.938 2.898 2.031-.407c.276-.058.564.009.791.177l1.046.775c.223.165.367.414.399.688l.238 2.046 3.045.003.242-2.063c.032-.275.178-.525.403-.69l1.034-.757c.226-.165.514-.229.787-.174l2.048.411zm2.178-.228-1.494 4.589c-.158.483-.657.768-1.148.671l-2.488-.499-.327.239-.295 2.515c-.059.503-.486.883-.993.883h-.001l-4.825-.005c-.507 0-.934-.38-.993-.884l-.291-2.499-.341-.254-2.469.494c-.502.099-.991-.189-1.148-.672l-1.487-4.591c-.156-.482.073-1.005.534-1.217l2.313-1.061.121-.371-1.244-2.216c-.248-.442-.126-1 .285-1.299l3.906-2.833c.406-.297.979-.243 1.322.132l1.708 1.854.426-.003 1.703-1.848c.345-.374.912-.429 1.323-.13l3.902 2.838c.41.299.532.857.284 1.299l-1.242 2.21.122.383 2.303 1.057c.462.212.691.736.534 1.218zm-25.781 1.893c-7.564 0-14.722-4.44-18.235-11.312l-1.781.911c3.852 7.533 11.708 12.401 20.016 12.401 1.818 0 4.055-.325 6.137-.892l-.525-1.929c-1.89.514-3.987.821-5.612.821zm17.474-16.057 2.355-1.765c-.087 1.673-.32 3.074-.892 4.618l1.875.695c.671-1.81.934-3.458 1.023-5.377l2.44 1.829 1.199-1.599-4-3c-.355-.267-.844-.267-1.199 0l-4 3zm-33.892-8.092-4 4c-.196.195-.452.293-.707.293-.256 0-.512-.098-.707-.293l-4-4 1.414-1.414 2.41 2.41c1.132-11.057 10.368-19.417 21.956-19.417 8.23 0 16.01 4.812 19.817 12.258l-1.781.911c-3.469-6.785-10.549-11.169-18.036-11.169-10.355 0-18.626 7.334-19.888 17.113l2.108-2.106z" fill="#fff" transform="translate(14 15)"/></g></svg>