<svg height="80" viewBox="0 0 80 80" width="80" xmlns="http://www.w3.org/2000/svg"><g fill="none" fill-rule="evenodd"><path d="m0 0h80v80h-80z" fill="#ed7100"/><path d="m32 35.914924v-2.026c3.942-.645 7-3.989 7-7.889 0-3.899-3.058-7.243-7-7.888v-2.026c5.043.666 9 4.93 9 9.914 0 4.985-3.957 9.249-9 9.915zm-11.949 17.942-3.289-2.023 4.879-4.065-1.282-1.537-5.394 4.496-6.965-4.286v-7.907l5.555-3.703-1.11-1.664-5.516 3.678-4.929-2.464v-5.835l5.541-3.562-1.082-1.683-4.458 2.866v-4.549l5.032-2.517 5.967 2.558v4.86l-4.625 3.7 1.25 1.561 4.301-3.441 2.074 2.075v2.585h2v-3c0-.265-.105-.519-.293-.707l-2.707-2.707v-4.967l5.447-2.724c.339-.169.553-.516.553-.895v-6h-2v5.382l-5.032 2.516-5.968-2.557v-8.08000001l6-3.857v6.59600001h2v-7.88100001l3.088-1.986 7.913 3.517v20.27600001l-3.4-2.708-1.247 1.565 4.647 3.699v3.995l-12.57 8.701 1.138 1.645 11.432-7.914v15.473zm8.356-49.77000001-9-4c-.307-.138-.663-.11-.947.072l-12 7.714c-.286.185-.459.501-.459.842l-.001 8.66700001-5.446 2.724c-.339.169-.553.516-.553.894l-.001 14c0 .379.214.726.553.895l5.448 2.724-.001 8.381c0 .348.18.67.476.852l13 8c.16.099.341.148.524.148.153 0 .306-.035.447-.105l8.001-4c.339-.169.552-.516.552-.895v-46.00000001c0-.395-.231-.753-.593-.913zm5.566-1.087h-1.973v-2h3c.27 0 .528.109.717.303.187.193.29.454.283.724l-.093 3.462c1.815.481 3.55 1.196 5.176 2.132l2.099-2.358c.182-.205.442-.326.717-.334.264-.012.541.097.736.291l6.744 6.73000001c.195.194.301.46.294.735-.008.275-.129.535-.334.718l-2.351 2.101c.936 1.615 1.654 3.34 2.14 5.146l2.809-.178c.272-.015.545.08.747.269s.316.452.316.728v9.527c0 .276-.103.54-.304.729-.2.189-.473.291-.747.27l-2.799-.171c-.554 2.081-1.417 4.058-2.569 5.886l-1.691-1.066c1.181-1.876 2.027-3.924 2.512-6.088.108-.479.526-.81 1.037-.78l2.571.158-.009-7.398-2.578.163c-.486.037-.93-.297-1.038-.776-.493-2.164-1.343-4.208-2.527-6.076-.261-.413-.186-.955.179-1.281l2.18-1.948-5.245-5.23400001-1.947 2.186c-.325.366-.865.44300001-1.28.181-1.872-1.179-3.917-2.022-6.078-2.507-.467-.104-.794-.524-.781-1.002zm17.283 49.00000001h-14.966c-.286 0-.499-.047-.651-.143-.701-.442-1.535-1.294-1.535-2.843 0-1.925 1.223-2.643 2.25-2.906.462-.119.777-.55.749-1.028l-.04-.632c0-1.685 1.199-3.565 2.671-4.19.679-.288 1.305-.403 1.873-.403 1.618 0 2.761.93 3.26 1.432.556.559.992 1.28 1.296 2.143.124.349.43.601.796.656.37.055.733-.098.952-.396.353-.477.956-.677 1.496-.499.617.203.977.845.993 1.766-.058.524.301 1.007.825 1.097.835.144 2.776.724 2.776 2.994 0 2.56-2.341 2.911-2.745 2.952zm1.093-7.731c-.246-1.7-1.312-2.648-2.318-2.978-.859-.283-1.773-.194-2.546.203-.334-.608-.735-1.149-1.2-1.617-2-2.015-4.74-2.562-7.332-1.46-2.196.932-3.857 3.484-3.888 6.016-1.869.776-2.961 2.438-2.961 4.581 0 2.59 1.545 3.952 2.466 4.534.475.3 1.053.451 1.719.452h15.013c.024 0 .049-.001.073-.002 1.6-.117 4.626-1.302 4.626-4.95 0-2.72-1.769-4.207-3.652-4.779z" fill="#fff" transform="translate(12 12)"/></g></svg>