<svg height="80" viewBox="0 0 80 80" width="80" xmlns="http://www.w3.org/2000/svg"><g fill="none" fill-rule="evenodd"><path d="m0 0h80v80h-80z" fill="#c925d1"/><path d="m18.979 13.248c-10.156 0-16.979-2.908-16.979-5.624 0-2.715 6.823-5.624 16.979-5.624 10.036 0 16.033 2.86 16.033 5.624 0 2.765-5.997 5.624-16.033 5.624zm15.43 15.483c1.94 0 3.876.217 5.752.645l.445-1.95c-1.184-.27-2.39-.452-3.606-.565v-18.906h-.022c.009-.111.034-.218.034-.331 0-4.488-7.415-7.624-18.033-7.624-9.431 0-18.979 2.619-18.979 7.624 0 .114.031.22.04.331h-.04v40.358c0 2.88 3.13 5.205 8.814 6.546l.459-1.946c-4.485-1.06-7.273-2.822-7.273-4.6v-9.607c1.295 1.045 3.198 1.933 5.648 2.613l.535-1.926c-3.871-1.076-6.183-2.68-6.183-4.292v-9.74c3.073 2.535 9.256 3.91 15.417 4.165l.082-1.998c-9.702-.402-15.499-3.286-15.499-5.841v-10.474c3.284 2.656 10.152 4.035 16.979 4.035 7.33 0 13.13-1.495 16.021-3.896v15.396c-.197-.004-.394-.017-.591-.017-10.349 0-19.797 5.699-24.659 14.871l1.768.937c4.513-8.517 13.284-13.808 22.891-13.808zm13.228 3.643c-1.634-.976-3.375-1.77-5.176-2.36l.623-1.901c1.942.637 3.818 1.493 5.579 2.544zm-9.849 21.581c-.175-1.124-.639-2.151-1.319-3.002l11.339-10.721c3.622 3.516 5.873 8.529 6.13 13.723zm-6.317-3.414c2.087 0 3.83 1.462 4.28 3.414h-8.559c.45-1.952 2.193-3.414 4.279-3.414zm17.804-11.696 3.675-3.474-1.375-1.454-16.587 15.683c-1.01-.668-2.218-1.059-3.517-1.059-3.193 0-5.839 2.353-6.316 5.414h-11.291c.515-10.764 9.305-19.359 20.037-19.359 2.886 0 5.669.598 8.274 1.779l.826-1.821c-2.866-1.3-5.928-1.958-9.1-1.958-12.164 0-22.061 10.03-22.061 22.359v1h44.122v-1c0-6.046-2.488-11.999-6.687-16.11z" fill="#fff" transform="translate(12 12)"/></g></svg>