<svg height="80" viewBox="0 0 80 80" width="80" xmlns="http://www.w3.org/2000/svg"><g fill="none" fill-rule="evenodd"><path d="m0 0h80v80h-80z" fill="#8c4fff"/><path d="m43.23 64.784c1.073-.918 1.77-2.265 1.77-3.784 0-2.415-1.721-4.434-4-4.899v-8.171c3.611-.453 6.476-3.319 6.93-6.93h8.171c.464 2.279 2.484 4 4.899 4 1.519 0 2.866-.696 3.784-1.77-1.453 11.205-10.349 20.101-21.554 21.554m-28.015-21.554c.918 1.074 2.265 1.77 3.785 1.77 2.414 0 4.434-1.721 4.898-4h8.171c.454 3.611 3.319 6.477 6.931 6.93v8.171c-2.28.465-4 2.484-4 4.899 0 1.519.696 2.866 1.769 3.784-11.205-1.453-20.101-10.349-21.554-21.554m6.785-3.23c0 1.654-1.346 3-3 3-1.655 0-3-1.346-3-3s1.345-3 3-3c1.654 0 3 1.346 3 3m14.769-24.784c-1.073.918-1.769 2.264-1.769 3.784 0 2.414 1.72 4.434 4 4.899v8.17c-3.612.454-6.477 3.319-6.931 6.931h-8.171c-.464-2.279-2.484-4-4.898-4-1.52 0-2.867.696-3.785 1.769 1.453-11.205 10.349-20.1 21.554-21.553m3.231.784c1.654 0 3 1.346 3 3s-1.346 3-3 3c-1.655 0-3-1.346-3-3s1.345-3 3-3m0 30c-3.309 0-6-2.692-6-6 0-3.309 2.691-6 6-6 3.308 0 6 2.691 6 6 0 3.308-2.692 6-6 6m0 18c-1.655 0-3-1.346-3-3s1.345-3 3-3c1.654 0 3 1.346 3 3s-1.346 3-3 3m24-24c0 1.654-1.346 3-3 3-1.655 0-3-1.346-3-3s1.345-3 3-3c1.654 0 3 1.346 3 3m.784-3.231c-.918-1.073-2.265-1.769-3.784-1.769-2.415 0-4.435 1.721-4.899 4h-8.171c-.454-3.612-3.319-6.477-6.93-6.931v-8.17c2.279-.465 4-2.485 4-4.899 0-1.52-.697-2.866-1.77-3.784 11.205 1.453 20.101 10.348 21.554 21.553m-24.784-23.769c-14.888 0-27 12.112-27 27s12.112 27 27 27c14.887 0 27-12.112 27-27s-12.113-27-27-27" fill="#fff"/></g></svg>