<svg height="80" viewBox="0 0 80 80" width="80" xmlns="http://www.w3.org/2000/svg"><g fill="none" fill-rule="evenodd"><path d="m0 0h80v80h-80z" fill="#7aa116"/><path d="m21.288 14.375c.251.086.526.069.767-.049.136-.067.237-.117 3.562-3.004l3.345 2.866c.268.231.641.305.974.187l4.134-1.417-2.344 4.042h-12.207l-2.356-4.039zm-2.343 4.625h13.357c.356 0 .686-.189.865-.498l3.976-6.857c.209-.36.172-.813-.092-1.136-.265-.322-.701-.447-1.097-.311l-6.125 2.1-3.566-3.056c-.376-.324-.933-.321-1.307.005-1.355 1.177-2.852 2.47-3.545 3.056l-6.142-2.105c-.394-.136-.833-.011-1.097.312-.265.323-.301.777-.091 1.138l4 6.856c.18.308.509.496.864.496zm37.055 14.989-6.047 2.938c-.139.068-.288.101-.439.101-.121 0-.242-.022-.358-.065-.258-.099-.465-.3-.57-.556l-2.543-6.189 1.857-.759 1.863 4.535c.794-2.436 1.22-4.97 1.22-7.56 0-13.472-10.985-24.432-24.488-24.432s-24.489 10.96-24.489 24.432c0 3.296.647 6.496 1.924 9.509l-1.848.779c-1.382-3.262-2.082-6.723-2.082-10.288 0-14.576 11.885-26.434 26.495-26.434 14.609 0 26.495 11.858 26.495 26.434 0 2.488-.354 4.932-1.033 7.294l3.165-1.538zm-13.055-15.53h2c0 1.709-1.093 3.16-2.72 3.611-.323.089-.647.133-.967.133-1.29 0-2.503-.709-3.253-1.959-.249-.414-.474-.598-.589-.598h-.004c-.405.016-1.193.979-1.601 1.798-.169.34-.516.556-.896.556h-16.97v-2h16.38c.519-.861 1.591-2.294 3.004-2.353.673-.033 1.585.226 2.391 1.568.473.79 1.21 1.137 1.972.927.623-.173 1.253-.76 1.253-1.683zm-12.983 25.101c0 1.77-1.32 3.219-3.017 3.436v-6.796c1.502.417 3.017 1.479 3.017 3.36zm-6.897-8.961c0-1.346.77-2.503 1.88-3.081v5.979c-1.043-.566-1.88-1.504-1.88-2.898zm6.897 0h2c0-2.875-2.214-5.236-5.017-5.458v-1.141h-2v1.353c-2.241.679-3.88 2.772-3.88 5.246 0 2.307 1.518 4.216 3.88 5.082v6.96c-1.11-.579-1.88-1.735-1.88-3.081h-2c0 2.473 1.639 4.566 3.88 5.246v2.194h2v-1.982c2.803-.223 5.017-2.583 5.017-5.458 0-2.66-2.01-4.794-5.017-5.403v-6.994c1.697.217 3.017 1.667 3.017 3.436zm-4.017 19.401c-9.546 0-15.476-5.188-15.476-13.541 0-8.754 6.807-13.668 9.044-15.284.088-.063.169-.121.242-.175h12.38c.073.054.154.112.242.176 2.237 1.615 9.045 6.529 9.045 15.283 0 8.353-5.931 13.541-15.477 13.541zm7.603-30.446c-.198-.143-.354-.254-.457-.336-.177-.141-.397-.218-.622-.218h-13.048c-.226 0-.446.077-.622.218-.104.082-.259.193-.456.336-6.552 4.73-9.874 10.418-9.874 16.905 0 9.441 6.86 15.541 17.476 15.541s17.477-6.1 17.477-15.541c0-6.487-3.322-12.175-9.874-16.905z" fill="#fff" transform="translate(13 12)"/></g></svg>