<svg height="80" viewBox="0 0 80 80" width="80" xmlns="http://www.w3.org/2000/svg"><g fill="none" fill-rule="evenodd"><path d="m0 0h80v80h-80z" fill="#ed7100"/><path d="m49.831938 60.4450687c.306998.4589958.1829988 1.0809902-.2769981 1.3869874l-8.9909399 5.9919455c-.1599989.110999-.3549976.1759984-.5649962.1759984s-.4049973-.0649994-.5659962-.1759984l-8.9879399-5.9919455c-.4599969-.3059972-.5839961-.9279916-.2769982-1.3869874.305998-.4599958.9249939-.5849947 1.3869908-.2769975l7.4439502 4.9629549v-9.1309079c0-.5530041.446997-1 .9999933-1s.9999933.4469959.9999933 1v9.1319079l7.4459502-4.9639549c.4599969-.3079972 1.0799928-.1829983 1.3869907.2769975zm12.1679187-8.0039273-5.4999633 3.3839693-5.4999632-3.3839693v-5.8829465l5.4999632-3.3839692 5.4999633 3.3839692zm1.5239898-7.2929337-6.4999566-3.9999636c-.3219978-.1979982-.7259951-.1979982-1.047993 0l-6.4999565 3.9999636c-.295998.1819984-.4759968.5049955-.4759968.8519923v6.9999364c0 .3469968.1799988.6689939.4759968.8509922l6.4999565 3.9999637c.160999.0989991.3419978.1489986.5239965.1489986.1819988 0 .3629976-.0499995.5239965-.1489986l6.4999566-3.9999637c.295998-.1819983.4759968-.5039954.4759968-.8509922v-6.9999364c0-.3469968-.1799988-.6699939-.4759968-.8519923zm-34.5237691 7.2929337-5.4999633 3.3839693-5.4999632-3.3839693v-5.8829465l5.4999632-3.3839692 5.4999633 3.3839692zm1.9999866.558995v-6.9999364c0-.3469968-.1799988-.6699939-.4759968-.8519923l-6.4999566-3.9999636c-.3219978-.1979982-.7259951-.1979982-1.047993 0l-6.4999565 3.9999636c-.295998.1819984-.4759968.5049955-.4759968.8519923v6.9999364c0 .3469968.1799988.6689939.4759968.8509922l6.4999565 3.9999637c.160999.0989991.3419978.1489986.5239965.1489986.1819988 0 .3629976-.0499995.5239965-.1489986l6.4999566-3.9999637c.295998-.1819983.4759968-.5039954.4759968-.8509922zm-14.9998997-15.9998546v-9.9819092c-.003-.1669985.0349998-.337997.1209992-.4949955v-.001c.003-.005.0059999-.0099999.0089999-.0149999 0-.001.001-.001.001-.002.0969994-.1699984.2359984-.3009972.3969974-.3869965l8.9869399-4.9919546c.4809967-.2689975 1.0909927-.0949991 1.3589909.3879965.2689982.4829956.0949993 1.0919901-.3889974 1.3599876l-7.4249504 4.1259625 7.4249504 4.1259625c.4839967.2679976.6579956.876992.3889974 1.3599877-.2679982.4809956-.8779942.656994-1.3589909.3879964l-7.5149498-4.174962v8.3009245c0 .551995-.446997.9999909-.9999933.9999909s-.9999933-.4479959-.9999933-.9999909zm18.9998729-18.4418323 5.4999632-3.3839693 5.4999633 3.3839693v5.8829465l-5.4999633 3.3839692-5.4999632-3.3839692zm-1.5239898 7.2929337 6.4999565 3.9999636c.160999.0989991.3419978.1489987.5239965.1489987.1819988 0 .3629976-.0499996.5239965-.1489987l6.4999566-3.9999636c.295998-.1819984.4759968-.5039954.4759968-.8509923v-6.9999364c0-.3469968-.1799988-.6699939-.4759968-.8519922l-6.4999566-3.9999636c-.3219978-.1979983-.7259951-.1979983-1.047993 0l-6.4999565 3.9999636c-.295998.1819983-.4759968.5049954-.4759968.8519922v6.9999364c0 .3469969.1799988.6689939.4759968.8509923zm30.5237959 1.1669894v9.9819092c0 .551995-.446997.9999909-.9999933.9999909s-.9999933-.4479959-.9999933-.9999909v-8.3009245l-7.5149498 4.174962c-.4809968.2689976-1.0899927.0939992-1.3589909-.3879964-.2689982-.4829957-.0949994-1.0919901.3889974-1.3599877l7.4259503-4.1259625-7.4259503-4.1259625c-.4839968-.2679975-.6579956-.876992-.3889974-1.3599876s.8779941-.656994 1.3589909-.3879965l8.9869399 4.9919546c.1639989.0869993.304998.221998.4019973.3959964.0889994.1599986.1289992.332997.1259992.5039955zm-28.9998061 5.6879483 12.9599134 7.2619339-12.9599134 7.3189335zm-1.5039899 17.156844c.1549989.0909992.3299978.1369987.5040033.1369987.1699922 0 .338991-.0429996.49199-.1299988l15.999893-9.0349178c.3149979-.1769984.5089966-.5109954.5080005-.8719921-.0010039-.3609967-.1960026-.6939937-.5110005-.8709921l-15.999893-8.9649185c-.3099979-.1729984-.6879954-.1689985-.9949933.0099999-.305998.1799984-.4939967.5079954-.4939967.8629922v17.9998363c0 .3549968.1879987.6839938.4959967.8629922z" fill="#fff"/></g></svg>