<svg height="80" viewBox="0 0 80 80" width="80" xmlns="http://www.w3.org/2000/svg"><g fill="none" fill-rule="evenodd"><path d="m0 0h80v80h-80z" fill="#01a88d"/><path d="m8.96593273 6.581v35.327l-6.79-33.93zm30.99999997-3.354 5.37 4.773h-5.37zm-29-1.227h27v7c0 .553.447 1 1 1h8v23h2v-24c0-.285-.122-.557-.336-.747l-9-8c-.183-.163-.419-.253-.664-.253h-28.99999997c-.553 0-1 .448-1 1v3.539l-8.167 1.681c-.539.111-.888.636-.779 1.175l8.966 44.802.019-.004c.092.457.477.807.961.807h23.99999997v-2h-23zm4 37h18v-2h-18zm0-6h25v-2h-25zm0-18h19v-2h-19zm0 12h27v-2h-27zm9-6h18v-2h-18zm-9 0h7v-2h-7zm39 27h-5c-.553 0-1 .448-1 1v5h-5v-5c0-.552-.447-1-1-1h-5v-5h5c.553 0 1-.447 1-1v-5h5v5c0 .553.447 1 1 1h5zm1-7h-5v-5c0-.552-.447-1-1-1h-7c-.553 0-1 .448-1 1v5h-5c-.553 0-1 .448-1 1v7c0 .553.447 1 1 1h5v5c0 .553.447 1 1 1h7c.553 0 1-.447 1-1v-5h5c.553 0 1-.447 1-1v-7c0-.552-.447-1-1-1z" fill="#fff" transform="translate(12 12)"/></g></svg>