<svg height="80" viewBox="0 0 80 80" width="80" xmlns="http://www.w3.org/2000/svg"><g fill="none" fill-rule="evenodd"><path d="m0 0h80v80h-80z" fill="#c925d1"/><path d="m26.6240719 36h15v-2h-15zm0-15h13v-2h-13zm0-8h19v-2h-19zm24.659 27.002c-.898-1.535-2.546-2.579-4.449-2.579-2.293 0-4.218 1.508-4.896 3.577h-7.314c-.553 0-1 .448-1 1v3.4l-3.05-4.006c-.19-.248-.484-.394-.796-.394h-3.427c-1.716 0-3.355-.745-4.5-2.044-1.156-1.313-1.672-2.994-1.45-4.734.379-2.977 3.065-5.222 6.251-5.222h21.127c2.874 0 5.413 1.915 6.037 4.553.598 2.531-.451 5.076-2.533 6.449zm-4.449 5.766c-1.75 0-3.173-1.423-3.173-3.172 0-1.75 1.423-3.173 3.173-3.173s3.172 1.423 3.172 3.173c0 1.749-1.422 3.172-3.172 3.172zm6.233 8.232h-12.468c.447-3.297 3.072-5.837 6.235-5.837 1.127 0 2.235.328 3.201.947 1.644 1.055 2.754 2.872 3.032 4.89zm-50.62399999-34.993c-1.062-4.152-.191-8.438 2.387-11.757 2.59-3.336 6.47699999-5.25 10.66499999-5.25h25.045c6.097 0 11.488 3.931 13.107 9.559 1.664 5.786-.416 11.689-5.302 15.059l-.795.382h-20.898c-2.098 0-4.032.751-5.504 2h-5.447c-6.30199999 0-11.75399999-4.109-13.25799999-9.993zm53.31899999 14.085c-.624-2.637-2.657-4.734-5.226-5.626 4.84-3.955 6.814-10.266 5.033-16.46-1.864-6.48-8.045-11.006-15.029-11.006h-25.045c-4.81 0-9.27299999 2.195-12.24499999 6.023-2.959 3.811-3.96 8.725-2.745 13.479 1.731 6.77 7.979 11.498 15.19599999 11.498h3.754c-.536.893-.901 1.894-1.038 2.97-.29 2.284.414 4.583 1.933 6.308 1.525 1.73 3.711 2.722 6.001 2.722h2.932l4.545 5.97c.193.253.49.394.796.394.106 0 .214-.017.319-.052.407-.138.681-.519.681-.948v-5.364h6.078c.122 1.553.918 2.912 2.112 3.777-3.087 1.289-5.282 4.485-5.282 8.223 0 .552.447 1 1 1h14.603c.553 0 1-.448 1-1 0-3.127-1.503-5.958-4.02-7.574-.404-.258-.831-.464-1.267-.645 1.302-.941 2.158-2.461 2.158-4.185 0-.224-.038-.438-.066-.654 3.068-1.747 4.66-5.309 3.822-8.85zm-45.542-10.092c.442-2.964 2.815-5.234 5.666-5.234 1.028 0 2.034.298 2.913.862 1.476.946 2.479 2.566 2.752 4.372zm5.667-13.033c1.573 0 2.851 1.279 2.851 2.851 0 1.573-1.278 2.852-2.851 2.852s-2.852-1.279-2.852-2.852c0-1.572 1.279-2.851 2.852-2.851zm7.74 14.033c0-2.913-1.401-5.551-3.748-7.056-.273-.175-.557-.325-.847-.462 1.035-.891 1.706-2.194 1.706-3.664 0-2.675-2.176-4.851-4.851-4.851-2.676 0-4.852 2.176-4.852 4.851 0 1.471.671 2.774 1.708 3.665-2.705 1.285-4.59699999 4.168-4.59699999 7.517 0 .552.447 1 1 1h13.48099999c.552 0 1-.448 1-1z" fill="#fff" transform="translate(12 12)"/></g></svg>