<svg height="80" viewBox="0 0 80 80" width="80" xmlns="http://www.w3.org/2000/svg"><g fill="none" fill-rule="evenodd"><path d="m0 0h80v80h-80z" fill="#c925d1"/><path d="m19.001 30.99925h20v-2h-20zm9.655 20.379 1 1.732-4.773 2.756c-.154.09-.327.134-.5.134s-.346-.044-.5-.134l-23.383-13.5c-.309-.179-.5-.509-.5-.866v-27c0-.357.191-.688.5-.866l23.383-13.5c.309-.179.692-.179 1 0l23.383 13.5c.309.178.5.509.5.866v2.5h-2v-1.923l-22.383-12.922-22.383 12.922v25.846l22.383 12.922zm8.396 2.622c.461-4.377 3.903-7.789 8.069-7.789 1.457 0 2.886.423 4.132 1.223 2.193 1.406 3.645 3.861 3.935 6.566zm8.069-18.571c2.323 0 4.211 1.889 4.211 4.211s-1.888 4.212-4.211 4.212c-2.322 0-4.212-1.89-4.212-4.212s1.89-4.211 4.212-4.211zm-5.984 2.57h-8.137c-.552 0-1 .448-1 1v4.586l-5.293-5.293c-.187-.188-.441-.293-.707-.293h-5c-4.411 0-8-3.589-8-8s3.589-8 8-8h27c4.411 0 8 3.589 8 8 0 2.66-1.316 5.104-3.476 6.587-1.069-1.882-3.088-3.157-5.403-3.157-2.856 0-5.262 1.94-5.984 4.57zm11.196 7.751c-.582-.374-1.205-.659-1.842-.899 1.707-1.108 2.841-3.028 2.841-5.211 0-.389-.04-.769-.109-1.138 2.953-1.815 4.777-5.007 4.777-8.503 0-5.514-4.486-10-10-10h-27c-5.513 0-10 4.486-10 10s4.487 10 10 10h4.586l6.707 6.708c.192.191.448.293.707.293.129 0 .259-.025.383-.076.373-.155.617-.52.617-.924v-6.001h6.928c.116 2.028 1.205 3.797 2.811 4.845-3.92 1.488-6.739 5.472-6.739 10.156 0 .552.448 1 1 1h18.242c.552 0 1-.448 1-1 0-3.82-1.835-7.278-4.909-9.25z" fill="#fff" transform="translate(12 12)"/></g></svg>