<svg height="80" viewBox="0 0 80 80" width="80" xmlns="http://www.w3.org/2000/svg"><g fill="none" fill-rule="evenodd"><path d="m0 0h80v80h-80z" fill="#8c4fff"/><path d="m47 35.51c0-.828.672-1.5 1.5-1.5s1.5.672 1.5 1.5-.672 1.5-1.5 1.5-1.5-.672-1.5-1.5zm-3-3c0-.828.672-1.5 1.5-1.5s1.5.672 1.5 1.5-.672 1.5-1.5 1.5-1.5-.672-1.5-1.5zm-17 2.5h-2v-2h2v-2h2v2h2v2h-2v2h-2zm26 10c0 3.585-1.712 4-3 4-2.36 0-4.75-4.29-6.414-7.776 1.037.492 2.192.776 3.414.776 2.39 0 4.532-1.059 6-2.726zm-28 4c-1.3 0-2.121-.486-2.585-1.53-.414-.931-.414-2.009-.414-2.47l-.001-5.726c1.468 1.667 3.61 2.726 6 2.726 1.222 0 2.377-.284 3.414-.776-1.664 3.486-4.054 7.776-6.414 7.776zm3-21c3.309 0 6 2.691 6 6 0 3.308-2.691 6-6 6s-6-2.692-6-6c0-3.309 2.691-6 6-6zm11.589 9h-4.178c.377-.928.589-1.939.589-3 0-1.892-.663-3.629-1.765-5h6.53c-1.102 1.371-1.765 3.108-1.765 5 0 1.061.212 2.072.589 3zm13.411-3h-.001v.019c-.011 3.3-2.697 5.981-5.999 5.981-3.309 0-6-2.692-6-6 0-3.309 2.691-6 6-6s6 2.691 6 6zm2 0c0-4.411-3.589-8-8-8-1.401 0-2.718.364-3.864 1h-11.272c-1.146-.636-2.463-1-3.864-1-4.411 0-8 3.589-8 8l.001 11c0 .537 0 1.963.586 3.282.551 1.24 1.765 2.718 4.413 2.718 4.196 0 7.247-6.728 9.266-11.18.13-.286.254-.561.373-.82h5.722c.119.259.243.534.373.82 2.019 4.452 5.07 11.18 9.266 11.18 1.503 0 5-.585 5-6l-.001-10.981c0-.006.001-.013.001-.019zm-47.287-25.01h38.574l5.713 4.486v2.514h-8v-3c0-.553-.447-1-1-1h-5c-.553 0-1 .447-1 1v3h-20v-3c0-.553-.447-1-1-1h-5c-.553 0-1 .447-1 1v3h-8.001l.001-2.514zm8.287-6.942v-.058h21.836c.105 0 .159.06.164.074v4.926h-22zm23 18.942h3v-7h-3zm-24 0h-3v-3-2-2h3zm-12.001 13.685v-16.685h7.001v4c0 .552.447 1 1 1h5c.553 0 1-.448 1-1v-4h20v4c0 .552.447 1 1 1h5c.553 0 1-.448 1-1v-4h7v7h2v-5.999c.553 0 1-.448 1-1v-5.001c0-.308-.141-.597-.383-.787l-6.367-5c-.176-.138-.394-.213-.617-.213h-6.633v-4.926c0-1.144-.971-2.074-2.164-2.074h-22.202c-.697 0-1.236.338-1.479.928-.155.375-.155.759-.155 1.146v4.926h-6.633c-.223 0-.441.075-.617.213l-6.367 5c-.242.19-.383.479-.383.787v5c0 .551.447.999.999 1v15.685c0 1.828 1.487 3.315 3.314 3.315h13.686v-2h-13.686c-.724 0-1.314-.59-1.314-1.315z" fill="#fff" transform="translate(13 17)"/></g></svg>