<svg height="80" viewBox="0 0 80 80" width="80" xmlns="http://www.w3.org/2000/svg"><g fill="none" fill-rule="evenodd"><path d="m0 0h80v80h-80z" fill="#e7157b"/><path d="m37.1966696 58.8503867-1.4184359 1.4184358-2.8368716-2.8378748 1.4184358-1.4184358zm-14.1873678-14.1863647 2.838878 2.8378748-1.419439 1.4184359-2.8378748-2.8378748zm5.6757496 5.6747465 2.8368717 2.8368717-1.4184358 1.4184358-2.8368717-2.8368717zm24.5608084-18.7987889-2.8448968-2.8288466 1.4144233-1.4224484 2.8448968 2.8288466zm5.6907967 5.6586963-2.8448968-2.8288466 1.4144233-1.4224484 2.8448967 2.8288466zm-14.2264902-14.1472423 1.4144233-1.4214453 2.8448968 2.8288466-1.4144233 1.4224484zm13.3216605 21.6507076 1.4144233 1.4214453-2.8448968 2.8298497-1.4144233-1.4224484zm-5.6907967 5.6586963 1.4144233 1.4224484-2.8448968 2.8288466-1.4144232-1.4224484zm-5.6907966 5.6586963 1.4144232 1.4224484-2.8448967 2.8288466-1.4144233-1.4224484zm-24.5006202-18.8228642-1.4184358-1.4184359 2.8368717-2.8378748 1.4184358 1.4184359zm11.3484899-11.3484898-1.4184359-1.4184359 2.838878-2.8378748 1.4184358 1.4184359zm-5.6737434 5.6737433-1.4184358-1.4184358 2.8368717-2.8368717 1.4184358 1.4184358zm8.9690487 5.2714854c.7653936-.7653936 1.712355-1.2448931 2.7034544-1.4364923v4.1399467h-4.1399467c.1915992-.9910994.6700955-1.9370577 1.4364923-2.7034544zm7.413183 0c.7663968.7663967 1.2448931 1.712355 1.4364923 2.7034544h-4.1399467v-4.1399467c.9910994.1915992 1.9380608.6710987 2.7034544 1.4364923zm0 7.413183c-.7653936.7663968-1.712355 1.2448931-2.7034544 1.4364923v-4.1399467h4.1399467c-.1915992.9910994-.6700955 1.9370577-1.4364923 2.7034544zm-7.413183 0c-.7663968-.7663967-1.2448931-1.712355-1.4364923-2.7034544h4.1399467v4.1399467c-.9910994-.1915992-1.9380608-.6700955-2.7034544-1.4364923zm-5.6155614-.4032611-2.3001933-2.3001933h4.4549317c.2096557 1.5087182.8847669 2.9642701 2.0423871 4.1218903s2.6131721 1.8327314 4.1218903 2.0423871v4.4549317l-2.3001933-2.3001933-1.4184359 1.4184359 4.7217663 4.7217662 4.7217663-4.7217662-1.4184359-1.4184359-2.3001933 2.3001933v-4.4549317c1.5087182-.2096557 2.9652732-.8847669 4.1218903-2.0423871 1.1576202-1.1576202 1.8327314-2.6131721 2.0423871-4.1218903h4.4549317l-2.3001933 2.3001933 1.4184359 1.4184359 4.7217662-4.7217663-4.7217662-4.7217663-1.4184359 1.4184359 2.3001933 2.3001933h-4.4549317c-.2096557-1.5087182-.8847669-2.9642701-2.0423871-4.1218903s-2.6131721-1.8327314-4.1218903-2.0413839v-4.4559349l2.3001933 2.3001933 1.4184359-1.4184359-4.7217663-4.7217662-4.7217663 4.7217662 1.4184359 1.4184359 2.3001933-2.3001933v4.4559349c-1.5087182.2086525-2.9642701.8837637-4.1218903 2.0413839s-1.8327314 2.6131721-2.0423871 4.1218903h-4.4549317l2.3001933-2.3001933-1.4184359-1.4184359-4.7217662 4.7217663 4.7217662 4.7217663zm9.3221529 21.3597979-1.5909754-1.5909754 1.5909754-1.5909754 1.5909754 1.5909754zm-4.4278471-1.5909754 4.4278471 4.4278471 4.4278471-4.4278471-4.4278471-4.4278471zm-20.2352812-23.0721529 1.5909754-1.5909754 1.5909754 1.5909754-1.5909754 1.5909754zm1.5909754-4.4278471-4.4278471 4.4278471 4.4278471 4.4278471 4.4278471-4.4278471zm44.5533304 4.4278471 1.5909754-1.5909754 1.5909754 1.5909754-1.5909754 1.5909754zm1.5909754-4.4278471-4.4278471 4.4278471 4.4278471 4.4278471 4.4278471-4.4278471zm-23.0721529-20.2352812 1.5909754 1.5909754-1.5909754 1.5909754-1.5909754-1.5909754zm4.4278471 1.5909754-4.4278471-4.4278471-4.4278471 4.4278471 4.4278471 4.4278471z" fill="#fff"/></g></svg>