<svg height="80" viewBox="0 0 80 80" width="80" xmlns="http://www.w3.org/2000/svg"><g fill="none" fill-rule="evenodd"><path d="m0 0h80v80h-80z" fill="#ed7100"/><path d="m32.591 32.745-7.909 7.91 7.909 7.909 1.414-1.414-6.495-6.495 6.495-6.496zm-18.591 31.255h26v-48h-26zm-2 2h30v-52h-30zm5.238-26c0 11.383 9.26 20.643 20.643 20.643v-2c-10.279 0-18.643-8.363-18.643-18.643s8.364-18.643 18.643-18.643v-2c-11.383 0-20.643 9.26-20.643 20.643zm26.469 10.399v2c6.837 0 12.4-5.562 12.4-12.399s-5.563-12.4-12.4-12.4v2c5.735 0 10.4 4.666 10.4 10.4s-4.665 10.399-10.4 10.399zm25.293-14.546v8.294c0 1.123-.914 2.036-2.037 2.036h-3.547c-.398 1.309-.926 2.58-1.575 3.794l2.511 2.511c.385.384.596.896.596 1.44s-.211 1.056-.596 1.441l-5.865 5.864c-.769.769-2.111.77-2.88-.001l-2.511-2.51c-1.213.648-2.484 1.176-3.793 1.575v3.547c0 1.123-.914 2.037-2.037 2.037h-4.147v-2h4.147l.037-5.109.744-.197c1.648-.436 3.234-1.095 4.719-1.959l.665-.387 3.591 3.59 5.916-5.865-3.59-3.642.388-.665c.865-1.486 1.524-3.074 1.959-4.719l.197-.745h5.071l.037-8.33-5.108-.037-.197-.744c-.435-1.645-1.094-3.233-1.959-4.719l-.388-.666 3.59-3.589-5.865-5.917-3.642 3.59-.665-.387c-1.485-.864-3.071-1.523-4.719-1.959l-.744-.198v-5.071l-4.099-.037v-2h4.062c1.123 0 2.037.914 2.037 2.037v3.547c1.309.399 2.58.927 3.793 1.575l2.512-2.511c.767-.77 2.11-.769 2.879-.001l5.865 5.866c.385.384.596.896.596 1.44s-.211 1.055-.596 1.44l-2.511 2.511c.649 1.214 1.177 2.485 1.575 3.793h3.547c1.123 0 2.037.914 2.037 2.037z" fill="#fff"/></g></svg>