<svg height="80" viewBox="0 0 80 80" width="80" xmlns="http://www.w3.org/2000/svg"><g fill="none" fill-rule="evenodd"><path d="m0 0h80v80h-80z" fill="#ed7100"/><path d="m50.4868099 45.9605228c0-1.6576276-1.3442246-3.0065796-2.996043-3.0065796-1.6518183 0-2.996043 1.348952-2.996043 3.0065796 0 1.6576275 1.3442247 3.0065795 2.996043 3.0065795 1.6518184 0 2.996043-1.348952 2.996043-3.0065795m-10.9854909-10.0219318c1.6518184 0 2.996043-1.3489521 2.996043-3.0065796s-1.3442246-3.0065795-2.996043-3.0065795c-1.6518183 0-2.9960429 1.348952-2.9960429 3.0065795s1.3442246 3.0065796 2.9960429 3.0065796m-8.9881289 11.0241249c1.6518184 0 2.996043-1.348952 2.996043-3.0065795s-1.3442246-3.0065795-2.996043-3.0065795c-1.6518183 0-2.9960429 1.348952-2.9960429 3.0065795s1.3442246 3.0065795 2.9960429 3.0065795m21.9709817-1.0021931c0 2.4202965-1.7187299 4.4437245-3.9947239 4.9097444v6.1143805c0 .5532107-.4464104 1.0021932-.998681 1.0021932h-6.9907669v6.0131591h-1.997362v-11.024125h-7.9894479c-.5522706 0-.998681-.4489825-.998681-1.0021932v-3.107801c-2.2759939-.4660198-3.9947239-2.4894479-3.9947239-4.9097444 0-2.7630466 2.2400414-5.0109659 4.9934049-5.0109659s4.993405 2.2479193 4.993405 5.0109659c0 2.4202965-1.71873 4.4437246-3.994724 4.9097444v2.1056079h6.9907669v-13.1297329c-2.2759939-.4660198-3.9947239-2.4894478-3.9947239-4.9097444 0-2.7630466 2.2400414-5.0109659 4.9934049-5.0109659s4.9934049 2.2479193 4.9934049 5.0109659c0 2.4202966-1.7187299 4.4437246-3.9947239 4.9097444v18.1406988h5.9920859v-5.1121874c-2.2759939-.4660199-3.9947239-2.4894479-3.9947239-4.9097444 0-2.7630466 2.2400414-5.0109659 4.9934049-5.0109659s4.9934049 2.2479193 4.9934049 5.0109659m14.5158282-4.94883c0 7.3430695-5.4557942 9.9597959-10.5610514 9.9597959v-2.0043864c2.5745995 0 8.5636894-.7756975 8.5636894-7.9554095 0-5.3717554-4.0706237-7.3190167-7.485114-8.0065213-.4454117-.0891952-.7739777-.4690264-.8009421-.9230199-.2476729-4.207207-2.6904466-5.7004748-4.7087809-5.7004748-1.3641982 0-2.6435086.6524278-3.509365 1.7909192-.2207085.2916382-.5842283.4399628-.9437535.38384-.3595252-.0541184-.6621255-.3016601-.7879593-.6454124-.7819672-2.1316649-1.9044846-3.9175731-3.3375919-5.3086173-3.6821368-3.5828406-8.718485-4.554968-13.4742038-2.5976847-3.9487847 1.613531-7.040701 6.2787403-7.040701 10.6212433 0 .4800506.0289617.9621055.0878839 1.4331363.0619182.5041031-.2606557.9751339-.7510081 1.0963993-2.3359148.5802699-6.2537403 2.3621693-6.2537403 7.7810279 0 .2054496.0089881.4018794.0189749.5872852.2336914 4.1721302 3.9168268 7.4432887 8.3859243 7.4432887h1.117524v2.0043864h-1.117524c-5.5276993 0-10.0876767-4.1019767-10.3802902-9.3384361-.0109855-.2224869-.021971-.4539935-.021971-.6965242 0-6.2967798 4.3512531-8.6489272 6.9408329-9.4887651-.0169776-.2735987-.0239684-.5481996-.0239684-.8217984 0-5.1843453 3.5612964-10.5480832 8.2840588-12.4763029 5.5087243-2.2659588 11.3480121-1.141498 15.6173733 3.0125927 1.3132655 1.2737876 2.3958357 2.8241804 3.2297343 4.622115 1.1255135-.9069849 2.5066893-1.4070793 3.9597701-1.4070793 2.9590918 0 6.0689844 2.1186364 6.6352365 6.8259378 5.3968721 1.3208906 8.3569625 4.7814637 8.3569625 9.8084646" fill="#fff"/></g></svg>