<svg height="80" viewBox="0 0 80 80" width="80" xmlns="http://www.w3.org/2000/svg"><g fill="none" fill-rule="evenodd"><path d="m0 0h80v80h-80z" fill="#c925d1"/><path d="m56.5 59.453c-1.93 0-3.5-1.57-3.5-3.5s1.57-3.5 3.5-3.5 3.5 1.57 3.5 3.5-1.57 3.5-3.5 3.5zm0-9c-3.032 0-5.5 2.467-5.5 5.5s2.468 5.5 5.5 5.5 5.5-2.467 5.5-5.5-2.468-5.5-5.5-5.5zm10.236 6.539-.833-.048c-.472-.028-.924.301-1.032.778-.219.967-.599 1.884-1.129 2.725-.261.413-.184.954.18 1.279l.622.556-1.704 1.704-.552-.619c-.327-.367-.868-.44-1.28-.18-.841.531-1.758.911-2.727 1.13-.477.108-.806.545-.778 1.033l.047.827h-2.409l.047-.828c.028-.489-.301-.925-.778-1.033-.967-.219-1.884-.599-2.725-1.131-.414-.26-.956-.187-1.281.18l-.553.621-1.705-1.704.621-.554c.364-.325.44-.866.179-1.28-.53-.84-.909-1.757-1.128-2.725-.107-.478-.588-.807-1.032-.779l-.831.048v-2.411l.835.048c.465.015.924-.3 1.032-.777.22-.967.6-1.882 1.13-2.721.261-.413.185-.955-.18-1.281l-.626-.559 1.705-1.704.558.626c.326.365.867.44 1.279.179.84-.529 1.755-.908 2.722-1.126.477-.108.806-.544.778-1.032l-.047-.838h2.41l-.048.839c-.028.488.301.925.777 1.032.965.218 1.88.597 2.721 1.127.41.26.954.186 1.279-.18l.56-.627 1.705 1.704-.625.558c-.364.325-.441.867-.179 1.28.53.838.909 1.754 1.128 2.721.108.478.562.794 1.032.779l.835-.048zm1.687-4.197c-.199-.188-.475-.288-.743-.271l-1.08.062c-.193-.618-.441-1.215-.742-1.787l.808-.72c.205-.183.326-.443.334-.718s-.099-.541-.293-.735l-3.201-3.202c-.195-.195-.454-.309-.735-.292-.276.008-.536.128-.718.334l-.724.811c-.572-.301-1.168-.548-1.783-.74l.061-1.084c.016-.275-.082-.544-.271-.744s-.451-.313-.727-.313h-4.527c-.275 0-.538.113-.727.313s-.287.469-.271.744l.062 1.083c-.618.192-1.213.438-1.786.739l-.722-.81c-.184-.205-.444-.325-.718-.333-.257-.014-.541.097-.735.292l-3.202 3.202c-.194.194-.3.46-.293.735.008.275.129.535.334.718l.81.722c-.301.572-.548 1.168-.741 1.785l-1.081-.062c-.279-.018-.545.083-.743.271-.201.189-.314.452-.314.727v4.528c0 .275.113.538.314.727.198.189.465.285.743.272l1.076-.062c.192.618.439 1.216.741 1.79l-.805.717c-.205.183-.326.443-.334.718-.007.275.099.541.293.735l3.202 3.201c.194.195.475.303.735.293.275-.008.534-.129.718-.334l.717-.804c.574.302 1.172.55 1.79.742l-.061 1.075c-.016.274.082.543.271.743s.452.314.727.314h4.527c.276 0 .538-.114.728-.314.188-.2.286-.469.27-.744l-.061-1.072c.619-.193 1.218-.441 1.791-.742l.716.802c.182.205.442.326.718.334.284.012.541-.098.735-.293l3.201-3.201c.194-.194.301-.46.293-.735s-.129-.535-.334-.718l-.806-.719c.301-.573.549-1.171.741-1.788l1.079.062c.267.012.544-.083.743-.272.2-.189.313-.452.313-.727v-4.528c0-.275-.113-.538-.313-.727zm-38.313-19.842c0-4.136 3.365-7.5 7.5-7.5 4.136 0 7.5 3.364 7.5 7.5s-3.364 7.5-7.5 7.5c-4.135 0-7.5-3.364-7.5-7.5zm6.913 32.409-11.806-6.373.307.004c.121-9.264 5.586-16.521 12.444-16.521 2.573 0 5.046 1.086 7.152 3.14l1.397-1.432c-1.336-1.303-2.81-2.264-4.367-2.885 2.954-1.613 4.96-4.747 4.96-8.342 0-5.238-4.261-9.5-9.5-9.5-5.238 0-9.5 4.262-9.5 9.5 0 3.712 2.146 6.925 5.256 8.487-5.473 2.347-9.427 8.786-9.798 16.659l-9.568-5.166v-26.506l23.6-12.164 22.4 12.149v14.936h2v-16.126l-24.377-13.222-25.623 13.208v28.919l24.977 13.482 5.46-2.655-.875-1.798z" fill="#fff"/></g></svg>