<svg height="80" viewBox="0 0 80 80" width="80" xmlns="http://www.w3.org/2000/svg"><g fill="none" fill-rule="evenodd"><path d="m0 0h80v80h-80z" fill="#e7157b"/><path d="m50.871 37.366c0 4.687-3.813 8.5-8.5 8.5s-8.5-3.813-8.5-8.5 3.813-8.5 8.5-8.5 8.5 3.813 8.5 8.5zm2 0c0-5.79-4.71-10.5-10.5-10.5s-10.5 4.71-10.5 10.5 4.71 10.5 10.5 10.5 10.5-4.71 10.5-10.5zm-4.961 25.052c.19-.2.287-.469.272-.744l-.183-3.201c1.847-.494 3.612-1.225 5.266-2.182l2.135 2.394c.183.205.443.326.718.334.276.023.541-.098.735-.293l6.849-6.848c.194-.195.301-.461.293-.736s-.129-.534-.334-.717l-2.402-2.142c.955-1.652 1.685-3.415 2.178-5.26l3.212.184c.285.016.544-.083.744-.271.201-.189.314-.452.314-.727v-9.685c0-.275-.113-.538-.314-.727-.199-.189-.472-.287-.743-.272l-3.216.183c-.493-1.841-1.223-3.602-2.179-5.255l2.406-2.146c.205-.183.326-.442.334-.718.008-.275-.099-.541-.293-.735l-6.849-6.848c-.194-.196-.461-.31-.735-.293-.275.008-.534.129-.718.334l-2.153 2.413c-1.65-.955-3.409-1.684-5.248-2.176l.183-3.227c.015-.274-.082-.544-.272-.743-.188-.2-.451-.314-.727-.314h-9.684c-.275 0-.538.114-.727.314-.189.199-.287.469-.271.743l.182 3.225c-1.839.491-3.599 1.22-5.251 2.174l-2.15-2.409c-.183-.205-.442-.326-.718-.334-.269-.015-.541.098-.735.293l-6.849 6.848c-.194.194-.3.46-.293.735.008.275.129.535.334.718l2.412 2.151c-.957 1.651-1.688 3.411-2.182 5.25l-3.219-.183c-.273-.016-.544.083-.743.272-.2.189-.314.452-.314.727v9.685c0 .275.114.538.314.727s.472.293.745.271l3.951-.231-.117-1.997-2.893.17v-7.567l2.991.17c.488.024.923-.301 1.032-.777.498-2.192 1.36-4.271 2.565-6.176.261-.413.185-.955-.179-1.281l-2.241-1.999 5.352-5.351 1.997 2.239c.325.364.867.439 1.279.179 1.907-1.201 3.985-2.061 6.178-2.556.478-.108.807-.545.778-1.033l-.169-2.997h7.567l-.17 2.999c-.028.488.301.925.777 1.033 2.193.495 4.27 1.356 6.174 2.559.411.258.954.185 1.28-.18l2.001-2.243 5.352 5.351-2.235 1.994c-.365.326-.441.867-.18 1.28 1.204 1.907 2.066 3.987 2.562 6.181.109.477.551.802 1.033.778l2.988-.17v7.568l-2.984-.171c-.486-.025-.925.301-1.034.778-.497 2.199-1.358 4.28-2.561 6.185-.261.413-.185.955.18 1.28l2.231 1.99-5.351 5.352-1.984-2.224c-.326-.367-.868-.441-1.28-.18-1.907 1.205-3.99 2.068-6.192 2.565-.476.108-.805.545-.777 1.033l.17 2.973h-7.534l.136-1.546-1.992-.176-.232 2.634c-.025.28.069.556.259.764.189.207.457.324.737.324h9.684c.276 0 .539-.113.727-.313zm-10.809-7.864-1.375-1.452-12.511 11.854 1.375 1.452zm-11.855-7.9-1.371-1.456-11.195 10.537 1.371 1.456zm-11.832 21.052-1.414-1.414 19.756-19.756 1.414 1.414z" fill="#fff"/></g></svg>