<svg height="80" viewBox="0 0 80 80" width="80" xmlns="http://www.w3.org/2000/svg"><g fill="none" fill-rule="evenodd"><path d="m0 0h80v80h-80z" fill="#ed7100"/><path d="m37 65.9894087h4v-7h-4zm-9 0h7v-8c0-.552.447-1 1-1h6c.553 0 1 .448 1 1v8h7v-31h-22v11 2zm40 0v2h-56v-2h14v-18h-4.072c-4.48 0-8.351-3.053-9.205-7.259-.051-.247-.092-.502-.123-.76-.062-.503-.094-1.031-.094-1.566 0-5.763 3.794-8.989 7.573-10.189l-5.959-2.175.686-1.879 7.55 2.756c.249.091.453.278.564.518.112.241.124.515.033.764l-2.757 7.552-1.879-.686 1.721-4.713c-2.125.84-5.532 2.98-5.532 8.052 0 .453.026.899.079 1.325.024.206.058.405.098.601.666 3.28 3.713 5.659 7.245 5.659h4.072v-12c0-.552.447-1 1-1h24c.553 0 1 .448 1 1v32zm-25-24h2v-2h-2zm-2 1v-4c0-.552.447-1 1-1h4c.553 0 1 .448 1 1v4c0 .552-.447 1-1 1h-4c-.553 0-1-.448-1-1zm-8-1h2v-2h-2zm-2 1v-4c0-.552.447-1 1-1h4c.553 0 1 .448 1 1v4c0 .552-.447 1-1 1h-4c-.553 0-1-.448-1-1zm12 8h2v-2h-2zm-2 1v-4c0-.552.447-1 1-1h4c.553 0 1 .448 1 1v4c0 .552-.447 1-1 1h-4c-.553 0-1-.448-1-1zm-8-1h2v-2h-2zm-1 2c-.553 0-1-.448-1-1v-4c0-.552.447-1 1-1h4c.553 0 1 .448 1 1v4c0 .552-.447 1-1 1zm-9.972-28.755-1.924-.55c1.228-4.296 4.261-7.925 7.917-9.473 5.64-2.389 11.618-1.201 15.985 3.179 1.347 1.351 2.451 2.987 3.297 4.878 1.616-1.336 3.739-1.817 5.764-1.225 2.789.815 4.658 3.378 5.081 6.917 2.667.639 8.265 2.865 8.518 10.268.106 3.104-.755 5.626-2.562 7.495-1.754 1.815-4.033 2.622-5.728 2.98l4.697 2.242-.861 1.805-7.254-3.463c-.498-.237-.71-.834-.472-1.333l3.462-7.254 1.805.861-2.535 5.313c1.421-.212 3.788-.815 5.458-2.551 1.408-1.463 2.079-3.491 1.992-6.027-.225-6.55-5.419-8.145-7.642-8.527-.535-.092-.898-.593-.82-1.129-.228-2.947-1.606-5.066-3.7-5.677-1.737-.507-3.604.165-4.75 1.717-.22.298-.59.451-.952.395-.367-.055-.672-.307-.796-.656-.793-2.247-1.944-4.137-3.418-5.617-1.812-1.816-6.778-5.721-13.79-2.75-3.065 1.298-5.723 4.51-6.772 8.182z" fill="#fff"/></g></svg>