<svg height="80" viewBox="0 0 80 80" width="80" xmlns="http://www.w3.org/2000/svg"><g fill="none" fill-rule="evenodd"><path d="m0 0h80v80h-80z" fill="#7aa116"/><path d="m68 40c0 14.888-11.996 27-26.74 27-11.313 0-21.441-7.235-25.204-18.003l1.888-.661c3.483 9.968 12.853 16.664 23.316 16.664 13.641 0 24.74-11.215 24.74-25s-11.099-25-24.74-25c-9.644 0-18.468 5.723-22.48 14.579l-1.822-.825c4.336-9.57 13.875-15.754 24.302-15.754 14.744 0 26.74 12.112 26.74 27zm-55 4h4v-2h-4zm-1-5h5v-2h-5zm2-5h3v-2h-3zm42.588 3c2.433 0 4.412 1.965 4.412 4.38v4.62h-.276c-.621-1.742-2.271-3-4.224-3-1.835 0-3.411 1.107-4.111 2.686h-.389v-8.686zm-.088 13c-1.379 0-2.5-1.122-2.5-2.5s1.121-2.5 2.5-2.5 2.5 1.122 2.5 2.5-1.121 2.5-2.5 2.5zm-6.5-4h-10.276c-.621-1.742-2.271-3-4.224-3-1.752 0-3.257 1.017-4 2.481-.743-1.464-2.248-2.481-4-2.481-1.953 0-3.603 1.258-4.224 3h-1.276v-14h28zm-14.5 4c-1.379 0-2.5-1.122-2.5-2.5s1.121-2.5 2.5-2.5 2.5 1.122 2.5 2.5-1.121 2.5-2.5 2.5zm-8 0c-1.379 0-2.5-1.122-2.5-2.5s1.121-2.5 2.5-2.5 2.5 1.122 2.5 2.5-1.121 2.5-2.5 2.5zm23.5-20h-30c-.553 0-1 .448-1 1v16c0 .552.447 1 1 1h2.051c.252 2.244 2.138 4 4.449 4 1.752 0 3.257-1.017 4-2.481.743 1.464 2.248 2.481 4 2.481 2.311 0 4.197-1.756 4.449-4h11.051c.285 0 .54-.123.722-.314h.297c.099 2.393 2.063 4.314 4.481 4.314 2.311 0 4.197-1.756 4.449-4h1.051c.553 0 1-.448 1-1v-5.62c0-3.518-2.876-6.38-6.412-6.38h-4.588v-4c0-.552-.447-1-1-1z" fill="#fff"/></g></svg>