<svg height="80" viewBox="0 0 80 80" width="80" xmlns="http://www.w3.org/2000/svg"><g fill="none" fill-rule="evenodd"><path d="m0 0h80v80h-80z" fill="#c925d1"/><path d="m33.84 47.5291666h15v-2h-15zm-11.375-.219 10-8c.237-.19.375-.477.375-.781s-.138-.591-.375-.781l-10-8-1.25 1.562 9.024 7.219-9.024 7.219zm-7.625 6.219h39v-30h-39zm41-31v32c0 .552-.447 1-1 1h-41c-.553 0-1-.448-1-1v-32c0-.552.447-1 1-1h41c.553 0 1 .448 1 1zm-44.074-19.81600004c-2.717 1.153-4.845 4.482-4.845 7.57700004l.066 1.091c.028.477-.287.908-.75 1.027-1.583.406-4.237 1.658-4.237 5.475 0 2.877 1.556 4.463 2.861 5.287.14.089.633.25 1.092.359h2.887v2h-3c-.073 0-.145-.008-.217-.024-.293-.065-1.291-.303-1.831-.644-1.416-.894-3.792-2.989-3.792-6.978 0-3.435 1.831-6.062 4.945-7.17l-.022-.365c-.002-3.96000004 2.605-8.00800004 6.062-9.47600004 4.045-1.72 8.332-.864 11.462 2.285.881.887 1.618 1.943 2.199 3.153 1.236-.862 2.814-1.126 4.293-.64 1.984.652 3.242 2.437 3.453 4.84300004 1.356.355 3.465 1.203 4.803 3.183.805 1.19 1.213 2.618 1.213 4.243h-2c0-1.218-.293-2.269-.87-3.123-1.22-1.806-3.411-2.356-4.296-2.509-.534-.092-.897-.593-.819-1.129 0-1.82700004-.769-3.16700004-2.108-3.60700004-1.177-.385-2.473.041-3.229 1.065-.219.298-.589.449-.952.396-.366-.054-.673-.307-.796-.657-.537-1.526-1.314-2.807-2.309-3.808-1.216-1.224-4.552-3.853-9.263-1.854z" fill="#fff" transform="translate(12.16 12.47)"/></g></svg>