<svg height="80" viewBox="0 0 80 80" width="80" xmlns="http://www.w3.org/2000/svg"><g fill="none" fill-rule="evenodd"><path d="m0 0h80v80h-80z" fill="#ed7100"/><path d="m15.89 29.8215 2.496 1.395-.975 1.746-3.037-1.696c-1.385 1.258-2.89 2.478-4.528 3.66l15.154 8.922 15.155-8.922c-1.64-1.183-3.147-2.405-4.534-3.665l-3.05 1.702-.975-1.747 2.51-1.4c-1.273-1.269-2.423-2.578-3.452-3.926l-5.154 2.976c-.154.089-.327.134-.5.134-.172 0-.345-.045-.5-.134l-5.153-2.976c-1.03 1.35-2.183 2.66-3.457 3.931zm4.635-5.56 4.475 2.584 4.476-2.584c-2.095-3.099-3.586-6.402-4.476-9.93-.889 3.528-2.381 6.831-4.475 9.93zm-14.194.996c4.568-4.114 7.083-9.163 7.083-14.217h2c0 3.258.896 6.387 2.664 9.302l-1.711 1.037c-.853-1.407-1.512-2.864-1.997-4.357-1.09 3.124-3.014 6.112-5.693 8.769l5.383 3.008c6.665-6.483 9.94-13.997 9.94-22.799 0-.553.448-1 1-1 .553 0 1 .447 1 1 0 8.8 3.275 16.313 9.936 22.795l5.387-3.005c-2.678-2.656-4.603-5.644-5.694-8.768-.484 1.494-1.142 2.95-1.996 4.358l-1.711-1.038c1.768-2.913 2.663-6.043 2.663-9.302h2c0 5.053 2.516 10.103 7.084 14.217.241.215.362.534.325.855-.036.32-.225.604-.506.761l-6.009 3.352c1.541 1.361 3.226 2.679 5.085 3.949.283.193.447.517.435.859-.01.342-.196.655-.491.829l-17 10.008c-.157.093-.332.138-.508.138-.175 0-.35-.045-.507-.138l-17-10.008c-.295-.174-.481-.487-.492-.829s.153-.666.436-.859c1.857-1.268 3.541-2.585 5.081-3.945l-6.006-3.356c-.281-.157-.47-.441-.506-.762-.035-.32.085-.639.325-.854zm33.356-17.043-4.895-2.826-1 1.732 4.895 2.826zm-23.479-1.094-1-1.732-4.894 2.826 1 1.732zm33.322 7.032-5.416-3.382-1.059 1.697 4.029 2.516-3.598 2.159 1.029 1.715 3.485-2.091v23.468l-3.485-2.092-1.029 1.715 3.497 2.098-21.983 11.908-21.982-11.908 3.497-2.098-1.029-1.715-3.486 2.092v-23.468l3.486 2.091 1.029-1.715-3.599-2.159 4.03-2.516-1.059-1.697-5.416 3.382c-.293.182-.471.503-.471.848v27c0 .367.202.704.524.879l24 13c.148.081.312.121.476.121s.328-.04.477-.121l24-13c.322-.175.523-.512.523-.879v-27c0-.345-.177-.666-.47-.848zm-24.53 23.038c.173 0 .346-.045.5-.134l3.502-2.022-1-1.733-3.002 1.734-3.002-1.734-1 1.733 3.502 2.022c.155.089.328.134.5.134zm-4.485-32.333-1.029-1.715 5-3c.316-.19.713-.19 1.029 0l5 3-1.029 1.715-4.486-2.691z" fill="#fff" transform="translate(15 12)"/></g></svg>