<svg height="80" viewBox="0 0 80 80" width="80" xmlns="http://www.w3.org/2000/svg"><g fill="none" fill-rule="evenodd"><path d="m0 0h80v80h-80z" fill="#8c4fff"/><path d="m52.473 60.742875c0-1.103-.897-2-2-2s-2 .897-2 2 .897 2 2 2 2-.897 2-2zm-12 0c-1.103 0-2 .897-2 2s.897 2 2 2 2-.897 2-2-.897-2-2-2zm-4.659-10.783c-1.058-1.356-1.946-3.156-2.613-5.277-1.347.339-2.589.768-3.683 1.284 1.723 1.806 3.874 3.193 6.296 3.993zm15.896-3.991c-1.093-.517-2.335-.946-3.681-1.285-.667 2.12-1.557 3.92-2.614 5.276 2.421-.8 4.573-2.187 6.295-3.991zm-16.569-1.699c1.064 3.3 2.672 5.505 4.332 6.215v-6.653c-1.497.05-2.952.198-4.332.438zm10.947.001c-1.467-.256-3.018-.406-4.615-.446v6.758c1.759-.569 3.49-2.825 4.615-6.312zm-11.468-1.935c1.547-.28 3.178-.449 4.853-.504v-1.675l-1.293 1.293-1.414-1.414 3.707-3.707 3.707 3.707-1.414 1.414-1.293-1.293v1.668c1.773.043 3.502.216 5.136.512.447-1.94.718-4.155.743-6.594h-13.475c.025 2.439.296 4.654.743 6.593zm-9.34-6.593c.075 3.227 1.148 6.204 2.925 8.646 1.31-.666 2.821-1.214 4.473-1.632-.492-2.127-.776-4.494-.801-7.014zm3.149-9.657c-1.663 2.174-2.769 4.794-3.076 7.657h6.556c.099-2.193.402-4.248.862-6.113-1.596-.398-3.06-.916-4.342-1.544zm7.385-5.272c-2.298.759-4.362 2.038-6.038 3.711 1.059.476 2.258.868 3.54 1.184.653-1.958 1.504-3.619 2.498-4.895zm4.801-.779c-1.971 0-4.021 2.268-5.337 6.084 1.689.286 3.489.442 5.337.442s3.647-.156 5.337-.442c-1.317-3.816-3.367-6.084-5.337-6.084zm10.838 4.49c-1.676-1.673-3.74-2.952-6.038-3.711.995 1.276 1.845 2.937 2.498 4.895 1.283-.316 2.481-.708 3.54-1.184zm-4.935 3.52c-1.871.332-3.862.516-5.903.516s-4.032-.184-5.904-.516c-.419 1.691-.706 3.6-.803 5.698h13.414c-.098-2.098-.385-4.007-.804-5.698zm9.358 5.698c-.306-2.862-1.412-5.483-3.076-7.657-1.282.628-2.746 1.146-4.342 1.544.46 1.865.763 3.92.863 6.113zm-6.524 2c-.025 2.52-.309 4.887-.801 7.015 1.652.418 3.163.966 4.472 1.632 1.777-2.442 2.851-5.419 2.927-8.647zm-18.879 23c-1.103 0-2 .897-2 2s.897 2 2 2 2-.897 2-2-.897-2-2-2zm24 2c0 2.206-1.794 4-4 4s-4-1.794-4-4c0-1.858 1.279-3.411 3-3.858v-1.142h-8v3.142c1.721.447 3 2 3 3.858 0 2.206-1.794 4-4 4s-4-1.794-4-4c0-1.858 1.279-3.411 3-3.858v-3.142h-8v1.142c1.721.447 3 2 3 3.858 0 2.206-1.794 4-4 4s-4-1.794-4-4c0-1.858 1.279-3.411 3-3.858v-3.142h10v-1.062c-9.036-.592-16.211-8.111-16.211-17.294 0-9.568 7.784-17.352 17.353-17.352 9.568 0 17.352 7.784 17.352 17.352 0 9.278-7.326 16.857-16.494 17.309v1.047h10v3.142c1.721.447 3 2 3 3.858zm8.473-25.281c0 6.003-2.337 11.646-6.582 15.89l-1.414-1.414c3.867-3.866 5.996-9.007 5.996-14.476 0-5.468-2.129-10.609-5.996-14.476-7.983-7.982-20.971-7.982-28.954 0-3.867 3.867-5.996 9.008-5.996 14.476 0 5.469 2.129 10.61 5.996 14.476l-1.414 1.414c-4.245-4.244-6.582-9.887-6.582-15.89 0-6.002 2.337-11.646 6.582-15.89 8.764-8.763 23.02-8.762 31.782 0 4.245 4.244 6.582 9.888 6.582 15.89z" fill="#fff"/></g></svg>