<svg height="80" viewBox="0 0 80 80" width="80" xmlns="http://www.w3.org/2000/svg"><g fill="none" fill-rule="evenodd"><path d="m0 0h80v80h-80z" fill="#ed7100"/><path d="m62 52.4223004-6.496 3.7126876.992 1.7363215 7-4.0007409c.312-.1770328.504-.5090943.504-.8681607v-7.0012966h-2zm-9-20.8438599-13-7.4293759-13 7.4293759v15.8769401l13 8.3585479 13-8.3585479zm11-4.5778478v6.998296h-2v-5.4600111l-7 3.1095758v16.3530284c0 .3400629-.173.6571216-.459.8411557l-13.541 8.7066124v6.75025l5.514-3.0665679.972 1.7483238-7 3.8927209c-.151.0840155-.319.1260233-.486.1260233s-.335-.0420078-.486-.1260233l-7-3.8927209.972-1.7483238 5.514 3.0665679v-6.75025l-13.541-8.7066124c-.286-.1840341-.459-.5010928-.459-.8411557v-16.3530284l-7-3.1115762v5.4620115h-2v-6.998296c0-.3590665.192-.6901278.504-.869161l7-4.0027412.992 1.7363215-5.283 3.0215596 6.73 2.991554 13.561-7.7494351c.307-.1760326.685-.1760326.992 0l13.561 7.7504353 6.732-2.991554-5.285-3.0225598.992-1.7363215 7 4.0027412c.312.1790332.504.5100945.504.869161zm-24 8.1645119-4 2.4004446v4.8689016l4 2.4004446 4-2.4004446v-4.8689016zm.515-2.0233747 4.529 2.7175033 3.509-1.7543249.894 1.7893314-3.447 1.7233191v5.3829969c0 .351065-.185.6771254-.485.8571587l-4.515 2.7095018v4.4348212h-2v-4.4348212l-4.515-2.7095018c-.3-.1800333-.485-.5060937-.485-.8571587v-5.3829969l-3.447-1.7233191.894-1.7893314 3.509 1.7543249 4.529-2.7175033c.317-.1910353.713-.1910353 1.03 0zm-.515-17.9973328 6.514 3.6236711.972-1.7483238-7-3.8937211c-.302-.1680311-.67-.1680311-.972 0l-7 3.8937211.972 1.7483238zm-22 37.2749028 6.496 3.7156881-.992 1.7363215-7-4.0037414c-.312-.178033-.504-.5090943-.504-.8681608v-6.998296h2z" fill="#fff"/></g></svg>