<svg height="80" viewBox="0 0 80 80" width="80" xmlns="http://www.w3.org/2000/svg"><g fill="none" fill-rule="evenodd"><path d="m0 0h80v80h-80z" fill="#ed7100"/><path d="m21.621 32.018-1.73-1.001c3.216-5.562 9.203-9.017 15.622-9.017 6.339 0 12.098 3.235 15.405 8.653l-1.707 1.042c-2.941-4.818-8.062-7.695-13.698-7.695-5.707 0-11.031 3.072-13.892 8.018zm27.578 16.232 1.731 1.001c-3.217 5.562-9.203 9.017-15.621 9.017-6.341 0-12.1-3.234-15.407-8.653l1.707-1.042c2.941 4.819 8.062 7.695 13.7 7.695 5.707 0 11.029-3.072 13.89-8.018zm18.633-4.561-2 3-1.664-1.109.963-1.446h-8.131v2c0 .552-.447 1-1 1h-12c-.553 0-1-.448-1-1v-3h-1v3c0 .552-.447 1-1 1h-12c-.553 0-1-.448-1-1v-3h-1v3c0 .552-.447 1-1 1h-12c-.553 0-1-.448-1-1v-12c0-.552.447-1 1-1h12c.553 0 1 .448 1 1v4h1v-4c0-.552.447-1 1-1h12c.553 0 1 .448 1 1v4h1v-4c0-.552.447-1 1-1h12c.553 0 1 .448 1 1v2h4.131l-.963-1.445 1.664-1.109 2 3c.224.335.224.773 0 1.109l-2 3-1.664-1.109.963-1.446h-5.131c-.553 0-1-.448-1-1v-2h-10v4c0 .552-.447 1-1 1h-3c-.553 0-1-.448-1-1v-4h-10v4c0 .552-.447 1-1 1h-3c-.553 0-1-.448-1-1v-4h-10v10h10v-3c0-.552.447-1 1-1h3c.553 0 1 .448 1 1v3h10v-3c0-.552.447-1 1-1h3c.553 0 1 .448 1 1v3h10v-2c0-.552.447-1 1-1h9.131l-.963-1.445 1.664-1.109 2 3c.224.335.224.773 0 1.109zm-19.832-1.555h4v-4h-4zm-1-6c-.553 0-1 .448-1 1v6c0 .552.447 1 1 1h6c.553 0 1-.448 1-1v-6c0-.552-.447-1-1-1zm-14 6h4v-4h-4zm-1-6c-.553 0-1 .448-1 1v6c0 .552.447 1 1 1h6c.553 0 1-.448 1-1v-6c0-.552-.447-1-1-1zm-14 6h4v-4h-4zm-1-6c-.553 0-1 .448-1 1v6c0 .552.447 1 1 1h6c.553 0 1-.448 1-1v-6c0-.552-.447-1-1-1z" fill="#fff"/></g></svg>