<svg height="80" viewBox="0 0 80 80" width="80" xmlns="http://www.w3.org/2000/svg"><g fill="none" fill-rule="evenodd"><path d="m0 0h80v80h-80z" fill="#dd344c"/><path d="m30.753 41.4956914h11v-1.9913828h-11zm0-4.9784569h21v-1.9913827h-21zm0-4.9784568h18v-1.9913828h-18zm9.247-16.547395c-11.579 0-21 9.3794128-21 20.9095189 0 8.4066222 5.032 15.9649154 12.819 19.2566711.587.2469314.878.7557297.866 1.5114595l-.001 9.0647742 3.904-.9588508c14.141-3.6322821 24.412-15.7767297 24.412-28.874054 0-11.5301061-9.421-20.9095189-21-20.9095189zm-8.316 53.0086173c-.222 0-.439-.0736812-.617-.2120823-.242-.1881856-.383-.4779318-.383-.7836091v-10.1670046c-8.326-3.6830624-13.684-11.8586842-13.684-20.9364024 0-12.627358 10.317-22.9009016 23-22.9009016s23 10.2735436 23 22.9009016c0 13.9914551-10.902 26.9463956-25.923 30.8046996l-5.154 1.2655238c-.079.0189181-.159.028875-.239.028875zm8.199-47.3988921c-8.423.0617329-15.281 6.9479344-15.281 15.3485825 0 5.4703284 3.185 10.5941562 8.522 13.7076831.77.4460698 2.825 1.8957964 2.912 1.9565336 1.508 1.1380752 2.407 2.900449 2.56 4.9814439l.002 1.8061842c9.891-3.1752598 16.944-12.156396 16.944-21.8106195 0-1.4795974-.2-2.9462508-.596-4.3611282-.033-.1403925-.062-.2310004-.092-.3255911-1.739-6.2310366-7.162-10.7096564-13.523-11.2403599l-.149-.0069699c-.361-.0189181-1.07-.0557587-1.299-.0557587zm-2.284 40.1253666c-.218 0-.433-.0706941-.61-.2061081-.246-.1881857-.39-.4799232-.39-.7895832v-3.0627467c-.108-1.4298128-.728-2.6804012-1.745-3.4480792-.547-.3853326-2.161-1.5084725-2.739-1.8430248-5.958-3.4759585-9.513-9.243003-9.513-15.4272421 0-9.4909301 7.749-17.2702668 17.273-17.3399652.256 0 1.021.038832 1.409.0587458l.179.0079655c7.226.6023933 13.356 5.6654839 15.289 12.60147.056.174246.099.3136428.133.4620008.432 1.5443173.657 3.1911909.657 4.8510084 0 10.9456352-8.279 21.0827691-19.687 24.102701-.084.0219052-.17.0328578-.256.0328578z" fill="#fff"/></g></svg>