<svg height="80" viewBox="0 0 80 80" width="80" xmlns="http://www.w3.org/2000/svg"><g fill="none" fill-rule="evenodd"><path d="m0 0h80v80h-80z" fill="#c925d1"/><path d="m60.919449 52.293 1.282787-1.293h-5.952608l-1.5734728-1.586-2.976304 3-8.6382264-8.707 1.4028313-1.414 7.2353951 7.293 2.976304-3 2.3949327 2.414h5.1311481l-1.282787-1.293 1.4028313-1.414 3.6777197 3.707-3.6777197 3.707zm-9.2195978-15.707 1.5734727-1.586h3.1380166l2.9713435 3.332-1.4762468 1.336-2.379059-2.668h-1.4325944l-2.3949326 2.414-2.3949327-2.414h-5.5418781v-2h6.363338zm10.5023848-.586h-1.5734727v-2h4.9605067v5h-1.9842027v-1.586l-2.565574 2.586 2.565574 2.586v-1.586h1.9842027v5h-4.9605067v-2h1.5734727l-2.565574-2.586-2.5655741 2.586h-5.9526081l-1.693517 1.707-1.4028313-1.414 2.2748884-2.293h5.9526081zm-19.1406112 13.293 1.9842027-2 1.4028313 1.414-1.9842027 2zm-10.2116992-35.293c9.9398634 0 16.8657229 3.162 16.8657229 6s-6.9258595 6-16.8657229 6-16.8657229-3.162-16.8657229-6 6.9258595-6 16.8657229-6zm9.9210135 19h-1.9842027v22c0 .552.4434693 1 .9921013 1h7.9368108v4c0 2.838-6.9258595 6-16.8657229 6-9.6233831 0-16.8657229-3.479-16.8657229-5.735v-7.591c3.0328538 2.61 9.2830923 4.326 16.8657229 4.326 2.4643797 0 4.8583203-.189 7.1123745-.563l-.3214408-1.974c-2.1488915.356-4.4337009.537-6.7909337.537-9.9398634 0-16.8657229-3.162-16.8657229-6v-10.326c3.0328538 2.61 9.2830923 4.326 16.8657229 4.326 2.4643797 0 4.8583203-.189 7.1123745-.563l-.3214408-1.974c-2.1488915.356-4.4337009.537-6.7909337.537-9.9398634 0-16.8657229-3.162-16.8657229-6v-11.326c3.0328538 2.61 9.2830923 4.326 16.8657229 4.326s13.8328691-1.716 16.8657229-4.326v10.326h1.9842027v-14c0-4.561-8.1034838-8-18.8499256-8s-18.8499256 3.439-18.8499256 8v40.265c0 4.12 8.8088679 7.735 18.8499256 7.735 10.7464418 0 18.8499256-3.439 18.8499256-8v-4h13.8894188v-2h-22.8183309z" fill="#fff"/></g></svg>