<svg height="80" viewBox="0 0 80 80" width="80" xmlns="http://www.w3.org/2000/svg"><g fill="none" fill-rule="evenodd"><path d="m0 0h80v80h-80z" fill="#ed7100"/><path d="m52 56.523v-4.846l3-1.2v4.846zm-5-6.046 3 1.2v4.846l-3-1.2zm-6 13.046v-4.846l3-1.2v4.846zm-5-6.046 3 1.2v4.846l-3-1.2zm-6-.954v-4.846l3-1.2v4.846zm-5-6.046 3 1.2v4.846l-3-1.2zm4-2.4 2.308.923-2.308.923-2.308-.923zm11 7 2.308.923-2.308.923-2.308-.923zm11-7 2.308.923-2.308.923-2.308-.923zm5.371-.006-5-2c-.238-.094-.504-.094-.742 0l-5 2c-.38.153-.629.52-.629.929v5.923l-4.629-1.852c-.238-.094-.504-.094-.742 0l-4.629 1.852v-5.923c0-.409-.249-.776-.629-.929l-5-2c-.238-.094-.504-.094-.742 0l-5 2c-.38.153-.629.52-.629.929v7c0 .409.249.776.629.929l5 2c.119.047.245.071.371.071s.252-.024.371-.071l4.629-1.852v5.923c0 .409.249.776.629.929l5 2c.119.047.245.071.371.071s.252-.024.371-.071l5-2c.38-.153.629-.52.629-.929v-5.923l4.629 1.852c.119.047.245.071.371.071s.252-.024.371-.071l5-2c.38-.153.629-.52.629-.929v-7c0-.409-.249-.776-.629-.929zm8.629-12.133c0 5.845-12.881 9-25 9s-25-3.155-25-9c0-2.791 3.095-5.248 8.715-6.919l.57 1.917c-4.494 1.336-7.285 3.253-7.285 5.002 0 3.311 9.445 7 23 7s23-3.689 23-7c0-1.749-2.791-3.666-7.285-5.002l.57-1.917c5.62 1.671 8.715 4.128 8.715 6.919zm-25-18.867 10.214 3.929-10.214 3.929-10.214-3.929zm10.58 19.771c-1.886.844-5.052 1.827-9.58 1.959v-12.114l11-4.23v12.191c0 .951-.556 1.812-1.42 2.194zm-22.58-2.194v-12.191l11 4.23v12.114c-4.528-.132-7.694-1.115-9.584-1.961-.86-.38-1.416-1.241-1.416-2.192zm.604 4.019c2.201.985 5.965 2.16 11.396 2.16s9.195-1.175 11.393-2.158c1.584-.701 2.607-2.279 2.607-4.021v-13.648c0-.414-.255-.785-.641-.934l-13-5c-.232-.088-.486-.088-.718 0l-13 5c-.386.149-.641.52-.641.934v13.648c0 1.742 1.023 3.32 2.604 4.019z" fill="#fff"/></g></svg>