<svg height="80" viewBox="0 0 80 80" width="80" xmlns="http://www.w3.org/2000/svg"><g fill="none" fill-rule="evenodd"><path d="m0 0h80v80h-80z" fill="#8c4fff"/><path d="m37.9288109 48.8828856h5.074357v-5.0585572h-5.074357zm6.0742302-7.0819801h-7.0741034c-.55293 0-.9998733.4532468-.9998733 1.0117115v7.0819801c0 .5584647.4469433 1.0117114.9998733 1.0117114h7.0741034c.55293 0 .9998733-.4532467.9998733-1.0117114v-7.0819801c0-.5584647-.4469433-1.0117115-.9998733-1.0117115zm13.9262352 15.1756716-7.9269954-.0080937v-11.1207321h15.8029972c.1239843.6211908.1949753 1.2919555.1949753 2.0234229 0 7.9115834-7.354068 9.017384-8.0709771 9.1054029zm-36.1194226-.3004783 9.1948347-8.5287274v8.8008778l-7.9549918-.0091054c-.4229464-.0617144-.8338943-.1547918-1.2398429-.263045zm-7.8080105-9.1408128.0049994-.2731621c0-4.5415727 2.0627386-7.3986458 6.1272235-8.4963527h10.8706223v1.5641059l-14.653143 12.9741875c-1.3548283-1.5529771-2.2207185-3.4630883-2.3467026-5.49764-.007999-.122417-.0049993-.1881783-.0029996-.2711386zm14.8231215-23.4828342c.717909-.308572 1.4478165-.5372188 2.1797237-.7051629v7.3247908h-8.7098962c1.4008225-2.8985532 3.8025181-5.4511012 6.5301725-6.6196279zm9.1788367 29.888991h4.9993665v3.0189469l-4.9993665-.0050585zm22.3251708-16.6173604-.6559169 1.9121347c1.6777874.5898277 4.1564732 1.8898769 5.4563085 4.5881113h-16.1269562c-.5519301 0-.9998733.4532468-.9998733 1.0117115v12.1304201l-2.9996199-.0040468v-4.0326818c0-.5584647-.4469433-1.0117115-.9998733-1.0117115h-6.999113c-.55193 0-.9998732.4532468-.9998732 1.0117115v4.0235764l-2.9996199-.0030352v-11.1025213c0-.4006377-.2339703-.7648538-.5969243-.9267277-.3619542-.1598504-.7859004-.091054-1.0788633.1810964l-11.6265266 10.7838322c-.6729147-.3358882-1.3008351-.7395611-1.8817615-1.1938195l14.842119-13.1421316c.2179724-.1912134.3419567-.4684224.3419567-.760807v-3.0351343c0-.5584647-.4469434-1.0117114-.9998733-1.0117114h-11.0186036c.0029996-.0789135.0029996-.1537802.0059993-.2326937.0069991-.2215648.0139982-.4390827.0139982-.6394016 0-1.0420628.1839767-2.1154886.5019364-3.1747505h10.4966697c.5529299 0 .9998733-.4532467.9998733-1.0117114v-8.6207932c1.0058725-.0586793 2.0097453.0101171 2.9996199.203354v16.5111307c0 .5584647.4479432 1.0117114.9998732 1.0117114h6.999113c.55293 0 .9998733-.4532467.9998733-1.0117114v-6.0702687h-1.9997465v5.0585572h-4.9993665v-14.9338725c1.8907604.7092097 3.6905323 1.8817833 5.2913295 3.5076036l1.4158205-1.4285366c-4.7134026-4.7843834-10.9436131-6.1744749-16.6658879-3.7220864-5.0683577 2.1721445-9.0388545 8.1817104-9.0388545 13.6813738 0 .1780612-.0069991.3723098-.0129983.5706052-.0059993.1841315-.0129984.3723099-.0149981.5584648-2.9086314.9611258-6.9711166 3.5116504-6.9711166 10.2628008l-.0039995.210436c-.0039995.1426513-.0059992.2549513.0059993.4613404.338957 5.4683003 4.9963668 10.2051333 10.833627 11.019561.0449943.0060702.0909885.0091054.1359828.0091054l13.9162364.0151756c.0369953.0040469.0699911.0222577.1089861.0222577h6.999113c.0259968 0 .0469941-.0131522.0729908-.0151757l13.9092373.0151757h.0009998c.0339957 0 .0669916-.0020234.1009872-.0050586.0989875-.0101171 9.9127438-1.1381753 9.9127438-11.1237672 0-7.0860269-5.3643202-9.7367109-7.6710278-10.5470918zm-9.3268181-7.6637141c0-1.002606 1.0098721-2.0234229 1.9997466-2.0234229.9898746 0 1.9997466 1.0208169 1.9997466 2.0234229s-1.009872 2.0234229-1.9997466 2.0234229c-.9898745 0-1.9997466-1.0208169-1.9997466-2.0234229zm5.9992398 0c0-2.1175121-1.9057585-4.0468458-3.9994932-4.0468458-2.0937346 0-3.9994931 1.9293337-3.9994931 4.0468458 0 2.117512 1.9057585 4.0468457 3.9994931 4.0468457 2.0937347 0 3.9994932-1.9293337 3.9994932-4.0468457zm-3.9994932-5.0585572c2.8506388 0 4.9993664 2.1741679 4.9993664 5.0585572 0 2.2095778-3.0986073 7.4239385-4.9993664 10.3366558-1.8997592-2.9117056-4.9993664-8.1250546-4.9993664-10.3366558 0-2.8843893 2.1497276-5.0585572 4.9993664-5.0585572zm0 18.2108059c.3259587 0 .6329198-.1618738.8198961-.4320008.6319199-.9155988 6.1792169-9.0517822 6.1792169-12.7202479 0-4.0377404-3.0096186-7.0819801-6.999113-7.0819801s-6.999113 3.0442397-6.999113 7.0819801c0 3.6684657 5.547297 11.8046491 6.1802168 12.7202479.1859764.270127.4929375.4320008.8188962.4320008z" fill="#fff"/></g></svg>