<svg height="80" viewBox="0 0 80 80" width="80" xmlns="http://www.w3.org/2000/svg"><g fill="none" fill-rule="evenodd"><path d="m0 0h80v80h-80z" fill="#dd344c"/><path d="m23.293 23.293 4.18-4.179c-.981-.698-2.176-1.114-3.469-1.114-3.307 0-5.997 2.69-5.997 5.997 0 3.306 2.69 5.996 5.997 5.996s5.996-2.69 5.996-5.996c0-1.293-.415-2.489-1.113-3.469l-4.18 4.179zm11.276-8.448-4.256 4.257c1.053 1.354 1.687 3.05 1.687 4.895 0 4.409-3.587 7.996-7.996 7.996s-7.997-3.587-7.997-7.996c0-4.41 3.588-7.997 7.997-7.997 1.845 0 3.54.634 4.894 1.688l4.257-4.257c-2.456-2.131-5.651-3.431-9.151-3.431-7.718 0-13.997 6.279-13.997 13.997 0 7.717 6.279 13.996 13.997 13.996s13.996-6.279 13.996-13.996c0-3.5-1.3-6.696-3.431-9.152zm2.461-7.33c0 1.922 1.564 3.485 3.485 3.485 1.922 0 3.485-1.563 3.485-3.485 0-1.921-1.563-3.485-3.485-3.485-1.921 0-3.485 1.564-3.485 3.485zm-2.462 4.502 1.416-1.415c-.601-.88-.954-1.943-.954-3.087 0-3.024 2.46-5.485 5.485-5.485 3.024 0 5.485 2.461 5.485 5.485 0 3.025-2.461 5.485-5.485 5.485-1.16 0-2.234-.364-3.12-.98l-1.413 1.411c2.493 2.822 4.018 6.515 4.018 10.566 0 8.82-7.176 15.996-15.996 15.996-8.821 0-15.997-7.176-15.997-15.996 0-8.821 7.176-15.997 15.997-15.997 4.051 0 7.743 1.526 10.564 4.017zm13.432 11.983c0 13.233-10.767 24-24 24s-24-10.767-24-24 10.767-24 24-24c3.361 0 6.614.684 9.669 2.032l-.809 1.83c-2.797-1.236-5.779-1.862-8.86-1.862-12.131 0-22 9.869-22 22s9.869 22 22 22 22-9.869 22-22c0-3.09-.622-6.056-1.851-8.814l1.829-.814c1.341 3.017 2.022 6.256 2.022 9.628z" fill="#fff" transform="translate(16 16)"/></g></svg>