<svg height="80" viewBox="0 0 80 80" width="80" xmlns="http://www.w3.org/2000/svg"><g fill="none" fill-rule="evenodd"><path d="m0 0h80v80h-80z" fill="#7aa116"/><path d="m44 40h7v-2h-7zm15 0h4v-2h-4zm-15-5h12v-2h-12zm-26 29c-1.513 0-3-1.486-3-3s1.487-3 3-3c1.514 0 3 1.486 3 3s-1.486 3-3 3zm0-14c-1.513 0-3-1.486-3-3s1.487-3 3-3c1.514 0 3 1.486 3 3s-1.486 3-3 3zm0-14c-1.513 0-3-1.486-3-3s1.487-3 3-3c1.514 0 3 1.486 3 3s-1.486 3-3 3zm0-14c-1.458 0-3-1.542-3-3s1.542-3 3-3 3 1.542 3 3-1.542 3-3 3zm36 26v-2h-23v-27c0-.552-.447-1-1-1h-7.123c-.519-2.166-2.644-4-4.877-4-2.57 0-5 2.43-5 5s2.43 5 5 5c2.233 0 4.358-1.834 4.877-4h6.123v12h-6.119c-.506-2.193-2.602-4-4.881-4-2.617 0-5 2.383-5 5s2.383 5 5 5c2.279 0 4.375-1.807 4.881-4h6.119v12h-6.119c-.506-2.193-2.602-4-4.881-4-2.617 0-5 2.383-5 5s2.383 5 5 5c2.279 0 4.375-1.807 4.881-4h6.119v12h-6.119c-.506-2.193-2.602-4-4.881-4-2.617 0-5 2.383-5 5s2.383 5 5 5c2.279 0 4.375-1.807 4.881-4h7.119c.553 0 1-.448 1-1v-13zm2 0h7v-2h-7zm3-13h3.802v-2h-3.802zm-1-8v-5.586l5.586 5.586zm8.989.938c-.006-.088-.024-.174-.053-.259-.01-.032-.019-.062-.032-.093-.049-.106-.111-.207-.197-.293l-9-9c-.086-.085-.186-.147-.292-.195-.031-.015-.063-.023-.096-.035-.082-.028-.167-.044-.254-.05-.023-.002-.042-.013-.065-.013h-17c-.552 0-1 .448-1 1v25h2v-24h15v8c0 .552.448 1 1 1h8v31h-24v-10h-2v11c0 .552.448 1 1 1h26c.553 0 1-.448 1-1v-33c0-.021-.01-.041-.011-.062z" fill="#fff"/></g></svg>