<svg height="80" viewBox="0 0 80 80" width="80" xmlns="http://www.w3.org/2000/svg"><g fill="none" fill-rule="evenodd"><path d="m0 0h80v80h-80z" fill="#dd344c"/><path d="m38.76 43.36c0 .684.557 1.24 1.24 1.24.684 0 1.24-.556 1.24-1.24s-.556-1.24-1.24-1.24c-.683 0-1.24.556-1.24 1.24zm-2 0c0-1.787 1.453-3.24 3.24-3.24s3.24 1.453 3.24 3.24c0 1.436-.944 2.642-2.24 3.066v2.574h-2v-2.574c-1.296-.424-2.24-1.63-2.24-3.066zm12.24-5.36h-18v13h18v-3h-3v-2h3v-3h-3v-2h3zm-15-2h11.999l.001-5c.001-2.616-2.857-4.998-5.996-5h-.003c-1.529 0-3.073.574-4.238 1.575-1.12.962-1.763 2.211-1.763 3.426zm14-4.999-.001 4.999h2.001c.553 0 1 .448 1 1v15c0 .552-.447 1-1 1h-20c-.553 0-1-.448-1-1v-15c0-.552.447-1 1-1h2v-5c.001-1.798.897-3.599 2.459-4.942 1.523-1.308 3.542-2.058 5.542-2.058h.003c4.261.002 7.997 3.273 7.996 7.001zm-28.793 24.048 1.621-1.172c-2.735-3.78-4.247-8.215-4.432-12.877h2.604v-2h-2.601c.199-4.634 1.709-9.043 4.429-12.802l-1.621-1.173c-2.968 4.103-4.608 8.917-4.808 13.975h-2.399v2h2.396c.186 5.086 1.828 9.926 4.811 14.049zm34.631 4.159c-3.769 2.728-8.19 4.238-12.838 4.431v-2.639h-2v2.639c-4.648-.192-9.07-1.702-12.841-4.431l-1.171 1.62c4.112 2.977 8.94 4.617 14.012 4.811v2.361h2v-2.361c5.072-.194 9.898-1.834 14.01-4.811zm-27.679-38.342c3.771-2.728 8.193-4.238 12.841-4.43v2.564h2v-2.564c4.648.192 9.069 1.702 12.838 4.43l1.172-1.62c-4.112-2.976-8.938-4.616-14.01-4.81v-2.436h-2v2.436c-5.072.193-9.9 1.833-14.012 4.81zm39.44 18.134c-.2-5.058-1.84-9.872-4.809-13.975l-1.621 1.173c2.721 3.759 4.231 8.168 4.43 12.802h-2.599v2h2.602c-.186 4.662-1.697 9.097-4.433 12.877l1.621 1.172c2.984-4.123 4.625-8.963 4.812-14.049h2.398v-2zm-9.213-13.936 7.84-7.84-1.414-1.414-7.84 7.84zm-32.774 29.946-7.84 7.84 1.414 1.414 7.84-7.84zm5.054-27.757-14.841-14.84-1.414 1.414 14.841 14.84zm25.527 25.527 13.393 13.393-1.414 1.414-13.393-13.393z" fill="#fff"/></g></svg>