<svg height="80" viewBox="0 0 80 80" width="80" xmlns="http://www.w3.org/2000/svg"><g fill="none" fill-rule="evenodd"><path d="m0 0h80v80h-80z" fill="#8c4fff"/><path d="m49.5 42c.828 0 1.5-.672 1.5-1.5s-.672-1.5-1.5-1.5-1.5.672-1.5 1.5.672 1.5 1.5 1.5zm-3-3c.828 0 1.5-.672 1.5-1.5s-.672-1.5-1.5-1.5-1.5.672-1.5 1.5.672 1.5 1.5 1.5zm-18.5 3h2v-2h2v-2h-2v-2h-2v2h-2v2h2zm26 2.274c-1.468 1.667-3.61 2.726-6 2.726-1.222 0-2.377-.284-3.414-.776 1.664 3.486 4.054 7.776 6.414 7.776 1.288 0 3-.415 3-4zm-21.586 1.95c-1.037.492-2.192.776-3.414.776-2.39 0-4.532-1.059-6-2.726l.001 5.726c0 .461 0 1.539.414 2.47.464 1.044 1.285 1.53 2.585 1.53 2.36 0 4.75-4.29 6.414-7.776zm-9.414-7.224c0 3.308 2.691 6 6 6s6-2.692 6-6c0-3.309-2.691-6-6-6s-6 2.691-6 6zm17 0c0-1.892.663-3.629 1.765-5h-6.53c1.102 1.371 1.765 3.108 1.765 5 0 1.061-.212 2.072-.589 3h4.178c-.377-.928-.589-1.939-.589-3zm8-6c-3.309 0-6 2.691-6 6 0 3.308 2.691 6 6 6 3.302 0 5.988-2.681 5.999-5.981v-.019h.001c0-3.309-2.691-6-6-6zm8 6c0 .006-.001.013-.001.019l.001 10.981c0 5.415-3.497 6-5 6-4.196 0-7.247-6.728-9.266-11.18-.13-.286-.254-.561-.373-.82h-5.722c-.119.259-.243.534-.373.82-2.019 4.452-5.07 11.18-9.266 11.18-2.648 0-3.862-1.478-4.413-2.718-.586-1.319-.586-2.745-.586-3.282l-.001-11c0-4.411 3.589-8 8-8 1.401 0 2.718.364 3.864 1h11.272c1.146-.636 2.463-1 3.864-1 4.411 0 8 3.589 8 8zm-28.327-25.237c7.19 0 13.04 5.849 13.04 13.039h2c0-8.292-6.747-15.039-15.04-15.039s-15.039 6.747-15.039 15.039c0 4.181 1.676 8.066 4.718 10.938l1.373-1.454c-2.638-2.491-4.091-5.859-4.091-9.484 0-7.19 5.849-13.039 13.039-13.039zm28.327 8.712v7.525h-2v-6.471l-3.793.198c-.513.027-.921-.302-1.028-.777-.55-2.427-1.502-4.725-2.832-6.83-.261-.414-.185-.955.179-1.28l2.538-2.265-6.036-6.036-2.271 2.546c-.325.364-.869.44-1.279.18-2.107-1.329-4.402-2.28-6.824-2.829-.476-.107-.805-.544-.777-1.031l.193-3.405h-8.536l.194 3.402c.028.488-.301.925-.779 1.032-2.424.547-4.72 1.498-6.827 2.826-.411.26-.955.185-1.279-.18l-2.268-2.541-6.036 6.036 2.543 2.269c.364.326.44.867.18 1.28-1.332 2.108-2.286 4.405-2.834 6.826-.109.477-.588.798-1.032.777l-3.396-.193v8.536l3.387-.194c.453-.031.924.302 1.032.779.547 2.429 1.498 4.73 2.829 6.839.261.414.185.955-.18 1.28l-2.528 2.255 6.065 6.067 3.677-3.792 1.436 1.392-4.384 4.521c-.187.193-.442.302-.71.304h-.008c-.265 0-.519-.106-.707-.293l-7.532-7.533c-.194-.195-.301-.461-.293-.736s.129-.534.334-.717l2.698-2.407c-1.081-1.857-1.901-3.839-2.447-5.914l-3.612.206c-.271.016-.544-.083-.744-.271-.2-.189-.313-.452-.313-.727v-10.654c0-.275.113-.538.313-.727s.472-.285.744-.272l3.623.207c.547-2.068 1.368-4.046 2.45-5.9l-2.712-2.42c-.205-.183-.326-.443-.334-.718s.099-.541.293-.735l7.532-7.533c.195-.195.453-.305.736-.293.275.008.534.129.717.334l2.419 2.71c1.854-1.079 3.832-1.898 5.903-2.443l-.206-3.628c-.016-.275.082-.544.271-.744s.451-.313.727-.313h10.653c.275 0 .538.113.726.313.19.2.288.469.272.744l-.206 3.631c2.068.546 4.045 1.366 5.897 2.445l2.423-2.715c.184-.205.443-.326.718-.334.271-.014.541.098.735.293l7.534 7.533c.194.194.3.46.293.735-.008.275-.129.535-.334.718l-2.708 2.415c1.081 1.854 1.902 3.835 2.45 5.909l4.018-.211c.265-.019.542.084.741.273.2.189.312.452.312.726z" fill="#fff" transform="translate(12 12)"/></g></svg>