<svg height="80" viewBox="0 0 80 80" width="80" xmlns="http://www.w3.org/2000/svg"><g fill="none" fill-rule="evenodd"><path d="m0 0h80v80h-80z" fill="#e7157b"/><path d="m53.5202995 12.9808368-5.5066441-1.391487c5.4640261 9.5270274 4.596799 22.0103384-2.3876 30.0126407-4.7722268 5.4687742-11.8537553 8.3980095-18.9739373 8.3980095-4.1428677 0-8.2986198-.9917726-12.021254-3.0514538l.9524631-1.7571405c9.32839 5.1622263 21.605352 3.0494502 28.5560532-4.914784 6.4591072-7.3992244 7.2242493-18.9819258 2.1001762-27.7946766l-1.4291903 5.780331-1.9227663-.4858684 1.9822333-8.01432372c.1328097-.5359579.6699949-.86654876 1.2012334-.72830167l7.9289333 2.00358089zm-45.7618383 23.6061906 1.43117245-5.7873436 1.92276635.4858684-1.98223335 8.0143238c-.11199618.4558147-.51637177.7593572-.96039204.7593572-.07928933 0-.1605609-.0090161-.24084135-.0300537l-7.92893326-2.003581.47970046-1.9434735 5.49772411 1.3884816c-5.42140812-9.3657391-4.53634095-20.9674745 2.48175611-29.00884665 7.65736732-8.77267915 20.65784452-11.02069696 30.91094632-5.34555395l-.9524631 1.75714048c-9.4483151-5.22834446-21.4229866-3.16265251-28.47180824 4.91378226-6.47496512 7.41926026-7.26092063 18.15544866-2.18739446 26.79989866zm10.6376551-7.8670606c1.2666471 0 2.2974084 1.0418621 2.2974084 2.3231521 0 1.2802883-1.0307613 2.3221503-2.2974084 2.3221503-1.2676382 0-2.2983995-1.041862-2.2983995-2.3221503 0-1.28129 1.0307613-2.3231521 2.2983995-2.3231521zm7.468064-8.8708546c.3637398.1021826.7403642.1743116 1.1358197.1743116.3716687 0 .7264885-.0631128 1.070406-.1542758l3.6978562 7.9842701c-.6273768.5750277-1.0832905 1.3283741-1.2864694 2.1879104h-7.9338888c-.1992145-.8445094-.6422436-1.5888397-1.2527715-2.1608621zm1.1358197-6.4745718c1.2676382 0 2.2983995 1.0418621 2.2983995 2.3221503 0 1.28129-1.0307613 2.3231521-2.2983995 2.3231521-1.2666471 0-2.2974084-1.0418621-2.2974084-2.3231521 0-1.2802882 1.0307613-2.3221503 2.2974084-2.3221503zm9.93198 17.6685785c0 1.2802883-1.0307613 2.3221503-2.2983995 2.3221503-1.2666471 0-2.2974084-1.041862-2.2974084-2.3221503 0-1.28129 1.0307613-2.3231521 2.2974084-2.3231521 1.2676382 0 2.2983995 1.0418621 2.2983995 2.3231521zm-18.5358637 4.3257313c2.0169224 0 3.7028118-1.4225425 4.1517877-3.3239408h7.9338888c.449967 1.9013983 2.1348653 3.3239408 4.1517877 3.3239408 2.3598488 0 4.2806328-1.9404682 4.2806328-4.3257313 0-2.3862649-1.920784-4.326733-4.2806328-4.326733-.3914911 0-.7641509.0711271-1.1249174.1713062l-3.6879451-7.9622307c.8870494-.793418 1.4599148-1.9394663 1.4599148-3.2287707 0-2.3852631-1.920784-4.3257312-4.2806328-4.3257312s-4.2796417 1.9404681-4.2796417 4.3257312c0 1.2652614.5490786 2.3932775 1.4073856 3.1846919l-4.5631011 8.0203345c-.3736509-.1081933-.7601864-.1853312-1.1685265-.1853312-2.3598488 0-4.2806329 1.9404681-4.2806329 4.326733 0 2.3852631 1.9207841 4.3257313 4.2806329 4.3257313z" fill="#fff" transform="translate(13 15)"/></g></svg>