<svg height="80" viewBox="0 0 80 80" width="80" xmlns="http://www.w3.org/2000/svg"><g fill="none" fill-rule="evenodd"><path d="m0 0h80v80h-80z" fill="#dd344c"/><path d="m67 17h-3v2h2v47h-5v2h6c.553 0 1-.448 1-1v-49c0-.552-.447-1-1-1zm-48 47h-2v3c0 .552.447 1 1 1h35v-2h-34zm16.5-24c.256 0 .512-.098.707-.293l8-8-1.414-1.414-7.293 7.293-3.293-3.293-1.414 1.414 4 4c.195.195.451.293.707.293zm-9.5-5.5c0 6.341 5.159 11.5 11.5 11.5s11.5-5.159 11.5-11.5-5.159-11.5-11.5-11.5-11.5 5.159-11.5 11.5zm-2 0c0-7.444 6.056-13.5 13.5-13.5s13.5 6.056 13.5 13.5-6.056 13.5-13.5 13.5-13.5-6.056-13.5-13.5zm-10-17.5h46v-3h-46zm46 43v-41h-46v41h34v2h-35c-.553 0-1-.448-1-1v-48c0-.552.447-1 1-1h48c.553 0 1 .448 1 1v48c0 .552-.447 1-1 1h-5v-2zm-33-3v-9h2v7.473l8.101-3.533c.253-.111.545-.111.798 0l8.101 3.533v-7.473h2v9c0 .337-.17.652-.452.836-.165.109-.357.164-.548.164-.136 0-.271-.027-.399-.083l-9.101-3.969-9.101 3.969c-.308.135-.665.105-.947-.081-.282-.184-.452-.499-.452-.836z" fill="#fff"/></g></svg>