<svg height="80" viewBox="0 0 80 80" width="80" xmlns="http://www.w3.org/2000/svg"><g fill="none" fill-rule="evenodd"><path d="m0 0h80v80h-80z" fill="#8c4fff"/><path d="m50 41c-2.206 0-4-1.794-4-4s1.794-4 4-4 4 1.794 4 4-1.794 4-4 4zm-16.346 5.22c-.349-.43-.758-.808-1.212-1.127l7.422-15.699 4.833 4.807c-.443.836-.697 1.788-.697 2.799 0 .846.178 1.65.495 2.38zm-4.654 7.78c-2.206 0-4-1.794-4-4s1.794-4 4-4 4 1.794 4 4-1.794 4-4 4zm-27-29c0-2.206 1.794-4 4-4s4 1.794 4 4-1.794 4-4 4-4-1.794-4-4zm25.444-7.958 10.915 10.855-7.723 16.336c-.521-.148-1.068-.233-1.636-.233-.937 0-1.822.222-2.613.607l-15.698-15.874c.818-1.026 1.311-2.322 1.311-3.733 0-.401-.041-.792-.117-1.172zm-5.918-8.705c.179-.423.305-.872.384-1.337h22.18c.032.186.072.369.12.549l-16.319 7.117zm-5.526 1.663c-2.206 0-4-1.794-4-4s1.794-4 4-4 4 1.794 4 4-1.794 4-4 4zm30.435.815-7.169 15.164-9.851-9.796 15.624-6.814c.38.558.855 1.044 1.396 1.446zm3.565-8.815c2.206 0 4 1.794 4 4s-1.794 4-4 4-4-1.794-4-4 1.794-4 4-4zm0 29c-1.572 0-3 .612-4.071 1.605l-5.158-5.129 7.445-15.747c.564.176 1.163.271 1.784.271 3.309 0 6-2.691 6-6s-2.691-6-6-6c-2.967 0-5.431 2.167-5.91 5h-22.18c-.479-2.833-2.943-5-5.91-5-3.309 0-6 2.691-6 6s2.691 6 6 6c1.747 0 3.316-.755 4.414-1.949l5.505 5.475-14.755 6.435c-1.045-1.769-2.965-2.961-5.164-2.961-3.309 0-6 2.691-6 6s2.691 6 6 6c1.176 0 2.27-.345 3.197-.932l15.541 15.715c-1.073 1.085-1.738 2.574-1.738 4.217 0 3.309 2.691 6 6 6s6-2.691 6-6c0-.715-.132-1.399-.363-2.036l10.952-6.91c1.098 1.193 2.666 1.946 4.411 1.946 3.309 0 6-2.691 6-6s-2.691-6-6-6z" fill="#fff" transform="translate(12 12)"/></g></svg>