<svg height="80" viewBox="0 0 80 80" width="80" xmlns="http://www.w3.org/2000/svg"><g fill="none" fill-rule="evenodd"><path d="m0 0h80v80h-80z" fill="#01a88d"/><path d="m42 16c0-5.514-4.486-10-10-10s-10 4.486-10 10c0 1.021.153 2.027.454 2.99l-1.908.597c-.362-1.156-.546-2.363-.546-3.587 0-6.617 5.383-12 12-12s12 5.383 12 12c0 5.793-4.13 10.757-9.819 11.802l-.362-1.967c4.741-.871 8.181-5.007 8.181-9.835zm-36 34h4v-3h-4zm5-5h-6c-.553 0-1 .448-1 1v5c0 .552.447 1 1 1h6c.553 0 1-.448 1-1v-5c0-.552-.447-1-1-1zm5 5h4v-3h-4zm5-5h-6c-.553 0-1 .448-1 1v5c0 .552.447 1 1 1h6c.553 0 1-.448 1-1v-5c0-.552-.447-1-1-1zm29 9h-48v-47h7v17 14 2h2v-2-11.739l9 8.181v5.558h2v-13.865l10 8.333v7.532c0 .552.447 1 1 1h17zm-48-49h7v-3h-7zm49 36h-17v-7c0-.297-.132-.578-.359-.768l-12-10c-.299-.249-.715-.301-1.065-.138-.351.165-.576.518-.576.906v7.739l-9-8.181v-22.558c0-.552-.447-1-1-1h-9c-.553 0-1 .448-1 1v54c0 .552.447 1 1 1h50c.553 0 1-.448 1-1v-13c0-.552-.447-1-1-1zm2.285-4.423c-.677.772-1.763 1.292-2.536.613l-9.265-8.316c1.082-.799 2.055-1.727 2.898-2.76l9.189 7.84c.313.274.455.639.425 1.085-.034.508-.286 1.054-.711 1.538zm1.595-4.136-9.325-7.957c1.554-2.483 2.445-5.401 2.445-8.484 0-8.822-7.178-16-16-16s-16 7.178-16 16c0 1.448.193 2.884.575 4.266l1.928-.532c-.334-1.209-.503-2.465-.503-3.734 0-7.72 6.28-14 14-14s14 6.28 14 14c0 6.345-4.277 11.91-10.402 13.534l.511 1.933c1.291-.342 2.509-.84 3.639-1.465l9.674 8.684c.63.552 1.383.821 2.16.821 1.113 0 2.277-.551 3.207-1.611.712-.812 1.139-1.779 1.203-2.723.071-1.07-.319-2.037-1.112-2.732z" fill="#fff" transform="translate(12 12)"/></g></svg>