<svg height="80" viewBox="0 0 80 80" width="80" xmlns="http://www.w3.org/2000/svg"><g fill="none" fill-rule="evenodd"><path d="m0 0h80v80h-80z" fill="#7aa116"/><path d="m47.836 30.893.384-2.704c3.541 2.121 3.587 2.997 3.5860132 3.021-.0060132.005-.6100132.509-3.9700132-.317zm-1.943-.54c-6.12-1.852-14.643-5.762-18.092-7.392 0-.014.004-.027.004-.041 0-1.325-1.078-2.403-2.404-2.403-1.324 0-2.402 1.078-2.402 2.403s1.078 2.403 2.402 2.403c.582 0 1.11-.217 1.527-.562 4.058 1.921 12.515 5.774 18.68 7.594l-2.438 17.206c-.007.047-.01.094-.01.141 0 1.515-6.707 4.298-17.666 4.298-11.075 0-17.853-2.783-17.853-4.298 0-.046-.003-.091-.009-.136l-5.094-37.207c4.409 3.035 13.892 4.641 22.962 4.641 9.056 0 18.523-1.6 22.941-4.626zm-43.893-21.875c.072-1.316 7.634-6.478 23.5-6.478 15.864 0 23.427 5.161 23.5 6.478v.449c-.87 2.951-10.67 6.073-23.5 6.073-12.852 0-22.657-3.132-23.5-6.087zm49 .022c0-3.465-9.934-8.5-25.5-8.5s-25.5 5.035-25.5 8.5l.094.754 5.548 40.524c.133 4.532 12.219 6.222 19.852 6.222 9.472 0 19.535-2.178 19.665-6.219l2.396-16.897c1.333.319 2.43.482 3.311.482 1.183 0 1.983-.289 2.468-.867.398-.474.55-1.048.436-1.659-.259-1.384-1.902-2.876-5.248-4.785l2.376-16.762z" fill="#fff" transform="translate(12.9999 11.9996)"/></g></svg>