<svg height="80" viewBox="0 0 80 80" width="80" xmlns="http://www.w3.org/2000/svg"><g fill="none" fill-rule="evenodd"><path d="m0 0h80v80h-80z" fill="#7aa116"/><path d="m50 2c2.206 0 4 1.794 4 4s-1.794 4-4 4-4-1.794-4-4 1.794-4 4-4zm0 10c3.309 0 6-2.691 6-6s-2.691-6-6-6c-2.967 0-5.431 2.167-5.91 5h-12.09v2h12.09c.479 2.833 2.943 5 5.91 5zm-9.707 28.293c6.663-6.664 6.663-17.922 0-24.586l1.414-1.414c7.43 7.43 7.43 19.984 0 27.414zm-24.586-24.586c-6.663 6.664-6.663 17.922 0 24.586l-1.414 1.414c-7.43-7.43-7.43-19.984 0-27.414zm-9.707 38.293c-2.206 0-4-1.794-4-4s1.794-4 4-4 4 1.794 4 4-1.794 4-4 4zm0-10c-3.309 0-6 2.691-6 6s2.691 6 6 6c2.967 0 5.431-2.167 5.91-5h12.09v-2h-12.09c-.479-2.833-2.943-5-5.91-5zm44 10c-2.206 0-4-1.794-4-4s1.794-4 4-4 4 1.794 4 4-1.794 4-4 4zm-32-26c0-5.514 4.486-10 10-10s10 4.486 10 10-4.486 10-10 10-10-4.486-10-10zm-12-18c-2.206 0-4-1.794-4-4s1.794-4 4-4 4 1.794 4 4-1.794 4-4 4zm44 34c-2.967 0-5.431 2.167-5.91 5h-15.09v-9.051c6.15-.511 11-5.67 11-11.949s-4.85-11.438-11-11.949v-10.051c0-.552-.447-1-1-1h-16.09c-.479-2.833-2.943-5-5.91-5-3.309 0-6 2.691-6 6s2.691 6 6 6c2.967 0 5.431-2.167 5.91-5h15.09v9.051c-6.15.511-11 5.67-11 11.949s4.85 11.438 11 11.949v10.051c0 .552.447 1 1 1h16.09c.479 2.833 2.943 5 5.91 5 3.309 0 6-2.691 6-6s-2.691-6-6-6z" fill="#fff" transform="translate(12 12)"/></g></svg>