<svg height="80" viewBox="0 0 80 80" width="80" xmlns="http://www.w3.org/2000/svg"><g fill="none" fill-rule="evenodd"><path d="m0 0h80v80h-80z" fill="#ed7100"/><path d="m32.144 47h6.456c.304 0 .59.138.78.375.19.236.262.546.197.842l-1.735 7.804 10.015-14.021h-6.456c-.304 0-.59-.138-.78-.375-.19-.236-.262-.546-.197-.842l1.735-7.804zm3.656 14.6c-.137 0-.275-.028-.407-.087-.435-.193-.672-.666-.569-1.13l2.529-11.383h-7.152c-.375 0-.718-.209-.89-.542-.171-.333-.142-.734.076-1.039l14-19.6c.278-.388.788-.526 1.221-.332.434.193.672.666.569 1.13l-2.529 11.383h7.152c.375 0 .718.209.89.542.171.333.141.734-.076 1.039l-14 19.6c-.193.27-.499.419-.814.419zm-12.8 4.4h34v-40c0-.552.448-1 1-1h4v-11h-7v6c0 .552-.447 1-1 1h-9c-.552 0-1-.448-1-1v-6h-8v6c0 .552-.447 1-1 1h-9c-.552 0-1-.448-1-1v-6h-7v11h4c.553 0 1 .448 1 1zm35 2h-36c-.552 0-1-.448-1-1v-40h-4c-.552 0-1-.448-1-1v-13c0-.552.448-1 1-1h9c.553 0 1 .448 1 1v6h7v-6c0-.552.448-1 1-1h10c.553 0 1 .448 1 1v6h7v-6c0-.552.448-1 1-1h9c.553 0 1 .448 1 1v13c0 .552-.447 1-1 1h-4v40c0 .552-.447 1-1 1z" fill="#fff"/></g></svg>