<svg height="80" viewBox="0 0 80 80" width="80" xmlns="http://www.w3.org/2000/svg"><g fill="none" fill-rule="evenodd"><path d="m0 0h80v80h-80z" fill="#dd344c"/><path d="m15.5 41c.275 0 .5.224.5.5s-.225.5-.5.5-.5-.224-.5-.5.225-.5.5-.5zm0 3c1.379 0 2.5-1.122 2.5-2.5s-1.121-2.5-2.5-2.5-2.5 1.122-2.5 2.5 1.121 2.5 2.5 2.5zm.5-14.5c0 .276-.225.5-.5.5s-.5-.224-.5-.5.225-.5.5-.5.5.224.5.5zm-2 0c0 .827.673 1.5 1.5 1.5s1.5-.673 1.5-1.5-.673-1.5-1.5-1.5-1.5.673-1.5 1.5zm9.5-7.5c.275 0 .5.224.5.5s-.225.5-.5.5-.5-.224-.5-.5.225-.5.5-.5zm0 2c.827 0 1.5-.673 1.5-1.5s-.673-1.5-1.5-1.5-1.5.673-1.5 1.5.673 1.5 1.5 1.5zm-3.5 11.5c0 .276-.225.5-.5.5s-.5-.224-.5-.5.225-.5.5-.5.5.224.5.5zm-2 0c0 .827.673 1.5 1.5 1.5s1.5-.673 1.5-1.5-.673-1.5-1.5-1.5-1.5.673-1.5 1.5zm5.5-7.5c.827 0 1.5.673 1.5 1.5s-.673 1.5-1.5 1.5-1.5-.673-1.5-1.5.673-1.5 1.5-1.5zm0 5c1.93 0 3.5-1.57 3.5-3.5s-1.57-3.5-3.5-3.5-3.5 1.57-3.5 3.5 1.57 3.5 3.5 3.5zm-7-14c.827 0 1.5.673 1.5 1.5s-.673 1.5-1.5 1.5-1.5-.673-1.5-1.5.673-1.5 1.5-1.5zm0 5c1.93 0 3.5-1.57 3.5-3.5s-1.57-3.5-3.5-3.5-3.5 1.57-3.5 3.5 1.57 3.5 3.5 3.5zm12.207-5.293-1.414-1.414c3.166-3.166 8.288-5.293 12.746-5.293 4.413 0 9.504 2.127 12.668 5.293l-1.414 1.414c-2.771-2.771-7.397-4.707-11.254-4.707-3.9 0-8.56 1.936-11.332 4.707zm11.332-1.707c3.415 0 6.574 1.2 8.668 3.292l-1.414 1.416c-1.696-1.696-4.408-2.708-7.254-2.708-2.897 0-5.638 1.012-7.332 2.707l-1.414-1.414c2.061-2.062 5.33-3.293 8.746-3.293zm25.961 44.384-1.972.993v-9.368l1.972 1.489zm-3.972 4.616h-2.028v-16h2.028v15.623zm-44.028-1.229v-14.771h2v16h-2zm-4-3.485v-7.6l2-.772v9.057zm26-29.286c5.064 0 9.895 1.937 13.253 5.312 3.085 3.103 4.771 7.251 4.7472527 11.688v17h-36.0002527l-.001-16.969c.305-9.709 8.043-17.031 18.001-17.031zm-2-5c0-1.118 1.088-1.353 2-1.353s2 .235 2 1.353v3.096c-.662-.061-1.329-.096-2-.096-.677 0-1.344.032-2 .092zm30 26.502-3.972-3v-2.502h-4.071c-.217-4.586-2.059-8.853-5.286-12.098-2.827-2.842-6.584-4.76-10.671-5.526v-3.376c0-2.037-1.57-3.353-4-3.353s-4 1.316-4 3.353v3.369c-8.749 1.64-15.203 8.619-15.921 17.631h-4.079v2.77l-4 1.544v10.4l4 1.371v3.915h48.028v-3.384l3.972-2zm-35-7.502c1.103 0 2 .897 2 2s-.897 2-2 2-2-.897-2-2 .897-2 2-2zm0 6c2.206 0 4-1.794 4-4s-1.794-4-4-4-4 1.794-4 4 1.794 4 4 4zm14-6c1.103 0 2 .897 2 2s-.897 2-2 2-2-.897-2-2 .897-2 2-2zm0 6c2.206 0 4-1.794 4-4s-1.794-4-4-4-4 1.794-4 4 1.794 4 4 4z" fill="#fff"/></g></svg>