<svg height="80" viewBox="0 0 80 80" width="80" xmlns="http://www.w3.org/2000/svg"><g fill="none" fill-rule="evenodd"><path d="m0 0h80v80h-80z" fill="#ed7100"/><path d="m35.6276379 61.365876c.666-.472 1.332-.957 2-1.458v5.72h-2zm25.745-25.738h4.255v2h-5.71c.501-.668.983-1.334 1.455-2zm-1.745 6h6v2h-6v4h6v2h-6v4h6v2h-6v3c0 .552-.447 1-1 1h-3v6h-2v-6h-4v6h-2v-6h-4v6h-2v-6h-3.631c.852-.646 1.701-1.313 2.55-2h17.081v-17.071c.687-.847 1.354-1.698 2-2.549zm-40 14h-6v-2h6v-4h-6v-2h6v-4h-6v-2h6v-4h-6v-2h6v-4h-6v-2h6v-4h-6v-2h6v-3c0-.553.447-1 1-1h3v-6h2v6h4v-6h2v6h4v-6h2v6h4v-6h2v6h4v-6h2v6h4v-6h2v6h3c.553 0 1 .447 1 1v6.647c-.588 1.018-1.254 2.091-2 3.217v-8.864h-36v36h8.865c-1.125.746-2.199 1.412-3.217 2h-6.648c-.553 0-1-.448-1-1zm28-12c2.206 0 4 1.794 4 4 0 2.205-1.794 4-4 4s-4-1.795-4-4c0-2.206 1.794-4 4-4zm0 10c3.309 0 6-2.692 6-6 0-1.463-.527-2.804-1.4-3.846 14.317-15.811 17.103-26.778 13.563-30.317-1.501-1.502-3.909-1.847-7.163-1.044v2.073c2.71-.747 4.741-.623 5.749.385 3.692 3.692-4.14 17.042-13.673 27.607-.9-.541-1.951-.858-3.076-.858-3.309 0-6 2.691-6 6 0 1.125.317 2.175.858 3.076-10.585 9.546-23.909 17.366-27.607 13.673-1.007-1.008-1.131-3.04-.385-5.749h-2.073c-.803 3.253-.457 5.661 1.044 7.163.899.899 2.275 1.391 4.087 1.391 5.33 0 14.433-4.276 26.227-14.957 1.042.874 2.385 1.403 3.849 1.403z" fill="#fff"/></g></svg>