<svg height="80" viewBox="0 0 80 80" width="80" xmlns="http://www.w3.org/2000/svg"><g fill="none" fill-rule="evenodd"><path d="m0 0h80v80h-80z" fill="#01a88d"/><path d="m50.592 31.523c-.581.58-1.529.584-2.114.006l-3.775-3.728c-.288-.283-.715-.365-1.089-.212-.372.156-.614.52-.614.923v21.488c0 3.859-3.14 7-7 7-3.859 0-7-3.141-7-7 0-3.86 3.141-7 7-7 .901 0 1.783.172 2.624.513.309.126.66.089.935-.097.276-.186.441-.497.441-.83v-20.086c0-.712.501-1.321 1.206-1.466.022-.002.044-.005.061-.008.067-.01.134-.023.203-.026.018.001.034.002.05.002h.01c.401 0 .776.154 1.058.434l8.006 7.957c.285.283.442.66.443 1.062 0 .401-.155.779-.445 1.068zm-6.595-11.507c-.653-.648-1.518-1.008-2.435-1.014-.231-.018-.422.019-.531.041-.04.002-.104.009-.143.016-1.673.297-2.888 1.743-2.888 3.441v9.5 1.708 2.157 1.135 4.226c-.654-.151-1.323-.226-2-.226-4.963 0-9 4.037-9 9 0 4.962 4.037 9 9 9s9-4.038 9-9v-8-2.419-2.266-.315-6.094l2.072 2.047c1.365 1.347 3.58 1.339 4.94-.021.662-.663 1.026-1.544 1.0250021-2.48-.0020021-.938-.3690021-1.817-1.0330021-2.478zm22.003 15.515c-5.004 4.291-11.924 5.467-18 3.204v2.113c2.044.679 4.162 1.024 6.276 1.024 4.15 0 8.265-1.296 11.724-3.795v25.923c0 1.103-.897 2-2 2h-48c-1.102 0-2-.897-2-2v-18.719l1.421-2.324c4.142-6.781 12.119-9.913 19.579-8.101v-2.039c-7.987-1.735-16.414 1.58-21 8.674v-25.491c0-1.103.898-2 2-2h48c1.103 0 2 .897 2 2zm-2-23.531h-48c-2.206 0-4 1.794-4 4v48c0 2.205 1.794 4 4 4h48c2.206 0 4-1.795 4-4v-48c0-2.206-1.794-4-4-4z" fill="#fff"/></g></svg>