<svg height="80" viewBox="0 0 80 80" width="80" xmlns="http://www.w3.org/2000/svg"><g fill="none" fill-rule="evenodd"><path d="m0 0h80v80h-80z" fill="#c925d1"/><path d="m68.024 29.02-3.221.756 2.521 2.828c-.188.374-.44.677-.756.91-.318.234-.672.378-1.065.434l-1.959-3.388-1.96 3.388c-.392-.056-.747-.2-1.065-.434-.317-.233-.569-.536-.756-.91l2.521-2.828-3.22-.756c-.038-.187-.057-.336-.057-.448 0-.635.243-1.195.729-1.68l3.023 1.484-.391-3.612c.373-.168.764-.252 1.176-.252.429 0 .821.084 1.175.252l-.391 3.612 3.023-1.484c.486.485.729 1.045.729 1.68 0 .112-.019.261-.056.448zm-15.094 23.258c1.503 0 3.171-.3 5.002-.902v1.927c-1.694.765-3.402 1.148-5.125 1.148-3.171 0-5.575-.909-7.216-2.726-1.639-1.818-2.46-4.49-2.46-8.016 0-3.499.834-6.17 2.501-8.016 1.667-1.844 4.086-2.767 7.257-2.767 1.695 0 3.294.328 4.797.984v1.927c-1.503-.492-3.061-.738-4.674-.738-2.596 0-4.475.663-5.636 1.988-1.163 1.327-1.744 3.452-1.744 6.376v.492c0 2.843.588 4.94 1.764 6.294 1.175 1.353 3.02 2.029 5.534 2.029zm-21.93-39.278c10.767 0 18 3.103 18 6s-7.233 6-18 6c-10.642 0-17-3.051-17-6s6.358-6 17-6zm18 49c0 2.897-7.233 6-18 6-8.357 0-17-2.244-17-6v-10.117c2.973 2.557 9.075 4.117 17 4.117 4.092 0 7.981-.435 11.244-1.256l-.489-1.94c-3.105.782-6.825 1.196-10.755 1.196-8.357 0-17-2.23-17-5.963v-10.237c3.001 2.584 9.168 4.2 17 4.2 4.088 0 7.977-.439 11.246-1.27l-.493-1.938c-3.11.791-6.829 1.208-10.753 1.208-10.642 0-17-3.051-17-6v-11.2c3.001 2.584 9.168 4.2 17 4.2 7.258 0 14.578-1.468 18-4.304v3.304h2v-7c0-5.252-10.062-8-20-8-11.187 0-19 3.29-19 8v43c0 4.785 7.635 8 19 8 9.938 0 20-2.748 20-8v-2h-2z" fill="#fff"/></g></svg>