<svg height="80" viewBox="0 0 80 80" width="80" xmlns="http://www.w3.org/2000/svg"><g fill="none" fill-rule="evenodd"><path d="m0 0h80v80h-80z" fill="#dd344c"/><path d="m59.6107389 59.179-20.104-39.179h5.751l20.105 39.179zm8.278.543-21.13-41.178c-.17-.334-.514-.544-.889-.544h-8c-.349 0-.672.181-.854.479-.181.297-.195.668-.036.978l21.13 41.179c.171.333.515.543.89.543h8c.348 0 .672-.181.853-.479.182-.297.196-.667.036-.978zm-20.29-.543-15.384-28.847 3.151-5.211 17.975 34.058zm-11.289-36.555c-.169-.319-.495-.523-.855-.533-.346-.021-.698.174-.885.482l-4.36 7.211c-.183.302-.193.677-.028.988l15.935 29.878c.174.325.514.529.883.529h8c.35 0 .675-.184.856-.484s.192-.673.028-.983zm-21.537 36.555 14.112-23.339 2.875 5.389-6.626 11.449c-.179.31-.179.691-.001 1.001.179.309.509.5.867.5h12.667l2.666 5zm25.376-6.471c-.174-.325-.514-.529-.883-.529h-11.532l6.035-10.429c.174-.299.18-.666.018-.971l-3.964-7.433c-.17-.317-.496-.519-.856-.529-.384-.017-.697.175-.882.482l-15.941 26.362c-.186.31-.192.695-.015 1.009.177.315.509.509.871.509h30c.351 0 .676-.184.857-.485.181-.302.191-.676.025-.986z" fill="#fff"/></g></svg>