<svg height="80" viewBox="0 0 80 80" width="80" xmlns="http://www.w3.org/2000/svg"><g fill="none" fill-rule="evenodd"><path d="m0 0h80v80h-80z" fill="#8c4fff"/><path d="m12 43h4v-25.608l-4 2.728zm11-30.38-5 3.408v26.972h5zm2-1.364v31.744h6v-31.744l-3-2.046zm13 4.772-5-3.408v30.38h5zm6 4.092-4-2.728v25.608h4zm7 24.88h-46v-2h5v-21.517l-3.437 2.343-1.126-1.652 22-15c.339-.232.787-.232 1.126 0l22 15-1.126 1.652-3.437-2.343v21.517h5zm-48 5h10v-2h-10zm14 0h22v-2h-22zm26 0h10v-2h-10zm-43 5h25v-2h-25zm31 0h25v-2h-25zm-29.445-35.168-1.11-1.664 27-18c.336-.224.774-.224 1.11 0l27 18-1.11 1.664-26.445-17.63z" fill="#fff" transform="translate(12 13)"/></g></svg>