<svg height="80" viewBox="0 0 80 80" width="80" xmlns="http://www.w3.org/2000/svg"><g fill="none" fill-rule="evenodd"><path d="m0 0h80v80h-80z" fill="#ed7100"/><path d="m14.797 33.5288573c-.01-.1834749-.014-.3750146-.014-.5705868 0-5.7401434 3.783-7.9267207 6.094-8.726147-.013-.2318639-.018-.4647359-.018-.6965998 0-4.7542178 3.157-9.6868701 7.343-11.4742382 4.9-2.09282364 10.096-1.0524604 13.891 2.785391 1.13 1.1421817 2.063 2.5172353 2.787 4.1009665 1.404-1.0998413 3.212-1.4839289 4.939-.9728202 2.429.7147456 4.063 2.9396308 4.456 6.0133395 1.397.348804 3.713 1.2016598 5.372 3.1896407-.367-.0352837-.737-.0564538-1.112-.0564538-.59 0-1.164.0594781-1.73.146175-1.328-.9324961-2.804-1.3115431-3.646-1.4577182-.53-.0917374-.891-.5877245-.823-1.1230277-.194-2.4829598-1.34-4.2652874-3.077-4.7774042-1.436-.4223955-2.98.1401264-3.929 1.436548-.22.2994069-.59.4516305-.952.398201-.366-.0554457-.672-.3094879-.795-.6613161-.676-1.9264865-1.653-3.5455013-2.906-4.8126879-1.537-1.553488-5.749-4.8903118-11.695-2.3519063-3.434 1.465783-6.123 5.6897382-6.123 9.6173109 0 .4314685.024.8629369.074 1.2833162.006.0473809.01.0947618.01.1431508 0 .4848979-.34.8941881-.799.9889499-2.025.5332869-5.361 2.1502855-5.361 7.0073299 0 .1602886.004.3165447.012.4697765.066 1.3841266.534 2.6825643 1.331 3.7743408h-2.337c-.578-1.1250439-.93-2.3670279-.992-3.6735305zm42.161 28.001093v-4.5556213l4.197 2.2783147zm-.526-7.1313267c-.309-.1683534-.685-.1592804-.987.0221783s-.487.5101005-.487.8659612v7.9317612c0 .3548526.185.6834944.487.8649531.158.0947618.335.1431508.513.1431508.163 0 .326-.0403242.474-.1209725l7.306-3.9658806c.325-.1754101.527-.5171573.527-.8871314 0-.3709822-.202-.7117213-.527-.8881395zm2.103 12.5851687c-4.116 0-7.466-3.3761399-7.466-7.5254954 0-4.1503636 3.35-7.5265035 7.466-7.5265035s7.465 3.3761399 7.465 7.5265035c0 4.1493555-3.349 7.5254954-7.465 7.5254954zm-44.535-8.6112233h19v-17.1377657h-19zm44.535-27.2188044c4.116 0 7.465 3.3761399 7.465 7.5254954 0 4.1503636-3.349 7.5265035-7.465 7.5265035s-7.466-3.3761399-7.466-7.5265035c0-4.1493555 3.35-7.5254954 7.466-7.5254954zm0 18.7618211c-4.772 0-8.72 3.5828011-9.363 8.2170546l-14.172-5.6836896v-4.6544155l14.687-5.755265c1.352 3.6069956 4.803 6.182701 8.848 6.182701 5.219 0 9.465-4.280409 9.465-9.5427112 0-5.2612941-4.246-9.5417031-9.465-9.5417031s-9.466 4.280409-9.466 9.5417031c0 .475825.046.9385447.113 1.3952157l-14.182 5.5566686v-5.4044449c0-.5564733-.447-1.0081038-1-1.0081038h-21c-.553 0-1 .4516305-1 1.0081038v19.1539735c0 .5564733.447 1.0081039 1 1.0081039h21c.553 0 1-.4516306 1-1.0081039v-4.7622827l14.11 5.6605032c.416 4.8782147 4.48 8.7211066 9.425 8.7211066 5.219 0 9.465-4.280409 9.465-9.5417031 0-5.2623022-4.246-9.5427112-9.465-9.5427112zm-1.577-13.3392304 4.197 2.2783148-4.197 2.2783147zm-1.513 7.1101566c.158.0947618.335.1421426.513.1421426.163 0 .326-.039316.474-.1199643l7.306-3.9658806c.325-.1764182.527-.5171573.527-.8881395 0-.3699742-.202-.7117214-.527-.8871314l-7.306-3.9668888c-.309-.1683533-.685-.1592804-.987.0221783s-.487.5111087-.487.8659613v7.9317612c0 .3548525.185.6845025.487.8659612zm-34.445 3.2944834 5.762 3.2259324-5.762 2.581754zm-1.545 8.2039493c.165.1078671.355.1633128.545.1633128.138 0 .276-.0282269.406-.0866969l9-4.0324155c.347-.155248.577-.494979.593-.8770503.017-.3810633-.181-.7399483-.514-.9254394l-9-5.0405193c-.308-.1733939-.687-.1683534-.992.0120972-.305.1814587-.493.5121168-.493.8689856v9.0729348c0 .3407391.171.6592999.455.844791z" fill="#fff"/></g></svg>