<svg height="80" viewBox="0 0 80 80" width="80" xmlns="http://www.w3.org/2000/svg"><g fill="none" fill-rule="evenodd"><path d="m0 0h80v80h-80z" fill="#8c4fff"/><path d="m61 41.3717025-5.5-2.2v19.951c1.606-.16 2.901-.688 3.821-1.622 1.7-1.728 1.68-4.261 1.679-4.286zm-7.5 17.764v-19.964l-5.5 2.2v11.823c.007.207.234 5.357 5.5 5.941zm9.5-5.941c.003.113.053 3.347-2.235 5.69-1.496 1.533-3.605 2.31-6.265 2.31-6.573 0-8.435-5.218-8.5-7.976v-12.524c0-.409.249-.777.629-.929l7.5-3c.238-.095.504-.095.742 0l7.5 3c.38.152.629.52.629.929zm3.001-1.966-.001-13.357-11.5-4.6-11.5 4.6v13.323c-.002.091-.135 6.228 3.534 10.004 1.932 1.988 4.612 2.996 7.966 2.996 3.377 0 6.07-1.015 8.004-3.016 3.664-3.792 3.499-9.889 3.497-9.95zm-2.059 11.339c-2.325 2.407-5.502 3.627-9.442 3.627-3.921 0-7.087-1.216-9.41-3.614-4.259-4.393-4.099-11.133-4.09-11.417v-13.969c0-.409.249-.777.629-.929l12.5-5c.238-.095.504-.095.742 0l12.5 5c.38.152.629.52.629.929v14c.009.25.189 6.978-4.058 11.373zm-40.887-15.373h14.945v2h-14.945c-6.078 0-10.718-4.052-11.031-9.635-.022-.228-.024-.494-.024-.76 0-6.869 4.803-9.398 7.604-10.288-.02-.321-.03-.646-.03-.973 0-5.453 3.89-11.158 9.047-13.27 6.056-2.48 12.441-1.279 17.074 3.207 1.561 1.521 2.751 3.145 3.612 4.934 1.206-1.035 2.662-1.591 4.222-1.591 3.305 0 6.801 2.594 7.402 7.563 2.183.55 4.923 1.718 6.857 4.198l-1.576 1.23c-1.782-2.286-4.471-3.238-6.412-3.636-.445-.09-.772-.468-.798-.92-.261-4.421-3.02-6.435-5.473-6.435-1.462 0-2.758.69-3.749 1.995-.221.292-.581.443-.945.385-.361-.055-.665-.302-.79-.645-.767-2.09-1.991-3.936-3.743-5.643-4.044-3.914-9.626-4.959-14.923-2.791-4.449 1.822-7.805 6.731-7.805 11.419 0 .541.031 1.076.094 1.589.061.501-.263.969-.753 1.091-2.582.639-6.915 2.605-6.915 8.581 0 .202-.002.405.018.608.254 4.528 4.054 7.787 9.037 7.787z" fill="#fff"/></g></svg>