<svg height="80" viewBox="0 0 80 80" width="80" xmlns="http://www.w3.org/2000/svg"><g fill="none" fill-rule="evenodd"><path d="m0 0h80v80h-80z" fill="#dd344c"/><path d="m55.5558823 41.8371782c-2.0513711-1.5827834-3.7892402-2.9150258-5.2579614-4.0126344 1.7287968-3.053221 3.7509345-6.5319643 4.6521265-7.2617149 2.4828142 1.5350613 10.4010057 15.2392616 11.0058325 18.8343275-1.9455263-1.0359676-6.759948-4.7503387-10.3999976-7.5599782m-15.7537233 8.1574988c-.6249877-.3847595-1.8285931-2.0798888-3.2075983-4.2532334.2893088-.4563427.5967625-.9454943.9263931-1.472426 1.8618586-2.967719 4.9424434-7.8811082 6.0492765-8.5333105.6421245.1988422 2.2126582 1.2546939 4.1108065 2.6386352-2.2943099 4.067316-6.3416095 11.2007778-7.8788778 11.6203347m-8.0996395-.6442485c-.6965589-.7993454-1.9445183-3.0343311-2.7307932-4.4461103-1.9878642-3.5622569-2.7287771-4.7960724-3.7821839-4.831864-.8679265-.0318147-1.8013759.7585828-5.520053 4.137905-1.4354557 1.3053986-3.5422692 3.2202484-5.00091 4.3307818 2.0564113-4.4819019 8.3294738-15.4828433 10.4171344-18.1562759.9475621 1.3232945 2.8638551 4.6529061 4.4565658 7.4168119 1.8981483 3.2977969 3.424328 5.9026289 4.6783357 7.9338014-.9898999 1.5459976-1.9576229 2.9935684-2.5180958 3.6149501m34.8339942-4.2731176c-1.9011724-4.2591987-8.8455926-16.5744866-11.6136835-16.5744866-1.4263833 0-2.8567988 2.1405356-6.2529015 8.1217072-2.7066002-1.9595893-4.2589891-2.8722747-5.1047386-2.9001126-1.532228-.0248553-3.1884456 2.2101304-7.7589204 9.4996832-.1260056.2008306-.2560434.4086206-.3891053.6203875-1.4435201-2.3741751-2.952563-4.9929261-4.121895-7.0240986-4.5341852-7.8751429-5.1662293-8.7818631-6.1450407-8.8176547-.6905107-.0258495-1.3336432-.0477221-6.5311219 8.93696-2.3316075 4.0315244-5.2831625 9.4788048-6.2518935 11.9126326-.2953571.7396928-.6612774 1.6613261.0191528 2.2389625 1.2771927 1.0846839 3.2721133-.5319027 8.650032-5.4194425 1.3618684-1.2387865 3.1571961-2.8692921 3.9858089-3.4469285.540312.6949533 1.5080349 2.4288567 2.1824169 3.6378169 2.2832213 4.0931655 3.2610247 5.64314 4.484791 5.6779374h.0372977c.8679265 0 1.6632738-.8460734 3.6773472-3.9370744 2.0977411 3.2103063 3.2932822 4.3963997 4.3144315 4.3963997h.0151207c2.2902777-.0258495 4.8174458-4.0016981 9.574409-12.4216685 1.667306 1.2497229 3.446505 2.6217336 5.0059502 3.8247286 10.4937458 8.0978461 12.098553 9.0512942 13.2094183 7.8572471.6209556-.6691038.9324414-1.8810466-.9868758-6.1829963" fill="#fff"/></g></svg>