<svg height="80" viewBox="0 0 80 80" width="80" xmlns="http://www.w3.org/2000/svg"><g fill="none" fill-rule="evenodd"><path d="m0 0h80v80h-80z" fill="#8c4fff"/><path d="m6 28c0 1.103-.897 2-2 2s-2-.897-2-2 .897-2 2-2 2 .897 2 2zm-6 0c0 2.206 1.794 4 4 4s4-1.794 4-4-1.794-4-4-4-4 1.794-4 4zm56-24.055v48.11c0 2.175-1.77 3.945-3.944 3.945h-48.112c-2.174 0-3.944-1.77-3.944-3.945v-18.055h2v18.055c0 1.072.872 1.945 1.944 1.945h48.112c1.072 0 1.944-.873 1.944-1.945v-48.11c0-1.072-.872-1.945-1.944-1.945h-48.112c-1.072 0-1.944.873-1.944 1.945v18.055h-2v-18.055c0-2.175 1.77-3.945 3.944-3.945h48.112c2.174 0 3.944 1.77 3.944 3.945zm-46.611 40.055c5.709 0 12.257-3.749 14.91-8.534l1.75.97c-3.023 5.452-10.185 9.564-16.66 9.564h-4.389v-2zm34.74-35h4.531l-2.483-2.483 1.414-1.414 4.132 4.131c.187.187.293.442.293.707s-.106.519-.293.707l-4.132 4.131-1.414-1.414 2.365-2.365h-4.413c-5.038 0-11.595 2.758-14.885 8.919l-1.764-.942c3.187-5.968 9.877-9.977 16.649-9.977zm-21.728 5.428c3.456 3.49 5.36 8.131 5.358 13.067-.001 4.408 1.715 8.553 4.832 11.671 3.117 3.117 7.263 4.834 11.672 4.834h4.277l-2.391-2.39 1.414-1.414 4.132 4.131c.188.188.293.442.293.707s-.105.52-.293.707l-4.132 4.132-1.414-1.415 2.459-2.458h-4.345c-4.944 0-9.591-1.925-13.086-5.42-3.495-3.496-5.42-8.143-5.418-13.086.001-4.405-1.696-8.546-4.779-11.659-3.087-3.118-7.204-4.835-11.59-4.835h-4.39v-2h4.39c4.924 0 9.546 1.928 13.011 5.428zm-8.401 6.572c-1.103 0-2-.897-2-2s.897-2 2-2 2 .897 2 2-.897 2-2 2zm0-6c-2.206 0-4 1.794-4 4s1.794 4 4 4 4-1.794 4-4-1.794-4-4-4zm4.301 16.974-1.322 2.909-2.91-1.323 1.323-2.909zm-6.88 2.579 6.55 2.978 2.978-6.55-6.55-2.978zm34.578-15.553h4.031l-.028 14h-4.016zm-2.015 16h8.014l.036-18h-8.033zm-9.985-14h4.031l-.028 12h-4.016zm-2.015 14h8.014l.036-16h-8.033z" fill="#fff" transform="translate(12 12)"/></g></svg>