<svg height="80" viewBox="0 0 80 80" width="80" xmlns="http://www.w3.org/2000/svg"><g fill="none" fill-rule="evenodd"><path d="m0 0h80v80h-80z" fill="#dd344c"/><path d="m35.694 39.281c.25.241.356.593.283.932l-1.025 4.709 4.525-2.774c.321-.198.725-.198 1.047.001l4.492 2.767-.995-4.717c-.07-.335.035-.682.279-.921l4.039-3.954-5.266-.76c-.328-.048-.61-.254-.756-.551l-2.326-4.762-2.381 4.774c-.145.293-.426.496-.75.543l-5.251.767zm-3.195 7.506 1.405-6.455-5.148-4.973c-.275-.265-.374-.662-.258-1.026.117-.363.43-.628.807-.682l6.748-.987 3.052-6.119c.169-.34.489-.574.899-.554.38.002.727.22.894.561l2.984 6.108 6.744.975c.377.054.689.317.807.679s.022.759-.251 1.025l-5.091 4.984 1.363 6.46c.082.392-.076.795-.404 1.025-.326.23-.758.243-1.099.034l-5.952-3.668-6 3.678c-.16.099-.342.148-.523.148-.203 0-.406-.062-.579-.185-.326-.232-.483-.637-.398-1.028zm-18.499-25.766h52v-5.021h-52zm54-6.021v50c0 .552-.448 1-1 1h-6v-2h5v-40.978h-52v40.978h38v2h-39c-.553 0-1-.448-1-1v-50c0-.552.447-1 1-1h54c.552 0 1 .448 1 1zm-44 44h6v-2h-6zm10 0h14v-2h-14zm-10-5h6v-2h-6zm10 0h22v-2h-22z" fill="#fff"/></g></svg>