<svg height="80" viewBox="0 0 80 80" width="80" xmlns="http://www.w3.org/2000/svg"><g fill="none" fill-rule="evenodd"><path d="m0 0h80v80h-80z" fill="#8c4fff"/><path d="m38.29505 27.2267312c4.492269 0 6.9527937 1.0064513 7.4014251 1.5111881-.4486314.5047369-2.9091561 1.5111881-7.4014251 1.5111881-4.4922689 0-6.9527936-1.0064512-7.401425-1.5111881.4486314-.5047368 2.9091561-1.5111881 7.401425-1.5111881zm-.5111618 8.05564c-.1647628-.0846265-.2808909-.2528721-.2808909-.4523489 0-.2800736.2263008-.5087667.5032215-.5087667.0803963 0 .1538448.0231716.2223306.0584326zm5.783573 8.3085122c-.0744411.0604475-.2451592.1773127-.5965209.3183569-.3126524.1249249-.6828726.2377603-1.1027201.3364913-1.1156231.2619392-2.4873234.4060058-3.862994.4060058-3.0084107 0-5.1046706-.6498109-5.5562796-1.0527943l-1.332991-12.4481601c2.0436548.8361907 5.0540507 1.1132419 7.1790944 1.1132419 2.0893121 0 5.0341998-.2689915 7.0768621-1.0729436l-.7970154 5.4745308c-1.5017241-.5661918-3.3756533-1.3882782-5.1513204-2.2526777-.1806436-.6266394-.7434179-1.0880555-1.4173575-1.0880555-.817859 0-1.4828656.6760048-1.4828656 1.5051434 0 .8311534.6650066 1.5061508 1.4828656 1.5061508.1935467 0 .3781605-.0402984.5468935-.1088056 2.4813682 1.2250698 4.3304838 2.0108877 5.7220351 2.4954753zm-14.695655-14.7441585 1.6069341 15.0030754c.1131504 2.7846159 7.2207814 2.8168546 7.5264859 2.8168546 1.521575 0 3.0520829-.1632083 4.3096403-.4573863.515132-.120895.9816293-.2639542 1.385596-.426155 1.1731909-.4714907 1.7885702-1.1142494 1.8312497-1.9091343l.6689769-4.5980417c.4555792.0936937.8277844.1349995 1.1245561.1349995.9339869 0 1.1801387-.3828343 1.3498642-.6467885.1786586-.2780586.230271-.6195871.146897-.9631305-.190569-.7898477-1.3051996-1.8295451-2.0496101-2.4471173l.9409348-6.4688925-.0089329-.0010075c.0039702-.0493654.019851-.0957085.019851-.1460815 0-2.7836084-5.9274924-3.5261055-9.4291992-3.5261055-3.5017067 0-9.4291991.7424971-9.4291991 3.5261055 0 .037276.0129032.0705221.0148882.1077981zm8.9636945-8.7870551c8.651042 0 15.6891947 7.1438899 15.6891947 15.9249002s-7.0381527 15.9249001-15.6891947 15.9249001c-8.6520346 0-15.6901874-7.1438898-15.6901874-15.9249001s7.0381528-15.9249002 15.6901874-15.9249002zm-24.8504062 21.775213v2.0149175h8.9329255v-.1188802c2.8555585 6.0185585 8.9081118 10.1934675 15.9174807 10.1934675 9.7448291 0 17.6742893-8.0475804 17.6742893-17.9398176 0-9.8922373-7.9294602-17.9398176-17.6742893-17.9398176-7.5820687 0-14.044544 4.8801301-16.5497333 11.7006257h-8.3006729v2.0149174h7.6912489c-.3096748 1.2965994-.4913109 2.6415568-.5061991 4.0298349h-9.1701443v2.0149175h9.2515331c.1399492 1.3993602.4545867 2.7433101.8932926 4.0298349zm54.0948191 24.2001662c-1.2009822 1.2210399-3.2833464 1.2280922-4.4833361.011082l-10.6639279-10.825144c1.7161142-1.2986143 3.2476147-2.8309591 4.5607547-4.5446464l10.5984198 10.8090247c.5965209.6064902.9250541 1.4144721.9230779 2.2738344-.0010015.8613772-.3325122 1.6683516-.9349884 2.2758493zm1.4173575-5.9722154-10.8356386-11.0528297c2.4019644-3.7537912 3.8034411-8.2248931 3.8034411-13.0254339 0-13.2259182-10.6004049-23.98457-23.6295729-23.98457-9.3626985 0-17.8529479 5.6196048-21.6315753 14.316996l1.8163615.8120117c3.4610123-7.9659761 11.2386128-13.1140902 19.8152138-13.1140902 11.9353809 0 21.6444784 9.8549613 21.6444784 21.9696525 0 12.1136837-9.7090975 21.9696525-21.6444784 21.9696525-7.9731323 0-15.2782802-4.429796-19.0668332-11.5605889l-1.7468832.9570858c4.1339594 7.7836261 12.1100693 12.6184205 20.8137164 12.6184205 4.5557919 0 8.8128272-1.3187634 12.4247067-3.5956202l10.9339008 11.0981654c.9707113.9852946 2.2620153 1.5283149 3.6337156 1.5283149 1.3796407 0 2.6788851-.5470501 3.6535665-1.537382.9766665-.9852947 1.5166122-2.2990208 1.5186097-3.7003959.0029653-1.3993602-.5320177-2.7130864-1.5027289-3.6993885z" fill="#fff"/></g></svg>