<svg height="80" viewBox="0 0 80 80" width="80" xmlns="http://www.w3.org/2000/svg"><g fill="none" fill-rule="evenodd"><path d="m0 0h80v80h-80z" fill="#e7157b"/><path d="m33 18c-1.654 0-3-1.346-3-3s1.346-3 3-3 3 1.346 3 3-1.346 3-3 3zm-10-10c-1.654 0-3-1.346-3-3s1.346-3 3-3 3 1.346 3 3-1.346 3-3 3zm-8 18c-1.654 0-3-1.346-3-3s1.346-3 3-3 3 1.346 3 3-1.346 3-3 3zm-10-9c-1.654 0-3-1.346-3-3s1.346-3 3-3 3 1.346 3 3-1.346 3-3 3zm28-7c-1.018 0-1.963.309-2.753.833l-3.08-3.08c.524-.791.833-1.735.833-2.753 0-2.757-2.243-5-5-5s-5 2.243-5 5c0 1.592.762 2.997 1.926 3.913l-4.563 9.124c-.122-.009-.238-.037-.363-.037-1.272 0-2.424.493-3.307 1.279l-2.526-2.526c.524-.791.833-1.735.833-2.753 0-2.757-2.243-5-5-5s-5 2.243-5 5 2.243 5 5 5c1.018 0 1.963-.309 2.753-.833l2.727 2.728c-.299.642-.48 1.351-.48 2.105 0 2.757 2.243 5 5 5s5-2.243 5-5c0-1.916-1.095-3.563-2.681-4.402l4.394-8.787c.413.111.84.189 1.287.189 1.018 0 1.963-.309 2.753-.833l3.08 3.08c-.524.791-.833 1.735-.833 2.753 0 2.757 2.243 5 5 5s5-2.243 5-5-2.243-5-5-5zm-6.497 29h-14.003l-4.5-6h23.048zm-4.272 15h-5.462l-3.468-13h12.398zm10.829-23h-27.06c-.379 0-.725.214-.895.553-.168.339-.132.744.095 1.047l5.884 7.845 3.95 14.813c.116.437.513.742.966.742h7c.453 0 .85-.305.966-.742l3.95-14.811 5.94-7.843c.23-.303.268-.709.099-1.049s-.516-.555-.895-.555z" fill="#fff" transform="translate(20 12)"/></g></svg>