<svg height="80" viewBox="0 0 80 80" width="80" xmlns="http://www.w3.org/2000/svg"><g fill="none" fill-rule="evenodd"><path d="m0 0h80v80h-80z" fill="#c925d1"/><path d="m26.6283186 28.1047251h-2.0176991v-6.9816731c0-.5585339.3601593-.9904002.9261239-.9904002l7.1446725-.0069817v1.9947638h-4.7315044l4.861646 4.8183518-1.4446725 1.4342351-4.8061593-4.7275901zm28.0702301 10.8674729 1.8683894.8268296-6.5413806 14.446079-1.8673805-.8268296zm1.3104955 10.4924573 4.0031151-2.8894153-3.5259292-3.5357187 1.4577876-1.4212692 4.3592389 4.3725221c.2088319.2094502.3157699.498691.2905487.7919212-.0232035.2932303-.1755398.5625234-.4166549.7350705l-4.9625309 3.5806009zm-9.0433274-8.801895 1.2055752 1.6337115-4.0616283 2.9313053 3.5380354 3.5367161-1.4537522 1.4232639-4.3743717-4.3725221c-.2098407-.2094502-.3177876-.4986909-.2925664-.7919212.0232036-.2942277.174531-.5625234.4166549-.7360678zm22.0342832-16.532602v42.8574991c0 .5595312-.4580177 1.0123426-1.0239823 1.0123426h-31.2592035c-.2723894 0-.5316638-.1067199-.7233452-.2972198-.1916814-.1895026-.2855044-.4318663-.2855044-.7001621v-11.9685824h2.0176991v10.9712006h29.2566372v-40.8926568h-29.2566372v-1.9947638h30.250354c.5659646 0 1.0239823.4528114 1.0239823 1.0123426zm-35.8181947 10.457549c0-1.9269418 1.5849027-3.4948261 3.5350089-3.4948261s3.5350088 1.5678843 3.5350088 3.4948261c0 1.9269417-1.5849026 3.494826-3.5350088 3.494826s-3.5350089-1.5678843-3.5350089-3.494826zm-15.6331327 31.4215185c-1.9501062 0-3.5350089-1.5678843-3.5350089-3.4948261s1.5849027-3.4948261 3.5350089-3.4948261 3.5350088 1.5678843 3.5350088 3.4948261-1.5849026 3.4948261-3.5350088 3.4948261zm-3.5350089-23.4424636c0-1.9269417 1.5849027-3.494826 3.5350089-3.494826 1.9823893 0 3.5350088 1.5349707 3.5350088 3.494826 0 1.9269418-1.5849026 3.4948261-3.5350088 3.4948261s-3.5350089-1.5678843-3.5350089-3.4948261zm.0040354-25.0811619c0-1.924947 1.5838938-3.4908366 3.5309735-3.4908366 1.9470796 0 3.5309734 1.5658896 3.5309734 3.4908366 0 1.9239496-1.5838938 3.4908366-3.5309734 3.4908366-1.9470797 0-3.5309735-1.566887-3.5309735-3.4908366zm23.7079646 29.7628725v-7.2768982c2.5695398-.4767485 4.5357876-2.7078918 4.5357876-5.3838673 0-3.0220671-2.487823-5.4816108-5.5446371-5.4816108-3.0568142 0-5.5446372 2.4595437-5.5446372 5.4816108 0 2.6759755 1.9662478 4.9071188 4.5357876 5.3838673v7.2768982c0 1.1629472-.7858938 2.2171799-1.9803717 2.6859493l-10.4506725 4.1002369c-1.6726726.6562773-2.9024602 1.9468894-3.4341239 3.4958235-.4327965-.1954869-.8010266-.3361177-1.2852744-.4169056v-9.1459918c2.6230089-.4328637 4.5357876-2.6869468 4.5357876-5.4008229 0-2.7637451-1.8784778-4.9719486-4.5357876-5.3928437v-14.2845032c2.6260354-.4318664 4.539823-2.6879442 4.539823-5.403815 0-3.0250592-2.4888318-5.4856003-5.5486725-5.4856003s-5.5486726 2.4605411-5.5486726 5.4856003c0 2.6400698 2.0217345 4.850268 4.539823 5.3689066v14.3473383c-2.5150619.5186385-4.5357876 2.726842-4.5357876 5.364917 0 2.6380751 2.0207257 4.8462786 4.5357876 5.3649171v9.2178033c-2.5150619.5186386-4.5357876 2.726842-4.5357876 5.3649171 0 3.0220671 2.487823 5.4816108 5.5446372 5.4816108 3.0568141 0 5.5446371-2.4595437 5.5446371-5.4816108 0-1.4232639-.5568849-2.7178656-1.4587964-3.6933051.167469-1.2706645 1.066354-2.3837426 2.3970265-2.9053734l10.4506726-4.1002368c1.9793628-.7769605 3.2434513-2.5692558 3.2434513-4.5670116z" fill="#fff"/></g></svg>