<svg height="80" viewBox="0 0 80 80" width="80" xmlns="http://www.w3.org/2000/svg"><g fill="none" fill-rule="evenodd"><path d="m0 0h80v80h-80z" fill="#01a88d"/><path d="m22.0624102 50c2.3139793 3.603 6.3479433 6 10.9379023 6 7.166936 0 12.9988839-5.832 12.9988839-13s-5.8319479-13-12.9988839-13c-5.3969518 0-10.0339104 3.307-11.9978929 8h2.2119803c1.8249837-3.556 5.5219507-6 9.7859126-6 6.0649458 0 10.9989018 4.935 10.9989018 11s-4.933956 11-10.9989018 11c-3.4089696 0-6.4589423-1.559-8.4789243-4zm14.9378666-5v-2h4.9989553c0-4.962-4.0369639-9-8.9989196-9-4.9629557 0-9.0009196 4.038-9.0009196 9h4.9999553v2h-4.7679574c.9129918 4.002 4.4939599 7 8.7689217 7 2.1359809 0 4.0989634-.751 5.6439496-2h-4.6439585v-2h6.4779421c.6029946-.898 1.0419907-1.913 1.2899885-3zm-15.9978572 3h2.2119803c-.7709931-1.502-1.2139892-3.199-1.2139892-5 0-1.041.1549986-2.045.4259962-3h-2.0629816c-.2289979.965-.3639967 1.966-.3639967 3 0 1.771.3589968 3.46 1.002991 5zm-1.2589887 2h-2.7429755v-2h1.8739832c-.3399969-.96-.5849948-1.962-.7249935-3h-2.7349756l1.2929885 1.293-1.4149874 1.414-2.9999732-3c-.3899965-.391-.3899965-1.023 0-1.414l2.9999732-3 1.4149874 1.414-1.2929885 1.293h2.5859769c0-1.027.1039991-2.03.3019973-3h-1.3019883v-2h1.8739832c2.0659816-5.816 7.6089321-10 14.1258739-10 4.4269605 0 8.399925 1.939 11.1479005 5h14.8518674v2h-13.333881c1.4689869 2.318 2.3329792 5.058 2.3329792 8h11.0009018v2h-11.1499005c-.9819912 7.327-7.2589352 13-14.8498674 13-5.7439487 0-10.7379041-3.248-13.2568816-8zm17.2568459-11c0-.552-.447996-1-.9999911-1h-6.0009375c-.552004 0-1 .448-1 1v2h2.0009822v-1h.999991v3h-.999991v2h3.9999642v-2h-.999991v-3h.999991v1h1.9999822zm11.9998928 1h9.9999108v-2h-9.9999108zm0 10h9.9999108v-2h-9.9999108zm7.9999286-23h3.584968l-3.584968-3.586zm6.7069401.293c.1869984.187.2929974.442.2929974.707v35c0 .552-.447996 1-.9999911 1h-30.9997142c-.553004 0-1-.448-1-1v-4h1.9999821v3h28.9997411v-33h-5.9999465c-.552995 0-.999991-.448-.999991-1v-6h-21.9998036v5h-1.9999821v-6c0-.552.446996-1 1-1h23.9997767c.2649977 0 .5189954.105.7069937.293zm4.2929617-3.127v36.834c0 .552-.447996 1-.9999911 1h-1.9999821v-2h.9999911v-35.388l-7.3829341-6.612h-22.6167981v1h-1.9999821v-2c0-.552.446996-1 1-1h23.9997768c.2459978 0 .4829956.091.665994.255l7.9999286 7.165c.2119981.19.333997.461.333997.746z" fill="#fff"/></g></svg>