<svg height="80" viewBox="0 0 80 80" width="80" xmlns="http://www.w3.org/2000/svg"><g fill="none" fill-rule="evenodd"><path d="m0 0h80v80h-80z" fill="#8c4fff"/><path d="m30.649 15c0 2.594-2.11 4.704-4.704 4.704s-4.703-2.11-4.703-4.704 2.109-4.704 4.703-4.704 4.704 2.11 4.704 4.704zm2 0c0-3.696-3.008-6.704-6.704-6.704s-6.703 3.008-6.703 6.704 3.007 6.704 6.703 6.704 6.704-3.008 6.704-6.704zm-8.355 11.74c.028-.488-.301-.925-.778-1.032-1.215-.276-2.366-.753-3.422-1.42-.413-.262-.955-.187-1.28.179l-.843.944-2.436-2.437.943-.842c.364-.325.441-.866.18-1.28-.665-1.052-1.142-2.204-1.416-3.422-.108-.478-.568-.805-1.032-.779l-1.265.073v-3.448l1.269.073c.485.025.924-.301 1.033-.778.273-1.211.751-2.36 1.418-3.416.26-.413.184-.954-.18-1.28l-.951-.849 2.438-2.437.848.95c.324.364.868.44 1.279.18 1.055-.665 2.204-1.141 3.416-1.414.478-.108.807-.545.779-1.033l-.073-1.272h3.449l-.073 1.273c-.028.489.301.925.778 1.033 1.212.274 2.361.75 3.414 1.415.411.259.954.185 1.28-.179l.85-.953 2.438 2.437-.949.847c-.364.326-.441.867-.179 1.281.665 1.052 1.142 2.201 1.417 3.417.108.477.579.803 1.032.778l1.268-.073v3.448l-1.267-.073c-.454-.026-.925.301-1.032.779-.273 1.213-.75 2.364-1.416 3.42-.261.414-.185.955.18 1.28l.945.844-2.437 2.438-.84-.942c-.326-.367-.869-.442-1.281-.18-1.055.667-2.207 1.144-3.423 1.418-.477.108-.806.545-.778 1.033l.073 1.259h-3.449zm5.162 2.947c.188-.201.286-.47.27-.744l-.086-1.499c.865-.256 1.698-.601 2.491-1.032l1 1.121c.183.205.443.326.718.334.27.012.541-.098.736-.293l3.934-3.935c.194-.194.301-.46.293-.735s-.129-.535-.334-.718l-1.125-1.003c.431-.793.775-1.625 1.03-2.488l1.506.086c.275.016.544-.083.743-.272.201-.189.314-.452.314-.727v-5.564c0-.275-.113-.538-.314-.727-.199-.189-.467-.284-.743-.272l-1.508.086c-.255-.863-.6-1.695-1.03-2.485l1.127-1.006c.205-.183.326-.443.334-.718s-.099-.541-.293-.735l-3.934-3.935c-.195-.195-.469-.303-.736-.292-.275.008-.534.128-.718.333l-1.009 1.132c-.79-.429-1.62-.773-2.482-1.029l.086-1.513c.016-.275-.082-.544-.271-.744s-.452-.313-.727-.313h-5.565c-.276 0-.538.113-.727.313s-.287.469-.271.744l.086 1.511c-.862.256-1.693.599-2.484 1.029l-1.008-1.13c-.183-.205-.442-.325-.717-.333-.279-.009-.54.097-.736.292l-3.934 3.935c-.195.194-.301.46-.293.735s.129.535.334.718l1.13 1.008c-.431.792-.776 1.622-1.032 2.483l-1.509-.086c-.276-.013-.544.083-.744.272s-.313.452-.313.727v5.564c0 .275.113.538.313.727s.469.289.744.272l1.503-.086c.256.865.601 1.698 1.031 2.49l-1.123 1.001c-.205.183-.326.442-.334.717-.008.276.098.542.293.736l3.934 3.935c.196.195.455.302.736.293.275-.008.535-.129.717-.334l1.002-1.123c.792.431 1.625.777 2.49 1.033l-.086 1.5c-.016.274.082.543.27.744.19.2.452.313.728.313h5.565c.275 0 .538-.113.728-.313zm1.629 5.567 1.364-1.181c1.991-1.74 5.484-1.741 7.479.003l1.357 1.174c2.738 2.397 7.367 2.399 10.105.004l.68-.589-1.311-1.512-.682.593c-1.991 1.742-5.485 1.742-7.48-.004l-1.356-1.174c-2.739-2.398-7.369-2.397-10.105-.004l-1.364 1.182c-1.992 1.742-5.484 1.742-7.478-.004l-1.357-1.174c-2.739-2.398-7.369-2.397-10.104-.004l-1.365 1.182c-1.99 1.742-5.484 1.742-7.478-.004l-.68-.589-1.31 1.512.676.585c2.739 2.397 7.369 2.399 10.105.004l1.364-1.181c1.991-1.74 5.484-1.741 7.48.003l1.356 1.174c1.37 1.2 3.213 1.8 5.056 1.8 1.841-.001 3.68-.599 5.048-1.796zm0 12.873 1.364-1.181c1.991-1.742 5.484-1.742 7.479.003l1.357 1.175c2.738 2.397 7.367 2.398 10.105.003l.68-.589-1.311-1.512-.682.593c-1.991 1.742-5.485 1.742-7.48-.004l-1.356-1.174c-2.739-2.398-7.369-2.398-10.105-.004l-1.364 1.182c-1.992 1.742-5.484 1.742-7.478-.004l-1.357-1.174c-2.739-2.398-7.369-2.398-10.104-.004l-1.365 1.182c-1.99 1.742-5.484 1.742-7.478-.004l-.68-.589-1.31 1.512.676.586c2.739 2.397 7.369 2.398 10.105.003l1.364-1.181c1.991-1.742 5.484-1.742 7.48.003l1.356 1.175c1.37 1.199 3.213 1.799 5.056 1.799 1.841-.001 3.68-.599 5.048-1.796zm-5.048-4.641c-1.843 0-3.686-.599-5.056-1.799l-1.356-1.174c-1.996-1.744-5.489-1.744-7.48-.004l-1.364 1.181c-2.736 2.395-7.366 2.394-10.105-.003l-.676-.585 1.31-1.512.68.589c1.994 1.746 5.488 1.745 7.478.003l1.365-1.181c2.735-2.394 7.365-2.394 10.104.003l1.357 1.175c1.994 1.746 5.486 1.745 7.478.003l1.364-1.181c2.736-2.394 7.366-2.394 10.105.003l1.356 1.175c1.995 1.746 5.489 1.745 7.48.003l.682-.592 1.311 1.512-.68.588c-2.738 2.395-7.367 2.394-10.105-.003l-1.357-1.174c-1.995-1.744-5.488-1.744-7.479-.004l-1.364 1.181c-1.368 1.197-3.207 1.796-5.048 1.796z" fill="#fff" transform="translate(14 15)"/></g></svg>