<svg height="80" viewBox="0 0 80 80" width="80" xmlns="http://www.w3.org/2000/svg"><g fill="none" fill-rule="evenodd"><path d="m0 0h80v80h-80z" fill="#01a88d"/><path d="m30.793 35.258 9-9c.391-.391 1.023-.391 1.414 0l9 9-1.414 1.414-8.293-8.293-8.293 8.293zm10.414 3 9 9-1.414 1.414-8.293-8.293-8.293 8.293-1.414-1.414 9-9c.391-.391 1.023-.391 1.414 0zm9 3-1.414 1.414-8.293-8.293-8.293 8.293-1.414-1.414 9-9c.391-.391 1.023-.391 1.414 0zm6.564 13.969c-.975.973-2.562.974-3.537 0-.472-.473-.732-1.1-.732-1.768s.26-1.296.732-1.768c.488-.487 1.128-.731 1.769-.731.64 0 1.28.244 1.768.731.973.975.973 2.561 0 3.536zm-14.503 7.995c-.944.945-2.592.945-3.536 0-.472-.472-.732-1.1-.732-1.768 0-.667.26-1.295.732-1.767s1.1-.732 1.768-.732 1.296.26 1.768.732.732 1.1.732 1.767c0 .668-.26 1.296-.732 1.768zm-17.032-7.989c-.472-.473-.732-1.1-.732-1.768s.26-1.295.732-1.768c.472-.472 1.1-.732 1.768-.732s1.296.26 1.768.732c.472.473.732 1.1.732 1.768s-.26 1.295-.732 1.768c-.946.944-2.59.944-3.536 0zm26.584-4.956c-.85.85-1.318 1.98-1.318 3.182 0 .473.093.929.232 1.367l-6.798 3.755c-.086-.102-.159-.213-.254-.308-.85-.85-1.98-1.318-3.182-1.318s-2.332.468-3.182 1.318c-.077.077-.134.168-.205.25l-5.889-3.533c.174-.484.28-.995.28-1.525 0-1.202-.468-2.332-1.318-3.182s-1.98-1.318-3.182-1.318-2.332.468-3.182 1.318-1.318 1.98-1.318 3.182.468 2.332 1.318 3.182 1.98 1.318 3.182 1.318c1.185 0 2.299-.459 3.144-1.288l6.023 3.613c-.101.377-.171.764-.171 1.164 0 1.202.468 2.333 1.318 3.182.85.851 1.98 1.318 3.182 1.318s2.332-.467 3.182-1.318c.85-.849 1.318-1.98 1.318-3.182 0-.375-.061-.738-.149-1.093l6.896-3.809c.026.028.046.061.073.089.877.877 2.03 1.315 3.182 1.315s2.306-.438 3.183-1.315c1.754-1.755 1.754-4.61 0-6.364-1.753-1.753-4.61-1.756-6.365 0zm8.68-3.312c-1.379 0-2.5-1.122-2.5-2.5s1.121-2.5 2.5-2.5 2.5 1.122 2.5 2.5-1.121 2.5-2.5 2.5zm-2.5-19.5c0-1.378 1.121-2.5 2.5-2.5s2.5 1.122 2.5 2.5-1.121 2.5-2.5 2.5-2.5-1.122-2.5-2.5zm-12-6.465c-1.379 0-2.5-1.121-2.5-2.5 0-1.378 1.121-2.5 2.5-2.5s2.5 1.122 2.5 2.5c0 1.379-1.121 2.5-2.5 2.5zm15.5 19.086v-8.242c2-.457 3.5-2.242 3.5-4.379 0-2.481-2.019-4.5-4.5-4.5-1.05 0-2.004.376-2.77.98l-7.453-4.116c.131-.423.223-.863.223-1.329 0-2.481-2.019-4.5-4.5-4.5s-4.5 2.019-4.5 4.5c0 2.482 2.019 4.5 4.5 4.5 1.296 0 2.457-.558 3.278-1.438l7.178 3.965c-.283.589-.456 1.241-.456 1.938 0 2.137 1.5 3.922 3.5 4.379v8.242c-2 .457-3.5 2.242-3.5 4.379 0 2.481 2.019 4.5 4.5 4.5s4.5-2.019 4.5-4.5c0-2.137-1.5-3.922-3.5-4.379zm-41 6.879c-1.379 0-2.5-1.122-2.5-2.5s1.121-2.5 2.5-2.5 2.5 1.122 2.5 2.5-1.121 2.5-2.5 2.5zm-2.5-19.5c0-1.378 1.121-2.5 2.5-2.5s2.5 1.122 2.5 2.5-1.121 2.5-2.5 2.5-2.5-1.122-2.5-2.5zm17-11.465c1.379 0 2.5 1.122 2.5 2.5 0 1.379-1.121 2.5-2.5 2.5s-2.5-1.121-2.5-2.5c0-1.378 1.121-2.5 2.5-2.5zm-10 28.465c0-2.137-1.5-3.922-3.5-4.379v-8.242c2-.457 3.5-2.242 3.5-4.379 0-.697-.173-1.349-.456-1.938l7.178-3.965c.821.88 1.982 1.438 3.278 1.438 2.481 0 4.5-2.018 4.5-4.5 0-2.481-2.019-4.5-4.5-4.5s-4.5 2.019-4.5 4.5c0 .466.092.906.223 1.329l-7.453 4.116c-.766-.604-1.72-.98-2.77-.98-2.481 0-4.5 2.019-4.5 4.5 0 2.137 1.5 3.922 3.5 4.379v8.242c-2 .457-3.5 2.242-3.5 4.379 0 2.481 2.019 4.5 4.5 4.5s4.5-2.019 4.5-4.5z" fill="#fff"/></g></svg>