<svg height="80" viewBox="0 0 80 80" width="80" xmlns="http://www.w3.org/2000/svg"><g fill="none" fill-rule="evenodd"><path d="m0 0h80v80h-80z" fill="#7aa116"/><path d="m57.4230047 47.906119c0-1.1094719-.8969578-2.0117351-1.9999059-2.0117351s-1.9999059.9022632-1.9999059 2.0117351.8969578 2.0117351 1.9999059 2.0117351 1.9999059-.9022632 1.9999059-2.0117351m-3.3598419 3.7679799c-1.2259424-.4496228-2.1658982-1.4786253-2.4968826-2.7621123h-2.1428992v8.0710813c1.9389088-1.1647946 3.6718273-3.1322716 4.6397818-5.308969m-6.6396878 6.2031853v-9.9711652c0-.5552389.446979-1.0058675.999953-1.0058675h3.1428522c.3319844-1.2865046 1.27494-2.316513 2.5028823-2.7641241-1.106948-2.5408214-3.3778412-4.8261525-5.8967227-5.9346186-.4449791 1.2372171-1.4699308 2.1857502-2.7488707 2.5207041v17.5544007c.6859677-.0663873 1.3569362-.2041911 1.9999059-.3993294m-3.9998118.3983235v-17.5533948c-1.27694-.333948-2.3008918-1.2814753-2.7468708-2.5166806-2.5238813 1.1225482-4.7937746 3.4058675-5.8987226 5.9305951 1.2289422.4486169 2.1708979 1.4776195 2.5028823 2.7641241h3.1428522c.5529739 0 .9999529.4506286.9999529 1.0058675v9.9480302c.6569691.2102263 1.3199379.3540654 1.999906.4214585m-3.9998119-1.3337804v-8.0298407h-2.1428992c-.3309845 1.283487-1.2699403 2.3114836-2.4948827 2.7621123.9599549 2.1435038 2.6908735 4.0898575 4.6377819 5.2677284m-5.9997178-7.0239732c1.1029481 0 1.9999059-.9022632 1.9999059-2.0117351s-.8969578-2.0117351-1.9999059-2.0117351c-1.1029482 0-1.999906.9022632-1.999906 2.0117351s.8969578 2.0117351 1.999906 2.0117351m8.9995767-13.0762782c0 1.1094719.8969578 2.0117351 1.9999059 2.0117351 1.1029482 0 1.999906-.9022632 1.999906-2.0117351 0-1.109472-.8969578-2.0117352-1.999906-2.0117352-1.1029481 0-1.9999059.9022632-1.9999059 2.0117352m16.9992005 11.0645431c0 1.9735122-1.4219331 3.6120704-3.2888453 3.9510478-1.2169428 3.2006706-3.7968215 6.0422464-6.7106844 7.390109v4.7527242h-1.999906v-4.0415759c-.6509693.1639565-1.3209378.2786254-1.9999059.3339481v3.7076278h-1.9999059v-3.7076278c-.6769682-.0563286-1.3439368-.1760269-1.999906-.3470243v4.0546521h-1.9999059v-4.7869237c-2.9268624-1.3740151-5.5037412-4.1954736-6.7096844-7.3559095-1.8669122-.3389774-3.2898453-1.9775356-3.2898453-3.9510478 0-1.9725063 1.4199332-3.6100586 3.2848455-3.9510478 1.27594-3.4591785 4.3317963-6.5341156 7.7866338-7.8306789.3379841-1.875943 1.9659075-3.3062867 3.9278152-3.3062867 1.9609078 0 3.5878313 1.428332 3.9278153 3.3022632 3.4488378 1.2794636 6.5076939 4.3544007 7.7866338 7.8347024 1.8649123.341995 3.2848455 1.9795474 3.2848455 3.9510478m5.5757377-9.4320201c.0449979 2.7369656-1.0359512 5.392456-2.890864 7.1476949l-1.3699356-1.4665549c1.4519317-1.3720034 2.2958921-3.4672255 2.2598937-5.6036882.001-4.1230511-3.0088584-7.4564962-6.9996707-7.8306789-.5369748-.0512993-.9379559-.5210394-.9049575-1.0632021l.0079996-.1186923c.0049998-.068399.0099996-.136798.0099996-.2082146 0-2.6414082-2.1229002-4.7899413-4.7327774-4.7899413-1.2209426 0-2.3798881.4717518-3.2648465 1.3277451-.2429885.2343672-.5899722.3279129-.9149569.2554904-.3279846-.0744342-.595972-.3108131-.7139665-.6286672-1.6649217-4.4761107-5.9497201-7.4836547-10.6624985-7.4836547-6.2847044 0-11.3974639 5.1731769-11.3974639 11.5332775 0 .4345348-.277987.8258172-.6889676.9616094-3.4308387 1.1275775-5.7357303 4.3383068-5.7357303 7.9886001 0 4.6340319 3.7258248 8.4050294 8.3056094 8.4050294h.1189944v2.0117351h-.1189944c-5.6827327 0-10.3055153-4.6732607-10.3055153-10.4167645 0-4.2809723 2.5618795-8.0740989 6.4436969-9.6543168.3659828-7.1456832 6.2267072-12.8409053 13.3783708-12.8409053 5.0957604 0 9.7655407 2.9864208 12.0034355 7.5550712 1.0589502-.667896 2.2828926-1.0259849 3.5528329-1.0259849 3.550833 0 6.4686957 2.7912825 6.7166841 6.3168483 4.5647853.8610227 7.9036282 4.8502934 7.9036282 9.6281643" fill="#fff"/></g></svg>