<svg height="80" viewBox="0 0 80 80" width="80" xmlns="http://www.w3.org/2000/svg"><g fill="none" fill-rule="evenodd"><path d="m0 0h80v80h-80z" fill="#01a88d"/><path d="m65.261848 59.9942838-13.3590087-12.9173827c-1.2978416 1.7365892-2.847398 3.2761115-4.5942988 4.5665494l13.0348 13.254497c.6353282.6302138 1.3924864.6872332 1.9130326.6202104.8024668-.1020346 1.6361463-.5471856 2.3479958-1.2544256.7158769-.7112413 1.1699704-1.5465247 1.2777044-2.3527982.0704801-.5241779.0201372-1.2814348-.6202253-1.9166503zm-11.0925685-26.0058234c0-10.9777246-8.9882326-19.9087548-20.0375061-19.9087548s-20.0375061 8.9310302-20.0375061 19.9087548 8.9882326 19.9087547 20.0375061 19.9087547 20.0375061-8.9310301 20.0375061-19.9087547zm13.7879307 28.1965667c-.1691523 1.2574266-.8336794 2.5178542-1.8727582 3.5492042-1.0380719 1.0313499-2.303694 1.6875725-3.5642818 1.8466265-.2033856.0260088-.4047574.0390132-.6031087.0390132-1.1639293 0-2.2332138-.436148-3.061859-1.2604276l-13.3137-13.5375931c-3.333711 2.0016791-7.2383112 3.1550704-11.4097291 3.1550704-12.2031342 0-22.1317734-9.8633465-22.1317734-21.9884603 0-12.1251139 9.9286392-21.9884604 22.1317734-21.9884604s22.1317734 9.8633465 22.1317734 21.9884604c0 4.1434058-1.1599019 8.0207213-3.1736204 11.332845l13.642943 13.1924761c.9806809.9733302 1.4116166 2.2737714 1.2243408 3.6712456zm-19.7696815-28.1965667c0-7.8306569-6.174061-13.9657384-14.0557553-13.9657384s-14.0557553 6.1350815-14.0557553 13.9657384c0 7.8306568 6.174061 13.964738 14.0557553 13.964738s14.0557553-6.1340812 14.0557553-13.964738zm2.0942672 0c0 8.9970525-7.0943303 16.0444436-16.1500225 16.0444436s-16.1500225-7.0473911-16.1500225-16.0444436c0-8.9970526 7.0943303-16.045444 16.1500225-16.045444s16.1500225 7.0483914 16.1500225 16.045444zm-9.1020077-9.0030546h-15.1028889v2.0006788h14.0960296v16.0054304h2.0137186v-17.0057698c0-.5521874-.4500661-1.0003394-1.0068593-1.0003394zm-15.1028889 18.0061092h12.0823111v-2.0006788h-12.0823111zm-3.0205778-5.001697h15.1028889v-2.0006788h-15.1028889zm15.1028889 28.0095032h-18.1234666v-12.0040728h-2.0137186v13.0044122c0 .5521873.4500661 1.0003394 1.0068593 1.0003394h20.1371852c.5567932 0 1.0068592-.4481521 1.0068592-1.0003394v-8.0027152h-2.0137185zm-15.1028889-34.0115396h14.8793662v-2.0006788h-14.8793662z" fill="#fff"/></g></svg>