<svg height="80" viewBox="0 0 80 80" width="80" xmlns="http://www.w3.org/2000/svg"><g fill="none" fill-rule="evenodd"><path d="m0 0h80v80h-80z" fill="#dd344c"/><path d="m29 45.031c-1.103 0-2-.897-2-2s.897-2 2-2 2 .897 2 2-.897 2-2 2m-8-2c0 1.103-.897 2-2 2s-2-.897-2-2 .897-2 2-2 2 .897 2 2m-10 0c0 1.103-.897 2-2 2s-2-.897-2-2 .897-2 2-2 2 .897 2 2m4-19c0-2.206 1.794-4 4-4s4 1.794 4 4-1.794 4-4 4-4-1.794-4-4m15 15.142v-5.142c0-.552-.447-1-1-1h-9v-3.09c2.833-.479 5-2.943 5-5.91 0-3.309-2.691-6-6-6s-6 2.691-6 6c0 2.967 2.167 5.431 5 5.91v3.09h-9c-.553 0-1 .448-1 1v5.142c-1.721.447-3 2-3 3.858 0 2.206 1.794 4 4 4s4-1.794 4-4c0-1.858-1.279-3.411-3-3.858v-4.142h8v4.142c-1.721.447-3 2-3 3.858 0 2.206 1.794 4 4 4s4-1.794 4-4c0-1.858-1.279-3.411-3-3.858v-4.142h8v4.142c-1.721.447-3 2-3 3.858 0 2.206 1.794 4 4 4s4-1.794 4-4c0-1.858-1.279-3.411-3-3.858m-11 12.858c-9.691 0-17-2.149-17-5v-36.605c3.322 2.478 10.268 3.636 16.852 3.636 6.71 0 13.787-1.166 17.148-3.661v36.63c0 2.851-7.309 5-17 5m-.148-50.031c10.257 0 17.148 2.601 17.148 5.031s-6.891 5.031-17.148 5.031c-10.081 0-16.852-2.601-16.852-5.031s6.771-5.031 16.852-5.031m0-2c-9.08 0-18.851 2.2-18.852 7.031v40c0 5.161 9.814 7 19 7s19-1.839 19-7v-40c0-4.831-9.926-7.031-19.148-7.031" fill="#fff" transform="translate(21 13)"/></g></svg>