<svg height="80" viewBox="0 0 80 80" width="80" xmlns="http://www.w3.org/2000/svg"><g fill="none" fill-rule="evenodd"><path d="m0 0h80v80h-80z" fill="#c925d1"/><path d="m47.548 44.881c-.232.229-.338.557-.284.879l1.254 7.401-6.548-3.486c-.147-.078-.309-.117-.47-.117s-.323.039-.47.117l-6.547 3.486 1.253-7.401c.054-.322-.051-.65-.284-.879l-5.322-5.253 7.344-1.08c.327-.048.608-.255.753-.552l3.273-6.714 3.274 6.714c.144.297.425.504.753.552l7.343 1.08zm8.402-6.261c-.118-.361-.429-.623-.804-.678l-8.806-1.296-3.941-8.084c-.334-.688-1.463-.688-1.797 0l-3.942 8.084-8.805 1.296c-.375.055-.687.317-.805.678-.118.36-.023.756.248 1.023l6.379 6.296-1.507 8.894c-.063.376.092.755.401.978.31.223.719.25 1.055.071l7.874-4.191 7.874 4.191c.148.079.309.118.47.118.206 0 .411-.064.585-.189.309-.223.465-.602.401-.978l-1.507-8.894 6.379-6.296c.271-.267.367-.663.248-1.023zm-44.35-24.421c0-6.727 5.473-12.199 12.201-12.199 6.726 0 12.199 5.472 12.199 12.199s-5.473 12.201-12.199 12.201c-6.728 0-12.201-5.474-12.201-12.201zm12.163 14.801c3.927 0 7.775 1.117 11.13 3.231l.295.189 1.088-1.678-.318-.204c-2.268-1.429-4.745-2.439-7.32-3.005 5.451-1.985 9.362-7.204 9.362-13.334 0-7.829-6.37-14.199-14.199-14.199-7.83 0-14.201 6.37-14.201 14.199 0 6.118 3.896 11.328 9.331 13.322-10.794 2.355-18.931 12.436-18.931 24.479 0 .552.447 1 1 1h29v-2h-27.979c.497-12.22 10.059-22 21.742-22z" fill="#fff" transform="translate(12 12)"/></g></svg>