<svg height="80" viewBox="0 0 80 80" width="80" xmlns="http://www.w3.org/2000/svg"><g fill="none" fill-rule="evenodd"><path d="m0 0h80v80h-80z" fill="#ed7100"/><path d="m32 41h3v-2h-3zm-6 0h3v-2h-3zm-6 0h3v-2h-3zm-6 0h3v-2h-3zm45.627 6.412 2.316-.772-2.316-.772-.772-2.315-.771 2.315-2.315.772 2.315.772.771 2.315zm-22.725 2.726-.772 2.316-2.316.772 2.316.771.772 2.316.772-2.316 2.315-.771-2.315-.772zm0-24.88-.772 2.315-2.316.772 2.316.772.772 2.316.772-2.316 2.315-.772-2.315-.772zm3.684 14.675c3.671 2.405 6.251 7.098 7.314 13.319 2.046-2.682 5.306-7.819 5.306-13.319 0-5.474-2.881-10.286-5.299-13.36-1.058 6.241-3.643 10.949-7.321 13.36zm-2.497.919c-.367-.158-.606-.519-.606-.919s.239-.762.606-.919c4.37-1.874 7.337-7.309 8.139-14.91.041-.392.309-.724.684-.846.374-.123.787-.012 1.052.281 2.705 2.994 7.242 9.105 7.242 16.394 0 7.743-5.543 14.499-7.242 16.385-.193.214-.465.33-.743.33-.104 0-.207-.016-.309-.048-.376-.122-.644-.454-.685-.847-.803-7.596-3.769-13.028-8.138-14.901zm28.911-.852c0 12.682-10.317 23-23 23-11.447 0-21.244-8.54-22.788-19.865l1.982-.27c1.41 10.339 10.354 18.135 20.806 18.135 11.579 0 21-9.42 21-21s-9.421-21-21-21c-10.139 0-18.825 7.226-20.654 17.181l-1.967-.362c2.004-10.904 11.517-18.819 22.621-18.819 12.683 0 23 10.318 23 23z" fill="#fff"/></g></svg>