<svg height="80" viewBox="0 0 80 80" width="80" xmlns="http://www.w3.org/2000/svg"><g fill="none" fill-rule="evenodd"><path d="m0 0h80v80h-80z" fill="#8c4fff"/><path d="m33 23h2v-2h-2zm-2 1v-4c0-.552.447-1 1-1h4c.553 0 1 .448 1 1v4c0 .552-.447 1-1 1h-4c-.553 0-1-.448-1-1zm10-7h2v-2h-2zm-2 1v-4c0-.552.447-1 1-1h4c.553 0 1 .448 1 1v4c0 .552-.447 1-1 1h-4c-.553 0-1-.448-1-1zm4 9h2v-2h-2zm-1-4h4c.553 0 1 .448 1 1v4c0 .552-.447 1-1 1h-4c-.553 0-1-.448-1-1v-4c0-.552.447-1 1-1zm-2 10.5c-1.761 0-8.146-.075-12.299-1.096l10.145 16.062c.1.16.154.345.154.534v2.277c1.404.407 2.701.411 4 .016v-2.293c0-.189.054-.374.154-.534l10.145-16.062c-4.153 1.021-10.538 1.096-12.299 1.096zm-15.746-2.808c-.159-.232-.254-.482-.254-.755 0-2.845 9.384-3.371 14.978-3.432l.021 2c-6.872.075-11.071.859-12.551 1.443 1.57.656 6.195 1.552 13.552 1.552 7.338 0 11.957-.891 13.539-1.546-.646-.261-1.984-.647-4.66-.974l.242-1.985c6.062.74 6.879 1.902 6.879 2.942 0 .273-.095.523-.254.755l-11.746 18.598v2.71c0 .408-.248.776-.627.928-1.091.438-2.187.656-3.307.656-1.11 0-2.242-.215-3.412-.646-.392-.145-.654-.519-.654-.938v-2.71zm22.67 28.925c.155.374.069.804-.217 1.09l-6 6c-.195.195-.451.293-.707.293s-.512-.098-.707-.293l-6-6c-.286-.286-.372-.716-.217-1.09.154-.373.52-.617.924-.617h3v-3h2v4c0 .552-.447 1-1 1h-1.586l3.586 3.586 3.586-3.586h-1.586c-.553 0-1-.448-1-1v-4h2v3h3c.404 0 .77.244.924.617z" fill="#fff"/></g></svg>