<svg height="80" viewBox="0 0 80 80" width="80" xmlns="http://www.w3.org/2000/svg"><g fill="none" fill-rule="evenodd"><path d="m0 0h80v80h-80z" fill="#8c4fff"/><path d="m30 26h5v2h-5v5h-2v-5h-5v-2h5v-5h2zm19.865-10c-2.612 0-3.755-.658-3.865-.843l-.012-12.252c.119-.232 1.305-.905 3.877-.905 2.425 0 3.871.588 4.135.916l.021 12.145c-.188.317-1.644.939-4.156.939zm-20.865 20c-4.963 0-9-4.038-9-9s4.037-9 9-9 9 4.038 9 9-4.037 9-9 9zm19.892-6c1.754 0 2.858.437 3.108.692v9.621c-.245.253-1.348.687-3.108.687-1.907 0-2.8-.5-2.892-.597l-.021-9.716c.113-.183 1.011-.687 2.913-.687zm-10.892 23.637c-.268.147-.972.363-2.081.363-1.113 0-1.704-.216-1.919-.336v-6.324c.216-.122.809-.34 1.919-.34 1.057 0 1.798.211 2.081.367zm-31.162-4.637c-3.221 0-4.786-.87-4.838-1.2v-12.595c.08-.343 1.638-1.205 4.838-1.205 3.281 0 4.979.854 5.162 1.225l.005 12.544c-.143.362-1.83 1.231-5.167 1.231zm3.162-33.351c-.276.144-.98.351-2.081.351-1.036 0-1.672-.188-1.919-.322v-6.35c.225-.12.82-.328 1.919-.328 1.098 0 1.803.209 2.081.354zm39.865-15.649c-3.563 0-5.865 1.116-5.865 2.843v7.722l-8.621 7.491c-1.802-1.289-4-2.056-6.379-2.056-3.476 0-6.575 1.625-8.592 4.15l-8.408-7.031v-4.014c0-1.552-2.108-2.105-4.081-2.105-2.417 0-3.919.807-3.919 2.105v6.79c0 1.298 1.502 2.105 3.919 2.105 1.973 0 4.081-.553 4.081-2.105v-.169l7.297 6.103c-.825 1.543-1.297 3.302-1.297 5.171 0 1.972.528 3.82 1.441 5.422l-5.441 4.583v-1.805c0-2.21-3.597-3.2-7.162-3.2-4.154 0-6.838 1.256-6.838 3.2v12.6c0 1.944 2.684 3.2 6.838 3.2 3.304 0 7.162-.838 7.162-3.2v-8.18l6.587-5.548c2.019 2.399 5.04 3.928 8.413 3.928.74 0 1.463-.076 2.163-.216l3.225 7.35c-1.5.28-2.388.992-2.388 2.001v6.73c0 1.317 1.502 2.135 3.919 2.135 2.479 0 4.081-.838 4.081-2.135v-6.73c0-1.186-1.35-1.98-3.475-2.109l-3.433-7.824c2.207-.889 4.054-2.473 5.284-4.479l5.624 2.457v5.223c0 1.578 1.92 2.597 4.892 2.597 2.356 0 5.108-.68 5.108-2.597v-9.806c0-1.794-2.565-2.597-5.108-2.597-2.972 0-4.892 1.019-4.892 2.597v2.4l-4.737-2.07c.469-1.222.737-2.542.737-3.927 0-2.96-1.181-5.646-3.09-7.625l7.09-6.16v1.942c0 1.754 2.247 2.843 5.865 2.843 2.83 0 6.135-.745 6.135-2.843v-12.314c0-2.098-3.305-2.843-6.135-2.843z" fill="#fff" transform="translate(12 12)"/></g></svg>