<svg height="80" viewBox="0 0 80 80" width="80" xmlns="http://www.w3.org/2000/svg"><g fill="none" fill-rule="evenodd"><path d="m0 0h80v80h-80z" fill="#c925d1"/><path d="m62 53.4165392-21 11.87v-8.287h-2v8.287l-21-11.87v-25.612l6.47 4.044 1.06-1.697-6.559-4.099 21.508-11.904 20.493 11.835-7.457 4.142.97 1.749 7.515-4.175zm1.5-28.283-22.511-13c-.302-.175-.677-.178-.984-.009l-23.489 13c-.319.177-.516.512-.516.875v28c0 .361.194.694.508.871l23 13c.152.087.322.129.492.129s.34-.042.492-.129l23-13c.314-.177.508-.51.508-.871v-28c0-.357-.19-.687-.5-.866zm-12.5 21.506-10 5.774v-11.795l10-5zm-10.705-7.905-9.711-5.612 9.393-4.978 9.922 5.788zm-1.295 13.679-10-5.774v-12.123l10 5.779zm13.504-19.277-12-7c-.3-.176-.667-.182-.973-.02l-12 6.36c-.327.174-.531.514-.531.884v13.856c0 .358.19.688.5.867l12 6.928c.154.089.327.134.5.134s.346-.045.5-.134l12-6.928c.31-.179.5-.509.5-.867v-13.217c0-.355-.188-.684-.496-.863z" fill="#fff"/></g></svg>