<svg height="80" viewBox="0 0 80 80" width="80" xmlns="http://www.w3.org/2000/svg"><g fill="none" fill-rule="evenodd"><path d="m0 0h80v80h-80z" fill="#c925d1"/><path d="m33.9531943 64.9860515h4.0078248v-20.1394845h-4.0078248zm-12.8400687-32.2231753h6.6459755c-.1412758 3.43781.8757097 6.2804983 1.9838733 8.3176071-5.1500549-2.8477231-8.0487142-5.6350277-8.6298488-8.3176071zm14.160647-4.0278969h1.1712868l1.0660814 2.0139485h-3.3886159zm.6833341-5.0207735.9869269.9928766-.9869269.9928766-.9869268-.9928766zm6.6199246 17.034983c1.1322106-2.0119345 2.1251491-4.7337858 2.0099242-7.9863126h5.1290138c-.6021757 3.2505128-4.0068229 6.0478872-7.138938 7.9863126zm-5.6179684-7.9863126h5.6199724c.204399 5.2846008-3.0719978 9.0829076-4.0258601 10.0697423h-1.5941123zm-3.5729758 10.0697423c-.9057684-1.0200649-3.8615392-4.7841346-3.6180638-10.0697423h5.1871272v10.0697423zm18.4279785-11.0767165c0-.5558498-.4478745-1.0069742-1.0019562-1.0069742h-11.0315378l-1.8486092-3.4942006c-.0801565-.1490322-.1963834-.2678552-.3316475-.3594898l1.0690873-1.0734345c.1873658-.1893112.2935731-.4450827.2935731-.7119308v-.8055794c0-.2668482-.1062073-.5226196-.2935731-.7119308l-1.60313-1.6111588c-.1873658-.1893111-.4418626-.2950434-.708383-.2950434h-.8025669c-.2655184 0-.5200153.1057323-.708383.2950434l-1.602128 1.6111588c-.1883678.1893112-.2935732.4450826-.2935732.7119308v.8055794c0 .2668481.1052054.5226196.2935732.7119308l1.0049621 1.0099951c-.1733385.0876068-.3236319.2195204-.4248295.3947339l-2.0139319 3.5223959h-11.8090558c-.5540818 0-1.0019562.4511244-1.0019562 1.0069742 0 4.377317 4.2452884 8.5401484 12.9492819 12.7160706v21.5210532c0 .5558497.4478745 1.0069742 1.0019562 1.0069742h6.0117372c.5540818 0 1.0019562-.4511245 1.0019562-1.0069742v-21.5200463c4.6801374-2.2737478 11.8491341-6.7316227 11.8491341-12.7170775zm-8.9324396-8.1645471-1.7945035.8962071c-1.006966-2.0350949-3.0359273-3.2998545-5.2953385-3.2998545-2.2604132 0-4.2893745 1.2647596-5.2953386 3.2998545l-1.7945035-.8962071c1.3456272-2.7248722 4.0629324-4.4175959 7.0898421-4.4175959 3.0249057 0 5.7422109 1.6927237 7.089842 4.4175959zm.9518584-.4873755c-1.531991-3.086376-4.6130063-5.0036549-8.0417004-5.0036549-3.4357079 0-6.519729 1.9233207-8.0497162 5.0177526l-1.7945035-.8952001c1.8706522-3.7852162 5.6420154-6.136501 9.8442197-6.136501 4.1931867 0 7.9615439 2.344236 9.8342001 6.1183754zm-18.8427883-1.3594152-1.7945035-.897214c2.3936733-4.8405252 7.2210983-7.8473502 12.5955914-7.8473502 5.3574598 0 10.177871 2.9937344 12.5785581 7.813113l-1.7935016.901242c-2.0570161-4.1336292-6.1900854-6.7004065-10.7850565-6.7004065-4.6089986 0-8.7480796 2.578861-10.8010879 6.7306157zm27.2211461 24.4503413c.7113889-1.4147988 1.2784961-3.2283594 1.2243904-5.3762355h5.3584618c-.800563 2.0401298-3.843504 3.9523739-6.5828522 5.3762355zm-7.2371297 18.791146h3.0058686v-15.1046134h-3.0058686zm16.0252875-25.1743557c0-.5558498-.4478744-1.0069742-1.0019562-1.0069742h-10.0135503v2.0139484h1.4458228c.1132211 3.7570209-2.0840689 6.2885541-2.8455556 7.0488197h-3.6100482v-3.0209227h-2.0039124v21.1464588c0 .5558497.4478745 1.0069742 1.0019562 1.0069742h5.009781c.5540818 0 1.0019562-.4511245 1.0019562-1.0069742v-16.4761124c4.1390811-1.9303696 11.0155065-5.1516801 11.0155065-9.7052176z" fill="#fff"/></g></svg>