<svg height="80" viewBox="0 0 80 80" width="80" xmlns="http://www.w3.org/2000/svg"><g fill="none" fill-rule="evenodd"><path d="m0 0h80v80h-80z" fill="#01a88d"/><path d="m13.999933 34.0011905h46.9994748v-2.0000952h-46.9994748zm21.9997542-18.0008572h24.9997206v-2.0000952h-24.9997206zm-9.9998883 0h2.9999665v-2.0000952h-2.9999665zm-5.999933 0h2.9999665v-2.0000952h-2.9999665zm-5.9999329 0h2.9999664v-2.0000952h-2.9999664zm42.7135227 34.3306348c0 3.5811706-2.8049686 6.3863042-6.3859286 6.3863042s-6.3869287-2.8051336-6.3869287-6.3863042c0-3.5821705 2.8059687-6.3873041 6.3869287-6.3873041s6.3859286 2.8051336 6.3859286 6.3873041zm1.9999777 0c0-4.7032239-3.6839589-8.3873994-8.3859063-8.3873994-4.7029475 0-8.3869063 3.6841755-8.3869063 8.3873994 0 4.702224 3.6839588 8.3863994 8.3869063 8.3863994 4.7019474 0 8.3859063-3.6841754 8.3859063-8.3863994zm11.273874 17.6558408c.0489995-.3710177-.0499994-.6840326-.2939967-.9280442l-8.142909-7.9263774c-.7079921.9000428-1.519983 1.7120815-2.419973 2.4201152l7.9489112 8.1353874c.6129932.6130292 1.5729824.2220106 2.1989754-.4040192.3929957-.3930188.6509928-.8660413.7089921-1.2970618zm-19.6597803-5.375256c6.7719243 0 12.2798628-5.5092623 12.2798628-12.2805848 0-6.7723225-5.5079385-12.2815848-12.2798628-12.2815848-6.7709244 0-12.2798628 5.5092623-12.2798628 12.2815848 0 6.7713225 5.5089384 12.2805848 12.2798628 12.2805848zm21.6417582 5.6402686c-.1159987.8710415-.5699936 1.7390828-1.2769857 2.4461165-.8619904.8630411-1.887979 1.302062-2.8609681 1.302062-.801991 0-1.5659825-.2980142-2.1739757-.9050431l-8.2099083-8.4044002c-2.0979765 1.2150579-4.5259494 1.9210915-7.1199204 1.9210915-7.873912 0-14.2798405-6.4063051-14.2798405-14.2806801 0-7.8743749 6.4059285-14.28168 14.2798405-14.28168s14.2798404 6.4073051 14.2798404 14.28168c0 2.5931235-.7059921 5.0202391-1.9189785 7.118339l8.409906 8.1853898c.6979922.6980332 1.0049888 1.6240773.8709903 2.6171246zm-57.9693523-26.25025h21.9187551c.4159953-.6990333.8709902-1.3720653 1.3819845-2.0000952h-23.3007396zm50.9994302-23.0010953v-7.0003333c0-.5510263-.447995-1.0000477-.9999889-1.0000477h-52.9994078c-.5519939 0-.99998885.4490214-.99998885 1.0000477v7.0003333zm1.9999776-7.0003333v8.0003809 28.7023668c-.2489972-2.2541073-.9449894-4.3732082-1.9999776-6.2692985v-21.4330206h-54.99938555v43.0020477h30.32966115c1.0619881.7910376 2.2089753 1.4750702 3.4419615 2.0000952h-34.77161147c-.55299382 0-.99998883-.4480213-.99998883-1.0000476v-45.002143-8.0003809c0-1.6540788 1.34598496-3.0001429 2.9999665-3.0001429h52.9994078c1.6539816 0 2.9999665 1.3460641 2.9999665 3.0001429zm-33.2356287 36.0017143c-.1019988.6560313-.1649981 1.322063-.1879979 2.0000953h-19.5757812v-2.0000953z" fill="#fff"/></g></svg>