<svg height="80" viewBox="0 0 80 80" width="80" xmlns="http://www.w3.org/2000/svg"><g fill="none" fill-rule="evenodd"><path d="m0 0h80v80h-80z" fill="#c925d1"/><path d="m30 31h5v-2h-5zm6.667 30.166-1.85-.759 7.592-18.522 1.85.759zm8.904-5.386 5.497-4.822-5.493-4.761 1.311-1.512 6.359 5.513c.218.189.344.464.345006.753.000994.289-.123006.564-.341006.755l-6.359 5.578zm-20.062024-4.732c-.001976-.289.121024-.564.338024-.755l6.337-5.602 1.324 1.499-5.479 4.843 5.449 4.697-1.307 1.515-6.316-5.446c-.218-.188-.344-.462-.346024-.751zm37.026024-16.048h-44.07c-1.91 0-3.465-1.554-3.465-3.464v-.536h12v-2h-12v-10.536c0-1.91 1.555-3.464 3.465-3.464h44.07c1.91 0 3.465 1.554 3.465 3.464v10.536h-28v2h28v.536c0 1.91-1.555 3.464-3.465 3.464zm-40.535 31h36v-29h-36zm40.535-53h-44.07c-3.014 0-5.465 2.451-5.465 5.464v13.072c0 3.013 2.451 5.464 5.465 5.464h1.535v30c0 .552.447 1 1 1h38c.553 0 1-.448 1-1v-30h2.535c3.014 0 5.465-2.451 5.465-5.464v-13.072c0-3.013-2.451-5.464-5.465-5.464z" fill="#fff"/></g></svg>