<svg height="80" viewBox="0 0 80 80" width="80" xmlns="http://www.w3.org/2000/svg"><g fill="none" fill-rule="evenodd"><path d="m0 0h80v80h-80z" fill="#ed7100"/><path d="m68 39.0045152h-11.3675005l5.5780268-5.5936289-1.4036892-1.4076154-7.7024223 7.7239663 7.7024223 7.7229708 1.4036892-1.4076155-5.0330301-5.0471077h10.8225038zm-49.9441376-5.5936289 5.5790196 5.5936289h-10.634882v1.9909696h10.0898852l-5.0340228 5.0471077 1.404682 1.4076155 7.7014295-7.7229708-7.7014295-7.7239663zm15.4951808 15.5484766h14.8906217v-14.9322715h-14.8906217zm16.7251462-15.9277563h2.1363079v1.9909696h-1.9854162v2.9864543h1.9854162v1.9909695h-1.9854162v2.9864543h1.9854162v1.9909695h-1.9854162v2.9864543h1.9854162v1.9909696h-2.1363079c-.1677676.3743022-.4675655.6759341-.8418164.8451665v2.1412878h-1.9854162v-1.9909696h-2.9781244v1.9909696h-1.9854162v-1.9909696h-2.9781243v1.9909696h-1.9854162v-1.9909696h-2.9781243v1.9909696h-1.9854163v-2.1412878c-.3742509-.1692324-.6740488-.4708643-.8428091-.8451665h-2.1353152v-1.9909696h1.9854162v-2.9864543h-1.9854162v-1.9909695h1.9854162v-2.9864543h-1.9854162v-1.9909695h1.9854162v-2.9864543h-1.9854162v-1.9909696h2.1353152c.1687603-.3743022.4685582-.6759341.8428091-.8451665v-2.1412878h1.9854163v1.9909696h2.9781243v-1.9909696h1.9854162v1.9909696h2.9781243v-1.9909696h1.9854162v1.9909696h2.9781244v-1.9909696h1.9854162v2.1412878c.3742509.1692324.6740488.4708643.8418164.8451665zm-8.7834813 31.1576777v-10.2524976h-1.9854162v10.2524976l-5.3060248-5.3208661-1.4036893 1.4076155 7.7024222 7.7239663 7.7024222-7.7239663-1.4036893-1.4076155zm-7.291441-43.0577025-1.4036893-1.4076155 7.7024222-7.7239663 7.7024222 7.7239663-1.4036893 1.4076155-5.3060248-5.3208661v11.1265332h-1.9854162v-11.1265332z" fill="#fff"/></g></svg>