<svg height="80" viewBox="0 0 80 80" width="80" xmlns="http://www.w3.org/2000/svg"><g fill="none" fill-rule="evenodd"><path d="m0 0h80v80h-80z" fill="#dd344c"/><path d="m54 45.7046767h-9-3v-6h9 3zm-10 8h-12v-6h9 3zm-21.409-2.014c-4.169 0-7.996-2.103-10.237-5.625-1.789-2.81-1.82-6.437-.079-9.471l.055-.098c2.092-3.175 1.342-7.586.674-10.019 1.919.986 3.657 3.497 4.274 4.604.192.342.572.541.953.511.391-.031.727-.286.861-.654 1.917-5.266.631-9.154-.778-11.483 1.254.433 2.786 1.085 4.302 2.041 4.615 2.91 6.955 7.162 6.955 12.637 0 .272.112.533.309.722.196.188.461.284.734.277 1.194-.052 3.349-.969 4.346-3.872.025.136.04.284.04.444v6h-9c-.553 0-1 .448-1 1v8c0 .552.447 1 1 1h4v1.55c-1.729 1.547-4.395 2.436-7.409 2.436zm-16.423-17.743c-1.901-1.288-4.168-3.726-4.168-8.027 0-5.956 4.144-7.909 6.613-8.543.463-.119.778-.55.749-1.027l-.097-1.639c0-4.74500002 3.268-9.85100002 7.441-11.62400002 7.219-3.064 12.335.965 14.198 2.841 1.519 1.527 2.703 3.479 3.521 5.79900002.123.35.429.602.796.657.363.055.733-.098.952-.396 1.236-1.678 3.368-2.37700002 5.297-1.744 2.17.713 3.421 2.83 3.44 5.813l-.006.037c-.076.535.287 1.035.821 1.127 1.881.324 8.02 1.915 8.02 8.782 0 2.201-.587 4.028-1.745 5.458v-.757c0-.552-.447-1-1-1h-14.506c-.618-1.12-1.592-1.597-1.651-1.625-.293-.133-.633-.116-.911.042-.279.16-.464.444-.497.764-.247 2.348-1.169 3.401-1.911 3.871-.475-6.906-4.496-10.859-7.902-12.99-3.87-2.421-7.697-3.027-7.858-3.052-.447-.07-.882.172-1.065.585-.182.413-.064.898.286 1.182.187.152 4.154 3.467 2.809 9.768-1.337-1.776-3.638-4.179-6.299-4.179-.332 0-.641.165-.828.44-.186.275-.224.624-.1.932.024.06 2.218 5.657.433 9.34v-.078h-2.365c-.882 0-1.735-.262-2.467-.757zm34.832 3.757h-4v-6h13v6zm-1 8h-9-4v-6h9 4zm15-8h-3v-3.473c2.446-1.917 3.745-4.755 3.745-8.228 0-7.585-5.998-9.909-8.855-10.584-.206-3.527-1.966-6.14500002-4.796-7.07500002-2.217-.728-4.612-.231-6.372 1.23-.87-1.963-2.01-3.659-3.4-5.057-4.48-4.506-10.609-5.73-16.397-3.271-4.938 2.097-8.66 7.886-8.658 13.52400002l.052.903c-2.695.886-7.319 3.406-7.319 10.247 0 5.451 3.162 8.406 5.047 9.683 1.064.72 2.306 1.101 3.588 1.101h1.364c-1.524 3.434-1.308 7.331.667 10.435 2.61 4.102 7.068 6.551 11.925 6.551 2.819 0 5.411-.693 7.409-1.939v2.953c0 .552.447 1 1 1h14c.553 0 1-.448 1-1v-7h9c.553 0 1-.448 1-1v-8c0-.552-.447-1-1-1z" fill="#fff" transform="translate(12 12.3)"/></g></svg>