<svg height="80" viewBox="0 0 80 80" width="80" xmlns="http://www.w3.org/2000/svg"><g fill="none" fill-rule="evenodd"><path d="m0 0h80v80h-80z" fill="#e7157b"/><path d="m48 44.402047v-7.711272l-7 3.8911465v7.6712602zm-16-.9462788 7 4.6283637v-7.504211l-7-3.8891459zm1.062-8.4634937 6.94 3.8561362 6.936-3.8551359-6.938-3.8401315zm16.938-.0020006v10.0029473c0 .3651076-.198.7012066-.519.8772585l-9 4.9504586c-.15.0830245-.315.1240366-.481.1240366-.192 0-.385-.0560165-.552-.166049l-9-5.9517536c-.279-.1850545-.448-.4981468-.448-.8342458v-9.0026526c0-.363107.197-.6982057.516-.8752579l9-4.9794671c.302-.1670493.666-.1670493.968 0l9 4.9794671c.319.1770522.516.5121509.516.8752579zm18 4.0011789h-10.586l5.293-5.29456-1.414-1.4144167-7 7.0020631c-.391.3911152-.391 1.0243018 0 1.4144167l7 7.0020632 1.414-1.4144168-5.293-5.29456h10.586zm-48.2-7.6022399-1.6 1.2003537 4.8 6.4018862h-11v2.0005895h10.586l-5.293 5.29456 1.414 1.4144168 7-7.0020632c.352-.3521037.392-.9082676.093-1.3073852zm21.2 32.9477078.001-10.3410469h-2l-.001 10.3430475-5.247-5.9997678-1.506 1.3173882 6.999 8.0023578c.191.217064.465.3411005.753.3411005s.563-.1240365.753-.3411005l7.001-8.0023578-1.506-1.3173882zm-7.247-42.6915788-1.506-1.3173881 6.999-8.0023579c.381-.4341279 1.125-.4341279 1.506 0l7.001 8.0023579-1.506 1.3173881-5.247-5.9977672.001 10.3400467h-2l-.001-10.3430476z" fill="#fff"/></g></svg>