<svg height="80" viewBox="0 0 80 80" width="80" xmlns="http://www.w3.org/2000/svg"><g fill="none" fill-rule="evenodd"><path d="m0 0h80v80h-80z" fill="#7aa116"/><path d="m41.5 42.502c1.381 0 2.5-1.119 2.5-2.5s-1.119-2.5-2.5-2.5-2.5 1.119-2.5 2.5 1.119 2.5 2.5 2.5zm6.5-2.502c0 3.309 2.691 6 6 6s6-2.691 6-6-2.691-6-6-6-6 2.691-6 6zm-2 0c0-4.411 3.589-8 8-8s8 3.589 8 8-3.589 8-8 8-8-3.589-8-8zm-31 0c0 5.794 3.785 10 9 10 .03 0 .06.002.089.004h31.822c.029-.002.059-.004.089-.004 5.215 0 9-4.206 9-10 0-5.792-3.785-9.996-9-9.996-.03 0-.06-.002-.089-.004h-31.822c-.029.002-.059.004-.089.004-5.215 0-9 4.204-9 9.996zm-2 0c0-6.917 4.581-11.947 10.907-11.996.031-.002.062-.004.093-.004h32c.031 0 .063.002.093.004 6.326.049 10.907 5.079 10.907 11.996 0 6.92-4.581 11.951-10.907 12-.03.002-.062.004-.093.004h-32c-.031 0-.062-.002-.093-.004-6.326-.049-10.907-5.081-10.907-12zm4-23h9v-2h-10c-.553 0-1 .448-1 1v10h2zm46 9h2v-10c0-.552-.447-1-1-1h-10v2h9zm-46 28h-2v10c0 .552.447 1 1 1h10v-2h-9zm46 0h2v10c0 .552-.447 1-1 1h-10v-2h9z" fill="#fff"/></g></svg>