<svg height="80" viewBox="0 0 80 80" width="80" xmlns="http://www.w3.org/2000/svg"><g fill="none" fill-rule="evenodd"><path d="m0 0h80v80h-80z" fill="#7aa116"/><path d="m44 22v14c0 .552-.447 1-1 1h-30c-.553 0-1-.448-1-1v-14c0-.552.447-1 1-1h8v2h-7v12h28v-12h-7v-2h8c.553 0 1 .448 1 1zm10 19.696c0 .168-.126.304-.28.304h-2.72v-23.698c0-1.269-1.02-2.302-2.272-2.302h-41.454c-1.253 0-2.274 1.034-2.274 2.304v23.696h-2.722c-.153 0-.278-.135-.278-.302v-25.785c0-1.606 1.274-2.913 2.842-2.913h46.324c1.563 0 2.834 1.303 2.834 2.905zm-47-.696v-22.696c0-.168.123-.304.274-.304h41.454c.15 0 .272.135.272.302v22.698zm34.233-30h-26.466l1.799-3h22.868zm-28.653-8.014c.536-.627 1.31-.986 2.122-.986h27.167c.813 0 1.587.359 2.083.937l6.048 8.063h-6.434l-2.709-4.515c-.18-.301-.505-.485-.857-.485h-24c-.352 0-.677.184-.857.485l-2.709 4.515h-6.338zm40.13 8.294-7.198-9.593c-.917-1.072-2.244-1.687-3.643-1.687h-27.167c-1.397 0-2.724.615-3.659 1.708l-7.747 9.572c-1.909.658-3.296 2.475-3.296 4.633v25.785c0 1.269 1.022 2.302 2.278 2.302h4.722c.553 0 1-.448 1-1h41c0 .552.447 1 1 1h3.72c1.258 0 2.28-1.034 2.28-2.304v-25.791c0-2.154-1.384-3.967-3.29-4.625zm-27.71 14.72h6v-3h-6zm-1 2h8c.553 0 1-.448 1-1v-5c0-.552-.447-1-1-1h-8c-.553 0-1 .448-1 1v5c0 .552.447 1 1 1z" fill="#fff" transform="translate(12 18)"/></g></svg>