<svg height="80" viewBox="0 0 80 80" width="80" xmlns="http://www.w3.org/2000/svg"><g fill="none" fill-rule="evenodd"><path d="m0 0h80v80h-80z" fill="#7aa116"/><path d="m58.065 52.9278253c.1-.008 9.935-.921 9.935-10.81 0-7.667-5.997-9.978-8.817-10.638-.431-3.661-2.357-6.312-5.237-7.154-2.1-.613-4.302-.106-5.972 1.292-.877-1.973-2.024-3.678-3.425-5.082-4.51-4.525-10.685-5.752-16.509-3.285-4.973 2.106-8.722 7.92-8.722 13.524 0 .326.011.652.031.976-2.717.896-7.349 3.43-7.349 10.284 0 .367.013.722.041 1.064.489 6.244 3.731 9.828 8.896 9.832h10.813v-1.941h-10.812c-5.463-.006-6.67-5.066-6.903-8.048-.024-.293-.035-.595-.035-.907 0-5.924 4.09-7.908 6.588-8.566.01-.002.02-.004.03-.006.51-.103.857-.582.795-1.1-.063-.519-.095-1.054-.095-1.588 0-4.769 3.295-9.9 7.501-11.682 7.281-3.085 12.434.97 14.314 2.855 1.53 1.534 2.724 3.495 3.549 5.828.123.349.429.601.795.656.362.055.733-.098.952-.395 1.196-1.618 3.139-2.324 4.955-1.791 2.183.638 3.619 2.844 3.856 5.911-.08.538.283 1.042.819 1.134 2.388.41 7.941 2.093 7.941 8.827 0 8.028-7.769 8.847-8.016 8.872h-3.234v1.941zm-21.949-5.938h4.357c.297 0 .578.131.768.359.19.227.269.528.216.819l-1.919 10.555 10.43-13.733h-4.218c-.364 0-.699-.198-.875-.516-.176-.317-.166-.706.027-1.014l5.293-8.47h-7.533zm1.69 16.666c-.136 0-.272-.027-.403-.085-.423-.186-.663-.639-.58-1.094l2.452-13.487h-4.844c-.352 0-.679-.187-.86-.49-.18-.303-.187-.679-.018-.989l7.637-14c.175-.322.512-.521.878-.521h9.932c.363 0 .698.197.875.515.175.318.166.706-.028 1.014l-5.293 8.471h4.43c.38 0 .727.215.895.555.169.341.131.747-.099 1.05l-14.178 18.666c-.193.255-.491.395-.796.395z" fill="#fff"/></g></svg>