<svg height="80" viewBox="0 0 80 80" width="80" xmlns="http://www.w3.org/2000/svg"><g fill="none" fill-rule="evenodd"><path d="m0 0h80v80h-80z" fill="#dd344c"/><path d="m40 12c-15.439 0-28 12.561-28 28 0 12.375 9.147 23.717 21.75 26.968l.5-1.936c-11.733-3.028-20.25-13.555-20.25-25.032 0-14.336 11.663-26 26-26s26 11.664 26 26c0 12.346-7.163 22.171-18.25 25.032l.5 1.936c11.998-3.095 19.75-13.681 19.75-26.968 0-15.439-12.561-28-28-28zm-8 18h9v-2h-9zm0 15h11v-2h-11zm0-5h6v-2h-6zm0-5h18v-2h-18zm14-5c-.553 0-1-.448-1-1v-7h-15v29h23v-21zm1-2h4.586l-4.586-4.586zm-1-8c.26 0 .516.102.707.293l8 8c.129.129.211.289.254.457h.039v23.25c0 .552-.447 1-1 1h-25c-.553 0-1-.448-1-1v-31c0-.552.447-1 1-1zm2.707 40.707-7 7c-.195.195-.451.293-.707.293s-.512-.098-.707-.293l-7-7c-.286-.286-.372-.716-.217-1.09.154-.373.52-.617.924-.617h3v-4h2v5c0 .552-.447 1-1 1h-1.586l4.586 4.586 4.586-4.586h-1.586c-.553 0-1-.448-1-1v-5h2v4h3c.404 0 .77.244.924.617.155.374.069.804-.217 1.09z" fill="#fff"/></g></svg>