<svg height="80" viewBox="0 0 80 80" width="80" xmlns="http://www.w3.org/2000/svg"><g fill="none" fill-rule="evenodd"><path d="m0 0h80v80h-80z" fill="#e7157b"/><path d="m63.726 30.349c-.387.149-.799.225-1.226.225-1.929 0-3.5-1.57-3.5-3.5 0-1.227.628-2.342 1.689-2.987.547-.341 1.156-.513 1.811-.513 1.93 0 3.5 1.57 3.5 3.5 0 1.449-.91 2.763-2.274 3.275zm-1.226-8.775c-.712 0-1.409.146-2.054.409-.559-.712-1.142-1.4-1.76-2.027-4.946-5.13-11.603-7.956-18.742-7.956-7.098 0-13.737 2.805-18.695 7.896l1.434 1.396c4.577-4.702 10.708-7.292 17.261-7.292 6.592 0 12.736 2.608 17.31 7.352.528.536 1.024 1.116 1.5 1.714-1.108 1.027-1.754 2.457-1.754 4.008 0 3.033 2.468 5.5 5.5 5.5.674 0 1.33-.121 1.937-.356 2.132-.799 3.563-2.866 3.563-5.144 0-3.033-2.467-5.5-5.5-5.5zm-19.065 41.146c-.114 1.839-1.648 3.28-3.491 3.28s-3.376-1.441-3.497-3.347c-.006-.05-.003-.104-.003-.153 0-1.929 1.57-3.5 3.5-3.5 1.929 0 3.5 1.571 3.5 3.5 0 .052.003.111-.009.22zm20.36-27.962c.158 1.061.237 2.181.237 3.33 0 10.444-6.655 19.642-16.572 22.893-.664.228-1.375.414-2.102.58-.448-2.586-2.703-4.561-5.414-4.561-3.032 0-5.5 2.468-5.5 5.5 0 .132.003.28.013.344.18 2.891 2.59 5.156 5.487 5.156 2.645 0 4.865-1.897 5.367-4.385.973-.201 1.917-.439 2.786-.738 10.728-3.516 17.935-13.478 17.935-24.789 0-1.246-.087-2.465-.258-3.622zm-46.295-11.184c.618 0 1.224.166 1.76.483 1.09.633 1.74 1.761 1.74 3.017 0 1.93-1.57 3.5-3.5 3.5-.462 0-.903-.084-1.309-.252-1.33-.543-2.191-1.818-2.191-3.248 0-1.93 1.571-3.5 3.5-3.5zm-1.643 14.514c0-1.167.079-2.299.237-3.372.107-.763.262-1.505.439-2.234.315.056.637.092.967.092 3.033 0 5.5-2.467 5.5-5.5 0-1.948-1.048-3.767-2.728-4.742-.837-.496-1.796-.758-2.772-.758-3.032 0-5.5 2.467-5.5 5.5 0 1.95 1.018 3.713 2.65 4.702-.22.867-.409 1.753-.535 2.656-.171 1.162-.258 2.392-.258 3.656 0 11.311 7.207 21.273 17.934 24.789l.623-1.901c-9.903-3.246-16.557-12.444-16.557-22.888zm17.116 12.898v-6.794l6.027-3.414v6.794zm-8.026-10.208 6.026 3.414v6.794l-6.026-3.414zm7.026-5.113 5.998 3.397-5.998 3.397-5.997-3.397zm1-8.527 6.027 3.414v6.794l-6.027-3.414zm7.027-5.113 5.998 3.397-5.998 3.397-5.998-3.397zm7.028 11.907-6.028 3.414v-6.794l6.028-3.414zm6.997 5.13-5.997 3.397-5.998-3.397 5.998-3.397zm1.029 8.51-6.026 3.414v-6.794l6.026-3.414zm-8.026 3.414-6.028-3.414v-6.794l6.028 3.414zm.507 2.586c.153.087.323.13.493.13s.34-.043.493-.13l8.026-4.547c.314-.177.507-.509.507-.87v-9.093c0-.36-.193-.692-.507-.87l-7.519-4.26v-8.51c0-.36-.194-.692-.507-.87l-8.027-4.547c-.307-.173-.68-.173-.987 0l-8.027 4.547c-.314.178-.507.51-.507.87v8.51l-7.519 4.26c-.314.178-.507.51-.507.87v9.093c0 .361.193.693.507.87l8.026 4.547c.307.173.68.173.986 0l7.534-4.267z" fill="#fff"/></g></svg>