<svg height="80" viewBox="0 0 80 80" width="80" xmlns="http://www.w3.org/2000/svg"><g fill="none" fill-rule="evenodd"><path d="m.121366 0h80v80h-80z" fill="#8c4fff"/><path d="m65 24c0-1.103-.897-2-2-2s-2 .897-2 2 .897 2 2 2 2-.897 2-2zm-23 23c0-1.103-.897-2-2-2s-2 .897-2 2 .897 2 2 2 2-.897 2-2zm-2-14c1.103 0 2-.897 2-2s-.897-2-2-2-2 .897-2 2 .897 2 2 2zm-21 20c0-1.103-.897-2-2-2s-2 .897-2 2 .897 2 2 2 2-.897 2-2zm48-29c0 2.206-1.794 4-4 4-.831 0-1.604-.255-2.243-.691l-17.342 17.639c.363.602.585 1.299.585 2.052 0 2.206-1.794 4-4 4s-4-1.794-4-4c0-1.858 1.279-3.411 3-3.858v-8.284c-.607-.158-1.155-.455-1.615-.856l-17.01 16.872c.391.617.625 1.343.625 2.126 0 2.206-1.794 4-4 4s-4-1.794-4-4 1.794-4 4-4c.696 0 1.342.195 1.912.509l17.329-17.189c-.146-.416-.241-.855-.241-1.32 0-2.206 1.794-4 4-4s4 1.794 4 4c0 1.858-1.279 3.411-3 3.858v8.284c.351.091.68.23.986.407l17.457-17.757c-.274-.542-.443-1.145-.443-1.792 0-2.206 1.794-4 4-4s4 1.794 4 4zm-50-7h46v1h2v-2c0-.552-.447-1-1-1h-48c-.553 0-1 .448-1 1v31h2zm46 13h2v34c0 .552-.447 1-1 1h-48c-.553 0-1-.448-1-1v-5h2v4h46z" fill="#fff"/></g></svg>