<svg height="80" viewBox="0 0 80 80" width="80" xmlns="http://www.w3.org/2000/svg"><g fill="none" fill-rule="evenodd"><path d="m0 0h80v80h-80z" fill="#8c4fff"/><path d="m31.221 20.755-8.997-6.837 1.211-1.593 8.997 6.837zm16.958-.025-1.211-1.593 8.996-6.837 1.211 1.593zm-6.179 40.28h3v-3h-3zm-7 0h3v-3h-3zm7-7h3v-3h-3zm-7 0h3v-3h-3zm20.964-17.865-8.996-6.837 1.211-1.593 8.996 6.837zm-5.964-10.135h14v-2h-14zm-18.779 1.73 1.211 1.593-8.997 6.837-1.211-1.593zm-14.221-1.73h14v-2h-14zm33 39.666v-7.116c11.558 1.014 15.757 2.931 15.99 3.751-.464 1.033-6.012 2.669-15.99 3.365zm-2 .126c-2.438.13-5.099.208-8 .208-2.9 0-5.561-.078-8-.208v-18.792h16zm-18-9.216c-5.974.504-12.515 1.439-15.823 3.173 1.482-11.894 11.888-20.984 24.823-21.436v6.687h-9zm0 9.091c-10.036-.699-15.594-2.343-15.997-3.342.204-.811 4.403-2.737 15.997-3.737zm6-41.667c0-2.205 1.794-4 4-4s4 1.795 4 4c0 2.206-1.794 4-4 4s-4-1.794-4-4zm29.706 35.678c-3.333-1.7-9.766-2.631-15.706-3.14v-11.538h-9v-6.686c12.298.471 22.767 9.662 24.706 21.364zm2.29 2.594.003-.001c-.709-14.003-12.723-25.448-26.999-25.957v-6.404c2.833-.478 5-2.942 5-5.91 0-3.308-2.691-6-6-6-3.308 0-6 2.692-6 6 0 2.968 2.167 5.432 5 5.91v6.403c-14.841.484-26.616 11.577-27 25.66l.035.001c-.022.114-.035.23-.035.348 0 5.614 26.857 5.678 28 5.678 1.144 0 28-.064 28-5.678 0-.017-.004-.033-.004-.05z" fill="#fff"/></g></svg>