<svg height="80" viewBox="0 0 80 80" width="80" xmlns="http://www.w3.org/2000/svg"><g fill="none" fill-rule="evenodd"><path d="m0 0h80v80h-80z" fill="#e7157b"/><path d="m53.656744 66c-2.1429558 0-3.8871527-1.753-3.8871527-3.909s1.7441969-3.909 3.8871527-3.909 3.8871528 1.753 3.8871528 3.909-1.744197 3.909-3.8871528 3.909zm-8.5240914-17h-10.334914l-5.1679541-9 5.1679541-9h10.334914l5.1669598 9zm-17.5115785-27.182c-2.1429557 0-3.8871527-1.753-3.8871527-3.909s1.744197-3.909 3.8871527-3.909c2.1439503 0 3.8881472 1.753 3.8881472 3.909s-1.7441969 3.909-3.8881472 3.909zm26.0356699 34.364c-.737853 0-1.441896.143-2.0932352.394l-4.2232637-7.166-.2227481.133 5.1918201-9.043c.1770051-.31.1770051-.69 0-1l-5.7417294-10c-.1779996-.31-.5061552-.5-.8611599-.5h-10.4482769l.0407709-.024-3.8722366-6.572c1.2648908-1.084 2.0713582-2.696 2.0713582-4.495 0-3.258-2.6361837-5.909-5.8769693-5.909-3.2397911 0-5.8759748 2.651-5.8759748 5.909s2.6361837 5.909 5.8759748 5.909c.7388475 0 1.4428905-.143 2.0942297-.394l3.6146841 6.133-5.7099082 9.943c-.1770051.31-.1770051.69 0 1l5.7427238 10c.1779996.31.5061552.5.86116.5h11.4824643c.0825361 0 .1630834-.013.2406474-.032l3.9050522 6.628c-1.2658853 1.084-2.0713582 2.696-2.0713582 4.495 0 3.258 2.6351893 5.909 5.8759748 5.909 3.2407856 0 5.8759749-2.651 5.8759749-5.909s-2.6351893-5.909-5.8759749-5.909zm5.9276843-24.078c-2.1429558 0-3.8861584-1.753-3.8861584-3.909s1.7432026-3.909 3.8861584-3.909 3.8871527 1.753 3.8871527 3.909-1.7441969 3.909-3.8871527 3.909zm7.282072 7.396-3.7747843-6.575c1.4349351-1.079 2.3686871-2.795 2.3686871-4.73 0-3.258-2.6351893-5.909-5.8759748-5.909-.8243668 0-1.6099515.173-2.3229442.484l-3.0777022-5.361c-.1770052-.309-.5061552-.5-.86116-.5h-12.3277137v2h11.7539386l2.8469988 4.96c-1.1574945 1.08-1.8863978 2.617-1.8863978 4.326 0 3.258 2.6351893 5.909 5.8749805 5.909.6036075 0 1.1873267-.093 1.7362416-.264l3.5371201 6.16-4.9660887 8.648 1.7223199 1 5.2524791-9.148c.1779996-.31.1779996-.69 0-1zm-45.6375003 15.747c-2.1439502 0-3.8881472-1.754-3.8881472-3.909 0-2.156 1.744197-3.909 3.8881472-3.909 2.1429558 0 3.8871527 1.753 3.8871527 3.909 0 2.155-1.7441969 3.909-3.8871527 3.909zm3.2477464 1.011c1.582108-1.06 2.6282284-2.869 2.6282284-4.92 0-3.258-2.6361837-5.909-5.8759748-5.909-.9387241 0-1.8227555.228-2.610329.623l-3.4754666-6.052 5.7586343-10.029-1.7233143-1-6.0450247 10.529c-.1779996.31-.1779996.69 0 1l3.8712422 6.74c-1.0212602 1.064-1.6527112 2.507-1.6527112 4.098 0 3.258 2.6361837 5.909 5.8769693 5.909.4882558 0 .960601-.067 1.4150469-.181l3.1721712 5.525c.1779996.309.5061552.5.86116.5h12.3287081v-2h-11.754933z" fill="#fff"/></g></svg>