<svg height="80" viewBox="0 0 80 80" width="80" xmlns="http://www.w3.org/2000/svg"><g fill="none" fill-rule="evenodd"><path d="m0 0h80v80h-80z" fill="#dd344c"/><path d="m44.17 41.245c0 .172-.048 3.839-3 4.526v-10.985l3 1.3zm-8-.016v-5.143l3-1.3v10.988c-2.875-.66-2.997-4.115-3-4.545zm9.397-6.717-5-2.167c-.253-.11-.541-.11-.794 0l-5 2.167c-.367.158-.603.519-.603.918v5.799c0 2.305 1.254 6.663 6 6.663s6-4.348 6-6.647v-5.815c0-.399-.236-.76-.603-.918zm13.423 19.662c-1.777 0-3.222-1.445-3.222-3.222s1.445-3.223 3.222-3.223c1.778 0 3.223 1.446 3.223 3.223s-1.445 3.222-3.223 3.222zm-18.723-4.222c-5.527 0-10.023-4.496-10.023-10.022 0-5.527 4.496-10.023 10.023-10.023 5.526 0 10.022 4.496 10.022 10.023 0 5.526-4.496 10.022-10.022 10.022zm3.241 11.857c0 1.777-1.445 3.223-3.223 3.223-1.777 0-3.222-1.446-3.222-3.223 0-1.776 1.445-3.222 3.222-3.222 1.778 0 3.223 1.446 3.223 3.222zm-6.383-44.587c0-1.777 1.445-3.222 3.223-3.222 1.776 0 3.221 1.445 3.221 3.222s-1.445 3.223-3.221 3.223c-1.778 0-3.223-1.446-3.223-3.223zm-15.902 35.734c-1.778 0-3.223-1.445-3.223-3.222s1.445-3.222 3.223-3.222c1.776 0 3.221 1.445 3.221 3.222s-1.445 3.222-3.221 3.222zm1.097-21.086c-1.777 0-3.222-1.445-3.222-3.222s1.445-3.223 3.222-3.223 3.222 1.446 3.222 3.223-1.445 3.222-3.222 3.222zm36.797-7.237c1.778 0 3.223 1.445 3.223 3.222s-1.445 3.223-3.223 3.223c-1.776 0-3.221-1.446-3.221-3.223s1.445-3.222 3.221-3.222zm-.127 21.096c-1.445 0-2.755.592-3.701 1.544l-3.966-2.628c.62-1.449.966-3.042.966-4.715 0-2.189-.598-4.236-1.623-6.005l4.538-2.649c.958 1.095 2.348 1.802 3.913 1.802 2.88 0 5.223-2.343 5.223-5.223s-2.343-5.222-5.223-5.222c-2.879 0-5.221 2.342-5.221 5.222 0 .595.121 1.158.305 1.691l-4.673 2.727c-2.006-2.423-4.946-4.04-8.261-4.315v-5.606c2.44-.437 4.302-2.565 4.302-5.13 0-2.879-2.342-5.222-5.221-5.222-2.88 0-5.223 2.343-5.223 5.222 0 2.509 1.779 4.607 4.142 5.107v5.629c-3.55.294-6.659 2.137-8.663 4.849l-3.438-2.241c.236-.595.376-1.239.376-1.918 0-2.88-2.343-5.223-5.222-5.223s-5.222 2.343-5.222 5.223 2.343 5.222 5.222 5.222c1.482 0 2.814-.626 3.765-1.621l3.466 2.26c-.829 1.631-1.307 3.469-1.307 5.421 0 1.486.284 2.904.78 4.22l-3.861 2.196c-.958-1.113-2.36-1.834-3.94-1.834-2.88 0-5.223 2.342-5.223 5.222s2.343 5.222 5.223 5.222c2.879 0 5.221-2.342 5.221-5.222 0-.58-.117-1.128-.292-1.65l3.732-2.123c1.929 3.309 5.386 5.615 9.401 5.941v4.786c-2.402.468-4.222 2.584-4.222 5.121 0 2.88 2.342 5.223 5.222 5.223s5.223-2.343 5.223-5.223c0-2.537-1.82-4.653-4.223-5.121v-4.788c3.815-.322 7.121-2.429 9.089-5.485l3.801 2.519c-.262.621-.407 1.303-.407 2.018 0 2.879 2.342 5.222 5.222 5.222s5.223-2.343 5.223-5.222c0-2.88-2.343-5.223-5.223-5.223z" fill="#fff"/></g></svg>