<svg height="80" viewBox="0 0 80 80" width="80" xmlns="http://www.w3.org/2000/svg"><g fill="none" fill-rule="evenodd"><path d="m0 0h80v80h-80z" fill="#dd344c"/><path d="m14 59h52v-38h-52zm54-39v40c0 .552-.447 1-1 1h-54c-.553 0-1-.448-1-1v-40c0-.552.447-1 1-1h54c.553 0 1 .448 1 1zm-24 28h15v-2h-15zm13-6h5v-2h-5zm-13 0h8v-2h-8zm-15 4c0-.551-.448-1-1-1s-1 .449-1 1 .448 1 1 1 1-.449 1-1zm2 0c0 1.302-.839 2.401-2 2.816v2.184h-2v-2.185c-1.161-.414-2-1.513-2-2.815 0-1.654 1.346-3 3-3s3 1.346 3 3zm-12 7.993 17.994.007.002-4h-3.996v-2h3.996l.002-3h-3.998v-2h3.999l.001-2.993-17.994-.007zm3-15.992 12 .005v-7.006c.001-2.303-2.803-4.323-6-4.325h-.004c-3.192 0-5.992 2.021-5.994 4.325zm-5 16.991.006-15.992c0-.266.105-.52.293-.708.187-.187.442-.292.707-.292l1.994.001.002-7.001c.002-3.488 3.588-6.325 7.994-6.325h.004c4.412.002 8.001 2.84 8 6.325v7.007l2 .001c.553 0 1 .448 1 1l-.006 15.992c0 .266-.105.52-.293.708-.187.187-.442.292-.707.292l-19.994-.008c-.553 0-1-.448-1-1zm43-18.992h2v-2h-2zm-16 0h11v-2h-11z" fill="#fff"/></g></svg>