<svg height="80" viewBox="0 0 80 80" width="80" xmlns="http://www.w3.org/2000/svg"><g fill="none" fill-rule="evenodd"><path d="m0 0h80v80h-80z" fill="#8c4fff"/><path d="m55.122 52.123c0-1.654-1.346-3-3-3s-3 1.346-3 3 1.346 3 3 3 3-1.346 3-3zm2 0c0 2.757-2.243 5-5 5s-5-2.243-5-5 2.243-5 5-5 5 2.243 5 5zm-26.73-14.431c0-1.654-1.346-3-3-3-1.655 0-3 1.346-3 3s1.345 3 3 3c1.654 0 3-1.346 3-3zm2 0c0 2.757-2.244 5-5 5-2.757 0-5-2.243-5-5s2.243-5 5-5c2.756 0 5 2.243 5 5zm7.338-15.685c0 1.654 1.346 3 3 3 1.655 0 3-1.346 3-3 0-1.655-1.345-3-3-3-1.654 0-3 1.345-3 3zm-2 0c0-2.757 2.244-5 5-5 2.757 0 5 2.243 5 5s-2.243 5-5 5c-2.756 0-5-2.243-5-5zm28.27 17.993c0-9.273-4.972-17.852-12.988-22.491-1.437.29-2.827.687-4.561 1.314l-.68-1.881c.905-.326 1.715-.59 2.495-.816-3.22-1.389-6.718-2.126-10.266-2.126-1.689 0-3.351.175-4.975.492 1.176.688 2.219 1.374 3.232 2.142l-1.209 1.593c-1.428-1.082-2.908-1.999-4.851-3.017-9.819 3.088-16.891 11.748-18.014 21.918 2.059-.417 4.036-.644 6.231-.698l.049 1.999c-2.3.057-4.276.301-6.436.776-.009.265-.027.533-.027.795 0 8.658 4.283 16.636 11.327 21.447-1.253-3.731-1.877-7.257-1.877-10.701 0-1.964.338-3.577.695-5.284.083-.395.167-.797.249-1.214l1.963.387c-.084.424-.17.835-.254 1.238-.35 1.672-.653 3.116-.653 4.873 0 3.908.858 7.949 2.604 12.337 3.719 1.931 7.735 2.917 11.946 2.917 2.756 0 5.446-.44 8.012-1.286 1.007-1.987 1.754-3.862 2.378-6.015l1.921.557c-.456 1.57-.979 2.997-1.602 4.421 1.614-.726 3.141-1.624 4.574-2.672-.345-.846-.715-1.687-1.124-2.506l1.789-.895c.348.696.667 1.408.972 2.124 5.785-4.953 9.08-12.068 9.08-19.728zm2 0c0 8.727-3.966 16.799-10.879 22.149-1.712 1.33-3.569 2.434-5.532 3.323-.833.378-1.681.728-2.553 1.022-2.88.999-5.923 1.506-9.036 1.506-4.6 0-9.168-1.146-13.212-3.314-9.121-4.88-14.788-14.339-14.788-24.686 0-.686.018-1.208.059-1.691.681-11.684 8.697-21.797 19.942-25.143 2.561-.773 5.254-1.166 7.999-1.166 4.808 0 9.539 1.238 13.684 3.579 8.829 4.946 14.316 14.305 14.316 24.421zm-30.686-14.537-1.314-1.507c-2.242 1.956-3.986 4.033-6.023 7.17l1.678 1.089c1.928-2.971 3.568-4.927 5.659-6.752zm-3.039 12.964-.65 1.891c4.593 1.577 8.6 4.093 12.609 7.918l1.381-1.447c-4.226-4.031-8.465-6.688-13.34-8.362zm13.371-11.759c3.752 5.722 5.865 12.003 6.279 18.67l-1.996.124c-.393-6.316-2.396-12.27-5.954-17.697z" fill="#fff"/></g></svg>