<svg height="80" viewBox="0 0 80 80" width="80" xmlns="http://www.w3.org/2000/svg"><g fill="none" fill-rule="evenodd"><path d="m0 0h80v80h-80z" fill="#8c4fff"/><path d="m48 40.513c0-.828.672-1.5 1.5-1.5s1.5.672 1.5 1.5-.672 1.5-1.5 1.5-1.5-.672-1.5-1.5zm-3-3c0-.828.672-1.5 1.5-1.5s1.5.672 1.5 1.5-.672 1.5-1.5 1.5-1.5-.672-1.5-1.5zm-17 2.5h-2v-2h2v-2h2v2h2v2h-2v2h-2zm26 10c0 3.585-1.712 4-3 4-2.36 0-4.75-4.29-6.414-7.776 1.037.492 2.192.776 3.414.776 2.39 0 4.532-1.059 6-2.726zm-28 4c-1.3 0-2.121-.486-2.585-1.53-.414-.931-.414-2.009-.414-2.47l-.001-5.726c1.468 1.667 3.61 2.726 6 2.726 1.222 0 2.377-.284 3.414-.776-1.664 3.486-4.054 7.776-6.414 7.776zm3-21c3.309 0 6 2.691 6 6 0 3.308-2.691 6-6 6s-6-2.692-6-6c0-3.309 2.691-6 6-6zm11.589 9h-4.178c.377-.928.589-1.939.589-3 0-1.892-.663-3.629-1.765-5h6.53c-1.102 1.371-1.765 3.108-1.765 5 0 1.061.212 2.072.589 3zm13.411-3h-.001v.019c-.011 3.3-2.697 5.981-5.999 5.981-3.309 0-6-2.692-6-6 0-3.309 2.691-6 6-6s6 2.691 6 6zm-6-8c-1.401 0-2.718.364-3.864 1h-11.272c-1.146-.636-2.463-1-3.864-1-4.411 0-8 3.589-8 8l.001 11c0 .537 0 1.963.586 3.282.551 1.24 1.765 2.718 4.413 2.718 4.196 0 7.247-6.728 9.266-11.18.13-.286.254-.561.373-.82h5.722c.119.259.243.534.373.82 2.019 4.452 5.07 11.18 9.266 11.18 1.503 0 5-.585 5-6l-.001-10.981c0-.006.001-.013.001-.019 0-4.411-3.589-8-8-8zm-16.41-26.526c.532.85 1.253 1.571 2.103 2.103-.85.532-1.571 1.253-2.103 2.103-.532-.85-1.253-1.571-2.104-2.103.851-.532 1.572-1.253 2.104-2.103zm-5.59 3.103c2.531 0 4.59 2.059 4.59 4.59 0 .552.447 1 1 1s1-.448 1-1c0-2.531 2.058-4.59 4.59-4.59.552 0 1-.448 1-1s-.448-1-1-1c-2.532 0-4.59-2.059-4.59-4.59 0-.552-.447-1-1-1s-1 .448-1 1c0 2.531-2.059 4.59-4.59 4.59-.553 0-1 .448-1 1s.447 1 1 1zm-12.25 24.592c-1.444-3.828-4.335-6.921-7.891-8.429 3.556-1.509 6.447-4.601 7.891-8.43 1.444 3.829 4.335 6.921 7.891 8.43-3.556 1.508-6.447 4.601-7.891 8.429zm13.75-8.429c0-.553-.447-1-1-1-6.369 0-11.75-5.912-11.75-12.91 0-.552-.447-1-1-1s-1 .448-1 1c0 6.998-5.381 12.91-11.75 12.91-.553 0-1 .447-1 1 0 .552.447 1 1 1 6.369 0 11.75 5.911 11.75 12.909 0 .552.447 1 1 1s1-.448 1-1c0-6.998 5.381-12.909 11.75-12.909.553 0 1-.448 1-1zm20.277-9.35c.766 1.408 1.928 2.57 3.337 3.336-1.409.766-2.571 1.928-3.337 3.336-.765-1.408-1.927-2.57-3.336-3.336 1.409-.766 2.571-1.928 3.336-3.336zm-7.277 4.336c3.461 0 6.277 2.816 6.277 6.278 0 .552.448 1 1 1 .553 0 1-.448 1-1 0-3.462 2.817-6.278 6.279-6.278.552 0 1-.448 1-1s-.448-1-1-1c-3.462 0-6.279-2.816-6.279-6.278 0-.552-.447-1-1-1-.552 0-1 .448-1 1 0 3.462-2.816 6.278-6.277 6.278-.553 0-1 .448-1 1s.447 1 1 1z" fill="#fff" transform="translate(12 12)"/></g></svg>