<svg height="80" viewBox="0 0 80 80" width="80" xmlns="http://www.w3.org/2000/svg"><g fill="none" fill-rule="evenodd"><path d="m0 0h80v80h-80z" fill="#01a88d"/><path d="m58.9090032 32.1635045c-.5619998-4.2200561-2.966999-6.3918507-5.1299982-7.021472-1.9279993-.5598846-3.9059986-.1036085-5.4529981 1.1914984-.8259997-1.6926051-2.0249993-3.3304172-3.5789988-4.882553-4.4769984-4.4731001-10.3589963-5.6406888-16.1369943-3.2028991-4.9889983 2.1050469-8.6099945 7.5185938-8.6099945 12.8723665v1.2403139c-4.5840009 1.4325875-7 4.7779483-7 9.718283h2c0-4.3117098 2.0439986-6.9288219 6.2479971-8.000772.4419998-.1125747.7520029-.5100728.7520029-.9653527v-1.9924722c0-4.5149419 3.1769957-9.2600144 7.3889942-11.0372996 4.9919983-2.1050468 10.0699965-1.092871 13.9419951 2.7745175 1.7859994 1.7852551 3.039999 3.67113 3.7249987 5.6058205.124.3476863.4299999.5987378.7959998.6535308.3649998.0557892.7329997-.0966349.9529996-.3935132 1.1109996-1.4983391 2.802999-2.1359302 4.4139985-1.6686955 2.1509992.6266325 3.5649987 2.915983 3.7829987 6.1258557.0359999.5220277.4709998.928492.9979996.928492 2.0749993 0 7.9999972 1.4644671 7.9999972 7.9698887 0 8.8176856-7.6759973 8.9641323-7.9999972 8.9661248h-5.9999979v1.9924722h5.9999979c.099 0 9.9999965-.1255258 9.9999965-10.958597 0-6.7106462-5.2439982-9.5289981-9.0909968-9.9155377zm-19.2799933 9.1414623c-.3009999-.2420854-.7139997-.2899047-1.0599996-.1245295-.3469999.1653752-.5689998.515054-.5689998.8986049v2.9857196h-4.9979982v1.9924721h5.9979979c.5529998 0 .9999898-.4463137.9999898-.996236v-1.8938448l6.0580077 4.8855417-6.0580077 4.8855418v-1.8968335c0-.5499223-.44699-.9962361-.9999898-.9962361h-15.9999944v-1.9924722c0-.375581-.212-.7192824-.5479998-.8886426-.3349999-.1693601-.7379998-.1354881-1.0429997.0846801l-8.9999968 6.5721694c-.2599999.1892849-.4109999.4901482-.4090195.80994.0020196.3197918.1580196.6196588.4200195.8049587l8.9999968 6.3798959c.173.1225371.3759999.1843037.5799998.1843037.156 0 .3139999-.0358645.4579999-.1105822.3329998-.1713526.5419998-.5130616.5419998-.8856539v-1.9765324h4.9999982v-1.9924721h-5.9999979c-.5529998 0-.9999996.4463137-.9999996.996236v1.0410667l-6.2919978-4.4601489 6.2919978-4.5936446v1.0231345c0 .5499223.4469998.9962361.9999996.9962361h15.9999944v2.9887082c0 .3835509.2219999.7332298.5689998.898605.3459999.1663714.7599997.118552 1.0599996-.1245296l8.647997-6.9736525c.2349999-.1882887.3709999-.4732122.3709999-.7740755s-.136-.5847906-.3709999-.7740754zm-9.6289966 18.7063249h3v-1.9924721h-3zm5.9999979 0h12v-1.9924721h-12zm-22.9999919-12.9510691h12.9509954v-1.9924721h-12.9509954zm15.0029947 0h2.853999v-1.9924721h-2.853999z" fill="#fff"/></g></svg>