<svg height="80" viewBox="0 0 80 80" width="80" xmlns="http://www.w3.org/2000/svg"><g fill="none" fill-rule="evenodd"><path d="m0 0h80v80h-80z" fill="#8c4fff"/><path d="m24 33.553v2.049c-14.062 3.306-16 9.117-16 14.398h-2c0-5.77 2.077-12.82 18-16.447zm0 5.207v2.138c-9.993 3.956-10 10.113-10 15.102h-2c0-5.121.009-12.809 12-17.24zm28 10.815c0 .786-.639 1.425-1.425 1.425h-21.15c-.786 0-1.425-.639-1.425-1.425v-13.151c0-.785.639-1.424 1.425-1.424h21.15c.786 0 1.425.639 1.425 1.424zm-1.425-16.575h-21.15c-1.889 0-3.425 1.536-3.425 3.424v13.151c0 1.889 1.536 3.425 3.425 3.425h21.15c1.889 0 3.425-1.536 3.425-3.425v-13.151c0-1.888-1.536-3.424-3.425-3.424zm3.425-6v2c-45.244 0-52 8.145-52 13h-2c0-7.396 10.039-12.08 29.893-14-19.854-1.921-29.893-6.605-29.893-14h2c0 4.855 6.756 13 52 13zm0-4v2c-42.297 0-48-9.605-48-19h2c0 8.406 5.465 17 46 17zm0-4v2c-18.337 0-30.272-2.359-36.49-7.212-5.51-4.3-5.51-9.784-5.51-13.788h2c0 7.566 0 19 40 19zm-16 26.277v-4.554l3.984 2.277zm6.496-3.145-7-4c-.309-.178-.69-.176-.998.003-.309.179-.498.508-.498.865v8c0 .356.189.686.498.865.155.09.328.135.502.135.171 0 .343-.044.496-.132l7-4c.312-.178.504-.509.504-.868s-.192-.691-.504-.868z" fill="#fff" transform="translate(13 12)"/></g></svg>