<svg height="80" viewBox="0 0 80 80" width="80" xmlns="http://www.w3.org/2000/svg"><g fill="none" fill-rule="evenodd"><path d="m0 0h80v80h-80z" fill="#dd344c"/><path d="m33 60c0-.551-.448-1-1-1s-1 .449-1 1 .448 1 1 1 1-.449 1-1zm2 0c0 1.654-1.346 3-3 3s-3-1.346-3-3 1.346-3 3-3 3 1.346 3 3zm19.431.845-1.845-1.845h-13.876c-.442 0-.832-.291-.958-.715-.751-2.523-3.116-4.285-5.752-4.285-3.309 0-6 2.691-6 6s2.691 6 6 6c2.306 0 4.434-1.346 5.423-3.429.166-.349.517-.571.903-.571h2.674c.266 0 .52.105.707.293l1.293 1.293 1.293-1.293c.187-.188.441-.293.707-.293h2c.266 0 .52.105.707.293l1.293 1.293 1.293-1.293c.187-.188.441-.293.707-.293h1.697zm2.276-.552c.212.212.317.507.288.806-.029.297-.191.567-.44.733l-3 2c-.164.109-.358.168-.555.168h-1.586l-1.707 1.707c-.391.391-1.023.391-1.414 0l-1.707-1.707h-1.172l-1.707 1.707c-.391.391-1.023.391-1.414 0l-1.707-1.707h-1.657c-1.418 2.449-4.072 4-6.929 4-4.411 0-8-3.589-8-8s3.589-8 8-8c3.26 0 6.208 2.022 7.418 5h13.582c.266 0 .52.105.707.293zm-9.293-35.293 5.586 5.586 5.586-5.586-5.586-5.586zm4.879 7.707-7-7c-.391-.391-.391-1.023 0-1.414l7-7c.391-.391 1.023-.391 1.414 0l7 7c.391.391.391 1.023 0 1.414l-7 7c-.195.195-.451.293-.707.293s-.512-.098-.707-.293zm-18.203-3.707-6.087-8.304-6.039 8.304zm1.973 2h-16.063c-.376 0-.721-.211-.891-.546-.171-.335-.139-.738.082-1.042l8-11c.188-.258.488-.412.807-.412.346-.016.62.151.809.409l8.062 11c.223.304.256.707.085 1.043-.17.336-.515.548-.891.548zm-14.063 11.5c0 3.033 2.468 5.5 5.5 5.5s5.5-2.467 5.5-5.5-2.468-5.5-5.5-5.5-5.5 2.467-5.5 5.5zm-2 0c0-4.136 3.364-7.5 7.5-7.5s7.5 3.364 7.5 7.5-3.364 7.5-7.5 7.5-7.5-3.364-7.5-7.5zm28 4.5h9v-9h-9zm11 1c0 .552-.447 1-1 1h-11c-.553 0-1-.448-1-1v-11c0-.552.447-1 1-1h11c.553 0 1 .448 1 1zm9-35v50c0 .552-.447 1-1 1h-8v-2h7v-48h-52v48h7v2h-8c-.553 0-1-.448-1-1v-50c0-.552.447-1 1-1h54c.553 0 1 .448 1 1z" fill="#fff"/></g></svg>