<svg height="80" viewBox="0 0 80 80" width="80" xmlns="http://www.w3.org/2000/svg"><g fill="none" fill-rule="evenodd"><path d="m0 0h80v80h-80z" fill="#01a88d"/><path d="m39 68h2v-7h-2zm0-49h2v-6.841h-2zm20 22h9v-2h-9zm-47 0h9v-2h-9zm2-5h-2v-23c0-.552.447-1 1-1h23v2h-22zm54-23v23h-2v-22h-22v-2h23c.553 0 1 .448 1 1zm-2 31h2v23c0 .552-.447 1-1 1h-23v-2h22zm-52 22h22v2h-23c-.553 0-1-.448-1-1v-23h2zm27-10.712v-14.705l13-7.367v14.704zm-15-22.072 13 7.367v14.705l-13-7.368zm14.001-9.071 12.973 7.354-12.974 7.352-12.957-7.343zm-.495-2.019-14.908 8.47c-.26.117-.47.341-.56.627-.044.141-.056.285-.038.425v16.854c0 .36.194.693.507.87l15 8.502c.153.087.323.13.493.13s.34-.043.493-.13l15-8.502c.313-.177.507-.51.507-.87v-17.004c0-.361-.194-.693-.507-.87l-15-8.503c-.307-.173-.681-.172-.987.001z" fill="#fff"/></g></svg>