<svg height="80" viewBox="0 0 80 80" width="80" xmlns="http://www.w3.org/2000/svg"><g fill="none" fill-rule="evenodd"><path d="m0 0h80v80h-80z" fill="#01a88d"/><path d="m65.3266241 60.3224668-13.4113112-13.0564461c-1.3127981 1.7741436-2.8837193 3.3465653-4.6583158 4.6597745l13.087649 13.397356c.6483327.6485357 1.4176606.7040092 1.948023.637441.8126845-.1038867 1.6556178-.5567523 2.3755393-1.2758906.7219382-.7231728 1.18172-1.5734304 1.2906157-2.3964555.0715888-.5365801.0191575-1.3132092-.6322-1.9657793zm-31.2026492-6.0788877c11.0871948 0 20.1063797-9.0230179 20.1063797-20.112676 0-11.0906668-9.0191849-20.1136847-20.1063797-20.1136847s-20.107388 9.0230179-20.107388 20.1136847c0 11.0896581 9.0201932 20.112676 20.107388 20.112676zm33.8332868 8.3119484c-.168385 1.2587443-.8298255 2.521523-1.8633263 3.5553475-1.0345091 1.0338244-2.2928593 1.6914376-3.5461681 1.8507979-.2016587.0262238-.4013008.0383271-.5999346.0383271-1.1534877 0-2.2152207-.4357192-3.0369799-1.2587443l-13.3538384-13.6706891c-3.3394679 2.0232701-7.2526548 3.1902309-11.4330395 3.1902309-12.1993425 0-22.1239749-9.9277403-22.1239749-22.1298944 0-12.2031627 9.9246324-22.1309031 22.1239749-22.1309031 12.1983342 0 22.1229666 9.9277404 22.1229666 22.1309031 0 4.1806851-1.1655872 8.0940888-3.1882239 11.4335939l13.6835505 13.3217103c.9740115.9733078 1.4015279 2.2734051 1.2149936 3.6693202zm-19.7171785-28.4246244c0-7.9185909-6.2010047-14.1205288-14.1161083-14.1205288-7.9161119 0-14.1161083 6.2019379-14.1161083 14.1205288 0 7.9175822 6.1999964 14.1205288 14.1161083 14.1205288 7.9151036 0 14.1161083-6.2029466 14.1161083-14.1205288zm2.0165869 0c0 9.0492417-7.0872946 16.1377472-16.1326952 16.1377472-9.0464088 0-16.1326952-7.0885055-16.1326952-16.1377472 0-9.0492418 7.0862864-16.1377472 16.1326952-16.1377472 9.0454006 0 16.1326952 7.0885054 16.1326952 16.1377472zm-22.3558824 2.8432693h-2.0165869v5.043046h5.0414673v-2.0172184h-3.0248804zm-2.0165869-6.0516552h2.0165869v-3.0258276h3.0248804v-2.0172184h-5.0414673zm11.091228-3.0258276h3.0248804v3.0258276h2.0165869v-5.043046h-5.0414673zm3.0248804 9.0774828h2.0165869v5.043046h-5.0414673v-2.0172184h3.0248804z" fill="#fff"/></g></svg>