<svg height="80" viewBox="0 0 80 80" width="80" xmlns="http://www.w3.org/2000/svg"><g fill="none" fill-rule="evenodd"><path d="m0 0h80v80h-80z" fill="#01a88d"/><path d="m38.9846215 25.5c0 .829.6710605 1.5 1.497903 1.5.8268424 0 1.4979029-.671 1.4979029-1.5s-.6710605-1.5-1.4979029-1.5c-.8268425 0-1.497903.671-1.497903 1.5zm1.497903-4.5c-2.4775315 0-4.4937088 2.019-4.4937088 4.5s2.0161773 4.5 4.4937088 4.5c2.4775314 0 4.4937088-2.019 4.4937088-4.5s-2.0161774-4.5-4.4937088-4.5zm0-2c3.5789894 0 6.4909127 2.916 6.4909127 6.5s-2.9119233 6.5-6.4909127 6.5-6.4909128-2.916-6.4909128-6.5 2.9119234-6.5 6.4909128-6.5zm0 45c-.8268425 0-1.497903.671-1.497903 1.5s.6710605 1.5 1.497903 1.5c.8268424 0 1.4979029-.671 1.4979029-1.5s-.6710605-1.5-1.4979029-1.5zm0-6c-.8268425 0-1.497903.671-1.497903 1.5s.6710605 1.5 1.497903 1.5c.8268424 0 1.4979029-.671 1.4979029-1.5s-.6710605-1.5-1.4979029-1.5zm0-6c-.8268425 0-1.497903.671-1.497903 1.5s.6710605 1.5 1.497903 1.5c.8268424 0 1.4979029-.671 1.4979029-1.5s-.6710605-1.5-1.4979029-1.5zm2.4965049-37h1.9972039v-2h-1.9972039zm0 32h1.9972039v-2h-1.9972039zm3.9944078 20h1.9972039v-15h-1.9972039zm-14.9790294 0h1.9972039v-10h-1.9972039zm0-12h1.9972039v-5h-1.9972039zm16.9762333-16.002h-2.9958059v2h2.9958059c.7958858 0 1.9972039 0 1.9972039 3.002v1h-3.9944078v2h3.996405l.0109846 20h1.997204l-.0129819-23c0-3.319-1.3441182-5.002-3.9944078-5.002zm-7.9888157 8.002v-2h-10.9836229l-.0009986-1c0-3 1.2013182-3 1.9972039-3h2.9958059v-2h-2.9958059c-2.6502896 0-3.9944078 1.682-3.9944078 5.001l.0129818 12 1.9972039-.002-.009986-8.999zm12.0181746-31.255v19.555c0 .737 0 1.303-.2856002 1.797-.5042939.872-1.5348512.872-1.9233073.872h-6.8134612v3.031h-1.9972039v-3.031h-2.9958059v3.031h-1.9972039v-3.031h-6.7785101c-.3884561 0-1.4190134 0-1.9233073-.872-.2856002-.494-.2856002-1.06-.2856002-1.777v-19.555c0-.74 0-1.307.2676253-1.813.504294-.952 1.5857799-.952 1.9412822-.952h10.7729179v2h-10.7729179c-.0818853 0-.1457959.003-.1927301.008-.0189735.183-.0189735.483-.0189735.737v19.555c0 .231 0 .489.0119832.663.0509287.004.1168365.006.1997204.006h20.582185c.0828839 0 .1487917-.002.1997204-.006.0119832-.172.0119832-.426.0119832-.643v-19.555c0-.269 0-.574-.0179748-.757-.0479329-.005-.1118435-.008-.1937288-.008h-3.8176553v-2h3.8176553c.3555023 0 1.4369882 0 1.9422808.952.2666267.506.2666267 1.073.2666267 1.793z" fill="#fff"/></g></svg>