<svg height="80" viewBox="0 0 80 80" width="80" xmlns="http://www.w3.org/2000/svg"><g fill="none" fill-rule="evenodd"><path d="m0 0h80v80h-80z" fill="#c925d1"/><path d="m62.9498188 34.8061436c1.9696363-1.1349005 2.6477242-3.6576733 1.5102865-5.6229163-.5508221-.952364-1.4416823-1.6338996-2.5055445-1.9186168-.3549521-.0952364-.7158698-.1418625-1.0738047-.1418625-.7148756 0-1.4208028.1865046-2.0561373.5535616-.9544932.5495934-1.6385466 1.4374745-1.9239002 2.4999557-.2843595 1.0614891-.139197 2.1705965.4126194 3.1229605 1.1374376 1.965243 3.6678387 2.6428104 5.6364808 1.5069178zm2.560229 4.2102429.9942636 1.7182235-4.8301329 2.7816968-1.2040533-6.2032632c-1.960688-.1369023-3.8239381-1.1993835-4.8788519-3.0217718-.8172848-1.4106893-1.03304-3.0555015-.6114722-4.6298783.4235564-1.5733849 1.4357168-2.8888377 2.850554-3.7033074 1.4118544-.8144697 3.0593493-1.0327198 4.6392343-.6101083 1.5778965.4216195 2.8962901 1.4315223 3.7125806 2.8432036 1.685277 2.9126468.6820649 6.6516679-2.2380875 8.3331857-.4762523.2747967-.9753727.4771741-1.4834414.6120924l.6343402 3.2697833zm-6.9499032 12.0176442c-.9554874-.5505855-2.0660799-.6964162-3.129942-.411699-1.0648564.2847171-1.9547224.9662527-2.5055445 1.9186168-.7775142 1.3432301-.690019 2.93844.0616443 4.1824656l.8550668.9831175-.0198853.0178568c.1889101.1607114.3907457.3124945.6134607.4404684v-.0009921c.9554874.5505855 2.0670742.6964163 3.1299421.4116991 1.0638621-.2847172 1.9547224-.9662527 2.5055445-1.9186168 1.1374376-1.965243.4593498-4.4880158-1.5102866-5.6229163zm3.2323513 6.6149622c-.8162905 1.4116813-2.1356784 2.4215841-3.7125806 2.8432036-.5269598.1408705-1.0618736.2103137-1.5928104.2103137-1.0588909 0-2.1048562-.2767808-3.046424-.8194299v-.000992c-.4205735-.2410672-.7954109-.5297526-1.1344548-.8491913l-1.4277627 1.2350971 2.4140723 1.3888643-.9942637 1.7192156-4.8331158-2.7826888 3.6360223-3.1437935c-.9485275-1.7936191-.9882981-4.018778.1014149-5.9006892.8162905-1.4116813 2.1346841-2.420592 3.7125806-2.8422115 1.5788907-.4236036 3.2253914-.2053535 4.6392343.6091162 1.4148372.8144697 2.4260034 2.1299226 2.8485655 3.7042994.422562 1.5743769.2058125 3.218197-.6104779 4.6288863zm-21.6520802 4.2499247c0-2.2707931-1.8523132-4.1179826-4.1271885-4.1179826s-4.1261943 1.8471895-4.1261943 4.1179826c0 2.2698011 1.851319 4.1169906 4.1261943 4.1169906s4.1271885-1.8471895 4.1271885-4.1169906zm1.9885274 0c0 3.3640277-2.7431735 6.1010824-6.1157159 6.1010824-3.3715482 0-6.1147217-2.7370547-6.1147217-6.1010824 0-.4732059.0586616-.9315311.162065-1.3739836l-2.5632118-.885897v2.9890344h-1.9885273v-5.7756914l5.3133451 1.8372691c1.0797703-1.7331043 2.9996935-2.8928059 5.1910507-2.8928059 3.3725424 0 6.1157159 2.7370547 6.1157159 6.1020744zm-19.3692508-15.9272972c-.5508221-.9523641-1.4406881-1.6338996-2.5045502-1.9186168-1.0638622-.2837251-2.1744547-.1388864-3.1309364.4116991-.9544931.5495934-1.636558 1.4374745-1.9219116 2.4999557-.286348 1.0614891-.139197 2.1705964.4126194 3.1229605.5498278.9523641 1.4406881 1.6338996 2.5045502 1.9186168 1.0618736.2847172 2.1744547.1398785 3.1309363-.411699 1.9696364-1.1349006 2.6477242-3.6576733 1.5092923-5.6229163zm-.5150286 7.3411398c-.942562.5436412-1.9875331.820422-3.0474182.820422-.5309368 0-1.0658506-.0694432-1.5918161-.2103138-1.5778965-.4216195-2.8972844-1.4315222-3.7135749-2.8432036-.8162905-1.4106893-1.0340342-3.0545093-.6104779-4.6288862.4225621-1.5743769 1.4337282-2.8898298 2.8485655-3.7042995v-.000992c.2863479-.1646796.5836327-.2976138.8868832-.4136832l-.6164435-3.1715708-2.4041296 1.3878723-.9962522-1.7172315 4.8211846-2.7836809 1.142409 5.8848164c.6005352-.021825 1.2090246.0456341 1.8055828.2043615 1.5778965.4216195 2.8962901 1.4315222 3.7135748 2.8432036 1.685277 2.9126468.6810707 6.6516679-2.2380875 8.3331857zm1.9318543-30.7464791c-.6472656-.3730093-1.3561756-.5505855-2.055143-.5505855-1.4277626 0-2.8177433.7380821-3.5813378 2.0575032-.5518163.9523641-.6969788 2.0614714-.4126194 3.1239526.2853537 1.0614891.9694071 1.9493702 1.9239002 2.4989637.9534989.5505855 2.0650857.6974083 3.1299421.411699 1.0638621-.2847171 1.9547224-.9652606 2.5045502-1.9176247 1.1384319-1.966235.4603441-4.4890078-1.5092923-5.6239083zm3.1876094.4474127c1.0907073 1.836277 1.1881451 4.191394.0447419 6.1685415-.8162905 1.4106893-2.1356784 2.420592-3.7125806 2.8422115-.5269598.1408706-1.0618736.2103138-1.5928104.2103138-1.0588909 0-2.1048563-.2777729-3.046424-.8194299-1.4148372-.8154618-2.4269976-2.1309147-2.8505539-3.7042995-.4225621-1.5743769-.2058126-3.218197.6114721-4.6298783 1.6862712-2.9136389 5.433651-3.9156052 8.3528092-2.2330954.3300956.1904729.6313575.409715.9117398.647806l2.5373609-2.1983737-2.4071123-1.3898564.9962522-1.7182235 4.8162132 2.7826888zm20.0920805-4.9116194c0-2.269801-1.851319-4.1179826-4.1271886-4.1179826-2.2748753 0-4.1271885 1.8481816-4.1271885 4.1179826 0 2.2707931 1.8523132 4.1169906 4.1271885 4.1169906 2.2758696 0 4.1271886-1.8461975 4.1271886-4.1169906zm6.3772072 4.5971408-5.0975899-1.7539372c-1.0270744 1.9354816-3.0643207 3.2578788-5.4068059 3.2578788-3.3725424 0-6.1157159-2.7370547-6.1157159-6.1010824s2.7431735-6.1020744 6.1157159-6.1020744c3.3715482 0 6.1157159 2.7380467 6.1157159 6.1020744 0 .3273752-.0328107.6458219-.0835181.9593084l2.4836706.8551436v-2.5445978h1.9885274zm-9.8292907 9.9264115-1.8214911-.7966129-7.0055819 15.9203529 1.8214911.7976049zm7.5593867 7.5951035-5.7408785-5.5941469-1.3879921 1.4196177 4.0794639 3.97612-4.5616818 3.4156141 1.1941107 1.5862814zm-18.1085244 4.0455633-5.7398842-5.5931549 6.4169778-4.8044784 1.1941106 1.5872735-4.562676 3.414622 4.0794639 3.9761201z" fill="#fff"/></g></svg>