<svg height="80" viewBox="0 0 80 80" width="80" xmlns="http://www.w3.org/2000/svg"><g fill="none" fill-rule="evenodd"><path d="m0 0h80v80h-80z" fill="#ed7100"/><path d="m54 34.28325-10.478-6.05 10.478-6.049zm-32 3.887v-19.872l17.21 9.936zm-2-23.339-10.478-6.049 10.478-6.05zm0 38.908-10.478-6.05 10.478-6.05zm35.5-34.153c-.309-.179-.691-.179-1 0l-13.134 7.583-19.366-11.18v-14.989c0-.358-.19-.688-.5-.866-.309-.179-.691-.179-1 0l-13.478 7.781c-.309.179-.5.509-.5.867 0 .357.191.687.5.866l12.978 7.492v22.19l-12.978 7.493c-.309.178-.5.508-.5.866 0 .357.191.687.5.866l13.478 7.782c.154.089.327.133.5.133s.346-.044.5-.133c.31-.179.5-.509.5-.867v-14.991l19.366-11.181 13.134 7.583c.309.179.691.179 1 0 .31-.179.5-.509.5-.866v-15.563c0-.357-.19-.688-.5-.866zm-19.5 34.148v-12.099l10.478 6.05zm12.978-6.915-13.478-7.782c-.309-.179-.691-.179-1 0-.31.179-.5.509-.5.866v15.563c0 .358.19.688.5.866.154.09.327.134.5.134s.346-.044.5-.134l13.478-7.781c.309-.179.5-.509.5-.866 0-.358-.191-.688-.5-.866zm-46.978-12.536v-12.1l10.478 6.05zm13.478-6.05c0-.358-.191-.688-.5-.867l-13.478-7.781c-.309-.178-.691-.178-1 0-.31.179-.5.509-.5.866v15.563c0 .358.19.688.5.867.154.089.327.133.5.133s.346-.044.5-.133l13.478-7.782c.309-.179.5-.509.5-.866zm20.522-25.501 10.478 6.05-10.478 6.049zm-1.5 14.697c.154.089.327.134.5.134s.346-.045.5-.134l13.478-7.781c.309-.179.5-.509.5-.866 0-.358-.191-.688-.5-.867l-13.478-7.781c-.309-.179-.691-.179-1 0-.31.178-.5.508-.5.866v15.563c0 .357.19.687.5.866z" fill="#fff" transform="translate(12 12)"/></g></svg>