<svg height="80" viewBox="0 0 80 80" width="80" xmlns="http://www.w3.org/2000/svg"><g fill="none" fill-rule="evenodd"><path d="m0 0h80v80h-80z" fill="#01a88d"/><path d="m41.002 49.0001328c0 .5509891-.448.999986-1 .999986s-1-.4489969-1-.999986c0-.5510032.448-1 1-1s1 .4489968 1 1zm-4-.000007c0 1.6539884 1.346 2.999979 3 2.999979s3-1.3459906 3-2.999979c0-1.6539885-1.346-2.9999791-3-2.9999791s-3 1.3459906-3 2.9999791zm-1 9.9999301h8v-1.999986h-8zm-1 1.999986h10v-5.999958h-10zm-2-6.9999441v7.9999371c0 .5519962.447.9999931 1 .9999931h12c.553 0 1-.4479969 1-.9999931v-7.9999371c0-.5520031-.447-1-1-1h-12c-.553 0-1 .4479969-1 1zm15 10.9999162h-16v-15.5108916l8-6.2219566 8 6.2219566zm-7.386-23.7898338c-.361-.279998-.867-.279998-1.228 0l-9 6.9999511c-.243.1899987-.386.4809966-.386.7899945v16.9998812c0 .5519961.447.999993 1 .999993h18c.553 0 1-.4479969 1-.999993v-16.9998812c0-.3089979-.143-.5999958-.386-.7899945zm16.386 1.7899875c-.552 0-1-.4489969-1-.999986 0-.5510032.448-1 1-1s1 .4489968 1 1c0 .5509891-.448.999986-1 .999986zm-3.984-15.9508885c-.56 0-1.016-.4559968-1.016-1.0159929s.456-1.0159929 1.016-1.0159929 1.016.4559968 1.016 1.0159929-.456 1.0159929-1.016 1.0159929zm-4.016 7.9509444c.552 0 1 .4489969 1 1 0 .5509892-.448.999986-1 .999986s-1-.4489968-1-.999986c0-.5510031.448-1 1-1zm17.494-1.8679869-6.494-3.7119741v-7.4199482c0-.3339976-.167-.6459954-.445-.8319941l-12-7.9999441c-.317-.2099986-.725-.2239985-1.055-.0339998l-6.498 3.7499738-6.502-3.7499738c-.312-.1799987-.694-.1789988-1.004.002l-12 6.9999511c-.308.1789987-.496.5089964-.496.8639939v8.4199412l-6.496 3.7119741c-.312.1779987-.504.5089964-.504.8679939v.4169971c-.001.0209998-.002.0409997-.002.0619995v10.883924c0 .0199999.001.0399997.002.0589996v1.577989c0 .3789973.214.7249949.553.8949937l5.447 2.722981v8.3819414c0 .3789974.214.7249949.553.8949937l8 3.9999721.894-1.7899875-7.447-3.722974v-8.3819414c0-.3789974-.214-.7249949-.553-.8949938l-5.447-2.7229809-.001-5.7639598 5.448-2.7229809-.894-1.7899875-4.554 2.2759841.001-3.7999735 5.961-3.4069762 5.039 3.3449767v4.9279655l-4.513 2.6949812 1.026 1.715988 4.499-2.6849812 4.473 2.6839812 1.03-1.713988-4.515-2.7089811v-4.8989657l5.555-3.7029742c.278-.1859987.445-.4979965.445-.8319942v-5.999958h-2v5.4649618l-4.988 3.3249767-5.012-3.3269767v-7.8889449l5-2.9159796v8.3419417h2v-9.5089335l4.003-2.3349837 5.996 3.4589758.001 12.3849135c0 .3589974.192.6899951.504.8679939l6.536 3.7349739c-.018.1309991-.04.2609982-.04.3969972 0 1.6539885 1.346 2.9999791 3 2.9999791s3-1.3459906 3-2.9999791c0-1.6539884-1.346-2.999979-3-2.999979-.794 0-1.512.3149978-2.049.8199943l-5.951-3.4009763-.001-11.8009175 5.963-3.441976 11.038 7.3589486v2.4649828h-2.15c-.423-1.1559919-1.534-1.9829862-2.834-1.9829862-1.663 0-3.016 1.3529906-3.016 3.015979 0 1.6629883 1.353 3.0159789 3.016 3.0159789 1.325 0 2.454-.858994 2.857-2.0489857h2.127v2.999979c0 .3589975.192.6899952.504.867994l6.494 3.711974v10.6919253l-5.037-2.8899798c.017-.1259991.039-.2509982.039-.3819973 0-1.6539885-1.346-2.999979-3-2.999979s-3 1.3459905-3 2.999979c0 1.6539884 1.346 2.999979 3 2.999979.799 0 1.521-.3179977 2.06-.8289942l4.824 2.7679807-4.331 2.1659848c-.339.1699989-.553.5159964-.553.8949938v8.3819414l-7.447 3.722974.894 1.7899875 8-3.9999721c.339-.1699988.553-.5159963.553-.8949937v-8.3819414l5.445-2.722981c.339-.1699988.553-.5159964.553-.8949937v-12.9999092c0-.3589975-.192-.6899952-.504-.8679939z" fill="#fff"/></g></svg>