<svg height="80" viewBox="0 0 80 80" width="80" xmlns="http://www.w3.org/2000/svg"><g fill="none" fill-rule="evenodd"><path d="m0 0h80v80h-80z" fill="#ed7100"/><path d="m64 48.2340095-8-4.8009978v-11.4329948c0-.3559998-.188-.6849997-.496-.8639996l-11.504-6.7099969v-9.6739956l20 11.8189946zm1.509-23.0949895-22-12.999994c-.31-.1829999-.691-.1849999-1.005-.008-.311.1779999-.504.5099997-.504.8689996v11.9999945c0 .3549998.189.6839997.496.8639996l11.504 6.7099969v11.4259948c0 .3509999.185.6769997.486.8569996l10 5.9999973c.158.0949999.336.1429917.514.1429917.17 0 .34-.0429918.493-.1299917.314-.1769999.507-.5099998.507-.8700083v-23.9999804c0-.3539998-.186-.6809996-.491-.8609996zm-25.064 41.723981-23.445-12.4639943v-27.8279873l20-11.8189946v9.6989956l-10.537 6.7049969c-.288.1839999-.463.5019998-.463.8439996v16.9999922c0 .3729999.208.7149997.538.8869996l13.453 6.9999968c.289.15.633.151.921.001l13.052-6.7439969 8.032 4.8199978zm24.07-12.7209942-10-5.9999973c-.298-.1779999-.666-.1899999-.974-.03l-13.086 6.760997-12.455-6.4799971v-15.8439927l10.537-6.704997c.288-.1839999.463-.5019998.463-.8439996v-11.9999945c0-.3589999-.192-.6909997-.504-.8689996-.312-.1769999-.694-.1749999-1.005.008l-22 12.999994c-.304.18-.491.5069998-.491.8609996v28.9999804c0 .3690062.204.7090061.53.883006l24.454 12.9999941c.147.0779999.308.1169999.469.1169999.167 0 .333-.042.484-.1249999l23.547-12.9999941c.313-.1729999.509-.4999998.5161416-.8569996.0058584-.3579998-.1791416-.6919997-.4851416-.8759996z" fill="#fff"/></g></svg>