<svg height="80" viewBox="0 0 80 80" width="80" xmlns="http://www.w3.org/2000/svg"><g fill="none" fill-rule="evenodd"><path d="m0 0h80v80h-80z" fill="#7aa116"/><path d="m19.3953463 12.0244294c6.2641119-2.62009353 10.7001911.8260295 12.31622 2.4280868 1.3180235 1.3090467 2.3460419 2.9811064 3.0560546 4.9671774.1230021.3460123.4280076.5970213.7910141.6520232.3680065.0510019.729013-.0930033.9490169-.3870138.7880141-1.0480374 1.9420347-1.6490589 3.1630565-1.6490589 1.8250326 0 4.0370721 1.3850495 4.2660762 5.2881889.0260004.4510161.3510063.8270295.7930141.9200329 4.533081.952034 6.832122 3.4671238 6.832122 7.4722668 0 3.722133-1.7040304 6.0222151-5.0630904 6.8372442l.4700084 1.9430694c4.252076-1.0300368 6.5931178-4.1481481 6.5931178-8.7803136 0-4.7151684-2.7260487-7.981285-7.6961375-9.2603307-.5420096-4.4281582-3.4390614-6.4202293-6.1951106-6.4202293-1.3170235 0-2.5730459.448016-3.6090644 1.2650452-.7610136-1.650059-1.7460312-3.08011-2.9400525-4.2681525-3.9640708-3.92514014-9.3811676-4.99217825-14.4982589-2.8531019-4.3760782 1.8360656-7.6761371 6.8972464-7.6761371 11.7754206 0 .2400086.0080001.4870174.0230004.7420265-4.01707174 1.3220472-6.38811408 4.6151648-6.38811408 8.96132 0 .2190079.01000018.4370157.0220004.6490232.20700369 3.7581342 2.71704851 7.0082503 6.39511418 8.2782957l.6520117-1.8910676c-2.90505192-1.0030358-4.88808733-3.5541269-5.05009022-6.4932319-.00900016-.1760062-.01900034-.3590128-.01900034-.5430194 0-5.0831815 3.57306376-6.7302403 5.70210186-7.2592592.4890087-.1220044.8110144-.589021.7520134-1.0900389-.0600011-.4950177-.0890016-.9380335-.0890016-1.3540484 0-4.0521447 2.8330506-8.4133005 6.4481151-9.9303547zm20.604368 20.9767492c0-.3970142-.0850015-.6960248-.2410043-.8420301-.1710031-.1590056-.4690084-.1740062-.6920124-.1600057l-13.0672333.0020001c-.5520099 0-1.0000179-.448016-1.0000179-1.0000357 0-.2710097-.1010018-1.0300368-.2170039-1.5010536h-3.4590617c-.1530028.4600164-.3170057 1.2410443-.3240058 1.5050537-.0140003.5420194-.4580082.9960356-1.0000179.9960356h-3.0000535c-.2930053-.0190007-.5880105-.001-.7580136.1580056-.1560028.1460053-.2420043.4450159-.2420043.8420301v14.0005h24.0004286zm2.0000357 2.0000714v7.2282582l2.5820461-7.2282582zm-.058001 13.3374764-.0090002-.0030001c-.1380025.3860138-.4980089.6660238-.9330167.6660238h-26.0004643c-.5520098 0-1.0000178-.448016-1.0000178-1.0000358v-15.0005357c0-1.2260438.4760085-1.9290689.8750156-2.3030822.3830069-.3580128 1.063019-.7770278 2.1920392-.6940248l2.0500366-.0020001c.1780031-1.035037.6220111-2.5020894 1.6910302-2.5020894h4.5520812c.0610011 0 .1230022.0060003.1840033.0170006.9410168.1760063 1.2740228 1.511054 1.3920249 2.4840888h12.0642154c1.0570189-.0730026 1.7420311.3390121 2.125038.6970249.4000071.3740133.8750156 1.0770384.8750156 2.3030822h4.0000714c.3260058 0 .6300113.1580057.8180146.4240152.1870034.2660095.2330042.6060216.1240022.9120325zm12.0582153 4.2481517-7.6061358-7.6062716-1.4140253 1.4140505 7.6051358 7.6052716h-5.5030983v2.0000714h7.9181414c.5530099 0 1.0000179-.448016 1.0000179-1.0000357v-7.9182828h-2.0000357zm-43.3577743-7.6412729-8.64215429 7.8032787v-5.6672024h-2.00003571v7.9182828c0 .5520197.448008 1.0000357 1.00001786 1.0000357h8.91915927v-2.0000714h-6.32011286l8.38314973-7.5702704zm44.3577921-44.9456052h-8.9181592v2.00007143h6.667119l-7.8041393 8.64230867 1.4840265 1.3400478 7.5711352-8.38329936v6.32022572h2.0000357v-8.91931854c0-.55201972-.447008-1.00003572-1.0000179-1.00003572zm-52.99994639 9.91935426h-2.00003571v-8.91931854c0-.55201972.448008-1.00003572 1.00001786-1.00003572h8.91915927v2.00007143h-6.50511616l8.60515363 8.60530737-1.4140252 1.4140505-8.60515369-8.60430733z" fill="#fff" transform="translate(11.982214 12)"/></g></svg>