<svg height="80" viewBox="0 0 80 80" width="80" xmlns="http://www.w3.org/2000/svg"><g fill="none" fill-rule="evenodd"><path d="m0 0h80v80h-80z" fill="#e7157b"/><path d="m17 38c1.103 0 2 .897 2 2s-.897 2-2 2-2-.897-2-2 .897-2 2-2zm24 26c-11.686 0-21.711-8.534-23.806-20.02 1.771-.086 3.233-1.321 3.663-2.98h6.143v-2h-6.143c-.43-1.658-1.891-2.893-3.662-2.98 2.09-11.31 12.316-20.02 23.805-20.02 4.313 0 8.832 1.622 13.429 4.821l1.142-1.642c-4.938-3.436-9.841-5.179-14.571-5.179-12.73 0-24.051 9.865-25.937 22.521-1.224.686-2.063 1.979-2.063 3.479s.839 2.793 2.063 3.478c1.907 12.863 12.993 22.522 25.937 22.522 5.407 0 10.942-1.843 15.585-5.189l-1.17-1.622c-4.305 3.103-9.424 4.811-14.415 4.811zm-10.899-27.558c1.854.453 4.174.558 5.899.558 1.642 0 3.823-.095 5.629-.494l-4.524 9.047c-.069.138-.105.292-.105.447v4.453c-.801.511-2.167 1.359-3 1.533v-5.986c0-.132-.026-.263-.077-.385zm5.899-3.442c4.025 0 6.174.604 6.841 1-.667.396-2.816 1-6.841 1s-6.174-.604-6.841-1c.667-.396 2.816-1 6.841-1zm-3 21h1c.043 0 .086-.003.128-.008 1.224-.159 2.781-1.105 4.144-1.979l.263-.168c.289-.184.465-.503.465-.845v-4.764l5.559-11.116c.274-.319.441-.686.441-1.12 0-2.61-5.639-3-9-3s-9 .39-9 3c0 .366.12.684.32.967l4.68 11.233v6.8c0 .552.447 1 1 1zm29-1c1.103 0 2 .897 2 2s-.897 2-2 2-2-.897-2-2 .897-2 2-2zm0-30c1.103 0 2 .897 2 2s-.897 2-2 2-2-.897-2-2 .897-2 2-2zm2 15c1.103 0 2 .897 2 2s-.897 2-2 2-2-.897-2-2 .897-2 2-2zm-10 3h6.143c.446 1.72 1.999 3 3.857 3 2.206 0 4-1.794 4-4s-1.794-4-4-4c-1.858 0-3.411 1.28-3.857 3h-6.143v-13h4.143c.446 1.72 1.999 3 3.857 3 2.206 0 4-1.794 4-4s-1.794-4-4-4c-1.858 0-3.411 1.28-3.857 3h-5.143c-.553 0-1 .448-1 1v14h-7v2h7v14c0 .552.447 1 1 1h5.143c.446 1.72 1.999 3 3.857 3 2.206 0 4-1.794 4-4s-1.794-4-4-4c-1.858 0-3.411 1.28-3.857 3h-4.143z" fill="#fff"/></g></svg>