<svg height="80" viewBox="0 0 80 80" width="80" xmlns="http://www.w3.org/2000/svg"><g fill="none" fill-rule="evenodd"><path d="m0 0h80v80h-80z" fill="#8c4fff"/><path d="m30 53c-7.168 0-13-5.832-13-13s5.832-13 13-13 13 5.832 13 13-5.832 13-13 13m30 6c0 2.206-1.794 4-4 4s-4-1.794-4-4 1.794-4 4-4 4 1.794 4 4m-4-42c2.206 0 4 1.794 4 4s-1.794 4-4 4-4-1.794-4-4 1.794-4 4-4m3 19c2.206 0 4 1.794 4 4s-1.794 4-4 4-4-1.794-4-4 1.794-4 4-4m-14.051 5h8.141c.478 2.833 2.943 5 5.91 5 3.309 0 6-2.691 6-6s-2.691-6-6-6c-2.967 0-5.432 2.167-5.91 5h-8.141c-.126-1.901-.605-3.703-1.377-5.346l8.874-7.831c.996.736 2.223 1.177 3.554 1.177 3.309 0 6-2.691 6-6s-2.691-6-6-6-6 2.691-6 6c0 1.256.389 2.421 1.051 3.386l-8.47 7.473c-2.677-4.121-7.31-6.859-12.581-6.859-8.271 0-15 6.729-15 15s6.729 15 15 15c5.271 0 9.904-2.738 12.581-6.859l8.47 7.473c-.662.965-1.051 2.13-1.051 3.386 0 3.309 2.691 6 6 6s6-2.691 6-6-2.691-6-6-6c-1.331 0-2.558.441-3.554 1.177l-8.874-7.831c.772-1.643 1.251-3.445 1.377-5.346" fill="#fff"/></g></svg>